%TF.GenerationSoftware,KiCad,Pcbnew,8.0.8*%
%TF.CreationDate,2025-02-13T14:20:33-05:00*%
%TF.ProjectId,GF24,47463234-2e6b-4696-9361-645f70636258,rev?*%
%TF.SameCoordinates,Original*%
%TF.FileFunction,Copper,L4,Bot*%
%TF.FilePolarity,Positive*%
%FSLAX46Y46*%
G04 Gerber Fmt 4.6, Leading zero omitted, Abs format (unit mm)*
G04 Created by KiCad (PCBNEW 8.0.8) date 2025-02-13 14:20:33*
%MOMM*%
%LPD*%
G01*
G04 APERTURE LIST*
G04 Aperture macros list*
%AMRoundRect*
0 Rectangle with rounded corners*
0 $1 Rounding radius*
0 $2 $3 $4 $5 $6 $7 $8 $9 X,Y pos of 4 corners*
0 Add a 4 corners polygon primitive as box body*
4,1,4,$2,$3,$4,$5,$6,$7,$8,$9,$2,$3,0*
0 Add four circle primitives for the rounded corners*
1,1,$1+$1,$2,$3*
1,1,$1+$1,$4,$5*
1,1,$1+$1,$6,$7*
1,1,$1+$1,$8,$9*
0 Add four rect primitives between the rounded corners*
20,1,$1+$1,$2,$3,$4,$5,0*
20,1,$1+$1,$4,$5,$6,$7,0*
20,1,$1+$1,$6,$7,$8,$9,0*
20,1,$1+$1,$8,$9,$2,$3,0*%
G04 Aperture macros list end*
%TA.AperFunction,SMDPad,CuDef*%
%ADD10RoundRect,0.287500X-0.612500X0.287500X-0.612500X-0.287500X0.612500X-0.287500X0.612500X0.287500X0*%
%TD*%
%TA.AperFunction,SMDPad,CuDef*%
%ADD11RoundRect,0.200000X-0.275000X0.200000X-0.275000X-0.200000X0.275000X-0.200000X0.275000X0.200000X0*%
%TD*%
%TA.AperFunction,SMDPad,CuDef*%
%ADD12R,1.150000X0.600000*%
%TD*%
%TA.AperFunction,SMDPad,CuDef*%
%ADD13R,1.150000X0.300000*%
%TD*%
%TA.AperFunction,SMDPad,CuDef*%
%ADD14R,2.000000X2.180000*%
%TD*%
%TA.AperFunction,SMDPad,CuDef*%
%ADD15RoundRect,0.622300X0.622300X0.622300X-0.622300X0.622300X-0.622300X-0.622300X0.622300X-0.622300X0*%
%TD*%
%TA.AperFunction,SMDPad,CuDef*%
%ADD16RoundRect,0.200000X0.200000X0.275000X-0.200000X0.275000X-0.200000X-0.275000X0.200000X-0.275000X0*%
%TD*%
%TA.AperFunction,SMDPad,CuDef*%
%ADD17R,3.500000X1.000000*%
%TD*%
%TA.AperFunction,SMDPad,CuDef*%
%ADD18R,3.400000X1.500000*%
%TD*%
%TA.AperFunction,SMDPad,CuDef*%
%ADD19R,3.810000X2.030000*%
%TD*%
%TA.AperFunction,SMDPad,CuDef*%
%ADD20R,1.020000X2.290000*%
%TD*%
%TA.AperFunction,SMDPad,CuDef*%
%ADD21R,3.000000X2.500000*%
%TD*%
%TA.AperFunction,SMDPad,CuDef*%
%ADD22RoundRect,0.227500X-0.382500X0.227500X-0.382500X-0.227500X0.382500X-0.227500X0.382500X0.227500X0*%
%TD*%
%TA.AperFunction,SMDPad,CuDef*%
%ADD23RoundRect,0.287500X-0.437500X0.287500X-0.437500X-0.287500X0.437500X-0.287500X0.437500X0.287500X0*%
%TD*%
%TA.AperFunction,SMDPad,CuDef*%
%ADD24RoundRect,0.200000X-0.200000X-0.275000X0.200000X-0.275000X0.200000X0.275000X-0.200000X0.275000X0*%
%TD*%
%TA.AperFunction,SMDPad,CuDef*%
%ADD25RoundRect,0.075000X0.650000X0.075000X-0.650000X0.075000X-0.650000X-0.075000X0.650000X-0.075000X0*%
%TD*%
%TA.AperFunction,HeatsinkPad*%
%ADD26R,2.083000X2.794000*%
%TD*%
%TA.AperFunction,SMDPad,CuDef*%
%ADD27RoundRect,0.150000X0.512500X0.150000X-0.512500X0.150000X-0.512500X-0.150000X0.512500X-0.150000X0*%
%TD*%
%TA.AperFunction,ConnectorPad*%
%ADD28C,0.787400*%
%TD*%
%TA.AperFunction,SMDPad,CuDef*%
%ADD29R,1.300000X0.800000*%
%TD*%
%TA.AperFunction,SMDPad,CuDef*%
%ADD30R,3.000000X2.100000*%
%TD*%
%TA.AperFunction,SMDPad,CuDef*%
%ADD31RoundRect,0.287500X-0.287500X-0.437500X0.287500X-0.437500X0.287500X0.437500X-0.287500X0.437500X0*%
%TD*%
%TA.AperFunction,SMDPad,CuDef*%
%ADD32RoundRect,0.200000X0.275000X-0.200000X0.275000X0.200000X-0.275000X0.200000X-0.275000X-0.200000X0*%
%TD*%
%TA.AperFunction,SMDPad,CuDef*%
%ADD33RoundRect,0.237500X-0.262500X0.237500X-0.262500X-0.237500X0.262500X-0.237500X0.262500X0.237500X0*%
%TD*%
%TA.AperFunction,ViaPad*%
%ADD34C,0.700000*%
%TD*%
%TA.AperFunction,Conductor*%
%ADD35C,0.160000*%
%TD*%
%TA.AperFunction,Conductor*%
%ADD36C,0.250000*%
%TD*%
G04 APERTURE END LIST*
D10*
%TO.P,C11,1*%
%TO.N,VBUS*%
X133750000Y-104500000D03*
%TO.P,C11,2*%
%TO.N,GND*%
X133750000Y-107500000D03*
%TD*%
D11*
%TO.P,R13,1*%
%TO.N,/MODE-H*%
X137750000Y-103925000D03*
%TO.P,R13,2*%
%TO.N,MODE*%
X137750000Y-105575000D03*
%TD*%
D12*
%TO.P,J2,A1/B12,GND*%
%TO.N,GND*%
X144495000Y-106050000D03*
%TO.P,J2,A4/B9,VBUS*%
%TO.N,VBUS*%
X144495000Y-106850000D03*
D13*
%TO.P,J2,A5,CC1*%
%TO.N,unconnected-(J2-CC1-PadA5)*%
X144495000Y-108000000D03*
%TO.P,J2,A6,DP1*%
%TO.N,unconnected-(J2-DP1-PadA6)*%
X144495000Y-109000000D03*
%TO.P,J2,A7,DN1*%
%TO.N,unconnected-(J2-DN1-PadA7)*%
X144495000Y-109500000D03*
%TO.P,J2,A8,SBU1*%
%TO.N,unconnected-(J2-SBU1-PadA8)*%
X144495000Y-110500000D03*
D12*
%TO.P,J2,B1/A12,GND*%
%TO.N,GND*%
X144495000Y-112450000D03*
%TO.P,J2,B4/A9,VBUS*%
%TO.N,VBUS*%
X144495000Y-111650000D03*
D13*
%TO.P,J2,B5,CC2*%
%TO.N,unconnected-(J2-CC2-PadB5)*%
X144495000Y-111000000D03*
%TO.P,J2,B6,DP2*%
%TO.N,unconnected-(J2-DP2-PadB6)*%
X144495000Y-110000000D03*
%TO.P,J2,B7,DN2*%
%TO.N,unconnected-(J2-DN2-PadB7)*%
X144495000Y-108500000D03*
%TO.P,J2,B8,SBU2*%
%TO.N,unconnected-(J2-SBU2-PadB8)*%
X144495000Y-107500000D03*
D14*
%TO.P,J2,S1,GND*%
%TO.N,GND*%
X145070000Y-104140000D03*
%TO.P,J2,S2,GND*%
X145070000Y-114360000D03*
%TO.P,J2,S3,GND*%
X149000000Y-104140000D03*
%TO.P,J2,S4,GND*%
X149000000Y-114360000D03*
%TD*%
D15*
%TO.P,U5,1,+*%
%TO.N,+3V3*%
X125000001Y-120999999D03*
%TO.P,U5,2,-*%
%TO.N,/BUZZ-*%
X125000001Y-128000001D03*
%TO.P,U5,3,NC*%
%TO.N,unconnected-(U5-NC-Pad3)*%
X117999999Y-128000001D03*
%TO.P,U5,4,NC*%
%TO.N,unconnected-(U5-NC-Pad4)*%
X117999999Y-120999999D03*
%TD*%
D16*
%TO.P,R6,1*%
%TO.N,/CH-TH-DIV*%
X127825000Y-108000000D03*
%TO.P,R6,2*%
%TO.N,VBUS*%
X126175000Y-108000000D03*
%TD*%
D17*
%TO.P,J3,1,1*%
%TO.N,GND*%
X120000000Y-112100000D03*
%TO.P,J3,2,2*%
%TO.N,BAT+*%
X120000000Y-110100000D03*
D18*
%TO.P,J3,3,3*%
%TO.N,unconnected-(J3-Pad3)*%
X114250000Y-107750000D03*
%TO.P,J3,4,4*%
%TO.N,unconnected-(J3-Pad4)*%
X114250000Y-114450000D03*
%TD*%
D19*
%TO.P,SW4,1,1*%
%TO.N,BAT+*%
X119315000Y-101035000D03*
D20*
%TO.P,SW4,2,COM*%
%TO.N,/REG_I*%
X123000000Y-101035000D03*
D19*
%TO.P,SW4,3,3*%
%TO.N,unconnected-(SW4-Pad3)*%
X126685000Y-101035000D03*
D21*
%TO.P,SW4,4,NC*%
%TO.N,unconnected-(SW4-NC-Pad4)*%
X118000000Y-91965000D03*
%TO.P,SW4,5,NC*%
%TO.N,unconnected-(SW4-NC-Pad5)*%
X128000000Y-91965000D03*
%TD*%
D22*
%TO.P,D1,1,K*%
%TO.N,+3V3*%
X127750000Y-122864999D03*
%TO.P,D1,2,A*%
%TO.N,/BUZZ-*%
X127750000Y-126135001D03*
%TD*%
D23*
%TO.P,C13,1*%
%TO.N,BAT+*%
X124500000Y-105100000D03*
%TO.P,C13,2*%
%TO.N,GND*%
X124500000Y-106900000D03*
%TD*%
D24*
%TO.P,TH1,1*%
%TO.N,/CH-TH-DIV*%
X131925000Y-114550000D03*
%TO.P,TH1,2*%
%TO.N,GND*%
X133575000Y-114550000D03*
%TD*%
D25*
%TO.P,U4,1,N-CHRG*%
%TO.N,N-CHRG*%
X131500000Y-104500000D03*
%TO.P,U4,2,VCC*%
%TO.N,VBUS*%
X131500000Y-105000000D03*
%TO.P,U4,3,N-FAULT*%
%TO.N,N-FAULT*%
X131500000Y-105500000D03*
%TO.P,U4,4,TIMER*%
%TO.N,/CH-TIMER*%
X131500000Y-106000000D03*
%TO.P,U4,5,GND*%
%TO.N,GND*%
X131500000Y-106500000D03*
%TO.P,U4,6,NTC*%
%TO.N,/CH-TH-DIV*%
X127200000Y-106500000D03*
%TO.P,U4,7,PROG*%
%TO.N,/CH-PROG*%
X127200000Y-106000000D03*
%TO.P,U4,8,SEL*%
%TO.N,VBUS*%
X127200000Y-105500000D03*
%TO.P,U4,9,BAT*%
%TO.N,BAT+*%
X127200000Y-105000000D03*
%TO.P,U4,10,N-ACPR*%
%TO.N,unconnected-(U4-N-ACPR-Pad10)*%
X127200000Y-104500000D03*
D26*
%TO.P,U4,11,GND*%
%TO.N,GND*%
X129350000Y-105500000D03*
%TD*%
D27*
%TO.P,Q1,1,B*%
%TO.N,/BUZZ-QB*%
X131387500Y-127050000D03*
%TO.P,Q1,2,E*%
%TO.N,GND*%
X131387500Y-128950000D03*
%TO.P,Q1,3,C*%
%TO.N,/BUZZ-*%
X129112500Y-128000000D03*
%TD*%
D16*
%TO.P,R5,1*%
%TO.N,GND*%
X130325000Y-109500000D03*
%TO.P,R5,2*%
%TO.N,/CH-PROG*%
X128675000Y-109500000D03*
%TD*%
D28*
%TO.P,J1,1,VCC*%
%TO.N,+3V3*%
X148786000Y-120925000D03*
%TO.P,J1,2,SWDIO*%
%TO.N,/SWDIO*%
X148786000Y-119655000D03*
%TO.P,J1,3,~{RESET}*%
%TO.N,NRST*%
X147516000Y-120925000D03*
%TO.P,J1,4,SWCLK*%
%TO.N,/SWDCLK*%
X147516000Y-119655000D03*
%TO.P,J1,5,GND*%
%TO.N,GND*%
X146246000Y-120925000D03*
%TO.P,J1,6,SWO*%
%TO.N,unconnected-(J1-SWO-Pad6)*%
X146246000Y-119655000D03*
%TD*%
D29*
%TO.P,J5,1,1*%
%TO.N,GNSS-TIMEPULSE*%
X74650000Y-113125000D03*
%TO.P,J5,2,2*%
%TO.N,GNSS-TX*%
X74650000Y-111875000D03*
%TO.P,J5,3,3*%
%TO.N,GNSS-RX*%
X74650000Y-110625000D03*
%TO.P,J5,4,4*%
%TO.N,GNSS-N-RESET*%
X74650000Y-109375000D03*
%TO.P,J5,5,5*%
%TO.N,GNSS-3V3*%
X74650000Y-108125000D03*
%TO.P,J5,6,6*%
%TO.N,GNSS-GND*%
X74650000Y-106875000D03*
D30*
%TO.P,J5,S1,SHIELD*%
%TO.N,unconnected-(J5-SHIELD-PadS1)*%
X71900000Y-115675000D03*
%TO.P,J5,S2,SHIELD*%
%TO.N,unconnected-(J5-SHIELD-PadS2)*%
X71900000Y-104325000D03*
%TD*%
D31*
%TO.P,C15,1*%
%TO.N,MODE*%
X138600000Y-108500000D03*
%TO.P,C15,2*%
%TO.N,GND*%
X140400000Y-108500000D03*
%TD*%
D11*
%TO.P,R14,1*%
%TO.N,/MODE-H*%
X141500000Y-104925000D03*
%TO.P,R14,2*%
%TO.N,+3V3*%
X141500000Y-106575000D03*
%TD*%
D19*
%TO.P,SW5,1,1*%
%TO.N,/MODE-H*%
X137315000Y-101035000D03*
D20*
%TO.P,SW5,2,COM*%
%TO.N,GND*%
X141000000Y-101035000D03*
D19*
%TO.P,SW5,3,3*%
%TO.N,unconnected-(SW5-Pad3)*%
X144685000Y-101035000D03*
D21*
%TO.P,SW5,4,NC*%
%TO.N,unconnected-(SW5-NC-Pad4)*%
X136000000Y-91965000D03*
%TO.P,SW5,5,NC*%
%TO.N,unconnected-(SW5-NC-Pad5)*%
X146000000Y-91965000D03*
%TD*%
D32*
%TO.P,R2,1*%
%TO.N,/BUZZ-QB*%
X130500000Y-124575000D03*
%TO.P,R2,2*%
%TO.N,BUZZER*%
X130500000Y-122925000D03*
%TD*%
D33*
%TO.P,C12,1*%
%TO.N,/CH-TIMER*%
X135750000Y-106950001D03*
%TO.P,C12,2*%
%TO.N,GND*%
X135750000Y-108549999D03*
%TD*%
D34*
%TO.N,GND*%
X139800000Y-107250000D03*
X125250000Y-96500000D03*
X120750000Y-127250000D03*
X116500000Y-94750000D03*
X115250000Y-103750000D03*
X131500000Y-93000000D03*
X125250000Y-108750000D03*
X123900000Y-115400000D03*
X129750000Y-99250000D03*
X140000000Y-128500000D03*
X150750000Y-98750000D03*
X136250000Y-118750000D03*
X138900000Y-103300000D03*
X123750000Y-98500000D03*
X147250000Y-100250000D03*
X141500000Y-96500000D03*
X133750000Y-129250000D03*
X120250000Y-113250000D03*
%TO.N,+3V3*%
X151000000Y-121250000D03*
X125900000Y-119000000D03*
X140000000Y-106050000D03*
%TO.N,NRST*%
X125200000Y-114000000D03*
X115900000Y-106100000D03*
X148500000Y-123950000D03*
%TO.N,/REG_I*%
X123000000Y-101035000D03*
X139800000Y-100600000D03*
X134400000Y-100400000D03*
%TO.N,BUTTON*%
X137300000Y-112950000D03*
X144400000Y-102550000D03*
%TO.N,VBUS*%
X133750000Y-104500000D03*
X136800000Y-98000000D03*
X143350000Y-105850000D03*
X142300000Y-108750000D03*
%TO.N,MODE*%
X137300000Y-113800000D03*
X137400000Y-107950000D03*
X139600000Y-105300000D03*
%TO.N,/SWDCLK*%
X134200000Y-108800000D03*
X148500000Y-116700000D03*
%TO.N,/SWDIO*%
X136500000Y-112250000D03*
X150800000Y-119400000D03*
%TO.N,BUZZER*%
X130500000Y-121850000D03*
X131200000Y-112050000D03*
%TO.N,/CH-TH-DIV*%
X132300000Y-113400000D03*
X129150000Y-107850000D03*
%TO.N,I2C-SDA*%
X137250000Y-119800000D03*
X133150000Y-119800000D03*
%TO.N,STATG*%
X129100000Y-111200000D03*
X121550000Y-103150000D03*
%TO.N,STATR*%
X115950000Y-98650000D03*
X129950000Y-111200000D03*
%TO.N,N-FAULT*%
X135350000Y-104700000D03*
X141500000Y-103300000D03*
%TO.N,N-CHRG*%
X145800000Y-109900000D03*
X131550000Y-102150000D03*
%TO.N,GNSS-RX*%
X73500000Y-110700000D03*
X95200000Y-108100000D03*
%TO.N,GNSS-TIMEPULSE*%
X88100000Y-115200000D03*
X73500000Y-113200000D03*
%TO.N,GNSS-TX*%
X73500000Y-111900000D03*
X95200000Y-110100000D03*
%TO.N,GNSS-N-RESET*%
X90000000Y-104750000D03*
X73500000Y-109400000D03*
%TO.N,/GNSS-ST-RX*%
X124650000Y-125100000D03*
X125950000Y-117750000D03*
%TO.N,/GNSS-ST-TIMEPULSE*%
X127050000Y-125100000D03*
X128750000Y-119550000D03*
%TO.N,/GNSS-ST-TX*%
X127350000Y-119150000D03*
X125850000Y-125100000D03*
%TO.N,/GNSS-ST-N-RESET*%
X123400000Y-125100000D03*
X125300000Y-117100000D03*
%TO.N,GNSS-3V3*%
X84700000Y-108100000D03*
X73500000Y-108200000D03*
X91900000Y-104700000D03*
%TO.N,GNSS-GND*%
X80000000Y-110000000D03*
X95100000Y-116600000D03*
X100000000Y-100000000D03*
X84800000Y-106200000D03*
X97000000Y-103000000D03*
X83000000Y-119000000D03*
X86200000Y-118000000D03*
X95100000Y-103400000D03*
X95000000Y-120000000D03*
X83000000Y-103000000D03*
X96600000Y-104900000D03*
X82000000Y-111900000D03*
X83000000Y-101000000D03*
X100000000Y-115000000D03*
X82000000Y-113800000D03*
X99000000Y-117000000D03*
X98000000Y-110000000D03*
X98000000Y-113800000D03*
X89000000Y-107000000D03*
X93800000Y-102000000D03*
X100000000Y-110000000D03*
X97000000Y-119000000D03*
X99000000Y-103000000D03*
X83400000Y-104900000D03*
X84800000Y-113800000D03*
X92000000Y-111900000D03*
X96600000Y-115100000D03*
X90000000Y-102000000D03*
X85000000Y-100000000D03*
X95000000Y-100000000D03*
X93800000Y-104800000D03*
X83400000Y-115100000D03*
X90000000Y-100000000D03*
X80000000Y-120000000D03*
X95200000Y-106200000D03*
X84900000Y-103400000D03*
X86200000Y-104800000D03*
X97000000Y-117000000D03*
X97000000Y-101000000D03*
X83000000Y-117000000D03*
X92000000Y-107000000D03*
X93800000Y-118000000D03*
X81000000Y-103000000D03*
X95200000Y-113800000D03*
X80000000Y-115000000D03*
X88000000Y-111900000D03*
X86200000Y-102000000D03*
X90000000Y-110000000D03*
X98000000Y-106200000D03*
X84800000Y-111900000D03*
X81000000Y-117000000D03*
X85000000Y-120000000D03*
X93800000Y-115200000D03*
X100000000Y-105000000D03*
X90000000Y-120000000D03*
X82000000Y-110000000D03*
X90000000Y-118000000D03*
X84900000Y-116600000D03*
X86200000Y-115200000D03*
X80000000Y-100000000D03*
X80000000Y-105000000D03*
X100000000Y-120000000D03*
%TD*%
D35*
%TO.N,BAT+*%
X124650000Y-105100000D02*
X124750000Y-105000000D01*
X121150000Y-105100000D02*
X120000000Y-106250000D01*
X120000000Y-106250000D02*
X120000000Y-110100000D01*
X124750000Y-105000000D02*
X127200000Y-105000000D01*
X124500000Y-105100000D02*
X121150000Y-105100000D01*
X124500000Y-105100000D02*
X124650000Y-105100000D01*
D36*
%TO.N,GND*%
X124500000Y-106900000D02*
X124500000Y-108000000D01*
X133750000Y-107000000D02*
X133250000Y-106500000D01*
X140400000Y-107850000D02*
X140400000Y-108500000D01*
X144612501Y-106050000D02*
X144612501Y-104715000D01*
X133750000Y-107500000D02*
X134700001Y-107500000D01*
X131750000Y-107500000D02*
X133750000Y-107500000D01*
X130325000Y-108925000D02*
X131750000Y-107500000D01*
X144612501Y-112450000D02*
X144612501Y-113785000D01*
X130325000Y-109500000D02*
X130325000Y-108925000D01*
X139800000Y-107250000D02*
X140400000Y-107850000D01*
X134700001Y-107500000D02*
X135750000Y-108549999D01*
X133750000Y-107500000D02*
X133750000Y-107000000D01*
X124500000Y-108000000D02*
X125250000Y-108750000D01*
X133250000Y-106500000D02*
X131500000Y-106500000D01*
X144612501Y-104715000D02*
X145187501Y-104140000D01*
X144612501Y-113785000D02*
X145187501Y-114360000D01*
D35*
%TO.N,/BUZZ-*%
X127750000Y-126135001D02*
X127750000Y-126637500D01*
X127750000Y-126637500D02*
X129112500Y-128000000D01*
X125000001Y-128000001D02*
X126865001Y-126135001D01*
X126865001Y-126135001D02*
X127750000Y-126135001D01*
D36*
%TO.N,+3V3*%
X149111000Y-121250000D02*
X151000000Y-121250000D01*
X126865001Y-122864999D02*
X127750000Y-122864999D01*
X125000001Y-119899999D02*
X125900000Y-119000000D01*
X148786000Y-120925000D02*
X149111000Y-121250000D01*
X125000001Y-120999999D02*
X126865001Y-122864999D01*
X125000001Y-120999999D02*
X125000001Y-119899999D01*
X140000000Y-106050000D02*
X140525000Y-106575000D01*
X140525000Y-106575000D02*
X141500000Y-106575000D01*
D35*
%TO.N,NRST*%
X147516000Y-120925000D02*
X148500000Y-121909000D01*
X148500000Y-121909000D02*
X148500000Y-123950000D01*
%TO.N,VBUS*%
X125750000Y-105750000D02*
X125750000Y-107250000D01*
X133250000Y-105000000D02*
X133750000Y-104500000D01*
X133250000Y-105000000D02*
X131500000Y-105000000D01*
X127200000Y-105500000D02*
X126000000Y-105500000D01*
X125750000Y-107250000D02*
X126175000Y-107675000D01*
X126175000Y-107675000D02*
X126175000Y-108000000D01*
X126000000Y-105500000D02*
X125750000Y-105750000D01*
%TO.N,/CH-TIMER*%
X134799999Y-106000000D02*
X131500000Y-106000000D01*
X135750000Y-106950001D02*
X134799999Y-106000000D01*
%TO.N,MODE*%
X139325000Y-105575000D02*
X139600000Y-105300000D01*
X137400000Y-107950000D02*
X137950000Y-108500000D01*
X137750000Y-105575000D02*
X139325000Y-105575000D01*
X137950000Y-108500000D02*
X138600000Y-108500000D01*
%TO.N,/SWDCLK*%
X148500000Y-116700000D02*
X148500000Y-118671000D01*
X148500000Y-118671000D02*
X147516000Y-119655000D01*
%TO.N,/SWDIO*%
X149041000Y-119400000D02*
X150800000Y-119400000D01*
X148786000Y-119655000D02*
X149041000Y-119400000D01*
%TO.N,/BUZZ-QB*%
X130500000Y-126162500D02*
X130500000Y-124575000D01*
X131387500Y-127050000D02*
X130500000Y-126162500D01*
%TO.N,BUZZER*%
X130500000Y-122925000D02*
X130500000Y-121850000D01*
%TO.N,/CH-PROG*%
X126513654Y-107250000D02*
X126500000Y-107250000D01*
X126500000Y-107250000D02*
X126060000Y-106810000D01*
X126500000Y-106000000D02*
X127200000Y-106000000D01*
X126060000Y-106810000D02*
X126060000Y-106440000D01*
X126060000Y-106440000D02*
X126500000Y-106000000D01*
X128236346Y-109500000D02*
X127000000Y-108263654D01*
X127000000Y-108263654D02*
X127000000Y-107736346D01*
X128675000Y-109500000D02*
X128236346Y-109500000D01*
X127000000Y-107736346D02*
X126513654Y-107250000D01*
%TO.N,/CH-TH-DIV*%
X131925000Y-114550000D02*
X131925000Y-113775000D01*
X129000000Y-108000000D02*
X129150000Y-107850000D01*
X127825000Y-108000000D02*
X127825000Y-107125000D01*
X131925000Y-113775000D02*
X132300000Y-113400000D01*
X127825000Y-107125000D02*
X127200000Y-106500000D01*
X127825000Y-108000000D02*
X129000000Y-108000000D01*
%TO.N,/MODE-H*%
X137315000Y-100535000D02*
X137315000Y-102815000D01*
X137315000Y-102815000D02*
X137750000Y-103250000D01*
X137750000Y-103250000D02*
X137750000Y-103925000D01*
X141425000Y-104925000D02*
X141500000Y-104925000D01*
X137750000Y-103925000D02*
X140425000Y-103925000D01*
X140425000Y-103925000D02*
X141425000Y-104925000D01*
%TO.N,N-FAULT*%
X134550000Y-105500000D02*
X135350000Y-104700000D01*
X131500000Y-105500000D02*
X134550000Y-105500000D01*
%TO.N,N-CHRG*%
X131500000Y-104500000D02*
X131500000Y-102200000D01*
X131500000Y-102200000D02*
X131550000Y-102150000D01*
%TO.N,GNSS-RX*%
X74650000Y-110625000D02*
X73575000Y-110625000D01*
X73575000Y-110625000D02*
X73500000Y-110700000D01*
%TO.N,GNSS-TIMEPULSE*%
X73575000Y-113125000D02*
X73500000Y-113200000D01*
X74650000Y-113125000D02*
X73575000Y-113125000D01*
%TO.N,GNSS-TX*%
X74650000Y-111875000D02*
X73525000Y-111875000D01*
X73525000Y-111875000D02*
X73500000Y-111900000D01*
%TO.N,GNSS-N-RESET*%
X74650000Y-109375000D02*
X73525000Y-109375000D01*
X73525000Y-109375000D02*
X73500000Y-109400000D01*
%TO.N,GNSS-3V3*%
X74650000Y-108125000D02*
X73575000Y-108125000D01*
X73575000Y-108125000D02*
X73500000Y-108200000D01*
%TD*%
%TA.AperFunction,Conductor*%
%TO.N,GNSS-GND*%
G36*
X107698493Y-90519685D02*
G01*
X107744248Y-90572489D01*
X107754192Y-90641647D01*
X107725167Y-90705203D01*
X107666389Y-90742977D01*
X107663547Y-90743775D01*
X107553511Y-90773258D01*
X107553502Y-90773261D01*
X107347267Y-90869431D01*
X107347265Y-90869432D01*
X107160858Y-90999954D01*
X106999954Y-91160858D01*
X106869432Y-91347265D01*
X106869431Y-91347267D01*
X106773261Y-91553502D01*
X106773258Y-91553511D01*
X106714366Y-91773302D01*
X106714364Y-91773313D01*
X106694532Y-91999998D01*
X106694532Y-92000001D01*
X106714364Y-92226686D01*
X106714366Y-92226697D01*
X106773258Y-92446488D01*
X106773261Y-92446497D01*
X106869431Y-92652732D01*
X106869432Y-92652734D01*
X106999954Y-92839141D01*
X107160858Y-93000045D01*
X107160861Y-93000047D01*
X107347266Y-93130568D01*
X107553504Y-93226739D01*
X107773308Y-93285635D01*
X107935230Y-93299801D01*
X107999998Y-93305468D01*
X108000000Y-93305468D01*
X108000002Y-93305468D01*
X108056673Y-93300509D01*
X108226692Y-93285635D01*
X108446496Y-93226739D01*
X108652734Y-93130568D01*
X108839139Y-93000047D01*
X109000047Y-92839139D01*
X109130568Y-92652734D01*
X109226739Y-92446496D01*
X109256225Y-92336451D01*
X109292590Y-92276791D01*
X109355437Y-92246262D01*
X109424812Y-92254556D01*
X109478690Y-92299042D01*
X109499965Y-92365594D01*
X109500000Y-92368545D01*
X109500000Y-127631454D01*
X109480315Y-127698493D01*
X109427511Y-127744248D01*
X109358353Y-127754192D01*
X109294797Y-127725167D01*
X109257023Y-127666389D01*
X109256225Y-127663547D01*
X109226741Y-127553511D01*
X109226738Y-127553502D01*
X109218645Y-127536146D01*
X109130568Y-127347266D01*
X109000047Y-127160861D01*
X109000045Y-127160858D01*
X108839141Y-126999954D01*
X108652734Y-126869432D01*
X108652732Y-126869431D01*
X108446497Y-126773261D01*
X108446488Y-126773258D01*
X108226697Y-126714366D01*
X108226693Y-126714365D01*
X108226692Y-126714365D01*
X108226691Y-126714364D01*
X108226686Y-126714364D01*
X108000002Y-126694532D01*
X107999998Y-126694532D01*
X107773313Y-126714364D01*
X107773302Y-126714366D01*
X107553511Y-126773258D01*
X107553502Y-126773261D01*
X107347267Y-126869431D01*
X107347265Y-126869432D01*
X107160858Y-126999954D01*
X106999954Y-127160858D01*
X106869432Y-127347265D01*
X106869431Y-127347267D01*
X106773261Y-127553502D01*
X106773258Y-127553511D01*
X106714366Y-127773302D01*
X106714364Y-127773313D01*
X106694532Y-127999998D01*
X106694532Y-128000001D01*
X106714364Y-128226686D01*
X106714366Y-128226697D01*
X106773258Y-128446488D01*
X106773261Y-128446497D01*
X106869431Y-128652732D01*
X106869432Y-128652734D01*
X106999954Y-128839141D01*
X107160858Y-129000045D01*
X107160861Y-129000047D01*
X107347266Y-129130568D01*
X107553504Y-129226739D01*
X107553509Y-129226740D01*
X107553511Y-129226741D01*
X107663547Y-129256225D01*
X107723208Y-129292590D01*
X107753737Y-129355437D01*
X107745442Y-129424812D01*
X107700957Y-129478690D01*
X107634405Y-129499965D01*
X107631454Y-129500000D01*
X72368546Y-129500000D01*
X72301507Y-129480315D01*
X72255752Y-129427511D01*
X72245808Y-129358353D01*
X72274833Y-129294797D01*
X72333611Y-129257023D01*
X72336453Y-129256225D01*
X72402957Y-129238405D01*
X72446496Y-129226739D01*
X72652734Y-129130568D01*
X72839139Y-129000047D01*
X73000047Y-128839139D01*
X73130568Y-128652734D01*
X73226739Y-128446496D01*
X73285635Y-128226692D01*
X73305468Y-128000000D01*
X73285635Y-127773308D01*
X73226739Y-127553504D01*
X73130568Y-127347266D01*
X73000047Y-127160861D01*
X73000045Y-127160858D01*
X72839141Y-126999954D01*
X72652734Y-126869432D01*
X72652732Y-126869431D01*
X72446497Y-126773261D01*
X72446488Y-126773258D01*
X72226697Y-126714366D01*
X72226693Y-126714365D01*
X72226692Y-126714365D01*
X72226691Y-126714364D01*
X72226686Y-126714364D01*
X72000002Y-126694532D01*
X71999998Y-126694532D01*
X71773313Y-126714364D01*
X71773302Y-126714366D01*
X71553511Y-126773258D01*
X71553502Y-126773261D01*
X71347267Y-126869431D01*
X71347265Y-126869432D01*
X71160858Y-126999954D01*
X70999954Y-127160858D01*
X70869432Y-127347265D01*
X70869431Y-127347267D01*
X70773261Y-127553502D01*
X70773258Y-127553511D01*
X70743775Y-127663547D01*
X70707410Y-127723208D01*
X70644563Y-127753737D01*
X70575188Y-127745442D01*
X70521310Y-127700957D01*
X70500035Y-127634405D01*
X70500000Y-127631454D01*
X70500000Y-116999500D01*
X70519685Y-116932461D01*
X70572489Y-116886706D01*
X70624000Y-116875500D01*
X73414822Y-116875500D01*
X73458717Y-116866768D01*
X73458717Y-116866767D01*
X73458722Y-116866767D01*
X73508504Y-116833504D01*
X73541767Y-116783722D01*
X73550500Y-116739820D01*
X73550500Y-115200000D01*
X87594353Y-115200000D01*
X87614834Y-115342456D01*
X87674622Y-115473371D01*
X87674623Y-115473373D01*
X87768872Y-115582143D01*
X87889947Y-115659953D01*
X87889950Y-115659954D01*
X87889949Y-115659954D01*
X88028036Y-115700499D01*
X88028038Y-115700500D01*
X88028039Y-115700500D01*
X88171962Y-115700500D01*
X88171962Y-115700499D01*
X88310053Y-115659953D01*
X88431128Y-115582143D01*
X88525377Y-115473373D01*
X88585165Y-115342457D01*
X88605647Y-115200000D01*
X88585165Y-115057543D01*
X88525377Y-114926627D01*
X88431128Y-114817857D01*
X88310053Y-114740047D01*
X88310051Y-114740046D01*
X88310049Y-114740045D01*
X88310050Y-114740045D01*
X88171963Y-114699500D01*
X88171961Y-114699500D01*
X88028039Y-114699500D01*
X88028036Y-114699500D01*
X87889949Y-114740045D01*
X87768873Y-114817856D01*
X87674623Y-114926626D01*
X87674622Y-114926628D01*
X87614834Y-115057543D01*
X87594353Y-115200000D01*
X73550500Y-115200000D01*
X73550500Y-114610180D01*
X73550500Y-114610177D01*
X73541768Y-114566282D01*
X73541767Y-114566281D01*
X73541767Y-114566278D01*
X73508504Y-114516496D01*
X73508503Y-114516495D01*
X73458724Y-114483234D01*
X73458717Y-114483231D01*
X73414822Y-114474500D01*
X73414820Y-114474500D01*
X70624000Y-114474500D01*
X70556961Y-114454815D01*
X70511206Y-114402011D01*
X70500000Y-114350500D01*
X70500000Y-108200000D01*
X72994353Y-108200000D01*
X73014834Y-108342456D01*
X73028953Y-108373371D01*
X73074623Y-108473373D01*
X73168872Y-108582143D01*
X73246683Y-108632148D01*
X73289948Y-108659954D01*
X73361704Y-108681023D01*
X73420482Y-108718797D01*
X73449507Y-108782353D01*
X73439563Y-108851511D01*
X73393809Y-108904315D01*
X73361704Y-108918977D01*
X73289948Y-108940045D01*
X73168873Y-109017856D01*
X73074623Y-109126626D01*
X73074622Y-109126628D01*
X73014834Y-109257543D01*
X72994353Y-109400000D01*
X73014834Y-109542456D01*
X73040886Y-109599500D01*
X73074623Y-109673373D01*
X73168872Y-109782143D01*
X73289947Y-109859953D01*
X73289950Y-109859954D01*
X73289949Y-109859954D01*
X73428036Y-109900499D01*
X73428038Y-109900500D01*
X73428039Y-109900500D01*
X73571962Y-109900500D01*
X73571962Y-109900499D01*
X73710053Y-109859953D01*
X73723508Y-109851305D01*
X73790547Y-109831620D01*
X73857587Y-109851304D01*
X73882224Y-109875503D01*
X73882860Y-109874868D01*
X73891495Y-109883503D01*
X73891496Y-109883504D01*
X73911542Y-109896898D01*
X73956347Y-109950510D01*
X73965054Y-110019835D01*
X73934900Y-110082862D01*
X73911543Y-110103101D01*
X73906911Y-110106195D01*
X73891495Y-110116496D01*
X73858230Y-110166281D01*
X73857541Y-110167945D01*
X73855072Y-110171008D01*
X73851448Y-110176432D01*
X73850962Y-110176107D01*
X73813695Y-110222344D01*
X73747399Y-110244402D01*
X73708051Y-110239458D01*
X73571964Y-110199500D01*
X73571961Y-110199500D01*
X73428039Y-110199500D01*
X73428036Y-110199500D01*
X73289949Y-110240045D01*
X73168873Y-110317856D01*
X73074623Y-110426626D01*
X73074622Y-110426628D01*
X73014834Y-110557543D01*
X72994353Y-110700000D01*
X73014834Y-110842456D01*
X73074622Y-110973371D01*
X73074623Y-110973373D01*
X73168872Y-111082143D01*
X73246683Y-111132148D01*
X73289948Y-111159954D01*
X73361704Y-111181023D01*
X73420482Y-111218797D01*
X73449507Y-111282353D01*
X73439563Y-111351511D01*
X73393809Y-111404315D01*
X73361704Y-111418977D01*
X73289948Y-111440045D01*
X73168873Y-111517856D01*
X73074623Y-111626626D01*
X73074622Y-111626628D01*
X73014834Y-111757543D01*
X72994353Y-111900000D01*
X73014834Y-112042456D01*
X73074622Y-112173371D01*
X73074623Y-112173373D01*
X73168872Y-112282143D01*
X73289947Y-112359953D01*
X73289950Y-112359954D01*
X73289949Y-112359954D01*
X73428036Y-112400499D01*
X73428038Y-112400500D01*
X73428039Y-112400500D01*
X73571962Y-112400500D01*
X73571962Y-112400499D01*
X73710053Y-112359953D01*
X73723508Y-112351305D01*
X73790547Y-112331620D01*
X73857587Y-112351304D01*
X73882224Y-112375503D01*
X73882860Y-112374868D01*
X73891495Y-112383503D01*
X73891496Y-112383504D01*
X73911542Y-112396898D01*
X73956347Y-112450510D01*
X73965054Y-112519835D01*
X73934900Y-112582862D01*
X73911543Y-112603101D01*
X73906911Y-112606195D01*
X73891495Y-112616496D01*
X73858230Y-112666281D01*
X73857541Y-112667945D01*
X73855072Y-112671008D01*
X73851448Y-112676432D01*
X73850962Y-112676107D01*
X73813695Y-112722344D01*
X73747399Y-112744402D01*
X73708051Y-112739458D01*
X73571964Y-112699500D01*
X73571961Y-112699500D01*
X73428039Y-112699500D01*
X73428036Y-112699500D01*
X73289949Y-112740045D01*
X73168873Y-112817856D01*
X73074623Y-112926626D01*
X73074622Y-112926628D01*
X73014834Y-113057543D01*
X72994353Y-113200000D01*
X73014834Y-113342456D01*
X73074622Y-113473371D01*
X73074623Y-113473373D01*
X73168872Y-113582143D01*
X73289947Y-113659953D01*
X73289950Y-113659954D01*
X73289949Y-113659954D01*
X73428036Y-113700499D01*
X73428038Y-113700500D01*
X73428039Y-113700500D01*
X73571962Y-113700500D01*
X73571962Y-113700499D01*
X73710050Y-113659954D01*
X73710051Y-113659954D01*
X73710053Y-113659953D01*
X73754355Y-113631481D01*
X73821393Y-113611797D01*
X73888433Y-113631481D01*
X73890284Y-113632694D01*
X73891495Y-113633503D01*
X73891496Y-113633504D01*
X73941278Y-113666767D01*
X73941280Y-113666767D01*
X73941282Y-113666768D01*
X73985177Y-113675500D01*
X73985180Y-113675500D01*
X75314822Y-113675500D01*
X75358717Y-113666768D01*
X75358717Y-113666767D01*
X75358722Y-113666767D01*
X75408504Y-113633504D01*
X75441767Y-113583722D01*
X75450500Y-113539820D01*
X75450500Y-112710180D01*
X75450500Y-112710177D01*
X75441768Y-112666282D01*
X75441767Y-112666281D01*
X75441767Y-112666278D01*
X75408504Y-112616496D01*
X75388457Y-112603101D01*
X75343653Y-112549492D01*
X75334944Y-112480167D01*
X75365098Y-112417139D01*
X75388458Y-112396898D01*
X75408504Y-112383504D01*
X75441767Y-112333722D01*
X75450500Y-112289820D01*
X75450500Y-111460180D01*
X75450500Y-111460177D01*
X75441768Y-111416282D01*
X75441767Y-111416281D01*
X75441767Y-111416278D01*
X75408504Y-111366496D01*
X75388457Y-111353101D01*
X75343653Y-111299492D01*
X75334944Y-111230167D01*
X75365098Y-111167139D01*
X75388456Y-111146899D01*
X75408504Y-111133504D01*
X75441767Y-111083722D01*
X75450500Y-111039820D01*
X75450500Y-110210180D01*
X75450500Y-110210177D01*
X75441768Y-110166282D01*
X75441767Y-110166281D01*
X75441767Y-110166278D01*
X75408504Y-110116496D01*
X75388457Y-110103101D01*
X75385865Y-110100000D01*
X94694353Y-110100000D01*
X94714834Y-110242456D01*
X94715723Y-110244402D01*
X94774623Y-110373373D01*
X94868872Y-110482143D01*
X94989947Y-110559953D01*
X94989950Y-110559954D01*
X94989949Y-110559954D01*
X95128036Y-110600499D01*
X95128038Y-110600500D01*
X95128039Y-110600500D01*
X95271962Y-110600500D01*
X95271962Y-110600499D01*
X95410053Y-110559953D01*
X95531128Y-110482143D01*
X95625377Y-110373373D01*
X95685165Y-110242457D01*
X95705647Y-110100000D01*
X95685165Y-109957543D01*
X95625377Y-109826627D01*
X95531128Y-109717857D01*
X95410053Y-109640047D01*
X95410051Y-109640046D01*
X95410049Y-109640045D01*
X95410050Y-109640045D01*
X95271963Y-109599500D01*
X95271961Y-109599500D01*
X95128039Y-109599500D01*
X95128036Y-109599500D01*
X94989949Y-109640045D01*
X94868873Y-109717856D01*
X94774623Y-109826626D01*
X94774622Y-109826628D01*
X94714834Y-109957543D01*
X94694353Y-110100000D01*
X75385865Y-110100000D01*
X75343653Y-110049492D01*
X75334944Y-109980167D01*
X75365098Y-109917139D01*
X75388458Y-109896898D01*
X75408504Y-109883504D01*
X75441767Y-109833722D01*
X75450500Y-109789820D01*
X75450500Y-108960180D01*
X75450500Y-108960177D01*
X75441768Y-108916282D01*
X75441767Y-108916281D01*
X75441767Y-108916278D01*
X75408504Y-108866496D01*
X75388457Y-108853101D01*
X75343653Y-108799492D01*
X75334944Y-108730167D01*
X75365098Y-108667139D01*
X75388456Y-108646899D01*
X75408504Y-108633504D01*
X75441767Y-108583722D01*
X75450500Y-108539820D01*
X75450500Y-108100000D01*
X84194353Y-108100000D01*
X84214834Y-108242456D01*
X84260504Y-108342457D01*
X84274623Y-108373373D01*
X84368872Y-108482143D01*
X84489947Y-108559953D01*
X84489950Y-108559954D01*
X84489949Y-108559954D01*
X84628036Y-108600499D01*
X84628038Y-108600500D01*
X84628039Y-108600500D01*
X84771962Y-108600500D01*
X84771962Y-108600499D01*
X84910053Y-108559953D01*
X85031128Y-108482143D01*
X85125377Y-108373373D01*
X85185165Y-108242457D01*
X85205647Y-108100000D01*
X94694353Y-108100000D01*
X94714834Y-108242456D01*
X94760504Y-108342457D01*
X94774623Y-108373373D01*
X94868872Y-108482143D01*
X94989947Y-108559953D01*
X94989950Y-108559954D01*
X94989949Y-108559954D01*
X95128036Y-108600499D01*
X95128038Y-108600500D01*
X95128039Y-108600500D01*
X95271962Y-108600500D01*
X95271962Y-108600499D01*
X95410053Y-108559953D01*
X95531128Y-108482143D01*
X95625377Y-108373373D01*
X95685165Y-108242457D01*
X95705647Y-108100000D01*
X95685165Y-107957543D01*
X95625377Y-107826627D01*
X95531128Y-107717857D01*
X95410053Y-107640047D01*
X95410051Y-107640046D01*
X95410049Y-107640045D01*
X95410050Y-107640045D01*
X95271963Y-107599500D01*
X95271961Y-107599500D01*
X95128039Y-107599500D01*
X95128036Y-107599500D01*
X94989949Y-107640045D01*
X94868873Y-107717856D01*
X94774623Y-107826626D01*
X94774622Y-107826628D01*
X94714834Y-107957543D01*
X94694353Y-108100000D01*
X85205647Y-108100000D01*
X85185165Y-107957543D01*
X85125377Y-107826627D01*
X85031128Y-107717857D01*
X84910053Y-107640047D01*
X84910051Y-107640046D01*
X84910049Y-107640045D01*
X84910050Y-107640045D01*
X84771963Y-107599500D01*
X84771961Y-107599500D01*
X84628039Y-107599500D01*
X84628036Y-107599500D01*
X84489949Y-107640045D01*
X84368873Y-107717856D01*
X84274623Y-107826626D01*
X84274622Y-107826628D01*
X84214834Y-107957543D01*
X84194353Y-108100000D01*
X75450500Y-108100000D01*
X75450500Y-107838608D01*
X75470185Y-107771569D01*
X75522989Y-107725814D01*
X75531171Y-107722425D01*
X75542089Y-107718353D01*
X75542091Y-107718351D01*
X75657187Y-107632190D01*
X75657190Y-107632187D01*
X75743350Y-107517093D01*
X75743354Y-107517086D01*
X75793596Y-107382379D01*
X75793598Y-107382372D01*
X75799999Y-107322844D01*
X75800000Y-107322827D01*
X75800000Y-107125000D01*
X73500000Y-107125000D01*
X73500000Y-107322844D01*
X73506401Y-107382372D01*
X73506403Y-107382379D01*
X73559746Y-107525399D01*
X73558242Y-107525959D01*
X73570944Y-107584341D01*
X73546530Y-107649806D01*
X73490599Y-107691680D01*
X73447260Y-107699500D01*
X73428036Y-107699500D01*
X73289949Y-107740045D01*
X73168873Y-107817856D01*
X73074623Y-107926626D01*
X73074622Y-107926628D01*
X73014834Y-108057543D01*
X72994353Y-108200000D01*
X70500000Y-108200000D01*
X70500000Y-106427155D01*
X73500000Y-106427155D01*
X73500000Y-106625000D01*
X74400000Y-106625000D01*
X74900000Y-106625000D01*
X75800000Y-106625000D01*
X75800000Y-106427172D01*
X75799999Y-106427155D01*
X75793598Y-106367627D01*
X75793596Y-106367620D01*
X75743354Y-106232913D01*
X75743350Y-106232906D01*
X75657190Y-106117812D01*
X75657187Y-106117809D01*
X75542093Y-106031649D01*
X75542086Y-106031645D01*
X75407379Y-105981403D01*
X75407372Y-105981401D01*
X75347844Y-105975000D01*
X74900000Y-105975000D01*
X74900000Y-106625000D01*
X74400000Y-106625000D01*
X74400000Y-105975000D01*
X73952155Y-105975000D01*
X73892627Y-105981401D01*
X73892620Y-105981403D01*
X73757913Y-106031645D01*
X73757906Y-106031649D01*
X73642812Y-106117809D01*
X73642809Y-106117812D01*
X73556649Y-106232906D01*
X73556645Y-106232913D01*
X73506403Y-106367620D01*
X73506401Y-106367627D01*
X73500000Y-106427155D01*
X70500000Y-106427155D01*
X70500000Y-105649500D01*
X70519685Y-105582461D01*
X70572489Y-105536706D01*
X70624000Y-105525500D01*
X73414822Y-105525500D01*
X73458717Y-105516768D01*
X73458717Y-105516767D01*
X73458722Y-105516767D01*
X73508504Y-105483504D01*
X73541767Y-105433722D01*
X73550500Y-105389820D01*
X73550500Y-104750000D01*
X89494353Y-104750000D01*
X89514834Y-104892456D01*
X89574622Y-105023371D01*
X89574623Y-105023373D01*
X89668872Y-105132143D01*
X89789947Y-105209953D01*
X89789950Y-105209954D01*
X89789949Y-105209954D01*
X89928036Y-105250499D01*
X89928038Y-105250500D01*
X89928039Y-105250500D01*
X90071962Y-105250500D01*
X90071962Y-105250499D01*
X90210053Y-105209953D01*
X90331128Y-105132143D01*
X90425377Y-105023373D01*
X90485165Y-104892457D01*
X90505647Y-104750000D01*
X90498458Y-104700000D01*
X91394353Y-104700000D01*
X91414834Y-104842456D01*
X91437669Y-104892456D01*
X91474623Y-104973373D01*
X91568872Y-105082143D01*
X91689947Y-105159953D01*
X91689950Y-105159954D01*
X91689949Y-105159954D01*
X91828036Y-105200499D01*
X91828038Y-105200500D01*
X91828039Y-105200500D01*
X91971962Y-105200500D01*
X91971962Y-105200499D01*
X92110053Y-105159953D01*
X92231128Y-105082143D01*
X92325377Y-104973373D01*
X92385165Y-104842457D01*
X92405647Y-104700000D01*
X92385165Y-104557543D01*
X92325377Y-104426627D01*
X92231128Y-104317857D01*
X92110053Y-104240047D01*
X92110051Y-104240046D01*
X92110049Y-104240045D01*
X92110050Y-104240045D01*
X91971963Y-104199500D01*
X91971961Y-104199500D01*
X91828039Y-104199500D01*
X91828036Y-104199500D01*
X91689949Y-104240045D01*
X91568873Y-104317856D01*
X91474623Y-104426626D01*
X91474622Y-104426628D01*
X91414834Y-104557543D01*
X91394353Y-104700000D01*
X90498458Y-104700000D01*
X90485165Y-104607543D01*
X90425377Y-104476627D01*
X90331128Y-104367857D01*
X90210053Y-104290047D01*
X90210051Y-104290046D01*
X90210049Y-104290045D01*
X90210050Y-104290045D01*
X90071963Y-104249500D01*
X90071961Y-104249500D01*
X89928039Y-104249500D01*
X89928036Y-104249500D01*
X89789949Y-104290045D01*
X89668873Y-104367856D01*
X89574623Y-104476626D01*
X89574622Y-104476628D01*
X89514834Y-104607543D01*
X89494353Y-104750000D01*
X73550500Y-104750000D01*
X73550500Y-103260180D01*
X73550500Y-103260177D01*
X73541768Y-103216282D01*
X73541767Y-103216281D01*
X73541767Y-103216278D01*
X73508504Y-103166496D01*
X73508503Y-103166495D01*
X73458724Y-103133234D01*
X73458717Y-103133231D01*
X73414822Y-103124500D01*
X73414820Y-103124500D01*
X70624000Y-103124500D01*
X70556961Y-103104815D01*
X70511206Y-103052011D01*
X70500000Y-103000500D01*
X70500000Y-92368545D01*
X70519685Y-92301506D01*
X70572489Y-92255751D01*
X70641647Y-92245807D01*
X70705203Y-92274832D01*
X70742977Y-92333610D01*
X70743775Y-92336452D01*
X70773258Y-92446488D01*
X70773261Y-92446497D01*
X70869431Y-92652732D01*
X70869432Y-92652734D01*
X70999954Y-92839141D01*
X71160858Y-93000045D01*
X71160861Y-93000047D01*
X71347266Y-93130568D01*
X71553504Y-93226739D01*
X71773308Y-93285635D01*
X71935230Y-93299801D01*
X71999998Y-93305468D01*
X72000000Y-93305468D01*
X72000002Y-93305468D01*
X72056673Y-93300509D01*
X72226692Y-93285635D01*
X72446496Y-93226739D01*
X72652734Y-93130568D01*
X72839139Y-93000047D01*
X73000047Y-92839139D01*
X73130568Y-92652734D01*
X73226739Y-92446496D01*
X73285635Y-92226692D01*
X73305468Y-92000000D01*
X73285635Y-91773308D01*
X73226739Y-91553504D01*
X73130568Y-91347266D01*
X73000047Y-91160861D01*
X73000045Y-91160858D01*
X72839141Y-90999954D01*
X72652734Y-90869432D01*
X72652732Y-90869431D01*
X72446497Y-90773261D01*
X72446488Y-90773258D01*
X72336453Y-90743775D01*
X72276792Y-90707410D01*
X72246263Y-90644563D01*
X72254558Y-90575188D01*
X72299043Y-90521310D01*
X72365595Y-90500035D01*
X72368546Y-90500000D01*
X107631454Y-90500000D01*
X107698493Y-90519685D01*
G37*
%TD.AperFunction*%
%TD*%
%TA.AperFunction,Conductor*%
%TO.N,VBUS*%
G36*
X132990910Y-103269685D02*
G01*
X133036665Y-103322489D01*
X133046609Y-103391647D01*
X133040912Y-103414955D01*
X133035104Y-103431552D01*
X133749998Y-104146447D01*
X134464893Y-103431552D01*
X134459085Y-103414955D01*
X134455522Y-103345177D01*
X134490251Y-103284549D01*
X134552244Y-103252321D01*
X134576126Y-103250000D01*
X134646447Y-103250000D01*
X134909999Y-103250000D01*
X137154956Y-103250000D01*
X137221995Y-103269685D01*
X137267750Y-103322489D01*
X137277694Y-103391647D01*
X137248669Y-103455203D01*
X137242637Y-103461681D01*
X137185803Y-103518514D01*
X137134426Y-103623608D01*
X137124500Y-103691739D01*
X137124500Y-104158260D01*
X137134426Y-104226391D01*
X137185803Y-104331485D01*
X137268514Y-104414196D01*
X137268515Y-104414196D01*
X137268517Y-104414198D01*
X137373607Y-104465573D01*
X137407673Y-104470536D01*
X137441739Y-104475500D01*
X137441740Y-104475500D01*
X138058261Y-104475500D01*
X138080971Y-104472191D01*
X138126393Y-104465573D01*
X138231483Y-104414198D01*
X138314198Y-104331483D01*
X138365573Y-104226393D01*
X138365573Y-104226391D01*
X138366234Y-104225040D01*
X138413362Y-104173458D01*
X138477635Y-104155500D01*
X138604138Y-104155500D01*
X138671177Y-104175185D01*
X138691819Y-104191819D01*
X139256402Y-104756402D01*
X139289887Y-104817725D01*
X139284903Y-104887417D01*
X139262435Y-104925285D01*
X139174623Y-105026627D01*
X139174622Y-105026628D01*
X139114834Y-105157543D01*
X139103246Y-105238147D01*
X139074221Y-105301703D01*
X139015443Y-105339477D01*
X138980508Y-105344500D01*
X138477635Y-105344500D01*
X138410596Y-105324815D01*
X138366234Y-105274960D01*
X138363565Y-105269500D01*
X138314198Y-105168517D01*
X138314196Y-105168515D01*
X138314196Y-105168514D01*
X138231485Y-105085803D01*
X138126391Y-105034426D01*
X138058261Y-105024500D01*
X138058260Y-105024500D01*
X137441740Y-105024500D01*
X137441739Y-105024500D01*
X137373608Y-105034426D01*
X137268514Y-105085803D01*
X137185803Y-105168514D01*
X137134426Y-105273608D01*
X137124500Y-105341739D01*
X137124500Y-105808260D01*
X137134426Y-105876391D01*
X137185803Y-105981485D01*
X137268514Y-106064196D01*
X137268515Y-106064196D01*
X137268517Y-106064198D01*
X137373607Y-106115573D01*
X137407673Y-106120536D01*
X137441739Y-106125500D01*
X137441740Y-106125500D01*
X138058261Y-106125500D01*
X138080971Y-106122191D01*
X138126393Y-106115573D01*
X138231483Y-106064198D01*
X138314198Y-105981483D01*
X138365573Y-105876393D01*
X138365573Y-105876391D01*
X138366234Y-105875040D01*
X138413362Y-105823458D01*
X138477635Y-105805500D01*
X139264708Y-105805500D01*
X139264716Y-105805501D01*
X139383064Y-105805501D01*
X139383064Y-105809058D01*
X139431890Y-105813423D01*
X139487072Y-105856281D01*
X139510323Y-105922168D01*
X139509239Y-105946464D01*
X139494353Y-106049999D01*
X139514834Y-106192456D01*
X139568256Y-106309431D01*
X139574623Y-106323373D01*
X139668872Y-106432143D01*
X139789947Y-106509953D01*
X139789949Y-106509953D01*
X139795977Y-106512707D01*
X139848779Y-106558464D01*
X139868462Y-106625504D01*
X139848776Y-106692542D01*
X139795970Y-106738296D01*
X139744462Y-106749500D01*
X139728036Y-106749500D01*
X139589949Y-106790045D01*
X139468873Y-106867856D01*
X139374623Y-106976626D01*
X139374622Y-106976628D01*
X139314834Y-107107543D01*
X139294353Y-107250000D01*
X139314834Y-107392456D01*
X139340886Y-107449500D01*
X139374623Y-107523373D01*
X139468872Y-107632143D01*
X139589947Y-107709953D01*
X139589950Y-107709954D01*
X139589948Y-107709954D01*
X139629670Y-107721617D01*
X139688448Y-107759390D01*
X139717474Y-107822946D01*
X139711777Y-107881549D01*
X139677274Y-107980148D01*
X139677274Y-107980150D01*
X139674500Y-108009739D01*
X139674500Y-108990260D01*
X139677274Y-109019849D01*
X139720884Y-109144476D01*
X139799288Y-109250710D01*
X139799289Y-109250711D01*
X139905523Y-109329115D01*
X139905524Y-109329115D01*
X139905525Y-109329116D01*
X140030151Y-109372725D01*
X140030150Y-109372725D01*
X140059740Y-109375500D01*
X140059744Y-109375500D01*
X140740260Y-109375500D01*
X140769849Y-109372725D01*
X140785747Y-109367162D01*
X140894475Y-109329116D01*
X141000711Y-109250711D01*
X141079116Y-109144475D01*
X141122725Y-109019849D01*
X141123478Y-109011818D01*
X141125500Y-108990260D01*
X141125500Y-108009739D01*
X141122725Y-107980150D01*
X141096363Y-107904814D01*
X141079116Y-107855525D01*
X141075038Y-107850000D01*
X141000711Y-107749289D01*
X141000710Y-107749288D01*
X140894476Y-107670884D01*
X140769848Y-107627274D01*
X140769849Y-107627274D01*
X140740260Y-107624500D01*
X140740256Y-107624500D01*
X140615478Y-107624500D01*
X140548439Y-107604815D01*
X140527797Y-107588181D01*
X140334951Y-107395335D01*
X140301466Y-107334012D01*
X140299894Y-107290010D01*
X140305647Y-107250000D01*
X140285165Y-107107543D01*
X140228143Y-106982685D01*
X140218200Y-106913527D01*
X140247225Y-106849972D01*
X140306003Y-106812197D01*
X140375872Y-106812197D01*
X140388387Y-106816611D01*
X140395199Y-106819433D01*
X140470200Y-106850500D01*
X140794364Y-106850500D01*
X140861403Y-106870185D01*
X140905764Y-106920038D01*
X140933428Y-106976626D01*
X140935803Y-106981485D01*
X141018514Y-107064196D01*
X141018515Y-107064196D01*
X141018517Y-107064198D01*
X141123607Y-107115573D01*
X141150093Y-107119432D01*
X141191739Y-107125500D01*
X141191740Y-107125500D01*
X141808261Y-107125500D01*
X141830971Y-107122191D01*
X141876393Y-107115573D01*
X141981483Y-107064198D01*
X142064198Y-106981483D01*
X142115573Y-106876393D01*
X142125500Y-106808260D01*
X142125500Y-106341740D01*
X142125084Y-106338888D01*
X142118656Y-106294766D01*
X142115573Y-106273607D01*
X142064198Y-106168517D01*
X142064196Y-106168515D01*
X142064196Y-106168514D01*
X141981485Y-106085803D01*
X141876391Y-106034426D01*
X141808261Y-106024500D01*
X141808260Y-106024500D01*
X141191740Y-106024500D01*
X141191739Y-106024500D01*
X141123608Y-106034426D01*
X141018514Y-106085803D01*
X140935803Y-106168514D01*
X140905765Y-106229960D01*
X140858637Y-106281542D01*
X140794364Y-106299500D01*
X140690478Y-106299500D01*
X140623439Y-106279815D01*
X140602797Y-106263181D01*
X140534951Y-106195335D01*
X140501466Y-106134012D01*
X140499894Y-106090010D01*
X140505647Y-106050000D01*
X140485165Y-105907543D01*
X140425377Y-105776627D01*
X140425375Y-105776625D01*
X140425374Y-105776622D01*
X140363488Y-105705202D01*
X140334463Y-105641647D01*
X140344407Y-105572488D01*
X140390162Y-105519684D01*
X140457201Y-105500000D01*
X143674054Y-105500000D01*
X143741093Y-105519685D01*
X143786848Y-105572489D01*
X143796792Y-105641647D01*
X143782206Y-105679708D01*
X143782906Y-105679998D01*
X143778231Y-105691282D01*
X143769500Y-105735177D01*
X143769500Y-105986391D01*
X143749815Y-106053430D01*
X143697011Y-106099185D01*
X143688838Y-106102571D01*
X143677909Y-106106647D01*
X143677907Y-106106648D01*
X143562812Y-106192809D01*
X143562809Y-106192812D01*
X143476649Y-106307906D01*
X143476645Y-106307913D01*
X143426403Y-106442620D01*
X143426401Y-106442627D01*
X143420000Y-106502155D01*
X143420000Y-106600000D01*
X145064818Y-106600000D01*
X145131857Y-106619685D01*
X145168344Y-106657951D01*
X145168551Y-106657793D01*
X145170024Y-106659713D01*
X145172205Y-106662000D01*
X145173498Y-106664240D01*
X145173500Y-106664243D01*
X145173501Y-106664244D01*
X145265756Y-106756499D01*
X145378744Y-106821733D01*
X145504766Y-106855500D01*
X145504767Y-106855500D01*
X145507473Y-106856225D01*
X145549395Y-106881777D01*
X145550552Y-106880233D01*
X145616016Y-106855816D01*
X145624862Y-106855500D01*
X145635232Y-106855500D01*
X145635234Y-106855500D01*
X145761256Y-106821733D01*
X145874244Y-106756499D01*
X145966499Y-106664244D01*
X146018613Y-106573979D01*
X146069180Y-106525765D01*
X146137788Y-106512543D01*
X146202652Y-106538511D01*
X146243180Y-106595425D01*
X146250000Y-106635981D01*
X146250000Y-109367162D01*
X146230315Y-109434201D01*
X146177511Y-109479956D01*
X146108353Y-109489900D01*
X146058961Y-109471478D01*
X146010050Y-109440045D01*
X145871963Y-109399500D01*
X145871961Y-109399500D01*
X145728039Y-109399500D01*
X145728036Y-109399500D01*
X145589949Y-109440045D01*
X145468873Y-109517856D01*
X145438213Y-109553240D01*
X145379435Y-109591014D01*
X145309565Y-109591014D01*
X145250787Y-109553240D01*
X145221762Y-109489684D01*
X145220500Y-109472037D01*
X145220500Y-109335177D01*
X145209385Y-109279300D01*
X145212311Y-109278717D01*
X145206855Y-109227987D01*
X145210203Y-109216583D01*
X145220500Y-109164822D01*
X145220500Y-108835177D01*
X145209385Y-108779300D01*
X145212311Y-108778717D01*
X145206855Y-108727987D01*
X145210203Y-108716583D01*
X145220500Y-108664822D01*
X145220500Y-108335177D01*
X145209385Y-108279300D01*
X145212311Y-108278717D01*
X145206855Y-108227987D01*
X145210203Y-108216583D01*
X145220500Y-108164822D01*
X145220500Y-107835177D01*
X145209385Y-107779300D01*
X145212311Y-107778717D01*
X145206855Y-107727987D01*
X145210202Y-107716586D01*
X145211766Y-107708723D01*
X145211767Y-107708722D01*
X145215023Y-107692349D01*
X145247406Y-107630439D01*
X145293311Y-107600356D01*
X145312091Y-107593351D01*
X145427187Y-107507190D01*
X145427190Y-107507187D01*
X145513350Y-107392093D01*
X145513354Y-107392086D01*
X145563596Y-107257379D01*
X145563598Y-107257372D01*
X145569999Y-107197844D01*
X145570000Y-107197827D01*
X145570000Y-107100000D01*
X145546604Y-107076604D01*
X145544883Y-107078690D01*
X145478331Y-107099965D01*
X145475380Y-107100000D01*
X143420000Y-107100000D01*
X143420000Y-107197844D01*
X143426401Y-107257372D01*
X143426403Y-107257379D01*
X143476645Y-107392086D01*
X143476649Y-107392093D01*
X143562809Y-107507187D01*
X143562812Y-107507190D01*
X143677908Y-107593351D01*
X143677907Y-107593351D01*
X143696689Y-107600356D01*
X143752623Y-107642226D01*
X143774975Y-107692347D01*
X143780615Y-107720700D01*
X143777690Y-107721281D01*
X143783140Y-107772033D01*
X143779794Y-107783427D01*
X143769500Y-107835177D01*
X143769500Y-107835180D01*
X143769500Y-108164820D01*
X143769500Y-108164822D01*
X143769499Y-108164822D01*
X143780615Y-108220700D01*
X143777690Y-108221281D01*
X143783140Y-108272033D01*
X143779794Y-108283427D01*
X143769500Y-108335177D01*
X143769500Y-108335180D01*
X143769500Y-108664820D01*
X143769500Y-108664822D01*
X143769499Y-108664822D01*
X143780615Y-108720700D01*
X143777690Y-108721281D01*
X143783140Y-108772033D01*
X143779794Y-108783427D01*
X143769500Y-108835177D01*
X143769500Y-108835180D01*
X143769500Y-109164820D01*
X143769500Y-109164822D01*
X143769499Y-109164822D01*
X143780615Y-109220700D01*
X143777690Y-109221281D01*
X143783140Y-109272033D01*
X143779794Y-109283427D01*
X143769500Y-109335177D01*
X143769500Y-109335180D01*
X143769500Y-109664820D01*
X143769500Y-109664822D01*
X143769499Y-109664822D01*
X143780615Y-109720700D01*
X143777690Y-109721281D01*
X143783140Y-109772033D01*
X143779794Y-109783427D01*
X143769500Y-109835177D01*
X143769500Y-109835180D01*
X143769500Y-110164820D01*
X143769500Y-110164822D01*
X143769499Y-110164822D01*
X143780615Y-110220700D01*
X143777690Y-110221281D01*
X143783140Y-110272033D01*
X143779794Y-110283427D01*
X143769500Y-110335177D01*
X143769500Y-110335180D01*
X143769500Y-110664820D01*
X143769500Y-110664822D01*
X143769499Y-110664822D01*
X143780615Y-110720700D01*
X143777690Y-110721281D01*
X143783140Y-110772033D01*
X143779794Y-110783425D01*
X143774975Y-110807653D01*
X143742589Y-110869564D01*
X143696695Y-110899640D01*
X143677911Y-110906646D01*
X143677907Y-110906648D01*
X143562812Y-110992809D01*
X143562809Y-110992812D01*
X143476649Y-111107906D01*
X143476645Y-111107913D01*
X143426403Y-111242620D01*
X143426401Y-111242627D01*
X143420000Y-111302155D01*
X143420000Y-111400000D01*
X145475380Y-111400000D01*
X145542419Y-111419685D01*
X145546084Y-111423915D01*
X145570000Y-111400000D01*
X145570000Y-111302172D01*
X145569999Y-111302155D01*
X145563598Y-111242627D01*
X145563596Y-111242620D01*
X145513354Y-111107913D01*
X145513350Y-111107906D01*
X145427190Y-110992812D01*
X145427187Y-110992809D01*
X145312092Y-110906648D01*
X145293305Y-110899641D01*
X145237372Y-110857769D01*
X145215023Y-110807651D01*
X145211767Y-110791278D01*
X145211766Y-110791277D01*
X145209384Y-110779297D01*
X145212311Y-110778714D01*
X145206855Y-110727987D01*
X145210203Y-110716583D01*
X145220500Y-110664822D01*
X145220500Y-110329088D01*
X145223053Y-110329088D01*
X145233950Y-110271405D01*
X145281978Y-110220660D01*
X145349817Y-110203938D01*
X145415928Y-110226546D01*
X145438086Y-110246615D01*
X145468869Y-110282140D01*
X145468872Y-110282143D01*
X145589947Y-110359953D01*
X145589950Y-110359954D01*
X145589949Y-110359954D01*
X145728036Y-110400499D01*
X145728038Y-110400500D01*
X145728039Y-110400500D01*
X145871962Y-110400500D01*
X145871962Y-110400499D01*
X146010050Y-110359954D01*
X146010051Y-110359954D01*
X146010053Y-110359953D01*
X146058961Y-110328521D01*
X146125999Y-110308837D01*
X146193039Y-110328521D01*
X146238794Y-110381325D01*
X146250000Y-110432837D01*
X146250000Y-111864018D01*
X146230315Y-111931057D01*
X146177511Y-111976812D01*
X146108353Y-111986756D01*
X146044797Y-111957731D01*
X146018613Y-111926019D01*
X145995632Y-111886216D01*
X145966499Y-111835756D01*
X145874244Y-111743501D01*
X145817750Y-111710884D01*
X145761257Y-111678267D01*
X145692906Y-111659953D01*
X145635234Y-111644500D01*
X145624862Y-111644500D01*
X145557823Y-111624815D01*
X145550938Y-111616870D01*
X145510315Y-111642977D01*
X145507473Y-111643775D01*
X145504767Y-111644500D01*
X145504766Y-111644500D01*
X145458608Y-111656867D01*
X145378742Y-111678267D01*
X145265756Y-111743501D01*
X145265753Y-111743503D01*
X145173502Y-111835754D01*
X145173498Y-111835759D01*
X145172205Y-111838000D01*
X145170618Y-111839512D01*
X145168551Y-111842207D01*
X145168130Y-111841884D01*
X145121638Y-111886216D01*
X145064818Y-111900000D01*
X143420000Y-111900000D01*
X143420000Y-111997844D01*
X143426401Y-112057372D01*
X143426403Y-112057379D01*
X143476645Y-112192086D01*
X143476649Y-112192093D01*
X143562809Y-112307187D01*
X143562812Y-112307190D01*
X143677908Y-112393351D01*
X143677910Y-112393353D01*
X143688829Y-112397425D01*
X143744764Y-112439294D01*
X143769184Y-112504757D01*
X143769500Y-112513608D01*
X143769500Y-112764820D01*
X143769500Y-112764822D01*
X143769499Y-112764822D01*
X143778231Y-112808717D01*
X143782906Y-112820002D01*
X143781389Y-112820630D01*
X143798034Y-112873783D01*
X143779552Y-112941163D01*
X143727574Y-112987855D01*
X143674054Y-113000000D01*
X137920283Y-113000000D01*
X137853244Y-112980315D01*
X137807489Y-112927511D01*
X137797545Y-112893647D01*
X137785165Y-112807543D01*
X137759114Y-112750500D01*
X137725377Y-112676627D01*
X137631128Y-112567857D01*
X137510053Y-112490047D01*
X137510051Y-112490046D01*
X137510049Y-112490045D01*
X137510050Y-112490045D01*
X137371963Y-112449500D01*
X137371961Y-112449500D01*
X137228039Y-112449500D01*
X137151026Y-112472112D01*
X137081157Y-112472111D01*
X137022379Y-112434335D01*
X136993355Y-112370779D01*
X136993355Y-112335493D01*
X137005647Y-112250000D01*
X136985165Y-112107543D01*
X136925377Y-111976627D01*
X136831128Y-111867857D01*
X136710053Y-111790047D01*
X136710051Y-111790046D01*
X136710049Y-111790045D01*
X136710050Y-111790045D01*
X136571963Y-111749500D01*
X136571961Y-111749500D01*
X136428039Y-111749500D01*
X136428036Y-111749500D01*
X136289949Y-111790045D01*
X136168873Y-111867856D01*
X136074623Y-111976626D01*
X136074622Y-111976628D01*
X136014834Y-112107543D01*
X135994353Y-112250000D01*
X136014834Y-112392456D01*
X136066121Y-112504757D01*
X136074623Y-112523373D01*
X136168872Y-112632143D01*
X136289947Y-112709953D01*
X136289950Y-112709954D01*
X136289949Y-112709954D01*
X136428036Y-112750499D01*
X136428038Y-112750500D01*
X136428039Y-112750500D01*
X136571961Y-112750500D01*
X136648971Y-112727888D01*
X136718841Y-112727888D01*
X136777619Y-112765662D01*
X136806644Y-112829218D01*
X136806644Y-112864512D01*
X136802455Y-112893647D01*
X136773430Y-112957203D01*
X136714652Y-112994977D01*
X136679717Y-113000000D01*
X132639752Y-113000000D01*
X132572714Y-112980316D01*
X132510050Y-112940045D01*
X132371963Y-112899500D01*
X132371961Y-112899500D01*
X132228039Y-112899500D01*
X132228036Y-112899500D01*
X132089950Y-112940045D01*
X132089948Y-112940045D01*
X132027286Y-112980316D01*
X131960248Y-113000000D01*
X128551362Y-113000000D01*
X128484323Y-112980315D01*
X128463681Y-112963681D01*
X127550000Y-112050000D01*
X130694353Y-112050000D01*
X130714834Y-112192456D01*
X130774622Y-112323371D01*
X130774623Y-112323373D01*
X130868872Y-112432143D01*
X130989947Y-112509953D01*
X130989950Y-112509954D01*
X130989949Y-112509954D01*
X131128036Y-112550499D01*
X131128038Y-112550500D01*
X131128039Y-112550500D01*
X131271962Y-112550500D01*
X131271962Y-112550499D01*
X131410053Y-112509953D01*
X131531128Y-112432143D01*
X131625377Y-112323373D01*
X131685165Y-112192457D01*
X131705647Y-112050000D01*
X131685165Y-111907543D01*
X131625377Y-111776627D01*
X131531128Y-111667857D01*
X131410053Y-111590047D01*
X131410051Y-111590046D01*
X131410049Y-111590045D01*
X131410050Y-111590045D01*
X131271963Y-111549500D01*
X131271961Y-111549500D01*
X131128039Y-111549500D01*
X131128036Y-111549500D01*
X130989949Y-111590045D01*
X130868873Y-111667856D01*
X130774623Y-111776626D01*
X130774622Y-111776628D01*
X130714834Y-111907543D01*
X130694353Y-112050000D01*
X127550000Y-112050000D01*
X126700000Y-111200000D01*
X128594353Y-111200000D01*
X128614834Y-111342456D01*
X128641114Y-111400000D01*
X128674623Y-111473373D01*
X128768872Y-111582143D01*
X128889947Y-111659953D01*
X128889950Y-111659954D01*
X128889949Y-111659954D01*
X129028036Y-111700499D01*
X129028038Y-111700500D01*
X129028039Y-111700500D01*
X129171962Y-111700500D01*
X129171962Y-111700499D01*
X129310053Y-111659953D01*
X129431128Y-111582143D01*
X129431285Y-111581961D01*
X129431486Y-111581832D01*
X129437828Y-111576337D01*
X129438617Y-111577248D01*
X129490059Y-111544186D01*
X129559929Y-111544182D01*
X129611384Y-111577246D01*
X129612172Y-111576337D01*
X129618492Y-111581813D01*
X129618705Y-111581950D01*
X129618872Y-111582143D01*
X129618873Y-111582144D01*
X129631171Y-111590047D01*
X129739947Y-111659953D01*
X129739950Y-111659954D01*
X129739949Y-111659954D01*
X129878036Y-111700499D01*
X129878038Y-111700500D01*
X129878039Y-111700500D01*
X130021962Y-111700500D01*
X130021962Y-111700499D01*
X130160053Y-111659953D01*
X130281128Y-111582143D01*
X130375377Y-111473373D01*
X130435165Y-111342457D01*
X130455647Y-111200000D01*
X130435165Y-111057543D01*
X130375377Y-110926627D01*
X130281128Y-110817857D01*
X130160053Y-110740047D01*
X130160051Y-110740046D01*
X130160049Y-110740045D01*
X130160050Y-110740045D01*
X130021963Y-110699500D01*
X130021961Y-110699500D01*
X129878039Y-110699500D01*
X129878036Y-110699500D01*
X129739949Y-110740045D01*
X129618872Y-110817857D01*
X129618711Y-110818043D01*
X129618504Y-110818175D01*
X129612172Y-110823663D01*
X129611382Y-110822752D01*
X129559932Y-110855816D01*
X129490063Y-110855814D01*
X129438617Y-110822752D01*
X129437828Y-110823663D01*
X129431495Y-110818175D01*
X129431289Y-110818043D01*
X129431128Y-110817857D01*
X129310053Y-110740047D01*
X129310051Y-110740046D01*
X129310049Y-110740045D01*
X129310050Y-110740045D01*
X129171963Y-110699500D01*
X129171961Y-110699500D01*
X129028039Y-110699500D01*
X129028036Y-110699500D01*
X128889949Y-110740045D01*
X128768873Y-110817856D01*
X128768872Y-110817856D01*
X128768872Y-110817857D01*
X128763841Y-110823663D01*
X128674623Y-110926626D01*
X128674622Y-110926628D01*
X128614834Y-111057543D01*
X128594353Y-111200000D01*
X126700000Y-111200000D01*
X124916312Y-109416312D01*
X124882827Y-109354989D01*
X124887811Y-109285297D01*
X124929683Y-109229364D01*
X124995147Y-109204947D01*
X125038928Y-109209654D01*
X125178038Y-109250500D01*
X125178039Y-109250500D01*
X125321962Y-109250500D01*
X125321962Y-109250499D01*
X125460053Y-109209953D01*
X125581128Y-109132143D01*
X125675377Y-109023373D01*
X125675379Y-109023367D01*
X125680171Y-109015913D01*
X125682394Y-109017341D01*
X125719113Y-108974943D01*
X125786147Y-108955240D01*
X125823073Y-108960855D01*
X125847897Y-108968590D01*
X125918408Y-108974998D01*
X125918426Y-108974999D01*
X125924999Y-108974998D01*
X125925000Y-108974998D01*
X125925000Y-108250000D01*
X125334307Y-108250000D01*
X125327316Y-108249500D01*
X125321961Y-108249500D01*
X125190478Y-108249500D01*
X125123439Y-108229815D01*
X125102797Y-108213181D01*
X124811819Y-107922203D01*
X124778334Y-107860880D01*
X124775500Y-107834522D01*
X124775500Y-107749500D01*
X124795185Y-107682461D01*
X124847989Y-107636706D01*
X124899500Y-107625500D01*
X124990260Y-107625500D01*
X125013930Y-107623280D01*
X125019849Y-107622725D01*
X125110044Y-107591163D01*
X125179823Y-107587601D01*
X125240451Y-107622330D01*
X125272678Y-107684323D01*
X125275000Y-107708205D01*
X125275000Y-107750000D01*
X126051000Y-107750000D01*
X126118039Y-107769685D01*
X126163794Y-107822489D01*
X126175000Y-107874000D01*
X126175000Y-108000000D01*
X126301000Y-108000000D01*
X126368039Y-108019685D01*
X126413794Y-108072489D01*
X126425000Y-108124000D01*
X126425000Y-108974999D01*
X126431581Y-108974999D01*
X126502102Y-108968591D01*
X126502107Y-108968590D01*
X126664396Y-108918018D01*
X126809875Y-108830073D01*
X126935378Y-108704570D01*
X126937174Y-108706366D01*
X126984102Y-108672801D01*
X127053885Y-108669330D01*
X127112585Y-108702215D01*
X128033866Y-109623496D01*
X128033869Y-109623500D01*
X128088181Y-109677812D01*
X128121666Y-109739135D01*
X128124500Y-109765493D01*
X128124500Y-109808260D01*
X128134426Y-109876391D01*
X128185803Y-109981485D01*
X128268514Y-110064196D01*
X128268515Y-110064196D01*
X128268517Y-110064198D01*
X128373607Y-110115573D01*
X128407673Y-110120536D01*
X128441739Y-110125500D01*
X128441740Y-110125500D01*
X128908261Y-110125500D01*
X128930971Y-110122191D01*
X128976393Y-110115573D01*
X129081483Y-110064198D01*
X129164198Y-109981483D01*
X129215573Y-109876393D01*
X129225500Y-109808260D01*
X129225500Y-109191740D01*
X129215573Y-109123607D01*
X129164198Y-109018517D01*
X129164196Y-109018515D01*
X129164196Y-109018514D01*
X129081485Y-108935803D01*
X128976391Y-108884426D01*
X128908261Y-108874500D01*
X128908260Y-108874500D01*
X128441740Y-108874500D01*
X128441739Y-108874500D01*
X128373608Y-108884426D01*
X128268514Y-108935803D01*
X128221001Y-108983317D01*
X128159678Y-109016802D01*
X128089986Y-109011818D01*
X128045639Y-108983317D01*
X127899503Y-108837181D01*
X127866018Y-108775858D01*
X127871002Y-108706166D01*
X127912874Y-108650233D01*
X127978338Y-108625816D01*
X127987184Y-108625500D01*
X128058261Y-108625500D01*
X128080971Y-108622191D01*
X128126393Y-108615573D01*
X128231483Y-108564198D01*
X128314198Y-108481483D01*
X128365573Y-108376393D01*
X128371368Y-108336622D01*
X128400512Y-108273121D01*
X128459361Y-108235457D01*
X128494072Y-108230500D01*
X128779906Y-108230500D01*
X128846945Y-108250185D01*
X128939944Y-108309952D01*
X128939949Y-108309954D01*
X129078036Y-108350499D01*
X129078038Y-108350500D01*
X129078039Y-108350500D01*
X129221962Y-108350500D01*
X129221962Y-108350499D01*
X129360053Y-108309953D01*
X129481128Y-108232143D01*
X129575377Y-108123373D01*
X129635165Y-107992457D01*
X129655647Y-107850000D01*
X129635165Y-107707543D01*
X129575377Y-107576627D01*
X129481128Y-107467857D01*
X129360053Y-107390047D01*
X129360051Y-107390046D01*
X129360049Y-107390045D01*
X129360050Y-107390045D01*
X129221963Y-107349500D01*
X129221961Y-107349500D01*
X129078039Y-107349500D01*
X129078036Y-107349500D01*
X128939949Y-107390045D01*
X128818873Y-107467856D01*
X128724623Y-107576626D01*
X128724622Y-107576628D01*
X128669644Y-107697012D01*
X128623889Y-107749816D01*
X128556850Y-107769500D01*
X128494072Y-107769500D01*
X128427033Y-107749815D01*
X128381278Y-107697011D01*
X128371368Y-107663378D01*
X128365573Y-107623608D01*
X128365573Y-107623607D01*
X128314198Y-107518517D01*
X128314196Y-107518515D01*
X128314196Y-107518514D01*
X128231484Y-107435802D01*
X128125039Y-107383764D01*
X128073457Y-107336636D01*
X128055500Y-107272364D01*
X128055500Y-107140941D01*
X128075185Y-107073902D01*
X128127989Y-107028147D01*
X128197147Y-107018203D01*
X128248390Y-107037839D01*
X128249778Y-107038767D01*
X128249781Y-107038767D01*
X128249782Y-107038768D01*
X128293677Y-107047500D01*
X128293680Y-107047500D01*
X130406322Y-107047500D01*
X130450217Y-107038768D01*
X130450217Y-107038767D01*
X130450222Y-107038767D01*
X130500004Y-107005504D01*
X130533267Y-106955722D01*
X130534235Y-106950857D01*
X130542000Y-106911822D01*
X130542000Y-106872396D01*
X130561685Y-106805357D01*
X130614489Y-106759602D01*
X130683647Y-106749658D01*
X130734892Y-106769295D01*
X130762011Y-106787416D01*
X130762013Y-106787416D01*
X130762014Y-106787417D01*
X130827789Y-106800500D01*
X132172210Y-106800499D01*
X132237986Y-106787417D01*
X132237989Y-106787414D01*
X132243975Y-106784936D01*
X132291422Y-106775500D01*
X132670020Y-106775500D01*
X132737059Y-106795185D01*
X132782814Y-106847989D01*
X132792758Y-106917147D01*
X132769790Y-106973132D01*
X132762740Y-106982686D01*
X132745884Y-107005525D01*
X132699782Y-107137274D01*
X132697721Y-107136552D01*
X132669444Y-107188246D01*
X132608096Y-107221686D01*
X132581828Y-107224500D01*
X131695198Y-107224500D01*
X131623599Y-107254158D01*
X131593939Y-107266443D01*
X130168942Y-108691443D01*
X130091444Y-108768940D01*
X130091442Y-108768943D01*
X130066637Y-108828825D01*
X130022795Y-108883228D01*
X130006538Y-108892770D01*
X129918516Y-108935802D01*
X129918515Y-108935802D01*
X129835803Y-109018514D01*
X129784426Y-109123608D01*
X129774500Y-109191739D01*
X129774500Y-109808260D01*
X129784426Y-109876391D01*
X129835803Y-109981485D01*
X129918514Y-110064196D01*
X129918515Y-110064196D01*
X129918517Y-110064198D01*
X130023607Y-110115573D01*
X130057673Y-110120536D01*
X130091739Y-110125500D01*
X130091740Y-110125500D01*
X130558261Y-110125500D01*
X130580971Y-110122191D01*
X130626393Y-110115573D01*
X130731483Y-110064198D01*
X130814198Y-109981483D01*
X130865573Y-109876393D01*
X130875500Y-109808260D01*
X130875500Y-109191740D01*
X130865573Y-109123607D01*
X130814198Y-109018517D01*
X130805328Y-109009647D01*
X130771844Y-108948328D01*
X130776826Y-108878636D01*
X130805325Y-108834288D01*
X131827797Y-107811819D01*
X131889120Y-107778334D01*
X131915478Y-107775500D01*
X132581828Y-107775500D01*
X132648867Y-107795185D01*
X132694622Y-107847989D01*
X132699559Y-107862803D01*
X132699782Y-107862726D01*
X132745884Y-107994476D01*
X132824288Y-108100710D01*
X132824289Y-108100711D01*
X132930523Y-108179115D01*
X132930524Y-108179115D01*
X132930525Y-108179116D01*
X133055151Y-108222725D01*
X133055150Y-108222725D01*
X133084740Y-108225500D01*
X133764029Y-108225500D01*
X133831068Y-108245185D01*
X133876823Y-108297989D01*
X133886767Y-108367147D01*
X133857743Y-108430700D01*
X133774624Y-108526626D01*
X133774623Y-108526627D01*
X133774622Y-108526628D01*
X133714834Y-108657543D01*
X133694353Y-108800000D01*
X133714834Y-108942456D01*
X133774622Y-109073371D01*
X133774623Y-109073373D01*
X133868872Y-109182143D01*
X133989947Y-109259953D01*
X133989950Y-109259954D01*
X133989949Y-109259954D01*
X134128036Y-109300499D01*
X134128038Y-109300500D01*
X134128039Y-109300500D01*
X134271962Y-109300500D01*
X134271962Y-109300499D01*
X134410053Y-109259953D01*
X134531128Y-109182143D01*
X134625377Y-109073373D01*
X134685165Y-108942457D01*
X134705647Y-108800000D01*
X134685165Y-108657543D01*
X134625377Y-108526627D01*
X134531128Y-108417857D01*
X134517936Y-108409379D01*
X134472182Y-108356576D01*
X134462238Y-108287418D01*
X134491262Y-108223862D01*
X134544021Y-108188023D01*
X134547585Y-108186775D01*
X134569475Y-108179116D01*
X134675711Y-108100711D01*
X134690101Y-108081212D01*
X134745743Y-108038963D01*
X134815399Y-108033502D01*
X134876950Y-108066568D01*
X134877551Y-108067165D01*
X135063181Y-108252795D01*
X135096666Y-108314118D01*
X135099500Y-108340476D01*
X135099500Y-108818036D01*
X135113889Y-108908887D01*
X135113889Y-108908888D01*
X135113890Y-108908891D01*
X135113891Y-108908892D01*
X135169148Y-109017341D01*
X135169690Y-109018403D01*
X135169693Y-109018407D01*
X135256591Y-109105305D01*
X135256595Y-109105308D01*
X135256597Y-109105310D01*
X135366107Y-109161108D01*
X135366109Y-109161108D01*
X135366111Y-109161109D01*
X135389543Y-109164820D01*
X135456967Y-109175499D01*
X136043032Y-109175498D01*
X136043037Y-109175498D01*
X136043037Y-109175497D01*
X136088462Y-109168303D01*
X136133888Y-109161109D01*
X136133889Y-109161109D01*
X136133890Y-109161108D01*
X136133893Y-109161108D01*
X136243403Y-109105310D01*
X136330311Y-109018402D01*
X136386109Y-108908892D01*
X136400500Y-108818032D01*
X136400499Y-108281967D01*
X136400499Y-108281961D01*
X136386110Y-108191110D01*
X136386110Y-108191109D01*
X136386109Y-108191107D01*
X136386109Y-108191106D01*
X136330311Y-108081596D01*
X136330309Y-108081594D01*
X136330306Y-108081590D01*
X136243408Y-107994692D01*
X136243404Y-107994689D01*
X136243403Y-107994688D01*
X136155698Y-107950000D01*
X136894353Y-107950000D01*
X136914834Y-108092456D01*
X136918605Y-108100713D01*
X136974623Y-108223373D01*
X137068872Y-108332143D01*
X137189947Y-108409953D01*
X137189950Y-108409954D01*
X137189949Y-108409954D01*
X137328036Y-108450499D01*
X137328038Y-108450500D01*
X137328039Y-108450500D01*
X137471961Y-108450500D01*
X137480648Y-108447948D01*
X137550518Y-108447947D01*
X137603268Y-108479244D01*
X137747520Y-108623496D01*
X137747523Y-108623500D01*
X137828068Y-108704045D01*
X137827285Y-108704827D01*
X137864195Y-108748991D01*
X137874500Y-108798483D01*
X137874500Y-108990260D01*
X137877274Y-109019849D01*
X137920884Y-109144476D01*
X137999288Y-109250710D01*
X137999289Y-109250711D01*
X138105523Y-109329115D01*
X138105524Y-109329115D01*
X138105525Y-109329116D01*
X138230151Y-109372725D01*
X138230150Y-109372725D01*
X138259740Y-109375500D01*
X138259744Y-109375500D01*
X138940260Y-109375500D01*
X138969849Y-109372725D01*
X138985747Y-109367162D01*
X139094475Y-109329116D01*
X139200711Y-109250711D01*
X139279116Y-109144475D01*
X139322725Y-109019849D01*
X139323478Y-109011818D01*
X139325500Y-108990260D01*
X139325500Y-108009739D01*
X139322725Y-107980150D01*
X139296363Y-107904814D01*
X139279116Y-107855525D01*
X139275038Y-107850000D01*
X139200711Y-107749289D01*
X139200710Y-107749288D01*
X139094476Y-107670884D01*
X138969848Y-107627274D01*
X138969849Y-107627274D01*
X138940260Y-107624500D01*
X138940256Y-107624500D01*
X138259744Y-107624500D01*
X138259740Y-107624500D01*
X138230150Y-107627274D01*
X138105525Y-107670883D01*
X138016984Y-107736229D01*
X137951354Y-107760199D01*
X137883184Y-107744883D01*
X137834117Y-107695142D01*
X137830556Y-107687968D01*
X137828891Y-107684323D01*
X137825377Y-107676627D01*
X137731128Y-107567857D01*
X137610053Y-107490047D01*
X137610051Y-107490046D01*
X137610049Y-107490045D01*
X137610050Y-107490045D01*
X137471963Y-107449500D01*
X137471961Y-107449500D01*
X137328039Y-107449500D01*
X137328036Y-107449500D01*
X137189949Y-107490045D01*
X137068873Y-107567856D01*
X137068872Y-107567856D01*
X137068872Y-107567857D01*
X137061976Y-107575816D01*
X136974623Y-107676626D01*
X136974622Y-107676628D01*
X136914834Y-107807543D01*
X136894353Y-107950000D01*
X136155698Y-107950000D01*
X136133893Y-107938890D01*
X136133891Y-107938889D01*
X136133888Y-107938888D01*
X136043033Y-107924499D01*
X135565477Y-107924499D01*
X135498438Y-107904814D01*
X135477800Y-107888184D01*
X135376797Y-107787181D01*
X135343313Y-107725857D01*
X135348297Y-107656166D01*
X135390169Y-107600233D01*
X135455634Y-107575816D01*
X135464451Y-107575500D01*
X136043032Y-107575500D01*
X136043037Y-107575500D01*
X136043037Y-107575499D01*
X136096797Y-107566985D01*
X136133888Y-107561111D01*
X136133889Y-107561111D01*
X136133890Y-107561110D01*
X136133893Y-107561110D01*
X136243403Y-107505312D01*
X136330311Y-107418404D01*
X136386109Y-107308894D01*
X136387803Y-107298202D01*
X136392293Y-107269849D01*
X136400500Y-107218034D01*
X136400499Y-106681969D01*
X136400499Y-106681968D01*
X136400499Y-106681963D01*
X136386110Y-106591112D01*
X136386110Y-106591111D01*
X136386109Y-106591109D01*
X136386109Y-106591108D01*
X136330311Y-106481598D01*
X136330309Y-106481596D01*
X136330306Y-106481592D01*
X136243408Y-106394694D01*
X136243404Y-106394691D01*
X136243403Y-106394690D01*
X136133893Y-106338892D01*
X136133891Y-106338891D01*
X136133888Y-106338890D01*
X136043033Y-106324501D01*
X135501838Y-106324501D01*
X135434799Y-106304816D01*
X135414157Y-106288182D01*
X135012848Y-105886873D01*
X134995408Y-105869432D01*
X134930567Y-105804591D01*
X134930566Y-105804590D01*
X134895474Y-105790054D01*
X134848037Y-105770404D01*
X134793635Y-105726562D01*
X134771571Y-105660268D01*
X134788851Y-105592569D01*
X134807807Y-105568167D01*
X135146732Y-105229242D01*
X135208053Y-105195759D01*
X135269346Y-105197948D01*
X135278037Y-105200500D01*
X135278039Y-105200500D01*
X135421962Y-105200500D01*
X135421962Y-105200499D01*
X135530897Y-105168514D01*
X135560050Y-105159954D01*
X135560050Y-105159953D01*
X135560053Y-105159953D01*
X135681128Y-105082143D01*
X135775377Y-104973373D01*
X135835165Y-104842457D01*
X135855647Y-104700000D01*
X135835165Y-104557543D01*
X135775377Y-104426627D01*
X135681128Y-104317857D01*
X135560053Y-104240047D01*
X135560051Y-104240046D01*
X135560049Y-104240045D01*
X135560050Y-104240045D01*
X135421963Y-104199500D01*
X135421961Y-104199500D01*
X135278039Y-104199500D01*
X135269170Y-104199500D01*
X135269170Y-104197072D01*
X135212881Y-104188971D01*
X135160083Y-104143209D01*
X135141187Y-104090066D01*
X135135113Y-104036154D01*
X135076502Y-103868654D01*
X134982087Y-103718394D01*
X134933622Y-103669929D01*
X134103551Y-104499998D01*
X134103551Y-104499999D01*
X134576105Y-104972553D01*
X134609590Y-105033876D01*
X134604606Y-105103568D01*
X134576107Y-105147914D01*
X134490844Y-105233180D01*
X134429521Y-105266666D01*
X134403161Y-105269500D01*
X134217310Y-105269500D01*
X134150271Y-105249815D01*
X134129629Y-105233181D01*
X132566377Y-103669929D01*
X132517913Y-103718392D01*
X132517912Y-103718395D01*
X132423497Y-103868654D01*
X132364885Y-104036156D01*
X132364884Y-104036160D01*
X132357764Y-104099354D01*
X132330697Y-104163768D01*
X132273101Y-104203322D01*
X132210354Y-104207086D01*
X132172211Y-104199500D01*
X132172210Y-104199500D01*
X131854500Y-104199500D01*
X131787461Y-104179815D01*
X131741706Y-104127011D01*
X131730500Y-104075500D01*
X131730500Y-103374000D01*
X131750185Y-103306961D01*
X131802989Y-103261206D01*
X131854500Y-103250000D01*
X132590000Y-103250000D01*
X132853552Y-103250000D01*
X132923871Y-103250000D01*
X132990910Y-103269685D01*
G37*
%TD.AperFunction*%
%TA.AperFunction,Conductor*%
G36*
X125921288Y-105250185D02*
G01*
X125967043Y-105302989D01*
X125972887Y-105341990D01*
X125979912Y-105350000D01*
X127076000Y-105350000D01*
X127143039Y-105369685D01*
X127188794Y-105422489D01*
X127200000Y-105474000D01*
X127200000Y-105526000D01*
X127180315Y-105593039D01*
X127127511Y-105638794D01*
X127076000Y-105650000D01*
X125979912Y-105650000D01*
X125989800Y-105725103D01*
X125989801Y-105725108D01*
X126047736Y-105864979D01*
X126047738Y-105864981D01*
X126094989Y-105926560D01*
X126120183Y-105991729D01*
X126106145Y-106060174D01*
X126084295Y-106089727D01*
X126040011Y-106134012D01*
X125929433Y-106244590D01*
X125929432Y-106244591D01*
X125911600Y-106262423D01*
X125864591Y-106309431D01*
X125852391Y-106338888D01*
X125852389Y-106338892D01*
X125829499Y-106394149D01*
X125829499Y-106500283D01*
X125829500Y-106500292D01*
X125829500Y-106754147D01*
X125829499Y-106754161D01*
X125829499Y-106764150D01*
X125829499Y-106855850D01*
X125838007Y-106876389D01*
X125838008Y-106876392D01*
X125838009Y-106876392D01*
X125838009Y-106876393D01*
X125844048Y-106890973D01*
X125851517Y-106960440D01*
X125820243Y-107022920D01*
X125766378Y-107056810D01*
X125685603Y-107081981D01*
X125563650Y-107155704D01*
X125496095Y-107173540D01*
X125429621Y-107152022D01*
X125385334Y-107097982D01*
X125375500Y-107049587D01*
X125375500Y-106559739D01*
X125372725Y-106530150D01*
X125338430Y-106432143D01*
X125329116Y-106405525D01*
X125327097Y-106402790D01*
X125250711Y-106299289D01*
X125250710Y-106299288D01*
X125144476Y-106220884D01*
X125019848Y-106177274D01*
X125019849Y-106177274D01*
X124990260Y-106174500D01*
X124990256Y-106174500D01*
X124624862Y-106174500D01*
X124557823Y-106154815D01*
X124512068Y-106102011D01*
X124502124Y-106032853D01*
X124531149Y-105969297D01*
X124537181Y-105962819D01*
X124638181Y-105861819D01*
X124699504Y-105828334D01*
X124725862Y-105825500D01*
X124990260Y-105825500D01*
X125019849Y-105822725D01*
X125046432Y-105813423D01*
X125144475Y-105779116D01*
X125250711Y-105700711D01*
X125329116Y-105594475D01*
X125372725Y-105469849D01*
X125375500Y-105440256D01*
X125375500Y-105354500D01*
X125395185Y-105287461D01*
X125447989Y-105241706D01*
X125499500Y-105230500D01*
X125854249Y-105230500D01*
X125921288Y-105250185D01*
G37*
%TD.AperFunction*%
%TD*%
%TA.AperFunction,Conductor*%
%TO.N,GND*%
G36*
X116305263Y-90519685D02*
G01*
X116351018Y-90572489D01*
X116360962Y-90641647D01*
X116359841Y-90648192D01*
X116349500Y-90700177D01*
X116349500Y-90700180D01*
X116349500Y-93229820D01*
X116349500Y-93229822D01*
X116349499Y-93229822D01*
X116358231Y-93273717D01*
X116358234Y-93273724D01*
X116391495Y-93323503D01*
X116391496Y-93323504D01*
X116441278Y-93356767D01*
X116441281Y-93356767D01*
X116441282Y-93356768D01*
X116485177Y-93365500D01*
X116485180Y-93365500D01*
X119514822Y-93365500D01*
X119558717Y-93356768D01*
X119558717Y-93356767D01*
X119558722Y-93356767D01*
X119608504Y-93323504D01*
X119641767Y-93273722D01*
X119650500Y-93229820D01*
X119650500Y-90700180D01*
X119650500Y-90700177D01*
X119640159Y-90648192D01*
X119646386Y-90578600D01*
X119689248Y-90523423D01*
X119755138Y-90500178D01*
X119761776Y-90500000D01*
X126238224Y-90500000D01*
X126305263Y-90519685D01*
X126351018Y-90572489D01*
X126360962Y-90641647D01*
X126359841Y-90648192D01*
X126349500Y-90700177D01*
X126349500Y-90700180D01*
X126349500Y-93229820D01*
X126349500Y-93229822D01*
X126349499Y-93229822D01*
X126358231Y-93273717D01*
X126358234Y-93273724D01*
X126391495Y-93323503D01*
X126391496Y-93323504D01*
X126441278Y-93356767D01*
X126441281Y-93356767D01*
X126441282Y-93356768D01*
X126485177Y-93365500D01*
X126485180Y-93365500D01*
X129514822Y-93365500D01*
X129558717Y-93356768D01*
X129558717Y-93356767D01*
X129558722Y-93356767D01*
X129608504Y-93323504D01*
X129641767Y-93273722D01*
X129650500Y-93229820D01*
X129650500Y-90700180D01*
X129650500Y-90700177D01*
X129640159Y-90648192D01*
X129646386Y-90578600D01*
X129689248Y-90523423D01*
X129755138Y-90500178D01*
X129761776Y-90500000D01*
X134238224Y-90500000D01*
X134305263Y-90519685D01*
X134351018Y-90572489D01*
X134360962Y-90641647D01*
X134359841Y-90648192D01*
X134349500Y-90700177D01*
X134349500Y-90700180D01*
X134349500Y-93229820D01*
X134349500Y-93229822D01*
X134349499Y-93229822D01*
X134358231Y-93273717D01*
X134358234Y-93273724D01*
X134391495Y-93323503D01*
X134391496Y-93323504D01*
X134441278Y-93356767D01*
X134441281Y-93356767D01*
X134441282Y-93356768D01*
X134485177Y-93365500D01*
X134485180Y-93365500D01*
X137514822Y-93365500D01*
X137558717Y-93356768D01*
X137558717Y-93356767D01*
X137558722Y-93356767D01*
X137608504Y-93323504D01*
X137641767Y-93273722D01*
X137650500Y-93229820D01*
X137650500Y-90700180D01*
X137650500Y-90700177D01*
X137640159Y-90648192D01*
X137646386Y-90578600D01*
X137689248Y-90523423D01*
X137755138Y-90500178D01*
X137761776Y-90500000D01*
X144238224Y-90500000D01*
X144305263Y-90519685D01*
X144351018Y-90572489D01*
X144360962Y-90641647D01*
X144359841Y-90648192D01*
X144349500Y-90700177D01*
X144349500Y-90700180D01*
X144349500Y-93229820D01*
X144349500Y-93229822D01*
X144349499Y-93229822D01*
X144358231Y-93273717D01*
X144358234Y-93273724D01*
X144391495Y-93323503D01*
X144391496Y-93323504D01*
X144441278Y-93356767D01*
X144441281Y-93356767D01*
X144441282Y-93356768D01*
X144485177Y-93365500D01*
X144485180Y-93365500D01*
X147514822Y-93365500D01*
X147558717Y-93356768D01*
X147558717Y-93356767D01*
X147558722Y-93356767D01*
X147608504Y-93323504D01*
X147641767Y-93273722D01*
X147650500Y-93229820D01*
X147650500Y-90700180D01*
X147650500Y-90700177D01*
X147640159Y-90648192D01*
X147646386Y-90578600D01*
X147689248Y-90523423D01*
X147755138Y-90500178D01*
X147761776Y-90500000D01*
X149631454Y-90500000D01*
X149698493Y-90519685D01*
X149744248Y-90572489D01*
X149754192Y-90641647D01*
X149725167Y-90705203D01*
X149666389Y-90742977D01*
X149663547Y-90743775D01*
X149553511Y-90773258D01*
X149553502Y-90773261D01*
X149347267Y-90869431D01*
X149347265Y-90869432D01*
X149160858Y-90999954D01*
X148999954Y-91160858D01*
X148869432Y-91347265D01*
X148869431Y-91347267D01*
X148773261Y-91553502D01*
X148773258Y-91553511D01*
X148714366Y-91773302D01*
X148714364Y-91773313D01*
X148694532Y-91999998D01*
X148694532Y-92000001D01*
X148714364Y-92226686D01*
X148714366Y-92226697D01*
X148773258Y-92446488D01*
X148773261Y-92446497D01*
X148869431Y-92652732D01*
X148869432Y-92652734D01*
X148999954Y-92839141D01*
X149160858Y-93000045D01*
X149160861Y-93000047D01*
X149347266Y-93130568D01*
X149553504Y-93226739D01*
X149553509Y-93226740D01*
X149553511Y-93226741D01*
X149565010Y-93229822D01*
X149773308Y-93285635D01*
X149935230Y-93299801D01*
X149999998Y-93305468D01*
X150000000Y-93305468D01*
X150000002Y-93305468D01*
X150056673Y-93300509D01*
X150226692Y-93285635D01*
X150446496Y-93226739D01*
X150652734Y-93130568D01*
X150839139Y-93000047D01*
X151000047Y-92839139D01*
X151130568Y-92652734D01*
X151226739Y-92446496D01*
X151256225Y-92336451D01*
X151292590Y-92276791D01*
X151355437Y-92246262D01*
X151424812Y-92254556D01*
X151478690Y-92299042D01*
X151499965Y-92365594D01*
X151500000Y-92368545D01*
X151500000Y-117076369D01*
X151480315Y-117143408D01*
X151427511Y-117189163D01*
X151358353Y-117199107D01*
X151294797Y-117170082D01*
X151265515Y-117132664D01*
X151217422Y-117038278D01*
X151091786Y-116865355D01*
X150940645Y-116714214D01*
X150767721Y-116588577D01*
X150706814Y-116557543D01*
X150577269Y-116491536D01*
X150373988Y-116425487D01*
X150162878Y-116392050D01*
X150162873Y-116392050D01*
X149949127Y-116392050D01*
X149949122Y-116392050D01*
X149738011Y-116425487D01*
X149534730Y-116491536D01*
X149344275Y-116588579D01*
X149189529Y-116701009D01*
X149123723Y-116724489D01*
X149055669Y-116708664D01*
X149006974Y-116658558D01*
X148993906Y-116618338D01*
X148985165Y-116557543D01*
X148925377Y-116426627D01*
X148895416Y-116392050D01*
X148831128Y-116317857D01*
X148710053Y-116240047D01*
X148710051Y-116240046D01*
X148710049Y-116240045D01*
X148710050Y-116240045D01*
X148571963Y-116199500D01*
X148571961Y-116199500D01*
X148428039Y-116199500D01*
X148428036Y-116199500D01*
X148289949Y-116240045D01*
X148168873Y-116317856D01*
X148074622Y-116426627D01*
X148014834Y-116557543D01*
X147999070Y-116667187D01*
X147970045Y-116730742D01*
X147911266Y-116768516D01*
X147841397Y-116768516D01*
X147788651Y-116737220D01*
X147765647Y-116714216D01*
X147765645Y-116714214D01*
X147592721Y-116588577D01*
X147531814Y-116557543D01*
X147402269Y-116491536D01*
X147198988Y-116425487D01*
X146987878Y-116392050D01*
X146987873Y-116392050D01*
X146774127Y-116392050D01*
X146774122Y-116392050D01*
X146563011Y-116425487D01*
X146359730Y-116491536D01*
X146169278Y-116588577D01*
X146098437Y-116640047D01*
X145996355Y-116714214D01*
X145996353Y-116714216D01*
X145996352Y-116714216D01*
X145845216Y-116865352D01*
X145845216Y-116865353D01*
X145845214Y-116865355D01*
X145791257Y-116939619D01*
X145719577Y-117038278D01*
X145622536Y-117228730D01*
X145556487Y-117432011D01*
X145523050Y-117643121D01*
X145523050Y-117856878D01*
X145556487Y-118067988D01*
X145622536Y-118271269D01*
X145719577Y-118461721D01*
X145845214Y-118634645D01*
X145996355Y-118785786D01*
X146156449Y-118902101D01*
X146199114Y-118957431D01*
X146205093Y-119027045D01*
X146172487Y-119088839D01*
X146111648Y-119123197D01*
X146106357Y-119124158D01*
X146103931Y-119124808D01*
X145971556Y-119179639D01*
X145971555Y-119179639D01*
X145857867Y-119266876D01*
X145852125Y-119272619D01*
X145849826Y-119270320D01*
X145805659Y-119302555D01*
X145735912Y-119306692D01*
X145675000Y-119272465D01*
X145642263Y-119210739D01*
X145642123Y-119210046D01*
X145616216Y-119079800D01*
X145616213Y-119079791D01*
X145566028Y-118958630D01*
X145566021Y-118958618D01*
X145493161Y-118849577D01*
X145493158Y-118849573D01*
X145400426Y-118756841D01*
X145400422Y-118756838D01*
X145291381Y-118683978D01*
X145291369Y-118683971D01*
X145170208Y-118633786D01*
X145170199Y-118633783D01*
X145041580Y-118608200D01*
X145041576Y-118608200D01*
X144910424Y-118608200D01*
X144910419Y-118608200D01*
X144781800Y-118633783D01*
X144781791Y-118633786D01*
X144660630Y-118683971D01*
X144660618Y-118683978D01*
X144551577Y-118756838D01*
X144551573Y-118756841D01*
X144458841Y-118849573D01*
X144458838Y-118849577D01*
X144385978Y-118958618D01*
X144385971Y-118958630D01*
X144335786Y-119079791D01*
X144335783Y-119079800D01*
X144310200Y-119208419D01*
X144310200Y-119339580D01*
X144335783Y-119468199D01*
X144335786Y-119468208D01*
X144385971Y-119589369D01*
X144385978Y-119589381D01*
X144458838Y-119698422D01*
X144458841Y-119698426D01*
X144551573Y-119791158D01*
X144551577Y-119791161D01*
X144660618Y-119864021D01*
X144660630Y-119864028D01*
X144748684Y-119900500D01*
X144781793Y-119914214D01*
X144781795Y-119914214D01*
X144781800Y-119914216D01*
X144910419Y-119939799D01*
X144910423Y-119939800D01*
X144910424Y-119939800D01*
X145041577Y-119939800D01*
X145041578Y-119939799D01*
X145093645Y-119929443D01*
X145170199Y-119914216D01*
X145170202Y-119914214D01*
X145170207Y-119914214D01*
X145234699Y-119887500D01*
X145291369Y-119864028D01*
X145291372Y-119864026D01*
X145291375Y-119864025D01*
X145400423Y-119791161D01*
X145434496Y-119757088D01*
X145497469Y-119694116D01*
X145498539Y-119695186D01*
X145550100Y-119660049D01*
X145619944Y-119658164D01*
X145679720Y-119694339D01*
X145710449Y-119757088D01*
X145711171Y-119761853D01*
X145715807Y-119797064D01*
X145715808Y-119797068D01*
X145770639Y-119929443D01*
X145770642Y-119929448D01*
X145805813Y-119975284D01*
X145831007Y-120040453D01*
X145823977Y-120074727D01*
X145825623Y-120075033D01*
X145813733Y-120139180D01*
X146209681Y-120535127D01*
X146243166Y-120596450D01*
X146246000Y-120622808D01*
X146246000Y-120873638D01*
X146226315Y-120940677D01*
X146209680Y-120961320D01*
X146156903Y-121014096D01*
X146095580Y-121047580D01*
X146025888Y-121042595D01*
X145981542Y-121014095D01*
X145462356Y-120494909D01*
X145425065Y-120559499D01*
X145405847Y-120618646D01*
X145366409Y-120676321D01*
X145302050Y-120703518D01*
X145240466Y-120694888D01*
X145228868Y-120690084D01*
X145170207Y-120665786D01*
X145170203Y-120665785D01*
X145170199Y-120665783D01*
X145041580Y-120640200D01*
X145041576Y-120640200D01*
X144910424Y-120640200D01*
X144910419Y-120640200D01*
X144781800Y-120665783D01*
X144781791Y-120665786D01*
X144660630Y-120715971D01*
X144660618Y-120715978D01*
X144551577Y-120788838D01*
X144551573Y-120788841D01*
X144458841Y-120881573D01*
X144458838Y-120881577D01*
X144385978Y-120990618D01*
X144385971Y-120990630D01*
X144335786Y-121111791D01*
X144335783Y-121111800D01*
X144310200Y-121240419D01*
X144310200Y-121371580D01*
X144335783Y-121500199D01*
X144335786Y-121500208D01*
X144385971Y-121621369D01*
X144385978Y-121621381D01*
X144458838Y-121730422D01*
X144458841Y-121730426D01*
X144551573Y-121823158D01*
X144551577Y-121823161D01*
X144660618Y-121896021D01*
X144660630Y-121896028D01*
X144752214Y-121933962D01*
X144781793Y-121946214D01*
X144781795Y-121946214D01*
X144781800Y-121946216D01*
X144910419Y-121971799D01*
X144910423Y-121971800D01*
X144910424Y-121971800D01*
X145041577Y-121971800D01*
X145041578Y-121971799D01*
X145102277Y-121959726D01*
X145170199Y-121946216D01*
X145170202Y-121946214D01*
X145170207Y-121946214D01*
X145234699Y-121919500D01*
X145291369Y-121896028D01*
X145291372Y-121896026D01*
X145291375Y-121896025D01*
X145400423Y-121823161D01*
X145493161Y-121730423D01*
X145532938Y-121670891D01*
X145586548Y-121626089D01*
X145655873Y-121617380D01*
X145708925Y-121639466D01*
X145796687Y-121703229D01*
X145832975Y-121719385D01*
X145886212Y-121764634D01*
X145906535Y-121831483D01*
X145887491Y-121898707D01*
X145870224Y-121920345D01*
X145845214Y-121945355D01*
X145719577Y-122118278D01*
X145622536Y-122308730D01*
X145556487Y-122512011D01*
X145523050Y-122723121D01*
X145523050Y-122936878D01*
X145556487Y-123147988D01*
X145622536Y-123351269D01*
X145719577Y-123541721D01*
X145845214Y-123714645D01*
X145996355Y-123865786D01*
X146169279Y-123991423D01*
X146359728Y-124088462D01*
X146359730Y-124088463D01*
X146461370Y-124121487D01*
X146563013Y-124154513D01*
X146660789Y-124169999D01*
X146774122Y-124187950D01*
X146774127Y-124187950D01*
X146987878Y-124187950D01*
X147090221Y-124171739D01*
X147198987Y-124154513D01*
X147402272Y-124088462D01*
X147592721Y-123991423D01*
X147765645Y-123865786D01*
X147783459Y-123847971D01*
X147844779Y-123814486D01*
X147914471Y-123819469D01*
X147970405Y-123861339D01*
X147994824Y-123926803D01*
X147994313Y-123941131D01*
X147994353Y-123941131D01*
X147994353Y-123949999D01*
X148014834Y-124092456D01*
X148074622Y-124223371D01*
X148074623Y-124223373D01*
X148168872Y-124332143D01*
X148289947Y-124409953D01*
X148289950Y-124409954D01*
X148289949Y-124409954D01*
X148428036Y-124450499D01*
X148428038Y-124450500D01*
X148428039Y-124450500D01*
X148571962Y-124450500D01*
X148571962Y-124450499D01*
X148710053Y-124409953D01*
X148831128Y-124332143D01*
X148925377Y-124223373D01*
X148985165Y-124092457D01*
X149003018Y-123968280D01*
X149032043Y-123904726D01*
X149090820Y-123866951D01*
X149160690Y-123866951D01*
X149198636Y-123885607D01*
X149344279Y-123991423D01*
X149534728Y-124088462D01*
X149534730Y-124088463D01*
X149636370Y-124121487D01*
X149738013Y-124154513D01*
X149835789Y-124169999D01*
X149949122Y-124187950D01*
X149949127Y-124187950D01*
X150162878Y-124187950D01*
X150265221Y-124171739D01*
X150373987Y-124154513D01*
X150577272Y-124088462D01*
X150767721Y-123991423D01*
X150940645Y-123865786D01*
X151091786Y-123714645D01*
X151217423Y-123541721D01*
X151265515Y-123447334D01*
X151313490Y-123396539D01*
X151381311Y-123379744D01*
X151447446Y-123402281D01*
X151490897Y-123456996D01*
X151500000Y-123503630D01*
X151500000Y-127631454D01*
X151480315Y-127698493D01*
X151427511Y-127744248D01*
X151358353Y-127754192D01*
X151294797Y-127725167D01*
X151257023Y-127666389D01*
X151256225Y-127663547D01*
X151226741Y-127553511D01*
X151226738Y-127553502D01*
X151218645Y-127536146D01*
X151130568Y-127347266D01*
X151000047Y-127160861D01*
X151000045Y-127160858D01*
X150839141Y-126999954D01*
X150652734Y-126869432D01*
X150652732Y-126869431D01*
X150446497Y-126773261D01*
X150446488Y-126773258D01*
X150226697Y-126714366D01*
X150226693Y-126714365D01*
X150226692Y-126714365D01*
X150226691Y-126714364D01*
X150226686Y-126714364D01*
X150000002Y-126694532D01*
X149999998Y-126694532D01*
X149773313Y-126714364D01*
X149773302Y-126714366D01*
X149553511Y-126773258D01*
X149553502Y-126773261D01*
X149347267Y-126869431D01*
X149347265Y-126869432D01*
X149160858Y-126999954D01*
X148999954Y-127160858D01*
X148869432Y-127347265D01*
X148869431Y-127347267D01*
X148773261Y-127553502D01*
X148773258Y-127553511D01*
X148714366Y-127773302D01*
X148714364Y-127773313D01*
X148694532Y-127999998D01*
X148694532Y-128000001D01*
X148714364Y-128226686D01*
X148714366Y-128226697D01*
X148773258Y-128446488D01*
X148773261Y-128446497D01*
X148869431Y-128652732D01*
X148869432Y-128652734D01*
X148999954Y-128839141D01*
X149160858Y-129000045D01*
X149160861Y-129000047D01*
X149347266Y-129130568D01*
X149553504Y-129226739D01*
X149553509Y-129226740D01*
X149553511Y-129226741D01*
X149663547Y-129256225D01*
X149723208Y-129292590D01*
X149753737Y-129355437D01*
X149745442Y-129424812D01*
X149700957Y-129478690D01*
X149634405Y-129499965D01*
X149631454Y-129500000D01*
X132625818Y-129500000D01*
X132558779Y-129480315D01*
X132513024Y-129427511D01*
X132503080Y-129358353D01*
X132506742Y-129341405D01*
X132547099Y-129202494D01*
X132547100Y-129202488D01*
X132547295Y-129200001D01*
X132547295Y-129200000D01*
X130227705Y-129200000D01*
X130227704Y-129200001D01*
X130227899Y-129202488D01*
X130227900Y-129202494D01*
X130268258Y-129341405D01*
X130268059Y-129411275D01*
X130230117Y-129469945D01*
X130166478Y-129498788D01*
X130149182Y-129500000D01*
X126108409Y-129500000D01*
X126041370Y-129480315D01*
X125995615Y-129427511D01*
X125985671Y-129358353D01*
X126014696Y-129294797D01*
X126042437Y-129271006D01*
X126065961Y-129256225D01*
X126107183Y-129230324D01*
X126230324Y-129107183D01*
X126322975Y-128959728D01*
X126380493Y-128795353D01*
X126380493Y-128795351D01*
X126380494Y-128795349D01*
X126389681Y-128713802D01*
X126391236Y-128699998D01*
X130227704Y-128699998D01*
X130227705Y-128700000D01*
X131137500Y-128700000D01*
X131637500Y-128700000D01*
X132547295Y-128700000D01*
X132547295Y-128699998D01*
X132547100Y-128697513D01*
X132501281Y-128539801D01*
X132417685Y-128398447D01*
X132417678Y-128398438D01*
X132301561Y-128282321D01*
X132301552Y-128282314D01*
X132160196Y-128198717D01*
X132160193Y-128198716D01*
X132002495Y-128152900D01*
X132002489Y-128152899D01*
X131965649Y-128150000D01*
X131637500Y-128150000D01*
X131637500Y-128700000D01*
X131137500Y-128700000D01*
X131137500Y-128150000D01*
X130809350Y-128150000D01*
X130772510Y-128152899D01*
X130772504Y-128152900D01*
X130614806Y-128198716D01*
X130614803Y-128198717D01*
X130473447Y-128282314D01*
X130473438Y-128282321D01*
X130357321Y-128398438D01*
X130357314Y-128398447D01*
X130273718Y-128539801D01*
X130227899Y-128697513D01*
X130227704Y-128699998D01*
X126391236Y-128699998D01*
X126395101Y-128665702D01*
X126395100Y-127334301D01*
X126395099Y-127334292D01*
X126380494Y-127204654D01*
X126380492Y-127204644D01*
X126339047Y-127086206D01*
X126335484Y-127016427D01*
X126368405Y-126957571D01*
X126829436Y-126496541D01*
X126890758Y-126463057D01*
X126960450Y-126468041D01*
X127016383Y-126509913D01*
X127028516Y-126529763D01*
X127055609Y-126585184D01*
X127144813Y-126674388D01*
X127144814Y-126674388D01*
X127144816Y-126674390D01*
X127258151Y-126729796D01*
X127331625Y-126740501D01*
X127475661Y-126740500D01*
X127542700Y-126760184D01*
X127563342Y-126776819D01*
X127636868Y-126850345D01*
X127636874Y-126850350D01*
X128323251Y-127536727D01*
X128356736Y-127598050D01*
X128351752Y-127667742D01*
X128349004Y-127674494D01*
X128302416Y-127780004D01*
X128302415Y-127780008D01*
X128299500Y-127805131D01*
X128299500Y-128194856D01*
X128299502Y-128194882D01*
X128302413Y-128219987D01*
X128302415Y-128219991D01*
X128347793Y-128322764D01*
X128347794Y-128322765D01*
X128427235Y-128402206D01*
X128530009Y-128447585D01*
X128555135Y-128450500D01*
X129669864Y-128450499D01*
X129669879Y-128450497D01*
X129669882Y-128450497D01*
X129694987Y-128447586D01*
X129694988Y-128447585D01*
X129694991Y-128447585D01*
X129797765Y-128402206D01*
X129877206Y-128322765D01*
X129922585Y-128219991D01*
X129925500Y-128194865D01*
X129925499Y-127805136D01*
X129925497Y-127805117D01*
X129922586Y-127780012D01*
X129922585Y-127780010D01*
X129922585Y-127780009D01*
X129877206Y-127677235D01*
X129797765Y-127597794D01*
X129694992Y-127552415D01*
X129669868Y-127549500D01*
X129669865Y-127549500D01*
X129039338Y-127549500D01*
X128972299Y-127529815D01*
X128951657Y-127513181D01*
X128315236Y-126876760D01*
X128281751Y-126815437D01*
X128286735Y-126745745D01*
X128328607Y-126689812D01*
X128348453Y-126677680D01*
X128355184Y-126674390D01*
X128444389Y-126585185D01*
X128499795Y-126471850D01*
X128510500Y-126398376D01*
X128510499Y-125871627D01*
X128499795Y-125798152D01*
X128444389Y-125684817D01*
X128444387Y-125684815D01*
X128444387Y-125684814D01*
X128355186Y-125595613D01*
X128241849Y-125540206D01*
X128168375Y-125529501D01*
X128168370Y-125529501D01*
X127597023Y-125529501D01*
X127529984Y-125509816D01*
X127484229Y-125457012D01*
X127474285Y-125387854D01*
X127484229Y-125353989D01*
X127534428Y-125244071D01*
X127535165Y-125242457D01*
X127555647Y-125100000D01*
X127535165Y-124957543D01*
X127475377Y-124826627D01*
X127381128Y-124717857D01*
X127260053Y-124640047D01*
X127260051Y-124640046D01*
X127260049Y-124640045D01*
X127260050Y-124640045D01*
X127121963Y-124599500D01*
X127121961Y-124599500D01*
X126978039Y-124599500D01*
X126978036Y-124599500D01*
X126839949Y-124640045D01*
X126718873Y-124717856D01*
X126624623Y-124826626D01*
X126624622Y-124826628D01*
X126562794Y-124962012D01*
X126517039Y-125014816D01*
X126450000Y-125034500D01*
X126382960Y-125014815D01*
X126337206Y-124962012D01*
X126330739Y-124947851D01*
X126275377Y-124826627D01*
X126181128Y-124717857D01*
X126060053Y-124640047D01*
X126060051Y-124640046D01*
X126060049Y-124640045D01*
X126060050Y-124640045D01*
X125921963Y-124599500D01*
X125921961Y-124599500D01*
X125778039Y-124599500D01*
X125778036Y-124599500D01*
X125639949Y-124640045D01*
X125518873Y-124717856D01*
X125424623Y-124826626D01*
X125424622Y-124826628D01*
X125362794Y-124962012D01*
X125317039Y-125014816D01*
X125250000Y-125034500D01*
X125182960Y-125014815D01*
X125137206Y-124962012D01*
X125130739Y-124947851D01*
X125075377Y-124826627D01*
X124981128Y-124717857D01*
X124860053Y-124640047D01*
X124860051Y-124640046D01*
X124860049Y-124640045D01*
X124860050Y-124640045D01*
X124721963Y-124599500D01*
X124721961Y-124599500D01*
X124578039Y-124599500D01*
X124578036Y-124599500D01*
X124439949Y-124640045D01*
X124318873Y-124717856D01*
X124224623Y-124826626D01*
X124224622Y-124826628D01*
X124164834Y-124957543D01*
X124147738Y-125076456D01*
X124136986Y-125099999D01*
X124147738Y-125123543D01*
X124164834Y-125242456D01*
X124224622Y-125373371D01*
X124224623Y-125373373D01*
X124318872Y-125482143D01*
X124439947Y-125559953D01*
X124439950Y-125559954D01*
X124439949Y-125559954D01*
X124578036Y-125600499D01*
X124578038Y-125600500D01*
X124578039Y-125600500D01*
X124721962Y-125600500D01*
X124721962Y-125600499D01*
X124860053Y-125559953D01*
X124981128Y-125482143D01*
X125075377Y-125373373D01*
X125135165Y-125242457D01*
X125135165Y-125242455D01*
X125137206Y-125237987D01*
X125182961Y-125185183D01*
X125250000Y-125165499D01*
X125317040Y-125185184D01*
X125362794Y-125237987D01*
X125364834Y-125242455D01*
X125364835Y-125242457D01*
X125424623Y-125373373D01*
X125518872Y-125482143D01*
X125639947Y-125559953D01*
X125639950Y-125559954D01*
X125639949Y-125559954D01*
X125778036Y-125600499D01*
X125778038Y-125600500D01*
X125778039Y-125600500D01*
X125921962Y-125600500D01*
X125921962Y-125600499D01*
X126060053Y-125559953D01*
X126181128Y-125482143D01*
X126275377Y-125373373D01*
X126335165Y-125242457D01*
X126335165Y-125242455D01*
X126337206Y-125237987D01*
X126382961Y-125185183D01*
X126450000Y-125165499D01*
X126517040Y-125185184D01*
X126562794Y-125237987D01*
X126564834Y-125242455D01*
X126564835Y-125242457D01*
X126624623Y-125373373D01*
X126718872Y-125482143D01*
X126839947Y-125559953D01*
X126839950Y-125559954D01*
X126839948Y-125559954D01*
X126940906Y-125589597D01*
X126999684Y-125627370D01*
X127028710Y-125690926D01*
X127018767Y-125760085D01*
X127017373Y-125763034D01*
X127000205Y-125798151D01*
X127000173Y-125798374D01*
X127000060Y-125798620D01*
X126997362Y-125807352D01*
X126996215Y-125806997D01*
X126971032Y-125861876D01*
X126912184Y-125899542D01*
X126877468Y-125904501D01*
X126819151Y-125904501D01*
X126819150Y-125904501D01*
X126819146Y-125904502D01*
X126794339Y-125914778D01*
X126794337Y-125914779D01*
X126734438Y-125939589D01*
X126734430Y-125939594D01*
X126669591Y-126004434D01*
X126042431Y-126631593D01*
X125981108Y-126665078D01*
X125913796Y-126660954D01*
X125795347Y-126619507D01*
X125665706Y-126604901D01*
X124334300Y-126604901D01*
X124334292Y-126604902D01*
X124204654Y-126619507D01*
X124204644Y-126619509D01*
X124040271Y-126677028D01*
X123892821Y-126769675D01*
X123769675Y-126892821D01*
X123677027Y-127040272D01*
X123619507Y-127204652D01*
X123604901Y-127334293D01*
X123604901Y-128665701D01*
X123604902Y-128665709D01*
X123619507Y-128795347D01*
X123619509Y-128795357D01*
X123677028Y-128959730D01*
X123769675Y-129107180D01*
X123769678Y-129107183D01*
X123892819Y-129230324D01*
X123934041Y-129256225D01*
X123957565Y-129271006D01*
X124003856Y-129323340D01*
X124014505Y-129392394D01*
X123986130Y-129456242D01*
X123927740Y-129494614D01*
X123891593Y-129500000D01*
X119108407Y-129500000D01*
X119041368Y-129480315D01*
X118995613Y-129427511D01*
X118985669Y-129358353D01*
X119014694Y-129294797D01*
X119042435Y-129271006D01*
X119065959Y-129256225D01*
X119107181Y-129230324D01*
X119230322Y-129107183D01*
X119322973Y-128959728D01*
X119380491Y-128795353D01*
X119380491Y-128795351D01*
X119380492Y-128795349D01*
X119389679Y-128713802D01*
X119395099Y-128665702D01*
X119395098Y-127334301D01*
X119395097Y-127334292D01*
X119380492Y-127204654D01*
X119380490Y-127204644D01*
X119339045Y-127086206D01*
X119322973Y-127040274D01*
X119271007Y-126957569D01*
X119230324Y-126892821D01*
X119107178Y-126769675D01*
X118959726Y-126677027D01*
X118959727Y-126677027D01*
X118795347Y-126619507D01*
X118665704Y-126604901D01*
X117334298Y-126604901D01*
X117334290Y-126604902D01*
X117204652Y-126619507D01*
X117204642Y-126619509D01*
X117040269Y-126677028D01*
X116892819Y-126769675D01*
X116769673Y-126892821D01*
X116677025Y-127040272D01*
X116619505Y-127204652D01*
X116604899Y-127334293D01*
X116604899Y-128665701D01*
X116604900Y-128665709D01*
X116619505Y-128795347D01*
X116619507Y-128795357D01*
X116677026Y-128959730D01*
X116769673Y-129107180D01*
X116769676Y-129107183D01*
X116892817Y-129230324D01*
X116934039Y-129256225D01*
X116957563Y-129271006D01*
X117003854Y-129323340D01*
X117014503Y-129392394D01*
X116986128Y-129456242D01*
X116927738Y-129494614D01*
X116891591Y-129500000D01*
X114368546Y-129500000D01*
X114301507Y-129480315D01*
X114255752Y-129427511D01*
X114245808Y-129358353D01*
X114274833Y-129294797D01*
X114333611Y-129257023D01*
X114336453Y-129256225D01*
X114402957Y-129238405D01*
X114446496Y-129226739D01*
X114652734Y-129130568D01*
X114839139Y-129000047D01*
X115000047Y-128839139D01*
X115130568Y-128652734D01*
X115226739Y-128446496D01*
X115285635Y-128226692D01*
X115305468Y-128000000D01*
X115285635Y-127773308D01*
X115226739Y-127553504D01*
X115130568Y-127347266D01*
X115000047Y-127160861D01*
X115000045Y-127160858D01*
X114839141Y-126999954D01*
X114652734Y-126869432D01*
X114652732Y-126869431D01*
X114446497Y-126773261D01*
X114446488Y-126773258D01*
X114226697Y-126714366D01*
X114226693Y-126714365D01*
X114226692Y-126714365D01*
X114226691Y-126714364D01*
X114226686Y-126714364D01*
X114000002Y-126694532D01*
X113999998Y-126694532D01*
X113773313Y-126714364D01*
X113773302Y-126714366D01*
X113553511Y-126773258D01*
X113553502Y-126773261D01*
X113347267Y-126869431D01*
X113347265Y-126869432D01*
X113160858Y-126999954D01*
X112999954Y-127160858D01*
X112869432Y-127347265D01*
X112869431Y-127347267D01*
X112773261Y-127553502D01*
X112773258Y-127553511D01*
X112743775Y-127663547D01*
X112707410Y-127723208D01*
X112644563Y-127753737D01*
X112575188Y-127745442D01*
X112521310Y-127700957D01*
X112500035Y-127634405D01*
X112500000Y-127631454D01*
X112500000Y-125100000D01*
X122894353Y-125100000D01*
X122914834Y-125242456D01*
X122974622Y-125373371D01*
X122974623Y-125373373D01*
X123068872Y-125482143D01*
X123189947Y-125559953D01*
X123189950Y-125559954D01*
X123189949Y-125559954D01*
X123328036Y-125600499D01*
X123328038Y-125600500D01*
X123328039Y-125600500D01*
X123471962Y-125600500D01*
X123471962Y-125600499D01*
X123610053Y-125559953D01*
X123731128Y-125482143D01*
X123825377Y-125373373D01*
X123885165Y-125242457D01*
X123902262Y-125123542D01*
X123913014Y-125099999D01*
X123902262Y-125076456D01*
X123885165Y-124957543D01*
X123825377Y-124826627D01*
X123731128Y-124717857D01*
X123610053Y-124640047D01*
X123610051Y-124640046D01*
X123610049Y-124640045D01*
X123610050Y-124640045D01*
X123471963Y-124599500D01*
X123471961Y-124599500D01*
X123328039Y-124599500D01*
X123328036Y-124599500D01*
X123189949Y-124640045D01*
X123068873Y-124717856D01*
X122974623Y-124826626D01*
X122974622Y-124826628D01*
X122914834Y-124957543D01*
X122894353Y-125100000D01*
X112500000Y-125100000D01*
X112500000Y-124341739D01*
X129874500Y-124341739D01*
X129874500Y-124808260D01*
X129884426Y-124876391D01*
X129935803Y-124981485D01*
X130018514Y-125064196D01*
X130018515Y-125064196D01*
X130018517Y-125064198D01*
X130123607Y-125115573D01*
X130163380Y-125121367D01*
X130226877Y-125150509D01*
X130264542Y-125209358D01*
X130269500Y-125244071D01*
X130269500Y-126106647D01*
X130269499Y-126106661D01*
X130269499Y-126208352D01*
X130290054Y-126257975D01*
X130304590Y-126293067D01*
X130304591Y-126293068D01*
X130369432Y-126357909D01*
X130369433Y-126357909D01*
X130386873Y-126375349D01*
X130598251Y-126586727D01*
X130631736Y-126648050D01*
X130626752Y-126717742D01*
X130624004Y-126724494D01*
X130577416Y-126830004D01*
X130577415Y-126830008D01*
X130574500Y-126855131D01*
X130574500Y-127244856D01*
X130574502Y-127244882D01*
X130577413Y-127269987D01*
X130577415Y-127269991D01*
X130622793Y-127372764D01*
X130622794Y-127372765D01*
X130702235Y-127452206D01*
X130805009Y-127497585D01*
X130830135Y-127500500D01*
X131944864Y-127500499D01*
X131944879Y-127500497D01*
X131944882Y-127500497D01*
X131969987Y-127497586D01*
X131969988Y-127497585D01*
X131969991Y-127497585D01*
X132072765Y-127452206D01*
X132152206Y-127372765D01*
X132197585Y-127269991D01*
X132200500Y-127244865D01*
X132200499Y-126855136D01*
X132199944Y-126850350D01*
X132197586Y-126830012D01*
X132197585Y-126830010D01*
X132197585Y-126830009D01*
X132152206Y-126727235D01*
X132072765Y-126647794D01*
X132036073Y-126631593D01*
X131969992Y-126602415D01*
X131944868Y-126599500D01*
X131944865Y-126599500D01*
X131314339Y-126599500D01*
X131247300Y-126579815D01*
X131226658Y-126563181D01*
X130766819Y-126103342D01*
X130733334Y-126042019D01*
X130730500Y-126015661D01*
X130730500Y-125244071D01*
X130750185Y-125177032D01*
X130802989Y-125131277D01*
X130836614Y-125121368D01*
X130876393Y-125115573D01*
X130981483Y-125064198D01*
X131064198Y-124981483D01*
X131115573Y-124876393D01*
X131125500Y-124808260D01*
X131125500Y-124341740D01*
X131115573Y-124273607D01*
X131064198Y-124168517D01*
X131064196Y-124168515D01*
X131064196Y-124168514D01*
X130981485Y-124085803D01*
X130876391Y-124034426D01*
X130808261Y-124024500D01*
X130808260Y-124024500D01*
X130191740Y-124024500D01*
X130191739Y-124024500D01*
X130123608Y-124034426D01*
X130018514Y-124085803D01*
X129935803Y-124168514D01*
X129884426Y-124273608D01*
X129874500Y-124341739D01*
X112500000Y-124341739D01*
X112500000Y-120334291D01*
X116604899Y-120334291D01*
X116604899Y-121665699D01*
X116604900Y-121665707D01*
X116619505Y-121795345D01*
X116619507Y-121795355D01*
X116677026Y-121959728D01*
X116769673Y-122107178D01*
X116892819Y-122230324D01*
X116970459Y-122279107D01*
X117040272Y-122322973D01*
X117109594Y-122347230D01*
X117204650Y-122380492D01*
X117282767Y-122389292D01*
X117334298Y-122395099D01*
X118665699Y-122395098D01*
X118695974Y-122391687D01*
X118795345Y-122380492D01*
X118795348Y-122380491D01*
X118795351Y-122380491D01*
X118795352Y-122380490D01*
X118795355Y-122380490D01*
X118834003Y-122366965D01*
X118959726Y-122322973D01*
X119107181Y-122230322D01*
X119230322Y-122107181D01*
X119322973Y-121959726D01*
X119380491Y-121795351D01*
X119380491Y-121795349D01*
X119380492Y-121795347D01*
X119390500Y-121706520D01*
X119395099Y-121665700D01*
X119395098Y-120334299D01*
X119395097Y-120334291D01*
X123604901Y-120334291D01*
X123604901Y-121665699D01*
X123604902Y-121665707D01*
X123619507Y-121795345D01*
X123619509Y-121795355D01*
X123677028Y-121959728D01*
X123769675Y-122107178D01*
X123892821Y-122230324D01*
X123970461Y-122279107D01*
X124040274Y-122322973D01*
X124109596Y-122347230D01*
X124204652Y-122380492D01*
X124282769Y-122389292D01*
X124334300Y-122395099D01*
X125665701Y-122395098D01*
X125795353Y-122380491D01*
X125866655Y-122355540D01*
X125936428Y-122351978D01*
X125995287Y-122384901D01*
X126708939Y-123098554D01*
X126708940Y-123098554D01*
X126708942Y-123098556D01*
X126738596Y-123110838D01*
X126738598Y-123110840D01*
X126738599Y-123110840D01*
X126759571Y-123119526D01*
X126810201Y-123140499D01*
X126892809Y-123140499D01*
X126959848Y-123160184D01*
X127004208Y-123210037D01*
X127055611Y-123315183D01*
X127055612Y-123315185D01*
X127144813Y-123404386D01*
X127144814Y-123404386D01*
X127144816Y-123404388D01*
X127258151Y-123459794D01*
X127331625Y-123470499D01*
X128168374Y-123470498D01*
X128241849Y-123459794D01*
X128355184Y-123404388D01*
X128444389Y-123315183D01*
X128499795Y-123201848D01*
X128510500Y-123128374D01*
X128510499Y-122691739D01*
X129874500Y-122691739D01*
X129874500Y-123158260D01*
X129884426Y-123226391D01*
X129935803Y-123331485D01*
X130018514Y-123414196D01*
X130018515Y-123414196D01*
X130018517Y-123414198D01*
X130123607Y-123465573D01*
X130157409Y-123470498D01*
X130191739Y-123475500D01*
X130191740Y-123475500D01*
X130808261Y-123475500D01*
X130830971Y-123472191D01*
X130876393Y-123465573D01*
X130981483Y-123414198D01*
X131064198Y-123331483D01*
X131115573Y-123226393D01*
X131125500Y-123158260D01*
X131125500Y-122691740D01*
X131115573Y-122623607D01*
X131064198Y-122518517D01*
X131064196Y-122518515D01*
X131064196Y-122518514D01*
X130981484Y-122435802D01*
X130896709Y-122394358D01*
X130845127Y-122347230D01*
X130827213Y-122279696D01*
X130848654Y-122213198D01*
X130857442Y-122201774D01*
X130925377Y-122123373D01*
X130985165Y-121992457D01*
X131005647Y-121850000D01*
X130985165Y-121707543D01*
X130925377Y-121576627D01*
X130831128Y-121467857D01*
X130710053Y-121390047D01*
X130710051Y-121390046D01*
X130710049Y-121390045D01*
X130710050Y-121390045D01*
X130571963Y-121349500D01*
X130571961Y-121349500D01*
X130428039Y-121349500D01*
X130428036Y-121349500D01*
X130289949Y-121390045D01*
X130168873Y-121467856D01*
X130074623Y-121576626D01*
X130074622Y-121576628D01*
X130014834Y-121707543D01*
X129994353Y-121850000D01*
X130014834Y-121992456D01*
X130041755Y-122051403D01*
X130074623Y-122123373D01*
X130142543Y-122201757D01*
X130171567Y-122265311D01*
X130161624Y-122334469D01*
X130115869Y-122387273D01*
X130103290Y-122394358D01*
X130018515Y-122435802D01*
X129935803Y-122518514D01*
X129884426Y-122623608D01*
X129874500Y-122691739D01*
X128510499Y-122691739D01*
X128510499Y-122601625D01*
X128499795Y-122528150D01*
X128444389Y-122414815D01*
X128444387Y-122414813D01*
X128444387Y-122414812D01*
X128355186Y-122325611D01*
X128241849Y-122270204D01*
X128168375Y-122259499D01*
X128168369Y-122259499D01*
X127331626Y-122259499D01*
X127258150Y-122270204D01*
X127144813Y-122325611D01*
X127055611Y-122414813D01*
X127049411Y-122427496D01*
X127002281Y-122479077D01*
X126934747Y-122496989D01*
X126868249Y-122475546D01*
X126850331Y-122460713D01*
X126384903Y-121995285D01*
X126351418Y-121933962D01*
X126355542Y-121866653D01*
X126380493Y-121795351D01*
X126395101Y-121665700D01*
X126395100Y-120334299D01*
X126382981Y-120226727D01*
X126380494Y-120204652D01*
X126380492Y-120204642D01*
X126342404Y-120095796D01*
X126322975Y-120040272D01*
X126259845Y-119939800D01*
X126230326Y-119892819D01*
X126107183Y-119769676D01*
X126005201Y-119705597D01*
X125958910Y-119653262D01*
X125948262Y-119584209D01*
X125976637Y-119520360D01*
X126035026Y-119481988D01*
X126036017Y-119481691D01*
X126110053Y-119459953D01*
X126231128Y-119382143D01*
X126325377Y-119273373D01*
X126381720Y-119150000D01*
X126844353Y-119150000D01*
X126864834Y-119292456D01*
X126922103Y-119417856D01*
X126924623Y-119423373D01*
X127018872Y-119532143D01*
X127139947Y-119609953D01*
X127139950Y-119609954D01*
X127139949Y-119609954D01*
X127209924Y-119630500D01*
X127275607Y-119649786D01*
X127278036Y-119650499D01*
X127278038Y-119650500D01*
X127278039Y-119650500D01*
X127421962Y-119650500D01*
X127421962Y-119650499D01*
X127560053Y-119609953D01*
X127653342Y-119550000D01*
X128244353Y-119550000D01*
X128264834Y-119692456D01*
X128309911Y-119791158D01*
X128324623Y-119823373D01*
X128418872Y-119932143D01*
X128539947Y-120009953D01*
X128539950Y-120009954D01*
X128539949Y-120009954D01*
X128678036Y-120050499D01*
X128678038Y-120050500D01*
X128678039Y-120050500D01*
X128821962Y-120050500D01*
X128821962Y-120050499D01*
X128960053Y-120009953D01*
X129081128Y-119932143D01*
X129175377Y-119823373D01*
X129186051Y-119800000D01*
X132644353Y-119800000D01*
X132664834Y-119942456D01*
X132724012Y-120072036D01*
X132724623Y-120073373D01*
X132818872Y-120182143D01*
X132939947Y-120259953D01*
X132939950Y-120259954D01*
X132939949Y-120259954D01*
X133078036Y-120300499D01*
X133078038Y-120300500D01*
X133078039Y-120300500D01*
X133221962Y-120300500D01*
X133221962Y-120300499D01*
X133360053Y-120259953D01*
X133481128Y-120182143D01*
X133575377Y-120073373D01*
X133635165Y-119942457D01*
X133655647Y-119800000D01*
X136744353Y-119800000D01*
X136764834Y-119942456D01*
X136824012Y-120072036D01*
X136824623Y-120073373D01*
X136918872Y-120182143D01*
X137039947Y-120259953D01*
X137039950Y-120259954D01*
X137039949Y-120259954D01*
X137178036Y-120300499D01*
X137178038Y-120300500D01*
X137178039Y-120300500D01*
X137321962Y-120300500D01*
X137321962Y-120300499D01*
X137460053Y-120259953D01*
X137581128Y-120182143D01*
X137675377Y-120073373D01*
X137735165Y-119942457D01*
X137755647Y-119800000D01*
X137735165Y-119657543D01*
X137675377Y-119526627D01*
X137581128Y-119417857D01*
X137460053Y-119340047D01*
X137460051Y-119340046D01*
X137460049Y-119340045D01*
X137460050Y-119340045D01*
X137321963Y-119299500D01*
X137321961Y-119299500D01*
X137178039Y-119299500D01*
X137178036Y-119299500D01*
X137039949Y-119340045D01*
X136918873Y-119417856D01*
X136824623Y-119526626D01*
X136824622Y-119526628D01*
X136764834Y-119657543D01*
X136744353Y-119800000D01*
X133655647Y-119800000D01*
X133635165Y-119657543D01*
X133575377Y-119526627D01*
X133481128Y-119417857D01*
X133360053Y-119340047D01*
X133360051Y-119340046D01*
X133360049Y-119340045D01*
X133360050Y-119340045D01*
X133221963Y-119299500D01*
X133221961Y-119299500D01*
X133078039Y-119299500D01*
X133078036Y-119299500D01*
X132939949Y-119340045D01*
X132818873Y-119417856D01*
X132724623Y-119526626D01*
X132724622Y-119526628D01*
X132664834Y-119657543D01*
X132644353Y-119800000D01*
X129186051Y-119800000D01*
X129235165Y-119692457D01*
X129255647Y-119550000D01*
X129235165Y-119407543D01*
X129175377Y-119276627D01*
X129081128Y-119167857D01*
X128960053Y-119090047D01*
X128960051Y-119090046D01*
X128960049Y-119090045D01*
X128960050Y-119090045D01*
X128821963Y-119049500D01*
X128821961Y-119049500D01*
X128678039Y-119049500D01*
X128678036Y-119049500D01*
X128539949Y-119090045D01*
X128418873Y-119167856D01*
X128324623Y-119276626D01*
X128324622Y-119276628D01*
X128264834Y-119407543D01*
X128244353Y-119550000D01*
X127653342Y-119550000D01*
X127681128Y-119532143D01*
X127775377Y-119423373D01*
X127835165Y-119292457D01*
X127855647Y-119150000D01*
X127835165Y-119007543D01*
X127775377Y-118876627D01*
X127681128Y-118767857D01*
X127560053Y-118690047D01*
X127560051Y-118690046D01*
X127560049Y-118690045D01*
X127560050Y-118690045D01*
X127421963Y-118649500D01*
X127421961Y-118649500D01*
X127278039Y-118649500D01*
X127278036Y-118649500D01*
X127139949Y-118690045D01*
X127018873Y-118767856D01*
X126924623Y-118876626D01*
X126924622Y-118876628D01*
X126864834Y-119007543D01*
X126844353Y-119150000D01*
X126381720Y-119150000D01*
X126385165Y-119142457D01*
X126405647Y-119000000D01*
X126385165Y-118857543D01*
X126325377Y-118726627D01*
X126231128Y-118617857D01*
X126110053Y-118540047D01*
X126110051Y-118540046D01*
X126110049Y-118540045D01*
X126110050Y-118540045D01*
X125971963Y-118499500D01*
X125971961Y-118499500D01*
X125828039Y-118499500D01*
X125828036Y-118499500D01*
X125689949Y-118540045D01*
X125568873Y-118617856D01*
X125474623Y-118726626D01*
X125474622Y-118726628D01*
X125414834Y-118857543D01*
X125394353Y-119000000D01*
X125400105Y-119040008D01*
X125390161Y-119109166D01*
X125365048Y-119145335D01*
X124941803Y-119568580D01*
X124880480Y-119602065D01*
X124854122Y-119604899D01*
X124334298Y-119604899D01*
X124334292Y-119604900D01*
X124204654Y-119619505D01*
X124204644Y-119619507D01*
X124040271Y-119677026D01*
X123892821Y-119769673D01*
X123769675Y-119892819D01*
X123677027Y-120040270D01*
X123619507Y-120204650D01*
X123604901Y-120334291D01*
X119395097Y-120334291D01*
X119382979Y-120226727D01*
X119380492Y-120204652D01*
X119380490Y-120204642D01*
X119342402Y-120095796D01*
X119322973Y-120040272D01*
X119259843Y-119939800D01*
X119230324Y-119892819D01*
X119107178Y-119769673D01*
X118959726Y-119677025D01*
X118959727Y-119677025D01*
X118795347Y-119619505D01*
X118665704Y-119604899D01*
X117334298Y-119604899D01*
X117334290Y-119604900D01*
X117204652Y-119619505D01*
X117204642Y-119619507D01*
X117040269Y-119677026D01*
X116892819Y-119769673D01*
X116769673Y-119892819D01*
X116677025Y-120040270D01*
X116619505Y-120204650D01*
X116604899Y-120334291D01*
X112500000Y-120334291D01*
X112500000Y-117100000D01*
X124794353Y-117100000D01*
X124814834Y-117242456D01*
X124872103Y-117367856D01*
X124874623Y-117373373D01*
X124968872Y-117482143D01*
X125089947Y-117559953D01*
X125089950Y-117559954D01*
X125089949Y-117559954D01*
X125228036Y-117600499D01*
X125228038Y-117600500D01*
X125322744Y-117600500D01*
X125389783Y-117620185D01*
X125435538Y-117672989D01*
X125445482Y-117742146D01*
X125444353Y-117749998D01*
X125444353Y-117749999D01*
X125464834Y-117892456D01*
X125524622Y-118023371D01*
X125524623Y-118023373D01*
X125618872Y-118132143D01*
X125739947Y-118209953D01*
X125739950Y-118209954D01*
X125739949Y-118209954D01*
X125878036Y-118250499D01*
X125878038Y-118250500D01*
X125878039Y-118250500D01*
X126021962Y-118250500D01*
X126021962Y-118250499D01*
X126160053Y-118209953D01*
X126281128Y-118132143D01*
X126375377Y-118023373D01*
X126435165Y-117892457D01*
X126455647Y-117750000D01*
X126435165Y-117607543D01*
X126375377Y-117476627D01*
X126281128Y-117367857D01*
X126160053Y-117290047D01*
X126160051Y-117290046D01*
X126160049Y-117290045D01*
X126160050Y-117290045D01*
X126021963Y-117249500D01*
X126021961Y-117249500D01*
X125927256Y-117249500D01*
X125860217Y-117229815D01*
X125814462Y-117177011D01*
X125804518Y-117107854D01*
X125805647Y-117100001D01*
X125805647Y-117100000D01*
X125785165Y-116957543D01*
X125725377Y-116826627D01*
X125631128Y-116717857D01*
X125510053Y-116640047D01*
X125510051Y-116640046D01*
X125510049Y-116640045D01*
X125510050Y-116640045D01*
X125371963Y-116599500D01*
X125371961Y-116599500D01*
X125228039Y-116599500D01*
X125228036Y-116599500D01*
X125089949Y-116640045D01*
X124968873Y-116717856D01*
X124874623Y-116826626D01*
X124874622Y-116826628D01*
X124814834Y-116957543D01*
X124794353Y-117100000D01*
X112500000Y-117100000D01*
X112500000Y-115474500D01*
X112519685Y-115407461D01*
X112572489Y-115361706D01*
X112624000Y-115350500D01*
X115964822Y-115350500D01*
X116008717Y-115341768D01*
X116008717Y-115341767D01*
X116008722Y-115341767D01*
X116058504Y-115308504D01*
X116091767Y-115258722D01*
X116100500Y-115214820D01*
X116100500Y-114000000D01*
X124694353Y-114000000D01*
X124714834Y-114142456D01*
X124768494Y-114259953D01*
X124774623Y-114273373D01*
X124868872Y-114382143D01*
X124989947Y-114459953D01*
X124989950Y-114459954D01*
X124989949Y-114459954D01*
X125128036Y-114500499D01*
X125128038Y-114500500D01*
X125128039Y-114500500D01*
X125271962Y-114500500D01*
X125271962Y-114500499D01*
X125410053Y-114459953D01*
X125531128Y-114382143D01*
X125625377Y-114273373D01*
X125685165Y-114142457D01*
X125705647Y-114000000D01*
X125685165Y-113857543D01*
X125625377Y-113726627D01*
X125531128Y-113617857D01*
X125410053Y-113540047D01*
X125410051Y-113540046D01*
X125410049Y-113540045D01*
X125410050Y-113540045D01*
X125271963Y-113499500D01*
X125271961Y-113499500D01*
X125128039Y-113499500D01*
X125128036Y-113499500D01*
X124989949Y-113540045D01*
X124868873Y-113617856D01*
X124774623Y-113726626D01*
X124774622Y-113726628D01*
X124714834Y-113857543D01*
X124694353Y-114000000D01*
X116100500Y-114000000D01*
X116100500Y-113685180D01*
X116100500Y-113685177D01*
X116091768Y-113641282D01*
X116091767Y-113641281D01*
X116091767Y-113641278D01*
X116058504Y-113591496D01*
X116058503Y-113591495D01*
X116008724Y-113558234D01*
X116008717Y-113558231D01*
X115964822Y-113549500D01*
X115964820Y-113549500D01*
X112624000Y-113549500D01*
X112556961Y-113529815D01*
X112511206Y-113477011D01*
X112500000Y-113425500D01*
X112500000Y-112647844D01*
X117750000Y-112647844D01*
X117756401Y-112707372D01*
X117756403Y-112707379D01*
X117806645Y-112842086D01*
X117806649Y-112842093D01*
X117892809Y-112957187D01*
X117892812Y-112957190D01*
X118007906Y-113043350D01*
X118007913Y-113043354D01*
X118142620Y-113093596D01*
X118142627Y-113093598D01*
X118202155Y-113099999D01*
X118202172Y-113100000D01*
X119750000Y-113100000D01*
X120250000Y-113100000D01*
X121797828Y-113100000D01*
X121797844Y-113099999D01*
X121857372Y-113093598D01*
X121857379Y-113093596D01*
X121992086Y-113043354D01*
X121992093Y-113043350D01*
X122107187Y-112957190D01*
X122107190Y-112957187D01*
X122193350Y-112842093D01*
X122193354Y-112842086D01*
X122243596Y-112707379D01*
X122243598Y-112707372D01*
X122249999Y-112647844D01*
X122250000Y-112647827D01*
X122250000Y-112350000D01*
X120250000Y-112350000D01*
X120250000Y-113100000D01*
X119750000Y-113100000D01*
X119750000Y-112350000D01*
X117750000Y-112350000D01*
X117750000Y-112647844D01*
X112500000Y-112647844D01*
X112500000Y-111552155D01*
X117750000Y-111552155D01*
X117750000Y-111850000D01*
X119750000Y-111850000D01*
X120250000Y-111850000D01*
X122250000Y-111850000D01*
X122250000Y-111552172D01*
X122249999Y-111552155D01*
X122243598Y-111492627D01*
X122243596Y-111492620D01*
X122193354Y-111357913D01*
X122193350Y-111357906D01*
X122107190Y-111242812D01*
X122107187Y-111242809D01*
X121992093Y-111156649D01*
X121992086Y-111156645D01*
X121857379Y-111106403D01*
X121857372Y-111106401D01*
X121797844Y-111100000D01*
X120250000Y-111100000D01*
X120250000Y-111850000D01*
X119750000Y-111850000D01*
X119750000Y-111100000D01*
X118202155Y-111100000D01*
X118142627Y-111106401D01*
X118142620Y-111106403D01*
X118007913Y-111156645D01*
X118007906Y-111156649D01*
X117892812Y-111242809D01*
X117892809Y-111242812D01*
X117806649Y-111357906D01*
X117806645Y-111357913D01*
X117756403Y-111492620D01*
X117756401Y-111492627D01*
X117750000Y-111552155D01*
X112500000Y-111552155D01*
X112500000Y-108774500D01*
X112519685Y-108707461D01*
X112572489Y-108661706D01*
X112624000Y-108650500D01*
X115970500Y-108650500D01*
X116037539Y-108670185D01*
X116083294Y-108722989D01*
X116094500Y-108774500D01*
X116094500Y-109198638D01*
X116095390Y-109215245D01*
X116095394Y-109215297D01*
X116098224Y-109241619D01*
X116098225Y-109241621D01*
X116116354Y-109299516D01*
X116116358Y-109299526D01*
X116149836Y-109360836D01*
X116149841Y-109360844D01*
X116176357Y-109396266D01*
X116176363Y-109396272D01*
X116176364Y-109396274D01*
X116340583Y-109560493D01*
X117428367Y-110648278D01*
X117432332Y-110652104D01*
X117438825Y-110658151D01*
X117438837Y-110658160D01*
X117480191Y-110685794D01*
X117480197Y-110685797D01*
X117480200Y-110685799D01*
X117509532Y-110699194D01*
X117543729Y-110714812D01*
X117543740Y-110714816D01*
X117543756Y-110714824D01*
X117550561Y-110717738D01*
X117630484Y-110727293D01*
X117699642Y-110717349D01*
X117706940Y-110716122D01*
X117706943Y-110716120D01*
X117706945Y-110716120D01*
X117741979Y-110699100D01*
X117779342Y-110680951D01*
X117832146Y-110635196D01*
X117837621Y-110630218D01*
X117871904Y-110573974D01*
X117923602Y-110526978D01*
X117992504Y-110515392D01*
X118056733Y-110542896D01*
X118095895Y-110600759D01*
X118099400Y-110614322D01*
X118108231Y-110658718D01*
X118108234Y-110658724D01*
X118126325Y-110685799D01*
X118141496Y-110708504D01*
X118191278Y-110741767D01*
X118191281Y-110741767D01*
X118191282Y-110741768D01*
X118235177Y-110750500D01*
X118235180Y-110750500D01*
X121764822Y-110750500D01*
X121808717Y-110741768D01*
X121808717Y-110741767D01*
X121808722Y-110741767D01*
X121858504Y-110708504D01*
X121891767Y-110658722D01*
X121893080Y-110652122D01*
X121900500Y-110614822D01*
X121900500Y-109585177D01*
X121891768Y-109541282D01*
X121891767Y-109541281D01*
X121891767Y-109541278D01*
X121891765Y-109541275D01*
X121887356Y-109530631D01*
X121879884Y-109461162D01*
X121911156Y-109398682D01*
X121971243Y-109363026D01*
X122041069Y-109365517D01*
X122048730Y-109368349D01*
X122048844Y-109368397D01*
X122050561Y-109369097D01*
X122130484Y-109378652D01*
X122199642Y-109368708D01*
X122206940Y-109367481D01*
X122206943Y-109367479D01*
X122206945Y-109367479D01*
X122255489Y-109343897D01*
X122279342Y-109332310D01*
X122332146Y-109286555D01*
X122337621Y-109281577D01*
X122379516Y-109212847D01*
X122399201Y-109145808D01*
X122405500Y-109101997D01*
X122405500Y-107865770D01*
X122425185Y-107798731D01*
X122441819Y-107778089D01*
X122750231Y-107469677D01*
X123063885Y-107156022D01*
X123125206Y-107122539D01*
X123194897Y-107127523D01*
X123250831Y-107169394D01*
X123274784Y-107229821D01*
X123289884Y-107363839D01*
X123289887Y-107363851D01*
X123348495Y-107531341D01*
X123412786Y-107633660D01*
X124235542Y-106810904D01*
X124296865Y-106777419D01*
X124366556Y-106782403D01*
X124410904Y-106810904D01*
X124589094Y-106989094D01*
X124622579Y-107050417D01*
X124617595Y-107120109D01*
X124589094Y-107164456D01*
X123817470Y-107936079D01*
X123886158Y-107960114D01*
X123886164Y-107960115D01*
X124018267Y-107974999D01*
X124018271Y-107975000D01*
X124597006Y-107975000D01*
X124664045Y-107994685D01*
X124696272Y-108024688D01*
X124701864Y-108032158D01*
X124701868Y-108032162D01*
X124701873Y-108032168D01*
X124847978Y-108178272D01*
X124992842Y-108323136D01*
X124992856Y-108323149D01*
X124992867Y-108323159D01*
X125005205Y-108334242D01*
X125005232Y-108334265D01*
X125012939Y-108340476D01*
X125025869Y-108350895D01*
X125079628Y-108379016D01*
X125079630Y-108379016D01*
X125079633Y-108379018D01*
X125125927Y-108392611D01*
X125146667Y-108398701D01*
X125190478Y-108405000D01*
X125318089Y-108405000D01*
X125322513Y-108405079D01*
X125334305Y-108405500D01*
X125334307Y-108405500D01*
X125571251Y-108405500D01*
X125638290Y-108425185D01*
X125682650Y-108475037D01*
X125685801Y-108481483D01*
X125733181Y-108528863D01*
X125766666Y-108590186D01*
X125769500Y-108616544D01*
X125769500Y-108705256D01*
X125749815Y-108772295D01*
X125697011Y-108818050D01*
X125680484Y-108824219D01*
X125675254Y-108825756D01*
X125668215Y-108828008D01*
X125601569Y-108873140D01*
X125601565Y-108873144D01*
X125593401Y-108882571D01*
X125589397Y-108885145D01*
X125489926Y-108999939D01*
X125463255Y-109023050D01*
X125409791Y-109057410D01*
X125377684Y-109072072D01*
X125328828Y-109086418D01*
X125316707Y-109089977D01*
X125281772Y-109095000D01*
X125218222Y-109095000D01*
X125183287Y-109089977D01*
X125082757Y-109060458D01*
X125082743Y-109060454D01*
X125082737Y-109060453D01*
X125055550Y-109055045D01*
X125011769Y-109050338D01*
X125011766Y-109050338D01*
X125011764Y-109050338D01*
X124940812Y-109059249D01*
X124940805Y-109059251D01*
X124875337Y-109083668D01*
X124868472Y-109086417D01*
X124805199Y-109136175D01*
X124763332Y-109192101D01*
X124759035Y-109198135D01*
X124759031Y-109198141D01*
X124732708Y-109274198D01*
X124732707Y-109274206D01*
X124727724Y-109343876D01*
X124727723Y-109343897D01*
X124727371Y-109351289D01*
X124746348Y-109429512D01*
X124746348Y-109429513D01*
X124746349Y-109429514D01*
X124779829Y-109490830D01*
X124779834Y-109490837D01*
X124806350Y-109526259D01*
X124806366Y-109526277D01*
X125679871Y-110399781D01*
X126480089Y-111199999D01*
X127330089Y-112049999D01*
X128353726Y-113073636D01*
X128353740Y-113073649D01*
X128353751Y-113073659D01*
X128366089Y-113084742D01*
X128366116Y-113084765D01*
X128385020Y-113099999D01*
X128386753Y-113101395D01*
X128440512Y-113129516D01*
X128440514Y-113129516D01*
X128440517Y-113129518D01*
X128474513Y-113139500D01*
X128507551Y-113149201D01*
X128551362Y-113155500D01*
X131686403Y-113155500D01*
X131753442Y-113175185D01*
X131799197Y-113227989D01*
X131809141Y-113297147D01*
X131794353Y-113400000D01*
X131808104Y-113495647D01*
X131798160Y-113564805D01*
X131773048Y-113600973D01*
X131729592Y-113644428D01*
X131717606Y-113673369D01*
X131717604Y-113673373D01*
X131694499Y-113729149D01*
X131694499Y-113822365D01*
X131674814Y-113889404D01*
X131624959Y-113933766D01*
X131518514Y-113985803D01*
X131435803Y-114068514D01*
X131384426Y-114173608D01*
X131374500Y-114241739D01*
X131374500Y-114858260D01*
X131384426Y-114926391D01*
X131435803Y-115031485D01*
X131518514Y-115114196D01*
X131518515Y-115114196D01*
X131518517Y-115114198D01*
X131623607Y-115165573D01*
X131657673Y-115170536D01*
X131691739Y-115175500D01*
X131691740Y-115175500D01*
X132158261Y-115175500D01*
X132180971Y-115172191D01*
X132226393Y-115165573D01*
X132331483Y-115114198D01*
X132414198Y-115031483D01*
X132455504Y-114946988D01*
X132502631Y-114895408D01*
X132570165Y-114877493D01*
X132636663Y-114898933D01*
X132681014Y-114952922D01*
X132685289Y-114964559D01*
X132731981Y-115114396D01*
X132819927Y-115259877D01*
X132940122Y-115380072D01*
X133085604Y-115468019D01*
X133085603Y-115468019D01*
X133247894Y-115518590D01*
X133247893Y-115518590D01*
X133318408Y-115524998D01*
X133318426Y-115524999D01*
X133825000Y-115524999D01*
X133831581Y-115524999D01*
X133902102Y-115518591D01*
X133902107Y-115518590D01*
X133968682Y-115497844D01*
X143570000Y-115497844D01*
X143576401Y-115557372D01*
X143576403Y-115557379D01*
X143626645Y-115692086D01*
X143626649Y-115692093D01*
X143712809Y-115807187D01*
X143712812Y-115807190D01*
X143827906Y-115893350D01*
X143827913Y-115893354D01*
X143962620Y-115943596D01*
X143962627Y-115943598D01*
X144022155Y-115949999D01*
X144022172Y-115950000D01*
X144820000Y-115950000D01*
X145320000Y-115950000D01*
X146117828Y-115950000D01*
X146117844Y-115949999D01*
X146177372Y-115943598D01*
X146177379Y-115943596D01*
X146312086Y-115893354D01*
X146312093Y-115893350D01*
X146427187Y-115807190D01*
X146427190Y-115807187D01*
X146513350Y-115692093D01*
X146513354Y-115692086D01*
X146563596Y-115557379D01*
X146563598Y-115557372D01*
X146569999Y-115497844D01*
X147500000Y-115497844D01*
X147506401Y-115557372D01*
X147506403Y-115557379D01*
X147556645Y-115692086D01*
X147556649Y-115692093D01*
X147642809Y-115807187D01*
X147642812Y-115807190D01*
X147757906Y-115893350D01*
X147757913Y-115893354D01*
X147892620Y-115943596D01*
X147892627Y-115943598D01*
X147952155Y-115949999D01*
X147952172Y-115950000D01*
X148750000Y-115950000D01*
X149250000Y-115950000D01*
X150047828Y-115950000D01*
X150047844Y-115949999D01*
X150107372Y-115943598D01*
X150107379Y-115943596D01*
X150242086Y-115893354D01*
X150242093Y-115893350D01*
X150357187Y-115807190D01*
X150357190Y-115807187D01*
X150443350Y-115692093D01*
X150443354Y-115692086D01*
X150493596Y-115557379D01*
X150493598Y-115557372D01*
X150499999Y-115497844D01*
X150500000Y-115497827D01*
X150500000Y-114610000D01*
X149250000Y-114610000D01*
X149250000Y-115950000D01*
X148750000Y-115950000D01*
X148750000Y-114610000D01*
X147500000Y-114610000D01*
X147500000Y-115497844D01*
X146569999Y-115497844D01*
X146570000Y-115497827D01*
X146570000Y-114610000D01*
X145320000Y-114610000D01*
X145320000Y-115950000D01*
X144820000Y-115950000D01*
X144820000Y-114610000D01*
X143570000Y-114610000D01*
X143570000Y-115497844D01*
X133968682Y-115497844D01*
X134064396Y-115468018D01*
X134209877Y-115380072D01*
X134330072Y-115259877D01*
X134418019Y-115114395D01*
X134468590Y-114952106D01*
X134475000Y-114881572D01*
X134475000Y-114800000D01*
X133825000Y-114800000D01*
X133825000Y-115524999D01*
X133318426Y-115524999D01*
X133324999Y-115524998D01*
X133325000Y-115524998D01*
X133325000Y-114300000D01*
X133825000Y-114300000D01*
X134474999Y-114300000D01*
X134474999Y-114218417D01*
X134468591Y-114147897D01*
X134468590Y-114147892D01*
X134418018Y-113985603D01*
X134330072Y-113840122D01*
X134209877Y-113719927D01*
X134064395Y-113631980D01*
X134064396Y-113631980D01*
X133902105Y-113581409D01*
X133902106Y-113581409D01*
X133831572Y-113575000D01*
X133825000Y-113575000D01*
X133825000Y-114300000D01*
X133325000Y-114300000D01*
X133325000Y-113575000D01*
X133324999Y-113574999D01*
X133318436Y-113575000D01*
X133318417Y-113575001D01*
X133247897Y-113581408D01*
X133247892Y-113581409D01*
X133085602Y-113631981D01*
X132957976Y-113709134D01*
X132890421Y-113726970D01*
X132823947Y-113705452D01*
X132779660Y-113651412D01*
X132771619Y-113582006D01*
X132781032Y-113551505D01*
X132785165Y-113542457D01*
X132805647Y-113400000D01*
X132790859Y-113297146D01*
X132800803Y-113227988D01*
X132846558Y-113175184D01*
X132913597Y-113155500D01*
X136679717Y-113155500D01*
X136701847Y-113153917D01*
X136701852Y-113153916D01*
X136701855Y-113153916D01*
X136708742Y-113152925D01*
X136736782Y-113148894D01*
X136736784Y-113148893D01*
X136742327Y-113148096D01*
X136811486Y-113158037D01*
X136864291Y-113203790D01*
X136872771Y-113219318D01*
X136874622Y-113223372D01*
X136935646Y-113293798D01*
X136964670Y-113357354D01*
X136954726Y-113426512D01*
X136935646Y-113456202D01*
X136874623Y-113526627D01*
X136874622Y-113526628D01*
X136814834Y-113657543D01*
X136794353Y-113800000D01*
X136814834Y-113942456D01*
X136841114Y-114000000D01*
X136874623Y-114073373D01*
X136968872Y-114182143D01*
X137089947Y-114259953D01*
X137089950Y-114259954D01*
X137089949Y-114259954D01*
X137197107Y-114291417D01*
X137226336Y-114300000D01*
X137228036Y-114300499D01*
X137228038Y-114300500D01*
X137228039Y-114300500D01*
X137371962Y-114300500D01*
X137371962Y-114300499D01*
X137510053Y-114259953D01*
X137631128Y-114182143D01*
X137725377Y-114073373D01*
X137785165Y-113942457D01*
X137805647Y-113800000D01*
X137785165Y-113657543D01*
X137725377Y-113526627D01*
X137664353Y-113456201D01*
X137635329Y-113392647D01*
X137645273Y-113323489D01*
X137664351Y-113293800D01*
X137725377Y-113223373D01*
X137728474Y-113216590D01*
X137774226Y-113163786D01*
X137841264Y-113144099D01*
X137872087Y-113148532D01*
X137872147Y-113148260D01*
X137875958Y-113149089D01*
X137876219Y-113149126D01*
X137876472Y-113149201D01*
X137920283Y-113155500D01*
X137920286Y-113155500D01*
X143446000Y-113155500D01*
X143513039Y-113175185D01*
X143558794Y-113227989D01*
X143570000Y-113279500D01*
X143570000Y-114110000D01*
X146570000Y-114110000D01*
X146570000Y-113222172D01*
X146569999Y-113222155D01*
X147500000Y-113222155D01*
X147500000Y-114110000D01*
X148750000Y-114110000D01*
X149250000Y-114110000D01*
X150500000Y-114110000D01*
X150500000Y-113222172D01*
X150499999Y-113222155D01*
X150493598Y-113162627D01*
X150493596Y-113162620D01*
X150443354Y-113027913D01*
X150443350Y-113027906D01*
X150357190Y-112912812D01*
X150357187Y-112912809D01*
X150242093Y-112826649D01*
X150242086Y-112826645D01*
X150107379Y-112776403D01*
X150107372Y-112776401D01*
X150047844Y-112770000D01*
X149250000Y-112770000D01*
X149250000Y-114110000D01*
X148750000Y-114110000D01*
X148750000Y-112770000D01*
X147952155Y-112770000D01*
X147892627Y-112776401D01*
X147892620Y-112776403D01*
X147757913Y-112826645D01*
X147757906Y-112826649D01*
X147642812Y-112912809D01*
X147642809Y-112912812D01*
X147556649Y-113027906D01*
X147556645Y-113027913D01*
X147506403Y-113162620D01*
X147506401Y-113162627D01*
X147500000Y-113222155D01*
X146569999Y-113222155D01*
X146563598Y-113162627D01*
X146563596Y-113162620D01*
X146513354Y-113027913D01*
X146513350Y-113027906D01*
X146427191Y-112912814D01*
X146420915Y-112906537D01*
X146423066Y-112904385D01*
X146390286Y-112860596D01*
X146385302Y-112790905D01*
X146387486Y-112782344D01*
X146399201Y-112742449D01*
X146405500Y-112698638D01*
X146405500Y-112415981D01*
X146403347Y-112390194D01*
X146396527Y-112349638D01*
X146369847Y-112285227D01*
X146329319Y-112228313D01*
X146324884Y-112222388D01*
X146324882Y-112222387D01*
X146319569Y-112215288D01*
X146321997Y-112213470D01*
X146295768Y-112165434D01*
X146300752Y-112095742D01*
X146333516Y-112047329D01*
X146337621Y-112043598D01*
X146379516Y-111974868D01*
X146399201Y-111907829D01*
X146405500Y-111864018D01*
X146405500Y-110432837D01*
X146401946Y-110399782D01*
X146390740Y-110348270D01*
X146390739Y-110348268D01*
X146356313Y-110279493D01*
X146338284Y-110258688D01*
X146310558Y-110226690D01*
X146305579Y-110221213D01*
X146305575Y-110221210D01*
X146304848Y-110220610D01*
X146304316Y-110219824D01*
X146299610Y-110214647D01*
X146300353Y-110213970D01*
X146265683Y-110162749D01*
X146264017Y-110092899D01*
X146270995Y-110073482D01*
X146285165Y-110042457D01*
X146305647Y-109900000D01*
X146285165Y-109757543D01*
X146269699Y-109723679D01*
X146259756Y-109654521D01*
X146288781Y-109590966D01*
X146301283Y-109578462D01*
X146332146Y-109551720D01*
X146337621Y-109546742D01*
X146379516Y-109478012D01*
X146399201Y-109410973D01*
X146405500Y-109367162D01*
X146405500Y-106635981D01*
X146403347Y-106610194D01*
X146396527Y-106569638D01*
X146369847Y-106505227D01*
X146329319Y-106448313D01*
X146324884Y-106442388D01*
X146260446Y-106394150D01*
X146260443Y-106394148D01*
X146260442Y-106394148D01*
X146260440Y-106394147D01*
X146195573Y-106368178D01*
X146188652Y-106365596D01*
X146174952Y-106364616D01*
X146170515Y-106364298D01*
X146105052Y-106339881D01*
X146063181Y-106283946D01*
X146059593Y-106272720D01*
X146040362Y-106200948D01*
X146042025Y-106131101D01*
X146081188Y-106073239D01*
X146083456Y-106071410D01*
X146122042Y-106041067D01*
X146163914Y-105985134D01*
X146168209Y-105979103D01*
X146189949Y-105916289D01*
X146194533Y-105903043D01*
X146194533Y-105903042D01*
X146194535Y-105903037D01*
X146199519Y-105833345D01*
X146199871Y-105825953D01*
X146199869Y-105825948D01*
X146199870Y-105825946D01*
X146199028Y-105817124D01*
X146201871Y-105816852D01*
X146204504Y-105761564D01*
X146245031Y-105704649D01*
X146278353Y-105685936D01*
X146312084Y-105673355D01*
X146312093Y-105673350D01*
X146427187Y-105587190D01*
X146427190Y-105587187D01*
X146513350Y-105472093D01*
X146513354Y-105472086D01*
X146563596Y-105337379D01*
X146563598Y-105337372D01*
X146569999Y-105277844D01*
X147500000Y-105277844D01*
X147506401Y-105337372D01*
X147506403Y-105337379D01*
X147556645Y-105472086D01*
X147556649Y-105472093D01*
X147642809Y-105587187D01*
X147642812Y-105587190D01*
X147757906Y-105673350D01*
X147757913Y-105673354D01*
X147892620Y-105723596D01*
X147892627Y-105723598D01*
X147952155Y-105729999D01*
X147952172Y-105730000D01*
X148750000Y-105730000D01*
X149250000Y-105730000D01*
X150047828Y-105730000D01*
X150047844Y-105729999D01*
X150107372Y-105723598D01*
X150107379Y-105723596D01*
X150242086Y-105673354D01*
X150242093Y-105673350D01*
X150357187Y-105587190D01*
X150357190Y-105587187D01*
X150443350Y-105472093D01*
X150443354Y-105472086D01*
X150493596Y-105337379D01*
X150493598Y-105337372D01*
X150499999Y-105277844D01*
X150500000Y-105277827D01*
X150500000Y-104390000D01*
X149250000Y-104390000D01*
X149250000Y-105730000D01*
X148750000Y-105730000D01*
X148750000Y-104390000D01*
X147500000Y-104390000D01*
X147500000Y-105277844D01*
X146569999Y-105277844D01*
X146570000Y-105277827D01*
X146570000Y-104390000D01*
X143570000Y-104390000D01*
X143570000Y-105220500D01*
X143550315Y-105287539D01*
X143497511Y-105333294D01*
X143446000Y-105344500D01*
X142241741Y-105344500D01*
X142174702Y-105324815D01*
X142128947Y-105272011D01*
X142119003Y-105202853D01*
X142119036Y-105202623D01*
X142122171Y-105181106D01*
X142125500Y-105158260D01*
X142125500Y-104691740D01*
X142115573Y-104623607D01*
X142064198Y-104518517D01*
X142064196Y-104518515D01*
X142064196Y-104518514D01*
X141981485Y-104435803D01*
X141876391Y-104384426D01*
X141808261Y-104374500D01*
X141808260Y-104374500D01*
X141251839Y-104374500D01*
X141184800Y-104354815D01*
X141164158Y-104338181D01*
X140637850Y-103811874D01*
X140637849Y-103811873D01*
X140620409Y-103794432D01*
X140555568Y-103729591D01*
X140555567Y-103729590D01*
X140520477Y-103715055D01*
X140470852Y-103694499D01*
X140470850Y-103694499D01*
X140379150Y-103694499D01*
X140364716Y-103694499D01*
X140364708Y-103694500D01*
X138477635Y-103694500D01*
X138410596Y-103674815D01*
X138366234Y-103624960D01*
X138365573Y-103623607D01*
X138314198Y-103518517D01*
X138314196Y-103518515D01*
X138314196Y-103518514D01*
X138231485Y-103435803D01*
X138126391Y-103384426D01*
X138086623Y-103378632D01*
X138023122Y-103349488D01*
X137991449Y-103300000D01*
X140994353Y-103300000D01*
X141014834Y-103442456D01*
X141027714Y-103470658D01*
X141074623Y-103573373D01*
X141168872Y-103682143D01*
X141289947Y-103759953D01*
X141289950Y-103759954D01*
X141289949Y-103759954D01*
X141397107Y-103791417D01*
X141407376Y-103794433D01*
X141428036Y-103800499D01*
X141428038Y-103800500D01*
X141428039Y-103800500D01*
X141571962Y-103800500D01*
X141571962Y-103800499D01*
X141710053Y-103759953D01*
X141831128Y-103682143D01*
X141925377Y-103573373D01*
X141985165Y-103442457D01*
X142005647Y-103300000D01*
X141985165Y-103157543D01*
X141925377Y-103026627D01*
X141831128Y-102917857D01*
X141831125Y-102917855D01*
X141831126Y-102917855D01*
X141720529Y-102846779D01*
X141674775Y-102793975D01*
X141664831Y-102724817D01*
X141693856Y-102661261D01*
X141744239Y-102626281D01*
X141752086Y-102623354D01*
X141752093Y-102623350D01*
X141867187Y-102537190D01*
X141867190Y-102537187D01*
X141953350Y-102422093D01*
X141953354Y-102422086D01*
X142003596Y-102287379D01*
X142003598Y-102287372D01*
X142009999Y-102227844D01*
X142010000Y-102227827D01*
X142010000Y-102064822D01*
X142629499Y-102064822D01*
X142638231Y-102108717D01*
X142638234Y-102108724D01*
X142665814Y-102150000D01*
X142671496Y-102158504D01*
X142721278Y-102191767D01*
X142721281Y-102191767D01*
X142721282Y-102191768D01*
X142765177Y-102200500D01*
X142765180Y-102200500D01*
X143816441Y-102200500D01*
X143883480Y-102220185D01*
X143929235Y-102272989D01*
X143939179Y-102342147D01*
X143929235Y-102376012D01*
X143914834Y-102407543D01*
X143899982Y-102510847D01*
X143870957Y-102574403D01*
X143834313Y-102599859D01*
X143835698Y-102602395D01*
X143827914Y-102606645D01*
X143712809Y-102692813D01*
X143626649Y-102807906D01*
X143626645Y-102807913D01*
X143576403Y-102942620D01*
X143576401Y-102942627D01*
X143570000Y-103002155D01*
X143570000Y-103890000D01*
X144820000Y-103890000D01*
X145320000Y-103890000D01*
X146570000Y-103890000D01*
X146570000Y-103002172D01*
X146569999Y-103002155D01*
X147500000Y-103002155D01*
X147500000Y-103890000D01*
X148750000Y-103890000D01*
X149250000Y-103890000D01*
X150500000Y-103890000D01*
X150500000Y-103002172D01*
X150499999Y-103002155D01*
X150493598Y-102942627D01*
X150493596Y-102942620D01*
X150443354Y-102807913D01*
X150443350Y-102807906D01*
X150357190Y-102692812D01*
X150357187Y-102692809D01*
X150242093Y-102606649D01*
X150242086Y-102606645D01*
X150107379Y-102556403D01*
X150107372Y-102556401D01*
X150047844Y-102550000D01*
X149250000Y-102550000D01*
X149250000Y-103890000D01*
X148750000Y-103890000D01*
X148750000Y-102550000D01*
X147952155Y-102550000D01*
X147892627Y-102556401D01*
X147892620Y-102556403D01*
X147757913Y-102606645D01*
X147757906Y-102606649D01*
X147642812Y-102692809D01*
X147642809Y-102692812D01*
X147556649Y-102807906D01*
X147556645Y-102807913D01*
X147506403Y-102942620D01*
X147506401Y-102942627D01*
X147500000Y-103002155D01*
X146569999Y-103002155D01*
X146563598Y-102942627D01*
X146563596Y-102942620D01*
X146513354Y-102807913D01*
X146513350Y-102807906D01*
X146427190Y-102692812D01*
X146427187Y-102692809D01*
X146312093Y-102606649D01*
X146312086Y-102606645D01*
X146177379Y-102556403D01*
X146177372Y-102556401D01*
X146117844Y-102550000D01*
X145320000Y-102550000D01*
X145320000Y-103890000D01*
X144820000Y-103890000D01*
X144820000Y-102862122D01*
X144831206Y-102810610D01*
X144860906Y-102745577D01*
X144885165Y-102692457D01*
X144905647Y-102550000D01*
X144885165Y-102407543D01*
X144870764Y-102376011D01*
X144860821Y-102306853D01*
X144889846Y-102243298D01*
X144948624Y-102205523D01*
X144983559Y-102200500D01*
X146604822Y-102200500D01*
X146648717Y-102191768D01*
X146648717Y-102191767D01*
X146648722Y-102191767D01*
X146698504Y-102158504D01*
X146731767Y-102108722D01*
X146740500Y-102064820D01*
X146740500Y-100005180D01*
X146740500Y-100005177D01*
X146731768Y-99961282D01*
X146731767Y-99961281D01*
X146731767Y-99961278D01*
X146698504Y-99911496D01*
X146680551Y-99899500D01*
X146648724Y-99878234D01*
X146648717Y-99878231D01*
X146604822Y-99869500D01*
X146604820Y-99869500D01*
X142765180Y-99869500D01*
X142765178Y-99869500D01*
X142721282Y-99878231D01*
X142721275Y-99878234D01*
X142671496Y-99911495D01*
X142671495Y-99911496D01*
X142638234Y-99961275D01*
X142638231Y-99961282D01*
X142629500Y-100005177D01*
X142629500Y-100005180D01*
X142629500Y-102064820D01*
X142629500Y-102064822D01*
X142629499Y-102064822D01*
X142010000Y-102064822D01*
X142010000Y-101285000D01*
X141250000Y-101285000D01*
X141250000Y-102680000D01*
X141254254Y-102684254D01*
X141287739Y-102745577D01*
X141282755Y-102815269D01*
X141240883Y-102871202D01*
X141233613Y-102876250D01*
X141168874Y-102917855D01*
X141074623Y-103026626D01*
X141074622Y-103026628D01*
X141014834Y-103157543D01*
X140994353Y-103300000D01*
X137991449Y-103300000D01*
X137985458Y-103290639D01*
X137980501Y-103255928D01*
X137980501Y-103204152D01*
X137980501Y-103204151D01*
X137956653Y-103146579D01*
X137945409Y-103119432D01*
X137880568Y-103054591D01*
X137880566Y-103054590D01*
X137873500Y-103047524D01*
X137873500Y-103047523D01*
X137873496Y-103047520D01*
X137581819Y-102755843D01*
X137548334Y-102694520D01*
X137545500Y-102668162D01*
X137545500Y-102324500D01*
X137565185Y-102257461D01*
X137617989Y-102211706D01*
X137669500Y-102200500D01*
X139234822Y-102200500D01*
X139278717Y-102191768D01*
X139278717Y-102191767D01*
X139278722Y-102191767D01*
X139328504Y-102158504D01*
X139361767Y-102108722D01*
X139370500Y-102064820D01*
X139370500Y-101146012D01*
X139390185Y-101078973D01*
X139442989Y-101033218D01*
X139512147Y-101023274D01*
X139561540Y-101041697D01*
X139589947Y-101059953D01*
X139589948Y-101059953D01*
X139589949Y-101059954D01*
X139728036Y-101100499D01*
X139728038Y-101100500D01*
X139866000Y-101100500D01*
X139933039Y-101120185D01*
X139978794Y-101172989D01*
X139990000Y-101224500D01*
X139990000Y-102227844D01*
X139996401Y-102287372D01*
X139996403Y-102287379D01*
X140046645Y-102422086D01*
X140046649Y-102422093D01*
X140132809Y-102537187D01*
X140132812Y-102537190D01*
X140247906Y-102623350D01*
X140247913Y-102623354D01*
X140382620Y-102673596D01*
X140382627Y-102673598D01*
X140442155Y-102679999D01*
X140442172Y-102680000D01*
X140750000Y-102680000D01*
X140750000Y-100785000D01*
X141250000Y-100785000D01*
X142010000Y-100785000D01*
X142010000Y-99842172D01*
X142009999Y-99842155D01*
X142003598Y-99782627D01*
X142003596Y-99782620D01*
X141953354Y-99647913D01*
X141953350Y-99647906D01*
X141867190Y-99532812D01*
X141867187Y-99532809D01*
X141752093Y-99446649D01*
X141752086Y-99446645D01*
X141617379Y-99396403D01*
X141617372Y-99396401D01*
X141557844Y-99390000D01*
X141250000Y-99390000D01*
X141250000Y-100785000D01*
X140750000Y-100785000D01*
X140750000Y-99390000D01*
X140442155Y-99390000D01*
X140382627Y-99396401D01*
X140382620Y-99396403D01*
X140247913Y-99446645D01*
X140247906Y-99446649D01*
X140132812Y-99532809D01*
X140132809Y-99532812D01*
X140046649Y-99647906D01*
X140046645Y-99647913D01*
X139996403Y-99782620D01*
X139996401Y-99782627D01*
X139990000Y-99842155D01*
X139990000Y-99975500D01*
X139970315Y-100042539D01*
X139917511Y-100088294D01*
X139866000Y-100099500D01*
X139728036Y-100099500D01*
X139589949Y-100140045D01*
X139589947Y-100140046D01*
X139561537Y-100158304D01*
X139494498Y-100177987D01*
X139427459Y-100158301D01*
X139381705Y-100105496D01*
X139370500Y-100053987D01*
X139370500Y-100005177D01*
X139361768Y-99961282D01*
X139361767Y-99961281D01*
X139361767Y-99961278D01*
X139328504Y-99911496D01*
X139310551Y-99899500D01*
X139278724Y-99878234D01*
X139278717Y-99878231D01*
X139234822Y-99869500D01*
X139234820Y-99869500D01*
X135395180Y-99869500D01*
X135395178Y-99869500D01*
X135351282Y-99878231D01*
X135351275Y-99878234D01*
X135301496Y-99911495D01*
X135301495Y-99911496D01*
X135268234Y-99961275D01*
X135268231Y-99961282D01*
X135259500Y-100005177D01*
X135259500Y-100005180D01*
X135259500Y-102064820D01*
X135259500Y-102064822D01*
X135259499Y-102064822D01*
X135268231Y-102108717D01*
X135268234Y-102108724D01*
X135295814Y-102150000D01*
X135301496Y-102158504D01*
X135351278Y-102191767D01*
X135351281Y-102191767D01*
X135351282Y-102191768D01*
X135395177Y-102200500D01*
X135395180Y-102200500D01*
X136960500Y-102200500D01*
X137027539Y-102220185D01*
X137073294Y-102272989D01*
X137084500Y-102324500D01*
X137084500Y-102759147D01*
X137084499Y-102759161D01*
X137084499Y-102860850D01*
X137095160Y-102886587D01*
X137095160Y-102886588D01*
X137110262Y-102923046D01*
X137117732Y-102992515D01*
X137086458Y-103054995D01*
X137026370Y-103090648D01*
X136995702Y-103094500D01*
X134576126Y-103094500D01*
X134562337Y-103095168D01*
X134561083Y-103095229D01*
X134537200Y-103097550D01*
X134480518Y-103114350D01*
X134418523Y-103146580D01*
X134412044Y-103150145D01*
X134355317Y-103207261D01*
X134320612Y-103267846D01*
X134317065Y-103274396D01*
X134317062Y-103274403D01*
X134301573Y-103346797D01*
X134268298Y-103408234D01*
X134267999Y-103408534D01*
X133938353Y-103738181D01*
X133877030Y-103771666D01*
X133850672Y-103774500D01*
X133649324Y-103774500D01*
X133582285Y-103754815D01*
X133561643Y-103738181D01*
X133230976Y-103407514D01*
X133197491Y-103346191D01*
X133195922Y-103337497D01*
X133190582Y-103300358D01*
X133189355Y-103293060D01*
X133189353Y-103293057D01*
X133189353Y-103293054D01*
X133154185Y-103220660D01*
X133154184Y-103220658D01*
X133108431Y-103167856D01*
X133103448Y-103162376D01*
X133034725Y-103120486D01*
X133034719Y-103120483D01*
X132967683Y-103100799D01*
X132967673Y-103100797D01*
X132923874Y-103094500D01*
X132923871Y-103094500D01*
X131854500Y-103094500D01*
X131787461Y-103074815D01*
X131741706Y-103022011D01*
X131730500Y-102970500D01*
X131730500Y-102696655D01*
X131750185Y-102629616D01*
X131787461Y-102592340D01*
X131881123Y-102532146D01*
X131881122Y-102532146D01*
X131881128Y-102532143D01*
X131975377Y-102423373D01*
X132035165Y-102292457D01*
X132055647Y-102150000D01*
X132035165Y-102007543D01*
X131975377Y-101876627D01*
X131881128Y-101767857D01*
X131760053Y-101690047D01*
X131760051Y-101690046D01*
X131760049Y-101690045D01*
X131760050Y-101690045D01*
X131621963Y-101649500D01*
X131621961Y-101649500D01*
X131478039Y-101649500D01*
X131478036Y-101649500D01*
X131339949Y-101690045D01*
X131218873Y-101767856D01*
X131124623Y-101876626D01*
X131124622Y-101876628D01*
X131064834Y-102007543D01*
X131044353Y-102150000D01*
X131064834Y-102292456D01*
X131119048Y-102411166D01*
X131124623Y-102423373D01*
X131218872Y-102532143D01*
X131218874Y-102532144D01*
X131225577Y-102537953D01*
X131223331Y-102540543D01*
X131258265Y-102580811D01*
X131269500Y-102632388D01*
X131269500Y-104075500D01*
X131249815Y-104142539D01*
X131197011Y-104188294D01*
X131145500Y-104199500D01*
X130827791Y-104199500D01*
X130762013Y-104212583D01*
X130762011Y-104212584D01*
X130687423Y-104262423D01*
X130637583Y-104337012D01*
X130630127Y-104374500D01*
X130628153Y-104384426D01*
X130624500Y-104402790D01*
X130624500Y-104597207D01*
X130634105Y-104645500D01*
X130637583Y-104662986D01*
X130649690Y-104681106D01*
X130649692Y-104681108D01*
X130670570Y-104747785D01*
X130652086Y-104815165D01*
X130649693Y-104818889D01*
X130637583Y-104837012D01*
X130624500Y-104902790D01*
X130624500Y-105097207D01*
X130624501Y-105097210D01*
X130637583Y-105162986D01*
X130649690Y-105181106D01*
X130649692Y-105181108D01*
X130670570Y-105247785D01*
X130652086Y-105315165D01*
X130649693Y-105318889D01*
X130637583Y-105337012D01*
X130624500Y-105402790D01*
X130624500Y-105597207D01*
X130637583Y-105662986D01*
X130637584Y-105662987D01*
X130649693Y-105681110D01*
X130670570Y-105747788D01*
X130652085Y-105815168D01*
X130649694Y-105818889D01*
X130637581Y-105837016D01*
X130632908Y-105848300D01*
X130630141Y-105847154D01*
X130606493Y-105892343D01*
X130564740Y-105920781D01*
X130560025Y-105922734D01*
X130560022Y-105922735D01*
X130439905Y-106014905D01*
X130347736Y-106135021D01*
X130289801Y-106274891D01*
X130289800Y-106274896D01*
X130279911Y-106349999D01*
X130279912Y-106350000D01*
X130636934Y-106350000D01*
X130658262Y-106356262D01*
X130667131Y-106351873D01*
X130688603Y-106350000D01*
X131376000Y-106350000D01*
X131443039Y-106369685D01*
X131488794Y-106422489D01*
X131500000Y-106474000D01*
X131500000Y-106520999D01*
X131480315Y-106588038D01*
X131427511Y-106633793D01*
X131376000Y-106644999D01*
X130861121Y-106644999D01*
X130804132Y-106631127D01*
X130790544Y-106624095D01*
X130790532Y-106624090D01*
X130739286Y-106604453D01*
X130739287Y-106604453D01*
X130674798Y-106597229D01*
X130667122Y-106594009D01*
X130654584Y-106596737D01*
X130635534Y-106599476D01*
X130592356Y-106605685D01*
X130585058Y-106606912D01*
X130545150Y-106626299D01*
X130522017Y-106637536D01*
X130467837Y-106650000D01*
X130279912Y-106650000D01*
X130289800Y-106725103D01*
X130291904Y-106732956D01*
X130289322Y-106733647D01*
X130295379Y-106790029D01*
X130264098Y-106852505D01*
X130204005Y-106888151D01*
X130173351Y-106892000D01*
X128325319Y-106892000D01*
X128280951Y-106883790D01*
X128266416Y-106878221D01*
X128252787Y-106872998D01*
X128175014Y-106864285D01*
X128167116Y-106864409D01*
X128167087Y-106862608D01*
X128107725Y-106854073D01*
X128054921Y-106808318D01*
X128035237Y-106741278D01*
X128054922Y-106674239D01*
X128056136Y-106672387D01*
X128062416Y-106662988D01*
X128062416Y-106662987D01*
X128062417Y-106662986D01*
X128075500Y-106597211D01*
X128075499Y-106402790D01*
X128062417Y-106337014D01*
X128062415Y-106337012D01*
X128062415Y-106337010D01*
X128050308Y-106318892D01*
X128029429Y-106252215D01*
X128047913Y-106184835D01*
X128050293Y-106181130D01*
X128062417Y-106162986D01*
X128075500Y-106097211D01*
X128075499Y-105902790D01*
X128062417Y-105837014D01*
X128062415Y-105837012D01*
X128062415Y-105837010D01*
X128050308Y-105818892D01*
X128029429Y-105752215D01*
X128047913Y-105684835D01*
X128050293Y-105681130D01*
X128062417Y-105662986D01*
X128075500Y-105597211D01*
X128075499Y-105402790D01*
X128062417Y-105337014D01*
X128062415Y-105337012D01*
X128062415Y-105337010D01*
X128050308Y-105318892D01*
X128029429Y-105252215D01*
X128047913Y-105184835D01*
X128050308Y-105181108D01*
X128062417Y-105162986D01*
X128075500Y-105097211D01*
X128075499Y-104902790D01*
X128062417Y-104837014D01*
X128062415Y-104837012D01*
X128062415Y-104837010D01*
X128050308Y-104818892D01*
X128029429Y-104752215D01*
X128047913Y-104684835D01*
X128050308Y-104681108D01*
X128062417Y-104662986D01*
X128075500Y-104597211D01*
X128075499Y-104402790D01*
X128062417Y-104337014D01*
X128012577Y-104262423D01*
X127968322Y-104232853D01*
X127937987Y-104212583D01*
X127916061Y-104208222D01*
X127872211Y-104199500D01*
X127872209Y-104199500D01*
X126527791Y-104199500D01*
X126462013Y-104212583D01*
X126462011Y-104212584D01*
X126387423Y-104262423D01*
X126337583Y-104337012D01*
X126330127Y-104374500D01*
X126328153Y-104384426D01*
X126324500Y-104402790D01*
X126324500Y-104597207D01*
X126324501Y-104597210D01*
X126329294Y-104621313D01*
X126323066Y-104690902D01*
X126280202Y-104746079D01*
X126214312Y-104769322D01*
X126207677Y-104769500D01*
X125474477Y-104769500D01*
X125407438Y-104749815D01*
X125361683Y-104697011D01*
X125357436Y-104686456D01*
X125329115Y-104605523D01*
X125250711Y-104499289D01*
X125250710Y-104499288D01*
X125144476Y-104420884D01*
X125019848Y-104377274D01*
X125019849Y-104377274D01*
X124990260Y-104374500D01*
X124990256Y-104374500D01*
X124568259Y-104374500D01*
X124501220Y-104354815D01*
X124455465Y-104302011D01*
X124445521Y-104232853D01*
X124474546Y-104169297D01*
X124512755Y-104139616D01*
X124514183Y-104138901D01*
X124529342Y-104131313D01*
X124582146Y-104085558D01*
X124587621Y-104080580D01*
X124629516Y-104011850D01*
X124649201Y-103944811D01*
X124655500Y-103901000D01*
X124655500Y-103624000D01*
X124651946Y-103590945D01*
X124640740Y-103539434D01*
X124623545Y-103505084D01*
X124606313Y-103470657D01*
X124560563Y-103417860D01*
X124555577Y-103412376D01*
X124486854Y-103370486D01*
X124486848Y-103370483D01*
X124419812Y-103350799D01*
X124419802Y-103350797D01*
X124376003Y-103344500D01*
X124376000Y-103344500D01*
X123365772Y-103344500D01*
X123298733Y-103324815D01*
X123278091Y-103308181D01*
X122512091Y-102542181D01*
X122478606Y-102480858D01*
X122483590Y-102411166D01*
X122525462Y-102355233D01*
X122590926Y-102330816D01*
X122599772Y-102330500D01*
X123524822Y-102330500D01*
X123568717Y-102321768D01*
X123568717Y-102321767D01*
X123568722Y-102321767D01*
X123618504Y-102288504D01*
X123651767Y-102238722D01*
X123653934Y-102227827D01*
X123660500Y-102194822D01*
X123660500Y-102064822D01*
X124629499Y-102064822D01*
X124638231Y-102108717D01*
X124638234Y-102108724D01*
X124665814Y-102150000D01*
X124671496Y-102158504D01*
X124721278Y-102191767D01*
X124721281Y-102191767D01*
X124721282Y-102191768D01*
X124765177Y-102200500D01*
X124765180Y-102200500D01*
X128604822Y-102200500D01*
X128648717Y-102191768D01*
X128648717Y-102191767D01*
X128648722Y-102191767D01*
X128698504Y-102158504D01*
X128731767Y-102108722D01*
X128740500Y-102064820D01*
X128740500Y-100400000D01*
X133894353Y-100400000D01*
X133914834Y-100542456D01*
X133974622Y-100673371D01*
X133974623Y-100673373D01*
X134068872Y-100782143D01*
X134189947Y-100859953D01*
X134189950Y-100859954D01*
X134189949Y-100859954D01*
X134328036Y-100900499D01*
X134328038Y-100900500D01*
X134328039Y-100900500D01*
X134471962Y-100900500D01*
X134471962Y-100900499D01*
X134579121Y-100869035D01*
X134610050Y-100859954D01*
X134610050Y-100859953D01*
X134610053Y-100859953D01*
X134731128Y-100782143D01*
X134825377Y-100673373D01*
X134885165Y-100542457D01*
X134905647Y-100400000D01*
X134885165Y-100257543D01*
X134825377Y-100126627D01*
X134731128Y-100017857D01*
X134610053Y-99940047D01*
X134610051Y-99940046D01*
X134610049Y-99940045D01*
X134610050Y-99940045D01*
X134471963Y-99899500D01*
X134471961Y-99899500D01*
X134328039Y-99899500D01*
X134328036Y-99899500D01*
X134189949Y-99940045D01*
X134068873Y-100017856D01*
X133974623Y-100126626D01*
X133974622Y-100126628D01*
X133914834Y-100257543D01*
X133894353Y-100400000D01*
X128740500Y-100400000D01*
X128740500Y-100005180D01*
X128740500Y-100005177D01*
X128731768Y-99961282D01*
X128731767Y-99961281D01*
X128731767Y-99961278D01*
X128698504Y-99911496D01*
X128680551Y-99899500D01*
X128648724Y-99878234D01*
X128648717Y-99878231D01*
X128604822Y-99869500D01*
X128604820Y-99869500D01*
X124765180Y-99869500D01*
X124765178Y-99869500D01*
X124721282Y-99878231D01*
X124721275Y-99878234D01*
X124671496Y-99911495D01*
X124671495Y-99911496D01*
X124638234Y-99961275D01*
X124638231Y-99961282D01*
X124629500Y-100005177D01*
X124629500Y-100005180D01*
X124629500Y-102064820D01*
X124629500Y-102064822D01*
X124629499Y-102064822D01*
X123660500Y-102064822D01*
X123660500Y-99875177D01*
X123651768Y-99831282D01*
X123651767Y-99831281D01*
X123651767Y-99831278D01*
X123618504Y-99781496D01*
X123618503Y-99781495D01*
X123568724Y-99748234D01*
X123568717Y-99748231D01*
X123524822Y-99739500D01*
X123524820Y-99739500D01*
X122475180Y-99739500D01*
X122475178Y-99739500D01*
X122431282Y-99748231D01*
X122431275Y-99748234D01*
X122381496Y-99781495D01*
X122372860Y-99790132D01*
X122371689Y-99788961D01*
X122328989Y-99824646D01*
X122259664Y-99833353D01*
X122196636Y-99803198D01*
X122159918Y-99743754D01*
X122155500Y-99710950D01*
X122155500Y-98874008D01*
X122155499Y-98873991D01*
X122151946Y-98840945D01*
X122140740Y-98789434D01*
X122123545Y-98755084D01*
X122106313Y-98720657D01*
X122060563Y-98667860D01*
X122055577Y-98662376D01*
X121986854Y-98620486D01*
X121986848Y-98620483D01*
X121919812Y-98600799D01*
X121919802Y-98600797D01*
X121876003Y-98594500D01*
X121876000Y-98594500D01*
X116553523Y-98594500D01*
X116486484Y-98574815D01*
X116440729Y-98522011D01*
X116436077Y-98509540D01*
X116435165Y-98507543D01*
X116375377Y-98376627D01*
X116281128Y-98267857D01*
X116160053Y-98190047D01*
X116160051Y-98190046D01*
X116160049Y-98190045D01*
X116160050Y-98190045D01*
X116021963Y-98149500D01*
X116021961Y-98149500D01*
X115878039Y-98149500D01*
X115878036Y-98149500D01*
X115739949Y-98190045D01*
X115618873Y-98267856D01*
X115524623Y-98376626D01*
X115524622Y-98376628D01*
X115464834Y-98507543D01*
X115444353Y-98650000D01*
X115464834Y-98792456D01*
X115524622Y-98923371D01*
X115524623Y-98923373D01*
X115618872Y-99032143D01*
X115739947Y-99109953D01*
X115739950Y-99109954D01*
X115739949Y-99109954D01*
X115878036Y-99150499D01*
X115878038Y-99150500D01*
X115970500Y-99150500D01*
X116037539Y-99170185D01*
X116083294Y-99222989D01*
X116094500Y-99274500D01*
X116094500Y-105475500D01*
X116074815Y-105542539D01*
X116022011Y-105588294D01*
X115970500Y-105599500D01*
X115828036Y-105599500D01*
X115689949Y-105640045D01*
X115568873Y-105717856D01*
X115568872Y-105717856D01*
X115568872Y-105717857D01*
X115562871Y-105724783D01*
X115474623Y-105826626D01*
X115474622Y-105826628D01*
X115414834Y-105957543D01*
X115394353Y-106100000D01*
X115414834Y-106242456D01*
X115468478Y-106359917D01*
X115474623Y-106373373D01*
X115568872Y-106482143D01*
X115689947Y-106559953D01*
X115689950Y-106559954D01*
X115689949Y-106559954D01*
X115785597Y-106588038D01*
X115805932Y-106594009D01*
X115828036Y-106600499D01*
X115828038Y-106600500D01*
X115970500Y-106600500D01*
X116037539Y-106620185D01*
X116083294Y-106672989D01*
X116094500Y-106724500D01*
X116094500Y-106725500D01*
X116074815Y-106792539D01*
X116022011Y-106838294D01*
X115970500Y-106849500D01*
X112624000Y-106849500D01*
X112556961Y-106829815D01*
X112511206Y-106777011D01*
X112500000Y-106725500D01*
X112500000Y-98000000D01*
X136294353Y-98000000D01*
X136314834Y-98142456D01*
X136372103Y-98267856D01*
X136374623Y-98273373D01*
X136468872Y-98382143D01*
X136589947Y-98459953D01*
X136589950Y-98459954D01*
X136589949Y-98459954D01*
X136728036Y-98500499D01*
X136728038Y-98500500D01*
X136728039Y-98500500D01*
X136871962Y-98500500D01*
X136871962Y-98500499D01*
X137010053Y-98459953D01*
X137131128Y-98382143D01*
X137225377Y-98273373D01*
X137285165Y-98142457D01*
X137305647Y-98000000D01*
X137285165Y-97857543D01*
X137225377Y-97726627D01*
X137131128Y-97617857D01*
X137010053Y-97540047D01*
X137010051Y-97540046D01*
X137010049Y-97540045D01*
X137010050Y-97540045D01*
X136871963Y-97499500D01*
X136871961Y-97499500D01*
X136728039Y-97499500D01*
X136728036Y-97499500D01*
X136589949Y-97540045D01*
X136468873Y-97617856D01*
X136374623Y-97726626D01*
X136374622Y-97726628D01*
X136314834Y-97857543D01*
X136294353Y-98000000D01*
X112500000Y-98000000D01*
X112500000Y-92368545D01*
X112519685Y-92301506D01*
X112572489Y-92255751D01*
X112641647Y-92245807D01*
X112705203Y-92274832D01*
X112742977Y-92333610D01*
X112743775Y-92336452D01*
X112773258Y-92446488D01*
X112773261Y-92446497D01*
X112869431Y-92652732D01*
X112869432Y-92652734D01*
X112999954Y-92839141D01*
X113160858Y-93000045D01*
X113160861Y-93000047D01*
X113347266Y-93130568D01*
X113553504Y-93226739D01*
X113553509Y-93226740D01*
X113553511Y-93226741D01*
X113565010Y-93229822D01*
X113773308Y-93285635D01*
X113935230Y-93299801D01*
X113999998Y-93305468D01*
X114000000Y-93305468D01*
X114000002Y-93305468D01*
X114056673Y-93300509D01*
X114226692Y-93285635D01*
X114446496Y-93226739D01*
X114652734Y-93130568D01*
X114839139Y-93000047D01*
X115000047Y-92839139D01*
X115130568Y-92652734D01*
X115226739Y-92446496D01*
X115285635Y-92226692D01*
X115305468Y-92000000D01*
X115285635Y-91773308D01*
X115226739Y-91553504D01*
X115130568Y-91347266D01*
X115000047Y-91160861D01*
X115000045Y-91160858D01*
X114839141Y-90999954D01*
X114652734Y-90869432D01*
X114652732Y-90869431D01*
X114446497Y-90773261D01*
X114446488Y-90773258D01*
X114336453Y-90743775D01*
X114276792Y-90707410D01*
X114246263Y-90644563D01*
X114254558Y-90575188D01*
X114299043Y-90521310D01*
X114365595Y-90500035D01*
X114368546Y-90500000D01*
X116238224Y-90500000D01*
X116305263Y-90519685D01*
G37*
%TD.AperFunction*%
%TA.AperFunction,Conductor*%
G36*
X140021939Y-106874742D02*
G01*
X140061786Y-106932135D01*
X140066869Y-106953645D01*
X140074224Y-107004808D01*
X140074226Y-107004814D01*
X140082253Y-107032153D01*
X140086697Y-107047286D01*
X140113648Y-107106299D01*
X140123592Y-107175458D01*
X140094567Y-107239013D01*
X140035789Y-107276788D01*
X140014738Y-107281031D01*
X139936160Y-107289884D01*
X139936156Y-107289885D01*
X139768653Y-107348497D01*
X139653184Y-107421052D01*
X139585947Y-107440052D01*
X139519112Y-107419684D01*
X139474423Y-107367582D01*
X139474333Y-107367386D01*
X139472978Y-107364419D01*
X139463030Y-107330541D01*
X139453988Y-107267642D01*
X139453988Y-107232353D01*
X139454352Y-107229821D01*
X139463032Y-107169445D01*
X139472972Y-107135591D01*
X139499377Y-107077771D01*
X139518456Y-107048087D01*
X139560078Y-107000053D01*
X139586739Y-106976950D01*
X139640220Y-106942580D01*
X139672309Y-106927925D01*
X139743176Y-106907117D01*
X139764847Y-106902808D01*
X139777513Y-106901447D01*
X139777515Y-106901446D01*
X139777520Y-106901446D01*
X139829017Y-106890244D01*
X139829017Y-106890243D01*
X139829021Y-106890243D01*
X139888629Y-106860407D01*
X139957388Y-106848003D01*
X140021939Y-106874742D01*
G37*
%TD.AperFunction*%
%TD*%
%TA.AperFunction,Conductor*%
%TO.N,BAT+*%
G36*
X121943039Y-98769685D02*
G01*
X121988794Y-98822489D01*
X122000000Y-98874000D01*
X122000000Y-102250000D01*
X122459814Y-102709814D01*
X123250000Y-103500000D01*
X124376000Y-103500000D01*
X124443039Y-103519685D01*
X124488794Y-103572489D01*
X124500000Y-103624000D01*
X124500000Y-103901000D01*
X124480315Y-103968039D01*
X124427511Y-104013794D01*
X124376000Y-104025000D01*
X124018267Y-104025000D01*
X123886157Y-104039885D01*
X123886156Y-104039885D01*
X123817470Y-104063918D01*
X124500000Y-104746448D01*
X124500000Y-105453549D01*
X123808526Y-106145023D01*
X123806578Y-106176823D01*
X123777642Y-106222356D01*
X122250000Y-107749999D01*
X122250000Y-109101997D01*
X122230315Y-109169036D01*
X122177511Y-109214791D01*
X122108353Y-109224735D01*
X122051689Y-109201263D01*
X121992093Y-109156649D01*
X121992086Y-109156645D01*
X121857379Y-109106403D01*
X121857372Y-109106401D01*
X121797844Y-109100000D01*
X120250000Y-109100000D01*
X120250000Y-109976000D01*
X120230315Y-110043039D01*
X120177511Y-110088794D01*
X120126000Y-110100000D01*
X120000000Y-110100000D01*
X120000000Y-110226000D01*
X119980315Y-110293039D01*
X119927511Y-110338794D01*
X119876000Y-110350000D01*
X117750000Y-110350000D01*
X117750000Y-110450638D01*
X117730315Y-110517677D01*
X117677511Y-110563432D01*
X117608353Y-110573376D01*
X117544797Y-110544351D01*
X117538319Y-110538319D01*
X116552155Y-109552155D01*
X117750000Y-109552155D01*
X117750000Y-109850000D01*
X119750000Y-109850000D01*
X119750000Y-109100000D01*
X118202155Y-109100000D01*
X118142627Y-109106401D01*
X118142620Y-109106403D01*
X118007913Y-109156645D01*
X118007906Y-109156649D01*
X117892812Y-109242809D01*
X117892809Y-109242812D01*
X117806649Y-109357906D01*
X117806645Y-109357913D01*
X117756403Y-109492620D01*
X117756401Y-109492627D01*
X117750000Y-109552155D01*
X116552155Y-109552155D01*
X116286319Y-109286319D01*
X116252834Y-109224996D01*
X116250000Y-109198638D01*
X116250000Y-106506612D01*
X116269685Y-106439573D01*
X116280281Y-106425416D01*
X116325377Y-106373373D01*
X116385165Y-106242457D01*
X116405647Y-106100000D01*
X116385165Y-105957543D01*
X116325377Y-105826627D01*
X116324793Y-105825953D01*
X116280286Y-105774587D01*
X116251262Y-105711031D01*
X116250000Y-105693386D01*
X116250000Y-104768267D01*
X123275000Y-104768267D01*
X123275000Y-105431732D01*
X123289884Y-105563838D01*
X123289887Y-105563851D01*
X123348495Y-105731341D01*
X123412786Y-105833661D01*
X124146448Y-105100000D01*
X123412786Y-104366338D01*
X123412785Y-104366338D01*
X123348495Y-104468656D01*
X123289887Y-104636148D01*
X123289884Y-104636161D01*
X123275000Y-104768267D01*
X116250000Y-104768267D01*
X116250000Y-102097844D01*
X116910000Y-102097844D01*
X116916401Y-102157372D01*
X116916403Y-102157379D01*
X116966645Y-102292086D01*
X116966649Y-102292093D01*
X117052809Y-102407187D01*
X117052812Y-102407190D01*
X117167906Y-102493350D01*
X117167913Y-102493354D01*
X117302620Y-102543596D01*
X117302627Y-102543598D01*
X117362155Y-102549999D01*
X117362172Y-102550000D01*
X119065000Y-102550000D01*
X119565000Y-102550000D01*
X121137836Y-102550000D01*
X121204875Y-102569685D01*
X121250630Y-102622489D01*
X121260574Y-102691647D01*
X121231549Y-102755203D01*
X121219039Y-102767713D01*
X121218872Y-102767857D01*
X121124623Y-102876626D01*
X121124622Y-102876628D01*
X121064834Y-103007543D01*
X121044353Y-103150000D01*
X121064834Y-103292456D01*
X121092533Y-103353107D01*
X121124623Y-103423373D01*
X121218872Y-103532143D01*
X121339947Y-103609953D01*
X121339950Y-103609954D01*
X121339949Y-103609954D01*
X121478036Y-103650499D01*
X121478038Y-103650500D01*
X121478039Y-103650500D01*
X121621962Y-103650500D01*
X121621962Y-103650499D01*
X121729121Y-103619035D01*
X121760050Y-103609954D01*
X121760050Y-103609953D01*
X121760053Y-103609953D01*
X121881128Y-103532143D01*
X121975377Y-103423373D01*
X122035165Y-103292457D01*
X122055647Y-103150000D01*
X122035165Y-103007543D01*
X121975377Y-102876627D01*
X121881128Y-102767857D01*
X121760053Y-102690047D01*
X121760051Y-102690046D01*
X121760049Y-102690045D01*
X121760050Y-102690045D01*
X121621963Y-102649500D01*
X121613184Y-102648238D01*
X121613531Y-102645821D01*
X121559021Y-102629815D01*
X121513266Y-102577011D01*
X121503322Y-102507853D01*
X121532347Y-102444297D01*
X121551748Y-102426234D01*
X121577190Y-102407187D01*
X121663350Y-102292093D01*
X121663354Y-102292086D01*
X121713596Y-102157379D01*
X121713598Y-102157372D01*
X121719999Y-102097844D01*
X121720000Y-102097827D01*
X121720000Y-101285000D01*
X119565000Y-101285000D01*
X119565000Y-102550000D01*
X119065000Y-102550000D01*
X119065000Y-101285000D01*
X116910000Y-101285000D01*
X116910000Y-102097844D01*
X116250000Y-102097844D01*
X116250000Y-99972155D01*
X116910000Y-99972155D01*
X116910000Y-100785000D01*
X119065000Y-100785000D01*
X119565000Y-100785000D01*
X121720000Y-100785000D01*
X121720000Y-99972172D01*
X121719999Y-99972155D01*
X121713598Y-99912627D01*
X121713596Y-99912620D01*
X121663354Y-99777913D01*
X121663350Y-99777906D01*
X121577190Y-99662812D01*
X121577187Y-99662809D01*
X121462093Y-99576649D01*
X121462086Y-99576645D01*
X121327379Y-99526403D01*
X121327372Y-99526401D01*
X121267844Y-99520000D01*
X119565000Y-99520000D01*
X119565000Y-100785000D01*
X119065000Y-100785000D01*
X119065000Y-99520000D01*
X117362155Y-99520000D01*
X117302627Y-99526401D01*
X117302620Y-99526403D01*
X117167913Y-99576645D01*
X117167906Y-99576649D01*
X117052812Y-99662809D01*
X117052809Y-99662812D01*
X116966649Y-99777906D01*
X116966645Y-99777913D01*
X116916403Y-99912620D01*
X116916401Y-99912627D01*
X116910000Y-99972155D01*
X116250000Y-99972155D01*
X116250000Y-99114315D01*
X116269685Y-99047276D01*
X116280287Y-99033112D01*
X116281124Y-99032144D01*
X116281128Y-99032143D01*
X116375377Y-98923373D01*
X116421450Y-98822487D01*
X116467205Y-98769684D01*
X116534244Y-98750000D01*
X121876000Y-98750000D01*
X121943039Y-98769685D01*
G37*
%TD.AperFunction*%
%TD*%
M02*
