%TF.GenerationSoftware,KiCad,Pcbnew,8.0.8*%
%TF.CreationDate,2025-05-28T15:29:29-04:00*%
%TF.ProjectId,GF24,47463234-2e6b-4696-9361-645f70636258,rev?*%
%TF.SameCoordinates,Original*%
%TF.FileFunction,Legend,Top*%
%TF.FilePolarity,Positive*%
%FSLAX46Y46*%
G04 Gerber Fmt 4.6, Leading zero omitted, Abs format (unit mm)*
G04 Created by KiCad (PCBNEW 8.0.8) date 2025-05-28 15:29:29*
%MOMM*%
%LPD*%
G01*
G04 APERTURE LIST*
%ADD10C,0.150000*%
%ADD11C,0.100000*%
%ADD12C,0.120000*%
%ADD13C,0.200000*%
%ADD14C,0.250000*%
G04 APERTURE END LIST*
D10*
X79799693Y-78708830D02*
X79799693Y-78776174D01*
X79799693Y-78776174D02*
X79732349Y-78910861D01*
X79732349Y-78910861D02*
X79665006Y-78978204D01*
X79665006Y-78978204D02*
X79530319Y-79045548D01*
X79530319Y-79045548D02*
X79395632Y-79045548D01*
X79395632Y-79045548D02*
X79294617Y-79011876D01*
X79294617Y-79011876D02*
X79126258Y-78910861D01*
X79126258Y-78910861D02*
X79025243Y-78809846D01*
X79025243Y-78809846D02*
X78924227Y-78641487D01*
X78924227Y-78641487D02*
X78890556Y-78540472D01*
X78890556Y-78540472D02*
X78890556Y-78405785D01*
X78890556Y-78405785D02*
X78957899Y-78271098D01*
X78957899Y-78271098D02*
X79025243Y-78203754D01*
X79025243Y-78203754D02*
X79159930Y-78136411D01*
X79159930Y-78136411D02*
X79227273Y-78136411D01*
X80540471Y-78102739D02*
X80136410Y-78506800D01*
X80338441Y-78304769D02*
X79631334Y-77597663D01*
X79631334Y-77597663D02*
X79665006Y-77766021D01*
X79665006Y-77766021D02*
X79665006Y-77900708D01*
X79665006Y-77900708D02*
X79631334Y-78001724D01*
X81213907Y-77429304D02*
X80809846Y-77833365D01*
X81011876Y-77631334D02*
X80304769Y-76924227D01*
X80304769Y-76924227D02*
X80338441Y-77092586D01*
X80338441Y-77092586D02*
X80338441Y-77227273D01*
X80338441Y-77227273D02*
X80304769Y-77328288D01*
D11*
G36*
X60708477Y-79546130D02*
G01*
X60744621Y-79582275D01*
X60783333Y-79659698D01*
X60783333Y-79778948D01*
X60744621Y-79856371D01*
X60708477Y-79892516D01*
X60631054Y-79931228D01*
X60311905Y-79931228D01*
X60311905Y-79507419D01*
X60631054Y-79507419D01*
X60708477Y-79546130D01*
G37*
G36*
X61946825Y-80618530D02*
G01*
X60100794Y-80618530D01*
X60100794Y-79457419D01*
X60211905Y-79457419D01*
X60211905Y-80457419D01*
X60215711Y-80476553D01*
X60242771Y-80503613D01*
X60281039Y-80503613D01*
X60308099Y-80476553D01*
X60311905Y-80457419D01*
X60311905Y-80031228D01*
X60473967Y-80031228D01*
X60792371Y-80486092D01*
X60806462Y-80499585D01*
X60844148Y-80506235D01*
X60875499Y-80484290D01*
X60882149Y-80446604D01*
X60878490Y-80438285D01*
X61120473Y-80438285D01*
X61120473Y-80476553D01*
X61147533Y-80503613D01*
X61166667Y-80507419D01*
X61785714Y-80507419D01*
X61804848Y-80503613D01*
X61831908Y-80476553D01*
X61831908Y-80438285D01*
X61804848Y-80411225D01*
X61785714Y-80407419D01*
X61287377Y-80407419D01*
X61773450Y-79921345D01*
X61774840Y-79919263D01*
X61775868Y-79918750D01*
X61779838Y-79911784D01*
X61784289Y-79905124D01*
X61784289Y-79903976D01*
X61785529Y-79901801D01*
X61833148Y-79758945D01*
X61834150Y-79750994D01*
X61835714Y-79743133D01*
X61835714Y-79647895D01*
X61835225Y-79645438D01*
X61835588Y-79644350D01*
X61833471Y-79636622D01*
X61831908Y-79628761D01*
X61831096Y-79627949D01*
X61830435Y-79625534D01*
X61782816Y-79530296D01*
X61777904Y-79523967D01*
X61773450Y-79517301D01*
X61725831Y-79469683D01*
X61719169Y-79465231D01*
X61712836Y-79460316D01*
X61617599Y-79412698D01*
X61615183Y-79412036D01*
X61614372Y-79411225D01*
X61606510Y-79409661D01*
X61598783Y-79407545D01*
X61597694Y-79407907D01*
X61595238Y-79407419D01*
X61357143Y-79407419D01*
X61354686Y-79407907D01*
X61353598Y-79407545D01*
X61345870Y-79409661D01*
X61338009Y-79411225D01*
X61337197Y-79412036D01*
X61334782Y-79412698D01*
X61239544Y-79460317D01*
X61233215Y-79465228D01*
X61226549Y-79469683D01*
X61178931Y-79517302D01*
X61168092Y-79533523D01*
X61168092Y-79571791D01*
X61195152Y-79598851D01*
X61233420Y-79598851D01*
X61249641Y-79588012D01*
X61291523Y-79546130D01*
X61368947Y-79507419D01*
X61583435Y-79507419D01*
X61660858Y-79546130D01*
X61697002Y-79582275D01*
X61735714Y-79659698D01*
X61735714Y-79735020D01*
X61694393Y-79858981D01*
X61131312Y-80422064D01*
X61120473Y-80438285D01*
X60878490Y-80438285D01*
X60874295Y-80428746D01*
X60596033Y-80031228D01*
X60642857Y-80031228D01*
X60645313Y-80030739D01*
X60646402Y-80031102D01*
X60654129Y-80028985D01*
X60661991Y-80027422D01*
X60662802Y-80026610D01*
X60665218Y-80025949D01*
X60760455Y-79978331D01*
X60766788Y-79973415D01*
X60773450Y-79968964D01*
X60821069Y-79921346D01*
X60825523Y-79914679D01*
X60830435Y-79908351D01*
X60878054Y-79813113D01*
X60878715Y-79810697D01*
X60879527Y-79809886D01*
X60881090Y-79802024D01*
X60883207Y-79794297D01*
X60882844Y-79793208D01*
X60883333Y-79790752D01*
X60883333Y-79647895D01*
X60882844Y-79645438D01*
X60883207Y-79644350D01*
X60881090Y-79636622D01*
X60879527Y-79628761D01*
X60878715Y-79627949D01*
X60878054Y-79625534D01*
X60830435Y-79530296D01*
X60825523Y-79523967D01*
X60821069Y-79517301D01*
X60773450Y-79469683D01*
X60766788Y-79465231D01*
X60760455Y-79460316D01*
X60665218Y-79412698D01*
X60662802Y-79412036D01*
X60661991Y-79411225D01*
X60654129Y-79409661D01*
X60646402Y-79407545D01*
X60645313Y-79407907D01*
X60642857Y-79407419D01*
X60261905Y-79407419D01*
X60242771Y-79411225D01*
X60215711Y-79438285D01*
X60211905Y-79457419D01*
X60100794Y-79457419D01*
X60100794Y-79296308D01*
X61946825Y-79296308D01*
X61946825Y-80618530D01*
G37*
D10*
X51666667Y-63207200D02*
X51809524Y-63254819D01*
X51809524Y-63254819D02*
X52047619Y-63254819D01*
X52047619Y-63254819D02*
X52142857Y-63207200D01*
X52142857Y-63207200D02*
X52190476Y-63159580D01*
X52190476Y-63159580D02*
X52238095Y-63064342D01*
X52238095Y-63064342D02*
X52238095Y-62969104D01*
X52238095Y-62969104D02*
X52190476Y-62873866D01*
X52190476Y-62873866D02*
X52142857Y-62826247D01*
X52142857Y-62826247D02*
X52047619Y-62778628D01*
X52047619Y-62778628D02*
X51857143Y-62731009D01*
X51857143Y-62731009D02*
X51761905Y-62683390D01*
X51761905Y-62683390D02*
X51714286Y-62635771D01*
X51714286Y-62635771D02*
X51666667Y-62540533D01*
X51666667Y-62540533D02*
X51666667Y-62445295D01*
X51666667Y-62445295D02*
X51714286Y-62350057D01*
X51714286Y-62350057D02*
X51761905Y-62302438D01*
X51761905Y-62302438D02*
X51857143Y-62254819D01*
X51857143Y-62254819D02*
X52095238Y-62254819D01*
X52095238Y-62254819D02*
X52238095Y-62302438D01*
X52571429Y-62254819D02*
X52809524Y-63254819D01*
X52809524Y-63254819D02*
X53000000Y-62540533D01*
X53000000Y-62540533D02*
X53190476Y-63254819D01*
X53190476Y-63254819D02*
X53428572Y-62254819D01*
X53714286Y-62254819D02*
X54333333Y-62254819D01*
X54333333Y-62254819D02*
X54000000Y-62635771D01*
X54000000Y-62635771D02*
X54142857Y-62635771D01*
X54142857Y-62635771D02*
X54238095Y-62683390D01*
X54238095Y-62683390D02*
X54285714Y-62731009D01*
X54285714Y-62731009D02*
X54333333Y-62826247D01*
X54333333Y-62826247D02*
X54333333Y-63064342D01*
X54333333Y-63064342D02*
X54285714Y-63159580D01*
X54285714Y-63159580D02*
X54238095Y-63207200D01*
X54238095Y-63207200D02*
X54142857Y-63254819D01*
X54142857Y-63254819D02*
X53857143Y-63254819D01*
X53857143Y-63254819D02*
X53761905Y-63207200D01*
X53761905Y-63207200D02*
X53714286Y-63159580D01*
D11*
X89090199Y-89666667D02*
X89042579Y-89809524D01*
X89042579Y-89809524D02*
X89042579Y-90047619D01*
X89042579Y-90047619D02*
X89090199Y-90142857D01*
X89090199Y-90142857D02*
X89137818Y-90190476D01*
X89137818Y-90190476D02*
X89233056Y-90238095D01*
X89233056Y-90238095D02*
X89328294Y-90238095D01*
X89328294Y-90238095D02*
X89423532Y-90190476D01*
X89423532Y-90190476D02*
X89471151Y-90142857D01*
X89471151Y-90142857D02*
X89518770Y-90047619D01*
X89518770Y-90047619D02*
X89566389Y-89857143D01*
X89566389Y-89857143D02*
X89614008Y-89761905D01*
X89614008Y-89761905D02*
X89661627Y-89714286D01*
X89661627Y-89714286D02*
X89756865Y-89666667D01*
X89756865Y-89666667D02*
X89852103Y-89666667D01*
X89852103Y-89666667D02*
X89947341Y-89714286D01*
X89947341Y-89714286D02*
X89994960Y-89761905D01*
X89994960Y-89761905D02*
X90042579Y-89857143D01*
X90042579Y-89857143D02*
X90042579Y-90095238D01*
X90042579Y-90095238D02*
X89994960Y-90238095D01*
X90042579Y-90571429D02*
X89042579Y-90809524D01*
X89042579Y-90809524D02*
X89756865Y-91000000D01*
X89756865Y-91000000D02*
X89042579Y-91190476D01*
X89042579Y-91190476D02*
X90042579Y-91428572D01*
X89042579Y-92333333D02*
X89042579Y-91761905D01*
X89042579Y-92047619D02*
X90042579Y-92047619D01*
X90042579Y-92047619D02*
X89899722Y-91952381D01*
X89899722Y-91952381D02*
X89804484Y-91857143D01*
X89804484Y-91857143D02*
X89756865Y-91761905D01*
G36*
X51618530Y-77994443D02*
G01*
X50296308Y-77994443D01*
X50296308Y-77404761D01*
X50407419Y-77404761D01*
X50407419Y-77642856D01*
X50407907Y-77645312D01*
X50407545Y-77646401D01*
X50409661Y-77654128D01*
X50411225Y-77661990D01*
X50412036Y-77662801D01*
X50412698Y-77665217D01*
X50460316Y-77760454D01*
X50465231Y-77766787D01*
X50469683Y-77773449D01*
X50517301Y-77821068D01*
X50523967Y-77825522D01*
X50530296Y-77830434D01*
X50625534Y-77878053D01*
X50627949Y-77878714D01*
X50628761Y-77879526D01*
X50636622Y-77881089D01*
X50644350Y-77883206D01*
X50645438Y-77882843D01*
X50647895Y-77883332D01*
X50743133Y-77883332D01*
X50745589Y-77882843D01*
X50746678Y-77883206D01*
X50754405Y-77881089D01*
X50762267Y-77879526D01*
X50763078Y-77878714D01*
X50765494Y-77878053D01*
X50860731Y-77830435D01*
X50867064Y-77825519D01*
X50873726Y-77821068D01*
X50921345Y-77773450D01*
X50925799Y-77766783D01*
X50930711Y-77760455D01*
X50978330Y-77665217D01*
X50979776Y-77659935D01*
X50982116Y-77654983D01*
X51028404Y-77469831D01*
X51069939Y-77386759D01*
X51106084Y-77350615D01*
X51183508Y-77311904D01*
X51255139Y-77311904D01*
X51332561Y-77350615D01*
X51368708Y-77386761D01*
X51407419Y-77464183D01*
X51407419Y-77682362D01*
X51362366Y-77817521D01*
X51359926Y-77836876D01*
X51377040Y-77871105D01*
X51413344Y-77883206D01*
X51447573Y-77866092D01*
X51457234Y-77849143D01*
X51504853Y-77706287D01*
X51505855Y-77698336D01*
X51507419Y-77690475D01*
X51507419Y-77452380D01*
X51506930Y-77449923D01*
X51507293Y-77448835D01*
X51505176Y-77441107D01*
X51503613Y-77433246D01*
X51502801Y-77432434D01*
X51502140Y-77430019D01*
X51454521Y-77334781D01*
X51449609Y-77328452D01*
X51445155Y-77321786D01*
X51397535Y-77274167D01*
X51390868Y-77269712D01*
X51384540Y-77264801D01*
X51289303Y-77217183D01*
X51286887Y-77216521D01*
X51286076Y-77215710D01*
X51278214Y-77214146D01*
X51270487Y-77212030D01*
X51269398Y-77212392D01*
X51266942Y-77211904D01*
X51171704Y-77211904D01*
X51169247Y-77212392D01*
X51168159Y-77212030D01*
X51160431Y-77214146D01*
X51152570Y-77215710D01*
X51151758Y-77216521D01*
X51149343Y-77217183D01*
X51054105Y-77264802D01*
X51047776Y-77269713D01*
X51041110Y-77274168D01*
X50993492Y-77321787D01*
X50989040Y-77328448D01*
X50984125Y-77334782D01*
X50936507Y-77430019D01*
X50935060Y-77435300D01*
X50932721Y-77440253D01*
X50886433Y-77625403D01*
X50844897Y-77708475D01*
X50808753Y-77744620D01*
X50731330Y-77783332D01*
X50659699Y-77783332D01*
X50582275Y-77744620D01*
X50546130Y-77708476D01*
X50507419Y-77631053D01*
X50507419Y-77412874D01*
X50552472Y-77277716D01*
X50554912Y-77258360D01*
X50537798Y-77224132D01*
X50501494Y-77212030D01*
X50467265Y-77229145D01*
X50457604Y-77246093D01*
X50409985Y-77388950D01*
X50408982Y-77396898D01*
X50407419Y-77404761D01*
X50296308Y-77404761D01*
X50296308Y-76079342D01*
X50408049Y-76079342D01*
X50428106Y-76111934D01*
X50445838Y-76120068D01*
X51253075Y-76312267D01*
X50730250Y-76451687D01*
X50712743Y-76460295D01*
X50709327Y-76466193D01*
X50703429Y-76469609D01*
X50700080Y-76482167D01*
X50693569Y-76493414D01*
X50695325Y-76499999D01*
X50693569Y-76506584D01*
X50700080Y-76517830D01*
X50703429Y-76530389D01*
X50709327Y-76533804D01*
X50712743Y-76539703D01*
X50730250Y-76548311D01*
X51253075Y-76687730D01*
X50445838Y-76879930D01*
X50428106Y-76888064D01*
X50408049Y-76920656D01*
X50416913Y-76957883D01*
X50449505Y-76977940D01*
X50469000Y-76977210D01*
X51469000Y-76739115D01*
X51486732Y-76730981D01*
X51490651Y-76724611D01*
X51497123Y-76720865D01*
X51500308Y-76708918D01*
X51506789Y-76698389D01*
X51505057Y-76691115D01*
X51506984Y-76683890D01*
X51500788Y-76673188D01*
X51497925Y-76661162D01*
X51491557Y-76657243D01*
X51487810Y-76650771D01*
X51470302Y-76642163D01*
X50937186Y-76499999D01*
X51470302Y-76357835D01*
X51487810Y-76349227D01*
X51491557Y-76342754D01*
X51497925Y-76338836D01*
X51500788Y-76326809D01*
X51506984Y-76316108D01*
X51505057Y-76308882D01*
X51506789Y-76301609D01*
X51500308Y-76291079D01*
X51497123Y-76279133D01*
X51490651Y-76275386D01*
X51486732Y-76269017D01*
X51469000Y-76260883D01*
X50469000Y-76022788D01*
X50449505Y-76022058D01*
X50416913Y-76042115D01*
X50408049Y-76079342D01*
X50296308Y-76079342D01*
X50296308Y-75357142D01*
X50407419Y-75357142D01*
X50407419Y-75595237D01*
X50407907Y-75597693D01*
X50407545Y-75598782D01*
X50409661Y-75606509D01*
X50411225Y-75614371D01*
X50412036Y-75615182D01*
X50412698Y-75617598D01*
X50460316Y-75712835D01*
X50465231Y-75719168D01*
X50469683Y-75725830D01*
X50517301Y-75773449D01*
X50533522Y-75784288D01*
X50571791Y-75784288D01*
X50598851Y-75757228D01*
X50598851Y-75718959D01*
X50588012Y-75702738D01*
X50546130Y-75660857D01*
X50507419Y-75583434D01*
X50507419Y-75368945D01*
X50546130Y-75291521D01*
X50582275Y-75255377D01*
X50659699Y-75216666D01*
X50735020Y-75216666D01*
X50858981Y-75257986D01*
X51422064Y-75821068D01*
X51438285Y-75831907D01*
X51476553Y-75831907D01*
X51503613Y-75804847D01*
X51507419Y-75785713D01*
X51507419Y-75166666D01*
X51503613Y-75147532D01*
X51476553Y-75120472D01*
X51438285Y-75120472D01*
X51411225Y-75147532D01*
X51407419Y-75166666D01*
X51407419Y-75665003D01*
X50921345Y-75178930D01*
X50919262Y-75177538D01*
X50918749Y-75176512D01*
X50911788Y-75172544D01*
X50905124Y-75168091D01*
X50903976Y-75168091D01*
X50901801Y-75166851D01*
X50758944Y-75119232D01*
X50750995Y-75118229D01*
X50743133Y-75116666D01*
X50647895Y-75116666D01*
X50645438Y-75117154D01*
X50644350Y-75116792D01*
X50636622Y-75118908D01*
X50628761Y-75120472D01*
X50627949Y-75121283D01*
X50625534Y-75121945D01*
X50530296Y-75169564D01*
X50523967Y-75174475D01*
X50517301Y-75178930D01*
X50469683Y-75226549D01*
X50465231Y-75233210D01*
X50460316Y-75239544D01*
X50412698Y-75334781D01*
X50412036Y-75337196D01*
X50411225Y-75338008D01*
X50409661Y-75345869D01*
X50407545Y-75353597D01*
X50407907Y-75354685D01*
X50407419Y-75357142D01*
X50296308Y-75357142D01*
X50296308Y-75005555D01*
X51618530Y-75005555D01*
X51618530Y-77994443D01*
G37*
D10*
X79815826Y-64948472D02*
X79748482Y-64948472D01*
X79748482Y-64948472D02*
X79613795Y-64881128D01*
X79613795Y-64881128D02*
X79546452Y-64813785D01*
X79546452Y-64813785D02*
X79479108Y-64679098D01*
X79479108Y-64679098D02*
X79479108Y-64544411D01*
X79479108Y-64544411D02*
X79512780Y-64443396D01*
X79512780Y-64443396D02*
X79613795Y-64275037D01*
X79613795Y-64275037D02*
X79714810Y-64174022D01*
X79714810Y-64174022D02*
X79883169Y-64073006D01*
X79883169Y-64073006D02*
X79984184Y-64039335D01*
X79984184Y-64039335D02*
X80118871Y-64039335D01*
X80118871Y-64039335D02*
X80253558Y-64106678D01*
X80253558Y-64106678D02*
X80320902Y-64174022D01*
X80320902Y-64174022D02*
X80388245Y-64308709D01*
X80388245Y-64308709D02*
X80388245Y-64376052D01*
X80085200Y-65352533D02*
X80219887Y-65487220D01*
X80219887Y-65487220D02*
X80320902Y-65520892D01*
X80320902Y-65520892D02*
X80388245Y-65520892D01*
X80388245Y-65520892D02*
X80556604Y-65487220D01*
X80556604Y-65487220D02*
X80724963Y-65386205D01*
X80724963Y-65386205D02*
X80994337Y-65116831D01*
X80994337Y-65116831D02*
X81028009Y-65015815D01*
X81028009Y-65015815D02*
X81028009Y-64948472D01*
X81028009Y-64948472D02*
X80994337Y-64847457D01*
X80994337Y-64847457D02*
X80859650Y-64712770D01*
X80859650Y-64712770D02*
X80758635Y-64679098D01*
X80758635Y-64679098D02*
X80691291Y-64679098D01*
X80691291Y-64679098D02*
X80590276Y-64712770D01*
X80590276Y-64712770D02*
X80421917Y-64881128D01*
X80421917Y-64881128D02*
X80388245Y-64982144D01*
X80388245Y-64982144D02*
X80388245Y-65049487D01*
X80388245Y-65049487D02*
X80421917Y-65150502D01*
X80421917Y-65150502D02*
X80556604Y-65285189D01*
X80556604Y-65285189D02*
X80657619Y-65318861D01*
X80657619Y-65318861D02*
X80724963Y-65318861D01*
X80724963Y-65318861D02*
X80825978Y-65285189D01*
X86833333Y-63429580D02*
X86785714Y-63477200D01*
X86785714Y-63477200D02*
X86642857Y-63524819D01*
X86642857Y-63524819D02*
X86547619Y-63524819D01*
X86547619Y-63524819D02*
X86404762Y-63477200D01*
X86404762Y-63477200D02*
X86309524Y-63381961D01*
X86309524Y-63381961D02*
X86261905Y-63286723D01*
X86261905Y-63286723D02*
X86214286Y-63096247D01*
X86214286Y-63096247D02*
X86214286Y-62953390D01*
X86214286Y-62953390D02*
X86261905Y-62762914D01*
X86261905Y-62762914D02*
X86309524Y-62667676D01*
X86309524Y-62667676D02*
X86404762Y-62572438D01*
X86404762Y-62572438D02*
X86547619Y-62524819D01*
X86547619Y-62524819D02*
X86642857Y-62524819D01*
X86642857Y-62524819D02*
X86785714Y-62572438D01*
X86785714Y-62572438D02*
X86833333Y-62620057D01*
X87690476Y-62524819D02*
X87500000Y-62524819D01*
X87500000Y-62524819D02*
X87404762Y-62572438D01*
X87404762Y-62572438D02*
X87357143Y-62620057D01*
X87357143Y-62620057D02*
X87261905Y-62762914D01*
X87261905Y-62762914D02*
X87214286Y-62953390D01*
X87214286Y-62953390D02*
X87214286Y-63334342D01*
X87214286Y-63334342D02*
X87261905Y-63429580D01*
X87261905Y-63429580D02*
X87309524Y-63477200D01*
X87309524Y-63477200D02*
X87404762Y-63524819D01*
X87404762Y-63524819D02*
X87595238Y-63524819D01*
X87595238Y-63524819D02*
X87690476Y-63477200D01*
X87690476Y-63477200D02*
X87738095Y-63429580D01*
X87738095Y-63429580D02*
X87785714Y-63334342D01*
X87785714Y-63334342D02*
X87785714Y-63096247D01*
X87785714Y-63096247D02*
X87738095Y-63001009D01*
X87738095Y-63001009D02*
X87690476Y-62953390D01*
X87690476Y-62953390D02*
X87595238Y-62905771D01*
X87595238Y-62905771D02*
X87404762Y-62905771D01*
X87404762Y-62905771D02*
X87309524Y-62953390D01*
X87309524Y-62953390D02*
X87261905Y-63001009D01*
X87261905Y-63001009D02*
X87214286Y-63096247D01*
D11*
G36*
X80356372Y-68755377D02*
G01*
X80392516Y-68791522D01*
X80431228Y-68868945D01*
X80431228Y-69188094D01*
X80007419Y-69188094D01*
X80007419Y-68868945D01*
X80046130Y-68791521D01*
X80082275Y-68755377D01*
X80159699Y-68716666D01*
X80278949Y-68716666D01*
X80356372Y-68755377D01*
G37*
G36*
X81118526Y-69399205D02*
G01*
X79796308Y-69399205D01*
X79796308Y-68857142D01*
X79907419Y-68857142D01*
X79907419Y-69238094D01*
X79911225Y-69257228D01*
X79938285Y-69284288D01*
X79957419Y-69288094D01*
X80957419Y-69288094D01*
X80976553Y-69284288D01*
X81003613Y-69257228D01*
X81003613Y-69218960D01*
X80976553Y-69191900D01*
X80957419Y-69188094D01*
X80531228Y-69188094D01*
X80531228Y-69026032D01*
X80986092Y-68707628D01*
X80999585Y-68693537D01*
X81006235Y-68655851D01*
X80984290Y-68624500D01*
X80946604Y-68617850D01*
X80928746Y-68625704D01*
X80531228Y-68903966D01*
X80531228Y-68857142D01*
X80530739Y-68854685D01*
X80531102Y-68853597D01*
X80528985Y-68845869D01*
X80527422Y-68838008D01*
X80526610Y-68837196D01*
X80525949Y-68834781D01*
X80478330Y-68739543D01*
X80473418Y-68733214D01*
X80468964Y-68726548D01*
X80421345Y-68678930D01*
X80414683Y-68674478D01*
X80408350Y-68669563D01*
X80313113Y-68621945D01*
X80310697Y-68621283D01*
X80309886Y-68620472D01*
X80302024Y-68618908D01*
X80294297Y-68616792D01*
X80293208Y-68617154D01*
X80290752Y-68616666D01*
X80147895Y-68616666D01*
X80145438Y-68617154D01*
X80144350Y-68616792D01*
X80136622Y-68618908D01*
X80128761Y-68620472D01*
X80127949Y-68621283D01*
X80125534Y-68621945D01*
X80030296Y-68669564D01*
X80023967Y-68674475D01*
X80017301Y-68678930D01*
X79969683Y-68726549D01*
X79965231Y-68733210D01*
X79960316Y-68739544D01*
X79912698Y-68834781D01*
X79912036Y-68837196D01*
X79911225Y-68838008D01*
X79909661Y-68845869D01*
X79907545Y-68853597D01*
X79907907Y-68854685D01*
X79907419Y-68857142D01*
X79796308Y-68857142D01*
X79796308Y-67666666D01*
X79907419Y-67666666D01*
X79907419Y-68333332D01*
X79911225Y-68352466D01*
X79938285Y-68379526D01*
X79976553Y-68379526D01*
X80003613Y-68352466D01*
X80007419Y-68333332D01*
X80007419Y-67742492D01*
X80937723Y-68141194D01*
X80956809Y-68145233D01*
X80992340Y-68131020D01*
X81007415Y-68095847D01*
X80993202Y-68060315D01*
X80977115Y-68049280D01*
X79977115Y-67620709D01*
X79976702Y-67620621D01*
X79976553Y-67620472D01*
X79975995Y-67620472D01*
X79958029Y-67616670D01*
X79948523Y-67620472D01*
X79938285Y-67620472D01*
X79931459Y-67627297D01*
X79922497Y-67630882D01*
X79918463Y-67640293D01*
X79911225Y-67647532D01*
X79907641Y-67665545D01*
X79907423Y-67666056D01*
X79907501Y-67666251D01*
X79907419Y-67666666D01*
X79796308Y-67666666D01*
X79796308Y-67505559D01*
X81118526Y-67505559D01*
X81118526Y-69399205D01*
G37*
D10*
X84333333Y-65909581D02*
X84285714Y-65957201D01*
X84285714Y-65957201D02*
X84142857Y-66004820D01*
X84142857Y-66004820D02*
X84047619Y-66004820D01*
X84047619Y-66004820D02*
X83904762Y-65957201D01*
X83904762Y-65957201D02*
X83809524Y-65861962D01*
X83809524Y-65861962D02*
X83761905Y-65766724D01*
X83761905Y-65766724D02*
X83714286Y-65576248D01*
X83714286Y-65576248D02*
X83714286Y-65433391D01*
X83714286Y-65433391D02*
X83761905Y-65242915D01*
X83761905Y-65242915D02*
X83809524Y-65147677D01*
X83809524Y-65147677D02*
X83904762Y-65052439D01*
X83904762Y-65052439D02*
X84047619Y-65004820D01*
X84047619Y-65004820D02*
X84142857Y-65004820D01*
X84142857Y-65004820D02*
X84285714Y-65052439D01*
X84285714Y-65052439D02*
X84333333Y-65100058D01*
X85190476Y-65338153D02*
X85190476Y-66004820D01*
X84952381Y-64957201D02*
X84714286Y-65671486D01*
X84714286Y-65671486D02*
X85333333Y-65671486D01*
D11*
G36*
X73356372Y-62255377D02*
G01*
X73392516Y-62291522D01*
X73431228Y-62368945D01*
X73431228Y-62688094D01*
X73007419Y-62688094D01*
X73007419Y-62368945D01*
X73046130Y-62291521D01*
X73082275Y-62255377D01*
X73159699Y-62216666D01*
X73278949Y-62216666D01*
X73356372Y-62255377D01*
G37*
G36*
X74118530Y-62899205D02*
G01*
X72796308Y-62899205D01*
X72796308Y-62357142D01*
X72907419Y-62357142D01*
X72907419Y-62738094D01*
X72911225Y-62757228D01*
X72938285Y-62784288D01*
X72957419Y-62788094D01*
X73957419Y-62788094D01*
X73976553Y-62784288D01*
X74003613Y-62757228D01*
X74003613Y-62718960D01*
X73976553Y-62691900D01*
X73957419Y-62688094D01*
X73531228Y-62688094D01*
X73531228Y-62526032D01*
X73986092Y-62207628D01*
X73999585Y-62193537D01*
X74006235Y-62155851D01*
X73984290Y-62124500D01*
X73946604Y-62117850D01*
X73928746Y-62125704D01*
X73531228Y-62403966D01*
X73531228Y-62357142D01*
X73530739Y-62354685D01*
X73531102Y-62353597D01*
X73528985Y-62345869D01*
X73527422Y-62338008D01*
X73526610Y-62337196D01*
X73525949Y-62334781D01*
X73478330Y-62239543D01*
X73473418Y-62233214D01*
X73468964Y-62226548D01*
X73421345Y-62178930D01*
X73414683Y-62174478D01*
X73408350Y-62169563D01*
X73313113Y-62121945D01*
X73310697Y-62121283D01*
X73309886Y-62120472D01*
X73302024Y-62118908D01*
X73294297Y-62116792D01*
X73293208Y-62117154D01*
X73290752Y-62116666D01*
X73147895Y-62116666D01*
X73145438Y-62117154D01*
X73144350Y-62116792D01*
X73136622Y-62118908D01*
X73128761Y-62120472D01*
X73127949Y-62121283D01*
X73125534Y-62121945D01*
X73030296Y-62169564D01*
X73023967Y-62174475D01*
X73017301Y-62178930D01*
X72969683Y-62226549D01*
X72965231Y-62233210D01*
X72960316Y-62239544D01*
X72912698Y-62334781D01*
X72912036Y-62337196D01*
X72911225Y-62338008D01*
X72909661Y-62345869D01*
X72907545Y-62353597D01*
X72907907Y-62354685D01*
X72907419Y-62357142D01*
X72796308Y-62357142D01*
X72796308Y-61490296D01*
X72908370Y-61490296D01*
X72911225Y-61504571D01*
X72911225Y-61519133D01*
X72914865Y-61522773D01*
X72915875Y-61527821D01*
X72929684Y-61541602D01*
X73068425Y-61634096D01*
X73154420Y-61720091D01*
X73198411Y-61808073D01*
X73210373Y-61823485D01*
X73246677Y-61835587D01*
X73280905Y-61818473D01*
X73293007Y-61782168D01*
X73287854Y-61763352D01*
X73240235Y-61668114D01*
X73235319Y-61661779D01*
X73230869Y-61655120D01*
X73135631Y-61559882D01*
X73131515Y-61557131D01*
X73128011Y-61553635D01*
X73122557Y-61549999D01*
X73907419Y-61549999D01*
X73907419Y-61785713D01*
X73911225Y-61804847D01*
X73938285Y-61831907D01*
X73976553Y-61831907D01*
X74003613Y-61804847D01*
X74007419Y-61785713D01*
X74007419Y-61214285D01*
X74003613Y-61195151D01*
X73976553Y-61168091D01*
X73938285Y-61168091D01*
X73911225Y-61195151D01*
X73907419Y-61214285D01*
X73907419Y-61449999D01*
X72957419Y-61449999D01*
X72938285Y-61453805D01*
X72934644Y-61457445D01*
X72929597Y-61458455D01*
X72921521Y-61470568D01*
X72911225Y-61480865D01*
X72911225Y-61486013D01*
X72908370Y-61490296D01*
X72796308Y-61490296D01*
X72796308Y-61056980D01*
X74118530Y-61056980D01*
X74118530Y-62899205D01*
G37*
D10*
X62690476Y-67954819D02*
X63357142Y-68954819D01*
X63357142Y-67954819D02*
X62690476Y-68954819D01*
X64261904Y-68954819D02*
X63690476Y-68954819D01*
X63976190Y-68954819D02*
X63976190Y-67954819D01*
X63976190Y-67954819D02*
X63880952Y-68097676D01*
X63880952Y-68097676D02*
X63785714Y-68192914D01*
X63785714Y-68192914D02*
X63690476Y-68240533D01*
D11*
G36*
X55856372Y-53906568D02*
G01*
X55892516Y-53942713D01*
X55931228Y-54020136D01*
X55931228Y-54339285D01*
X55507419Y-54339285D01*
X55507419Y-54020136D01*
X55546130Y-53942712D01*
X55582275Y-53906568D01*
X55659699Y-53867857D01*
X55778949Y-53867857D01*
X55856372Y-53906568D01*
G37*
G36*
X56249491Y-52007890D02*
G01*
X56332561Y-52049425D01*
X56368708Y-52085571D01*
X56407419Y-52162993D01*
X56407419Y-52234624D01*
X56368708Y-52312046D01*
X56332561Y-52348192D01*
X56249491Y-52389728D01*
X56070311Y-52434523D01*
X55844526Y-52434523D01*
X55665347Y-52389728D01*
X55582275Y-52348192D01*
X55546130Y-52312048D01*
X55507419Y-52234625D01*
X55507419Y-52162993D01*
X55546130Y-52085569D01*
X55582275Y-52049425D01*
X55665347Y-52007889D01*
X55844526Y-51963095D01*
X56070311Y-51963095D01*
X56249491Y-52007890D01*
G37*
G36*
X56618530Y-54550396D02*
G01*
X55296308Y-54550396D01*
X55296308Y-54008333D01*
X55407419Y-54008333D01*
X55407419Y-54389285D01*
X55411225Y-54408419D01*
X55438285Y-54435479D01*
X55457419Y-54439285D01*
X56457419Y-54439285D01*
X56476553Y-54435479D01*
X56503613Y-54408419D01*
X56503613Y-54370151D01*
X56476553Y-54343091D01*
X56457419Y-54339285D01*
X56031228Y-54339285D01*
X56031228Y-54177223D01*
X56486092Y-53858819D01*
X56499585Y-53844728D01*
X56506235Y-53807042D01*
X56484290Y-53775691D01*
X56446604Y-53769041D01*
X56428746Y-53776895D01*
X56031228Y-54055157D01*
X56031228Y-54008333D01*
X56030739Y-54005876D01*
X56031102Y-54004788D01*
X56028985Y-53997060D01*
X56027422Y-53989199D01*
X56026610Y-53988387D01*
X56025949Y-53985972D01*
X55978330Y-53890734D01*
X55973418Y-53884405D01*
X55968964Y-53877739D01*
X55921345Y-53830121D01*
X55914683Y-53825669D01*
X55908350Y-53820754D01*
X55813113Y-53773136D01*
X55810697Y-53772474D01*
X55809886Y-53771663D01*
X55802024Y-53770099D01*
X55794297Y-53767983D01*
X55793208Y-53768345D01*
X55790752Y-53767857D01*
X55647895Y-53767857D01*
X55645438Y-53768345D01*
X55644350Y-53767983D01*
X55636622Y-53770099D01*
X55628761Y-53771663D01*
X55627949Y-53772474D01*
X55625534Y-53773136D01*
X55530296Y-53820755D01*
X55523967Y-53825666D01*
X55517301Y-53830121D01*
X55469683Y-53877740D01*
X55465231Y-53884401D01*
X55460316Y-53890735D01*
X55412698Y-53985972D01*
X55412036Y-53988387D01*
X55411225Y-53989199D01*
X55409661Y-53997060D01*
X55407545Y-54004788D01*
X55407907Y-54005876D01*
X55407419Y-54008333D01*
X55296308Y-54008333D01*
X55296308Y-53141487D01*
X55408370Y-53141487D01*
X55411225Y-53155762D01*
X55411225Y-53170324D01*
X55414865Y-53173964D01*
X55415875Y-53179012D01*
X55429684Y-53192793D01*
X55568425Y-53285287D01*
X55654420Y-53371282D01*
X55698411Y-53459264D01*
X55710373Y-53474676D01*
X55746677Y-53486778D01*
X55780905Y-53469664D01*
X55793007Y-53433359D01*
X55787854Y-53414543D01*
X55740235Y-53319305D01*
X55735319Y-53312970D01*
X55730869Y-53306311D01*
X55635631Y-53211073D01*
X55631515Y-53208322D01*
X55628011Y-53204826D01*
X55622557Y-53201190D01*
X56407419Y-53201190D01*
X56407419Y-53436904D01*
X56411225Y-53456038D01*
X56438285Y-53483098D01*
X56476553Y-53483098D01*
X56503613Y-53456038D01*
X56507419Y-53436904D01*
X56507419Y-52865476D01*
X56503613Y-52846342D01*
X56476553Y-52819282D01*
X56438285Y-52819282D01*
X56411225Y-52846342D01*
X56407419Y-52865476D01*
X56407419Y-53101190D01*
X55457419Y-53101190D01*
X55438285Y-53104996D01*
X55434644Y-53108636D01*
X55429597Y-53109646D01*
X55421521Y-53121759D01*
X55411225Y-53132056D01*
X55411225Y-53137204D01*
X55408370Y-53141487D01*
X55296308Y-53141487D01*
X55296308Y-52151190D01*
X55407419Y-52151190D01*
X55407419Y-52246428D01*
X55407907Y-52248884D01*
X55407545Y-52249973D01*
X55409661Y-52257700D01*
X55411225Y-52265562D01*
X55412036Y-52266373D01*
X55412698Y-52268789D01*
X55460316Y-52364026D01*
X55465231Y-52370359D01*
X55469683Y-52377021D01*
X55517301Y-52424640D01*
X55523967Y-52429094D01*
X55530296Y-52434006D01*
X55625534Y-52481625D01*
X55630815Y-52483071D01*
X55635768Y-52485411D01*
X55826244Y-52533030D01*
X55832361Y-52533327D01*
X55838371Y-52534523D01*
X56076466Y-52534523D01*
X56082475Y-52533327D01*
X56088593Y-52533030D01*
X56279069Y-52485411D01*
X56284021Y-52483071D01*
X56289303Y-52481625D01*
X56384540Y-52434007D01*
X56390868Y-52429095D01*
X56397535Y-52424641D01*
X56445155Y-52377022D01*
X56449609Y-52370355D01*
X56454521Y-52364027D01*
X56502140Y-52268789D01*
X56502801Y-52266373D01*
X56503613Y-52265562D01*
X56505176Y-52257700D01*
X56507293Y-52249973D01*
X56506930Y-52248884D01*
X56507419Y-52246428D01*
X56507419Y-52151190D01*
X56506930Y-52148733D01*
X56507293Y-52147645D01*
X56505176Y-52139917D01*
X56503613Y-52132056D01*
X56502801Y-52131244D01*
X56502140Y-52128829D01*
X56454521Y-52033591D01*
X56449609Y-52027262D01*
X56445155Y-52020596D01*
X56397535Y-51972977D01*
X56390868Y-51968522D01*
X56384540Y-51963611D01*
X56289303Y-51915993D01*
X56284021Y-51914546D01*
X56279069Y-51912207D01*
X56088593Y-51864588D01*
X56082475Y-51864290D01*
X56076466Y-51863095D01*
X55838371Y-51863095D01*
X55832361Y-51864290D01*
X55826244Y-51864588D01*
X55635768Y-51912207D01*
X55630815Y-51914546D01*
X55625534Y-51915993D01*
X55530296Y-51963612D01*
X55523967Y-51968523D01*
X55517301Y-51972978D01*
X55469683Y-52020597D01*
X55465231Y-52027258D01*
X55460316Y-52033592D01*
X55412698Y-52128829D01*
X55412036Y-52131244D01*
X55411225Y-52132056D01*
X55409661Y-52139917D01*
X55407545Y-52147645D01*
X55407907Y-52148733D01*
X55407419Y-52151190D01*
X55296308Y-52151190D01*
X55296308Y-51751984D01*
X56618530Y-51751984D01*
X56618530Y-54550396D01*
G37*
D10*
X77868644Y-59518559D02*
X77868644Y-59585903D01*
X77868644Y-59585903D02*
X77801300Y-59720590D01*
X77801300Y-59720590D02*
X77733957Y-59787933D01*
X77733957Y-59787933D02*
X77599270Y-59855277D01*
X77599270Y-59855277D02*
X77464583Y-59855277D01*
X77464583Y-59855277D02*
X77363568Y-59821605D01*
X77363568Y-59821605D02*
X77195209Y-59720590D01*
X77195209Y-59720590D02*
X77094194Y-59619575D01*
X77094194Y-59619575D02*
X76993178Y-59451216D01*
X76993178Y-59451216D02*
X76959507Y-59350201D01*
X76959507Y-59350201D02*
X76959507Y-59215514D01*
X76959507Y-59215514D02*
X77026850Y-59080827D01*
X77026850Y-59080827D02*
X77094194Y-59013483D01*
X77094194Y-59013483D02*
X77228881Y-58946140D01*
X77228881Y-58946140D02*
X77296224Y-58946140D01*
X77868644Y-58239033D02*
X77531926Y-58575750D01*
X77531926Y-58575750D02*
X77834972Y-58946140D01*
X77834972Y-58946140D02*
X77834972Y-58878796D01*
X77834972Y-58878796D02*
X77868644Y-58777781D01*
X77868644Y-58777781D02*
X78037003Y-58609422D01*
X78037003Y-58609422D02*
X78138018Y-58575750D01*
X78138018Y-58575750D02*
X78205361Y-58575750D01*
X78205361Y-58575750D02*
X78306377Y-58609422D01*
X78306377Y-58609422D02*
X78474735Y-58777781D01*
X78474735Y-58777781D02*
X78508407Y-58878796D01*
X78508407Y-58878796D02*
X78508407Y-58946140D01*
X78508407Y-58946140D02*
X78474735Y-59047155D01*
X78474735Y-59047155D02*
X78306377Y-59215514D01*
X78306377Y-59215514D02*
X78205361Y-59249185D01*
X78205361Y-59249185D02*
X78138018Y-59249185D01*
X59884819Y-56333333D02*
X60599104Y-56333333D01*
X60599104Y-56333333D02*
X60741961Y-56380952D01*
X60741961Y-56380952D02*
X60837200Y-56476190D01*
X60837200Y-56476190D02*
X60884819Y-56619047D01*
X60884819Y-56619047D02*
X60884819Y-56714285D01*
X60218152Y-55428571D02*
X60884819Y-55428571D01*
X59837200Y-55666666D02*
X60551485Y-55904761D01*
X60551485Y-55904761D02*
X60551485Y-55285714D01*
D11*
X54297301Y-61333332D02*
X54344920Y-61190475D01*
X54344920Y-61190475D02*
X54344920Y-60952380D01*
X54344920Y-60952380D02*
X54297301Y-60857142D01*
X54297301Y-60857142D02*
X54249681Y-60809523D01*
X54249681Y-60809523D02*
X54154443Y-60761904D01*
X54154443Y-60761904D02*
X54059205Y-60761904D01*
X54059205Y-60761904D02*
X53963967Y-60809523D01*
X53963967Y-60809523D02*
X53916348Y-60857142D01*
X53916348Y-60857142D02*
X53868729Y-60952380D01*
X53868729Y-60952380D02*
X53821110Y-61142856D01*
X53821110Y-61142856D02*
X53773491Y-61238094D01*
X53773491Y-61238094D02*
X53725872Y-61285713D01*
X53725872Y-61285713D02*
X53630634Y-61333332D01*
X53630634Y-61333332D02*
X53535396Y-61333332D01*
X53535396Y-61333332D02*
X53440158Y-61285713D01*
X53440158Y-61285713D02*
X53392539Y-61238094D01*
X53392539Y-61238094D02*
X53344920Y-61142856D01*
X53344920Y-61142856D02*
X53344920Y-60904761D01*
X53344920Y-60904761D02*
X53392539Y-60761904D01*
X53344920Y-60428570D02*
X54344920Y-60190475D01*
X54344920Y-60190475D02*
X53630634Y-59999999D01*
X53630634Y-59999999D02*
X54344920Y-59809523D01*
X54344920Y-59809523D02*
X53344920Y-59571428D01*
X53678253Y-58761904D02*
X54344920Y-58761904D01*
X53297301Y-58999999D02*
X54011586Y-59238094D01*
X54011586Y-59238094D02*
X54011586Y-58619047D01*
D10*
X53404761Y-90300057D02*
X53309523Y-90252438D01*
X53309523Y-90252438D02*
X53214285Y-90157200D01*
X53214285Y-90157200D02*
X53071428Y-90014342D01*
X53071428Y-90014342D02*
X52976190Y-89966723D01*
X52976190Y-89966723D02*
X52880952Y-89966723D01*
X52928571Y-90204819D02*
X52833333Y-90157200D01*
X52833333Y-90157200D02*
X52738095Y-90061961D01*
X52738095Y-90061961D02*
X52690476Y-89871485D01*
X52690476Y-89871485D02*
X52690476Y-89538152D01*
X52690476Y-89538152D02*
X52738095Y-89347676D01*
X52738095Y-89347676D02*
X52833333Y-89252438D01*
X52833333Y-89252438D02*
X52928571Y-89204819D01*
X52928571Y-89204819D02*
X53119047Y-89204819D01*
X53119047Y-89204819D02*
X53214285Y-89252438D01*
X53214285Y-89252438D02*
X53309523Y-89347676D01*
X53309523Y-89347676D02*
X53357142Y-89538152D01*
X53357142Y-89538152D02*
X53357142Y-89871485D01*
X53357142Y-89871485D02*
X53309523Y-90061961D01*
X53309523Y-90061961D02*
X53214285Y-90157200D01*
X53214285Y-90157200D02*
X53119047Y-90204819D01*
X53119047Y-90204819D02*
X52928571Y-90204819D01*
X54309523Y-90204819D02*
X53738095Y-90204819D01*
X54023809Y-90204819D02*
X54023809Y-89204819D01*
X54023809Y-89204819D02*
X53928571Y-89347676D01*
X53928571Y-89347676D02*
X53833333Y-89442914D01*
X53833333Y-89442914D02*
X53738095Y-89490533D01*
G36*
X85078431Y-72898955D02*
G01*
X83706209Y-72898955D01*
X83706209Y-72318701D01*
X83818761Y-72318701D01*
X83818761Y-72347965D01*
X83829960Y-72375001D01*
X83850652Y-72395693D01*
X83877688Y-72406892D01*
X83892320Y-72408333D01*
X84594435Y-72408333D01*
X84708948Y-72446504D01*
X84779149Y-72516704D01*
X84817320Y-72631217D01*
X84817320Y-72714285D01*
X84818761Y-72728917D01*
X84829960Y-72755953D01*
X84850652Y-72776645D01*
X84877688Y-72787844D01*
X84906952Y-72787844D01*
X84933988Y-72776645D01*
X84954680Y-72755953D01*
X84965879Y-72728917D01*
X84967320Y-72714285D01*
X84967320Y-72619047D01*
X84966590Y-72611640D01*
X84966731Y-72609666D01*
X84966140Y-72607068D01*
X84965879Y-72604415D01*
X84965120Y-72602584D01*
X84963471Y-72595329D01*
X84915852Y-72452473D01*
X84909858Y-72439047D01*
X84908093Y-72437012D01*
X84907062Y-72434522D01*
X84897734Y-72423157D01*
X84802495Y-72327919D01*
X84791129Y-72318591D01*
X84788638Y-72317559D01*
X84786604Y-72315795D01*
X84773179Y-72309801D01*
X84630322Y-72262182D01*
X84623068Y-72260532D01*
X84621237Y-72259774D01*
X84618582Y-72259512D01*
X84615985Y-72258922D01*
X84614010Y-72259062D01*
X84606605Y-72258333D01*
X83892320Y-72258333D01*
X83877688Y-72259774D01*
X83850652Y-72270973D01*
X83829960Y-72291665D01*
X83818761Y-72318701D01*
X83706209Y-72318701D01*
X83706209Y-71619126D01*
X83817320Y-71619126D01*
X83818761Y-71626330D01*
X83818761Y-71633679D01*
X83821602Y-71640539D01*
X83823059Y-71647820D01*
X83827147Y-71653925D01*
X83829960Y-71660715D01*
X83835210Y-71665965D01*
X83839342Y-71672135D01*
X83850600Y-71681355D01*
X83850652Y-71681407D01*
X83850674Y-71681416D01*
X83850717Y-71681451D01*
X83987395Y-71772569D01*
X84068776Y-71853950D01*
X84110952Y-71938302D01*
X84118784Y-71950745D01*
X84140892Y-71969918D01*
X84168653Y-71979172D01*
X84197843Y-71977098D01*
X84224018Y-71964010D01*
X84243191Y-71941903D01*
X84252445Y-71914141D01*
X84250371Y-71884951D01*
X84245116Y-71871220D01*
X84197497Y-71775982D01*
X84193534Y-71769687D01*
X84192776Y-71767855D01*
X84191084Y-71765793D01*
X84189665Y-71763539D01*
X84188168Y-71762240D01*
X84183448Y-71756490D01*
X84121005Y-71694047D01*
X84817320Y-71694047D01*
X84817320Y-71904761D01*
X84818761Y-71919393D01*
X84829960Y-71946429D01*
X84850652Y-71967121D01*
X84877688Y-71978320D01*
X84906952Y-71978320D01*
X84933988Y-71967121D01*
X84954680Y-71946429D01*
X84965879Y-71919393D01*
X84967320Y-71904761D01*
X84967320Y-71333333D01*
X84965879Y-71318701D01*
X84954680Y-71291665D01*
X84933988Y-71270973D01*
X84906952Y-71259774D01*
X84877688Y-71259774D01*
X84850652Y-71270973D01*
X84829960Y-71291665D01*
X84818761Y-71318701D01*
X84817320Y-71333333D01*
X84817320Y-71544047D01*
X83892320Y-71544047D01*
X83892267Y-71544052D01*
X83892241Y-71544047D01*
X83892164Y-71544062D01*
X83877688Y-71545488D01*
X83870827Y-71548329D01*
X83863547Y-71549786D01*
X83857441Y-71553874D01*
X83850652Y-71556687D01*
X83845401Y-71561937D01*
X83839232Y-71566069D01*
X83835155Y-71572183D01*
X83829960Y-71577379D01*
X83827118Y-71584239D01*
X83822999Y-71590418D01*
X83821573Y-71597626D01*
X83818761Y-71604415D01*
X83818761Y-71611841D01*
X83817320Y-71619126D01*
X83706209Y-71619126D01*
X83706209Y-71148663D01*
X85078431Y-71148663D01*
X85078431Y-72898955D01*
G37*
X72738095Y-66604819D02*
X72738095Y-67414342D01*
X72738095Y-67414342D02*
X72785714Y-67509580D01*
X72785714Y-67509580D02*
X72833333Y-67557200D01*
X72833333Y-67557200D02*
X72928571Y-67604819D01*
X72928571Y-67604819D02*
X73119047Y-67604819D01*
X73119047Y-67604819D02*
X73214285Y-67557200D01*
X73214285Y-67557200D02*
X73261904Y-67509580D01*
X73261904Y-67509580D02*
X73309523Y-67414342D01*
X73309523Y-67414342D02*
X73309523Y-66604819D01*
X74214285Y-66938152D02*
X74214285Y-67604819D01*
X73976190Y-66557200D02*
X73738095Y-67271485D01*
X73738095Y-67271485D02*
X74357142Y-67271485D01*
X59929580Y-76142857D02*
X59977200Y-76190476D01*
X59977200Y-76190476D02*
X60024819Y-76333333D01*
X60024819Y-76333333D02*
X60024819Y-76428571D01*
X60024819Y-76428571D02*
X59977200Y-76571428D01*
X59977200Y-76571428D02*
X59881961Y-76666666D01*
X59881961Y-76666666D02*
X59786723Y-76714285D01*
X59786723Y-76714285D02*
X59596247Y-76761904D01*
X59596247Y-76761904D02*
X59453390Y-76761904D01*
X59453390Y-76761904D02*
X59262914Y-76714285D01*
X59262914Y-76714285D02*
X59167676Y-76666666D01*
X59167676Y-76666666D02*
X59072438Y-76571428D01*
X59072438Y-76571428D02*
X59024819Y-76428571D01*
X59024819Y-76428571D02*
X59024819Y-76333333D01*
X59024819Y-76333333D02*
X59072438Y-76190476D01*
X59072438Y-76190476D02*
X59120057Y-76142857D01*
X60024819Y-75190476D02*
X60024819Y-75761904D01*
X60024819Y-75476190D02*
X59024819Y-75476190D01*
X59024819Y-75476190D02*
X59167676Y-75571428D01*
X59167676Y-75571428D02*
X59262914Y-75666666D01*
X59262914Y-75666666D02*
X59310533Y-75761904D01*
X59358152Y-74333333D02*
X60024819Y-74333333D01*
X58977200Y-74571428D02*
X59691485Y-74809523D01*
X59691485Y-74809523D02*
X59691485Y-74190476D01*
D11*
X57261905Y-80457419D02*
X57261905Y-79457419D01*
X57261905Y-79457419D02*
X57500000Y-79457419D01*
X57500000Y-79457419D02*
X57642857Y-79505038D01*
X57642857Y-79505038D02*
X57738095Y-79600276D01*
X57738095Y-79600276D02*
X57785714Y-79695514D01*
X57785714Y-79695514D02*
X57833333Y-79885990D01*
X57833333Y-79885990D02*
X57833333Y-80028847D01*
X57833333Y-80028847D02*
X57785714Y-80219323D01*
X57785714Y-80219323D02*
X57738095Y-80314561D01*
X57738095Y-80314561D02*
X57642857Y-80409800D01*
X57642857Y-80409800D02*
X57500000Y-80457419D01*
X57500000Y-80457419D02*
X57261905Y-80457419D01*
X58785714Y-80457419D02*
X58214286Y-80457419D01*
X58500000Y-80457419D02*
X58500000Y-79457419D01*
X58500000Y-79457419D02*
X58404762Y-79600276D01*
X58404762Y-79600276D02*
X58309524Y-79695514D01*
X58309524Y-79695514D02*
X58214286Y-79743133D01*
X89678889Y-86214285D02*
X89631270Y-86357142D01*
X89631270Y-86357142D02*
X89583651Y-86404761D01*
X89583651Y-86404761D02*
X89488413Y-86452380D01*
X89488413Y-86452380D02*
X89345556Y-86452380D01*
X89345556Y-86452380D02*
X89250318Y-86404761D01*
X89250318Y-86404761D02*
X89202699Y-86357142D01*
X89202699Y-86357142D02*
X89155079Y-86261904D01*
X89155079Y-86261904D02*
X89155079Y-85880952D01*
X89155079Y-85880952D02*
X90155079Y-85880952D01*
X90155079Y-85880952D02*
X90155079Y-86214285D01*
X90155079Y-86214285D02*
X90107460Y-86309523D01*
X90107460Y-86309523D02*
X90059841Y-86357142D01*
X90059841Y-86357142D02*
X89964603Y-86404761D01*
X89964603Y-86404761D02*
X89869365Y-86404761D01*
X89869365Y-86404761D02*
X89774127Y-86357142D01*
X89774127Y-86357142D02*
X89726508Y-86309523D01*
X89726508Y-86309523D02*
X89678889Y-86214285D01*
X89678889Y-86214285D02*
X89678889Y-85880952D01*
X90155079Y-86738095D02*
X90155079Y-87309523D01*
X89155079Y-87023809D02*
X90155079Y-87023809D01*
X89155079Y-88166666D02*
X89155079Y-87595238D01*
X89155079Y-87880952D02*
X90155079Y-87880952D01*
X90155079Y-87880952D02*
X90012222Y-87785714D01*
X90012222Y-87785714D02*
X89916984Y-87690476D01*
X89916984Y-87690476D02*
X89869365Y-87595238D01*
D10*
X71859580Y-61892857D02*
X71907200Y-61940476D01*
X71907200Y-61940476D02*
X71954819Y-62083333D01*
X71954819Y-62083333D02*
X71954819Y-62178571D01*
X71954819Y-62178571D02*
X71907200Y-62321428D01*
X71907200Y-62321428D02*
X71811961Y-62416666D01*
X71811961Y-62416666D02*
X71716723Y-62464285D01*
X71716723Y-62464285D02*
X71526247Y-62511904D01*
X71526247Y-62511904D02*
X71383390Y-62511904D01*
X71383390Y-62511904D02*
X71192914Y-62464285D01*
X71192914Y-62464285D02*
X71097676Y-62416666D01*
X71097676Y-62416666D02*
X71002438Y-62321428D01*
X71002438Y-62321428D02*
X70954819Y-62178571D01*
X70954819Y-62178571D02*
X70954819Y-62083333D01*
X70954819Y-62083333D02*
X71002438Y-61940476D01*
X71002438Y-61940476D02*
X71050057Y-61892857D01*
X71954819Y-60940476D02*
X71954819Y-61511904D01*
X71954819Y-61226190D02*
X70954819Y-61226190D01*
X70954819Y-61226190D02*
X71097676Y-61321428D01*
X71097676Y-61321428D02*
X71192914Y-61416666D01*
X71192914Y-61416666D02*
X71240533Y-61511904D01*
X71383390Y-60369047D02*
X71335771Y-60464285D01*
X71335771Y-60464285D02*
X71288152Y-60511904D01*
X71288152Y-60511904D02*
X71192914Y-60559523D01*
X71192914Y-60559523D02*
X71145295Y-60559523D01*
X71145295Y-60559523D02*
X71050057Y-60511904D01*
X71050057Y-60511904D02*
X71002438Y-60464285D01*
X71002438Y-60464285D02*
X70954819Y-60369047D01*
X70954819Y-60369047D02*
X70954819Y-60178571D01*
X70954819Y-60178571D02*
X71002438Y-60083333D01*
X71002438Y-60083333D02*
X71050057Y-60035714D01*
X71050057Y-60035714D02*
X71145295Y-59988095D01*
X71145295Y-59988095D02*
X71192914Y-59988095D01*
X71192914Y-59988095D02*
X71288152Y-60035714D01*
X71288152Y-60035714D02*
X71335771Y-60083333D01*
X71335771Y-60083333D02*
X71383390Y-60178571D01*
X71383390Y-60178571D02*
X71383390Y-60369047D01*
X71383390Y-60369047D02*
X71431009Y-60464285D01*
X71431009Y-60464285D02*
X71478628Y-60511904D01*
X71478628Y-60511904D02*
X71573866Y-60559523D01*
X71573866Y-60559523D02*
X71764342Y-60559523D01*
X71764342Y-60559523D02*
X71859580Y-60511904D01*
X71859580Y-60511904D02*
X71907200Y-60464285D01*
X71907200Y-60464285D02*
X71954819Y-60369047D01*
X71954819Y-60369047D02*
X71954819Y-60178571D01*
X71954819Y-60178571D02*
X71907200Y-60083333D01*
X71907200Y-60083333D02*
X71859580Y-60035714D01*
X71859580Y-60035714D02*
X71764342Y-59988095D01*
X71764342Y-59988095D02*
X71573866Y-59988095D01*
X71573866Y-59988095D02*
X71478628Y-60035714D01*
X71478628Y-60035714D02*
X71431009Y-60083333D01*
X71431009Y-60083333D02*
X71383390Y-60178571D01*
D11*
G36*
X86203691Y-62470634D02*
G01*
X84881469Y-62470634D01*
X84881469Y-61690476D01*
X84992580Y-61690476D01*
X84992580Y-62309523D01*
X84996386Y-62328657D01*
X85023446Y-62355717D01*
X85061714Y-62355717D01*
X85088774Y-62328657D01*
X85092580Y-62309523D01*
X85092580Y-61811185D01*
X85578654Y-62297259D01*
X85580735Y-62298649D01*
X85581249Y-62299677D01*
X85588214Y-62303647D01*
X85594875Y-62308098D01*
X85596023Y-62308098D01*
X85598198Y-62309338D01*
X85741054Y-62356957D01*
X85749004Y-62357959D01*
X85756866Y-62359523D01*
X85852104Y-62359523D01*
X85854560Y-62359034D01*
X85855649Y-62359397D01*
X85863376Y-62357280D01*
X85871238Y-62355717D01*
X85872049Y-62354905D01*
X85874465Y-62354244D01*
X85969702Y-62306626D01*
X85976035Y-62301710D01*
X85982697Y-62297259D01*
X86030316Y-62249641D01*
X86034770Y-62242974D01*
X86039682Y-62236646D01*
X86087301Y-62141408D01*
X86087962Y-62138992D01*
X86088774Y-62138181D01*
X86090337Y-62130319D01*
X86092454Y-62122592D01*
X86092091Y-62121503D01*
X86092580Y-62119047D01*
X86092580Y-61880952D01*
X86092091Y-61878495D01*
X86092454Y-61877407D01*
X86090337Y-61869679D01*
X86088774Y-61861818D01*
X86087962Y-61861006D01*
X86087301Y-61858591D01*
X86039682Y-61763353D01*
X86034770Y-61757024D01*
X86030316Y-61750358D01*
X85982697Y-61702740D01*
X85966476Y-61691901D01*
X85928208Y-61691901D01*
X85901148Y-61718961D01*
X85901148Y-61757229D01*
X85911987Y-61773450D01*
X85953868Y-61815332D01*
X85992580Y-61892755D01*
X85992580Y-62107243D01*
X85953868Y-62184666D01*
X85917724Y-62220811D01*
X85840301Y-62259523D01*
X85764979Y-62259523D01*
X85641017Y-62218202D01*
X85077935Y-61655121D01*
X85061714Y-61644282D01*
X85023446Y-61644282D01*
X84996386Y-61671342D01*
X84992580Y-61690476D01*
X84881469Y-61690476D01*
X84881469Y-60928571D01*
X84992580Y-60928571D01*
X84992580Y-61119047D01*
X84993068Y-61121503D01*
X84992706Y-61122592D01*
X84994822Y-61130319D01*
X84996386Y-61138181D01*
X84997197Y-61138992D01*
X84997859Y-61141408D01*
X85045479Y-61236646D01*
X85050394Y-61242980D01*
X85054845Y-61249640D01*
X85102463Y-61297259D01*
X85109129Y-61301713D01*
X85115458Y-61306625D01*
X85210696Y-61354244D01*
X85213111Y-61354905D01*
X85213923Y-61355717D01*
X85221784Y-61357280D01*
X85229512Y-61359397D01*
X85230600Y-61359034D01*
X85233057Y-61359523D01*
X86042580Y-61359523D01*
X86061714Y-61355717D01*
X86088774Y-61328657D01*
X86088774Y-61290389D01*
X86061714Y-61263329D01*
X86042580Y-61259523D01*
X85244861Y-61259523D01*
X85167437Y-61220811D01*
X85131292Y-61184667D01*
X85092580Y-61107243D01*
X85092580Y-60940374D01*
X85131292Y-60862950D01*
X85167437Y-60826806D01*
X85244861Y-60788095D01*
X86042580Y-60788095D01*
X86061714Y-60784289D01*
X86088774Y-60757229D01*
X86088774Y-60718961D01*
X86061714Y-60691901D01*
X86042580Y-60688095D01*
X85233057Y-60688095D01*
X85230600Y-60688583D01*
X85229512Y-60688221D01*
X85221784Y-60690337D01*
X85213923Y-60691901D01*
X85213111Y-60692712D01*
X85210696Y-60693374D01*
X85115458Y-60740993D01*
X85109129Y-60745904D01*
X85102463Y-60750359D01*
X85054845Y-60797978D01*
X85050394Y-60804637D01*
X85045479Y-60810972D01*
X84997859Y-60906210D01*
X84997197Y-60908625D01*
X84996386Y-60909437D01*
X84994822Y-60917298D01*
X84992706Y-60925026D01*
X84993068Y-60926114D01*
X84992580Y-60928571D01*
X84881469Y-60928571D01*
X84881469Y-60576984D01*
X86203691Y-60576984D01*
X86203691Y-62470634D01*
G37*
G36*
X73907286Y-59546130D02*
G01*
X73943430Y-59582275D01*
X73982142Y-59659698D01*
X73982142Y-59778948D01*
X73943430Y-59856371D01*
X73907286Y-59892516D01*
X73829863Y-59931228D01*
X73510714Y-59931228D01*
X73510714Y-59507419D01*
X73829863Y-59507419D01*
X73907286Y-59546130D01*
G37*
G36*
X76094209Y-60618530D02*
G01*
X73299603Y-60618530D01*
X73299603Y-59457419D01*
X73410714Y-59457419D01*
X73410714Y-60457419D01*
X73414520Y-60476553D01*
X73441580Y-60503613D01*
X73479848Y-60503613D01*
X73506908Y-60476553D01*
X73510714Y-60457419D01*
X73510714Y-60031228D01*
X73672776Y-60031228D01*
X73991180Y-60486092D01*
X74005271Y-60499585D01*
X74042957Y-60506235D01*
X74074308Y-60484290D01*
X74080958Y-60446604D01*
X74073104Y-60428746D01*
X73794842Y-60031228D01*
X73841666Y-60031228D01*
X73844122Y-60030739D01*
X73845211Y-60031102D01*
X73852938Y-60028985D01*
X73860800Y-60027422D01*
X73861611Y-60026610D01*
X73864027Y-60025949D01*
X73959264Y-59978331D01*
X73965597Y-59973415D01*
X73972259Y-59968964D01*
X74019878Y-59921346D01*
X74024332Y-59914679D01*
X74029244Y-59908351D01*
X74076863Y-59813113D01*
X74077524Y-59810697D01*
X74078336Y-59809886D01*
X74079899Y-59802024D01*
X74082016Y-59794297D01*
X74081653Y-59793208D01*
X74082142Y-59790752D01*
X74082142Y-59746678D01*
X74363221Y-59746678D01*
X74380335Y-59780906D01*
X74416640Y-59793007D01*
X74435456Y-59787854D01*
X74530693Y-59740236D01*
X74537026Y-59735320D01*
X74543688Y-59730869D01*
X74638926Y-59635631D01*
X74641674Y-59631517D01*
X74645174Y-59628011D01*
X74648809Y-59622558D01*
X74648809Y-60407419D01*
X74413095Y-60407419D01*
X74393961Y-60411225D01*
X74366901Y-60438285D01*
X74366901Y-60476553D01*
X74393961Y-60503613D01*
X74413095Y-60507419D01*
X74984523Y-60507419D01*
X75003657Y-60503613D01*
X75030717Y-60476553D01*
X75030717Y-60438285D01*
X75003657Y-60411225D01*
X74984523Y-60407419D01*
X74748809Y-60407419D01*
X74748809Y-59746678D01*
X75315602Y-59746678D01*
X75332716Y-59780906D01*
X75369021Y-59793007D01*
X75387837Y-59787854D01*
X75483074Y-59740236D01*
X75489407Y-59735320D01*
X75496069Y-59730869D01*
X75591307Y-59635631D01*
X75594055Y-59631517D01*
X75597555Y-59628011D01*
X75601190Y-59622558D01*
X75601190Y-60407419D01*
X75365476Y-60407419D01*
X75346342Y-60411225D01*
X75319282Y-60438285D01*
X75319282Y-60476553D01*
X75346342Y-60503613D01*
X75365476Y-60507419D01*
X75936904Y-60507419D01*
X75956038Y-60503613D01*
X75983098Y-60476553D01*
X75983098Y-60438285D01*
X75956038Y-60411225D01*
X75936904Y-60407419D01*
X75701190Y-60407419D01*
X75701190Y-59457419D01*
X75697384Y-59438285D01*
X75693743Y-59434644D01*
X75692734Y-59429597D01*
X75680618Y-59421519D01*
X75670324Y-59411225D01*
X75665178Y-59411225D01*
X75660894Y-59408369D01*
X75646616Y-59411225D01*
X75632056Y-59411225D01*
X75628415Y-59414865D01*
X75623368Y-59415875D01*
X75609588Y-59429684D01*
X75517093Y-59568424D01*
X75431097Y-59654421D01*
X75343115Y-59698412D01*
X75327703Y-59710373D01*
X75315602Y-59746678D01*
X74748809Y-59746678D01*
X74748809Y-59457419D01*
X74745003Y-59438285D01*
X74741362Y-59434644D01*
X74740353Y-59429597D01*
X74728237Y-59421519D01*
X74717943Y-59411225D01*
X74712797Y-59411225D01*
X74708513Y-59408369D01*
X74694235Y-59411225D01*
X74679675Y-59411225D01*
X74676034Y-59414865D01*
X74670987Y-59415875D01*
X74657207Y-59429684D01*
X74564712Y-59568424D01*
X74478716Y-59654421D01*
X74390734Y-59698412D01*
X74375322Y-59710373D01*
X74363221Y-59746678D01*
X74082142Y-59746678D01*
X74082142Y-59647895D01*
X74081653Y-59645438D01*
X74082016Y-59644350D01*
X74079899Y-59636622D01*
X74078336Y-59628761D01*
X74077524Y-59627949D01*
X74076863Y-59625534D01*
X74029244Y-59530296D01*
X74024332Y-59523967D01*
X74019878Y-59517301D01*
X73972259Y-59469683D01*
X73965597Y-59465231D01*
X73959264Y-59460316D01*
X73864027Y-59412698D01*
X73861611Y-59412036D01*
X73860800Y-59411225D01*
X73852938Y-59409661D01*
X73845211Y-59407545D01*
X73844122Y-59407907D01*
X73841666Y-59407419D01*
X73460714Y-59407419D01*
X73441580Y-59411225D01*
X73414520Y-59438285D01*
X73410714Y-59457419D01*
X73299603Y-59457419D01*
X73299603Y-59296308D01*
X76094209Y-59296308D01*
X76094209Y-60618530D01*
G37*
G36*
X51856372Y-85731568D02*
G01*
X51892516Y-85767713D01*
X51931228Y-85845136D01*
X51931228Y-86164285D01*
X51507419Y-86164285D01*
X51507419Y-85845136D01*
X51546130Y-85767712D01*
X51582275Y-85731568D01*
X51659699Y-85692857D01*
X51778949Y-85692857D01*
X51856372Y-85731568D01*
G37*
G36*
X52618530Y-86375396D02*
G01*
X51296308Y-86375396D01*
X51296308Y-85833333D01*
X51407419Y-85833333D01*
X51407419Y-86214285D01*
X51411225Y-86233419D01*
X51438285Y-86260479D01*
X51457419Y-86264285D01*
X52457419Y-86264285D01*
X52476553Y-86260479D01*
X52503613Y-86233419D01*
X52503613Y-86195151D01*
X52476553Y-86168091D01*
X52457419Y-86164285D01*
X52031228Y-86164285D01*
X52031228Y-86002223D01*
X52486092Y-85683819D01*
X52499585Y-85669728D01*
X52506235Y-85632042D01*
X52484290Y-85600691D01*
X52446604Y-85594041D01*
X52428746Y-85601895D01*
X52031228Y-85880157D01*
X52031228Y-85833333D01*
X52030739Y-85830876D01*
X52031102Y-85829788D01*
X52028985Y-85822060D01*
X52027422Y-85814199D01*
X52026610Y-85813387D01*
X52025949Y-85810972D01*
X51978330Y-85715734D01*
X51973418Y-85709405D01*
X51968964Y-85702739D01*
X51921345Y-85655121D01*
X51914683Y-85650669D01*
X51908350Y-85645754D01*
X51813113Y-85598136D01*
X51810697Y-85597474D01*
X51809886Y-85596663D01*
X51802024Y-85595099D01*
X51794297Y-85592983D01*
X51793208Y-85593345D01*
X51790752Y-85592857D01*
X51647895Y-85592857D01*
X51645438Y-85593345D01*
X51644350Y-85592983D01*
X51636622Y-85595099D01*
X51628761Y-85596663D01*
X51627949Y-85597474D01*
X51625534Y-85598136D01*
X51530296Y-85645755D01*
X51523967Y-85650666D01*
X51517301Y-85655121D01*
X51469683Y-85702740D01*
X51465231Y-85709401D01*
X51460316Y-85715735D01*
X51412698Y-85810972D01*
X51412036Y-85813387D01*
X51411225Y-85814199D01*
X51409661Y-85822060D01*
X51407545Y-85829788D01*
X51407907Y-85830876D01*
X51407419Y-85833333D01*
X51296308Y-85833333D01*
X51296308Y-84966487D01*
X51408370Y-84966487D01*
X51411225Y-84980762D01*
X51411225Y-84995324D01*
X51414865Y-84998964D01*
X51415875Y-85004012D01*
X51429684Y-85017793D01*
X51568425Y-85110287D01*
X51654420Y-85196282D01*
X51698411Y-85284264D01*
X51710373Y-85299676D01*
X51746677Y-85311778D01*
X51780905Y-85294664D01*
X51793007Y-85258359D01*
X51787854Y-85239543D01*
X51740235Y-85144305D01*
X51735319Y-85137970D01*
X51730869Y-85131311D01*
X51635631Y-85036073D01*
X51631515Y-85033322D01*
X51628011Y-85029826D01*
X51622557Y-85026190D01*
X52407419Y-85026190D01*
X52407419Y-85261904D01*
X52411225Y-85281038D01*
X52438285Y-85308098D01*
X52476553Y-85308098D01*
X52503613Y-85281038D01*
X52507419Y-85261904D01*
X52507419Y-84690476D01*
X52503613Y-84671342D01*
X52476553Y-84644282D01*
X52438285Y-84644282D01*
X52411225Y-84671342D01*
X52407419Y-84690476D01*
X52407419Y-84926190D01*
X51457419Y-84926190D01*
X51438285Y-84929996D01*
X51434644Y-84933636D01*
X51429597Y-84934646D01*
X51421521Y-84946759D01*
X51411225Y-84957056D01*
X51411225Y-84962204D01*
X51408370Y-84966487D01*
X51296308Y-84966487D01*
X51296308Y-83738095D01*
X51407419Y-83738095D01*
X51407419Y-84357142D01*
X51411225Y-84376276D01*
X51438285Y-84403336D01*
X51476553Y-84403336D01*
X51503613Y-84376276D01*
X51507419Y-84357142D01*
X51507419Y-83848283D01*
X51805446Y-84109057D01*
X51817766Y-84116151D01*
X51819237Y-84117622D01*
X51820320Y-84117622D01*
X51822352Y-84118792D01*
X51839906Y-84117622D01*
X51857505Y-84117622D01*
X51858761Y-84116365D01*
X51860536Y-84116247D01*
X51872124Y-84103002D01*
X51884565Y-84090562D01*
X51885022Y-84088261D01*
X51885735Y-84087447D01*
X51885596Y-84085374D01*
X51888371Y-84071428D01*
X51888371Y-83940374D01*
X51927082Y-83862950D01*
X51963227Y-83826806D01*
X52040651Y-83788095D01*
X52255139Y-83788095D01*
X52332561Y-83826806D01*
X52368708Y-83862952D01*
X52407419Y-83940374D01*
X52407419Y-84202481D01*
X52368708Y-84279903D01*
X52326825Y-84321786D01*
X52315986Y-84338007D01*
X52315986Y-84376276D01*
X52343045Y-84403336D01*
X52381314Y-84403336D01*
X52397535Y-84392498D01*
X52445155Y-84344879D01*
X52449609Y-84338212D01*
X52454521Y-84331884D01*
X52502140Y-84236646D01*
X52502801Y-84234230D01*
X52503613Y-84233419D01*
X52505176Y-84225557D01*
X52507293Y-84217830D01*
X52506930Y-84216741D01*
X52507419Y-84214285D01*
X52507419Y-83928571D01*
X52506930Y-83926114D01*
X52507293Y-83925026D01*
X52505176Y-83917298D01*
X52503613Y-83909437D01*
X52502801Y-83908625D01*
X52502140Y-83906210D01*
X52454521Y-83810972D01*
X52449609Y-83804643D01*
X52445155Y-83797977D01*
X52397535Y-83750358D01*
X52390868Y-83745903D01*
X52384540Y-83740992D01*
X52289303Y-83693374D01*
X52286887Y-83692712D01*
X52286076Y-83691901D01*
X52278214Y-83690337D01*
X52270487Y-83688221D01*
X52269398Y-83688583D01*
X52266942Y-83688095D01*
X52028847Y-83688095D01*
X52026390Y-83688583D01*
X52025302Y-83688221D01*
X52017574Y-83690337D01*
X52009713Y-83691901D01*
X52008901Y-83692712D01*
X52006486Y-83693374D01*
X51911248Y-83740993D01*
X51904919Y-83745904D01*
X51898253Y-83750359D01*
X51850635Y-83797978D01*
X51846183Y-83804639D01*
X51841268Y-83810973D01*
X51793650Y-83906210D01*
X51792988Y-83908625D01*
X51792177Y-83909437D01*
X51790613Y-83917298D01*
X51788497Y-83925026D01*
X51788859Y-83926114D01*
X51788371Y-83928571D01*
X51788371Y-83961239D01*
X51490344Y-83700466D01*
X51478023Y-83693371D01*
X51476553Y-83691901D01*
X51475470Y-83691901D01*
X51473438Y-83690731D01*
X51455884Y-83691901D01*
X51438285Y-83691901D01*
X51437028Y-83693157D01*
X51435254Y-83693276D01*
X51423665Y-83706520D01*
X51411225Y-83718961D01*
X51410767Y-83721261D01*
X51410055Y-83722076D01*
X51410193Y-83724148D01*
X51407419Y-83738095D01*
X51296308Y-83738095D01*
X51296308Y-83576984D01*
X52618530Y-83576984D01*
X52618530Y-86375396D01*
G37*
G36*
X90188094Y-62492580D02*
G01*
X89868946Y-62492580D01*
X89791522Y-62453868D01*
X89755377Y-62417724D01*
X89716666Y-62340301D01*
X89716666Y-62221050D01*
X89755377Y-62143626D01*
X89791522Y-62107482D01*
X89868946Y-62068771D01*
X90188094Y-62068771D01*
X90188094Y-62492580D01*
G37*
G36*
X90399205Y-62703691D02*
G01*
X88553174Y-62703691D01*
X88553174Y-61733057D01*
X88664285Y-61733057D01*
X88664285Y-61971152D01*
X88664773Y-61973608D01*
X88664411Y-61974697D01*
X88666527Y-61982424D01*
X88668091Y-61990286D01*
X88668902Y-61991097D01*
X88669564Y-61993513D01*
X88717182Y-62088750D01*
X88722097Y-62095083D01*
X88726549Y-62101745D01*
X88774167Y-62149364D01*
X88780833Y-62153818D01*
X88787162Y-62158730D01*
X88882400Y-62206349D01*
X88884815Y-62207010D01*
X88885627Y-62207822D01*
X88893488Y-62209385D01*
X88901216Y-62211502D01*
X88902304Y-62211139D01*
X88904761Y-62211628D01*
X89142856Y-62211628D01*
X89145312Y-62211139D01*
X89146401Y-62211502D01*
X89154128Y-62209385D01*
X89161990Y-62207822D01*
X89162801Y-62207010D01*
X89165217Y-62206349D01*
X89224428Y-62176743D01*
X89192844Y-62492580D01*
X88761904Y-62492580D01*
X88742770Y-62496386D01*
X88715710Y-62523446D01*
X88715710Y-62561714D01*
X88742770Y-62588774D01*
X88761904Y-62592580D01*
X89238094Y-62592580D01*
X89250055Y-62590200D01*
X89252537Y-62590449D01*
X89253735Y-62589468D01*
X89257228Y-62588774D01*
X89269125Y-62576876D01*
X89282155Y-62566216D01*
X89283194Y-62562807D01*
X89284288Y-62561714D01*
X89284288Y-62559221D01*
X89287846Y-62547555D01*
X89321677Y-62209247D01*
X89616666Y-62209247D01*
X89616666Y-62352104D01*
X89617154Y-62354560D01*
X89616792Y-62355649D01*
X89618908Y-62363376D01*
X89620472Y-62371238D01*
X89621283Y-62372049D01*
X89621945Y-62374465D01*
X89669563Y-62469702D01*
X89674478Y-62476035D01*
X89678930Y-62482697D01*
X89726548Y-62530316D01*
X89733214Y-62534770D01*
X89739543Y-62539682D01*
X89834781Y-62587301D01*
X89837196Y-62587962D01*
X89838008Y-62588774D01*
X89845869Y-62590337D01*
X89853597Y-62592454D01*
X89854685Y-62592091D01*
X89857142Y-62592580D01*
X90238094Y-62592580D01*
X90257228Y-62588774D01*
X90284288Y-62561714D01*
X90288094Y-62542580D01*
X90288094Y-61542580D01*
X90284288Y-61523446D01*
X90257228Y-61496386D01*
X90218960Y-61496386D01*
X90191900Y-61523446D01*
X90188094Y-61542580D01*
X90188094Y-61968771D01*
X90026032Y-61968771D01*
X89707628Y-61513907D01*
X89693537Y-61500414D01*
X89655851Y-61493764D01*
X89624500Y-61515709D01*
X89617850Y-61553395D01*
X89625704Y-61571253D01*
X89903966Y-61968771D01*
X89857142Y-61968771D01*
X89854685Y-61969259D01*
X89853597Y-61968897D01*
X89845869Y-61971013D01*
X89838008Y-61972577D01*
X89837196Y-61973388D01*
X89834781Y-61974050D01*
X89739543Y-62021669D01*
X89733214Y-62026580D01*
X89726548Y-62031035D01*
X89678930Y-62078654D01*
X89674478Y-62085315D01*
X89669563Y-62091649D01*
X89621945Y-62186886D01*
X89621283Y-62189301D01*
X89620472Y-62190113D01*
X89618908Y-62197974D01*
X89616792Y-62205702D01*
X89617154Y-62206790D01*
X89616666Y-62209247D01*
X89321677Y-62209247D01*
X89335465Y-62071365D01*
X89333582Y-62051947D01*
X89331907Y-62049899D01*
X89331907Y-62047256D01*
X89320009Y-62035358D01*
X89309349Y-62022329D01*
X89306716Y-62022065D01*
X89304847Y-62020196D01*
X89288020Y-62020196D01*
X89271270Y-62018521D01*
X89269223Y-62020196D01*
X89266578Y-62020196D01*
X89250357Y-62031035D01*
X89208476Y-62072916D01*
X89131053Y-62111628D01*
X88916565Y-62111628D01*
X88839141Y-62072916D01*
X88802996Y-62036772D01*
X88764285Y-61959349D01*
X88764285Y-61744860D01*
X88802996Y-61667436D01*
X88839141Y-61631291D01*
X88916564Y-61592580D01*
X89131053Y-61592580D01*
X89208476Y-61631292D01*
X89250357Y-61673174D01*
X89266578Y-61684013D01*
X89304847Y-61684013D01*
X89331907Y-61656953D01*
X89331907Y-61618684D01*
X89321068Y-61602463D01*
X89273449Y-61554845D01*
X89266789Y-61550394D01*
X89260455Y-61545479D01*
X89165217Y-61497859D01*
X89162801Y-61497197D01*
X89161990Y-61496386D01*
X89154128Y-61494822D01*
X89146401Y-61492706D01*
X89145312Y-61493068D01*
X89142856Y-61492580D01*
X88904761Y-61492580D01*
X88902304Y-61493068D01*
X88901216Y-61492706D01*
X88893488Y-61494822D01*
X88885627Y-61496386D01*
X88884815Y-61497197D01*
X88882400Y-61497859D01*
X88787162Y-61545479D01*
X88780833Y-61550390D01*
X88774167Y-61554845D01*
X88726549Y-61602464D01*
X88722097Y-61609125D01*
X88717182Y-61615459D01*
X88669564Y-61710696D01*
X88668902Y-61713111D01*
X88668091Y-61713923D01*
X88666527Y-61721784D01*
X88664411Y-61729512D01*
X88664773Y-61730600D01*
X88664285Y-61733057D01*
X88553174Y-61733057D01*
X88553174Y-61381469D01*
X90399205Y-61381469D01*
X90399205Y-62703691D01*
G37*
X93238094Y-64042580D02*
X93238094Y-65042580D01*
X93238094Y-65042580D02*
X92999999Y-65042580D01*
X92999999Y-65042580D02*
X92857142Y-64994961D01*
X92857142Y-64994961D02*
X92761904Y-64899723D01*
X92761904Y-64899723D02*
X92714285Y-64804485D01*
X92714285Y-64804485D02*
X92666666Y-64614009D01*
X92666666Y-64614009D02*
X92666666Y-64471152D01*
X92666666Y-64471152D02*
X92714285Y-64280676D01*
X92714285Y-64280676D02*
X92761904Y-64185438D01*
X92761904Y-64185438D02*
X92857142Y-64090200D01*
X92857142Y-64090200D02*
X92999999Y-64042580D01*
X92999999Y-64042580D02*
X93238094Y-64042580D01*
X92333332Y-65042580D02*
X91714285Y-65042580D01*
X91714285Y-65042580D02*
X92047618Y-64661628D01*
X92047618Y-64661628D02*
X91904761Y-64661628D01*
X91904761Y-64661628D02*
X91809523Y-64614009D01*
X91809523Y-64614009D02*
X91761904Y-64566390D01*
X91761904Y-64566390D02*
X91714285Y-64471152D01*
X91714285Y-64471152D02*
X91714285Y-64233057D01*
X91714285Y-64233057D02*
X91761904Y-64137819D01*
X91761904Y-64137819D02*
X91809523Y-64090200D01*
X91809523Y-64090200D02*
X91904761Y-64042580D01*
X91904761Y-64042580D02*
X92190475Y-64042580D01*
X92190475Y-64042580D02*
X92285713Y-64090200D01*
X92285713Y-64090200D02*
X92333332Y-64137819D01*
D10*
X87289580Y-82666666D02*
X87337200Y-82714285D01*
X87337200Y-82714285D02*
X87384819Y-82857142D01*
X87384819Y-82857142D02*
X87384819Y-82952380D01*
X87384819Y-82952380D02*
X87337200Y-83095237D01*
X87337200Y-83095237D02*
X87241961Y-83190475D01*
X87241961Y-83190475D02*
X87146723Y-83238094D01*
X87146723Y-83238094D02*
X86956247Y-83285713D01*
X86956247Y-83285713D02*
X86813390Y-83285713D01*
X86813390Y-83285713D02*
X86622914Y-83238094D01*
X86622914Y-83238094D02*
X86527676Y-83190475D01*
X86527676Y-83190475D02*
X86432438Y-83095237D01*
X86432438Y-83095237D02*
X86384819Y-82952380D01*
X86384819Y-82952380D02*
X86384819Y-82857142D01*
X86384819Y-82857142D02*
X86432438Y-82714285D01*
X86432438Y-82714285D02*
X86480057Y-82666666D01*
X87384819Y-81714285D02*
X87384819Y-82285713D01*
X87384819Y-81999999D02*
X86384819Y-81999999D01*
X86384819Y-81999999D02*
X86527676Y-82095237D01*
X86527676Y-82095237D02*
X86622914Y-82190475D01*
X86622914Y-82190475D02*
X86670533Y-82285713D01*
D11*
X93238094Y-61042580D02*
X93238094Y-62042580D01*
X93238094Y-62042580D02*
X92999999Y-62042580D01*
X92999999Y-62042580D02*
X92857142Y-61994961D01*
X92857142Y-61994961D02*
X92761904Y-61899723D01*
X92761904Y-61899723D02*
X92714285Y-61804485D01*
X92714285Y-61804485D02*
X92666666Y-61614009D01*
X92666666Y-61614009D02*
X92666666Y-61471152D01*
X92666666Y-61471152D02*
X92714285Y-61280676D01*
X92714285Y-61280676D02*
X92761904Y-61185438D01*
X92761904Y-61185438D02*
X92857142Y-61090200D01*
X92857142Y-61090200D02*
X92999999Y-61042580D01*
X92999999Y-61042580D02*
X93238094Y-61042580D01*
X91809523Y-61709247D02*
X91809523Y-61042580D01*
X92047618Y-62090200D02*
X92285713Y-61375914D01*
X92285713Y-61375914D02*
X91666666Y-61375914D01*
D10*
X62857142Y-77859580D02*
X62809523Y-77907200D01*
X62809523Y-77907200D02*
X62666666Y-77954819D01*
X62666666Y-77954819D02*
X62571428Y-77954819D01*
X62571428Y-77954819D02*
X62428571Y-77907200D01*
X62428571Y-77907200D02*
X62333333Y-77811961D01*
X62333333Y-77811961D02*
X62285714Y-77716723D01*
X62285714Y-77716723D02*
X62238095Y-77526247D01*
X62238095Y-77526247D02*
X62238095Y-77383390D01*
X62238095Y-77383390D02*
X62285714Y-77192914D01*
X62285714Y-77192914D02*
X62333333Y-77097676D01*
X62333333Y-77097676D02*
X62428571Y-77002438D01*
X62428571Y-77002438D02*
X62571428Y-76954819D01*
X62571428Y-76954819D02*
X62666666Y-76954819D01*
X62666666Y-76954819D02*
X62809523Y-77002438D01*
X62809523Y-77002438D02*
X62857142Y-77050057D01*
X63809523Y-77954819D02*
X63238095Y-77954819D01*
X63523809Y-77954819D02*
X63523809Y-76954819D01*
X63523809Y-76954819D02*
X63428571Y-77097676D01*
X63428571Y-77097676D02*
X63333333Y-77192914D01*
X63333333Y-77192914D02*
X63238095Y-77240533D01*
X64714285Y-76954819D02*
X64238095Y-76954819D01*
X64238095Y-76954819D02*
X64190476Y-77431009D01*
X64190476Y-77431009D02*
X64238095Y-77383390D01*
X64238095Y-77383390D02*
X64333333Y-77335771D01*
X64333333Y-77335771D02*
X64571428Y-77335771D01*
X64571428Y-77335771D02*
X64666666Y-77383390D01*
X64666666Y-77383390D02*
X64714285Y-77431009D01*
X64714285Y-77431009D02*
X64761904Y-77526247D01*
X64761904Y-77526247D02*
X64761904Y-77764342D01*
X64761904Y-77764342D02*
X64714285Y-77859580D01*
X64714285Y-77859580D02*
X64666666Y-77907200D01*
X64666666Y-77907200D02*
X64571428Y-77954819D01*
X64571428Y-77954819D02*
X64333333Y-77954819D01*
X64333333Y-77954819D02*
X64238095Y-77907200D01*
X64238095Y-77907200D02*
X64190476Y-77859580D01*
D11*
G36*
X75335858Y-55474701D02*
G01*
X75372002Y-55510846D01*
X75410714Y-55588269D01*
X75410714Y-55755138D01*
X75372002Y-55832561D01*
X75335856Y-55868708D01*
X75258435Y-55907419D01*
X75091566Y-55907419D01*
X75014143Y-55868708D01*
X74977997Y-55832561D01*
X74939286Y-55755139D01*
X74939286Y-55588269D01*
X74977997Y-55510845D01*
X75014142Y-55474701D01*
X75091566Y-55435990D01*
X75258435Y-55435990D01*
X75335858Y-55474701D01*
G37*
G36*
X75335858Y-55046130D02*
G01*
X75372002Y-55082275D01*
X75410714Y-55159698D01*
X75410714Y-55183710D01*
X75372002Y-55261133D01*
X75335858Y-55297278D01*
X75258435Y-55335990D01*
X75091566Y-55335990D01*
X75014142Y-55297278D01*
X74977997Y-55261134D01*
X74939286Y-55183711D01*
X74939286Y-55159698D01*
X74977997Y-55082274D01*
X75014142Y-55046130D01*
X75091566Y-55007419D01*
X75258435Y-55007419D01*
X75335858Y-55046130D01*
G37*
G36*
X74383477Y-55046130D02*
G01*
X74419621Y-55082275D01*
X74458333Y-55159698D01*
X74458333Y-55278948D01*
X74419621Y-55356371D01*
X74383477Y-55392516D01*
X74306054Y-55431228D01*
X73986905Y-55431228D01*
X73986905Y-55007419D01*
X74306054Y-55007419D01*
X74383477Y-55046130D01*
G37*
G36*
X75621825Y-56118530D02*
G01*
X73775794Y-56118530D01*
X73775794Y-54957419D01*
X73886905Y-54957419D01*
X73886905Y-55957419D01*
X73890711Y-55976553D01*
X73917771Y-56003613D01*
X73956039Y-56003613D01*
X73983099Y-55976553D01*
X73986905Y-55957419D01*
X73986905Y-55531228D01*
X74148967Y-55531228D01*
X74467371Y-55986092D01*
X74481462Y-55999585D01*
X74519148Y-56006235D01*
X74550499Y-55984290D01*
X74557149Y-55946604D01*
X74549295Y-55928746D01*
X74271033Y-55531228D01*
X74317857Y-55531228D01*
X74320313Y-55530739D01*
X74321402Y-55531102D01*
X74329129Y-55528985D01*
X74336991Y-55527422D01*
X74337802Y-55526610D01*
X74340218Y-55525949D01*
X74435455Y-55478331D01*
X74441788Y-55473415D01*
X74448450Y-55468964D01*
X74496069Y-55421346D01*
X74500523Y-55414679D01*
X74505435Y-55408351D01*
X74553054Y-55313113D01*
X74553715Y-55310697D01*
X74554527Y-55309886D01*
X74556090Y-55302024D01*
X74558207Y-55294297D01*
X74557844Y-55293208D01*
X74558333Y-55290752D01*
X74558333Y-55147895D01*
X74839286Y-55147895D01*
X74839286Y-55195514D01*
X74839774Y-55197970D01*
X74839412Y-55199059D01*
X74841528Y-55206786D01*
X74843092Y-55214648D01*
X74843903Y-55215459D01*
X74844565Y-55217875D01*
X74892183Y-55313112D01*
X74897098Y-55319445D01*
X74901550Y-55326107D01*
X74949168Y-55373726D01*
X74955834Y-55378180D01*
X74962163Y-55383092D01*
X74967959Y-55385990D01*
X74962163Y-55388888D01*
X74955834Y-55393799D01*
X74949168Y-55398254D01*
X74901550Y-55445873D01*
X74897098Y-55452534D01*
X74892183Y-55458868D01*
X74844565Y-55554105D01*
X74843903Y-55556520D01*
X74843092Y-55557332D01*
X74841528Y-55565193D01*
X74839412Y-55572921D01*
X74839774Y-55574009D01*
X74839286Y-55576466D01*
X74839286Y-55766942D01*
X74839774Y-55769398D01*
X74839412Y-55770487D01*
X74841528Y-55778214D01*
X74843092Y-55786076D01*
X74843903Y-55786887D01*
X74844565Y-55789303D01*
X74892183Y-55884540D01*
X74897094Y-55890868D01*
X74901549Y-55897535D01*
X74949168Y-55945155D01*
X74955834Y-55949609D01*
X74962163Y-55954521D01*
X75057401Y-56002140D01*
X75059816Y-56002801D01*
X75060628Y-56003613D01*
X75068489Y-56005176D01*
X75076217Y-56007293D01*
X75077305Y-56006930D01*
X75079762Y-56007419D01*
X75270238Y-56007419D01*
X75272694Y-56006930D01*
X75273783Y-56007293D01*
X75281510Y-56005176D01*
X75289372Y-56003613D01*
X75290183Y-56002801D01*
X75292599Y-56002140D01*
X75387836Y-55954522D01*
X75394163Y-55949611D01*
X75400832Y-55945155D01*
X75448451Y-55897535D01*
X75452904Y-55890869D01*
X75457816Y-55884541D01*
X75505435Y-55789303D01*
X75506096Y-55786887D01*
X75506908Y-55786076D01*
X75508471Y-55778214D01*
X75510588Y-55770487D01*
X75510225Y-55769398D01*
X75510714Y-55766942D01*
X75510714Y-55576466D01*
X75510225Y-55574009D01*
X75510588Y-55572921D01*
X75508471Y-55565193D01*
X75506908Y-55557332D01*
X75506096Y-55556520D01*
X75505435Y-55554105D01*
X75457816Y-55458867D01*
X75452904Y-55452538D01*
X75448450Y-55445872D01*
X75400831Y-55398254D01*
X75394169Y-55393802D01*
X75387836Y-55388887D01*
X75382041Y-55385990D01*
X75387836Y-55383093D01*
X75394169Y-55378177D01*
X75400831Y-55373726D01*
X75448450Y-55326108D01*
X75452904Y-55319441D01*
X75457816Y-55313113D01*
X75505435Y-55217875D01*
X75506096Y-55215459D01*
X75506908Y-55214648D01*
X75508471Y-55206786D01*
X75510588Y-55199059D01*
X75510225Y-55197970D01*
X75510714Y-55195514D01*
X75510714Y-55147895D01*
X75510225Y-55145438D01*
X75510588Y-55144350D01*
X75508471Y-55136622D01*
X75506908Y-55128761D01*
X75506096Y-55127949D01*
X75505435Y-55125534D01*
X75457816Y-55030296D01*
X75452904Y-55023967D01*
X75448450Y-55017301D01*
X75400831Y-54969683D01*
X75394169Y-54965231D01*
X75387836Y-54960316D01*
X75292599Y-54912698D01*
X75290183Y-54912036D01*
X75289372Y-54911225D01*
X75281510Y-54909661D01*
X75273783Y-54907545D01*
X75272694Y-54907907D01*
X75270238Y-54907419D01*
X75079762Y-54907419D01*
X75077305Y-54907907D01*
X75076217Y-54907545D01*
X75068489Y-54909661D01*
X75060628Y-54911225D01*
X75059816Y-54912036D01*
X75057401Y-54912698D01*
X74962163Y-54960317D01*
X74955834Y-54965228D01*
X74949168Y-54969683D01*
X74901550Y-55017302D01*
X74897098Y-55023963D01*
X74892183Y-55030297D01*
X74844565Y-55125534D01*
X74843903Y-55127949D01*
X74843092Y-55128761D01*
X74841528Y-55136622D01*
X74839412Y-55144350D01*
X74839774Y-55145438D01*
X74839286Y-55147895D01*
X74558333Y-55147895D01*
X74557844Y-55145438D01*
X74558207Y-55144350D01*
X74556090Y-55136622D01*
X74554527Y-55128761D01*
X74553715Y-55127949D01*
X74553054Y-55125534D01*
X74505435Y-55030296D01*
X74500523Y-55023967D01*
X74496069Y-55017301D01*
X74448450Y-54969683D01*
X74441788Y-54965231D01*
X74435455Y-54960316D01*
X74340218Y-54912698D01*
X74337802Y-54912036D01*
X74336991Y-54911225D01*
X74329129Y-54909661D01*
X74321402Y-54907545D01*
X74320313Y-54907907D01*
X74317857Y-54907419D01*
X73936905Y-54907419D01*
X73917771Y-54911225D01*
X73890711Y-54938285D01*
X73886905Y-54957419D01*
X73775794Y-54957419D01*
X73775794Y-54796308D01*
X75621825Y-54796308D01*
X75621825Y-56118530D01*
G37*
D10*
X91238095Y-78306819D02*
X91809523Y-78306819D01*
X91523809Y-79306819D02*
X91523809Y-78306819D01*
X92142857Y-79306819D02*
X92142857Y-78306819D01*
X92142857Y-78306819D02*
X92523809Y-78306819D01*
X92523809Y-78306819D02*
X92619047Y-78354438D01*
X92619047Y-78354438D02*
X92666666Y-78402057D01*
X92666666Y-78402057D02*
X92714285Y-78497295D01*
X92714285Y-78497295D02*
X92714285Y-78640152D01*
X92714285Y-78640152D02*
X92666666Y-78735390D01*
X92666666Y-78735390D02*
X92619047Y-78783009D01*
X92619047Y-78783009D02*
X92523809Y-78830628D01*
X92523809Y-78830628D02*
X92142857Y-78830628D01*
X93666666Y-79306819D02*
X93095238Y-79306819D01*
X93380952Y-79306819D02*
X93380952Y-78306819D01*
X93380952Y-78306819D02*
X93285714Y-78449676D01*
X93285714Y-78449676D02*
X93190476Y-78544914D01*
X93190476Y-78544914D02*
X93095238Y-78592533D01*
X64615597Y-64184173D02*
X64615597Y-64251517D01*
X64615597Y-64251517D02*
X64548253Y-64386204D01*
X64548253Y-64386204D02*
X64480910Y-64453547D01*
X64480910Y-64453547D02*
X64346223Y-64520891D01*
X64346223Y-64520891D02*
X64211536Y-64520891D01*
X64211536Y-64520891D02*
X64110521Y-64487219D01*
X64110521Y-64487219D02*
X63942162Y-64386204D01*
X63942162Y-64386204D02*
X63841147Y-64285189D01*
X63841147Y-64285189D02*
X63740131Y-64116830D01*
X63740131Y-64116830D02*
X63706460Y-64015815D01*
X63706460Y-64015815D02*
X63706460Y-63881128D01*
X63706460Y-63881128D02*
X63773803Y-63746441D01*
X63773803Y-63746441D02*
X63841147Y-63679097D01*
X63841147Y-63679097D02*
X63975834Y-63611754D01*
X63975834Y-63611754D02*
X64043177Y-63611754D01*
X64211536Y-63308708D02*
X64682940Y-62837303D01*
X64682940Y-62837303D02*
X65087001Y-63847456D01*
X82859580Y-83666666D02*
X82907200Y-83714285D01*
X82907200Y-83714285D02*
X82954819Y-83857142D01*
X82954819Y-83857142D02*
X82954819Y-83952380D01*
X82954819Y-83952380D02*
X82907200Y-84095237D01*
X82907200Y-84095237D02*
X82811961Y-84190475D01*
X82811961Y-84190475D02*
X82716723Y-84238094D01*
X82716723Y-84238094D02*
X82526247Y-84285713D01*
X82526247Y-84285713D02*
X82383390Y-84285713D01*
X82383390Y-84285713D02*
X82192914Y-84238094D01*
X82192914Y-84238094D02*
X82097676Y-84190475D01*
X82097676Y-84190475D02*
X82002438Y-84095237D01*
X82002438Y-84095237D02*
X81954819Y-83952380D01*
X81954819Y-83952380D02*
X81954819Y-83857142D01*
X81954819Y-83857142D02*
X82002438Y-83714285D01*
X82002438Y-83714285D02*
X82050057Y-83666666D01*
X81954819Y-83333332D02*
X81954819Y-82714285D01*
X81954819Y-82714285D02*
X82335771Y-83047618D01*
X82335771Y-83047618D02*
X82335771Y-82904761D01*
X82335771Y-82904761D02*
X82383390Y-82809523D01*
X82383390Y-82809523D02*
X82431009Y-82761904D01*
X82431009Y-82761904D02*
X82526247Y-82714285D01*
X82526247Y-82714285D02*
X82764342Y-82714285D01*
X82764342Y-82714285D02*
X82859580Y-82761904D01*
X82859580Y-82761904D02*
X82907200Y-82809523D01*
X82907200Y-82809523D02*
X82954819Y-82904761D01*
X82954819Y-82904761D02*
X82954819Y-83190475D01*
X82954819Y-83190475D02*
X82907200Y-83285713D01*
X82907200Y-83285713D02*
X82859580Y-83333332D01*
X74238095Y-90954819D02*
X74238095Y-91764342D01*
X74238095Y-91764342D02*
X74285714Y-91859580D01*
X74285714Y-91859580D02*
X74333333Y-91907200D01*
X74333333Y-91907200D02*
X74428571Y-91954819D01*
X74428571Y-91954819D02*
X74619047Y-91954819D01*
X74619047Y-91954819D02*
X74714285Y-91907200D01*
X74714285Y-91907200D02*
X74761904Y-91859580D01*
X74761904Y-91859580D02*
X74809523Y-91764342D01*
X74809523Y-91764342D02*
X74809523Y-90954819D01*
X75809523Y-91954819D02*
X75238095Y-91954819D01*
X75523809Y-91954819D02*
X75523809Y-90954819D01*
X75523809Y-90954819D02*
X75428571Y-91097676D01*
X75428571Y-91097676D02*
X75333333Y-91192914D01*
X75333333Y-91192914D02*
X75238095Y-91240533D01*
X60859580Y-68142857D02*
X60907200Y-68190476D01*
X60907200Y-68190476D02*
X60954819Y-68333333D01*
X60954819Y-68333333D02*
X60954819Y-68428571D01*
X60954819Y-68428571D02*
X60907200Y-68571428D01*
X60907200Y-68571428D02*
X60811961Y-68666666D01*
X60811961Y-68666666D02*
X60716723Y-68714285D01*
X60716723Y-68714285D02*
X60526247Y-68761904D01*
X60526247Y-68761904D02*
X60383390Y-68761904D01*
X60383390Y-68761904D02*
X60192914Y-68714285D01*
X60192914Y-68714285D02*
X60097676Y-68666666D01*
X60097676Y-68666666D02*
X60002438Y-68571428D01*
X60002438Y-68571428D02*
X59954819Y-68428571D01*
X59954819Y-68428571D02*
X59954819Y-68333333D01*
X59954819Y-68333333D02*
X60002438Y-68190476D01*
X60002438Y-68190476D02*
X60050057Y-68142857D01*
X60954819Y-67190476D02*
X60954819Y-67761904D01*
X60954819Y-67476190D02*
X59954819Y-67476190D01*
X59954819Y-67476190D02*
X60097676Y-67571428D01*
X60097676Y-67571428D02*
X60192914Y-67666666D01*
X60192914Y-67666666D02*
X60240533Y-67761904D01*
X60954819Y-66714285D02*
X60954819Y-66523809D01*
X60954819Y-66523809D02*
X60907200Y-66428571D01*
X60907200Y-66428571D02*
X60859580Y-66380952D01*
X60859580Y-66380952D02*
X60716723Y-66285714D01*
X60716723Y-66285714D02*
X60526247Y-66238095D01*
X60526247Y-66238095D02*
X60145295Y-66238095D01*
X60145295Y-66238095D02*
X60050057Y-66285714D01*
X60050057Y-66285714D02*
X60002438Y-66333333D01*
X60002438Y-66333333D02*
X59954819Y-66428571D01*
X59954819Y-66428571D02*
X59954819Y-66619047D01*
X59954819Y-66619047D02*
X60002438Y-66714285D01*
X60002438Y-66714285D02*
X60050057Y-66761904D01*
X60050057Y-66761904D02*
X60145295Y-66809523D01*
X60145295Y-66809523D02*
X60383390Y-66809523D01*
X60383390Y-66809523D02*
X60478628Y-66761904D01*
X60478628Y-66761904D02*
X60526247Y-66714285D01*
X60526247Y-66714285D02*
X60573866Y-66619047D01*
X60573866Y-66619047D02*
X60573866Y-66428571D01*
X60573866Y-66428571D02*
X60526247Y-66333333D01*
X60526247Y-66333333D02*
X60478628Y-66285714D01*
X60478628Y-66285714D02*
X60383390Y-66238095D01*
D11*
G36*
X56417724Y-92802997D02*
G01*
X56453868Y-92839142D01*
X56492580Y-92916565D01*
X56492580Y-93083434D01*
X56453868Y-93160857D01*
X56417724Y-93197002D01*
X56340301Y-93235714D01*
X56125813Y-93235714D01*
X56048389Y-93197002D01*
X56012244Y-93160858D01*
X55973533Y-93083435D01*
X55973533Y-92916565D01*
X56012244Y-92839141D01*
X56048389Y-92802997D01*
X56125813Y-92764286D01*
X56340301Y-92764286D01*
X56417724Y-92802997D01*
G37*
G36*
X56492580Y-91991887D02*
G01*
X56451259Y-92115848D01*
X56370106Y-92197002D01*
X56287034Y-92238538D01*
X56107854Y-92283333D01*
X55977307Y-92283333D01*
X55798128Y-92238538D01*
X55715054Y-92197001D01*
X55633901Y-92115848D01*
X55592580Y-91991885D01*
X55592580Y-91811905D01*
X56492580Y-91811905D01*
X56492580Y-91991887D01*
G37*
G36*
X56703691Y-93446825D02*
G01*
X55381469Y-93446825D01*
X55381469Y-92809524D01*
X55492580Y-92809524D01*
X55492580Y-93000000D01*
X55493068Y-93002456D01*
X55492706Y-93003545D01*
X55494822Y-93011272D01*
X55496386Y-93019134D01*
X55497197Y-93019945D01*
X55497859Y-93022361D01*
X55545479Y-93117599D01*
X55550394Y-93123933D01*
X55554845Y-93130593D01*
X55602463Y-93178212D01*
X55606579Y-93180962D01*
X55610084Y-93184460D01*
X55752941Y-93279698D01*
X55760841Y-93282960D01*
X55768549Y-93286602D01*
X55959025Y-93334221D01*
X55965142Y-93334518D01*
X55971152Y-93335714D01*
X56352104Y-93335714D01*
X56354560Y-93335225D01*
X56355649Y-93335588D01*
X56363376Y-93333471D01*
X56371238Y-93331908D01*
X56372049Y-93331096D01*
X56374465Y-93330435D01*
X56469702Y-93282817D01*
X56476035Y-93277901D01*
X56482697Y-93273450D01*
X56530316Y-93225832D01*
X56534770Y-93219165D01*
X56539682Y-93212837D01*
X56587301Y-93117599D01*
X56587962Y-93115183D01*
X56588774Y-93114372D01*
X56590337Y-93106510D01*
X56592454Y-93098783D01*
X56592091Y-93097694D01*
X56592580Y-93095238D01*
X56592580Y-92904762D01*
X56592091Y-92902305D01*
X56592454Y-92901217D01*
X56590337Y-92893489D01*
X56588774Y-92885628D01*
X56587962Y-92884816D01*
X56587301Y-92882401D01*
X56539682Y-92787163D01*
X56534770Y-92780834D01*
X56530316Y-92774168D01*
X56482697Y-92726550D01*
X56476035Y-92722098D01*
X56469702Y-92717183D01*
X56374465Y-92669565D01*
X56372049Y-92668903D01*
X56371238Y-92668092D01*
X56363376Y-92666528D01*
X56355649Y-92664412D01*
X56354560Y-92664774D01*
X56352104Y-92664286D01*
X56114009Y-92664286D01*
X56111552Y-92664774D01*
X56110464Y-92664412D01*
X56102736Y-92666528D01*
X56094875Y-92668092D01*
X56094063Y-92668903D01*
X56091648Y-92669565D01*
X55996410Y-92717184D01*
X55990081Y-92722095D01*
X55983415Y-92726550D01*
X55935797Y-92774169D01*
X55931345Y-92780830D01*
X55926430Y-92787164D01*
X55878812Y-92882401D01*
X55878150Y-92884816D01*
X55877339Y-92885628D01*
X55875775Y-92893489D01*
X55873659Y-92901217D01*
X55874021Y-92902305D01*
X55873533Y-92904762D01*
X55873533Y-93095238D01*
X55874021Y-93097694D01*
X55873659Y-93098783D01*
X55875775Y-93106510D01*
X55877339Y-93114372D01*
X55878150Y-93115183D01*
X55878812Y-93117599D01*
X55926430Y-93212836D01*
X55931345Y-93219169D01*
X55935400Y-93225237D01*
X55801203Y-93191688D01*
X55669672Y-93103999D01*
X55631292Y-93065620D01*
X55592580Y-92988196D01*
X55592580Y-92809524D01*
X55588774Y-92790390D01*
X55561714Y-92763330D01*
X55523446Y-92763330D01*
X55496386Y-92790390D01*
X55492580Y-92809524D01*
X55381469Y-92809524D01*
X55381469Y-91761905D01*
X55492580Y-91761905D01*
X55492580Y-92000000D01*
X55494143Y-92007861D01*
X55495146Y-92015812D01*
X55542766Y-92158669D01*
X55544006Y-92160844D01*
X55544006Y-92161991D01*
X55548455Y-92168649D01*
X55552427Y-92175617D01*
X55553454Y-92176130D01*
X55554845Y-92178212D01*
X55650083Y-92273450D01*
X55656742Y-92277900D01*
X55663077Y-92282816D01*
X55758315Y-92330435D01*
X55763596Y-92331881D01*
X55768549Y-92334221D01*
X55959025Y-92381840D01*
X55965142Y-92382137D01*
X55971152Y-92383333D01*
X56114009Y-92383333D01*
X56120018Y-92382137D01*
X56126136Y-92381840D01*
X56316612Y-92334221D01*
X56321564Y-92331881D01*
X56326846Y-92330435D01*
X56422083Y-92282817D01*
X56428416Y-92277901D01*
X56435078Y-92273450D01*
X56530316Y-92178212D01*
X56531706Y-92176130D01*
X56532734Y-92175617D01*
X56536704Y-92168651D01*
X56541155Y-92161991D01*
X56541155Y-92160843D01*
X56542395Y-92158668D01*
X56590014Y-92015812D01*
X56591016Y-92007861D01*
X56592580Y-92000000D01*
X56592580Y-91761905D01*
X56588774Y-91742771D01*
X56561714Y-91715711D01*
X56542580Y-91711905D01*
X55542580Y-91711905D01*
X55523446Y-91715711D01*
X55496386Y-91742771D01*
X55492580Y-91761905D01*
X55381469Y-91761905D01*
X55381469Y-91600794D01*
X56703691Y-91600794D01*
X56703691Y-93446825D01*
G37*
D10*
X69303536Y-67372112D02*
X69303536Y-67439456D01*
X69303536Y-67439456D02*
X69236192Y-67574143D01*
X69236192Y-67574143D02*
X69168849Y-67641486D01*
X69168849Y-67641486D02*
X69034162Y-67708830D01*
X69034162Y-67708830D02*
X68899475Y-67708830D01*
X68899475Y-67708830D02*
X68798460Y-67675158D01*
X68798460Y-67675158D02*
X68630101Y-67574143D01*
X68630101Y-67574143D02*
X68529086Y-67473128D01*
X68529086Y-67473128D02*
X68428070Y-67304769D01*
X68428070Y-67304769D02*
X68394399Y-67203754D01*
X68394399Y-67203754D02*
X68394399Y-67069067D01*
X68394399Y-67069067D02*
X68461742Y-66934380D01*
X68461742Y-66934380D02*
X68529086Y-66867036D01*
X68529086Y-66867036D02*
X68663773Y-66799693D01*
X68663773Y-66799693D02*
X68731116Y-66799693D01*
X69370879Y-66631334D02*
X69269864Y-66665006D01*
X69269864Y-66665006D02*
X69202521Y-66665006D01*
X69202521Y-66665006D02*
X69101505Y-66631334D01*
X69101505Y-66631334D02*
X69067834Y-66597662D01*
X69067834Y-66597662D02*
X69034162Y-66496647D01*
X69034162Y-66496647D02*
X69034162Y-66429303D01*
X69034162Y-66429303D02*
X69067834Y-66328288D01*
X69067834Y-66328288D02*
X69202521Y-66193601D01*
X69202521Y-66193601D02*
X69303536Y-66159929D01*
X69303536Y-66159929D02*
X69370879Y-66159929D01*
X69370879Y-66159929D02*
X69471895Y-66193601D01*
X69471895Y-66193601D02*
X69505566Y-66227273D01*
X69505566Y-66227273D02*
X69539238Y-66328288D01*
X69539238Y-66328288D02*
X69539238Y-66395632D01*
X69539238Y-66395632D02*
X69505566Y-66496647D01*
X69505566Y-66496647D02*
X69370879Y-66631334D01*
X69370879Y-66631334D02*
X69337208Y-66732349D01*
X69337208Y-66732349D02*
X69337208Y-66799693D01*
X69337208Y-66799693D02*
X69370879Y-66900708D01*
X69370879Y-66900708D02*
X69505566Y-67035395D01*
X69505566Y-67035395D02*
X69606582Y-67069067D01*
X69606582Y-67069067D02*
X69673925Y-67069067D01*
X69673925Y-67069067D02*
X69774940Y-67035395D01*
X69774940Y-67035395D02*
X69909627Y-66900708D01*
X69909627Y-66900708D02*
X69943299Y-66799693D01*
X69943299Y-66799693D02*
X69943299Y-66732349D01*
X69943299Y-66732349D02*
X69909627Y-66631334D01*
X69909627Y-66631334D02*
X69774940Y-66496647D01*
X69774940Y-66496647D02*
X69673925Y-66462975D01*
X69673925Y-66462975D02*
X69606582Y-66462975D01*
X69606582Y-66462975D02*
X69505566Y-66496647D01*
D11*
X50666667Y-54297300D02*
X50809524Y-54344919D01*
X50809524Y-54344919D02*
X51047619Y-54344919D01*
X51047619Y-54344919D02*
X51142857Y-54297300D01*
X51142857Y-54297300D02*
X51190476Y-54249680D01*
X51190476Y-54249680D02*
X51238095Y-54154442D01*
X51238095Y-54154442D02*
X51238095Y-54059204D01*
X51238095Y-54059204D02*
X51190476Y-53963966D01*
X51190476Y-53963966D02*
X51142857Y-53916347D01*
X51142857Y-53916347D02*
X51047619Y-53868728D01*
X51047619Y-53868728D02*
X50857143Y-53821109D01*
X50857143Y-53821109D02*
X50761905Y-53773490D01*
X50761905Y-53773490D02*
X50714286Y-53725871D01*
X50714286Y-53725871D02*
X50666667Y-53630633D01*
X50666667Y-53630633D02*
X50666667Y-53535395D01*
X50666667Y-53535395D02*
X50714286Y-53440157D01*
X50714286Y-53440157D02*
X50761905Y-53392538D01*
X50761905Y-53392538D02*
X50857143Y-53344919D01*
X50857143Y-53344919D02*
X51095238Y-53344919D01*
X51095238Y-53344919D02*
X51238095Y-53392538D01*
X51571429Y-53344919D02*
X51809524Y-54344919D01*
X51809524Y-54344919D02*
X52000000Y-53630633D01*
X52000000Y-53630633D02*
X52190476Y-54344919D01*
X52190476Y-54344919D02*
X52428572Y-53344919D01*
X53285714Y-53344919D02*
X52809524Y-53344919D01*
X52809524Y-53344919D02*
X52761905Y-53821109D01*
X52761905Y-53821109D02*
X52809524Y-53773490D01*
X52809524Y-53773490D02*
X52904762Y-53725871D01*
X52904762Y-53725871D02*
X53142857Y-53725871D01*
X53142857Y-53725871D02*
X53238095Y-53773490D01*
X53238095Y-53773490D02*
X53285714Y-53821109D01*
X53285714Y-53821109D02*
X53333333Y-53916347D01*
X53333333Y-53916347D02*
X53333333Y-54154442D01*
X53333333Y-54154442D02*
X53285714Y-54249680D01*
X53285714Y-54249680D02*
X53238095Y-54297300D01*
X53238095Y-54297300D02*
X53142857Y-54344919D01*
X53142857Y-54344919D02*
X52904762Y-54344919D01*
X52904762Y-54344919D02*
X52809524Y-54297300D01*
X52809524Y-54297300D02*
X52761905Y-54249680D01*
D10*
X66026705Y-72142857D02*
X66074325Y-72190476D01*
X66074325Y-72190476D02*
X66121944Y-72333333D01*
X66121944Y-72333333D02*
X66121944Y-72428571D01*
X66121944Y-72428571D02*
X66074325Y-72571428D01*
X66074325Y-72571428D02*
X65979086Y-72666666D01*
X65979086Y-72666666D02*
X65883848Y-72714285D01*
X65883848Y-72714285D02*
X65693372Y-72761904D01*
X65693372Y-72761904D02*
X65550515Y-72761904D01*
X65550515Y-72761904D02*
X65360039Y-72714285D01*
X65360039Y-72714285D02*
X65264801Y-72666666D01*
X65264801Y-72666666D02*
X65169563Y-72571428D01*
X65169563Y-72571428D02*
X65121944Y-72428571D01*
X65121944Y-72428571D02*
X65121944Y-72333333D01*
X65121944Y-72333333D02*
X65169563Y-72190476D01*
X65169563Y-72190476D02*
X65217182Y-72142857D01*
X66121944Y-71190476D02*
X66121944Y-71761904D01*
X66121944Y-71476190D02*
X65121944Y-71476190D01*
X65121944Y-71476190D02*
X65264801Y-71571428D01*
X65264801Y-71571428D02*
X65360039Y-71666666D01*
X65360039Y-71666666D02*
X65407658Y-71761904D01*
X65121944Y-70857142D02*
X65121944Y-70238095D01*
X65121944Y-70238095D02*
X65502896Y-70571428D01*
X65502896Y-70571428D02*
X65502896Y-70428571D01*
X65502896Y-70428571D02*
X65550515Y-70333333D01*
X65550515Y-70333333D02*
X65598134Y-70285714D01*
X65598134Y-70285714D02*
X65693372Y-70238095D01*
X65693372Y-70238095D02*
X65931467Y-70238095D01*
X65931467Y-70238095D02*
X66026705Y-70285714D01*
X66026705Y-70285714D02*
X66074325Y-70333333D01*
X66074325Y-70333333D02*
X66121944Y-70428571D01*
X66121944Y-70428571D02*
X66121944Y-70714285D01*
X66121944Y-70714285D02*
X66074325Y-70809523D01*
X66074325Y-70809523D02*
X66026705Y-70857142D01*
D11*
G36*
X51660857Y-57012244D02*
G01*
X51697001Y-57048389D01*
X51735713Y-57125812D01*
X51735713Y-57340300D01*
X51697001Y-57417723D01*
X51660857Y-57453868D01*
X51583434Y-57492580D01*
X51416565Y-57492580D01*
X51339141Y-57453868D01*
X51302996Y-57417724D01*
X51264285Y-57340301D01*
X51264285Y-57125812D01*
X51302996Y-57048388D01*
X51339141Y-57012244D01*
X51416565Y-56973533D01*
X51583434Y-56973533D01*
X51660857Y-57012244D01*
G37*
G36*
X52688094Y-57492580D02*
G01*
X52368946Y-57492580D01*
X52291522Y-57453868D01*
X52255377Y-57417724D01*
X52216666Y-57340301D01*
X52216666Y-57221050D01*
X52255377Y-57143626D01*
X52291522Y-57107482D01*
X52368946Y-57068771D01*
X52688094Y-57068771D01*
X52688094Y-57492580D01*
G37*
G36*
X52899205Y-57703691D02*
G01*
X51053174Y-57703691D01*
X51053174Y-56971152D01*
X51164285Y-56971152D01*
X51164285Y-57352104D01*
X51164773Y-57354560D01*
X51164411Y-57355649D01*
X51166527Y-57363376D01*
X51168091Y-57371238D01*
X51168902Y-57372049D01*
X51169564Y-57374465D01*
X51217182Y-57469702D01*
X51222097Y-57476035D01*
X51226549Y-57482697D01*
X51274167Y-57530316D01*
X51280833Y-57534770D01*
X51287162Y-57539682D01*
X51382400Y-57587301D01*
X51384815Y-57587962D01*
X51385627Y-57588774D01*
X51393488Y-57590337D01*
X51401216Y-57592454D01*
X51402304Y-57592091D01*
X51404761Y-57592580D01*
X51595237Y-57592580D01*
X51597693Y-57592091D01*
X51598782Y-57592454D01*
X51606509Y-57590337D01*
X51614371Y-57588774D01*
X51615182Y-57587962D01*
X51617598Y-57587301D01*
X51712835Y-57539683D01*
X51719168Y-57534767D01*
X51725830Y-57530316D01*
X51773449Y-57482698D01*
X51777903Y-57476031D01*
X51782815Y-57469703D01*
X51830434Y-57374465D01*
X51831095Y-57372049D01*
X51831907Y-57371238D01*
X51833470Y-57363376D01*
X51835587Y-57355649D01*
X51835224Y-57354560D01*
X51835713Y-57352104D01*
X51835713Y-57209247D01*
X52116666Y-57209247D01*
X52116666Y-57352104D01*
X52117154Y-57354560D01*
X52116792Y-57355649D01*
X52118908Y-57363376D01*
X52120472Y-57371238D01*
X52121283Y-57372049D01*
X52121945Y-57374465D01*
X52169563Y-57469702D01*
X52174478Y-57476035D01*
X52178930Y-57482697D01*
X52226548Y-57530316D01*
X52233214Y-57534770D01*
X52239543Y-57539682D01*
X52334781Y-57587301D01*
X52337196Y-57587962D01*
X52338008Y-57588774D01*
X52345869Y-57590337D01*
X52353597Y-57592454D01*
X52354685Y-57592091D01*
X52357142Y-57592580D01*
X52738094Y-57592580D01*
X52757228Y-57588774D01*
X52784288Y-57561714D01*
X52788094Y-57542580D01*
X52788094Y-56542580D01*
X52784288Y-56523446D01*
X52757228Y-56496386D01*
X52718960Y-56496386D01*
X52691900Y-56523446D01*
X52688094Y-56542580D01*
X52688094Y-56968771D01*
X52526032Y-56968771D01*
X52207628Y-56513907D01*
X52193537Y-56500414D01*
X52155851Y-56493764D01*
X52124500Y-56515709D01*
X52117850Y-56553395D01*
X52125704Y-56571253D01*
X52403966Y-56968771D01*
X52357142Y-56968771D01*
X52354685Y-56969259D01*
X52353597Y-56968897D01*
X52345869Y-56971013D01*
X52338008Y-56972577D01*
X52337196Y-56973388D01*
X52334781Y-56974050D01*
X52239543Y-57021669D01*
X52233214Y-57026580D01*
X52226548Y-57031035D01*
X52178930Y-57078654D01*
X52174478Y-57085315D01*
X52169563Y-57091649D01*
X52121945Y-57186886D01*
X52121283Y-57189301D01*
X52120472Y-57190113D01*
X52118908Y-57197974D01*
X52116792Y-57205702D01*
X52117154Y-57206790D01*
X52116666Y-57209247D01*
X51835713Y-57209247D01*
X51835713Y-57114009D01*
X51835224Y-57111552D01*
X51835587Y-57110464D01*
X51833470Y-57102736D01*
X51831907Y-57094875D01*
X51831095Y-57094063D01*
X51830434Y-57091648D01*
X51782815Y-56996410D01*
X51777903Y-56990081D01*
X51773449Y-56983415D01*
X51725830Y-56935797D01*
X51719168Y-56931345D01*
X51712835Y-56926430D01*
X51617598Y-56878812D01*
X51615182Y-56878150D01*
X51614371Y-56877339D01*
X51606509Y-56875775D01*
X51598782Y-56873659D01*
X51597693Y-56874021D01*
X51595237Y-56873533D01*
X51404761Y-56873533D01*
X51402304Y-56874021D01*
X51401216Y-56873659D01*
X51393488Y-56875775D01*
X51385627Y-56877339D01*
X51384815Y-56878150D01*
X51382400Y-56878812D01*
X51287162Y-56926431D01*
X51280833Y-56931342D01*
X51274761Y-56935399D01*
X51308310Y-56801206D01*
X51396000Y-56669670D01*
X51434379Y-56631291D01*
X51511802Y-56592580D01*
X51690475Y-56592580D01*
X51709609Y-56588774D01*
X51736669Y-56561714D01*
X51736669Y-56523446D01*
X51709609Y-56496386D01*
X51690475Y-56492580D01*
X51499999Y-56492580D01*
X51497542Y-56493068D01*
X51496454Y-56492706D01*
X51488726Y-56494822D01*
X51480865Y-56496386D01*
X51480053Y-56497197D01*
X51477638Y-56497859D01*
X51382400Y-56545479D01*
X51376071Y-56550390D01*
X51369405Y-56554845D01*
X51321787Y-56602464D01*
X51319036Y-56606579D01*
X51315540Y-56610084D01*
X51220301Y-56752941D01*
X51217041Y-56760833D01*
X51213397Y-56768549D01*
X51165778Y-56959025D01*
X51165480Y-56965142D01*
X51164285Y-56971152D01*
X51053174Y-56971152D01*
X51053174Y-56381469D01*
X52899205Y-56381469D01*
X52899205Y-57703691D01*
G37*
D10*
X91238095Y-81806819D02*
X91809523Y-81806819D01*
X91523809Y-82806819D02*
X91523809Y-81806819D01*
X92142857Y-82806819D02*
X92142857Y-81806819D01*
X92142857Y-81806819D02*
X92523809Y-81806819D01*
X92523809Y-81806819D02*
X92619047Y-81854438D01*
X92619047Y-81854438D02*
X92666666Y-81902057D01*
X92666666Y-81902057D02*
X92714285Y-81997295D01*
X92714285Y-81997295D02*
X92714285Y-82140152D01*
X92714285Y-82140152D02*
X92666666Y-82235390D01*
X92666666Y-82235390D02*
X92619047Y-82283009D01*
X92619047Y-82283009D02*
X92523809Y-82330628D01*
X92523809Y-82330628D02*
X92142857Y-82330628D01*
X93047619Y-81806819D02*
X93666666Y-81806819D01*
X93666666Y-81806819D02*
X93333333Y-82187771D01*
X93333333Y-82187771D02*
X93476190Y-82187771D01*
X93476190Y-82187771D02*
X93571428Y-82235390D01*
X93571428Y-82235390D02*
X93619047Y-82283009D01*
X93619047Y-82283009D02*
X93666666Y-82378247D01*
X93666666Y-82378247D02*
X93666666Y-82616342D01*
X93666666Y-82616342D02*
X93619047Y-82711580D01*
X93619047Y-82711580D02*
X93571428Y-82759200D01*
X93571428Y-82759200D02*
X93476190Y-82806819D01*
X93476190Y-82806819D02*
X93190476Y-82806819D01*
X93190476Y-82806819D02*
X93095238Y-82759200D01*
X93095238Y-82759200D02*
X93047619Y-82711580D01*
D11*
G36*
X55856372Y-68731568D02*
G01*
X55892516Y-68767713D01*
X55931228Y-68845136D01*
X55931228Y-69164285D01*
X55507419Y-69164285D01*
X55507419Y-68845136D01*
X55546130Y-68767712D01*
X55582275Y-68731568D01*
X55659699Y-68692857D01*
X55778949Y-68692857D01*
X55856372Y-68731568D01*
G37*
G36*
X56618530Y-69375396D02*
G01*
X55296308Y-69375396D01*
X55296308Y-68833333D01*
X55407419Y-68833333D01*
X55407419Y-69214285D01*
X55411225Y-69233419D01*
X55438285Y-69260479D01*
X55457419Y-69264285D01*
X56457419Y-69264285D01*
X56476553Y-69260479D01*
X56503613Y-69233419D01*
X56503613Y-69195151D01*
X56476553Y-69168091D01*
X56457419Y-69164285D01*
X56031228Y-69164285D01*
X56031228Y-69002223D01*
X56486092Y-68683819D01*
X56499585Y-68669728D01*
X56506235Y-68632042D01*
X56484290Y-68600691D01*
X56446604Y-68594041D01*
X56428746Y-68601895D01*
X56031228Y-68880157D01*
X56031228Y-68833333D01*
X56030739Y-68830876D01*
X56031102Y-68829788D01*
X56028985Y-68822060D01*
X56027422Y-68814199D01*
X56026610Y-68813387D01*
X56025949Y-68810972D01*
X55978330Y-68715734D01*
X55973418Y-68709405D01*
X55968964Y-68702739D01*
X55921345Y-68655121D01*
X55914683Y-68650669D01*
X55908350Y-68645754D01*
X55813113Y-68598136D01*
X55810697Y-68597474D01*
X55809886Y-68596663D01*
X55802024Y-68595099D01*
X55794297Y-68592983D01*
X55793208Y-68593345D01*
X55790752Y-68592857D01*
X55647895Y-68592857D01*
X55645438Y-68593345D01*
X55644350Y-68592983D01*
X55636622Y-68595099D01*
X55628761Y-68596663D01*
X55627949Y-68597474D01*
X55625534Y-68598136D01*
X55530296Y-68645755D01*
X55523967Y-68650666D01*
X55517301Y-68655121D01*
X55469683Y-68702740D01*
X55465231Y-68709401D01*
X55460316Y-68715735D01*
X55412698Y-68810972D01*
X55412036Y-68813387D01*
X55411225Y-68814199D01*
X55409661Y-68822060D01*
X55407545Y-68829788D01*
X55407907Y-68830876D01*
X55407419Y-68833333D01*
X55296308Y-68833333D01*
X55296308Y-67966487D01*
X55408370Y-67966487D01*
X55411225Y-67980762D01*
X55411225Y-67995324D01*
X55414865Y-67998964D01*
X55415875Y-68004012D01*
X55429684Y-68017793D01*
X55568425Y-68110287D01*
X55654420Y-68196282D01*
X55698411Y-68284264D01*
X55710373Y-68299676D01*
X55746677Y-68311778D01*
X55780905Y-68294664D01*
X55793007Y-68258359D01*
X55787854Y-68239543D01*
X55740235Y-68144305D01*
X55735319Y-68137970D01*
X55730869Y-68131311D01*
X55635631Y-68036073D01*
X55631515Y-68033322D01*
X55628011Y-68029826D01*
X55622557Y-68026190D01*
X56407419Y-68026190D01*
X56407419Y-68261904D01*
X56411225Y-68281038D01*
X56438285Y-68308098D01*
X56476553Y-68308098D01*
X56503613Y-68281038D01*
X56507419Y-68261904D01*
X56507419Y-67690476D01*
X56503613Y-67671342D01*
X56476553Y-67644282D01*
X56438285Y-67644282D01*
X56411225Y-67671342D01*
X56407419Y-67690476D01*
X56407419Y-67926190D01*
X55457419Y-67926190D01*
X55438285Y-67929996D01*
X55434644Y-67933636D01*
X55429597Y-67934646D01*
X55421521Y-67946759D01*
X55411225Y-67957056D01*
X55411225Y-67962204D01*
X55408370Y-67966487D01*
X55296308Y-67966487D01*
X55296308Y-66928571D01*
X55407419Y-66928571D01*
X55407419Y-67166666D01*
X55407907Y-67169122D01*
X55407545Y-67170211D01*
X55409661Y-67177938D01*
X55411225Y-67185800D01*
X55412036Y-67186611D01*
X55412698Y-67189027D01*
X55460316Y-67284264D01*
X55465231Y-67290597D01*
X55469683Y-67297259D01*
X55517301Y-67344878D01*
X55533522Y-67355717D01*
X55571791Y-67355717D01*
X55598851Y-67328657D01*
X55598851Y-67290388D01*
X55588012Y-67274167D01*
X55546130Y-67232286D01*
X55507419Y-67154863D01*
X55507419Y-66940374D01*
X55546130Y-66862950D01*
X55582275Y-66826806D01*
X55659699Y-66788095D01*
X55735020Y-66788095D01*
X55858981Y-66829415D01*
X56422064Y-67392497D01*
X56438285Y-67403336D01*
X56476553Y-67403336D01*
X56503613Y-67376276D01*
X56507419Y-67357142D01*
X56507419Y-66738095D01*
X56503613Y-66718961D01*
X56476553Y-66691901D01*
X56438285Y-66691901D01*
X56411225Y-66718961D01*
X56407419Y-66738095D01*
X56407419Y-67236432D01*
X55921345Y-66750359D01*
X55919262Y-66748967D01*
X55918749Y-66747941D01*
X55911788Y-66743973D01*
X55905124Y-66739520D01*
X55903976Y-66739520D01*
X55901801Y-66738280D01*
X55758944Y-66690661D01*
X55750995Y-66689658D01*
X55743133Y-66688095D01*
X55647895Y-66688095D01*
X55645438Y-66688583D01*
X55644350Y-66688221D01*
X55636622Y-66690337D01*
X55628761Y-66691901D01*
X55627949Y-66692712D01*
X55625534Y-66693374D01*
X55530296Y-66740993D01*
X55523967Y-66745904D01*
X55517301Y-66750359D01*
X55469683Y-66797978D01*
X55465231Y-66804639D01*
X55460316Y-66810973D01*
X55412698Y-66906210D01*
X55412036Y-66908625D01*
X55411225Y-66909437D01*
X55409661Y-66917298D01*
X55407545Y-66925026D01*
X55407907Y-66926114D01*
X55407419Y-66928571D01*
X55296308Y-66928571D01*
X55296308Y-66576984D01*
X56618530Y-66576984D01*
X56618530Y-69375396D01*
G37*
D10*
X51359580Y-73142857D02*
X51407200Y-73190476D01*
X51407200Y-73190476D02*
X51454819Y-73333333D01*
X51454819Y-73333333D02*
X51454819Y-73428571D01*
X51454819Y-73428571D02*
X51407200Y-73571428D01*
X51407200Y-73571428D02*
X51311961Y-73666666D01*
X51311961Y-73666666D02*
X51216723Y-73714285D01*
X51216723Y-73714285D02*
X51026247Y-73761904D01*
X51026247Y-73761904D02*
X50883390Y-73761904D01*
X50883390Y-73761904D02*
X50692914Y-73714285D01*
X50692914Y-73714285D02*
X50597676Y-73666666D01*
X50597676Y-73666666D02*
X50502438Y-73571428D01*
X50502438Y-73571428D02*
X50454819Y-73428571D01*
X50454819Y-73428571D02*
X50454819Y-73333333D01*
X50454819Y-73333333D02*
X50502438Y-73190476D01*
X50502438Y-73190476D02*
X50550057Y-73142857D01*
X51454819Y-72190476D02*
X51454819Y-72761904D01*
X51454819Y-72476190D02*
X50454819Y-72476190D01*
X50454819Y-72476190D02*
X50597676Y-72571428D01*
X50597676Y-72571428D02*
X50692914Y-72666666D01*
X50692914Y-72666666D02*
X50740533Y-72761904D01*
X50454819Y-71333333D02*
X50454819Y-71523809D01*
X50454819Y-71523809D02*
X50502438Y-71619047D01*
X50502438Y-71619047D02*
X50550057Y-71666666D01*
X50550057Y-71666666D02*
X50692914Y-71761904D01*
X50692914Y-71761904D02*
X50883390Y-71809523D01*
X50883390Y-71809523D02*
X51264342Y-71809523D01*
X51264342Y-71809523D02*
X51359580Y-71761904D01*
X51359580Y-71761904D02*
X51407200Y-71714285D01*
X51407200Y-71714285D02*
X51454819Y-71619047D01*
X51454819Y-71619047D02*
X51454819Y-71428571D01*
X51454819Y-71428571D02*
X51407200Y-71333333D01*
X51407200Y-71333333D02*
X51359580Y-71285714D01*
X51359580Y-71285714D02*
X51264342Y-71238095D01*
X51264342Y-71238095D02*
X51026247Y-71238095D01*
X51026247Y-71238095D02*
X50931009Y-71285714D01*
X50931009Y-71285714D02*
X50883390Y-71333333D01*
X50883390Y-71333333D02*
X50835771Y-71428571D01*
X50835771Y-71428571D02*
X50835771Y-71619047D01*
X50835771Y-71619047D02*
X50883390Y-71714285D01*
X50883390Y-71714285D02*
X50931009Y-71761904D01*
X50931009Y-71761904D02*
X51026247Y-71809523D01*
D11*
G36*
X68734895Y-92524929D02*
G01*
X68768430Y-92558465D01*
X68807142Y-92635888D01*
X68807142Y-92755138D01*
X68768430Y-92832561D01*
X68732284Y-92868708D01*
X68654863Y-92907419D01*
X68335714Y-92907419D01*
X68335714Y-92483609D01*
X68610934Y-92483609D01*
X68734895Y-92524929D01*
G37*
G36*
X68684667Y-92046130D02*
G01*
X68720811Y-92082275D01*
X68759523Y-92159698D01*
X68759523Y-92231329D01*
X68720811Y-92308752D01*
X68684667Y-92344897D01*
X68607244Y-92383609D01*
X68335714Y-92383609D01*
X68335714Y-92007419D01*
X68607244Y-92007419D01*
X68684667Y-92046130D01*
G37*
G36*
X70919209Y-93118530D02*
G01*
X68124603Y-93118530D01*
X68124603Y-91957419D01*
X68235714Y-91957419D01*
X68235714Y-92957419D01*
X68239520Y-92976553D01*
X68266580Y-93003613D01*
X68285714Y-93007419D01*
X68666666Y-93007419D01*
X68669122Y-93006930D01*
X68670211Y-93007293D01*
X68677938Y-93005176D01*
X68685800Y-93003613D01*
X68686611Y-93002801D01*
X68689027Y-93002140D01*
X68784264Y-92954522D01*
X68790591Y-92949611D01*
X68793427Y-92947716D01*
X69141427Y-92947716D01*
X69144282Y-92961991D01*
X69144282Y-92976553D01*
X69147922Y-92980193D01*
X69148932Y-92985241D01*
X69161045Y-92993316D01*
X69171342Y-93003613D01*
X69178679Y-93005072D01*
X69180773Y-93006468D01*
X69183227Y-93005977D01*
X69190476Y-93007419D01*
X69857142Y-93007419D01*
X69876276Y-93003613D01*
X69903336Y-92976553D01*
X69903336Y-92938285D01*
X69876276Y-92911225D01*
X69857142Y-92907419D01*
X69283902Y-92907419D01*
X69724395Y-92246678D01*
X70140602Y-92246678D01*
X70157716Y-92280906D01*
X70194021Y-92293007D01*
X70212837Y-92287854D01*
X70308074Y-92240236D01*
X70314407Y-92235320D01*
X70321069Y-92230869D01*
X70416307Y-92135631D01*
X70419055Y-92131517D01*
X70422555Y-92128011D01*
X70426190Y-92122558D01*
X70426190Y-92907419D01*
X70190476Y-92907419D01*
X70171342Y-92911225D01*
X70144282Y-92938285D01*
X70144282Y-92976553D01*
X70171342Y-93003613D01*
X70190476Y-93007419D01*
X70761904Y-93007419D01*
X70781038Y-93003613D01*
X70808098Y-92976553D01*
X70808098Y-92938285D01*
X70781038Y-92911225D01*
X70761904Y-92907419D01*
X70526190Y-92907419D01*
X70526190Y-91957419D01*
X70522384Y-91938285D01*
X70518743Y-91934644D01*
X70517734Y-91929597D01*
X70505618Y-91921519D01*
X70495324Y-91911225D01*
X70490178Y-91911225D01*
X70485894Y-91908369D01*
X70471616Y-91911225D01*
X70457056Y-91911225D01*
X70453415Y-91914865D01*
X70448368Y-91915875D01*
X70434588Y-91929684D01*
X70342093Y-92068424D01*
X70256097Y-92154421D01*
X70168115Y-92198412D01*
X70152703Y-92210373D01*
X70140602Y-92246678D01*
X69724395Y-92246678D01*
X69898744Y-91985154D01*
X69901564Y-91978324D01*
X69903336Y-91976553D01*
X69903336Y-91974035D01*
X69906191Y-91967122D01*
X69903336Y-91952847D01*
X69903336Y-91938285D01*
X69899695Y-91934644D01*
X69898686Y-91929597D01*
X69886572Y-91921521D01*
X69876276Y-91911225D01*
X69868938Y-91909765D01*
X69866845Y-91908370D01*
X69864390Y-91908860D01*
X69857142Y-91907419D01*
X69190476Y-91907419D01*
X69171342Y-91911225D01*
X69144282Y-91938285D01*
X69144282Y-91976553D01*
X69171342Y-92003613D01*
X69190476Y-92007419D01*
X69763716Y-92007419D01*
X69148873Y-92929684D01*
X69146052Y-92936514D01*
X69144282Y-92938285D01*
X69144282Y-92940802D01*
X69141427Y-92947716D01*
X68793427Y-92947716D01*
X68797260Y-92945155D01*
X68844879Y-92897535D01*
X68849332Y-92890869D01*
X68854244Y-92884541D01*
X68901863Y-92789303D01*
X68902524Y-92786887D01*
X68903336Y-92786076D01*
X68904899Y-92778214D01*
X68907016Y-92770487D01*
X68906653Y-92769398D01*
X68907142Y-92766942D01*
X68907142Y-92624085D01*
X68906653Y-92621628D01*
X68907016Y-92620540D01*
X68904899Y-92612812D01*
X68903336Y-92604951D01*
X68902524Y-92604139D01*
X68901863Y-92601724D01*
X68854244Y-92506486D01*
X68849332Y-92500157D01*
X68844878Y-92493491D01*
X68797259Y-92445873D01*
X68795176Y-92444481D01*
X68794663Y-92443455D01*
X68787702Y-92439487D01*
X68781038Y-92435034D01*
X68779890Y-92435034D01*
X68777715Y-92433794D01*
X68746554Y-92423407D01*
X68749640Y-92421345D01*
X68797259Y-92373727D01*
X68801713Y-92367060D01*
X68806625Y-92360732D01*
X68854244Y-92265494D01*
X68854905Y-92263078D01*
X68855717Y-92262267D01*
X68857280Y-92254405D01*
X68859397Y-92246678D01*
X68859034Y-92245589D01*
X68859523Y-92243133D01*
X68859523Y-92147895D01*
X68859034Y-92145438D01*
X68859397Y-92144350D01*
X68857280Y-92136622D01*
X68855717Y-92128761D01*
X68854905Y-92127949D01*
X68854244Y-92125534D01*
X68806625Y-92030296D01*
X68801713Y-92023967D01*
X68797259Y-92017301D01*
X68749640Y-91969683D01*
X68742978Y-91965231D01*
X68736645Y-91960316D01*
X68641408Y-91912698D01*
X68638992Y-91912036D01*
X68638181Y-91911225D01*
X68630319Y-91909661D01*
X68622592Y-91907545D01*
X68621503Y-91907907D01*
X68619047Y-91907419D01*
X68285714Y-91907419D01*
X68266580Y-91911225D01*
X68239520Y-91938285D01*
X68235714Y-91957419D01*
X68124603Y-91957419D01*
X68124603Y-91796308D01*
X70919209Y-91796308D01*
X70919209Y-93118530D01*
G37*
D10*
X85833333Y-92084580D02*
X85785714Y-92132200D01*
X85785714Y-92132200D02*
X85642857Y-92179819D01*
X85642857Y-92179819D02*
X85547619Y-92179819D01*
X85547619Y-92179819D02*
X85404762Y-92132200D01*
X85404762Y-92132200D02*
X85309524Y-92036961D01*
X85309524Y-92036961D02*
X85261905Y-91941723D01*
X85261905Y-91941723D02*
X85214286Y-91751247D01*
X85214286Y-91751247D02*
X85214286Y-91608390D01*
X85214286Y-91608390D02*
X85261905Y-91417914D01*
X85261905Y-91417914D02*
X85309524Y-91322676D01*
X85309524Y-91322676D02*
X85404762Y-91227438D01*
X85404762Y-91227438D02*
X85547619Y-91179819D01*
X85547619Y-91179819D02*
X85642857Y-91179819D01*
X85642857Y-91179819D02*
X85785714Y-91227438D01*
X85785714Y-91227438D02*
X85833333Y-91275057D01*
X86214286Y-91275057D02*
X86261905Y-91227438D01*
X86261905Y-91227438D02*
X86357143Y-91179819D01*
X86357143Y-91179819D02*
X86595238Y-91179819D01*
X86595238Y-91179819D02*
X86690476Y-91227438D01*
X86690476Y-91227438D02*
X86738095Y-91275057D01*
X86738095Y-91275057D02*
X86785714Y-91370295D01*
X86785714Y-91370295D02*
X86785714Y-91465533D01*
X86785714Y-91465533D02*
X86738095Y-91608390D01*
X86738095Y-91608390D02*
X86166667Y-92179819D01*
X86166667Y-92179819D02*
X86785714Y-92179819D01*
X78359580Y-73142857D02*
X78407200Y-73190476D01*
X78407200Y-73190476D02*
X78454819Y-73333333D01*
X78454819Y-73333333D02*
X78454819Y-73428571D01*
X78454819Y-73428571D02*
X78407200Y-73571428D01*
X78407200Y-73571428D02*
X78311961Y-73666666D01*
X78311961Y-73666666D02*
X78216723Y-73714285D01*
X78216723Y-73714285D02*
X78026247Y-73761904D01*
X78026247Y-73761904D02*
X77883390Y-73761904D01*
X77883390Y-73761904D02*
X77692914Y-73714285D01*
X77692914Y-73714285D02*
X77597676Y-73666666D01*
X77597676Y-73666666D02*
X77502438Y-73571428D01*
X77502438Y-73571428D02*
X77454819Y-73428571D01*
X77454819Y-73428571D02*
X77454819Y-73333333D01*
X77454819Y-73333333D02*
X77502438Y-73190476D01*
X77502438Y-73190476D02*
X77550057Y-73142857D01*
X78454819Y-72190476D02*
X78454819Y-72761904D01*
X78454819Y-72476190D02*
X77454819Y-72476190D01*
X77454819Y-72476190D02*
X77597676Y-72571428D01*
X77597676Y-72571428D02*
X77692914Y-72666666D01*
X77692914Y-72666666D02*
X77740533Y-72761904D01*
X77454819Y-71571428D02*
X77454819Y-71476190D01*
X77454819Y-71476190D02*
X77502438Y-71380952D01*
X77502438Y-71380952D02*
X77550057Y-71333333D01*
X77550057Y-71333333D02*
X77645295Y-71285714D01*
X77645295Y-71285714D02*
X77835771Y-71238095D01*
X77835771Y-71238095D02*
X78073866Y-71238095D01*
X78073866Y-71238095D02*
X78264342Y-71285714D01*
X78264342Y-71285714D02*
X78359580Y-71333333D01*
X78359580Y-71333333D02*
X78407200Y-71380952D01*
X78407200Y-71380952D02*
X78454819Y-71476190D01*
X78454819Y-71476190D02*
X78454819Y-71571428D01*
X78454819Y-71571428D02*
X78407200Y-71666666D01*
X78407200Y-71666666D02*
X78359580Y-71714285D01*
X78359580Y-71714285D02*
X78264342Y-71761904D01*
X78264342Y-71761904D02*
X78073866Y-71809523D01*
X78073866Y-71809523D02*
X77835771Y-71809523D01*
X77835771Y-71809523D02*
X77645295Y-71761904D01*
X77645295Y-71761904D02*
X77550057Y-71714285D01*
X77550057Y-71714285D02*
X77502438Y-71666666D01*
X77502438Y-71666666D02*
X77454819Y-71571428D01*
X57857142Y-51359580D02*
X57809523Y-51407200D01*
X57809523Y-51407200D02*
X57666666Y-51454819D01*
X57666666Y-51454819D02*
X57571428Y-51454819D01*
X57571428Y-51454819D02*
X57428571Y-51407200D01*
X57428571Y-51407200D02*
X57333333Y-51311961D01*
X57333333Y-51311961D02*
X57285714Y-51216723D01*
X57285714Y-51216723D02*
X57238095Y-51026247D01*
X57238095Y-51026247D02*
X57238095Y-50883390D01*
X57238095Y-50883390D02*
X57285714Y-50692914D01*
X57285714Y-50692914D02*
X57333333Y-50597676D01*
X57333333Y-50597676D02*
X57428571Y-50502438D01*
X57428571Y-50502438D02*
X57571428Y-50454819D01*
X57571428Y-50454819D02*
X57666666Y-50454819D01*
X57666666Y-50454819D02*
X57809523Y-50502438D01*
X57809523Y-50502438D02*
X57857142Y-50550057D01*
X58809523Y-51454819D02*
X58238095Y-51454819D01*
X58523809Y-51454819D02*
X58523809Y-50454819D01*
X58523809Y-50454819D02*
X58428571Y-50597676D01*
X58428571Y-50597676D02*
X58333333Y-50692914D01*
X58333333Y-50692914D02*
X58238095Y-50740533D01*
X59142857Y-50454819D02*
X59809523Y-50454819D01*
X59809523Y-50454819D02*
X59380952Y-51454819D01*
X87738095Y-78806819D02*
X88309523Y-78806819D01*
X88023809Y-79806819D02*
X88023809Y-78806819D01*
X88642857Y-79806819D02*
X88642857Y-78806819D01*
X88642857Y-78806819D02*
X89023809Y-78806819D01*
X89023809Y-78806819D02*
X89119047Y-78854438D01*
X89119047Y-78854438D02*
X89166666Y-78902057D01*
X89166666Y-78902057D02*
X89214285Y-78997295D01*
X89214285Y-78997295D02*
X89214285Y-79140152D01*
X89214285Y-79140152D02*
X89166666Y-79235390D01*
X89166666Y-79235390D02*
X89119047Y-79283009D01*
X89119047Y-79283009D02*
X89023809Y-79330628D01*
X89023809Y-79330628D02*
X88642857Y-79330628D01*
X89595238Y-78902057D02*
X89642857Y-78854438D01*
X89642857Y-78854438D02*
X89738095Y-78806819D01*
X89738095Y-78806819D02*
X89976190Y-78806819D01*
X89976190Y-78806819D02*
X90071428Y-78854438D01*
X90071428Y-78854438D02*
X90119047Y-78902057D01*
X90119047Y-78902057D02*
X90166666Y-78997295D01*
X90166666Y-78997295D02*
X90166666Y-79092533D01*
X90166666Y-79092533D02*
X90119047Y-79235390D01*
X90119047Y-79235390D02*
X89547619Y-79806819D01*
X89547619Y-79806819D02*
X90166666Y-79806819D01*
D11*
G36*
X78618530Y-63943018D02*
G01*
X77296308Y-63943018D01*
X77296308Y-63214285D01*
X77407419Y-63214285D01*
X77407419Y-63785713D01*
X77411225Y-63804847D01*
X77438285Y-63831907D01*
X77476553Y-63831907D01*
X77503613Y-63804847D01*
X77507419Y-63785713D01*
X77507419Y-63549999D01*
X78457419Y-63549999D01*
X78476553Y-63546193D01*
X78503613Y-63519133D01*
X78503613Y-63480865D01*
X78476553Y-63453805D01*
X78457419Y-63449999D01*
X77507419Y-63449999D01*
X77507419Y-63214285D01*
X77503613Y-63195151D01*
X77476553Y-63168091D01*
X77438285Y-63168091D01*
X77411225Y-63195151D01*
X77407419Y-63214285D01*
X77296308Y-63214285D01*
X77296308Y-62290389D01*
X77411225Y-62290389D01*
X77411225Y-62328657D01*
X77438285Y-62355717D01*
X77457419Y-62359523D01*
X77883609Y-62359523D01*
X77883609Y-62830951D01*
X77457419Y-62830951D01*
X77438285Y-62834757D01*
X77411225Y-62861817D01*
X77411225Y-62900085D01*
X77438285Y-62927145D01*
X77457419Y-62930951D01*
X78457419Y-62930951D01*
X78476553Y-62927145D01*
X78503613Y-62900085D01*
X78503613Y-62861817D01*
X78476553Y-62834757D01*
X78457419Y-62830951D01*
X77983609Y-62830951D01*
X77983609Y-62359523D01*
X78457419Y-62359523D01*
X78476553Y-62355717D01*
X78503613Y-62328657D01*
X78503613Y-62290389D01*
X78476553Y-62263329D01*
X78457419Y-62259523D01*
X77457419Y-62259523D01*
X77438285Y-62263329D01*
X77411225Y-62290389D01*
X77296308Y-62290389D01*
X77296308Y-61585534D01*
X77408370Y-61585534D01*
X77411225Y-61599809D01*
X77411225Y-61614371D01*
X77414865Y-61618011D01*
X77415875Y-61623059D01*
X77429684Y-61636840D01*
X77568425Y-61729334D01*
X77654420Y-61815329D01*
X77698411Y-61903311D01*
X77710373Y-61918723D01*
X77746677Y-61930825D01*
X77780905Y-61913711D01*
X77793007Y-61877406D01*
X77787854Y-61858590D01*
X77740235Y-61763352D01*
X77735319Y-61757017D01*
X77730869Y-61750358D01*
X77635631Y-61655120D01*
X77631515Y-61652369D01*
X77628011Y-61648873D01*
X77622557Y-61645237D01*
X78407419Y-61645237D01*
X78407419Y-61880951D01*
X78411225Y-61900085D01*
X78438285Y-61927145D01*
X78476553Y-61927145D01*
X78503613Y-61900085D01*
X78507419Y-61880951D01*
X78507419Y-61309523D01*
X78503613Y-61290389D01*
X78476553Y-61263329D01*
X78438285Y-61263329D01*
X78411225Y-61290389D01*
X78407419Y-61309523D01*
X78407419Y-61545237D01*
X77457419Y-61545237D01*
X77438285Y-61549043D01*
X77434644Y-61552683D01*
X77429597Y-61553693D01*
X77421521Y-61565806D01*
X77411225Y-61576103D01*
X77411225Y-61581251D01*
X77408370Y-61585534D01*
X77296308Y-61585534D01*
X77296308Y-61152218D01*
X78618530Y-61152218D01*
X78618530Y-63943018D01*
G37*
D10*
X72791169Y-79799693D02*
X72723825Y-79799693D01*
X72723825Y-79799693D02*
X72589138Y-79732349D01*
X72589138Y-79732349D02*
X72521795Y-79665006D01*
X72521795Y-79665006D02*
X72454451Y-79530319D01*
X72454451Y-79530319D02*
X72454451Y-79395632D01*
X72454451Y-79395632D02*
X72488123Y-79294617D01*
X72488123Y-79294617D02*
X72589138Y-79126258D01*
X72589138Y-79126258D02*
X72690153Y-79025243D01*
X72690153Y-79025243D02*
X72858512Y-78924227D01*
X72858512Y-78924227D02*
X72959527Y-78890556D01*
X72959527Y-78890556D02*
X73094214Y-78890556D01*
X73094214Y-78890556D02*
X73228901Y-78957899D01*
X73228901Y-78957899D02*
X73296245Y-79025243D01*
X73296245Y-79025243D02*
X73363588Y-79159930D01*
X73363588Y-79159930D02*
X73363588Y-79227273D01*
X73397260Y-80540471D02*
X72993199Y-80136410D01*
X73195230Y-80338441D02*
X73902336Y-79631334D01*
X73902336Y-79631334D02*
X73733978Y-79665006D01*
X73733978Y-79665006D02*
X73599291Y-79665006D01*
X73599291Y-79665006D02*
X73498275Y-79631334D01*
X74306398Y-80170082D02*
X74373741Y-80170082D01*
X74373741Y-80170082D02*
X74474756Y-80203754D01*
X74474756Y-80203754D02*
X74643115Y-80372113D01*
X74643115Y-80372113D02*
X74676787Y-80473128D01*
X74676787Y-80473128D02*
X74676787Y-80540472D01*
X74676787Y-80540472D02*
X74643115Y-80641487D01*
X74643115Y-80641487D02*
X74575772Y-80708830D01*
X74575772Y-80708830D02*
X74441085Y-80776174D01*
X74441085Y-80776174D02*
X73632963Y-80776174D01*
X73632963Y-80776174D02*
X74070695Y-81213907D01*
X87738095Y-82306819D02*
X88309523Y-82306819D01*
X88023809Y-83306819D02*
X88023809Y-82306819D01*
X88642857Y-83306819D02*
X88642857Y-82306819D01*
X88642857Y-82306819D02*
X89023809Y-82306819D01*
X89023809Y-82306819D02*
X89119047Y-82354438D01*
X89119047Y-82354438D02*
X89166666Y-82402057D01*
X89166666Y-82402057D02*
X89214285Y-82497295D01*
X89214285Y-82497295D02*
X89214285Y-82640152D01*
X89214285Y-82640152D02*
X89166666Y-82735390D01*
X89166666Y-82735390D02*
X89119047Y-82783009D01*
X89119047Y-82783009D02*
X89023809Y-82830628D01*
X89023809Y-82830628D02*
X88642857Y-82830628D01*
X90071428Y-82640152D02*
X90071428Y-83306819D01*
X89833333Y-82259200D02*
X89595238Y-82973485D01*
X89595238Y-82973485D02*
X90214285Y-82973485D01*
D11*
G36*
X90188094Y-65242580D02*
G01*
X89868946Y-65242580D01*
X89791522Y-65203868D01*
X89755377Y-65167724D01*
X89716666Y-65090301D01*
X89716666Y-64971050D01*
X89755377Y-64893626D01*
X89791522Y-64857482D01*
X89868946Y-64818771D01*
X90188094Y-64818771D01*
X90188094Y-65242580D01*
G37*
G36*
X90399205Y-65501185D02*
G01*
X88509361Y-65501185D01*
X88509361Y-64606780D01*
X88620472Y-64606780D01*
X88620472Y-64645048D01*
X88647532Y-64672108D01*
X88666666Y-64675914D01*
X88759523Y-64675914D01*
X88759523Y-64959247D01*
X88763329Y-64978381D01*
X88790389Y-65005441D01*
X88828657Y-65005441D01*
X88855717Y-64978381D01*
X88859523Y-64959247D01*
X88859523Y-64675914D01*
X89216342Y-64675914D01*
X89000184Y-65324389D01*
X88997744Y-65343744D01*
X89014858Y-65377973D01*
X89051162Y-65390074D01*
X89085391Y-65372960D01*
X89095052Y-65356011D01*
X89227307Y-64959247D01*
X89616666Y-64959247D01*
X89616666Y-65102104D01*
X89617154Y-65104560D01*
X89616792Y-65105649D01*
X89618908Y-65113376D01*
X89620472Y-65121238D01*
X89621283Y-65122049D01*
X89621945Y-65124465D01*
X89669563Y-65219702D01*
X89674478Y-65226035D01*
X89678930Y-65232697D01*
X89726548Y-65280316D01*
X89733214Y-65284770D01*
X89739543Y-65289682D01*
X89834781Y-65337301D01*
X89837196Y-65337962D01*
X89838008Y-65338774D01*
X89845869Y-65340337D01*
X89853597Y-65342454D01*
X89854685Y-65342091D01*
X89857142Y-65342580D01*
X90238094Y-65342580D01*
X90257228Y-65338774D01*
X90284288Y-65311714D01*
X90288094Y-65292580D01*
X90288094Y-64292580D01*
X90284288Y-64273446D01*
X90257228Y-64246386D01*
X90218960Y-64246386D01*
X90191900Y-64273446D01*
X90188094Y-64292580D01*
X90188094Y-64718771D01*
X90026032Y-64718771D01*
X89707628Y-64263907D01*
X89693537Y-64250414D01*
X89655851Y-64243764D01*
X89624500Y-64265709D01*
X89617850Y-64303395D01*
X89625704Y-64321253D01*
X89903966Y-64718771D01*
X89857142Y-64718771D01*
X89854685Y-64719259D01*
X89853597Y-64718897D01*
X89845869Y-64721013D01*
X89838008Y-64722577D01*
X89837196Y-64723388D01*
X89834781Y-64724050D01*
X89739543Y-64771669D01*
X89733214Y-64776580D01*
X89726548Y-64781035D01*
X89678930Y-64828654D01*
X89674478Y-64835315D01*
X89669563Y-64841649D01*
X89621945Y-64936886D01*
X89621283Y-64939301D01*
X89620472Y-64940113D01*
X89618908Y-64947974D01*
X89616792Y-64955702D01*
X89617154Y-64956790D01*
X89616666Y-64959247D01*
X89227307Y-64959247D01*
X89333147Y-64641726D01*
X89335587Y-64622370D01*
X89331907Y-64615010D01*
X89331907Y-64606780D01*
X89323677Y-64598550D01*
X89318473Y-64588142D01*
X89310666Y-64585539D01*
X89304847Y-64579720D01*
X89285713Y-64575914D01*
X88859523Y-64575914D01*
X88859523Y-64292580D01*
X88855717Y-64273446D01*
X88828657Y-64246386D01*
X88790389Y-64246386D01*
X88763329Y-64273446D01*
X88759523Y-64292580D01*
X88759523Y-64575914D01*
X88666666Y-64575914D01*
X88647532Y-64579720D01*
X88620472Y-64606780D01*
X88509361Y-64606780D01*
X88509361Y-64132653D01*
X90399205Y-64132653D01*
X90399205Y-65501185D01*
G37*
D12*
%TO.C,C11*%
X77165010Y-79795543D02*
X76795543Y-80165010D01*
X78204457Y-80834990D02*
X77834990Y-81204457D01*
D11*
%TO.C,R2*%
X60325000Y-82225000D02*
X61675000Y-82225000D01*
X60325000Y-82225000D02*
G75*
G02*
X60175000Y-82075000I0J150000D01*
G01*
X61825000Y-82075000D02*
G75*
G02*
X61675000Y-82225000I-150000J0D01*
G01*
D12*
%TO.C,SW3*%
X51640000Y-63690000D02*
X54360000Y-63690000D01*
X51640000Y-63950000D02*
X51100000Y-63950000D01*
X51640000Y-63950000D02*
X51640000Y-63700000D01*
X51640000Y-65520000D02*
X51640000Y-67480000D01*
X51640000Y-69310000D02*
X51640000Y-69050000D01*
X54350000Y-69310000D02*
X51650000Y-69310000D01*
X54360000Y-63690000D02*
X54360000Y-65700000D01*
X54360000Y-67300000D02*
X54360000Y-69310000D01*
D11*
%TO.C,SW2*%
X54675000Y-78600000D02*
X54675000Y-74400000D01*
X54525000Y-74250000D02*
G75*
G02*
X54675000Y-74400000I0J-150000D01*
G01*
X54675000Y-78600000D02*
G75*
G02*
X54525000Y-78750000I-150000J0D01*
G01*
D12*
%TO.C,C9*%
X78295543Y-66334990D02*
X78665010Y-66704457D01*
X79334990Y-65295543D02*
X79704457Y-65665010D01*
%TO.C,C6*%
X86359420Y-63990000D02*
X86640580Y-63990000D01*
X86359420Y-65010000D02*
X86640580Y-65010000D01*
D11*
%TO.C,R7*%
X82724999Y-68175000D02*
X82724999Y-66825000D01*
X82574999Y-66675000D02*
G75*
G02*
X82725000Y-66825000I1J-150000D01*
G01*
X82724999Y-68175000D02*
G75*
G02*
X82574999Y-68325000I-150000J0D01*
G01*
D12*
%TO.C,C4*%
X83765000Y-68261253D02*
X83765000Y-67738747D01*
X85235000Y-68261253D02*
X85235000Y-67738747D01*
D11*
%TO.C,R1*%
X75724999Y-62675000D02*
X75724999Y-61325000D01*
X75574999Y-61175000D02*
G75*
G02*
X75725000Y-61325000I1J-150000D01*
G01*
X75724999Y-62675000D02*
G75*
G02*
X75574999Y-62825000I-150000J0D01*
G01*
D12*
%TO.C,X1*%
X62390000Y-71320000D02*
X62390000Y-70680000D01*
X63120000Y-69440000D02*
X62430000Y-69440000D01*
X63330000Y-72360000D02*
X63670000Y-72360000D01*
X63340000Y-69640000D02*
X63670000Y-69640000D01*
X64610000Y-71320000D02*
X64610000Y-70680000D01*
X63120000Y-69440000D02*
G75*
G02*
X63340001Y-69640000I-90001J-320002D01*
G01*
D11*
%TO.C,R10*%
X55224999Y-53850000D02*
X55224999Y-52500000D01*
X55074999Y-52350000D02*
G75*
G02*
X55225000Y-52500000I1J-150000D01*
G01*
X55224999Y-53850000D02*
G75*
G02*
X55074999Y-54000000I-150000J0D01*
G01*
D12*
%TO.C,C5*%
X79165010Y-58795543D02*
X78795543Y-59165010D01*
X80204457Y-59834990D02*
X79834990Y-60204457D01*
%TO.C,J4*%
X61370000Y-56775000D02*
X61370000Y-59435000D01*
X61370000Y-59435000D02*
X71650000Y-59435000D01*
X61430000Y-62145000D02*
X61429999Y-60875000D01*
X62320000Y-50775000D02*
X63080000Y-50775000D01*
X62320000Y-56775000D02*
X62320000Y-50775000D01*
X62320000Y-59765000D02*
X62320000Y-59435000D01*
X62380000Y-56775000D02*
X62380000Y-50775000D01*
X62500000Y-56775000D02*
X62500000Y-50775000D01*
X62620000Y-56775000D02*
X62620000Y-50775000D01*
X62700000Y-62145001D02*
X61430000Y-62145000D01*
X62740000Y-56775000D02*
X62740000Y-50775000D01*
X62860000Y-56775000D02*
X62860001Y-50775000D01*
X62980000Y-56775000D02*
X62979999Y-50775000D01*
X63080000Y-50775000D02*
X63080000Y-56775000D01*
X63080000Y-59765000D02*
X63080000Y-59435000D01*
X63970000Y-59435000D02*
X63970000Y-56775000D01*
X64860000Y-50775000D02*
X65620000Y-50775000D01*
X64860000Y-56775000D02*
X64860000Y-50775000D01*
X64860000Y-59832071D02*
X64860000Y-59435000D01*
X65620000Y-50775000D02*
X65620000Y-56775000D01*
X65620000Y-59832071D02*
X65620000Y-59435000D01*
X66510000Y-59435000D02*
X66510000Y-56775000D01*
X67399999Y-50775000D02*
X68160001Y-50775000D01*
X67400000Y-56775000D02*
X67399999Y-50775000D01*
X67400000Y-59832071D02*
X67400000Y-59435000D01*
X68160000Y-59832071D02*
X68160000Y-59435000D01*
X68160001Y-50775000D02*
X68160000Y-56775000D01*
X69050000Y-59435000D02*
X69050000Y-56775000D01*
X69940000Y-56775000D02*
X69940001Y-50775000D01*
X69940000Y-59832071D02*
X69940000Y-59435000D01*
X69940001Y-50775000D02*
X70700000Y-50775000D01*
X70700000Y-50775000D02*
X70700000Y-56775000D01*
X70700000Y-59832071D02*
X70700000Y-59435000D01*
X71650000Y-56775000D02*
X61370000Y-56775000D01*
X71650000Y-59435000D02*
X71650000Y-56775000D01*
%TO.C,Q1*%
X52320000Y-90840001D02*
X53730000Y-90840000D01*
X52320000Y-93159999D02*
X53730000Y-93160000D01*
X53730000Y-90840000D02*
X53730000Y-91500001D01*
X53730000Y-92499999D02*
X53730000Y-93160000D01*
X52190000Y-90530001D02*
X51950000Y-90860000D01*
X51710000Y-90530000D01*
X52190000Y-90530001D01*
G36*
X52190000Y-90530001D02*
G01*
X51950000Y-90860000D01*
X51710000Y-90530000D01*
X52190000Y-90530001D01*
G37*
D13*
%TO.C,J1*%
X88297501Y-67530000D02*
X89507501Y-67530000D01*
X88297501Y-76470000D02*
X89507501Y-76470000D01*
X92227501Y-76470000D02*
X93717501Y-76470000D01*
X93717501Y-67530000D02*
X92227501Y-67530000D01*
X93717501Y-76470000D02*
X93717501Y-67530000D01*
X85307502Y-75780001D02*
G75*
G02*
X85107500Y-75780001I-100001J0D01*
G01*
X85107500Y-75780001D02*
G75*
G02*
X85307502Y-75780001I100001J0D01*
G01*
D12*
%TO.C,U4*%
X68390000Y-69390000D02*
X68390000Y-69840000D01*
X68390000Y-76610000D02*
X68390000Y-76160000D01*
X68840000Y-69390000D02*
X68390000Y-69390000D01*
X68840000Y-76610000D02*
X68390000Y-76610000D01*
X75160000Y-69390000D02*
X75610000Y-69390000D01*
X75160000Y-76610000D02*
X75610000Y-76610000D01*
X75610000Y-69390000D02*
X75610000Y-69840000D01*
X75610000Y-76610000D02*
X75610000Y-76160000D01*
X67800000Y-69840000D02*
X67460000Y-69370000D01*
X68140000Y-69370000D01*
X67800000Y-69840000D01*
G36*
X67800000Y-69840000D02*
G01*
X67460000Y-69370000D01*
X68140000Y-69370000D01*
X67800000Y-69840000D01*
G37*
%TO.C,C14*%
X60490000Y-75640580D02*
X60490000Y-75359420D01*
X61510000Y-75640580D02*
X61510000Y-75359420D01*
D11*
%TO.C,D1*%
X56950000Y-82250000D02*
X57450000Y-82250000D01*
X57200000Y-82000000D02*
X57200000Y-82500000D01*
X58550000Y-82250000D02*
X59050000Y-82250000D01*
D12*
%TO.C,C18*%
X70990000Y-64390580D02*
X70990000Y-64109420D01*
X72010000Y-64390580D02*
X72010000Y-64109420D01*
D11*
%TO.C,U2*%
X81500000Y-60500000D02*
X81500000Y-64500000D01*
X81750000Y-60350000D02*
X81650000Y-60350000D01*
X81750000Y-64650000D02*
X81650000Y-64650000D01*
X81500000Y-60500000D02*
G75*
G02*
X81650000Y-60350000I150000J0D01*
G01*
X81650000Y-64650000D02*
G75*
G02*
X81500000Y-64500000I0J150000D01*
G01*
D14*
X84575000Y-60350000D02*
G75*
G02*
X84325000Y-60350000I-125000J0D01*
G01*
X84325000Y-60350000D02*
G75*
G02*
X84575000Y-60350000I125000J0D01*
G01*
D11*
%TO.C,R11*%
X74000000Y-59224999D02*
X75350000Y-59224999D01*
X74000000Y-59224999D02*
G75*
G02*
X73850000Y-59074999I0J150000D01*
G01*
X75500000Y-59074999D02*
G75*
G02*
X75350000Y-59225000I-150000J-1D01*
G01*
%TO.C,R13*%
X52724999Y-88675000D02*
X52724999Y-87325000D01*
X52574999Y-87175000D02*
G75*
G02*
X52725000Y-87325000I1J-150000D01*
G01*
X52724999Y-88675000D02*
G75*
G02*
X52574999Y-88825000I-150000J0D01*
G01*
%TO.C,R5*%
X90175000Y-59775001D02*
X88825000Y-59775001D01*
X88675000Y-59925001D02*
G75*
G02*
X88825000Y-59775000I150000J1D01*
G01*
X90175000Y-59775001D02*
G75*
G02*
X90325000Y-59925001I0J-150000D01*
G01*
%TO.C,D3*%
X91950000Y-62750000D02*
X91450000Y-62750000D01*
X93300000Y-63000000D02*
X93300000Y-62500000D01*
X93550000Y-62750000D02*
X93050000Y-62750000D01*
D12*
%TO.C,C1*%
X84990000Y-82359419D02*
X84990000Y-82640581D01*
X86010000Y-82359419D02*
X86010000Y-82640581D01*
D11*
%TO.C,D4*%
X91950000Y-59750000D02*
X91450000Y-59750000D01*
X93300000Y-60000000D02*
X93300000Y-59500000D01*
X93550000Y-59750000D02*
X93050000Y-59750000D01*
D12*
%TO.C,C15*%
X62765000Y-75261253D02*
X62765000Y-74738747D01*
X64235000Y-75261253D02*
X64235000Y-74738747D01*
D11*
%TO.C,R8*%
X74000000Y-57724999D02*
X75350000Y-57724999D01*
X74000000Y-57724999D02*
G75*
G02*
X73850000Y-57574999I0J150000D01*
G01*
X75500000Y-57574999D02*
G75*
G02*
X75350000Y-57725000I-150000J-1D01*
G01*
D12*
%TO.C,TP1*%
X93450000Y-80500000D02*
G75*
G02*
X91550000Y-80500000I-950000J0D01*
G01*
X91550000Y-80500000D02*
G75*
G02*
X93450000Y-80500000I950000J0D01*
G01*
%TO.C,C7*%
X64962668Y-64665010D02*
X65332135Y-64295543D01*
X66002115Y-65704457D02*
X66371582Y-65334990D01*
%TO.C,C3*%
X80490000Y-83640581D02*
X80490000Y-83359419D01*
X81510000Y-83640581D02*
X81510000Y-83359419D01*
%TO.C,U1*%
X76127500Y-85589999D02*
X76127500Y-86850000D01*
X76127500Y-92410001D02*
X76127500Y-91150000D01*
X79887500Y-85590000D02*
X76127500Y-85589999D01*
X79887500Y-92410000D02*
X76127500Y-92410001D01*
X81430000Y-92450000D02*
X80950000Y-92449999D01*
X81190000Y-92120000D01*
X81430000Y-92450000D01*
G36*
X81430000Y-92450000D02*
G01*
X80950000Y-92449999D01*
X81190000Y-92120000D01*
X81430000Y-92450000D01*
G37*
%TO.C,C19*%
X59765000Y-70738747D02*
X59765000Y-71261253D01*
X61235000Y-70738747D02*
X61235000Y-71261253D01*
D11*
%TO.C,D9*%
X60485000Y-91640000D02*
X57515000Y-91640000D01*
X57365000Y-91790000D02*
G75*
G02*
X57515000Y-91640000I150000J0D01*
G01*
X60485000Y-91640000D02*
G75*
G02*
X60635000Y-91790000I0J-150000D01*
G01*
D14*
X61515000Y-92500000D02*
G75*
G02*
X61265000Y-92500000I-125000J0D01*
G01*
X61265000Y-92500000D02*
G75*
G02*
X61515000Y-92500000I125000J0D01*
G01*
D12*
%TO.C,C8*%
X67962668Y-64665010D02*
X68332135Y-64295543D01*
X69002115Y-65704457D02*
X69371582Y-65334990D01*
%TO.C,C13*%
X65962668Y-67665010D02*
X66332135Y-67295543D01*
X67002115Y-68704457D02*
X67371582Y-68334990D01*
D11*
%TO.C,R9*%
X51325000Y-56224999D02*
X52675000Y-56224999D01*
X51325000Y-56224999D02*
G75*
G02*
X51175000Y-56074999I0J150000D01*
G01*
X52825000Y-56074999D02*
G75*
G02*
X52675000Y-56225000I-150000J-1D01*
G01*
D12*
%TO.C,TP3*%
X93450000Y-84000000D02*
G75*
G02*
X91550000Y-84000000I-950000J0D01*
G01*
X91550000Y-84000000D02*
G75*
G02*
X93450000Y-84000000I950000J0D01*
G01*
D11*
%TO.C,R12*%
X56724999Y-65500000D02*
X56724999Y-64150000D01*
X56574999Y-64000000D02*
G75*
G02*
X56725000Y-64150000I1J-150000D01*
G01*
X56724999Y-65500000D02*
G75*
G02*
X56574999Y-65650000I-150000J0D01*
G01*
D12*
%TO.C,C16*%
X53811254Y-71765000D02*
X53288748Y-71765000D01*
X53811254Y-73235000D02*
X53288748Y-73235000D01*
D11*
%TO.C,BZ1*%
X60500001Y-89500000D02*
X60500000Y-90500000D01*
X64200000Y-93000000D02*
X64200000Y-92100000D01*
X66800000Y-93000000D02*
X64200000Y-93000000D01*
X66800000Y-93000000D02*
X66800000Y-92100000D01*
X70499999Y-89500000D02*
X70500000Y-90500000D01*
X71000000Y-90000000D02*
X70000000Y-89999999D01*
D10*
X70200000Y-87500000D02*
G75*
G02*
X60800000Y-87500000I-4700000J0D01*
G01*
X60800000Y-87500000D02*
G75*
G02*
X70200000Y-87500000I4700000J0D01*
G01*
D12*
%TO.C,C2*%
X84990000Y-89640580D02*
X84990000Y-89359420D01*
X86010000Y-89640580D02*
X86010000Y-89359420D01*
%TO.C,C10*%
X77295543Y-69334990D02*
X77665010Y-69704457D01*
X78334990Y-68295543D02*
X78704457Y-68665010D01*
%TO.C,C17*%
X55365580Y-50490000D02*
X55084420Y-50490000D01*
X55365580Y-51510000D02*
X55084420Y-51510000D01*
%TO.C,TP2*%
X89950000Y-81000000D02*
G75*
G02*
X88050000Y-81000000I-950000J0D01*
G01*
X88050000Y-81000000D02*
G75*
G02*
X89950000Y-81000000I950000J0D01*
G01*
D11*
%TO.C,TH1*%
X77224999Y-63175000D02*
X77224999Y-61825000D01*
X77074999Y-61675000D02*
G75*
G02*
X77225000Y-61825000I1J-150000D01*
G01*
X77224999Y-63175000D02*
G75*
G02*
X77074999Y-63325000I-150000J0D01*
G01*
D12*
%TO.C,C12*%
X75665010Y-78295543D02*
X75295543Y-78665010D01*
X76704457Y-79334990D02*
X76334990Y-79704457D01*
%TO.C,TP4*%
X89950000Y-84500000D02*
G75*
G02*
X88050000Y-84500000I-950000J0D01*
G01*
X88050000Y-84500000D02*
G75*
G02*
X89950000Y-84500000I950000J0D01*
G01*
D11*
%TO.C,R4*%
X90175000Y-62775001D02*
X88825000Y-62775001D01*
X88675000Y-62925001D02*
G75*
G02*
X88825000Y-62775000I150000J1D01*
G01*
X90175000Y-62775001D02*
G75*
G02*
X90325000Y-62925001I0J-150000D01*
G01*
%TD*%
M02*
