M48
; DRILL file {KiCad 8.0.8} date 2025-02-13T14:20:39-0500
; FORMAT={-:-/ absolute / inch / decimal}
; #@! TF.CreationDate,2025-02-13T14:20:39-05:00
; #@! TF.GenerationSoftware,Kicad,Pcbnew,8.0.8
; #@! TF.FileFunction,NonPlated,1,4,NPTH
FMAT,2
INCH
; #@! TA.AperFunction,NonPlated,NPTH,ComponentDrill
T1C0.0197
; #@! TA.AperFunction,NonPlated,NPTH,ComponentDrill
T2C0.0256
; #@! TA.AperFunction,NonPlated,NPTH,ComponentDrill
T3C0.0390
; #@! TA.AperFunction,NonPlated,NPTH,ComponentDrill
T4C0.0935
%
G90
G05
T1
X4.3406Y-3.9075
X4.3406Y-3.937
X4.3406Y-3.9665
X4.3406Y-4.6949
X4.3406Y-4.7244
X4.3406Y-4.7539
X4.3996Y-3.9075
X4.3996Y-3.937
X4.3996Y-3.9665
X4.3996Y-4.6949
X4.3996Y-4.7244
X4.3996Y-4.7539
T2
X5.7311Y-4.1874
X5.7311Y-4.415
T3
X5.7077Y-4.6958
X5.7077Y-4.7758
X5.9077Y-4.7358
T4
X5.7827Y-4.6358
X5.7827Y-4.8358
X5.9077Y-4.6358
X5.9077Y-4.8358
M30
