%TF.GenerationSoftware,KiCad,Pcbnew,8.0.8*%
%TF.CreationDate,2025-02-13T14:20:33-05:00*%
%TF.ProjectId,GF24,47463234-2e6b-4696-9361-645f70636258,rev?*%
%TF.SameCoordinates,Original*%
%TF.FileFunction,Copper,L2,Inr*%
%TF.FilePolarity,Positive*%
%FSLAX46Y46*%
G04 Gerber Fmt 4.6, Leading zero omitted, Abs format (unit mm)*
G04 Created by KiCad (PCBNEW 8.0.8) date 2025-02-13 14:20:33*
%MOMM*%
%LPD*%
G01*
G04 APERTURE LIST*
%TA.AperFunction,ViaPad*%
%ADD10C,0.700000*%
%TD*%
%TA.AperFunction,Conductor*%
%ADD11C,0.250000*%
%TD*%
%TA.AperFunction,Conductor*%
%ADD12C,0.160000*%
%TD*%
G04 APERTURE END LIST*
D10*
%TO.N,GND*%
X139800000Y-107250000D03*
X125250000Y-96500000D03*
X120750000Y-127250000D03*
X116500000Y-94750000D03*
X115250000Y-103750000D03*
X131500000Y-93000000D03*
X125250000Y-108750000D03*
X123900000Y-115400000D03*
X129750000Y-99250000D03*
X140000000Y-128500000D03*
X150750000Y-98750000D03*
X136250000Y-118750000D03*
X138900000Y-103300000D03*
X123750000Y-98500000D03*
X147250000Y-100250000D03*
X141500000Y-96500000D03*
X133750000Y-129250000D03*
X120250000Y-113250000D03*
%TO.N,+3V3*%
X151000000Y-121250000D03*
X125900000Y-119000000D03*
X140000000Y-106050000D03*
%TO.N,NRST*%
X125200000Y-114000000D03*
X115900000Y-106100000D03*
X148500000Y-123950000D03*
%TO.N,/REG_I*%
X123000000Y-101035000D03*
X139800000Y-100600000D03*
X134400000Y-100400000D03*
%TO.N,BUTTON*%
X137300000Y-112950000D03*
X144400000Y-102550000D03*
%TO.N,VBUS*%
X133750000Y-104500000D03*
X136800000Y-98000000D03*
X143350000Y-105850000D03*
X142300000Y-108750000D03*
%TO.N,MODE*%
X137300000Y-113800000D03*
X137400000Y-107950000D03*
X139600000Y-105300000D03*
%TO.N,/SWDCLK*%
X134200000Y-108800000D03*
X148500000Y-116700000D03*
%TO.N,/SWDIO*%
X136500000Y-112250000D03*
X150800000Y-119400000D03*
%TO.N,BUZZER*%
X130500000Y-121850000D03*
X131200000Y-112050000D03*
%TO.N,/CH-TH-DIV*%
X132300000Y-113400000D03*
X129150000Y-107850000D03*
%TO.N,I2C-SDA*%
X137250000Y-119800000D03*
X133150000Y-119800000D03*
%TO.N,STATG*%
X129100000Y-111200000D03*
X121550000Y-103150000D03*
%TO.N,STATR*%
X115950000Y-98650000D03*
X129950000Y-111200000D03*
%TO.N,N-FAULT*%
X135350000Y-104700000D03*
X141500000Y-103300000D03*
%TO.N,N-CHRG*%
X145800000Y-109900000D03*
X131550000Y-102150000D03*
%TO.N,GNSS-RX*%
X73500000Y-110700000D03*
X95200000Y-108100000D03*
%TO.N,GNSS-TIMEPULSE*%
X88100000Y-115200000D03*
X73500000Y-113200000D03*
%TO.N,GNSS-TX*%
X73500000Y-111900000D03*
X95200000Y-110100000D03*
%TO.N,GNSS-N-RESET*%
X90000000Y-104750000D03*
X73500000Y-109400000D03*
%TO.N,/GNSS-ST-RX*%
X124650000Y-125100000D03*
X125950000Y-117750000D03*
%TO.N,/GNSS-ST-TIMEPULSE*%
X127050000Y-125100000D03*
X128750000Y-119550000D03*
%TO.N,/GNSS-ST-TX*%
X127350000Y-119150000D03*
X125850000Y-125100000D03*
%TO.N,/GNSS-ST-N-RESET*%
X123400000Y-125100000D03*
X125300000Y-117100000D03*
%TO.N,GNSS-3V3*%
X84700000Y-108100000D03*
X73500000Y-108200000D03*
X91900000Y-104700000D03*
%TO.N,GNSS-GND*%
X80000000Y-110000000D03*
X95100000Y-116600000D03*
X100000000Y-100000000D03*
X84800000Y-106200000D03*
X97000000Y-103000000D03*
X83000000Y-119000000D03*
X86200000Y-118000000D03*
X95100000Y-103400000D03*
X95000000Y-120000000D03*
X83000000Y-103000000D03*
X96600000Y-104900000D03*
X82000000Y-111900000D03*
X83000000Y-101000000D03*
X100000000Y-115000000D03*
X82000000Y-113800000D03*
X99000000Y-117000000D03*
X98000000Y-110000000D03*
X98000000Y-113800000D03*
X89000000Y-107000000D03*
X93800000Y-102000000D03*
X100000000Y-110000000D03*
X97000000Y-119000000D03*
X99000000Y-103000000D03*
X83400000Y-104900000D03*
X84800000Y-113800000D03*
X92000000Y-111900000D03*
X96600000Y-115100000D03*
X90000000Y-102000000D03*
X85000000Y-100000000D03*
X95000000Y-100000000D03*
X93800000Y-104800000D03*
X83400000Y-115100000D03*
X90000000Y-100000000D03*
X80000000Y-120000000D03*
X95200000Y-106200000D03*
X84900000Y-103400000D03*
X86200000Y-104800000D03*
X97000000Y-117000000D03*
X97000000Y-101000000D03*
X83000000Y-117000000D03*
X92000000Y-107000000D03*
X93800000Y-118000000D03*
X81000000Y-103000000D03*
X95200000Y-113800000D03*
X80000000Y-115000000D03*
X88000000Y-111900000D03*
X86200000Y-102000000D03*
X90000000Y-110000000D03*
X98000000Y-106200000D03*
X84800000Y-111900000D03*
X81000000Y-117000000D03*
X85000000Y-120000000D03*
X93800000Y-115200000D03*
X100000000Y-105000000D03*
X90000000Y-120000000D03*
X82000000Y-110000000D03*
X90000000Y-118000000D03*
X84900000Y-116600000D03*
X86200000Y-115200000D03*
X80000000Y-100000000D03*
X80000000Y-105000000D03*
X100000000Y-120000000D03*
%TD*%
D11*
%TO.N,GND*%
X140630000Y-105030000D02*
X138900000Y-103300000D01*
X139800000Y-107250000D02*
X140630000Y-106420000D01*
X140630000Y-106420000D02*
X140630000Y-105030000D01*
D12*
%TO.N,NRST*%
X117300000Y-106100000D02*
X125200000Y-114000000D01*
X115900000Y-106100000D02*
X117300000Y-106100000D01*
X147750000Y-124700000D02*
X148500000Y-123950000D01*
X135900000Y-124700000D02*
X147750000Y-124700000D01*
X125200000Y-114000000D02*
X135900000Y-124700000D01*
%TO.N,BUTTON*%
X144400000Y-102550000D02*
X144400000Y-105650000D01*
X144400000Y-105650000D02*
X137300000Y-112750000D01*
X137300000Y-112750000D02*
X137300000Y-112950000D01*
%TO.N,VBUS*%
X136800000Y-101450000D02*
X133750000Y-104500000D01*
X136800000Y-98000000D02*
X136800000Y-101450000D01*
%TO.N,MODE*%
X136900000Y-113800000D02*
X137300000Y-113800000D01*
X137400000Y-107950000D02*
X137400000Y-107500000D01*
X137400000Y-107500000D02*
X139600000Y-105300000D01*
X137400000Y-107950000D02*
X135920000Y-109430000D01*
X135920000Y-112820000D02*
X136900000Y-113800000D01*
X135920000Y-109430000D02*
X135920000Y-112820000D01*
%TO.N,I2C-SDA*%
X133150000Y-119800000D02*
X137250000Y-119800000D01*
%TO.N,STATG*%
X121550000Y-103650000D02*
X129100000Y-111200000D01*
X121550000Y-103150000D02*
X121550000Y-103650000D01*
%TO.N,STATR*%
X129950000Y-110650466D02*
X117949534Y-98650000D01*
X129950000Y-111200000D02*
X129950000Y-110650466D01*
X117949534Y-98650000D02*
X115950000Y-98650000D01*
%TO.N,/GNSS-ST-RX*%
X124650000Y-119050000D02*
X125950000Y-117750000D01*
X124650000Y-125100000D02*
X124650000Y-119050000D01*
%TO.N,/GNSS-ST-TIMEPULSE*%
X127050000Y-125100000D02*
X127050000Y-121250000D01*
X127050000Y-121250000D02*
X128750000Y-119550000D01*
%TO.N,/GNSS-ST-TX*%
X125850000Y-125100000D02*
X125850000Y-120650000D01*
X125850000Y-120650000D02*
X127350000Y-119150000D01*
%TO.N,/GNSS-ST-N-RESET*%
X123400000Y-125100000D02*
X123400000Y-119000000D01*
X123400000Y-119000000D02*
X125300000Y-117100000D01*
%TD*%
%TA.AperFunction,Conductor*%
%TO.N,GNSS-3V3*%
G36*
X107698493Y-90519685D02*
G01*
X107744248Y-90572489D01*
X107754192Y-90641647D01*
X107725167Y-90705203D01*
X107666389Y-90742977D01*
X107663547Y-90743775D01*
X107553511Y-90773258D01*
X107553502Y-90773261D01*
X107347267Y-90869431D01*
X107347265Y-90869432D01*
X107160858Y-90999954D01*
X106999954Y-91160858D01*
X106869432Y-91347265D01*
X106869431Y-91347267D01*
X106773261Y-91553502D01*
X106773258Y-91553511D01*
X106714366Y-91773302D01*
X106714364Y-91773313D01*
X106694532Y-91999998D01*
X106694532Y-92000001D01*
X106714364Y-92226686D01*
X106714366Y-92226697D01*
X106773258Y-92446488D01*
X106773261Y-92446497D01*
X106869431Y-92652732D01*
X106869432Y-92652734D01*
X106999954Y-92839141D01*
X107160858Y-93000045D01*
X107160861Y-93000047D01*
X107347266Y-93130568D01*
X107553504Y-93226739D01*
X107773308Y-93285635D01*
X107935230Y-93299801D01*
X107999998Y-93305468D01*
X108000000Y-93305468D01*
X108000002Y-93305468D01*
X108056673Y-93300509D01*
X108226692Y-93285635D01*
X108446496Y-93226739D01*
X108652734Y-93130568D01*
X108839139Y-93000047D01*
X109000047Y-92839139D01*
X109130568Y-92652734D01*
X109226739Y-92446496D01*
X109256225Y-92336451D01*
X109292590Y-92276791D01*
X109355437Y-92246262D01*
X109424812Y-92254556D01*
X109478690Y-92299042D01*
X109499965Y-92365594D01*
X109500000Y-92368545D01*
X109500000Y-127631454D01*
X109480315Y-127698493D01*
X109427511Y-127744248D01*
X109358353Y-127754192D01*
X109294797Y-127725167D01*
X109257023Y-127666389D01*
X109256225Y-127663547D01*
X109226741Y-127553511D01*
X109226738Y-127553502D01*
X109218645Y-127536146D01*
X109130568Y-127347266D01*
X109000047Y-127160861D01*
X109000045Y-127160858D01*
X108839141Y-126999954D01*
X108652734Y-126869432D01*
X108652732Y-126869431D01*
X108446497Y-126773261D01*
X108446488Y-126773258D01*
X108226697Y-126714366D01*
X108226693Y-126714365D01*
X108226692Y-126714365D01*
X108226691Y-126714364D01*
X108226686Y-126714364D01*
X108000002Y-126694532D01*
X107999998Y-126694532D01*
X107773313Y-126714364D01*
X107773302Y-126714366D01*
X107553511Y-126773258D01*
X107553502Y-126773261D01*
X107347267Y-126869431D01*
X107347265Y-126869432D01*
X107160858Y-126999954D01*
X106999954Y-127160858D01*
X106869432Y-127347265D01*
X106869431Y-127347267D01*
X106773261Y-127553502D01*
X106773258Y-127553511D01*
X106714366Y-127773302D01*
X106714364Y-127773313D01*
X106694532Y-127999998D01*
X106694532Y-128000001D01*
X106714364Y-128226686D01*
X106714366Y-128226697D01*
X106773258Y-128446488D01*
X106773261Y-128446497D01*
X106869431Y-128652732D01*
X106869432Y-128652734D01*
X106999954Y-128839141D01*
X107160858Y-129000045D01*
X107160861Y-129000047D01*
X107347266Y-129130568D01*
X107553504Y-129226739D01*
X107553509Y-129226740D01*
X107553511Y-129226741D01*
X107663547Y-129256225D01*
X107723208Y-129292590D01*
X107753737Y-129355437D01*
X107745442Y-129424812D01*
X107700957Y-129478690D01*
X107634405Y-129499965D01*
X107631454Y-129500000D01*
X72368546Y-129500000D01*
X72301507Y-129480315D01*
X72255752Y-129427511D01*
X72245808Y-129358353D01*
X72274833Y-129294797D01*
X72333611Y-129257023D01*
X72336453Y-129256225D01*
X72402957Y-129238405D01*
X72446496Y-129226739D01*
X72652734Y-129130568D01*
X72839139Y-129000047D01*
X73000047Y-128839139D01*
X73130568Y-128652734D01*
X73226739Y-128446496D01*
X73285635Y-128226692D01*
X73305468Y-128000000D01*
X73285635Y-127773308D01*
X73226739Y-127553504D01*
X73130568Y-127347266D01*
X73000047Y-127160861D01*
X73000045Y-127160858D01*
X72839141Y-126999954D01*
X72652734Y-126869432D01*
X72652732Y-126869431D01*
X72446497Y-126773261D01*
X72446488Y-126773258D01*
X72226697Y-126714366D01*
X72226693Y-126714365D01*
X72226692Y-126714365D01*
X72226691Y-126714364D01*
X72226686Y-126714364D01*
X72000002Y-126694532D01*
X71999998Y-126694532D01*
X71773313Y-126714364D01*
X71773302Y-126714366D01*
X71553511Y-126773258D01*
X71553502Y-126773261D01*
X71347267Y-126869431D01*
X71347265Y-126869432D01*
X71160858Y-126999954D01*
X70999954Y-127160858D01*
X70869432Y-127347265D01*
X70869431Y-127347267D01*
X70773261Y-127553502D01*
X70773258Y-127553511D01*
X70743775Y-127663547D01*
X70707410Y-127723208D01*
X70644563Y-127753737D01*
X70575188Y-127745442D01*
X70521310Y-127700957D01*
X70500035Y-127634405D01*
X70500000Y-127631454D01*
X70500000Y-120000000D01*
X79494353Y-120000000D01*
X79514834Y-120142456D01*
X79574622Y-120273371D01*
X79574623Y-120273373D01*
X79668872Y-120382143D01*
X79789947Y-120459953D01*
X79789950Y-120459954D01*
X79789949Y-120459954D01*
X79928036Y-120500499D01*
X79928038Y-120500500D01*
X79928039Y-120500500D01*
X80071962Y-120500500D01*
X80071962Y-120500499D01*
X80210053Y-120459953D01*
X80331128Y-120382143D01*
X80425377Y-120273373D01*
X80485165Y-120142457D01*
X80505647Y-120000000D01*
X84494353Y-120000000D01*
X84514834Y-120142456D01*
X84574622Y-120273371D01*
X84574623Y-120273373D01*
X84668872Y-120382143D01*
X84789947Y-120459953D01*
X84789950Y-120459954D01*
X84789949Y-120459954D01*
X84928036Y-120500499D01*
X84928038Y-120500500D01*
X84928039Y-120500500D01*
X85071962Y-120500500D01*
X85071962Y-120500499D01*
X85210053Y-120459953D01*
X85331128Y-120382143D01*
X85425377Y-120273373D01*
X85485165Y-120142457D01*
X85505647Y-120000000D01*
X89494353Y-120000000D01*
X89514834Y-120142456D01*
X89574622Y-120273371D01*
X89574623Y-120273373D01*
X89668872Y-120382143D01*
X89789947Y-120459953D01*
X89789950Y-120459954D01*
X89789949Y-120459954D01*
X89928036Y-120500499D01*
X89928038Y-120500500D01*
X89928039Y-120500500D01*
X90071962Y-120500500D01*
X90071962Y-120500499D01*
X90210053Y-120459953D01*
X90331128Y-120382143D01*
X90425377Y-120273373D01*
X90485165Y-120142457D01*
X90505647Y-120000000D01*
X94494353Y-120000000D01*
X94514834Y-120142456D01*
X94574622Y-120273371D01*
X94574623Y-120273373D01*
X94668872Y-120382143D01*
X94789947Y-120459953D01*
X94789950Y-120459954D01*
X94789949Y-120459954D01*
X94928036Y-120500499D01*
X94928038Y-120500500D01*
X94928039Y-120500500D01*
X95071962Y-120500500D01*
X95071962Y-120500499D01*
X95210053Y-120459953D01*
X95331128Y-120382143D01*
X95425377Y-120273373D01*
X95485165Y-120142457D01*
X95505647Y-120000000D01*
X99494353Y-120000000D01*
X99514834Y-120142456D01*
X99574622Y-120273371D01*
X99574623Y-120273373D01*
X99668872Y-120382143D01*
X99789947Y-120459953D01*
X99789950Y-120459954D01*
X99789949Y-120459954D01*
X99928036Y-120500499D01*
X99928038Y-120500500D01*
X99928039Y-120500500D01*
X100071962Y-120500500D01*
X100071962Y-120500499D01*
X100210053Y-120459953D01*
X100331128Y-120382143D01*
X100425377Y-120273373D01*
X100485165Y-120142457D01*
X100505647Y-120000000D01*
X100485165Y-119857543D01*
X100425377Y-119726627D01*
X100331128Y-119617857D01*
X100210053Y-119540047D01*
X100210051Y-119540046D01*
X100210049Y-119540045D01*
X100210050Y-119540045D01*
X100071963Y-119499500D01*
X100071961Y-119499500D01*
X99928039Y-119499500D01*
X99928036Y-119499500D01*
X99789949Y-119540045D01*
X99668873Y-119617856D01*
X99574623Y-119726626D01*
X99574622Y-119726628D01*
X99514834Y-119857543D01*
X99494353Y-120000000D01*
X95505647Y-120000000D01*
X95485165Y-119857543D01*
X95425377Y-119726627D01*
X95331128Y-119617857D01*
X95210053Y-119540047D01*
X95210051Y-119540046D01*
X95210049Y-119540045D01*
X95210050Y-119540045D01*
X95071963Y-119499500D01*
X95071961Y-119499500D01*
X94928039Y-119499500D01*
X94928036Y-119499500D01*
X94789949Y-119540045D01*
X94668873Y-119617856D01*
X94574623Y-119726626D01*
X94574622Y-119726628D01*
X94514834Y-119857543D01*
X94494353Y-120000000D01*
X90505647Y-120000000D01*
X90485165Y-119857543D01*
X90425377Y-119726627D01*
X90331128Y-119617857D01*
X90210053Y-119540047D01*
X90210051Y-119540046D01*
X90210049Y-119540045D01*
X90210050Y-119540045D01*
X90071963Y-119499500D01*
X90071961Y-119499500D01*
X89928039Y-119499500D01*
X89928036Y-119499500D01*
X89789949Y-119540045D01*
X89668873Y-119617856D01*
X89574623Y-119726626D01*
X89574622Y-119726628D01*
X89514834Y-119857543D01*
X89494353Y-120000000D01*
X85505647Y-120000000D01*
X85485165Y-119857543D01*
X85425377Y-119726627D01*
X85331128Y-119617857D01*
X85210053Y-119540047D01*
X85210051Y-119540046D01*
X85210049Y-119540045D01*
X85210050Y-119540045D01*
X85071963Y-119499500D01*
X85071961Y-119499500D01*
X84928039Y-119499500D01*
X84928036Y-119499500D01*
X84789949Y-119540045D01*
X84668873Y-119617856D01*
X84574623Y-119726626D01*
X84574622Y-119726628D01*
X84514834Y-119857543D01*
X84494353Y-120000000D01*
X80505647Y-120000000D01*
X80485165Y-119857543D01*
X80425377Y-119726627D01*
X80331128Y-119617857D01*
X80210053Y-119540047D01*
X80210051Y-119540046D01*
X80210049Y-119540045D01*
X80210050Y-119540045D01*
X80071963Y-119499500D01*
X80071961Y-119499500D01*
X79928039Y-119499500D01*
X79928036Y-119499500D01*
X79789949Y-119540045D01*
X79668873Y-119617856D01*
X79574623Y-119726626D01*
X79574622Y-119726628D01*
X79514834Y-119857543D01*
X79494353Y-120000000D01*
X70500000Y-120000000D01*
X70500000Y-119000000D01*
X82494353Y-119000000D01*
X82514834Y-119142456D01*
X82574622Y-119273371D01*
X82574623Y-119273373D01*
X82668872Y-119382143D01*
X82789947Y-119459953D01*
X82789950Y-119459954D01*
X82789949Y-119459954D01*
X82897107Y-119491417D01*
X82924633Y-119499500D01*
X82928036Y-119500499D01*
X82928038Y-119500500D01*
X82928039Y-119500500D01*
X83071962Y-119500500D01*
X83071962Y-119500499D01*
X83210053Y-119459953D01*
X83331128Y-119382143D01*
X83425377Y-119273373D01*
X83485165Y-119142457D01*
X83505647Y-119000000D01*
X96494353Y-119000000D01*
X96514834Y-119142456D01*
X96574622Y-119273371D01*
X96574623Y-119273373D01*
X96668872Y-119382143D01*
X96789947Y-119459953D01*
X96789950Y-119459954D01*
X96789949Y-119459954D01*
X96897107Y-119491417D01*
X96924633Y-119499500D01*
X96928036Y-119500499D01*
X96928038Y-119500500D01*
X96928039Y-119500500D01*
X97071962Y-119500500D01*
X97071962Y-119500499D01*
X97210053Y-119459953D01*
X97331128Y-119382143D01*
X97425377Y-119273373D01*
X97485165Y-119142457D01*
X97505647Y-119000000D01*
X97485165Y-118857543D01*
X97425377Y-118726627D01*
X97331128Y-118617857D01*
X97210053Y-118540047D01*
X97210051Y-118540046D01*
X97210049Y-118540045D01*
X97210050Y-118540045D01*
X97071963Y-118499500D01*
X97071961Y-118499500D01*
X96928039Y-118499500D01*
X96928036Y-118499500D01*
X96789949Y-118540045D01*
X96668873Y-118617856D01*
X96574623Y-118726626D01*
X96574622Y-118726628D01*
X96514834Y-118857543D01*
X96494353Y-119000000D01*
X83505647Y-119000000D01*
X83485165Y-118857543D01*
X83425377Y-118726627D01*
X83331128Y-118617857D01*
X83210053Y-118540047D01*
X83210051Y-118540046D01*
X83210049Y-118540045D01*
X83210050Y-118540045D01*
X83071963Y-118499500D01*
X83071961Y-118499500D01*
X82928039Y-118499500D01*
X82928036Y-118499500D01*
X82789949Y-118540045D01*
X82668873Y-118617856D01*
X82574623Y-118726626D01*
X82574622Y-118726628D01*
X82514834Y-118857543D01*
X82494353Y-119000000D01*
X70500000Y-119000000D01*
X70500000Y-118000000D01*
X85694353Y-118000000D01*
X85714834Y-118142456D01*
X85774622Y-118273371D01*
X85774623Y-118273373D01*
X85868872Y-118382143D01*
X85989947Y-118459953D01*
X85989950Y-118459954D01*
X85989949Y-118459954D01*
X86097107Y-118491417D01*
X86124633Y-118499500D01*
X86128036Y-118500499D01*
X86128038Y-118500500D01*
X86128039Y-118500500D01*
X86271962Y-118500500D01*
X86271962Y-118500499D01*
X86410053Y-118459953D01*
X86531128Y-118382143D01*
X86625377Y-118273373D01*
X86685165Y-118142457D01*
X86705647Y-118000000D01*
X89494353Y-118000000D01*
X89514834Y-118142456D01*
X89574622Y-118273371D01*
X89574623Y-118273373D01*
X89668872Y-118382143D01*
X89789947Y-118459953D01*
X89789950Y-118459954D01*
X89789949Y-118459954D01*
X89897107Y-118491417D01*
X89924633Y-118499500D01*
X89928036Y-118500499D01*
X89928038Y-118500500D01*
X89928039Y-118500500D01*
X90071962Y-118500500D01*
X90071962Y-118500499D01*
X90210053Y-118459953D01*
X90331128Y-118382143D01*
X90425377Y-118273373D01*
X90485165Y-118142457D01*
X90505647Y-118000000D01*
X93294353Y-118000000D01*
X93314834Y-118142456D01*
X93374622Y-118273371D01*
X93374623Y-118273373D01*
X93468872Y-118382143D01*
X93589947Y-118459953D01*
X93589950Y-118459954D01*
X93589949Y-118459954D01*
X93697107Y-118491417D01*
X93724633Y-118499500D01*
X93728036Y-118500499D01*
X93728038Y-118500500D01*
X93728039Y-118500500D01*
X93871962Y-118500500D01*
X93871962Y-118500499D01*
X94010053Y-118459953D01*
X94131128Y-118382143D01*
X94225377Y-118273373D01*
X94285165Y-118142457D01*
X94305647Y-118000000D01*
X94285165Y-117857543D01*
X94225377Y-117726627D01*
X94131128Y-117617857D01*
X94010053Y-117540047D01*
X94010051Y-117540046D01*
X94010049Y-117540045D01*
X94010050Y-117540045D01*
X93871963Y-117499500D01*
X93871961Y-117499500D01*
X93728039Y-117499500D01*
X93728036Y-117499500D01*
X93589949Y-117540045D01*
X93468873Y-117617856D01*
X93374623Y-117726626D01*
X93374622Y-117726628D01*
X93314834Y-117857543D01*
X93294353Y-118000000D01*
X90505647Y-118000000D01*
X90485165Y-117857543D01*
X90425377Y-117726627D01*
X90331128Y-117617857D01*
X90210053Y-117540047D01*
X90210051Y-117540046D01*
X90210049Y-117540045D01*
X90210050Y-117540045D01*
X90071963Y-117499500D01*
X90071961Y-117499500D01*
X89928039Y-117499500D01*
X89928036Y-117499500D01*
X89789949Y-117540045D01*
X89668873Y-117617856D01*
X89574623Y-117726626D01*
X89574622Y-117726628D01*
X89514834Y-117857543D01*
X89494353Y-118000000D01*
X86705647Y-118000000D01*
X86685165Y-117857543D01*
X86625377Y-117726627D01*
X86531128Y-117617857D01*
X86410053Y-117540047D01*
X86410051Y-117540046D01*
X86410049Y-117540045D01*
X86410050Y-117540045D01*
X86271963Y-117499500D01*
X86271961Y-117499500D01*
X86128039Y-117499500D01*
X86128036Y-117499500D01*
X85989949Y-117540045D01*
X85868873Y-117617856D01*
X85774623Y-117726626D01*
X85774622Y-117726628D01*
X85714834Y-117857543D01*
X85694353Y-118000000D01*
X70500000Y-118000000D01*
X70500000Y-117000000D01*
X80494353Y-117000000D01*
X80514834Y-117142456D01*
X80574622Y-117273371D01*
X80574623Y-117273373D01*
X80668872Y-117382143D01*
X80789947Y-117459953D01*
X80789950Y-117459954D01*
X80789949Y-117459954D01*
X80897107Y-117491417D01*
X80924633Y-117499500D01*
X80928036Y-117500499D01*
X80928038Y-117500500D01*
X80928039Y-117500500D01*
X81071962Y-117500500D01*
X81071962Y-117500499D01*
X81210053Y-117459953D01*
X81331128Y-117382143D01*
X81425377Y-117273373D01*
X81485165Y-117142457D01*
X81505647Y-117000000D01*
X82494353Y-117000000D01*
X82514834Y-117142456D01*
X82574622Y-117273371D01*
X82574623Y-117273373D01*
X82668872Y-117382143D01*
X82789947Y-117459953D01*
X82789950Y-117459954D01*
X82789949Y-117459954D01*
X82897107Y-117491417D01*
X82924633Y-117499500D01*
X82928036Y-117500499D01*
X82928038Y-117500500D01*
X82928039Y-117500500D01*
X83071962Y-117500500D01*
X83071962Y-117500499D01*
X83210053Y-117459953D01*
X83331128Y-117382143D01*
X83425377Y-117273373D01*
X83485165Y-117142457D01*
X83505647Y-117000000D01*
X83485165Y-116857543D01*
X83425377Y-116726627D01*
X83331128Y-116617857D01*
X83303342Y-116600000D01*
X84394353Y-116600000D01*
X84414834Y-116742456D01*
X84474622Y-116873371D01*
X84474623Y-116873373D01*
X84568872Y-116982143D01*
X84689947Y-117059953D01*
X84689950Y-117059954D01*
X84689949Y-117059954D01*
X84828036Y-117100499D01*
X84828038Y-117100500D01*
X84828039Y-117100500D01*
X84971962Y-117100500D01*
X84971962Y-117100499D01*
X85110053Y-117059953D01*
X85231128Y-116982143D01*
X85325377Y-116873373D01*
X85385165Y-116742457D01*
X85405647Y-116600000D01*
X94594353Y-116600000D01*
X94614834Y-116742456D01*
X94674622Y-116873371D01*
X94674623Y-116873373D01*
X94768872Y-116982143D01*
X94889947Y-117059953D01*
X94889950Y-117059954D01*
X94889949Y-117059954D01*
X95028036Y-117100499D01*
X95028038Y-117100500D01*
X95028039Y-117100500D01*
X95171962Y-117100500D01*
X95171962Y-117100499D01*
X95310053Y-117059953D01*
X95403342Y-117000000D01*
X96494353Y-117000000D01*
X96514834Y-117142456D01*
X96574622Y-117273371D01*
X96574623Y-117273373D01*
X96668872Y-117382143D01*
X96789947Y-117459953D01*
X96789950Y-117459954D01*
X96789949Y-117459954D01*
X96897107Y-117491417D01*
X96924633Y-117499500D01*
X96928036Y-117500499D01*
X96928038Y-117500500D01*
X96928039Y-117500500D01*
X97071962Y-117500500D01*
X97071962Y-117500499D01*
X97210053Y-117459953D01*
X97331128Y-117382143D01*
X97425377Y-117273373D01*
X97485165Y-117142457D01*
X97505647Y-117000000D01*
X98494353Y-117000000D01*
X98514834Y-117142456D01*
X98574622Y-117273371D01*
X98574623Y-117273373D01*
X98668872Y-117382143D01*
X98789947Y-117459953D01*
X98789950Y-117459954D01*
X98789949Y-117459954D01*
X98897107Y-117491417D01*
X98924633Y-117499500D01*
X98928036Y-117500499D01*
X98928038Y-117500500D01*
X98928039Y-117500500D01*
X99071962Y-117500500D01*
X99071962Y-117500499D01*
X99210053Y-117459953D01*
X99331128Y-117382143D01*
X99425377Y-117273373D01*
X99485165Y-117142457D01*
X99505647Y-117000000D01*
X99485165Y-116857543D01*
X99425377Y-116726627D01*
X99331128Y-116617857D01*
X99210053Y-116540047D01*
X99210051Y-116540046D01*
X99210049Y-116540045D01*
X99210050Y-116540045D01*
X99071963Y-116499500D01*
X99071961Y-116499500D01*
X98928039Y-116499500D01*
X98928036Y-116499500D01*
X98789949Y-116540045D01*
X98668873Y-116617856D01*
X98574623Y-116726626D01*
X98574622Y-116726628D01*
X98514834Y-116857543D01*
X98494353Y-117000000D01*
X97505647Y-117000000D01*
X97485165Y-116857543D01*
X97425377Y-116726627D01*
X97331128Y-116617857D01*
X97210053Y-116540047D01*
X97210051Y-116540046D01*
X97210049Y-116540045D01*
X97210050Y-116540045D01*
X97071963Y-116499500D01*
X97071961Y-116499500D01*
X96928039Y-116499500D01*
X96928036Y-116499500D01*
X96789949Y-116540045D01*
X96668873Y-116617856D01*
X96574623Y-116726626D01*
X96574622Y-116726628D01*
X96514834Y-116857543D01*
X96494353Y-117000000D01*
X95403342Y-117000000D01*
X95431128Y-116982143D01*
X95525377Y-116873373D01*
X95585165Y-116742457D01*
X95605647Y-116600000D01*
X95585165Y-116457543D01*
X95525377Y-116326627D01*
X95431128Y-116217857D01*
X95310053Y-116140047D01*
X95310051Y-116140046D01*
X95310049Y-116140045D01*
X95310050Y-116140045D01*
X95171963Y-116099500D01*
X95171961Y-116099500D01*
X95028039Y-116099500D01*
X95028036Y-116099500D01*
X94889949Y-116140045D01*
X94768873Y-116217856D01*
X94674623Y-116326626D01*
X94674622Y-116326628D01*
X94614834Y-116457543D01*
X94594353Y-116600000D01*
X85405647Y-116600000D01*
X85385165Y-116457543D01*
X85325377Y-116326627D01*
X85231128Y-116217857D01*
X85110053Y-116140047D01*
X85110051Y-116140046D01*
X85110049Y-116140045D01*
X85110050Y-116140045D01*
X84971963Y-116099500D01*
X84971961Y-116099500D01*
X84828039Y-116099500D01*
X84828036Y-116099500D01*
X84689949Y-116140045D01*
X84568873Y-116217856D01*
X84474623Y-116326626D01*
X84474622Y-116326628D01*
X84414834Y-116457543D01*
X84394353Y-116600000D01*
X83303342Y-116600000D01*
X83210053Y-116540047D01*
X83210051Y-116540046D01*
X83210049Y-116540045D01*
X83210050Y-116540045D01*
X83071963Y-116499500D01*
X83071961Y-116499500D01*
X82928039Y-116499500D01*
X82928036Y-116499500D01*
X82789949Y-116540045D01*
X82668873Y-116617856D01*
X82574623Y-116726626D01*
X82574622Y-116726628D01*
X82514834Y-116857543D01*
X82494353Y-117000000D01*
X81505647Y-117000000D01*
X81485165Y-116857543D01*
X81425377Y-116726627D01*
X81331128Y-116617857D01*
X81210053Y-116540047D01*
X81210051Y-116540046D01*
X81210049Y-116540045D01*
X81210050Y-116540045D01*
X81071963Y-116499500D01*
X81071961Y-116499500D01*
X80928039Y-116499500D01*
X80928036Y-116499500D01*
X80789949Y-116540045D01*
X80668873Y-116617856D01*
X80574623Y-116726626D01*
X80574622Y-116726628D01*
X80514834Y-116857543D01*
X80494353Y-117000000D01*
X70500000Y-117000000D01*
X70500000Y-115000000D01*
X79494353Y-115000000D01*
X79514834Y-115142456D01*
X79560504Y-115242457D01*
X79574623Y-115273373D01*
X79668872Y-115382143D01*
X79789947Y-115459953D01*
X79789950Y-115459954D01*
X79789949Y-115459954D01*
X79928036Y-115500499D01*
X79928038Y-115500500D01*
X79928039Y-115500500D01*
X80071962Y-115500500D01*
X80071962Y-115500499D01*
X80210053Y-115459953D01*
X80331128Y-115382143D01*
X80425377Y-115273373D01*
X80485165Y-115142457D01*
X80491269Y-115100000D01*
X82894353Y-115100000D01*
X82914834Y-115242456D01*
X82960504Y-115342457D01*
X82974623Y-115373373D01*
X83068872Y-115482143D01*
X83189947Y-115559953D01*
X83189950Y-115559954D01*
X83189949Y-115559954D01*
X83328036Y-115600499D01*
X83328038Y-115600500D01*
X83328039Y-115600500D01*
X83471962Y-115600500D01*
X83471962Y-115600499D01*
X83610053Y-115559953D01*
X83731128Y-115482143D01*
X83825377Y-115373373D01*
X83885165Y-115242457D01*
X83891269Y-115200000D01*
X85694353Y-115200000D01*
X85714834Y-115342456D01*
X85728953Y-115373371D01*
X85774623Y-115473373D01*
X85868872Y-115582143D01*
X85989947Y-115659953D01*
X85989950Y-115659954D01*
X85989949Y-115659954D01*
X86128036Y-115700499D01*
X86128038Y-115700500D01*
X86128039Y-115700500D01*
X86271962Y-115700500D01*
X86271962Y-115700499D01*
X86410053Y-115659953D01*
X86531128Y-115582143D01*
X86625377Y-115473373D01*
X86685165Y-115342457D01*
X86705647Y-115200000D01*
X87594353Y-115200000D01*
X87614834Y-115342456D01*
X87628953Y-115373371D01*
X87674623Y-115473373D01*
X87768872Y-115582143D01*
X87889947Y-115659953D01*
X87889950Y-115659954D01*
X87889949Y-115659954D01*
X88028036Y-115700499D01*
X88028038Y-115700500D01*
X88028039Y-115700500D01*
X88171962Y-115700500D01*
X88171962Y-115700499D01*
X88310053Y-115659953D01*
X88431128Y-115582143D01*
X88525377Y-115473373D01*
X88585165Y-115342457D01*
X88605647Y-115200000D01*
X93294353Y-115200000D01*
X93314834Y-115342456D01*
X93328953Y-115373371D01*
X93374623Y-115473373D01*
X93468872Y-115582143D01*
X93589947Y-115659953D01*
X93589950Y-115659954D01*
X93589949Y-115659954D01*
X93728036Y-115700499D01*
X93728038Y-115700500D01*
X93728039Y-115700500D01*
X93871962Y-115700500D01*
X93871962Y-115700499D01*
X94010053Y-115659953D01*
X94131128Y-115582143D01*
X94225377Y-115473373D01*
X94285165Y-115342457D01*
X94305647Y-115200000D01*
X94291269Y-115100000D01*
X96094353Y-115100000D01*
X96114834Y-115242456D01*
X96160504Y-115342457D01*
X96174623Y-115373373D01*
X96268872Y-115482143D01*
X96389947Y-115559953D01*
X96389950Y-115559954D01*
X96389949Y-115559954D01*
X96528036Y-115600499D01*
X96528038Y-115600500D01*
X96528039Y-115600500D01*
X96671962Y-115600500D01*
X96671962Y-115600499D01*
X96810053Y-115559953D01*
X96931128Y-115482143D01*
X97025377Y-115373373D01*
X97085165Y-115242457D01*
X97105647Y-115100000D01*
X97091269Y-115000000D01*
X99494353Y-115000000D01*
X99514834Y-115142456D01*
X99560504Y-115242457D01*
X99574623Y-115273373D01*
X99668872Y-115382143D01*
X99789947Y-115459953D01*
X99789950Y-115459954D01*
X99789949Y-115459954D01*
X99928036Y-115500499D01*
X99928038Y-115500500D01*
X99928039Y-115500500D01*
X100071962Y-115500500D01*
X100071962Y-115500499D01*
X100210053Y-115459953D01*
X100331128Y-115382143D01*
X100425377Y-115273373D01*
X100485165Y-115142457D01*
X100505647Y-115000000D01*
X100485165Y-114857543D01*
X100425377Y-114726627D01*
X100331128Y-114617857D01*
X100210053Y-114540047D01*
X100210051Y-114540046D01*
X100210049Y-114540045D01*
X100210050Y-114540045D01*
X100071963Y-114499500D01*
X100071961Y-114499500D01*
X99928039Y-114499500D01*
X99928036Y-114499500D01*
X99789949Y-114540045D01*
X99668873Y-114617856D01*
X99574623Y-114726626D01*
X99574622Y-114726628D01*
X99514834Y-114857543D01*
X99494353Y-115000000D01*
X97091269Y-115000000D01*
X97085165Y-114957543D01*
X97025377Y-114826627D01*
X96931128Y-114717857D01*
X96810053Y-114640047D01*
X96810051Y-114640046D01*
X96810049Y-114640045D01*
X96810050Y-114640045D01*
X96671963Y-114599500D01*
X96671961Y-114599500D01*
X96528039Y-114599500D01*
X96528036Y-114599500D01*
X96389949Y-114640045D01*
X96268873Y-114717856D01*
X96174623Y-114826626D01*
X96174622Y-114826628D01*
X96114834Y-114957543D01*
X96094353Y-115100000D01*
X94291269Y-115100000D01*
X94285165Y-115057543D01*
X94225377Y-114926627D01*
X94131128Y-114817857D01*
X94010053Y-114740047D01*
X94010051Y-114740046D01*
X94010049Y-114740045D01*
X94010050Y-114740045D01*
X93871963Y-114699500D01*
X93871961Y-114699500D01*
X93728039Y-114699500D01*
X93728036Y-114699500D01*
X93589949Y-114740045D01*
X93468873Y-114817856D01*
X93374623Y-114926626D01*
X93374622Y-114926628D01*
X93314834Y-115057543D01*
X93294353Y-115200000D01*
X88605647Y-115200000D01*
X88585165Y-115057543D01*
X88525377Y-114926627D01*
X88431128Y-114817857D01*
X88310053Y-114740047D01*
X88310051Y-114740046D01*
X88310049Y-114740045D01*
X88310050Y-114740045D01*
X88171963Y-114699500D01*
X88171961Y-114699500D01*
X88028039Y-114699500D01*
X88028036Y-114699500D01*
X87889949Y-114740045D01*
X87768873Y-114817856D01*
X87674623Y-114926626D01*
X87674622Y-114926628D01*
X87614834Y-115057543D01*
X87594353Y-115200000D01*
X86705647Y-115200000D01*
X86685165Y-115057543D01*
X86625377Y-114926627D01*
X86531128Y-114817857D01*
X86410053Y-114740047D01*
X86410051Y-114740046D01*
X86410049Y-114740045D01*
X86410050Y-114740045D01*
X86271963Y-114699500D01*
X86271961Y-114699500D01*
X86128039Y-114699500D01*
X86128036Y-114699500D01*
X85989949Y-114740045D01*
X85868873Y-114817856D01*
X85774623Y-114926626D01*
X85774622Y-114926628D01*
X85714834Y-115057543D01*
X85694353Y-115200000D01*
X83891269Y-115200000D01*
X83905647Y-115100000D01*
X83885165Y-114957543D01*
X83825377Y-114826627D01*
X83731128Y-114717857D01*
X83610053Y-114640047D01*
X83610051Y-114640046D01*
X83610049Y-114640045D01*
X83610050Y-114640045D01*
X83471963Y-114599500D01*
X83471961Y-114599500D01*
X83328039Y-114599500D01*
X83328036Y-114599500D01*
X83189949Y-114640045D01*
X83068873Y-114717856D01*
X82974623Y-114826626D01*
X82974622Y-114826628D01*
X82914834Y-114957543D01*
X82894353Y-115100000D01*
X80491269Y-115100000D01*
X80505647Y-115000000D01*
X80485165Y-114857543D01*
X80425377Y-114726627D01*
X80331128Y-114617857D01*
X80210053Y-114540047D01*
X80210051Y-114540046D01*
X80210049Y-114540045D01*
X80210050Y-114540045D01*
X80071963Y-114499500D01*
X80071961Y-114499500D01*
X79928039Y-114499500D01*
X79928036Y-114499500D01*
X79789949Y-114540045D01*
X79668873Y-114617856D01*
X79574623Y-114726626D01*
X79574622Y-114726628D01*
X79514834Y-114857543D01*
X79494353Y-115000000D01*
X70500000Y-115000000D01*
X70500000Y-113800000D01*
X81494353Y-113800000D01*
X81514834Y-113942456D01*
X81574622Y-114073371D01*
X81574623Y-114073373D01*
X81668872Y-114182143D01*
X81789947Y-114259953D01*
X81789950Y-114259954D01*
X81789949Y-114259954D01*
X81928036Y-114300499D01*
X81928038Y-114300500D01*
X81928039Y-114300500D01*
X82071962Y-114300500D01*
X82071962Y-114300499D01*
X82210053Y-114259953D01*
X82331128Y-114182143D01*
X82425377Y-114073373D01*
X82485165Y-113942457D01*
X82505647Y-113800000D01*
X84294353Y-113800000D01*
X84314834Y-113942456D01*
X84374622Y-114073371D01*
X84374623Y-114073373D01*
X84468872Y-114182143D01*
X84589947Y-114259953D01*
X84589950Y-114259954D01*
X84589949Y-114259954D01*
X84728036Y-114300499D01*
X84728038Y-114300500D01*
X84728039Y-114300500D01*
X84871962Y-114300500D01*
X84871962Y-114300499D01*
X85010053Y-114259953D01*
X85131128Y-114182143D01*
X85225377Y-114073373D01*
X85285165Y-113942457D01*
X85305647Y-113800000D01*
X94694353Y-113800000D01*
X94714834Y-113942456D01*
X94774622Y-114073371D01*
X94774623Y-114073373D01*
X94868872Y-114182143D01*
X94989947Y-114259953D01*
X94989950Y-114259954D01*
X94989949Y-114259954D01*
X95128036Y-114300499D01*
X95128038Y-114300500D01*
X95128039Y-114300500D01*
X95271962Y-114300500D01*
X95271962Y-114300499D01*
X95410053Y-114259953D01*
X95531128Y-114182143D01*
X95625377Y-114073373D01*
X95685165Y-113942457D01*
X95705647Y-113800000D01*
X97494353Y-113800000D01*
X97514834Y-113942456D01*
X97574622Y-114073371D01*
X97574623Y-114073373D01*
X97668872Y-114182143D01*
X97789947Y-114259953D01*
X97789950Y-114259954D01*
X97789949Y-114259954D01*
X97928036Y-114300499D01*
X97928038Y-114300500D01*
X97928039Y-114300500D01*
X98071962Y-114300500D01*
X98071962Y-114300499D01*
X98210053Y-114259953D01*
X98331128Y-114182143D01*
X98425377Y-114073373D01*
X98485165Y-113942457D01*
X98505647Y-113800000D01*
X98485165Y-113657543D01*
X98425377Y-113526627D01*
X98331128Y-113417857D01*
X98210053Y-113340047D01*
X98210051Y-113340046D01*
X98210049Y-113340045D01*
X98210050Y-113340045D01*
X98071963Y-113299500D01*
X98071961Y-113299500D01*
X97928039Y-113299500D01*
X97928036Y-113299500D01*
X97789949Y-113340045D01*
X97668873Y-113417856D01*
X97574623Y-113526626D01*
X97574622Y-113526628D01*
X97514834Y-113657543D01*
X97494353Y-113800000D01*
X95705647Y-113800000D01*
X95685165Y-113657543D01*
X95625377Y-113526627D01*
X95531128Y-113417857D01*
X95410053Y-113340047D01*
X95410051Y-113340046D01*
X95410049Y-113340045D01*
X95410050Y-113340045D01*
X95271963Y-113299500D01*
X95271961Y-113299500D01*
X95128039Y-113299500D01*
X95128036Y-113299500D01*
X94989949Y-113340045D01*
X94868873Y-113417856D01*
X94774623Y-113526626D01*
X94774622Y-113526628D01*
X94714834Y-113657543D01*
X94694353Y-113800000D01*
X85305647Y-113800000D01*
X85285165Y-113657543D01*
X85225377Y-113526627D01*
X85131128Y-113417857D01*
X85010053Y-113340047D01*
X85010051Y-113340046D01*
X85010049Y-113340045D01*
X85010050Y-113340045D01*
X84871963Y-113299500D01*
X84871961Y-113299500D01*
X84728039Y-113299500D01*
X84728036Y-113299500D01*
X84589949Y-113340045D01*
X84468873Y-113417856D01*
X84374623Y-113526626D01*
X84374622Y-113526628D01*
X84314834Y-113657543D01*
X84294353Y-113800000D01*
X82505647Y-113800000D01*
X82485165Y-113657543D01*
X82425377Y-113526627D01*
X82331128Y-113417857D01*
X82210053Y-113340047D01*
X82210051Y-113340046D01*
X82210049Y-113340045D01*
X82210050Y-113340045D01*
X82071963Y-113299500D01*
X82071961Y-113299500D01*
X81928039Y-113299500D01*
X81928036Y-113299500D01*
X81789949Y-113340045D01*
X81668873Y-113417856D01*
X81574623Y-113526626D01*
X81574622Y-113526628D01*
X81514834Y-113657543D01*
X81494353Y-113800000D01*
X70500000Y-113800000D01*
X70500000Y-113200000D01*
X72994353Y-113200000D01*
X73014834Y-113342456D01*
X73049269Y-113417856D01*
X73074623Y-113473373D01*
X73168872Y-113582143D01*
X73289947Y-113659953D01*
X73289950Y-113659954D01*
X73289949Y-113659954D01*
X73428036Y-113700499D01*
X73428038Y-113700500D01*
X73428039Y-113700500D01*
X73571962Y-113700500D01*
X73571962Y-113700499D01*
X73710053Y-113659953D01*
X73831128Y-113582143D01*
X73925377Y-113473373D01*
X73985165Y-113342457D01*
X74005647Y-113200000D01*
X73985165Y-113057543D01*
X73925377Y-112926627D01*
X73831128Y-112817857D01*
X73710053Y-112740047D01*
X73710051Y-112740046D01*
X73710049Y-112740045D01*
X73710050Y-112740045D01*
X73571963Y-112699500D01*
X73571961Y-112699500D01*
X73428039Y-112699500D01*
X73428036Y-112699500D01*
X73289949Y-112740045D01*
X73168873Y-112817856D01*
X73074623Y-112926626D01*
X73074622Y-112926628D01*
X73014834Y-113057543D01*
X72994353Y-113200000D01*
X70500000Y-113200000D01*
X70500000Y-110700000D01*
X72994353Y-110700000D01*
X73014834Y-110842456D01*
X73074622Y-110973371D01*
X73074623Y-110973373D01*
X73168872Y-111082143D01*
X73246683Y-111132148D01*
X73289948Y-111159954D01*
X73361704Y-111181023D01*
X73420482Y-111218797D01*
X73449507Y-111282353D01*
X73439563Y-111351511D01*
X73393809Y-111404315D01*
X73361704Y-111418977D01*
X73289948Y-111440045D01*
X73168873Y-111517856D01*
X73074623Y-111626626D01*
X73074622Y-111626628D01*
X73014834Y-111757543D01*
X72994353Y-111900000D01*
X73014834Y-112042456D01*
X73074622Y-112173371D01*
X73074623Y-112173373D01*
X73168872Y-112282143D01*
X73289947Y-112359953D01*
X73289950Y-112359954D01*
X73289949Y-112359954D01*
X73428036Y-112400499D01*
X73428038Y-112400500D01*
X73428039Y-112400500D01*
X73571962Y-112400500D01*
X73571962Y-112400499D01*
X73710053Y-112359953D01*
X73831128Y-112282143D01*
X73925377Y-112173373D01*
X73985165Y-112042457D01*
X74005647Y-111900000D01*
X81494353Y-111900000D01*
X81514834Y-112042456D01*
X81574622Y-112173371D01*
X81574623Y-112173373D01*
X81668872Y-112282143D01*
X81789947Y-112359953D01*
X81789950Y-112359954D01*
X81789949Y-112359954D01*
X81928036Y-112400499D01*
X81928038Y-112400500D01*
X81928039Y-112400500D01*
X82071962Y-112400500D01*
X82071962Y-112400499D01*
X82210053Y-112359953D01*
X82331128Y-112282143D01*
X82425377Y-112173373D01*
X82485165Y-112042457D01*
X82505647Y-111900000D01*
X84294353Y-111900000D01*
X84314834Y-112042456D01*
X84374622Y-112173371D01*
X84374623Y-112173373D01*
X84468872Y-112282143D01*
X84589947Y-112359953D01*
X84589950Y-112359954D01*
X84589949Y-112359954D01*
X84728036Y-112400499D01*
X84728038Y-112400500D01*
X84728039Y-112400500D01*
X84871962Y-112400500D01*
X84871962Y-112400499D01*
X85010053Y-112359953D01*
X85131128Y-112282143D01*
X85225377Y-112173373D01*
X85285165Y-112042457D01*
X85305647Y-111900000D01*
X87494353Y-111900000D01*
X87514834Y-112042456D01*
X87574622Y-112173371D01*
X87574623Y-112173373D01*
X87668872Y-112282143D01*
X87789947Y-112359953D01*
X87789950Y-112359954D01*
X87789949Y-112359954D01*
X87928036Y-112400499D01*
X87928038Y-112400500D01*
X87928039Y-112400500D01*
X88071962Y-112400500D01*
X88071962Y-112400499D01*
X88210053Y-112359953D01*
X88331128Y-112282143D01*
X88425377Y-112173373D01*
X88485165Y-112042457D01*
X88505647Y-111900000D01*
X91494353Y-111900000D01*
X91514834Y-112042456D01*
X91574622Y-112173371D01*
X91574623Y-112173373D01*
X91668872Y-112282143D01*
X91789947Y-112359953D01*
X91789950Y-112359954D01*
X91789949Y-112359954D01*
X91928036Y-112400499D01*
X91928038Y-112400500D01*
X91928039Y-112400500D01*
X92071962Y-112400500D01*
X92071962Y-112400499D01*
X92210053Y-112359953D01*
X92331128Y-112282143D01*
X92425377Y-112173373D01*
X92485165Y-112042457D01*
X92505647Y-111900000D01*
X92485165Y-111757543D01*
X92425377Y-111626627D01*
X92331128Y-111517857D01*
X92210053Y-111440047D01*
X92210051Y-111440046D01*
X92210049Y-111440045D01*
X92210050Y-111440045D01*
X92071963Y-111399500D01*
X92071961Y-111399500D01*
X91928039Y-111399500D01*
X91928036Y-111399500D01*
X91789949Y-111440045D01*
X91668873Y-111517856D01*
X91574623Y-111626626D01*
X91574622Y-111626628D01*
X91514834Y-111757543D01*
X91494353Y-111900000D01*
X88505647Y-111900000D01*
X88485165Y-111757543D01*
X88425377Y-111626627D01*
X88331128Y-111517857D01*
X88210053Y-111440047D01*
X88210051Y-111440046D01*
X88210049Y-111440045D01*
X88210050Y-111440045D01*
X88071963Y-111399500D01*
X88071961Y-111399500D01*
X87928039Y-111399500D01*
X87928036Y-111399500D01*
X87789949Y-111440045D01*
X87668873Y-111517856D01*
X87574623Y-111626626D01*
X87574622Y-111626628D01*
X87514834Y-111757543D01*
X87494353Y-111900000D01*
X85305647Y-111900000D01*
X85285165Y-111757543D01*
X85225377Y-111626627D01*
X85131128Y-111517857D01*
X85010053Y-111440047D01*
X85010051Y-111440046D01*
X85010049Y-111440045D01*
X85010050Y-111440045D01*
X84871963Y-111399500D01*
X84871961Y-111399500D01*
X84728039Y-111399500D01*
X84728036Y-111399500D01*
X84589949Y-111440045D01*
X84468873Y-111517856D01*
X84374623Y-111626626D01*
X84374622Y-111626628D01*
X84314834Y-111757543D01*
X84294353Y-111900000D01*
X82505647Y-111900000D01*
X82485165Y-111757543D01*
X82425377Y-111626627D01*
X82331128Y-111517857D01*
X82210053Y-111440047D01*
X82210051Y-111440046D01*
X82210049Y-111440045D01*
X82210050Y-111440045D01*
X82071963Y-111399500D01*
X82071961Y-111399500D01*
X81928039Y-111399500D01*
X81928036Y-111399500D01*
X81789949Y-111440045D01*
X81668873Y-111517856D01*
X81574623Y-111626626D01*
X81574622Y-111626628D01*
X81514834Y-111757543D01*
X81494353Y-111900000D01*
X74005647Y-111900000D01*
X73985165Y-111757543D01*
X73925377Y-111626627D01*
X73831128Y-111517857D01*
X73710053Y-111440047D01*
X73710051Y-111440046D01*
X73710049Y-111440045D01*
X73710050Y-111440045D01*
X73638296Y-111418977D01*
X73579518Y-111381203D01*
X73550492Y-111317648D01*
X73560435Y-111248489D01*
X73606190Y-111195685D01*
X73638296Y-111181023D01*
X73710050Y-111159954D01*
X73710050Y-111159953D01*
X73710053Y-111159953D01*
X73831128Y-111082143D01*
X73925377Y-110973373D01*
X73985165Y-110842457D01*
X74005647Y-110700000D01*
X73985165Y-110557543D01*
X73925377Y-110426627D01*
X73831128Y-110317857D01*
X73710053Y-110240047D01*
X73710051Y-110240046D01*
X73710049Y-110240045D01*
X73710050Y-110240045D01*
X73571963Y-110199500D01*
X73571961Y-110199500D01*
X73428039Y-110199500D01*
X73428036Y-110199500D01*
X73289949Y-110240045D01*
X73168873Y-110317856D01*
X73074623Y-110426626D01*
X73074622Y-110426628D01*
X73014834Y-110557543D01*
X72994353Y-110700000D01*
X70500000Y-110700000D01*
X70500000Y-110000000D01*
X79494353Y-110000000D01*
X79514834Y-110142456D01*
X79560504Y-110242457D01*
X79574623Y-110273373D01*
X79668872Y-110382143D01*
X79789947Y-110459953D01*
X79789950Y-110459954D01*
X79789949Y-110459954D01*
X79928036Y-110500499D01*
X79928038Y-110500500D01*
X79928039Y-110500500D01*
X80071962Y-110500500D01*
X80071962Y-110500499D01*
X80210053Y-110459953D01*
X80331128Y-110382143D01*
X80425377Y-110273373D01*
X80485165Y-110142457D01*
X80505647Y-110000000D01*
X81494353Y-110000000D01*
X81514834Y-110142456D01*
X81560504Y-110242457D01*
X81574623Y-110273373D01*
X81668872Y-110382143D01*
X81789947Y-110459953D01*
X81789950Y-110459954D01*
X81789949Y-110459954D01*
X81928036Y-110500499D01*
X81928038Y-110500500D01*
X81928039Y-110500500D01*
X82071962Y-110500500D01*
X82071962Y-110500499D01*
X82210053Y-110459953D01*
X82331128Y-110382143D01*
X82425377Y-110273373D01*
X82485165Y-110142457D01*
X82505647Y-110000000D01*
X89494353Y-110000000D01*
X89514834Y-110142456D01*
X89560504Y-110242457D01*
X89574623Y-110273373D01*
X89668872Y-110382143D01*
X89789947Y-110459953D01*
X89789950Y-110459954D01*
X89789949Y-110459954D01*
X89928036Y-110500499D01*
X89928038Y-110500500D01*
X89928039Y-110500500D01*
X90071962Y-110500500D01*
X90071962Y-110500499D01*
X90210053Y-110459953D01*
X90331128Y-110382143D01*
X90425377Y-110273373D01*
X90485165Y-110142457D01*
X90491269Y-110100000D01*
X94694353Y-110100000D01*
X94714834Y-110242456D01*
X94728953Y-110273371D01*
X94774623Y-110373373D01*
X94868872Y-110482143D01*
X94989947Y-110559953D01*
X94989950Y-110559954D01*
X94989949Y-110559954D01*
X95128036Y-110600499D01*
X95128038Y-110600500D01*
X95128039Y-110600500D01*
X95271962Y-110600500D01*
X95271962Y-110600499D01*
X95410053Y-110559953D01*
X95531128Y-110482143D01*
X95625377Y-110373373D01*
X95685165Y-110242457D01*
X95705647Y-110100000D01*
X95691269Y-110000000D01*
X97494353Y-110000000D01*
X97514834Y-110142456D01*
X97560504Y-110242457D01*
X97574623Y-110273373D01*
X97668872Y-110382143D01*
X97789947Y-110459953D01*
X97789950Y-110459954D01*
X97789949Y-110459954D01*
X97928036Y-110500499D01*
X97928038Y-110500500D01*
X97928039Y-110500500D01*
X98071962Y-110500500D01*
X98071962Y-110500499D01*
X98210053Y-110459953D01*
X98331128Y-110382143D01*
X98425377Y-110273373D01*
X98485165Y-110142457D01*
X98505647Y-110000000D01*
X99494353Y-110000000D01*
X99514834Y-110142456D01*
X99560504Y-110242457D01*
X99574623Y-110273373D01*
X99668872Y-110382143D01*
X99789947Y-110459953D01*
X99789950Y-110459954D01*
X99789949Y-110459954D01*
X99928036Y-110500499D01*
X99928038Y-110500500D01*
X99928039Y-110500500D01*
X100071962Y-110500500D01*
X100071962Y-110500499D01*
X100210053Y-110459953D01*
X100331128Y-110382143D01*
X100425377Y-110273373D01*
X100485165Y-110142457D01*
X100505647Y-110000000D01*
X100485165Y-109857543D01*
X100425377Y-109726627D01*
X100331128Y-109617857D01*
X100210053Y-109540047D01*
X100210051Y-109540046D01*
X100210049Y-109540045D01*
X100210050Y-109540045D01*
X100071963Y-109499500D01*
X100071961Y-109499500D01*
X99928039Y-109499500D01*
X99928036Y-109499500D01*
X99789949Y-109540045D01*
X99668873Y-109617856D01*
X99574623Y-109726626D01*
X99574622Y-109726628D01*
X99514834Y-109857543D01*
X99494353Y-110000000D01*
X98505647Y-110000000D01*
X98485165Y-109857543D01*
X98425377Y-109726627D01*
X98331128Y-109617857D01*
X98210053Y-109540047D01*
X98210051Y-109540046D01*
X98210049Y-109540045D01*
X98210050Y-109540045D01*
X98071963Y-109499500D01*
X98071961Y-109499500D01*
X97928039Y-109499500D01*
X97928036Y-109499500D01*
X97789949Y-109540045D01*
X97668873Y-109617856D01*
X97574623Y-109726626D01*
X97574622Y-109726628D01*
X97514834Y-109857543D01*
X97494353Y-110000000D01*
X95691269Y-110000000D01*
X95685165Y-109957543D01*
X95625377Y-109826627D01*
X95531128Y-109717857D01*
X95410053Y-109640047D01*
X95410051Y-109640046D01*
X95410049Y-109640045D01*
X95410050Y-109640045D01*
X95271963Y-109599500D01*
X95271961Y-109599500D01*
X95128039Y-109599500D01*
X95128036Y-109599500D01*
X94989949Y-109640045D01*
X94868873Y-109717856D01*
X94774623Y-109826626D01*
X94774622Y-109826628D01*
X94714834Y-109957543D01*
X94694353Y-110100000D01*
X90491269Y-110100000D01*
X90505647Y-110000000D01*
X90485165Y-109857543D01*
X90425377Y-109726627D01*
X90331128Y-109617857D01*
X90210053Y-109540047D01*
X90210051Y-109540046D01*
X90210049Y-109540045D01*
X90210050Y-109540045D01*
X90071963Y-109499500D01*
X90071961Y-109499500D01*
X89928039Y-109499500D01*
X89928036Y-109499500D01*
X89789949Y-109540045D01*
X89668873Y-109617856D01*
X89574623Y-109726626D01*
X89574622Y-109726628D01*
X89514834Y-109857543D01*
X89494353Y-110000000D01*
X82505647Y-110000000D01*
X82485165Y-109857543D01*
X82425377Y-109726627D01*
X82331128Y-109617857D01*
X82210053Y-109540047D01*
X82210051Y-109540046D01*
X82210049Y-109540045D01*
X82210050Y-109540045D01*
X82071963Y-109499500D01*
X82071961Y-109499500D01*
X81928039Y-109499500D01*
X81928036Y-109499500D01*
X81789949Y-109540045D01*
X81668873Y-109617856D01*
X81574623Y-109726626D01*
X81574622Y-109726628D01*
X81514834Y-109857543D01*
X81494353Y-110000000D01*
X80505647Y-110000000D01*
X80485165Y-109857543D01*
X80425377Y-109726627D01*
X80331128Y-109617857D01*
X80210053Y-109540047D01*
X80210051Y-109540046D01*
X80210049Y-109540045D01*
X80210050Y-109540045D01*
X80071963Y-109499500D01*
X80071961Y-109499500D01*
X79928039Y-109499500D01*
X79928036Y-109499500D01*
X79789949Y-109540045D01*
X79668873Y-109617856D01*
X79574623Y-109726626D01*
X79574622Y-109726628D01*
X79514834Y-109857543D01*
X79494353Y-110000000D01*
X70500000Y-110000000D01*
X70500000Y-109400000D01*
X72994353Y-109400000D01*
X73014834Y-109542456D01*
X73040886Y-109599500D01*
X73074623Y-109673373D01*
X73168872Y-109782143D01*
X73289947Y-109859953D01*
X73289950Y-109859954D01*
X73289949Y-109859954D01*
X73428036Y-109900499D01*
X73428038Y-109900500D01*
X73428039Y-109900500D01*
X73571962Y-109900500D01*
X73571962Y-109900499D01*
X73710053Y-109859953D01*
X73831128Y-109782143D01*
X73925377Y-109673373D01*
X73985165Y-109542457D01*
X74005647Y-109400000D01*
X73985165Y-109257543D01*
X73925377Y-109126627D01*
X73831128Y-109017857D01*
X73710053Y-108940047D01*
X73710051Y-108940046D01*
X73710049Y-108940045D01*
X73710050Y-108940045D01*
X73571963Y-108899500D01*
X73571961Y-108899500D01*
X73428039Y-108899500D01*
X73428036Y-108899500D01*
X73289949Y-108940045D01*
X73168873Y-109017856D01*
X73074623Y-109126626D01*
X73074622Y-109126628D01*
X73014834Y-109257543D01*
X72994353Y-109400000D01*
X70500000Y-109400000D01*
X70500000Y-108100000D01*
X94694353Y-108100000D01*
X94714834Y-108242456D01*
X94774622Y-108373371D01*
X94774623Y-108373373D01*
X94868872Y-108482143D01*
X94989947Y-108559953D01*
X94989950Y-108559954D01*
X94989949Y-108559954D01*
X95128036Y-108600499D01*
X95128038Y-108600500D01*
X95128039Y-108600500D01*
X95271962Y-108600500D01*
X95271962Y-108600499D01*
X95410053Y-108559953D01*
X95531128Y-108482143D01*
X95625377Y-108373373D01*
X95685165Y-108242457D01*
X95705647Y-108100000D01*
X95685165Y-107957543D01*
X95625377Y-107826627D01*
X95531128Y-107717857D01*
X95410053Y-107640047D01*
X95410051Y-107640046D01*
X95410049Y-107640045D01*
X95410050Y-107640045D01*
X95271963Y-107599500D01*
X95271961Y-107599500D01*
X95128039Y-107599500D01*
X95128036Y-107599500D01*
X94989949Y-107640045D01*
X94868873Y-107717856D01*
X94774623Y-107826626D01*
X94774622Y-107826628D01*
X94714834Y-107957543D01*
X94694353Y-108100000D01*
X70500000Y-108100000D01*
X70500000Y-107000000D01*
X88494353Y-107000000D01*
X88514834Y-107142456D01*
X88574622Y-107273371D01*
X88574623Y-107273373D01*
X88668872Y-107382143D01*
X88789947Y-107459953D01*
X88789950Y-107459954D01*
X88789949Y-107459954D01*
X88928036Y-107500499D01*
X88928038Y-107500500D01*
X88928039Y-107500500D01*
X89071962Y-107500500D01*
X89071962Y-107500499D01*
X89210053Y-107459953D01*
X89331128Y-107382143D01*
X89425377Y-107273373D01*
X89485165Y-107142457D01*
X89505647Y-107000000D01*
X91494353Y-107000000D01*
X91514834Y-107142456D01*
X91574622Y-107273371D01*
X91574623Y-107273373D01*
X91668872Y-107382143D01*
X91789947Y-107459953D01*
X91789950Y-107459954D01*
X91789949Y-107459954D01*
X91928036Y-107500499D01*
X91928038Y-107500500D01*
X91928039Y-107500500D01*
X92071962Y-107500500D01*
X92071962Y-107500499D01*
X92210053Y-107459953D01*
X92331128Y-107382143D01*
X92425377Y-107273373D01*
X92485165Y-107142457D01*
X92505647Y-107000000D01*
X92485165Y-106857543D01*
X92425377Y-106726627D01*
X92331128Y-106617857D01*
X92210053Y-106540047D01*
X92210051Y-106540046D01*
X92210049Y-106540045D01*
X92210050Y-106540045D01*
X92071963Y-106499500D01*
X92071961Y-106499500D01*
X91928039Y-106499500D01*
X91928036Y-106499500D01*
X91789949Y-106540045D01*
X91668873Y-106617856D01*
X91574623Y-106726626D01*
X91574622Y-106726628D01*
X91514834Y-106857543D01*
X91494353Y-107000000D01*
X89505647Y-107000000D01*
X89485165Y-106857543D01*
X89425377Y-106726627D01*
X89331128Y-106617857D01*
X89210053Y-106540047D01*
X89210051Y-106540046D01*
X89210049Y-106540045D01*
X89210050Y-106540045D01*
X89071963Y-106499500D01*
X89071961Y-106499500D01*
X88928039Y-106499500D01*
X88928036Y-106499500D01*
X88789949Y-106540045D01*
X88668873Y-106617856D01*
X88574623Y-106726626D01*
X88574622Y-106726628D01*
X88514834Y-106857543D01*
X88494353Y-107000000D01*
X70500000Y-107000000D01*
X70500000Y-106200000D01*
X84294353Y-106200000D01*
X84314834Y-106342456D01*
X84374622Y-106473371D01*
X84374623Y-106473373D01*
X84468872Y-106582143D01*
X84589947Y-106659953D01*
X84589950Y-106659954D01*
X84589949Y-106659954D01*
X84728036Y-106700499D01*
X84728038Y-106700500D01*
X84728039Y-106700500D01*
X84871962Y-106700500D01*
X84871962Y-106700499D01*
X85010053Y-106659953D01*
X85131128Y-106582143D01*
X85225377Y-106473373D01*
X85285165Y-106342457D01*
X85305647Y-106200000D01*
X94694353Y-106200000D01*
X94714834Y-106342456D01*
X94774622Y-106473371D01*
X94774623Y-106473373D01*
X94868872Y-106582143D01*
X94989947Y-106659953D01*
X94989950Y-106659954D01*
X94989949Y-106659954D01*
X95128036Y-106700499D01*
X95128038Y-106700500D01*
X95128039Y-106700500D01*
X95271962Y-106700500D01*
X95271962Y-106700499D01*
X95410053Y-106659953D01*
X95531128Y-106582143D01*
X95625377Y-106473373D01*
X95685165Y-106342457D01*
X95705647Y-106200000D01*
X97494353Y-106200000D01*
X97514834Y-106342456D01*
X97574622Y-106473371D01*
X97574623Y-106473373D01*
X97668872Y-106582143D01*
X97789947Y-106659953D01*
X97789950Y-106659954D01*
X97789949Y-106659954D01*
X97928036Y-106700499D01*
X97928038Y-106700500D01*
X97928039Y-106700500D01*
X98071962Y-106700500D01*
X98071962Y-106700499D01*
X98210053Y-106659953D01*
X98331128Y-106582143D01*
X98425377Y-106473373D01*
X98485165Y-106342457D01*
X98505647Y-106200000D01*
X98485165Y-106057543D01*
X98425377Y-105926627D01*
X98331128Y-105817857D01*
X98210053Y-105740047D01*
X98210051Y-105740046D01*
X98210049Y-105740045D01*
X98210050Y-105740045D01*
X98071963Y-105699500D01*
X98071961Y-105699500D01*
X97928039Y-105699500D01*
X97928036Y-105699500D01*
X97789949Y-105740045D01*
X97668873Y-105817856D01*
X97574623Y-105926626D01*
X97574622Y-105926628D01*
X97514834Y-106057543D01*
X97494353Y-106200000D01*
X95705647Y-106200000D01*
X95685165Y-106057543D01*
X95625377Y-105926627D01*
X95531128Y-105817857D01*
X95410053Y-105740047D01*
X95410051Y-105740046D01*
X95410049Y-105740045D01*
X95410050Y-105740045D01*
X95271963Y-105699500D01*
X95271961Y-105699500D01*
X95128039Y-105699500D01*
X95128036Y-105699500D01*
X94989949Y-105740045D01*
X94868873Y-105817856D01*
X94774623Y-105926626D01*
X94774622Y-105926628D01*
X94714834Y-106057543D01*
X94694353Y-106200000D01*
X85305647Y-106200000D01*
X85285165Y-106057543D01*
X85225377Y-105926627D01*
X85131128Y-105817857D01*
X85010053Y-105740047D01*
X85010051Y-105740046D01*
X85010049Y-105740045D01*
X85010050Y-105740045D01*
X84871963Y-105699500D01*
X84871961Y-105699500D01*
X84728039Y-105699500D01*
X84728036Y-105699500D01*
X84589949Y-105740045D01*
X84468873Y-105817856D01*
X84374623Y-105926626D01*
X84374622Y-105926628D01*
X84314834Y-106057543D01*
X84294353Y-106200000D01*
X70500000Y-106200000D01*
X70500000Y-105000000D01*
X79494353Y-105000000D01*
X79514834Y-105142456D01*
X79545660Y-105209954D01*
X79574623Y-105273373D01*
X79668872Y-105382143D01*
X79789947Y-105459953D01*
X79789950Y-105459954D01*
X79789949Y-105459954D01*
X79928036Y-105500499D01*
X79928038Y-105500500D01*
X79928039Y-105500500D01*
X80071962Y-105500500D01*
X80071962Y-105500499D01*
X80210053Y-105459953D01*
X80331128Y-105382143D01*
X80425377Y-105273373D01*
X80485165Y-105142457D01*
X80505647Y-105000000D01*
X80491269Y-104900000D01*
X82894353Y-104900000D01*
X82914834Y-105042456D01*
X82960504Y-105142457D01*
X82974623Y-105173373D01*
X83068872Y-105282143D01*
X83189947Y-105359953D01*
X83189950Y-105359954D01*
X83189949Y-105359954D01*
X83328036Y-105400499D01*
X83328038Y-105400500D01*
X83328039Y-105400500D01*
X83471962Y-105400500D01*
X83471962Y-105400499D01*
X83610053Y-105359953D01*
X83731128Y-105282143D01*
X83825377Y-105173373D01*
X83885165Y-105042457D01*
X83905647Y-104900000D01*
X83891269Y-104800000D01*
X85694353Y-104800000D01*
X85714834Y-104942456D01*
X85760504Y-105042457D01*
X85774623Y-105073373D01*
X85868872Y-105182143D01*
X85989947Y-105259953D01*
X85989950Y-105259954D01*
X85989949Y-105259954D01*
X86128036Y-105300499D01*
X86128038Y-105300500D01*
X86128039Y-105300500D01*
X86271962Y-105300500D01*
X86271962Y-105300499D01*
X86410053Y-105259953D01*
X86531128Y-105182143D01*
X86625377Y-105073373D01*
X86685165Y-104942457D01*
X86705647Y-104800000D01*
X86698458Y-104750000D01*
X89494353Y-104750000D01*
X89514834Y-104892456D01*
X89537669Y-104942456D01*
X89574623Y-105023373D01*
X89668872Y-105132143D01*
X89789947Y-105209953D01*
X89789950Y-105209954D01*
X89789949Y-105209954D01*
X89928036Y-105250499D01*
X89928038Y-105250500D01*
X89928039Y-105250500D01*
X90071962Y-105250500D01*
X90071962Y-105250499D01*
X90210053Y-105209953D01*
X90331128Y-105132143D01*
X90425377Y-105023373D01*
X90485165Y-104892457D01*
X90498458Y-104800000D01*
X93294353Y-104800000D01*
X93314834Y-104942456D01*
X93360504Y-105042457D01*
X93374623Y-105073373D01*
X93468872Y-105182143D01*
X93589947Y-105259953D01*
X93589950Y-105259954D01*
X93589949Y-105259954D01*
X93728036Y-105300499D01*
X93728038Y-105300500D01*
X93728039Y-105300500D01*
X93871962Y-105300500D01*
X93871962Y-105300499D01*
X94010053Y-105259953D01*
X94131128Y-105182143D01*
X94225377Y-105073373D01*
X94285165Y-104942457D01*
X94291269Y-104900000D01*
X96094353Y-104900000D01*
X96114834Y-105042456D01*
X96160504Y-105142457D01*
X96174623Y-105173373D01*
X96268872Y-105282143D01*
X96389947Y-105359953D01*
X96389950Y-105359954D01*
X96389949Y-105359954D01*
X96528036Y-105400499D01*
X96528038Y-105400500D01*
X96528039Y-105400500D01*
X96671962Y-105400500D01*
X96671962Y-105400499D01*
X96810053Y-105359953D01*
X96931128Y-105282143D01*
X97025377Y-105173373D01*
X97085165Y-105042457D01*
X97091269Y-105000000D01*
X99494353Y-105000000D01*
X99514834Y-105142456D01*
X99545660Y-105209954D01*
X99574623Y-105273373D01*
X99668872Y-105382143D01*
X99789947Y-105459953D01*
X99789950Y-105459954D01*
X99789949Y-105459954D01*
X99928036Y-105500499D01*
X99928038Y-105500500D01*
X99928039Y-105500500D01*
X100071962Y-105500500D01*
X100071962Y-105500499D01*
X100210053Y-105459953D01*
X100331128Y-105382143D01*
X100425377Y-105273373D01*
X100485165Y-105142457D01*
X100505647Y-105000000D01*
X100485165Y-104857543D01*
X100425377Y-104726627D01*
X100331128Y-104617857D01*
X100210053Y-104540047D01*
X100210051Y-104540046D01*
X100210049Y-104540045D01*
X100210050Y-104540045D01*
X100071963Y-104499500D01*
X100071961Y-104499500D01*
X99928039Y-104499500D01*
X99928036Y-104499500D01*
X99789949Y-104540045D01*
X99668873Y-104617856D01*
X99574623Y-104726626D01*
X99574622Y-104726628D01*
X99514834Y-104857543D01*
X99494353Y-105000000D01*
X97091269Y-105000000D01*
X97105647Y-104900000D01*
X97085165Y-104757543D01*
X97025377Y-104626627D01*
X96931128Y-104517857D01*
X96810053Y-104440047D01*
X96810051Y-104440046D01*
X96810049Y-104440045D01*
X96810050Y-104440045D01*
X96671963Y-104399500D01*
X96671961Y-104399500D01*
X96528039Y-104399500D01*
X96528036Y-104399500D01*
X96389949Y-104440045D01*
X96268873Y-104517856D01*
X96174623Y-104626626D01*
X96174622Y-104626628D01*
X96114834Y-104757543D01*
X96094353Y-104900000D01*
X94291269Y-104900000D01*
X94305647Y-104800000D01*
X94285165Y-104657543D01*
X94225377Y-104526627D01*
X94131128Y-104417857D01*
X94010053Y-104340047D01*
X94010051Y-104340046D01*
X94010049Y-104340045D01*
X94010050Y-104340045D01*
X93871963Y-104299500D01*
X93871961Y-104299500D01*
X93728039Y-104299500D01*
X93728036Y-104299500D01*
X93589949Y-104340045D01*
X93468873Y-104417856D01*
X93374623Y-104526626D01*
X93374622Y-104526628D01*
X93314834Y-104657543D01*
X93294353Y-104800000D01*
X90498458Y-104800000D01*
X90505647Y-104750000D01*
X90485165Y-104607543D01*
X90425377Y-104476627D01*
X90331128Y-104367857D01*
X90210053Y-104290047D01*
X90210051Y-104290046D01*
X90210049Y-104290045D01*
X90210050Y-104290045D01*
X90071963Y-104249500D01*
X90071961Y-104249500D01*
X89928039Y-104249500D01*
X89928036Y-104249500D01*
X89789949Y-104290045D01*
X89668873Y-104367856D01*
X89574623Y-104476626D01*
X89574622Y-104476628D01*
X89514834Y-104607543D01*
X89494353Y-104750000D01*
X86698458Y-104750000D01*
X86685165Y-104657543D01*
X86625377Y-104526627D01*
X86531128Y-104417857D01*
X86410053Y-104340047D01*
X86410051Y-104340046D01*
X86410049Y-104340045D01*
X86410050Y-104340045D01*
X86271963Y-104299500D01*
X86271961Y-104299500D01*
X86128039Y-104299500D01*
X86128036Y-104299500D01*
X85989949Y-104340045D01*
X85868873Y-104417856D01*
X85774623Y-104526626D01*
X85774622Y-104526628D01*
X85714834Y-104657543D01*
X85694353Y-104800000D01*
X83891269Y-104800000D01*
X83885165Y-104757543D01*
X83825377Y-104626627D01*
X83731128Y-104517857D01*
X83610053Y-104440047D01*
X83610051Y-104440046D01*
X83610049Y-104440045D01*
X83610050Y-104440045D01*
X83471963Y-104399500D01*
X83471961Y-104399500D01*
X83328039Y-104399500D01*
X83328036Y-104399500D01*
X83189949Y-104440045D01*
X83068873Y-104517856D01*
X82974623Y-104626626D01*
X82974622Y-104626628D01*
X82914834Y-104757543D01*
X82894353Y-104900000D01*
X80491269Y-104900000D01*
X80485165Y-104857543D01*
X80425377Y-104726627D01*
X80331128Y-104617857D01*
X80210053Y-104540047D01*
X80210051Y-104540046D01*
X80210049Y-104540045D01*
X80210050Y-104540045D01*
X80071963Y-104499500D01*
X80071961Y-104499500D01*
X79928039Y-104499500D01*
X79928036Y-104499500D01*
X79789949Y-104540045D01*
X79668873Y-104617856D01*
X79574623Y-104726626D01*
X79574622Y-104726628D01*
X79514834Y-104857543D01*
X79494353Y-105000000D01*
X70500000Y-105000000D01*
X70500000Y-103000000D01*
X80494353Y-103000000D01*
X80514834Y-103142456D01*
X80574622Y-103273371D01*
X80574623Y-103273373D01*
X80668872Y-103382143D01*
X80789947Y-103459953D01*
X80789950Y-103459954D01*
X80789949Y-103459954D01*
X80928036Y-103500499D01*
X80928038Y-103500500D01*
X80928039Y-103500500D01*
X81071962Y-103500500D01*
X81071962Y-103500499D01*
X81210053Y-103459953D01*
X81331128Y-103382143D01*
X81425377Y-103273373D01*
X81485165Y-103142457D01*
X81505647Y-103000000D01*
X82494353Y-103000000D01*
X82514834Y-103142456D01*
X82574622Y-103273371D01*
X82574623Y-103273373D01*
X82668872Y-103382143D01*
X82789947Y-103459953D01*
X82789950Y-103459954D01*
X82789949Y-103459954D01*
X82928036Y-103500499D01*
X82928038Y-103500500D01*
X82928039Y-103500500D01*
X83071962Y-103500500D01*
X83071962Y-103500499D01*
X83210053Y-103459953D01*
X83303342Y-103400000D01*
X84394353Y-103400000D01*
X84414834Y-103542456D01*
X84474622Y-103673371D01*
X84474623Y-103673373D01*
X84568872Y-103782143D01*
X84689947Y-103859953D01*
X84689950Y-103859954D01*
X84689949Y-103859954D01*
X84828036Y-103900499D01*
X84828038Y-103900500D01*
X84828039Y-103900500D01*
X84971962Y-103900500D01*
X84971962Y-103900499D01*
X85110053Y-103859953D01*
X85231128Y-103782143D01*
X85325377Y-103673373D01*
X85385165Y-103542457D01*
X85405647Y-103400000D01*
X94594353Y-103400000D01*
X94614834Y-103542456D01*
X94674622Y-103673371D01*
X94674623Y-103673373D01*
X94768872Y-103782143D01*
X94889947Y-103859953D01*
X94889950Y-103859954D01*
X94889949Y-103859954D01*
X95028036Y-103900499D01*
X95028038Y-103900500D01*
X95028039Y-103900500D01*
X95171962Y-103900500D01*
X95171962Y-103900499D01*
X95310053Y-103859953D01*
X95431128Y-103782143D01*
X95525377Y-103673373D01*
X95585165Y-103542457D01*
X95605647Y-103400000D01*
X95585165Y-103257543D01*
X95525377Y-103126627D01*
X95431128Y-103017857D01*
X95403342Y-103000000D01*
X96494353Y-103000000D01*
X96514834Y-103142456D01*
X96574622Y-103273371D01*
X96574623Y-103273373D01*
X96668872Y-103382143D01*
X96789947Y-103459953D01*
X96789950Y-103459954D01*
X96789949Y-103459954D01*
X96928036Y-103500499D01*
X96928038Y-103500500D01*
X96928039Y-103500500D01*
X97071962Y-103500500D01*
X97071962Y-103500499D01*
X97210053Y-103459953D01*
X97331128Y-103382143D01*
X97425377Y-103273373D01*
X97485165Y-103142457D01*
X97505647Y-103000000D01*
X98494353Y-103000000D01*
X98514834Y-103142456D01*
X98574622Y-103273371D01*
X98574623Y-103273373D01*
X98668872Y-103382143D01*
X98789947Y-103459953D01*
X98789950Y-103459954D01*
X98789949Y-103459954D01*
X98928036Y-103500499D01*
X98928038Y-103500500D01*
X98928039Y-103500500D01*
X99071962Y-103500500D01*
X99071962Y-103500499D01*
X99210053Y-103459953D01*
X99331128Y-103382143D01*
X99425377Y-103273373D01*
X99485165Y-103142457D01*
X99505647Y-103000000D01*
X99485165Y-102857543D01*
X99425377Y-102726627D01*
X99331128Y-102617857D01*
X99210053Y-102540047D01*
X99210051Y-102540046D01*
X99210049Y-102540045D01*
X99210050Y-102540045D01*
X99071963Y-102499500D01*
X99071961Y-102499500D01*
X98928039Y-102499500D01*
X98928036Y-102499500D01*
X98789949Y-102540045D01*
X98668873Y-102617856D01*
X98574623Y-102726626D01*
X98574622Y-102726628D01*
X98514834Y-102857543D01*
X98494353Y-103000000D01*
X97505647Y-103000000D01*
X97485165Y-102857543D01*
X97425377Y-102726627D01*
X97331128Y-102617857D01*
X97210053Y-102540047D01*
X97210051Y-102540046D01*
X97210049Y-102540045D01*
X97210050Y-102540045D01*
X97071963Y-102499500D01*
X97071961Y-102499500D01*
X96928039Y-102499500D01*
X96928036Y-102499500D01*
X96789949Y-102540045D01*
X96668873Y-102617856D01*
X96574623Y-102726626D01*
X96574622Y-102726628D01*
X96514834Y-102857543D01*
X96494353Y-103000000D01*
X95403342Y-103000000D01*
X95310053Y-102940047D01*
X95310051Y-102940046D01*
X95310049Y-102940045D01*
X95310050Y-102940045D01*
X95171963Y-102899500D01*
X95171961Y-102899500D01*
X95028039Y-102899500D01*
X95028036Y-102899500D01*
X94889949Y-102940045D01*
X94768873Y-103017856D01*
X94674623Y-103126626D01*
X94674622Y-103126628D01*
X94614834Y-103257543D01*
X94594353Y-103400000D01*
X85405647Y-103400000D01*
X85385165Y-103257543D01*
X85325377Y-103126627D01*
X85231128Y-103017857D01*
X85110053Y-102940047D01*
X85110051Y-102940046D01*
X85110049Y-102940045D01*
X85110050Y-102940045D01*
X84971963Y-102899500D01*
X84971961Y-102899500D01*
X84828039Y-102899500D01*
X84828036Y-102899500D01*
X84689949Y-102940045D01*
X84568873Y-103017856D01*
X84474623Y-103126626D01*
X84474622Y-103126628D01*
X84414834Y-103257543D01*
X84394353Y-103400000D01*
X83303342Y-103400000D01*
X83331128Y-103382143D01*
X83425377Y-103273373D01*
X83485165Y-103142457D01*
X83505647Y-103000000D01*
X83485165Y-102857543D01*
X83425377Y-102726627D01*
X83331128Y-102617857D01*
X83210053Y-102540047D01*
X83210051Y-102540046D01*
X83210049Y-102540045D01*
X83210050Y-102540045D01*
X83071963Y-102499500D01*
X83071961Y-102499500D01*
X82928039Y-102499500D01*
X82928036Y-102499500D01*
X82789949Y-102540045D01*
X82668873Y-102617856D01*
X82574623Y-102726626D01*
X82574622Y-102726628D01*
X82514834Y-102857543D01*
X82494353Y-103000000D01*
X81505647Y-103000000D01*
X81485165Y-102857543D01*
X81425377Y-102726627D01*
X81331128Y-102617857D01*
X81210053Y-102540047D01*
X81210051Y-102540046D01*
X81210049Y-102540045D01*
X81210050Y-102540045D01*
X81071963Y-102499500D01*
X81071961Y-102499500D01*
X80928039Y-102499500D01*
X80928036Y-102499500D01*
X80789949Y-102540045D01*
X80668873Y-102617856D01*
X80574623Y-102726626D01*
X80574622Y-102726628D01*
X80514834Y-102857543D01*
X80494353Y-103000000D01*
X70500000Y-103000000D01*
X70500000Y-102000000D01*
X85694353Y-102000000D01*
X85714834Y-102142456D01*
X85774622Y-102273371D01*
X85774623Y-102273373D01*
X85868872Y-102382143D01*
X85989947Y-102459953D01*
X85989950Y-102459954D01*
X85989949Y-102459954D01*
X86097107Y-102491417D01*
X86124633Y-102499500D01*
X86128036Y-102500499D01*
X86128038Y-102500500D01*
X86128039Y-102500500D01*
X86271962Y-102500500D01*
X86271962Y-102500499D01*
X86410053Y-102459953D01*
X86531128Y-102382143D01*
X86625377Y-102273373D01*
X86685165Y-102142457D01*
X86705647Y-102000000D01*
X89494353Y-102000000D01*
X89514834Y-102142456D01*
X89574622Y-102273371D01*
X89574623Y-102273373D01*
X89668872Y-102382143D01*
X89789947Y-102459953D01*
X89789950Y-102459954D01*
X89789949Y-102459954D01*
X89897107Y-102491417D01*
X89924633Y-102499500D01*
X89928036Y-102500499D01*
X89928038Y-102500500D01*
X89928039Y-102500500D01*
X90071962Y-102500500D01*
X90071962Y-102500499D01*
X90210053Y-102459953D01*
X90331128Y-102382143D01*
X90425377Y-102273373D01*
X90485165Y-102142457D01*
X90505647Y-102000000D01*
X93294353Y-102000000D01*
X93314834Y-102142456D01*
X93374622Y-102273371D01*
X93374623Y-102273373D01*
X93468872Y-102382143D01*
X93589947Y-102459953D01*
X93589950Y-102459954D01*
X93589949Y-102459954D01*
X93697107Y-102491417D01*
X93724633Y-102499500D01*
X93728036Y-102500499D01*
X93728038Y-102500500D01*
X93728039Y-102500500D01*
X93871962Y-102500500D01*
X93871962Y-102500499D01*
X94010053Y-102459953D01*
X94131128Y-102382143D01*
X94225377Y-102273373D01*
X94285165Y-102142457D01*
X94305647Y-102000000D01*
X94285165Y-101857543D01*
X94225377Y-101726627D01*
X94131128Y-101617857D01*
X94010053Y-101540047D01*
X94010051Y-101540046D01*
X94010049Y-101540045D01*
X94010050Y-101540045D01*
X93871963Y-101499500D01*
X93871961Y-101499500D01*
X93728039Y-101499500D01*
X93728036Y-101499500D01*
X93589949Y-101540045D01*
X93468873Y-101617856D01*
X93374623Y-101726626D01*
X93374622Y-101726628D01*
X93314834Y-101857543D01*
X93294353Y-102000000D01*
X90505647Y-102000000D01*
X90485165Y-101857543D01*
X90425377Y-101726627D01*
X90331128Y-101617857D01*
X90210053Y-101540047D01*
X90210051Y-101540046D01*
X90210049Y-101540045D01*
X90210050Y-101540045D01*
X90071963Y-101499500D01*
X90071961Y-101499500D01*
X89928039Y-101499500D01*
X89928036Y-101499500D01*
X89789949Y-101540045D01*
X89668873Y-101617856D01*
X89574623Y-101726626D01*
X89574622Y-101726628D01*
X89514834Y-101857543D01*
X89494353Y-102000000D01*
X86705647Y-102000000D01*
X86685165Y-101857543D01*
X86625377Y-101726627D01*
X86531128Y-101617857D01*
X86410053Y-101540047D01*
X86410051Y-101540046D01*
X86410049Y-101540045D01*
X86410050Y-101540045D01*
X86271963Y-101499500D01*
X86271961Y-101499500D01*
X86128039Y-101499500D01*
X86128036Y-101499500D01*
X85989949Y-101540045D01*
X85868873Y-101617856D01*
X85774623Y-101726626D01*
X85774622Y-101726628D01*
X85714834Y-101857543D01*
X85694353Y-102000000D01*
X70500000Y-102000000D01*
X70500000Y-101000000D01*
X82494353Y-101000000D01*
X82514834Y-101142456D01*
X82574622Y-101273371D01*
X82574623Y-101273373D01*
X82668872Y-101382143D01*
X82789947Y-101459953D01*
X82789950Y-101459954D01*
X82789949Y-101459954D01*
X82897107Y-101491417D01*
X82924633Y-101499500D01*
X82928036Y-101500499D01*
X82928038Y-101500500D01*
X82928039Y-101500500D01*
X83071962Y-101500500D01*
X83071962Y-101500499D01*
X83210053Y-101459953D01*
X83331128Y-101382143D01*
X83425377Y-101273373D01*
X83485165Y-101142457D01*
X83505647Y-101000000D01*
X96494353Y-101000000D01*
X96514834Y-101142456D01*
X96574622Y-101273371D01*
X96574623Y-101273373D01*
X96668872Y-101382143D01*
X96789947Y-101459953D01*
X96789950Y-101459954D01*
X96789949Y-101459954D01*
X96897107Y-101491417D01*
X96924633Y-101499500D01*
X96928036Y-101500499D01*
X96928038Y-101500500D01*
X96928039Y-101500500D01*
X97071962Y-101500500D01*
X97071962Y-101500499D01*
X97210053Y-101459953D01*
X97331128Y-101382143D01*
X97425377Y-101273373D01*
X97485165Y-101142457D01*
X97505647Y-101000000D01*
X97485165Y-100857543D01*
X97425377Y-100726627D01*
X97331128Y-100617857D01*
X97210053Y-100540047D01*
X97210051Y-100540046D01*
X97210049Y-100540045D01*
X97210050Y-100540045D01*
X97071963Y-100499500D01*
X97071961Y-100499500D01*
X96928039Y-100499500D01*
X96928036Y-100499500D01*
X96789949Y-100540045D01*
X96668873Y-100617856D01*
X96574623Y-100726626D01*
X96574622Y-100726628D01*
X96514834Y-100857543D01*
X96494353Y-101000000D01*
X83505647Y-101000000D01*
X83485165Y-100857543D01*
X83425377Y-100726627D01*
X83331128Y-100617857D01*
X83210053Y-100540047D01*
X83210051Y-100540046D01*
X83210049Y-100540045D01*
X83210050Y-100540045D01*
X83071963Y-100499500D01*
X83071961Y-100499500D01*
X82928039Y-100499500D01*
X82928036Y-100499500D01*
X82789949Y-100540045D01*
X82668873Y-100617856D01*
X82574623Y-100726626D01*
X82574622Y-100726628D01*
X82514834Y-100857543D01*
X82494353Y-101000000D01*
X70500000Y-101000000D01*
X70500000Y-100000000D01*
X79494353Y-100000000D01*
X79514834Y-100142456D01*
X79574622Y-100273371D01*
X79574623Y-100273373D01*
X79668872Y-100382143D01*
X79789947Y-100459953D01*
X79789950Y-100459954D01*
X79789949Y-100459954D01*
X79897107Y-100491417D01*
X79924633Y-100499500D01*
X79928036Y-100500499D01*
X79928038Y-100500500D01*
X79928039Y-100500500D01*
X80071962Y-100500500D01*
X80071962Y-100500499D01*
X80210053Y-100459953D01*
X80331128Y-100382143D01*
X80425377Y-100273373D01*
X80485165Y-100142457D01*
X80505647Y-100000000D01*
X84494353Y-100000000D01*
X84514834Y-100142456D01*
X84574622Y-100273371D01*
X84574623Y-100273373D01*
X84668872Y-100382143D01*
X84789947Y-100459953D01*
X84789950Y-100459954D01*
X84789949Y-100459954D01*
X84897107Y-100491417D01*
X84924633Y-100499500D01*
X84928036Y-100500499D01*
X84928038Y-100500500D01*
X84928039Y-100500500D01*
X85071962Y-100500500D01*
X85071962Y-100500499D01*
X85210053Y-100459953D01*
X85331128Y-100382143D01*
X85425377Y-100273373D01*
X85485165Y-100142457D01*
X85505647Y-100000000D01*
X89494353Y-100000000D01*
X89514834Y-100142456D01*
X89574622Y-100273371D01*
X89574623Y-100273373D01*
X89668872Y-100382143D01*
X89789947Y-100459953D01*
X89789950Y-100459954D01*
X89789949Y-100459954D01*
X89897107Y-100491417D01*
X89924633Y-100499500D01*
X89928036Y-100500499D01*
X89928038Y-100500500D01*
X89928039Y-100500500D01*
X90071962Y-100500500D01*
X90071962Y-100500499D01*
X90210053Y-100459953D01*
X90331128Y-100382143D01*
X90425377Y-100273373D01*
X90485165Y-100142457D01*
X90505647Y-100000000D01*
X94494353Y-100000000D01*
X94514834Y-100142456D01*
X94574622Y-100273371D01*
X94574623Y-100273373D01*
X94668872Y-100382143D01*
X94789947Y-100459953D01*
X94789950Y-100459954D01*
X94789949Y-100459954D01*
X94897107Y-100491417D01*
X94924633Y-100499500D01*
X94928036Y-100500499D01*
X94928038Y-100500500D01*
X94928039Y-100500500D01*
X95071962Y-100500500D01*
X95071962Y-100500499D01*
X95210053Y-100459953D01*
X95331128Y-100382143D01*
X95425377Y-100273373D01*
X95485165Y-100142457D01*
X95505647Y-100000000D01*
X99494353Y-100000000D01*
X99514834Y-100142456D01*
X99574622Y-100273371D01*
X99574623Y-100273373D01*
X99668872Y-100382143D01*
X99789947Y-100459953D01*
X99789950Y-100459954D01*
X99789949Y-100459954D01*
X99897107Y-100491417D01*
X99924633Y-100499500D01*
X99928036Y-100500499D01*
X99928038Y-100500500D01*
X99928039Y-100500500D01*
X100071962Y-100500500D01*
X100071962Y-100500499D01*
X100210053Y-100459953D01*
X100331128Y-100382143D01*
X100425377Y-100273373D01*
X100485165Y-100142457D01*
X100505647Y-100000000D01*
X100485165Y-99857543D01*
X100425377Y-99726627D01*
X100331128Y-99617857D01*
X100210053Y-99540047D01*
X100210051Y-99540046D01*
X100210049Y-99540045D01*
X100210050Y-99540045D01*
X100071963Y-99499500D01*
X100071961Y-99499500D01*
X99928039Y-99499500D01*
X99928036Y-99499500D01*
X99789949Y-99540045D01*
X99668873Y-99617856D01*
X99574623Y-99726626D01*
X99574622Y-99726628D01*
X99514834Y-99857543D01*
X99494353Y-100000000D01*
X95505647Y-100000000D01*
X95485165Y-99857543D01*
X95425377Y-99726627D01*
X95331128Y-99617857D01*
X95210053Y-99540047D01*
X95210051Y-99540046D01*
X95210049Y-99540045D01*
X95210050Y-99540045D01*
X95071963Y-99499500D01*
X95071961Y-99499500D01*
X94928039Y-99499500D01*
X94928036Y-99499500D01*
X94789949Y-99540045D01*
X94668873Y-99617856D01*
X94574623Y-99726626D01*
X94574622Y-99726628D01*
X94514834Y-99857543D01*
X94494353Y-100000000D01*
X90505647Y-100000000D01*
X90485165Y-99857543D01*
X90425377Y-99726627D01*
X90331128Y-99617857D01*
X90210053Y-99540047D01*
X90210051Y-99540046D01*
X90210049Y-99540045D01*
X90210050Y-99540045D01*
X90071963Y-99499500D01*
X90071961Y-99499500D01*
X89928039Y-99499500D01*
X89928036Y-99499500D01*
X89789949Y-99540045D01*
X89668873Y-99617856D01*
X89574623Y-99726626D01*
X89574622Y-99726628D01*
X89514834Y-99857543D01*
X89494353Y-100000000D01*
X85505647Y-100000000D01*
X85485165Y-99857543D01*
X85425377Y-99726627D01*
X85331128Y-99617857D01*
X85210053Y-99540047D01*
X85210051Y-99540046D01*
X85210049Y-99540045D01*
X85210050Y-99540045D01*
X85071963Y-99499500D01*
X85071961Y-99499500D01*
X84928039Y-99499500D01*
X84928036Y-99499500D01*
X84789949Y-99540045D01*
X84668873Y-99617856D01*
X84574623Y-99726626D01*
X84574622Y-99726628D01*
X84514834Y-99857543D01*
X84494353Y-100000000D01*
X80505647Y-100000000D01*
X80485165Y-99857543D01*
X80425377Y-99726627D01*
X80331128Y-99617857D01*
X80210053Y-99540047D01*
X80210051Y-99540046D01*
X80210049Y-99540045D01*
X80210050Y-99540045D01*
X80071963Y-99499500D01*
X80071961Y-99499500D01*
X79928039Y-99499500D01*
X79928036Y-99499500D01*
X79789949Y-99540045D01*
X79668873Y-99617856D01*
X79574623Y-99726626D01*
X79574622Y-99726628D01*
X79514834Y-99857543D01*
X79494353Y-100000000D01*
X70500000Y-100000000D01*
X70500000Y-92368545D01*
X70519685Y-92301506D01*
X70572489Y-92255751D01*
X70641647Y-92245807D01*
X70705203Y-92274832D01*
X70742977Y-92333610D01*
X70743775Y-92336452D01*
X70773258Y-92446488D01*
X70773261Y-92446497D01*
X70869431Y-92652732D01*
X70869432Y-92652734D01*
X70999954Y-92839141D01*
X71160858Y-93000045D01*
X71160861Y-93000047D01*
X71347266Y-93130568D01*
X71553504Y-93226739D01*
X71773308Y-93285635D01*
X71935230Y-93299801D01*
X71999998Y-93305468D01*
X72000000Y-93305468D01*
X72000002Y-93305468D01*
X72056673Y-93300509D01*
X72226692Y-93285635D01*
X72446496Y-93226739D01*
X72652734Y-93130568D01*
X72839139Y-93000047D01*
X73000047Y-92839139D01*
X73130568Y-92652734D01*
X73226739Y-92446496D01*
X73285635Y-92226692D01*
X73305468Y-92000000D01*
X73285635Y-91773308D01*
X73226739Y-91553504D01*
X73130568Y-91347266D01*
X73000047Y-91160861D01*
X73000045Y-91160858D01*
X72839141Y-90999954D01*
X72652734Y-90869432D01*
X72652732Y-90869431D01*
X72446497Y-90773261D01*
X72446488Y-90773258D01*
X72336453Y-90743775D01*
X72276792Y-90707410D01*
X72246263Y-90644563D01*
X72254558Y-90575188D01*
X72299043Y-90521310D01*
X72365595Y-90500035D01*
X72368546Y-90500000D01*
X107631454Y-90500000D01*
X107698493Y-90519685D01*
G37*
%TD.AperFunction*%
%TD*%
M02*
