%TF.GenerationSoftware,KiCad,Pcbnew,8.0.8*%
%TF.CreationDate,2025-05-29T10:29:00-04:00*%
%TF.ProjectId,GF24,47463234-2e6b-4696-9361-645f70636258,rev?*%
%TF.SameCoordinates,Original*%
%TF.FileFunction,Soldermask,Top*%
%TF.FilePolarity,Negative*%
%FSLAX46Y46*%
G04 Gerber Fmt 4.6, Leading zero omitted, Abs format (unit mm)*
G04 Created by KiCad (PCBNEW 8.0.8) date 2025-05-29 10:29:00*
%MOMM*%
%LPD*%
G01*
G04 APERTURE LIST*
G04 Aperture macros list*
%AMRoundRect*
0 Rectangle with rounded corners*
0 $1 Rounding radius*
0 $2 $3 $4 $5 $6 $7 $8 $9 X,Y pos of 4 corners*
0 Add a 4 corners polygon primitive as box body*
4,1,4,$2,$3,$4,$5,$6,$7,$8,$9,$2,$3,0*
0 Add four circle primitives for the rounded corners*
1,1,$1+$1,$2,$3*
1,1,$1+$1,$4,$5*
1,1,$1+$1,$6,$7*
1,1,$1+$1,$8,$9*
0 Add four rect primitives between the rounded corners*
20,1,$1+$1,$2,$3,$4,$5,0*
20,1,$1+$1,$4,$5,$6,$7,0*
20,1,$1+$1,$6,$7,$8,$9,0*
20,1,$1+$1,$8,$9,$2,$3,0*%
G04 Aperture macros list end*
%ADD10RoundRect,0.250000X-0.159099X0.512652X-0.512652X0.159099X0.159099X-0.512652X0.512652X-0.159099X0*%
%ADD11RoundRect,0.200000X-0.200000X-0.275000X0.200000X-0.275000X0.200000X0.275000X-0.200000X0.275000X0*%
%ADD12RoundRect,0.250000X-0.550000X0.250000X-0.550000X-0.250000X0.550000X-0.250000X0.550000X0.250000X0*%
%ADD13C,1.524000*%
%ADD14RoundRect,0.175000X0.175000X-0.325000X0.175000X0.325000X-0.175000X0.325000X-0.175000X-0.325000X0*%
%ADD15RoundRect,0.250000X-0.512652X-0.159099X-0.159099X-0.512652X0.512652X0.159099X0.159099X0.512652X0*%
%ADD16RoundRect,0.225000X-0.225000X-0.250000X0.225000X-0.250000X0.225000X0.250000X-0.225000X0.250000X0*%
%ADD17RoundRect,0.200000X0.275000X-0.200000X0.275000X0.200000X-0.275000X0.200000X-0.275000X-0.200000X0*%
%ADD18RoundRect,0.250000X0.475000X-0.250000X0.475000X0.250000X-0.475000X0.250000X-0.475000X-0.250000X0*%
%ADD19RoundRect,0.200000X-0.200000X-0.250000X0.200000X-0.250000X0.200000X0.250000X-0.200000X0.250000X0*%
%ADD20R,1.700000X1.700000*%
%ADD21O,1.700000X1.700000*%
%ADD22RoundRect,0.112500X-0.237500X0.112500X-0.237500X-0.112500X0.237500X-0.112500X0.237500X0.112500X0*%
%ADD23C,0.650000*%
%ADD24RoundRect,0.075000X-0.662500X-0.075000X0.662500X-0.075000X0.662500X0.075000X-0.662500X0.075000X0*%
%ADD25RoundRect,0.075000X-0.075000X-0.662500X0.075000X-0.662500X0.075000X0.662500X-0.075000X0.662500X0*%
%ADD26RoundRect,0.225000X0.250000X-0.225000X0.250000X0.225000X-0.250000X0.225000X-0.250000X-0.225000X0*%
%ADD27RoundRect,0.200000X-0.200000X-0.200000X0.200000X-0.200000X0.200000X0.200000X-0.200000X0.200000X0*%
%ADD28RoundRect,0.075000X-0.075000X0.650000X-0.075000X-0.650000X0.075000X-0.650000X0.075000X0.650000X0*%
%ADD29RoundRect,0.200000X0.200000X0.275000X-0.200000X0.275000X-0.200000X-0.275000X0.200000X-0.275000X0*%
%ADD30RoundRect,0.200000X0.200000X0.200000X-0.200000X0.200000X-0.200000X-0.200000X0.200000X-0.200000X0*%
%ADD31RoundRect,0.225000X-0.250000X0.225000X-0.250000X-0.225000X0.250000X-0.225000X0.250000X0.225000X0*%
%ADD32C,1.500000*%
%ADD33RoundRect,0.250000X0.159099X-0.512652X0.512652X-0.159099X-0.159099X0.512652X-0.512652X0.159099X0*%
%ADD34RoundRect,0.150000X0.950000X0.150000X-0.950000X0.150000X-0.950000X-0.150000X0.950000X-0.150000X0*%
%ADD35RoundRect,0.537500X0.537500X1.187500X-0.537500X1.187500X-0.537500X-1.187500X0.537500X-1.187500X0*%
%ADD36RoundRect,0.250000X-0.475000X0.250000X-0.475000X-0.250000X0.475000X-0.250000X0.475000X0.250000X0*%
%ADD37RoundRect,0.227500X0.227500X0.382500X-0.227500X0.382500X-0.227500X-0.382500X0.227500X-0.382500X0*%
%ADD38RoundRect,0.250000X0.250000X0.475000X-0.250000X0.475000X-0.250000X-0.475000X0.250000X-0.475000X0*%
%ADD39RoundRect,0.750000X-0.775000X0.750000X-0.775000X-0.750000X0.775000X-0.750000X0.775000X0.750000X0*%
%ADD40RoundRect,0.225000X0.225000X0.250000X-0.225000X0.250000X-0.225000X-0.250000X0.225000X-0.250000X0*%
%ADD41C,2.374900*%
%ADD42C,0.990600*%
G04 APERTURE END LIST*
D10*
%TO.C,C11*%
X78171751Y-79828249D03*
X76828249Y-81171751D03*
%TD*%
D11*
%TO.C,R2*%
X60175000Y-81500000D03*
X61825000Y-81500000D03*
%TD*%
D12*
%TO.C,SW3*%
X51850000Y-64750000D03*
X54150000Y-66500000D03*
X51850000Y-68250000D03*
%TD*%
D13*
%TO.C,SW1*%
X91000000Y-90000000D03*
X91000000Y-92000000D03*
%TD*%
D14*
%TO.C,SW2*%
X51925000Y-78750000D03*
X51925000Y-74250000D03*
X54075000Y-78750000D03*
X54075000Y-74250000D03*
%TD*%
D15*
%TO.C,C9*%
X78328249Y-65328249D03*
X79671751Y-66671751D03*
%TD*%
D16*
%TO.C,C6*%
X85725000Y-64500000D03*
X87275000Y-64500000D03*
%TD*%
D17*
%TO.C,R7*%
X82000000Y-68325000D03*
X82000000Y-66675000D03*
%TD*%
D18*
%TO.C,C4*%
X84500000Y-68949999D03*
X84500000Y-67050001D03*
%TD*%
D17*
%TO.C,R1*%
X75000000Y-62825000D03*
X75000000Y-61175000D03*
%TD*%
D19*
%TO.C,X1*%
X62775000Y-70075000D03*
X62775000Y-71925000D03*
X64225000Y-71925000D03*
X64225000Y-70075000D03*
%TD*%
D17*
%TO.C,R10*%
X54500000Y-54000000D03*
X54500000Y-52350000D03*
%TD*%
D10*
%TO.C,C5*%
X80171751Y-58828249D03*
X78828249Y-60171751D03*
%TD*%
D20*
%TO.C,J4*%
X62700000Y-60875000D03*
D21*
X65240000Y-60875000D03*
X67779999Y-60875000D03*
X70320000Y-60875000D03*
%TD*%
D13*
%TO.C,SW4*%
X52387500Y-61000000D03*
X52387500Y-59000000D03*
%TD*%
D22*
%TO.C,Q1*%
X52000000Y-91350000D03*
X52000000Y-92650000D03*
X54000000Y-92000000D03*
%TD*%
D23*
%TO.C,J1*%
X87437501Y-74890001D03*
X87437501Y-69109999D03*
%TD*%
D24*
%TO.C,U4*%
X67837500Y-70250000D03*
X67837500Y-70750000D03*
X67837500Y-71250000D03*
X67837500Y-71750000D03*
X67837500Y-72250000D03*
X67837500Y-72750000D03*
X67837500Y-73250000D03*
X67837500Y-73750000D03*
X67837500Y-74250000D03*
X67837500Y-74750000D03*
X67837500Y-75250000D03*
X67837500Y-75750000D03*
D25*
X69250000Y-77162500D03*
X69750000Y-77162500D03*
X70250000Y-77162500D03*
X70750000Y-77162500D03*
X71250000Y-77162500D03*
X71750000Y-77162500D03*
X72250000Y-77162500D03*
X72750000Y-77162500D03*
X73250000Y-77162500D03*
X73750000Y-77162500D03*
X74250000Y-77162500D03*
X74750000Y-77162500D03*
D24*
X76162500Y-75750000D03*
X76162500Y-75250000D03*
X76162500Y-74750000D03*
X76162500Y-74250000D03*
X76162500Y-73750000D03*
X76162500Y-73250000D03*
X76162500Y-72750000D03*
X76162500Y-72250000D03*
X76162500Y-71750000D03*
X76162500Y-71250000D03*
X76162500Y-70750000D03*
X76162500Y-70250000D03*
D25*
X74750000Y-68837500D03*
X74250000Y-68837500D03*
X73750000Y-68837500D03*
X73250000Y-68837500D03*
X72750000Y-68837500D03*
X72250000Y-68837500D03*
X71750000Y-68837500D03*
X71250000Y-68837500D03*
X70750000Y-68837500D03*
X70250000Y-68837500D03*
X69750000Y-68837500D03*
X69250000Y-68837500D03*
%TD*%
D26*
%TO.C,C14*%
X61000000Y-76275000D03*
X61000000Y-74725000D03*
%TD*%
D27*
%TO.C,D1*%
X58799999Y-81500000D03*
X57200001Y-81500000D03*
%TD*%
D13*
%TO.C,BT1*%
X91112500Y-86000000D03*
X91112500Y-88000000D03*
%TD*%
D26*
%TO.C,C18*%
X71500000Y-65025000D03*
X71500000Y-63475000D03*
%TD*%
D28*
%TO.C,U2*%
X84000000Y-60350000D03*
X83500000Y-60350000D03*
X83000000Y-60349999D03*
X82500000Y-60350000D03*
X82000000Y-60350000D03*
X82000000Y-64650000D03*
X82500000Y-64650000D03*
X83000000Y-64650001D03*
X83500000Y-64650000D03*
X84000000Y-64650000D03*
%TD*%
D11*
%TO.C,R11*%
X73850000Y-58500000D03*
X75500000Y-58500000D03*
%TD*%
D17*
%TO.C,R13*%
X52000000Y-88825000D03*
X52000000Y-87175000D03*
%TD*%
D29*
%TO.C,R5*%
X90325000Y-60500000D03*
X88675000Y-60500000D03*
%TD*%
D30*
%TO.C,D3*%
X91700001Y-63500000D03*
X93299999Y-63500000D03*
%TD*%
D31*
%TO.C,C1*%
X85500000Y-81725000D03*
X85500000Y-83275000D03*
%TD*%
D30*
%TO.C,D4*%
X91700001Y-60500000D03*
X93299999Y-60500000D03*
%TD*%
D18*
%TO.C,C15*%
X63500000Y-75949999D03*
X63500000Y-74050001D03*
%TD*%
D11*
%TO.C,R8*%
X73850000Y-57000000D03*
X75500000Y-57000000D03*
%TD*%
D32*
%TO.C,TP1*%
X92500000Y-80500000D03*
%TD*%
D33*
%TO.C,C7*%
X64995374Y-65671751D03*
X66338876Y-64328249D03*
%TD*%
D26*
%TO.C,C3*%
X81000000Y-84275000D03*
X81000000Y-82725000D03*
%TD*%
D34*
%TO.C,U1*%
X81137500Y-91540000D03*
X81137500Y-90270000D03*
X81137501Y-89000000D03*
X81137500Y-87730000D03*
X81137500Y-86460000D03*
D35*
X74837500Y-89000000D03*
%TD*%
D36*
%TO.C,C19*%
X60500000Y-70050001D03*
X60500000Y-71949999D03*
%TD*%
D37*
%TO.C,D9*%
X60635001Y-92500000D03*
X57364999Y-92500000D03*
%TD*%
D33*
%TO.C,C8*%
X67995374Y-65671751D03*
X69338876Y-64328249D03*
%TD*%
D13*
%TO.C,SW5*%
X51000000Y-52387500D03*
X53000000Y-52387500D03*
%TD*%
D33*
%TO.C,C13*%
X65995374Y-68671751D03*
X67338876Y-67328249D03*
%TD*%
D11*
%TO.C,R9*%
X51175000Y-55500000D03*
X52825000Y-55500000D03*
%TD*%
D32*
%TO.C,TP3*%
X92500000Y-84000000D03*
%TD*%
D17*
%TO.C,R12*%
X56000000Y-65650000D03*
X56000000Y-64000000D03*
%TD*%
D38*
%TO.C,C16*%
X54500000Y-72500000D03*
X52600002Y-72500000D03*
%TD*%
D39*
%TO.C,BZ1*%
X69725000Y-87500000D03*
X61275000Y-87500000D03*
%TD*%
D26*
%TO.C,C2*%
X85500000Y-90275000D03*
X85500000Y-88725000D03*
%TD*%
D15*
%TO.C,C10*%
X77328249Y-68328249D03*
X78671751Y-69671751D03*
%TD*%
D40*
%TO.C,C17*%
X56000000Y-51000000D03*
X54450000Y-51000000D03*
%TD*%
D32*
%TO.C,TP2*%
X89000000Y-81000000D03*
%TD*%
D17*
%TO.C,TH1*%
X76500000Y-63325000D03*
X76500000Y-61675000D03*
%TD*%
D10*
%TO.C,C12*%
X76671751Y-78328249D03*
X75328249Y-79671751D03*
%TD*%
D32*
%TO.C,TP4*%
X89000000Y-84500000D03*
%TD*%
D29*
%TO.C,R4*%
X90325000Y-63500000D03*
X88675000Y-63500000D03*
%TD*%
D41*
%TO.C,J3*%
X92040000Y-57000000D03*
D42*
X92040000Y-54460000D03*
D41*
X92040000Y-51920000D03*
X88865000Y-57000000D03*
X88865000Y-51920000D03*
D42*
X86960000Y-55476000D03*
X86960000Y-53444000D03*
%TD*%
M02*
