%TF.GenerationSoftware,KiCad,Pcbnew,8.0.8*%
%TF.CreationDate,2025-02-13T14:20:34-05:00*%
%TF.ProjectId,GF24,47463234-2e6b-4696-9361-645f70636258,rev?*%
%TF.SameCoordinates,Original*%
%TF.FileFunction,Soldermask,Bot*%
%TF.FilePolarity,Negative*%
%FSLAX46Y46*%
G04 Gerber Fmt 4.6, Leading zero omitted, Abs format (unit mm)*
G04 Created by KiCad (PCBNEW 8.0.8) date 2025-02-13 14:20:34*
%MOMM*%
%LPD*%
G01*
G04 APERTURE LIST*
G04 Aperture macros list*
%AMRoundRect*
0 Rectangle with rounded corners*
0 $1 Rounding radius*
0 $2 $3 $4 $5 $6 $7 $8 $9 X,Y pos of 4 corners*
0 Add a 4 corners polygon primitive as box body*
4,1,4,$2,$3,$4,$5,$6,$7,$8,$9,$2,$3,0*
0 Add four circle primitives for the rounded corners*
1,1,$1+$1,$2,$3*
1,1,$1+$1,$4,$5*
1,1,$1+$1,$6,$7*
1,1,$1+$1,$8,$9*
0 Add four rect primitives between the rounded corners*
20,1,$1+$1,$2,$3,$4,$5,0*
20,1,$1+$1,$4,$5,$6,$7,0*
20,1,$1+$1,$6,$7,$8,$9,0*
20,1,$1+$1,$8,$9,$2,$3,0*%
G04 Aperture macros list end*
%ADD10C,0.500000*%
%ADD11RoundRect,0.287500X-0.612500X0.287500X-0.612500X-0.287500X0.612500X-0.287500X0.612500X0.287500X0*%
%ADD12RoundRect,0.200000X-0.275000X0.200000X-0.275000X-0.200000X0.275000X-0.200000X0.275000X0.200000X0*%
%ADD13C,0.650000*%
%ADD14RoundRect,0.622300X0.622300X0.622300X-0.622300X0.622300X-0.622300X-0.622300X0.622300X-0.622300X0*%
%ADD15RoundRect,0.200000X0.200000X0.275000X-0.200000X0.275000X-0.200000X-0.275000X0.200000X-0.275000X0*%
%ADD16RoundRect,0.102000X-1.750000X0.500000X-1.750000X-0.500000X1.750000X-0.500000X1.750000X0.500000X0*%
%ADD17RoundRect,0.102000X-1.700000X0.750000X-1.700000X-0.750000X1.700000X-0.750000X1.700000X0.750000X0*%
%ADD18RoundRect,0.102000X-1.905000X-1.015000X1.905000X-1.015000X1.905000X1.015000X-1.905000X1.015000X0*%
%ADD19RoundRect,0.102000X-0.510000X-1.145000X0.510000X-1.145000X0.510000X1.145000X-0.510000X1.145000X0*%
%ADD20RoundRect,0.102000X-1.500000X-1.250000X1.500000X-1.250000X1.500000X1.250000X-1.500000X1.250000X0*%
%ADD21RoundRect,0.227500X-0.382500X0.227500X-0.382500X-0.227500X0.382500X-0.227500X0.382500X0.227500X0*%
%ADD22RoundRect,0.287500X-0.437500X0.287500X-0.437500X-0.287500X0.437500X-0.287500X0.437500X0.287500X0*%
%ADD23RoundRect,0.200000X-0.200000X-0.275000X0.200000X-0.275000X0.200000X0.275000X-0.200000X0.275000X0*%
%ADD24RoundRect,0.075000X0.650000X0.075000X-0.650000X0.075000X-0.650000X-0.075000X0.650000X-0.075000X0*%
%ADD25RoundRect,0.150000X0.512500X0.150000X-0.512500X0.150000X-0.512500X-0.150000X0.512500X-0.150000X0*%
%ADD26C,2.374900*%
%ADD27C,0.990600*%
%ADD28C,0.787400*%
%ADD29RoundRect,0.076200X0.650000X-0.400000X0.650000X0.400000X-0.650000X0.400000X-0.650000X-0.400000X0*%
%ADD30RoundRect,0.076200X1.500000X-1.050000X1.500000X1.050000X-1.500000X1.050000X-1.500000X-1.050000X0*%
%ADD31RoundRect,0.287500X-0.287500X-0.437500X0.287500X-0.437500X0.287500X0.437500X-0.287500X0.437500X0*%
%ADD32RoundRect,0.200000X0.275000X-0.200000X0.275000X0.200000X-0.275000X0.200000X-0.275000X-0.200000X0*%
%ADD33RoundRect,0.237500X-0.262500X0.237500X-0.262500X-0.237500X0.262500X-0.237500X0.262500X0.237500X0*%
G04 APERTURE END LIST*
D10*
%TO.C,mouse-bite-2mm-slot*%
X110250000Y-120750000D03*
X111750000Y-120750000D03*
X110250000Y-120000000D03*
X111750000Y-120000000D03*
X110250000Y-119250000D03*
X111750000Y-119250000D03*
%TD*%
%TO.C,mouse-bite-2mm-slot*%
X110250000Y-100750000D03*
X111750000Y-100750000D03*
X110250000Y-100000000D03*
X111750000Y-100000000D03*
X110250000Y-99250000D03*
X111750000Y-99250000D03*
%TD*%
D11*
%TO.C,C11*%
X133750000Y-104500000D03*
X133750000Y-107500000D03*
%TD*%
D12*
%TO.C,R13*%
X137750000Y-103925000D03*
X137750000Y-105575000D03*
%TD*%
D13*
%TO.C,J2*%
X145570000Y-106360000D03*
X145570000Y-112140000D03*
%TD*%
D14*
%TO.C,U5*%
X125000001Y-120999999D03*
X125000001Y-128000001D03*
X117999999Y-128000001D03*
X117999999Y-120999999D03*
%TD*%
D15*
%TO.C,R6*%
X127825000Y-108000000D03*
X126175000Y-108000000D03*
%TD*%
D16*
%TO.C,J3*%
X120000000Y-112100000D03*
X120000000Y-110100000D03*
D17*
X114250000Y-107750000D03*
X114250000Y-114450000D03*
%TD*%
D18*
%TO.C,SW4*%
X119315000Y-101035000D03*
D19*
X123000000Y-101035000D03*
D18*
X126685000Y-101035000D03*
D20*
X118000000Y-91965000D03*
X128000000Y-91965000D03*
%TD*%
D21*
%TO.C,D1*%
X127750000Y-122864999D03*
X127750000Y-126135001D03*
%TD*%
D22*
%TO.C,C13*%
X124500000Y-105100000D03*
X124500000Y-106900000D03*
%TD*%
D23*
%TO.C,TH1*%
X131925000Y-114550000D03*
X133575000Y-114550000D03*
%TD*%
D24*
%TO.C,U4*%
X131500000Y-104500000D03*
X131500000Y-105000000D03*
X131500000Y-105500000D03*
X131500000Y-106000000D03*
X131500000Y-106500000D03*
X127200000Y-106500000D03*
X127200000Y-106000000D03*
X127200000Y-105500000D03*
X127200000Y-105000000D03*
X127200000Y-104500000D03*
%TD*%
D25*
%TO.C,Q1*%
X131387500Y-127050000D03*
X131387500Y-128950000D03*
X129112500Y-128000000D03*
%TD*%
D15*
%TO.C,R5*%
X130325000Y-109500000D03*
X128675000Y-109500000D03*
%TD*%
D26*
%TO.C,J1*%
X150056000Y-122830000D03*
D27*
X150056000Y-120290000D03*
D26*
X150056000Y-117750000D03*
X146881000Y-122830000D03*
X146881000Y-117750000D03*
D27*
X144976000Y-121306000D03*
X144976000Y-119274000D03*
D28*
X148786000Y-120925000D03*
X148786000Y-119655000D03*
X147516000Y-120925000D03*
X147516000Y-119655000D03*
X146246000Y-120925000D03*
X146246000Y-119655000D03*
%TD*%
D29*
%TO.C,J5*%
X74650000Y-113125000D03*
X74650000Y-111875000D03*
X74650000Y-110625000D03*
X74650000Y-109375000D03*
X74650000Y-108125000D03*
X74650000Y-106875000D03*
D30*
X71900000Y-115675000D03*
X71900000Y-104325000D03*
%TD*%
D31*
%TO.C,C15*%
X138600000Y-108500000D03*
X140400000Y-108500000D03*
%TD*%
D12*
%TO.C,R14*%
X141500000Y-104925000D03*
X141500000Y-106575000D03*
%TD*%
D18*
%TO.C,SW5*%
X137315000Y-101035000D03*
D19*
X141000000Y-101035000D03*
D18*
X144685000Y-101035000D03*
D20*
X136000000Y-91965000D03*
X146000000Y-91965000D03*
%TD*%
D32*
%TO.C,R2*%
X130500000Y-124575000D03*
X130500000Y-122925000D03*
%TD*%
D33*
%TO.C,C12*%
X135750000Y-106950001D03*
X135750000Y-108549999D03*
%TD*%
M02*
