%TF.GenerationSoftware,KiCad,Pcbnew,8.0.8*%
%TF.CreationDate,2025-05-29T10:29:00-04:00*%
%TF.ProjectId,GF24,47463234-2e6b-4696-9361-645f70636258,rev?*%
%TF.SameCoordinates,Original*%
%TF.FileFunction,Profile,NP*%
%FSLAX46Y46*%
G04 Gerber Fmt 4.6, Leading zero omitted, Abs format (unit mm)*
G04 Created by KiCad (PCBNEW 8.0.8) date 2025-05-29 10:29:00*
%MOMM*%
%LPD*%
G01*
G04 APERTURE LIST*
%TA.AperFunction,Profile*%
%ADD10C,0.050000*%
%TD*%
G04 APERTURE END LIST*
D10*
X87320000Y-86000000D02*
G75*
G02*
X84680000Y-86000000I-1320000J0D01*
G01*
X84680000Y-86000000D02*
G75*
G02*
X87320000Y-86000000I1320000J0D01*
G01*
X93000000Y-50000000D02*
G75*
G02*
X94000000Y-51000000I0J-1000000D01*
G01*
X59320000Y-58000000D02*
G75*
G02*
X56680000Y-58000000I-1320000J0D01*
G01*
X56680000Y-58000000D02*
G75*
G02*
X59320000Y-58000000I1320000J0D01*
G01*
X94000000Y-51000000D02*
X94000000Y-93000000D01*
X87320000Y-58000000D02*
G75*
G02*
X84680000Y-58000000I-1320000J0D01*
G01*
X84680000Y-58000000D02*
G75*
G02*
X87320000Y-58000000I1320000J0D01*
G01*
X93000000Y-94000000D02*
X51000000Y-94000000D01*
X94000000Y-93000000D02*
G75*
G02*
X93000000Y-94000000I-1000000J0D01*
G01*
X51000000Y-94000000D02*
G75*
G02*
X50000000Y-93000000I0J1000000D01*
G01*
X50000000Y-51000000D02*
G75*
G02*
X51000000Y-50000000I1000000J0D01*
G01*
X59320000Y-86000000D02*
G75*
G02*
X56680000Y-86000000I-1320000J0D01*
G01*
X56680000Y-86000000D02*
G75*
G02*
X59320000Y-86000000I1320000J0D01*
G01*
X50000000Y-93000000D02*
X50000000Y-51000000D01*
X51000000Y-50000000D02*
X93000000Y-50000000D01*
%TO.C,SW1*%
X93000000Y-90000000D02*
G75*
G02*
X92000000Y-90000000I-500000J0D01*
G01*
X92000000Y-90000000D02*
G75*
G02*
X93000000Y-90000000I500000J0D01*
G01*
X93000000Y-92000000D02*
G75*
G02*
X92000000Y-92000000I-500000J0D01*
G01*
X92000000Y-92000000D02*
G75*
G02*
X93000000Y-92000000I500000J0D01*
G01*
%TO.C,SW4*%
X51387500Y-59000000D02*
G75*
G02*
X50387500Y-59000000I-500000J0D01*
G01*
X50387500Y-59000000D02*
G75*
G02*
X51387500Y-59000000I500000J0D01*
G01*
X51387500Y-61000000D02*
G75*
G02*
X50387500Y-61000000I-500000J0D01*
G01*
X50387500Y-61000000D02*
G75*
G02*
X51387500Y-61000000I500000J0D01*
G01*
%TO.C,BT1*%
X93112500Y-86000000D02*
G75*
G02*
X92112500Y-86000000I-500000J0D01*
G01*
X92112500Y-86000000D02*
G75*
G02*
X93112500Y-86000000I500000J0D01*
G01*
X93112500Y-88000000D02*
G75*
G02*
X92112500Y-88000000I-500000J0D01*
G01*
X92112500Y-88000000D02*
G75*
G02*
X93112500Y-88000000I500000J0D01*
G01*
%TO.C,SW5*%
X51500000Y-50887500D02*
G75*
G02*
X50500000Y-50887500I-500000J0D01*
G01*
X50500000Y-50887500D02*
G75*
G02*
X51500000Y-50887500I500000J0D01*
G01*
X53500000Y-50887500D02*
G75*
G02*
X52500000Y-50887500I-500000J0D01*
G01*
X52500000Y-50887500D02*
G75*
G02*
X53500000Y-50887500I500000J0D01*
G01*
%TD*%
M02*
