M48
; DRILL file {KiCad 8.0.8} date 2025-02-13T14:20:39-0500
; FORMAT={-:-/ absolute / inch / decimal}
; #@! TF.CreationDate,2025-02-13T14:20:39-05:00
; #@! TF.GenerationSoftware,Kicad,Pcbnew,8.0.8
; #@! TF.FileFunction,Plated,1,4,PTH
FMAT,2
INCH
; #@! TA.AperFunction,Plated,PTH,ViaDrill
T1C0.0118
%
G90
G05
T1
X2.8937Y-4.2598
X2.8937Y-4.3071
X2.8937Y-4.3583
X2.8937Y-4.4055
X2.8937Y-4.4567
X3.1496Y-3.937
X3.1496Y-4.1339
X3.1496Y-4.3307
X3.1496Y-4.5276
X3.1496Y-4.7244
X3.189Y-4.0551
X3.189Y-4.6063
X3.2283Y-4.3307
X3.2283Y-4.4055
X3.2283Y-4.4803
X3.2677Y-3.9764
X3.2677Y-4.0551
X3.2677Y-4.6063
X3.2677Y-4.685
X3.2835Y-4.1299
X3.2835Y-4.5315
X3.3346Y-4.2559
X3.3386Y-4.1811
X3.3386Y-4.4055
X3.3386Y-4.4803
X3.3425Y-4.0709
X3.3425Y-4.5906
X3.3465Y-3.937
X3.3465Y-4.7244
X3.3937Y-4.0157
X3.3937Y-4.126
X3.3937Y-4.5354
X3.3937Y-4.6457
X3.4646Y-4.4055
X3.4685Y-4.5354
X3.5039Y-4.2126
X3.5433Y-3.937
X3.5433Y-4.0157
X3.5433Y-4.124
X3.5433Y-4.3307
X3.5433Y-4.6457
X3.5433Y-4.7244
X3.6181Y-4.122
X3.622Y-4.2126
X3.622Y-4.4055
X3.6929Y-4.0157
X3.6929Y-4.126
X3.6929Y-4.5354
X3.6929Y-4.6457
X3.7402Y-3.937
X3.7402Y-4.7244
X3.7441Y-4.0709
X3.7441Y-4.5906
X3.748Y-4.1811
X3.748Y-4.2559
X3.748Y-4.3346
X3.748Y-4.4803
X3.8031Y-4.1299
X3.8031Y-4.5315
X3.8189Y-3.9764
X3.8189Y-4.0551
X3.8189Y-4.6063
X3.8189Y-4.685
X3.8583Y-4.1811
X3.8583Y-4.3307
X3.8583Y-4.4803
X3.8976Y-4.0551
X3.8976Y-4.6063
X3.937Y-3.937
X3.937Y-4.1339
X3.937Y-4.3307
X3.937Y-4.5276
X3.937Y-4.7244
X4.5374Y-4.0846
X4.563Y-4.1772
X4.565Y-3.8839
X4.5866Y-3.7303
X4.7343Y-4.4587
X4.7539Y-5.0098
X4.7854Y-4.061
X4.8425Y-3.9778
X4.8583Y-4.9252
X4.872Y-3.878
X4.878Y-4.5433
X4.9075Y-4.9252
X4.9291Y-4.4882
X4.9311Y-3.7992
X4.9311Y-4.2815
X4.9331Y-4.6102
X4.9547Y-4.9252
X4.9567Y-4.685
X4.9587Y-4.6358
X5.002Y-4.9252
X5.0138Y-4.6909
X5.0689Y-4.7067
X5.0827Y-4.378
X5.0846Y-4.2461
X5.1083Y-3.9075
X5.1161Y-4.378
X5.1378Y-4.7972
X5.1654Y-4.4114
X5.1772Y-3.6614
X5.1791Y-4.0217
X5.2087Y-4.4646
X5.2421Y-4.7165
X5.2657Y-4.1142
X5.2657Y-5.0886
X5.2835Y-4.2835
X5.2913Y-3.9528
X5.3287Y-4.122
X5.3642Y-4.6752
X5.374Y-4.4193
X5.3858Y-3.8583
X5.4035Y-4.7165
X5.4055Y-4.4469
X5.4055Y-4.4803
X5.4094Y-4.25
X5.4685Y-4.0669
X5.4961Y-4.1457
X5.5039Y-3.9606
X5.5039Y-4.2224
X5.5118Y-4.1752
X5.5118Y-5.0591
X5.5709Y-3.7992
X5.5709Y-4.0669
X5.6024Y-4.2815
X5.6437Y-4.1673
X5.685Y-4.0374
X5.7402Y-4.3268
X5.7972Y-3.9469
X5.8465Y-4.5945
X5.8465Y-4.8799
X5.935Y-3.8878
X5.937Y-4.7008
X5.9449Y-4.7736
M30
