%TF.GenerationSoftware,KiCad,Pcbnew,8.0.8*%
%TF.CreationDate,2025-05-28T15:29:29-04:00*%
%TF.ProjectId,GF24,47463234-2e6b-4696-9361-645f70636258,rev?*%
%TF.SameCoordinates,Original*%
%TF.FileFunction,Copper,L4,Bot*%
%TF.FilePolarity,Positive*%
%FSLAX46Y46*%
G04 Gerber Fmt 4.6, Leading zero omitted, Abs format (unit mm)*
G04 Created by KiCad (PCBNEW 8.0.8) date 2025-05-28 15:29:29*
%MOMM*%
%LPD*%
G01*
G04 APERTURE LIST*
G04 Aperture macros list*
%AMRoundRect*
0 Rectangle with rounded corners*
0 $1 Rounding radius*
0 $2 $3 $4 $5 $6 $7 $8 $9 X,Y pos of 4 corners*
0 Add a 4 corners polygon primitive as box body*
4,1,4,$2,$3,$4,$5,$6,$7,$8,$9,$2,$3,0*
0 Add four circle primitives for the rounded corners*
1,1,$1+$1,$2,$3*
1,1,$1+$1,$4,$5*
1,1,$1+$1,$6,$7*
1,1,$1+$1,$8,$9*
0 Add four rect primitives between the rounded corners*
20,1,$1+$1,$2,$3,$4,$5,0*
20,1,$1+$1,$4,$5,$6,$7,0*
20,1,$1+$1,$6,$7,$8,$9,0*
20,1,$1+$1,$8,$9,$2,$3,0*%
G04 Aperture macros list end*
%TA.AperFunction,ComponentPad*%
%ADD10C,1.524000*%
%TD*%
%TA.AperFunction,ComponentPad*%
%ADD11R,1.700000X1.700000*%
%TD*%
%TA.AperFunction,ComponentPad*%
%ADD12O,1.700000X1.700000*%
%TD*%
%TA.AperFunction,SMDPad,CuDef*%
%ADD13RoundRect,0.225000X0.275000X0.225000X-0.275000X0.225000X-0.275000X-0.225000X0.275000X-0.225000X0*%
%TD*%
%TA.AperFunction,SMDPad,CuDef*%
%ADD14RoundRect,0.150000X0.250000X0.150000X-0.250000X0.150000X-0.250000X-0.150000X0.250000X-0.150000X0*%
%TD*%
%TA.AperFunction,SMDPad,CuDef*%
%ADD15RoundRect,0.200000X0.200000X0.275000X-0.200000X0.275000X-0.200000X-0.275000X0.200000X-0.275000X0*%
%TD*%
%TA.AperFunction,SMDPad,CuDef*%
%ADD16RoundRect,0.200000X-0.200000X0.200000X-0.200000X-0.200000X0.200000X-0.200000X0.200000X0.200000X0*%
%TD*%
%TA.AperFunction,SMDPad,CuDef*%
%ADD17R,1.800000X1.500000*%
%TD*%
%TA.AperFunction,SMDPad,CuDef*%
%ADD18R,1.500000X1.800000*%
%TD*%
%TA.AperFunction,SMDPad,CuDef*%
%ADD19RoundRect,0.200000X-0.275000X0.200000X-0.275000X-0.200000X0.275000X-0.200000X0.275000X0.200000X0*%
%TD*%
%TA.AperFunction,SMDPad,CuDef*%
%ADD20C,1.500000*%
%TD*%
%TA.AperFunction,ConnectorPad*%
%ADD21C,0.787400*%
%TD*%
%TA.AperFunction,ViaPad*%
%ADD22C,0.600000*%
%TD*%
%TA.AperFunction,Conductor*%
%ADD23C,0.250000*%
%TD*%
%TA.AperFunction,Conductor*%
%ADD24C,0.160000*%
%TD*%
G04 APERTURE END LIST*
D10*
%TO.P,SW1,1,A*%
%TO.N,BAT+*%
X91000000Y-90000000D03*
%TO.P,SW1,2,B*%
%TO.N,/REG_I*%
X91000000Y-92000000D03*
%TD*%
D11*
%TO.P,J4,1,Pin_1*%
%TO.N,+3V3*%
X62700000Y-60875000D03*
D12*
%TO.P,J4,2,Pin_2*%
%TO.N,/DEBUG_ST_TX*%
X65240000Y-60875000D03*
%TO.P,J4,3,Pin_3*%
%TO.N,/DEBUG_ST_RX*%
X67779999Y-60875000D03*
%TO.P,J4,4,Pin_4*%
%TO.N,GND*%
X70320000Y-60875000D03*
%TD*%
D10*
%TO.P,SW4,1,A*%
%TO.N,/MODE-H*%
X52387500Y-61000000D03*
%TO.P,SW4,2,B*%
%TO.N,GND*%
X52387500Y-59000000D03*
%TD*%
%TO.P,BT1,1,+*%
%TO.N,BAT+*%
X91112500Y-86000000D03*
%TO.P,BT1,2,-*%
%TO.N,GND*%
X91112500Y-88000000D03*
%TD*%
%TO.P,SW5,1,A*%
%TO.N,/ACT-H*%
X51000000Y-52387500D03*
%TO.P,SW5,2,B*%
%TO.N,GND*%
X53000000Y-52387500D03*
%TD*%
D13*
%TO.P,D8,1,K*%
%TO.N,Net-(D8-K)*%
X72000000Y-52000000D03*
%TO.P,D8,2,A*%
%TO.N,STATR*%
X69000000Y-52000000D03*
D14*
%TO.P,D8,X*%
%TO.N,N/C*%
X70500000Y-52150000D03*
%TD*%
D15*
%TO.P,R6,1*%
%TO.N,Net-(D5-K)*%
X80500000Y-54000000D03*
%TO.P,R6,2*%
%TO.N,NCHRG*%
X78850000Y-54000000D03*
%TD*%
%TO.P,R16,1*%
%TO.N,Net-(D8-K)*%
X71325000Y-54000000D03*
%TO.P,R16,2*%
%TO.N,GND*%
X69675000Y-54000000D03*
%TD*%
D16*
%TO.P,D2,1,K*%
%TO.N,Net-(D2-K)*%
X81000000Y-71099998D03*
%TO.P,D2,2,A*%
%TO.N,+3V3*%
X81000000Y-69500000D03*
%TD*%
D17*
%TO.P,U3,1,GND*%
%TO.N,GND*%
X78600000Y-68200000D03*
%TO.P,U3,2,V-IO*%
%TO.N,+3V3*%
X78600000Y-70100000D03*
%TO.P,U3,3,V-BCKP*%
%TO.N,unconnected-(U3-V-BCKP-Pad3)*%
X78600000Y-72000000D03*
%TO.P,U3,4,GND*%
%TO.N,GND*%
X78600000Y-73900000D03*
%TO.P,U3,5,GND*%
X78600000Y-75800000D03*
D18*
%TO.P,U3,6,GND*%
X75800000Y-78600000D03*
%TO.P,U3,7,TIMEPULSE*%
%TO.N,GNSS-TIMEPULSE*%
X73900000Y-78600000D03*
%TO.P,U3,8,SAFEBOOT-N*%
%TO.N,unconnected-(U3-SAFEBOOT-N-Pad8)*%
X72000000Y-78600000D03*
%TO.P,U3,9,SDA*%
%TO.N,unconnected-(U3-SDA-Pad9)*%
X70100000Y-78600000D03*
%TO.P,U3,10,GND*%
%TO.N,GND*%
X68200000Y-78600000D03*
D17*
%TO.P,U3,11,GND*%
X65400000Y-75800000D03*
%TO.P,U3,12,SCL*%
%TO.N,unconnected-(U3-SCL-Pad12)*%
X65400000Y-73900000D03*
%TO.P,U3,13,TXD*%
%TO.N,GNSS-TX*%
X65400000Y-72000000D03*
%TO.P,U3,14,RXD*%
%TO.N,GNSS-RX*%
X65400000Y-70100000D03*
%TO.P,U3,15,GND*%
%TO.N,GND*%
X65400000Y-68200000D03*
D18*
%TO.P,U3,16,GND*%
X68200000Y-65400000D03*
%TO.P,U3,17,VCC*%
%TO.N,+3V3*%
X70100000Y-65400000D03*
%TO.P,U3,18,RESET-N*%
%TO.N,GNSS-N-RESET*%
X72000000Y-65400000D03*
%TO.P,U3,19,EXTINT*%
%TO.N,unconnected-(U3-EXTINT-Pad19)*%
X73900000Y-65400000D03*
%TO.P,U3,20,GND*%
%TO.N,GND*%
X75800000Y-65400000D03*
%TD*%
D15*
%TO.P,R15,1*%
%TO.N,Net-(D7-K)*%
X66825000Y-54000000D03*
%TO.P,R15,2*%
%TO.N,GND*%
X65175000Y-54000000D03*
%TD*%
D19*
%TO.P,R3,1*%
%TO.N,Net-(D2-K)*%
X81000000Y-72175000D03*
%TO.P,R3,2*%
%TO.N,GND*%
X81000000Y-73825000D03*
%TD*%
D20*
%TO.P,TP6,1,1*%
%TO.N,GNSS-TX*%
X62500000Y-73000000D03*
%TD*%
D21*
%TO.P,J3,1,VCC*%
%TO.N,+3V3*%
X90770000Y-55095000D03*
%TO.P,J3,2,SWDIO*%
%TO.N,/SWDIO*%
X90770000Y-53825000D03*
%TO.P,J3,3,~{RESET}*%
%TO.N,NRST*%
X89500000Y-55095000D03*
%TO.P,J3,4,SWCLK*%
%TO.N,/SWDCLK*%
X89500000Y-53825000D03*
%TO.P,J3,5,GND*%
%TO.N,GND*%
X88230000Y-55095000D03*
%TO.P,J3,6,SWO*%
%TO.N,unconnected-(J3-SWO-Pad6)*%
X88230000Y-53825000D03*
%TD*%
D20*
%TO.P,TP5,1,1*%
%TO.N,GNSS-RX*%
X62500000Y-70000000D03*
%TD*%
D13*
%TO.P,D7,1,K*%
%TO.N,Net-(D7-K)*%
X67500000Y-52000000D03*
%TO.P,D7,2,A*%
%TO.N,STATG*%
X64500000Y-52000000D03*
D14*
%TO.P,D7,X*%
%TO.N,N/C*%
X66000000Y-52150000D03*
%TD*%
D13*
%TO.P,D6,1,K*%
%TO.N,Net-(D6-K)*%
X76500000Y-52000000D03*
%TO.P,D6,2,A*%
%TO.N,STATGPS*%
X73500000Y-52000000D03*
D14*
%TO.P,D6,X*%
%TO.N,N/C*%
X75000000Y-52150000D03*
%TD*%
D15*
%TO.P,R14,1*%
%TO.N,Net-(D6-K)*%
X75825000Y-54000000D03*
%TO.P,R14,2*%
%TO.N,GND*%
X74175000Y-54000000D03*
%TD*%
D13*
%TO.P,D5,1,K*%
%TO.N,Net-(D5-K)*%
X81175000Y-52000000D03*
%TO.P,D5,2,A*%
%TO.N,/USBC+*%
X78175000Y-52000000D03*
D14*
%TO.P,D5,X*%
%TO.N,N/C*%
X79675000Y-52150000D03*
%TD*%
D22*
%TO.N,+3V3*%
X52000000Y-54800000D03*
X56500000Y-55600000D03*
X59400000Y-62200000D03*
%TO.N,GND*%
X87267008Y-56560042D03*
X80700000Y-75800000D03*
X68200000Y-80600000D03*
X76500000Y-67100000D03*
%TO.N,/ACT-H*%
X55000000Y-55100000D03*
X53400000Y-57000000D03*
%TO.N,/DEBUG_ST_RX*%
X73300000Y-75500000D03*
%TO.N,/DEBUG_ST_TX*%
X72500000Y-75700000D03*
%TO.N,GNSS-TX*%
X66800000Y-79600000D03*
%TO.N,GNSS-RX*%
X65800000Y-77200000D03*
%TO.N,/MODE-H*%
X73500000Y-55800000D03*
%TO.N,/USBC+*%
X83000000Y-67449999D03*
X80800000Y-62700000D03*
%TO.N,BAT+*%
X90800000Y-82500000D03*
X85300000Y-65800000D03*
%TO.N,MODE*%
X68700000Y-62705002D03*
X76900000Y-58000000D03*
%TO.N,/USBC+*%
X79500000Y-57500000D03*
%TO.N,NRST*%
X85600000Y-54400000D03*
%TO.N,/SWDIO*%
X90500000Y-58200000D03*
%TO.N,/SWDCLK*%
X90400000Y-50900000D03*
%TO.N,NRST*%
X69400000Y-73200000D03*
%TO.N,/SWDIO*%
X82900000Y-71600000D03*
%TO.N,/SWDCLK*%
X75300000Y-67300000D03*
%TO.N,+3V3*%
X93100000Y-55000000D03*
%TO.N,GND*%
X63200000Y-65300000D03*
X68100000Y-68600000D03*
X70700000Y-62900000D03*
X86900000Y-79200000D03*
X87100000Y-83700000D03*
X78600000Y-82700000D03*
X77600000Y-89000000D03*
X52800000Y-92200000D03*
X54000000Y-55000000D03*
X62750000Y-81500000D03*
X77500000Y-60500000D03*
X60500000Y-73500000D03*
X81000000Y-67500000D03*
X52500000Y-70500000D03*
X89000000Y-65750000D03*
%TO.N,NRST*%
X59000000Y-73000000D03*
X61250000Y-73000000D03*
%TO.N,STATG*%
X63750000Y-53750000D03*
%TO.N,STATR*%
X68500000Y-54000000D03*
%TO.N,GNSS-TIMEPULSE*%
X70250000Y-80250000D03*
%TO.N,GNSS-N-RESET*%
X72000000Y-72500000D03*
%TO.N,STATGPS*%
X72750000Y-54000000D03*
%TO.N,+3V3*%
X76000000Y-69000000D03*
%TO.N,NFAULT*%
X82500000Y-58500000D03*
X87000000Y-60500000D03*
%TO.N,NCHRG*%
X82000000Y-56000000D03*
%TD*%
D23*
%TO.N,+3V3*%
X55325000Y-54425000D02*
X56500000Y-55600000D01*
X52375000Y-54425000D02*
X55325000Y-54425000D01*
X52000000Y-54800000D02*
X52375000Y-54425000D01*
X61375000Y-62200000D02*
X59400000Y-62200000D01*
X62700000Y-60875000D02*
X61375000Y-62200000D01*
%TO.N,GND*%
X87267008Y-56501491D02*
X87267008Y-56560042D01*
X88230000Y-55538499D02*
X87267008Y-56501491D01*
X88230000Y-55095000D02*
X88230000Y-55538499D01*
X78600000Y-75800000D02*
X80700000Y-75800000D01*
X68200000Y-78600000D02*
X68200000Y-80600000D01*
X63200000Y-66000000D02*
X63200000Y-65300000D01*
X65400000Y-68200000D02*
X63200000Y-66000000D01*
X75800000Y-66400000D02*
X76500000Y-67100000D01*
X75800000Y-65400000D02*
X75800000Y-66400000D01*
%TO.N,+3V3*%
X75200000Y-69000000D02*
X76000000Y-69000000D01*
X72213173Y-73100000D02*
X73600000Y-71713173D01*
X73600000Y-71713173D02*
X73600000Y-70600000D01*
X71786827Y-73100000D02*
X72213173Y-73100000D01*
X70100000Y-71413173D02*
X71786827Y-73100000D01*
X70100000Y-65400000D02*
X70100000Y-71413173D01*
X73600000Y-70600000D02*
X75200000Y-69000000D01*
%TO.N,GND*%
X65400000Y-66700000D02*
X65400000Y-68200000D01*
X66700000Y-65400000D02*
X65400000Y-66700000D01*
X68200000Y-65400000D02*
X66700000Y-65400000D01*
X77600000Y-65400000D02*
X75800000Y-65400000D01*
X78600000Y-66400000D02*
X77600000Y-65400000D01*
X78600000Y-68200000D02*
X78600000Y-66400000D01*
X78600000Y-75800000D02*
X78600000Y-73900000D01*
X77400000Y-78600000D02*
X78600000Y-77400000D01*
X78600000Y-77400000D02*
X78600000Y-75800000D01*
X75800000Y-78600000D02*
X77400000Y-78600000D01*
X66302046Y-78600000D02*
X68200000Y-78600000D01*
X65200000Y-76000000D02*
X65200000Y-77497954D01*
X65400000Y-75800000D02*
X65200000Y-76000000D01*
X65200000Y-77497954D02*
X66302046Y-78600000D01*
D24*
%TO.N,GNSS-RX*%
X66110000Y-77200000D02*
X66530000Y-76780000D01*
X66530000Y-71020000D02*
X65610000Y-70100000D01*
X65800000Y-77200000D02*
X66110000Y-77200000D01*
X65610000Y-70100000D02*
X65400000Y-70100000D01*
X66530000Y-76780000D02*
X66530000Y-71020000D01*
%TO.N,/ACT-H*%
X53400000Y-57000000D02*
X55000000Y-55400000D01*
X55000000Y-55400000D02*
X55000000Y-55100000D01*
%TO.N,GNSS-TX*%
X65200000Y-72000000D02*
X65400000Y-72000000D01*
X64270000Y-77070000D02*
X64270000Y-72930000D01*
X66800000Y-79600000D02*
X64270000Y-77070000D01*
X64270000Y-72930000D02*
X65200000Y-72000000D01*
X63500000Y-72000000D02*
X62500000Y-73000000D01*
X65400000Y-72000000D02*
X63500000Y-72000000D01*
%TO.N,GNSS-RX*%
X62600000Y-70100000D02*
X62500000Y-70000000D01*
X65400000Y-70100000D02*
X62600000Y-70100000D01*
%TO.N,/MODE-H*%
X73500000Y-55800000D02*
X65620000Y-55800000D01*
X60420000Y-61000000D02*
X52387500Y-61000000D01*
X65620000Y-55800000D02*
X60420000Y-61000000D01*
D23*
%TO.N,/USBC+*%
X83000000Y-63500000D02*
X83000000Y-67449999D01*
X82200000Y-62700000D02*
X83000000Y-63500000D01*
X80800000Y-62700000D02*
X82200000Y-62700000D01*
D24*
%TO.N,BAT+*%
X90800000Y-71300000D02*
X90800000Y-82500000D01*
X85300000Y-65800000D02*
X90800000Y-71300000D01*
%TO.N,MODE*%
X69035002Y-62370000D02*
X68700000Y-62705002D01*
X72530000Y-62370000D02*
X69035002Y-62370000D01*
X76900000Y-58000000D02*
X72530000Y-62370000D01*
D23*
%TO.N,/USBC+*%
X78175000Y-56175000D02*
X79500000Y-57500000D01*
X78175000Y-52000000D02*
X78175000Y-56175000D01*
D24*
%TO.N,NRST*%
X85671300Y-54471300D02*
X85600000Y-54400000D01*
X88876300Y-54471300D02*
X85671300Y-54471300D01*
X89500000Y-55095000D02*
X88876300Y-54471300D01*
%TO.N,/SWDIO*%
X90500000Y-56700000D02*
X90500000Y-58200000D01*
X90146300Y-56346300D02*
X90500000Y-56700000D01*
X90146300Y-54448700D02*
X90146300Y-56346300D01*
X90770000Y-53825000D02*
X90146300Y-54448700D01*
%TO.N,/SWDCLK*%
X90302450Y-51700000D02*
X90302450Y-50997550D01*
X90302450Y-50997550D02*
X90400000Y-50900000D01*
X89500000Y-53825000D02*
X90302450Y-53022550D01*
X90302450Y-53022550D02*
X90302450Y-51700000D01*
D23*
%TO.N,+3V3*%
X92611301Y-55488699D02*
X93100000Y-55000000D01*
X91163699Y-55488699D02*
X92611301Y-55488699D01*
X90770000Y-55095000D02*
X91163699Y-55488699D01*
%TO.N,GND*%
X78675000Y-73825000D02*
X78600000Y-73900000D01*
X81000000Y-73825000D02*
X78675000Y-73825000D01*
D24*
%TO.N,NRST*%
X61220000Y-72970000D02*
X61250000Y-73000000D01*
X59030000Y-72970000D02*
X61220000Y-72970000D01*
X59000000Y-73000000D02*
X59030000Y-72970000D01*
%TO.N,Net-(D2-K)*%
X81000000Y-71099998D02*
X81000000Y-72175000D01*
%TO.N,STATG*%
X63750000Y-53000000D02*
X64500000Y-52250000D01*
X64500000Y-52250000D02*
X64500000Y-52000000D01*
X63750000Y-53750000D02*
X63750000Y-53000000D01*
%TO.N,STATR*%
X68500000Y-54000000D02*
X68500000Y-53500000D01*
X69000000Y-53000000D02*
X69000000Y-52000000D01*
X68500000Y-53500000D02*
X69000000Y-53000000D01*
%TO.N,GNSS-TIMEPULSE*%
X70250000Y-80250000D02*
X72400000Y-80250000D01*
X73900000Y-78750000D02*
X73900000Y-78600000D01*
X72400000Y-80250000D02*
X73900000Y-78750000D01*
%TO.N,GNSS-N-RESET*%
X72000000Y-72500000D02*
X72000000Y-65400000D01*
%TO.N,Net-(D5-K)*%
X81175000Y-52000000D02*
X81175000Y-53325000D01*
X81175000Y-53325000D02*
X80500000Y-54000000D01*
%TO.N,STATGPS*%
X73500000Y-53250000D02*
X73500000Y-52000000D01*
X72750000Y-54000000D02*
X73500000Y-53250000D01*
D23*
%TO.N,+3V3*%
X78600000Y-70100000D02*
X77100000Y-70100000D01*
X77100000Y-70100000D02*
X76000000Y-69000000D01*
X81000000Y-69500000D02*
X79200000Y-69500000D01*
X79200000Y-69500000D02*
X78600000Y-70100000D01*
D24*
%TO.N,Net-(D6-K)*%
X76500000Y-52500000D02*
X75825000Y-53175000D01*
X76500000Y-52000000D02*
X76500000Y-52500000D01*
X75825000Y-53175000D02*
X75825000Y-54000000D01*
%TO.N,Net-(D7-K)*%
X67500000Y-52000000D02*
X67500000Y-52500000D01*
X66825000Y-53175000D02*
X66825000Y-54000000D01*
X67500000Y-52500000D02*
X66825000Y-53175000D01*
%TO.N,Net-(D8-K)*%
X72000000Y-52000000D02*
X72000000Y-52500000D01*
X71325000Y-53175000D02*
X71325000Y-54000000D01*
X72000000Y-52500000D02*
X71325000Y-53175000D01*
%TO.N,NFAULT*%
X87000000Y-60500000D02*
X84500000Y-60500000D01*
X84500000Y-60500000D02*
X82500000Y-58500000D01*
%TO.N,NCHRG*%
X80850000Y-56000000D02*
X82000000Y-56000000D01*
X78850000Y-54000000D02*
X80850000Y-56000000D01*
%TD*%
%TA.AperFunction,Conductor*%
%TO.N,GND*%
G36*
X66242539Y-75569685D02*
G01*
X66288294Y-75622489D01*
X66299500Y-75674000D01*
X66299500Y-75926000D01*
X66279815Y-75993039D01*
X66227011Y-76038794D01*
X66175500Y-76050000D01*
X64624500Y-76050000D01*
X64557461Y-76030315D01*
X64511706Y-75977511D01*
X64500500Y-75926000D01*
X64500500Y-75674000D01*
X64520185Y-75606961D01*
X64572989Y-75561206D01*
X64624500Y-75550000D01*
X66175500Y-75550000D01*
X66242539Y-75569685D01*
G37*
%TD.AperFunction*%
%TA.AperFunction,Conductor*%
G36*
X90285671Y-50250185D02*
G01*
X90331426Y-50302989D01*
X90341370Y-50372147D01*
X90312345Y-50435703D01*
X90253567Y-50473477D01*
X90253566Y-50473477D01*
X90210935Y-50485994D01*
X90210932Y-50485995D01*
X90210931Y-50485996D01*
X90159677Y-50518934D01*
X90101950Y-50556033D01*
X90017118Y-50653937D01*
X90017117Y-50653938D01*
X89963302Y-50771774D01*
X89957565Y-50811681D01*
X89928540Y-50875237D01*
X89869761Y-50913011D01*
X89799892Y-50913011D01*
X89754472Y-50886062D01*
X89753349Y-50887378D01*
X89749652Y-50884221D01*
X89749645Y-50884214D01*
X89576721Y-50758577D01*
X89508703Y-50723920D01*
X89386269Y-50661536D01*
X89182988Y-50595487D01*
X88971878Y-50562050D01*
X88971873Y-50562050D01*
X88758127Y-50562050D01*
X88758122Y-50562050D01*
X88547011Y-50595487D01*
X88343730Y-50661536D01*
X88153278Y-50758577D01*
X88117782Y-50784367D01*
X87980355Y-50884214D01*
X87980353Y-50884216D01*
X87980352Y-50884216D01*
X87829216Y-51035352D01*
X87829216Y-51035353D01*
X87829214Y-51035355D01*
X87775257Y-51109619D01*
X87703577Y-51208278D01*
X87606536Y-51398730D01*
X87540487Y-51602011D01*
X87507050Y-51813121D01*
X87507050Y-52026878D01*
X87540487Y-52237988D01*
X87606536Y-52441269D01*
X87691229Y-52607486D01*
X87703577Y-52631721D01*
X87829214Y-52804645D01*
X87980355Y-52955786D01*
X88140449Y-53072101D01*
X88183114Y-53127431D01*
X88189093Y-53197045D01*
X88156487Y-53258839D01*
X88095648Y-53293197D01*
X88090357Y-53294158D01*
X88087931Y-53294808D01*
X87955556Y-53349639D01*
X87955555Y-53349639D01*
X87910219Y-53384427D01*
X87843267Y-53435802D01*
X87841867Y-53436876D01*
X87836125Y-53442619D01*
X87833826Y-53440320D01*
X87789659Y-53472555D01*
X87719912Y-53476692D01*
X87659000Y-53442465D01*
X87626263Y-53380739D01*
X87626123Y-53380046D01*
X87600216Y-53249800D01*
X87600213Y-53249791D01*
X87598026Y-53244512D01*
X87579974Y-53200928D01*
X87550028Y-53128630D01*
X87550021Y-53128618D01*
X87477161Y-53019577D01*
X87477158Y-53019573D01*
X87384426Y-52926841D01*
X87384422Y-52926838D01*
X87275381Y-52853978D01*
X87275369Y-52853971D01*
X87154208Y-52803786D01*
X87154199Y-52803783D01*
X87025580Y-52778200D01*
X87025576Y-52778200D01*
X86894424Y-52778200D01*
X86894419Y-52778200D01*
X86765800Y-52803783D01*
X86765791Y-52803786D01*
X86644630Y-52853971D01*
X86644618Y-52853978D01*
X86535577Y-52926838D01*
X86535573Y-52926841D01*
X86442841Y-53019573D01*
X86442838Y-53019577D01*
X86369978Y-53128618D01*
X86369971Y-53128630D01*
X86319786Y-53249791D01*
X86319783Y-53249800D01*
X86294200Y-53378419D01*
X86294200Y-53509580D01*
X86319783Y-53638199D01*
X86319786Y-53638208D01*
X86369971Y-53759369D01*
X86369978Y-53759381D01*
X86442838Y-53868422D01*
X86442841Y-53868426D01*
X86535573Y-53961158D01*
X86535577Y-53961161D01*
X86614203Y-54013698D01*
X86659008Y-54067310D01*
X86667715Y-54136635D01*
X86637560Y-54199663D01*
X86578117Y-54236382D01*
X86545312Y-54240800D01*
X86102240Y-54240800D01*
X86035201Y-54221115D01*
X85989446Y-54168311D01*
X85982882Y-54153937D01*
X85898049Y-54056033D01*
X85789069Y-53985996D01*
X85789065Y-53985994D01*
X85789064Y-53985994D01*
X85664774Y-53949500D01*
X85664772Y-53949500D01*
X85535228Y-53949500D01*
X85535226Y-53949500D01*
X85410935Y-53985994D01*
X85410932Y-53985995D01*
X85410931Y-53985996D01*
X85367826Y-54013698D01*
X85301950Y-54056033D01*
X85217118Y-54153937D01*
X85217117Y-54153938D01*
X85163302Y-54271774D01*
X85144867Y-54400000D01*
X85163302Y-54528225D01*
X85212443Y-54635827D01*
X85217118Y-54646063D01*
X85301951Y-54743967D01*
X85410931Y-54814004D01*
X85535225Y-54850499D01*
X85535227Y-54850500D01*
X85535228Y-54850500D01*
X85664773Y-54850500D01*
X85664773Y-54850499D01*
X85789069Y-54814004D01*
X85898049Y-54743967D01*
X85898052Y-54743963D01*
X85904750Y-54738160D01*
X85905739Y-54739302D01*
X85956286Y-54706821D01*
X85991216Y-54701800D01*
X86511489Y-54701800D01*
X86578528Y-54721485D01*
X86624283Y-54774289D01*
X86634227Y-54843447D01*
X86605202Y-54907003D01*
X86580380Y-54928902D01*
X86535577Y-54958838D01*
X86535573Y-54958841D01*
X86442841Y-55051573D01*
X86442838Y-55051577D01*
X86369978Y-55160618D01*
X86369971Y-55160630D01*
X86319786Y-55281791D01*
X86319783Y-55281800D01*
X86294200Y-55410419D01*
X86294200Y-55541580D01*
X86319783Y-55670199D01*
X86319786Y-55670208D01*
X86369971Y-55791369D01*
X86369978Y-55791381D01*
X86442838Y-55900422D01*
X86442841Y-55900426D01*
X86535573Y-55993158D01*
X86535577Y-55993161D01*
X86644618Y-56066021D01*
X86644630Y-56066028D01*
X86719898Y-56097204D01*
X86765793Y-56116214D01*
X86765795Y-56116214D01*
X86765800Y-56116216D01*
X86894419Y-56141799D01*
X86894423Y-56141800D01*
X86894424Y-56141800D01*
X87025577Y-56141800D01*
X87025578Y-56141799D01*
X87082054Y-56130566D01*
X87154199Y-56116216D01*
X87154202Y-56116214D01*
X87154207Y-56116214D01*
X87218699Y-56089500D01*
X87275369Y-56066028D01*
X87275372Y-56066026D01*
X87275375Y-56066025D01*
X87384423Y-55993161D01*
X87477161Y-55900423D01*
X87516938Y-55840891D01*
X87570548Y-55796089D01*
X87639873Y-55787380D01*
X87692925Y-55809466D01*
X87780687Y-55873229D01*
X87816975Y-55889385D01*
X87870212Y-55934634D01*
X87890535Y-56001483D01*
X87871491Y-56068707D01*
X87854224Y-56090345D01*
X87829214Y-56115355D01*
X87703577Y-56288278D01*
X87606536Y-56478730D01*
X87540487Y-56682011D01*
X87507050Y-56893121D01*
X87507050Y-57052139D01*
X87487365Y-57119178D01*
X87434561Y-57164933D01*
X87365403Y-57174877D01*
X87301847Y-57145852D01*
X87277323Y-57116930D01*
X87258366Y-57085996D01*
X87258259Y-57085821D01*
X87099759Y-56900241D01*
X86928459Y-56753937D01*
X86914176Y-56741738D01*
X86914173Y-56741737D01*
X86706089Y-56614222D01*
X86480618Y-56520830D01*
X86480621Y-56520830D01*
X86305264Y-56478730D01*
X86243302Y-56463854D01*
X86243300Y-56463853D01*
X86243297Y-56463853D01*
X86000000Y-56444706D01*
X85756702Y-56463853D01*
X85519380Y-56520830D01*
X85293910Y-56614222D01*
X85085826Y-56741737D01*
X85085823Y-56741738D01*
X84900241Y-56900241D01*
X84741738Y-57085823D01*
X84741737Y-57085826D01*
X84614222Y-57293910D01*
X84520830Y-57519380D01*
X84463853Y-57756702D01*
X84444706Y-58000000D01*
X84463853Y-58243297D01*
X84463853Y-58243300D01*
X84463854Y-58243302D01*
X84513598Y-58450499D01*
X84520830Y-58480619D01*
X84614222Y-58706089D01*
X84741737Y-58914173D01*
X84741738Y-58914176D01*
X84741741Y-58914179D01*
X84900241Y-59099759D01*
X85040997Y-59219976D01*
X85085823Y-59258261D01*
X85085826Y-59258262D01*
X85293910Y-59385777D01*
X85519381Y-59479169D01*
X85519378Y-59479169D01*
X85519384Y-59479170D01*
X85519388Y-59479172D01*
X85756698Y-59536146D01*
X86000000Y-59555294D01*
X86243302Y-59536146D01*
X86480612Y-59479172D01*
X86706089Y-59385777D01*
X86914179Y-59258259D01*
X87099759Y-59099759D01*
X87258259Y-58914179D01*
X87385777Y-58706089D01*
X87479172Y-58480612D01*
X87536146Y-58243302D01*
X87555294Y-58000000D01*
X87546332Y-57886126D01*
X87560696Y-57817749D01*
X87609748Y-57767993D01*
X87677913Y-57752654D01*
X87743550Y-57776603D01*
X87770268Y-57803513D01*
X87826369Y-57880730D01*
X87829214Y-57884645D01*
X87980355Y-58035786D01*
X88153279Y-58161423D01*
X88313965Y-58243297D01*
X88343730Y-58258463D01*
X88445370Y-58291487D01*
X88547013Y-58324513D01*
X88644789Y-58339999D01*
X88758122Y-58357950D01*
X88758127Y-58357950D01*
X88971878Y-58357950D01*
X89079914Y-58340838D01*
X89182987Y-58324513D01*
X89386272Y-58258462D01*
X89576721Y-58161423D01*
X89749645Y-58035786D01*
X89871218Y-57914212D01*
X89932537Y-57880730D01*
X90002229Y-57885714D01*
X90058163Y-57927585D01*
X90082580Y-57993049D01*
X90071691Y-58053406D01*
X90063302Y-58071774D01*
X90044867Y-58200000D01*
X90063302Y-58328225D01*
X90112880Y-58436784D01*
X90117118Y-58446063D01*
X90201951Y-58543967D01*
X90310931Y-58614004D01*
X90359368Y-58628226D01*
X90435225Y-58650499D01*
X90435227Y-58650500D01*
X90435228Y-58650500D01*
X90564773Y-58650500D01*
X90564773Y-58650499D01*
X90689069Y-58614004D01*
X90798049Y-58543967D01*
X90882882Y-58446063D01*
X90936697Y-58328226D01*
X90955133Y-58200000D01*
X90946957Y-58143134D01*
X90956901Y-58073976D01*
X91002656Y-58021173D01*
X91069695Y-58001488D01*
X91136735Y-58021173D01*
X91151361Y-58032960D01*
X91151651Y-58032622D01*
X91155346Y-58035777D01*
X91155355Y-58035786D01*
X91328279Y-58161423D01*
X91488965Y-58243297D01*
X91518730Y-58258463D01*
X91620370Y-58291487D01*
X91722013Y-58324513D01*
X91819789Y-58339999D01*
X91933122Y-58357950D01*
X91933127Y-58357950D01*
X92146878Y-58357950D01*
X92254914Y-58340838D01*
X92357987Y-58324513D01*
X92561272Y-58258462D01*
X92751721Y-58161423D01*
X92924645Y-58035786D01*
X93075786Y-57884645D01*
X93201423Y-57711721D01*
X93298462Y-57521272D01*
X93364513Y-57317987D01*
X93381739Y-57209221D01*
X93397950Y-57106878D01*
X93397950Y-56893121D01*
X93375905Y-56753938D01*
X93364513Y-56682013D01*
X93312141Y-56520828D01*
X93298463Y-56478730D01*
X93284079Y-56450500D01*
X93201423Y-56288279D01*
X93075786Y-56115355D01*
X92924645Y-55964214D01*
X92810861Y-55881545D01*
X92768197Y-55826216D01*
X92762218Y-55756602D01*
X92794824Y-55694807D01*
X92795994Y-55693620D01*
X92844858Y-55644757D01*
X92844857Y-55644757D01*
X92903418Y-55586197D01*
X92903427Y-55586186D01*
X93002797Y-55486818D01*
X93064120Y-55453334D01*
X93090477Y-55450500D01*
X93164773Y-55450500D01*
X93164773Y-55450499D01*
X93289069Y-55414004D01*
X93398049Y-55343967D01*
X93482882Y-55246063D01*
X93532706Y-55136962D01*
X93578461Y-55084161D01*
X93645500Y-55064476D01*
X93712540Y-55084161D01*
X93758294Y-55136965D01*
X93769500Y-55188476D01*
X93769500Y-92993907D01*
X93768903Y-93006062D01*
X93755911Y-93137967D01*
X93751169Y-93161807D01*
X93714469Y-93282790D01*
X93705166Y-93305248D01*
X93645573Y-93416738D01*
X93632069Y-93436949D01*
X93551867Y-93534677D01*
X93534677Y-93551867D01*
X93436949Y-93632069D01*
X93416738Y-93645573D01*
X93305248Y-93705166D01*
X93282790Y-93714469D01*
X93161807Y-93751169D01*
X93137967Y-93755911D01*
X93040698Y-93765491D01*
X93006060Y-93768903D01*
X92993907Y-93769500D01*
X51006093Y-93769500D01*
X50993939Y-93768903D01*
X50862033Y-93755911D01*
X50838192Y-93751169D01*
X50717209Y-93714469D01*
X50694751Y-93705166D01*
X50583261Y-93645573D01*
X50563050Y-93632069D01*
X50465322Y-93551867D01*
X50448132Y-93534677D01*
X50367930Y-93436949D01*
X50354426Y-93416738D01*
X50294833Y-93305248D01*
X50285530Y-93282790D01*
X50248828Y-93161801D01*
X50244089Y-93137973D01*
X50231097Y-93006061D01*
X50230500Y-92993907D01*
X50230500Y-87999999D01*
X89845679Y-87999999D01*
X89845679Y-88000000D01*
X89864924Y-88219976D01*
X89864926Y-88219986D01*
X89922075Y-88433270D01*
X89922080Y-88433284D01*
X90015398Y-88633405D01*
X90015401Y-88633411D01*
X90060758Y-88698187D01*
X90060758Y-88698188D01*
X90731500Y-88027446D01*
X90731500Y-88050160D01*
X90757464Y-88147061D01*
X90807624Y-88233940D01*
X90878560Y-88304876D01*
X90965439Y-88355036D01*
X91062340Y-88381000D01*
X91085053Y-88381000D01*
X90414310Y-89051740D01*
X90444240Y-89072697D01*
X90487865Y-89127274D01*
X90495059Y-89196772D01*
X90463536Y-89259127D01*
X90446003Y-89274590D01*
X90386053Y-89318146D01*
X90257709Y-89460686D01*
X90257704Y-89460693D01*
X90161798Y-89626808D01*
X90161795Y-89626814D01*
X90121441Y-89751014D01*
X90102524Y-89809236D01*
X90082474Y-90000000D01*
X90102524Y-90190764D01*
X90102525Y-90190767D01*
X90161795Y-90373185D01*
X90161798Y-90373191D01*
X90257704Y-90539306D01*
X90257709Y-90539313D01*
X90386054Y-90681854D01*
X90386056Y-90681856D01*
X90541235Y-90794600D01*
X90541236Y-90794601D01*
X90619254Y-90829336D01*
X90716469Y-90872619D01*
X90741463Y-90877931D01*
X90745124Y-90878710D01*
X90806605Y-90911903D01*
X90840382Y-90973066D01*
X90835729Y-91042781D01*
X90794124Y-91098913D01*
X90745124Y-91121290D01*
X90716468Y-91127381D01*
X90541236Y-91205398D01*
X90541235Y-91205399D01*
X90386056Y-91318143D01*
X90386054Y-91318145D01*
X90257709Y-91460686D01*
X90257704Y-91460693D01*
X90161798Y-91626808D01*
X90161795Y-91626814D01*
X90121441Y-91751014D01*
X90102524Y-91809236D01*
X90082474Y-92000000D01*
X90102524Y-92190764D01*
X90102525Y-92190767D01*
X90161795Y-92373185D01*
X90161798Y-92373191D01*
X90257704Y-92539306D01*
X90257709Y-92539313D01*
X90386054Y-92681854D01*
X90386056Y-92681856D01*
X90541235Y-92794600D01*
X90541236Y-92794601D01*
X90716469Y-92872619D01*
X90904092Y-92912500D01*
X91095908Y-92912500D01*
X91283531Y-92872619D01*
X91458763Y-92794601D01*
X91613945Y-92681855D01*
X91710390Y-92574741D01*
X91742290Y-92539313D01*
X91742291Y-92539311D01*
X91742294Y-92539308D01*
X91758098Y-92511933D01*
X91808662Y-92463717D01*
X91877269Y-92450492D01*
X91942135Y-92476458D01*
X91953167Y-92486250D01*
X92041659Y-92574742D01*
X92181043Y-92662322D01*
X92336420Y-92716691D01*
X92336423Y-92716691D01*
X92336425Y-92716692D01*
X92499996Y-92735122D01*
X92500000Y-92735122D01*
X92500004Y-92735122D01*
X92663574Y-92716692D01*
X92663575Y-92716691D01*
X92663580Y-92716691D01*
X92818957Y-92662322D01*
X92958341Y-92574742D01*
X93074742Y-92458341D01*
X93162322Y-92318957D01*
X93216691Y-92163580D01*
X93235122Y-92000000D01*
X93216691Y-91836420D01*
X93162322Y-91681043D01*
X93074742Y-91541659D01*
X92958341Y-91425258D01*
X92818957Y-91337678D01*
X92818956Y-91337677D01*
X92818955Y-91337677D01*
X92818953Y-91337676D01*
X92663574Y-91283307D01*
X92500004Y-91264878D01*
X92499996Y-91264878D01*
X92336425Y-91283307D01*
X92181046Y-91337676D01*
X92181044Y-91337677D01*
X92041660Y-91425257D01*
X91953167Y-91513750D01*
X91891843Y-91547234D01*
X91822152Y-91542250D01*
X91766218Y-91500378D01*
X91758098Y-91488066D01*
X91742295Y-91460693D01*
X91742290Y-91460686D01*
X91613945Y-91318145D01*
X91613943Y-91318143D01*
X91458764Y-91205399D01*
X91458763Y-91205398D01*
X91283530Y-91127380D01*
X91254876Y-91121290D01*
X91193394Y-91088098D01*
X91159618Y-91026935D01*
X91164270Y-90957220D01*
X91205875Y-90901088D01*
X91254876Y-90878710D01*
X91264954Y-90876567D01*
X91283531Y-90872619D01*
X91458763Y-90794601D01*
X91613945Y-90681855D01*
X91710390Y-90574741D01*
X91742290Y-90539313D01*
X91742291Y-90539311D01*
X91742294Y-90539308D01*
X91758098Y-90511933D01*
X91808662Y-90463717D01*
X91877269Y-90450492D01*
X91942135Y-90476458D01*
X91953167Y-90486250D01*
X92041659Y-90574742D01*
X92181043Y-90662322D01*
X92336420Y-90716691D01*
X92336423Y-90716691D01*
X92336425Y-90716692D01*
X92499996Y-90735122D01*
X92500000Y-90735122D01*
X92500004Y-90735122D01*
X92663574Y-90716692D01*
X92663575Y-90716691D01*
X92663580Y-90716691D01*
X92818957Y-90662322D01*
X92958341Y-90574742D01*
X93074742Y-90458341D01*
X93162322Y-90318957D01*
X93216691Y-90163580D01*
X93235122Y-90000000D01*
X93216691Y-89836420D01*
X93162322Y-89681043D01*
X93074742Y-89541659D01*
X92958341Y-89425258D01*
X92818957Y-89337678D01*
X92818956Y-89337677D01*
X92818955Y-89337677D01*
X92818953Y-89337676D01*
X92663574Y-89283307D01*
X92500004Y-89264878D01*
X92499996Y-89264878D01*
X92336425Y-89283307D01*
X92181046Y-89337676D01*
X92181044Y-89337677D01*
X92041660Y-89425257D01*
X91953167Y-89513750D01*
X91891843Y-89547234D01*
X91822152Y-89542250D01*
X91766218Y-89500378D01*
X91758098Y-89488066D01*
X91742295Y-89460693D01*
X91742290Y-89460686D01*
X91624922Y-89330336D01*
X91594692Y-89267345D01*
X91603317Y-89198009D01*
X91648059Y-89144344D01*
X91664669Y-89134981D01*
X91745912Y-89097097D01*
X91745917Y-89097094D01*
X91810688Y-89051741D01*
X91139948Y-88381000D01*
X91162660Y-88381000D01*
X91259561Y-88355036D01*
X91346440Y-88304876D01*
X91417376Y-88233940D01*
X91467536Y-88147061D01*
X91493500Y-88050160D01*
X91493500Y-88027447D01*
X92164241Y-88698188D01*
X92171534Y-88697550D01*
X92210561Y-88666355D01*
X92280059Y-88659161D01*
X92298511Y-88664060D01*
X92448920Y-88716691D01*
X92448923Y-88716691D01*
X92448925Y-88716692D01*
X92612496Y-88735122D01*
X92612500Y-88735122D01*
X92612504Y-88735122D01*
X92776074Y-88716692D01*
X92776075Y-88716691D01*
X92776080Y-88716691D01*
X92931457Y-88662322D01*
X93070841Y-88574742D01*
X93187242Y-88458341D01*
X93274822Y-88318957D01*
X93329191Y-88163580D01*
X93329192Y-88163574D01*
X93347622Y-88000003D01*
X93347622Y-87999996D01*
X93329192Y-87836425D01*
X93329191Y-87836423D01*
X93329191Y-87836420D01*
X93274822Y-87681043D01*
X93187242Y-87541659D01*
X93070841Y-87425258D01*
X92931457Y-87337678D01*
X92931456Y-87337677D01*
X92931455Y-87337677D01*
X92931453Y-87337676D01*
X92776074Y-87283307D01*
X92612504Y-87264878D01*
X92612496Y-87264878D01*
X92448925Y-87283307D01*
X92298513Y-87335938D01*
X92228734Y-87339499D01*
X92168107Y-87304770D01*
X92165786Y-87301946D01*
X92164240Y-87301810D01*
X91493500Y-87972551D01*
X91493500Y-87949840D01*
X91467536Y-87852939D01*
X91417376Y-87766060D01*
X91346440Y-87695124D01*
X91259561Y-87644964D01*
X91162660Y-87619000D01*
X91139947Y-87619000D01*
X91810688Y-86948258D01*
X91745911Y-86902901D01*
X91745908Y-86902899D01*
X91739529Y-86899925D01*
X91687091Y-86853752D01*
X91667940Y-86786558D01*
X91688157Y-86719677D01*
X91719051Y-86687226D01*
X91726445Y-86681855D01*
X91801243Y-86598782D01*
X91854790Y-86539313D01*
X91854791Y-86539311D01*
X91854794Y-86539308D01*
X91870598Y-86511933D01*
X91921162Y-86463717D01*
X91989769Y-86450492D01*
X92054635Y-86476458D01*
X92065667Y-86486250D01*
X92154159Y-86574742D01*
X92293543Y-86662322D01*
X92448920Y-86716691D01*
X92448923Y-86716691D01*
X92448925Y-86716692D01*
X92612496Y-86735122D01*
X92612500Y-86735122D01*
X92612504Y-86735122D01*
X92776074Y-86716692D01*
X92776075Y-86716691D01*
X92776080Y-86716691D01*
X92931457Y-86662322D01*
X93070841Y-86574742D01*
X93187242Y-86458341D01*
X93274822Y-86318957D01*
X93329191Y-86163580D01*
X93347622Y-86000000D01*
X93329191Y-85836420D01*
X93274822Y-85681043D01*
X93187242Y-85541659D01*
X93070841Y-85425258D01*
X92931457Y-85337678D01*
X92931456Y-85337677D01*
X92931455Y-85337677D01*
X92931453Y-85337676D01*
X92776074Y-85283307D01*
X92612504Y-85264878D01*
X92612496Y-85264878D01*
X92448925Y-85283307D01*
X92293546Y-85337676D01*
X92293544Y-85337677D01*
X92154160Y-85425257D01*
X92065667Y-85513750D01*
X92004343Y-85547234D01*
X91934652Y-85542250D01*
X91878718Y-85500378D01*
X91870598Y-85488066D01*
X91854795Y-85460693D01*
X91854790Y-85460686D01*
X91726445Y-85318145D01*
X91726443Y-85318143D01*
X91571264Y-85205399D01*
X91571263Y-85205398D01*
X91396030Y-85127380D01*
X91208408Y-85087500D01*
X91016592Y-85087500D01*
X90828969Y-85127380D01*
X90828968Y-85127380D01*
X90653736Y-85205398D01*
X90653735Y-85205399D01*
X90498556Y-85318143D01*
X90498554Y-85318145D01*
X90370209Y-85460686D01*
X90370204Y-85460693D01*
X90274298Y-85626808D01*
X90274295Y-85626814D01*
X90232093Y-85756702D01*
X90215024Y-85809236D01*
X90194974Y-86000000D01*
X90215024Y-86190764D01*
X90215025Y-86190767D01*
X90274295Y-86373185D01*
X90274298Y-86373191D01*
X90370204Y-86539306D01*
X90370209Y-86539313D01*
X90480968Y-86662323D01*
X90498555Y-86681855D01*
X90505947Y-86687225D01*
X90548613Y-86742553D01*
X90554594Y-86812166D01*
X90521990Y-86873962D01*
X90485477Y-86899922D01*
X90479091Y-86902900D01*
X90414311Y-86948258D01*
X91085054Y-87619000D01*
X91062340Y-87619000D01*
X90965439Y-87644964D01*
X90878560Y-87695124D01*
X90807624Y-87766060D01*
X90757464Y-87852939D01*
X90731500Y-87949840D01*
X90731500Y-87972553D01*
X90060758Y-87301811D01*
X90015401Y-87366590D01*
X89922079Y-87566720D01*
X89922075Y-87566729D01*
X89864926Y-87780013D01*
X89864924Y-87780023D01*
X89845679Y-87999999D01*
X50230500Y-87999999D01*
X50230500Y-86000000D01*
X56444706Y-86000000D01*
X56463853Y-86243297D01*
X56463853Y-86243300D01*
X56463854Y-86243302D01*
X56499931Y-86393573D01*
X56520830Y-86480619D01*
X56614222Y-86706089D01*
X56741737Y-86914173D01*
X56741738Y-86914176D01*
X56741741Y-86914179D01*
X56900241Y-87099759D01*
X57043897Y-87222453D01*
X57085823Y-87258261D01*
X57085826Y-87258262D01*
X57293910Y-87385777D01*
X57519381Y-87479169D01*
X57519378Y-87479169D01*
X57519384Y-87479170D01*
X57519388Y-87479172D01*
X57756698Y-87536146D01*
X58000000Y-87555294D01*
X58243302Y-87536146D01*
X58480612Y-87479172D01*
X58706089Y-87385777D01*
X58914179Y-87258259D01*
X59099759Y-87099759D01*
X59258259Y-86914179D01*
X59385777Y-86706089D01*
X59479172Y-86480612D01*
X59536146Y-86243302D01*
X59555294Y-86000000D01*
X84444706Y-86000000D01*
X84463853Y-86243297D01*
X84463853Y-86243300D01*
X84463854Y-86243302D01*
X84499931Y-86393573D01*
X84520830Y-86480619D01*
X84614222Y-86706089D01*
X84741737Y-86914173D01*
X84741738Y-86914176D01*
X84741741Y-86914179D01*
X84900241Y-87099759D01*
X85043897Y-87222453D01*
X85085823Y-87258261D01*
X85085826Y-87258262D01*
X85293910Y-87385777D01*
X85519381Y-87479169D01*
X85519378Y-87479169D01*
X85519384Y-87479170D01*
X85519388Y-87479172D01*
X85756698Y-87536146D01*
X86000000Y-87555294D01*
X86243302Y-87536146D01*
X86480612Y-87479172D01*
X86706089Y-87385777D01*
X86914179Y-87258259D01*
X87099759Y-87099759D01*
X87258259Y-86914179D01*
X87385777Y-86706089D01*
X87479172Y-86480612D01*
X87536146Y-86243302D01*
X87555294Y-86000000D01*
X87536146Y-85756698D01*
X87479172Y-85519388D01*
X87454860Y-85460693D01*
X87385777Y-85293910D01*
X87258262Y-85085826D01*
X87258261Y-85085823D01*
X87206074Y-85024720D01*
X87099759Y-84900241D01*
X86977063Y-84795449D01*
X86914176Y-84741738D01*
X86914173Y-84741737D01*
X86706089Y-84614222D01*
X86480618Y-84520830D01*
X86480621Y-84520830D01*
X86374992Y-84495470D01*
X86243302Y-84463854D01*
X86243300Y-84463853D01*
X86243297Y-84463853D01*
X86000000Y-84444706D01*
X85756702Y-84463853D01*
X85519380Y-84520830D01*
X85293910Y-84614222D01*
X85085826Y-84741737D01*
X85085823Y-84741738D01*
X84900241Y-84900241D01*
X84741738Y-85085823D01*
X84741737Y-85085826D01*
X84614222Y-85293910D01*
X84520830Y-85519380D01*
X84463853Y-85756702D01*
X84444706Y-86000000D01*
X59555294Y-86000000D01*
X59536146Y-85756698D01*
X59479172Y-85519388D01*
X59454860Y-85460693D01*
X59385777Y-85293910D01*
X59258262Y-85085826D01*
X59258261Y-85085823D01*
X59206074Y-85024720D01*
X59099759Y-84900241D01*
X58977063Y-84795449D01*
X58914176Y-84741738D01*
X58914173Y-84741737D01*
X58706089Y-84614222D01*
X58480618Y-84520830D01*
X58480621Y-84520830D01*
X58374992Y-84495470D01*
X58243302Y-84463854D01*
X58243300Y-84463853D01*
X58243297Y-84463853D01*
X58000000Y-84444706D01*
X57756702Y-84463853D01*
X57519380Y-84520830D01*
X57293910Y-84614222D01*
X57085826Y-84741737D01*
X57085823Y-84741738D01*
X56900241Y-84900241D01*
X56741738Y-85085823D01*
X56741737Y-85085826D01*
X56614222Y-85293910D01*
X56520830Y-85519380D01*
X56463853Y-85756702D01*
X56444706Y-86000000D01*
X50230500Y-86000000D01*
X50230500Y-73000000D01*
X58544867Y-73000000D01*
X58563302Y-73128225D01*
X58596081Y-73200000D01*
X58617118Y-73246063D01*
X58701951Y-73343967D01*
X58810931Y-73414004D01*
X58920117Y-73446063D01*
X58935225Y-73450499D01*
X58935227Y-73450500D01*
X58935228Y-73450500D01*
X59064773Y-73450500D01*
X59064773Y-73450499D01*
X59189069Y-73414004D01*
X59298049Y-73343967D01*
X59382882Y-73246063D01*
X59382881Y-73246063D01*
X59385278Y-73243298D01*
X59444056Y-73205523D01*
X59478992Y-73200500D01*
X60771008Y-73200500D01*
X60838047Y-73220185D01*
X60864722Y-73243298D01*
X60942930Y-73333556D01*
X60951951Y-73343967D01*
X61060931Y-73414004D01*
X61170117Y-73446063D01*
X61185225Y-73450499D01*
X61185227Y-73450500D01*
X61185228Y-73450500D01*
X61314773Y-73450500D01*
X61314773Y-73450499D01*
X61369081Y-73434553D01*
X61439064Y-73414006D01*
X61439065Y-73414005D01*
X61439069Y-73414004D01*
X61519414Y-73362369D01*
X61586451Y-73342686D01*
X61653491Y-73362371D01*
X61693837Y-73404685D01*
X61767467Y-73532216D01*
X61873970Y-73650499D01*
X61894129Y-73672888D01*
X62047265Y-73784148D01*
X62047270Y-73784151D01*
X62220192Y-73861142D01*
X62220197Y-73861144D01*
X62405354Y-73900500D01*
X62405355Y-73900500D01*
X62594644Y-73900500D01*
X62594646Y-73900500D01*
X62779803Y-73861144D01*
X62952730Y-73784151D01*
X63105871Y-73672888D01*
X63232533Y-73532216D01*
X63327179Y-73368284D01*
X63385674Y-73188256D01*
X63405460Y-73000000D01*
X63385674Y-72811744D01*
X63327179Y-72631716D01*
X63326098Y-72629844D01*
X63325803Y-72628628D01*
X63324538Y-72625786D01*
X63325058Y-72625554D01*
X63309629Y-72561946D01*
X63332482Y-72495920D01*
X63345794Y-72480181D01*
X63559159Y-72266816D01*
X63620481Y-72233334D01*
X63646839Y-72230500D01*
X64225500Y-72230500D01*
X64292539Y-72250185D01*
X64338294Y-72302989D01*
X64349500Y-72354500D01*
X64349500Y-72473161D01*
X64329815Y-72540200D01*
X64313181Y-72560842D01*
X64139433Y-72734590D01*
X64139432Y-72734591D01*
X64121392Y-72752631D01*
X64074590Y-72799432D01*
X64065868Y-72820493D01*
X64065865Y-72820499D01*
X64039499Y-72884148D01*
X64039499Y-72990283D01*
X64039500Y-72990292D01*
X64039500Y-74831511D01*
X64031682Y-74874844D01*
X64006403Y-74942620D01*
X64006401Y-74942627D01*
X64000000Y-75002155D01*
X64000000Y-75550000D01*
X64003181Y-75553181D01*
X64036666Y-75614504D01*
X64039500Y-75640862D01*
X64039500Y-75959138D01*
X64019815Y-76026177D01*
X64003181Y-76046819D01*
X64000000Y-76050000D01*
X64000000Y-76597844D01*
X64006401Y-76657376D01*
X64031682Y-76725154D01*
X64039500Y-76768488D01*
X64039500Y-77014147D01*
X64039499Y-77014161D01*
X64039499Y-77115851D01*
X64055363Y-77154148D01*
X64055363Y-77154149D01*
X64055364Y-77154149D01*
X64055364Y-77154150D01*
X64074591Y-77200568D01*
X64074592Y-77200569D01*
X64156868Y-77282845D01*
X64156874Y-77282850D01*
X66317212Y-79443188D01*
X66350697Y-79504511D01*
X66352269Y-79548515D01*
X66344867Y-79599999D01*
X66363302Y-79728225D01*
X66417117Y-79846061D01*
X66417118Y-79846063D01*
X66501951Y-79943967D01*
X66610931Y-80014004D01*
X66735225Y-80050499D01*
X66735227Y-80050500D01*
X66735228Y-80050500D01*
X66864773Y-80050500D01*
X66864773Y-80050499D01*
X66989069Y-80014004D01*
X67087141Y-79950977D01*
X67154178Y-79931293D01*
X67198702Y-79942664D01*
X67199602Y-79940253D01*
X67342623Y-79993597D01*
X67342627Y-79993598D01*
X67402155Y-79999999D01*
X67402172Y-80000000D01*
X67950000Y-80000000D01*
X68450000Y-80000000D01*
X68997828Y-80000000D01*
X68997844Y-79999999D01*
X69057372Y-79993598D01*
X69057379Y-79993596D01*
X69192086Y-79943354D01*
X69192093Y-79943350D01*
X69307187Y-79857190D01*
X69307190Y-79857187D01*
X69393350Y-79742092D01*
X69397426Y-79731167D01*
X69439297Y-79675233D01*
X69504761Y-79650816D01*
X69513608Y-79650500D01*
X69927263Y-79650500D01*
X69994302Y-79670185D01*
X70040057Y-79722989D01*
X70050001Y-79792147D01*
X70020976Y-79855703D01*
X69994302Y-79878816D01*
X69951950Y-79906033D01*
X69867118Y-80003937D01*
X69867117Y-80003938D01*
X69813302Y-80121774D01*
X69794867Y-80250000D01*
X69813302Y-80378225D01*
X69860011Y-80480501D01*
X69867118Y-80496063D01*
X69951951Y-80593967D01*
X70060931Y-80664004D01*
X70185225Y-80700499D01*
X70185227Y-80700500D01*
X70185228Y-80700500D01*
X70314773Y-80700500D01*
X70314773Y-80700499D01*
X70439069Y-80664004D01*
X70548049Y-80593967D01*
X70609283Y-80523297D01*
X70668061Y-80485523D01*
X70702997Y-80480500D01*
X72339708Y-80480500D01*
X72339716Y-80480501D01*
X72354150Y-80480501D01*
X72445847Y-80480501D01*
X72445850Y-80480501D01*
X72495476Y-80459944D01*
X72530568Y-80445409D01*
X72595409Y-80380568D01*
X72595409Y-80380567D01*
X72612847Y-80363129D01*
X72612848Y-80363126D01*
X73289157Y-79686819D01*
X73350480Y-79653334D01*
X73376838Y-79650500D01*
X74486392Y-79650500D01*
X74553431Y-79670185D01*
X74599186Y-79722989D01*
X74602574Y-79731167D01*
X74606649Y-79742092D01*
X74692809Y-79857187D01*
X74692812Y-79857190D01*
X74807906Y-79943350D01*
X74807913Y-79943354D01*
X74942620Y-79993596D01*
X74942627Y-79993598D01*
X75002155Y-79999999D01*
X75002172Y-80000000D01*
X75550000Y-80000000D01*
X76050000Y-80000000D01*
X76597828Y-80000000D01*
X76597844Y-79999999D01*
X76657372Y-79993598D01*
X76657379Y-79993596D01*
X76792086Y-79943354D01*
X76792093Y-79943350D01*
X76907187Y-79857190D01*
X76907190Y-79857187D01*
X76993350Y-79742093D01*
X76993354Y-79742086D01*
X77043596Y-79607379D01*
X77043598Y-79607372D01*
X77049999Y-79547844D01*
X77050000Y-79547827D01*
X77050000Y-78850000D01*
X76050000Y-78850000D01*
X76050000Y-80000000D01*
X75550000Y-80000000D01*
X75550000Y-78350000D01*
X76050000Y-78350000D01*
X77050000Y-78350000D01*
X77050000Y-77652172D01*
X77049999Y-77652155D01*
X77043598Y-77592627D01*
X77043596Y-77592620D01*
X76993354Y-77457913D01*
X76993350Y-77457906D01*
X76907190Y-77342812D01*
X76907187Y-77342809D01*
X76792093Y-77256649D01*
X76792086Y-77256645D01*
X76657379Y-77206403D01*
X76657372Y-77206401D01*
X76597844Y-77200000D01*
X76050000Y-77200000D01*
X76050000Y-78350000D01*
X75550000Y-78350000D01*
X75550000Y-77200000D01*
X75002155Y-77200000D01*
X74942627Y-77206401D01*
X74942620Y-77206403D01*
X74807913Y-77256645D01*
X74807906Y-77256649D01*
X74692812Y-77342809D01*
X74692809Y-77342812D01*
X74606649Y-77457907D01*
X74602574Y-77468833D01*
X74560703Y-77524767D01*
X74495239Y-77549184D01*
X74486392Y-77549500D01*
X73135178Y-77549500D01*
X73091282Y-77558231D01*
X73091275Y-77558234D01*
X73041496Y-77591495D01*
X73037681Y-77595311D01*
X72976358Y-77628796D01*
X72906666Y-77623812D01*
X72862319Y-77595311D01*
X72858503Y-77591495D01*
X72808724Y-77558234D01*
X72808717Y-77558231D01*
X72764822Y-77549500D01*
X72764820Y-77549500D01*
X71235180Y-77549500D01*
X71235178Y-77549500D01*
X71191282Y-77558231D01*
X71191275Y-77558234D01*
X71141496Y-77591495D01*
X71137681Y-77595311D01*
X71076358Y-77628796D01*
X71006666Y-77623812D01*
X70962319Y-77595311D01*
X70958503Y-77591495D01*
X70908724Y-77558234D01*
X70908717Y-77558231D01*
X70864822Y-77549500D01*
X70864820Y-77549500D01*
X69513608Y-77549500D01*
X69446569Y-77529815D01*
X69400814Y-77477011D01*
X69397426Y-77468833D01*
X69393350Y-77457907D01*
X69307190Y-77342812D01*
X69307187Y-77342809D01*
X69192093Y-77256649D01*
X69192086Y-77256645D01*
X69057379Y-77206403D01*
X69057372Y-77206401D01*
X68997844Y-77200000D01*
X68450000Y-77200000D01*
X68450000Y-80000000D01*
X67950000Y-80000000D01*
X67950000Y-78850000D01*
X66950000Y-78850000D01*
X66950000Y-79025500D01*
X66930315Y-79092539D01*
X66877511Y-79138294D01*
X66826000Y-79149500D01*
X66726838Y-79149500D01*
X66659799Y-79129815D01*
X66639157Y-79113181D01*
X65178131Y-77652155D01*
X66950000Y-77652155D01*
X66950000Y-78350000D01*
X67950000Y-78350000D01*
X67950000Y-77200000D01*
X67402155Y-77200000D01*
X67342627Y-77206401D01*
X67342620Y-77206403D01*
X67207913Y-77256645D01*
X67207906Y-77256649D01*
X67092812Y-77342809D01*
X67092809Y-77342812D01*
X67006649Y-77457906D01*
X67006645Y-77457913D01*
X66956403Y-77592620D01*
X66956401Y-77592627D01*
X66950000Y-77652155D01*
X65178131Y-77652155D01*
X64787657Y-77261681D01*
X64754172Y-77200358D01*
X64759156Y-77130666D01*
X64801028Y-77074733D01*
X64866492Y-77050316D01*
X64875338Y-77050000D01*
X65223330Y-77050000D01*
X65290369Y-77069685D01*
X65336124Y-77122489D01*
X65346067Y-77191646D01*
X65344867Y-77200000D01*
X65344949Y-77200568D01*
X65363302Y-77328225D01*
X65400623Y-77409944D01*
X65417118Y-77446063D01*
X65501951Y-77543967D01*
X65610931Y-77614004D01*
X65703820Y-77641278D01*
X65735225Y-77650499D01*
X65735227Y-77650500D01*
X65735228Y-77650500D01*
X65864773Y-77650500D01*
X65864773Y-77650499D01*
X65989069Y-77614004D01*
X66098049Y-77543967D01*
X66182882Y-77446063D01*
X66182885Y-77446055D01*
X66185324Y-77442262D01*
X66230832Y-77402825D01*
X66230411Y-77402195D01*
X66235429Y-77398841D01*
X66238126Y-77396505D01*
X66240420Y-77395507D01*
X66240561Y-77395411D01*
X66240568Y-77395409D01*
X66305409Y-77330568D01*
X66305409Y-77330567D01*
X66322847Y-77313129D01*
X66322849Y-77313126D01*
X66643126Y-76992849D01*
X66643129Y-76992847D01*
X66660567Y-76975409D01*
X66660568Y-76975409D01*
X66725409Y-76910568D01*
X66747998Y-76856033D01*
X66760501Y-76825849D01*
X66760501Y-76768485D01*
X66768319Y-76725151D01*
X66793597Y-76657376D01*
X66793598Y-76657372D01*
X66799999Y-76597844D01*
X77200000Y-76597844D01*
X77206401Y-76657372D01*
X77206403Y-76657379D01*
X77256645Y-76792086D01*
X77256649Y-76792093D01*
X77342809Y-76907187D01*
X77342812Y-76907190D01*
X77457906Y-76993350D01*
X77457913Y-76993354D01*
X77592620Y-77043596D01*
X77592627Y-77043598D01*
X77652155Y-77049999D01*
X77652172Y-77050000D01*
X78350000Y-77050000D01*
X78850000Y-77050000D01*
X79547828Y-77050000D01*
X79547844Y-77049999D01*
X79607372Y-77043598D01*
X79607379Y-77043596D01*
X79742086Y-76993354D01*
X79742093Y-76993350D01*
X79857187Y-76907190D01*
X79857190Y-76907187D01*
X79943350Y-76792093D01*
X79943354Y-76792086D01*
X79993596Y-76657379D01*
X79993598Y-76657372D01*
X79999999Y-76597844D01*
X80000000Y-76597827D01*
X80000000Y-76050000D01*
X78850000Y-76050000D01*
X78850000Y-77050000D01*
X78350000Y-77050000D01*
X78350000Y-76050000D01*
X77200000Y-76050000D01*
X77200000Y-76597844D01*
X66799999Y-76597844D01*
X66800000Y-76597827D01*
X66800000Y-76050000D01*
X66796819Y-76046819D01*
X66763334Y-75985496D01*
X66760500Y-75959138D01*
X66760500Y-75700000D01*
X72044867Y-75700000D01*
X72063302Y-75828225D01*
X72102477Y-75914004D01*
X72117118Y-75946063D01*
X72201951Y-76043967D01*
X72310931Y-76114004D01*
X72435225Y-76150499D01*
X72435227Y-76150500D01*
X72435228Y-76150500D01*
X72564773Y-76150500D01*
X72564773Y-76150499D01*
X72689069Y-76114004D01*
X72798049Y-76043967D01*
X72882882Y-75946063D01*
X72886497Y-75938146D01*
X72932250Y-75885343D01*
X72999288Y-75865656D01*
X73066326Y-75885338D01*
X73110931Y-75914004D01*
X73110933Y-75914004D01*
X73110934Y-75914005D01*
X73235225Y-75950499D01*
X73235227Y-75950500D01*
X73235228Y-75950500D01*
X73364773Y-75950500D01*
X73364773Y-75950499D01*
X73489069Y-75914004D01*
X73598049Y-75843967D01*
X73682882Y-75746063D01*
X73736697Y-75628226D01*
X73755133Y-75500000D01*
X73736697Y-75371774D01*
X73682882Y-75253937D01*
X73598049Y-75156033D01*
X73489069Y-75085996D01*
X73489065Y-75085994D01*
X73489064Y-75085994D01*
X73364774Y-75049500D01*
X73364772Y-75049500D01*
X73235228Y-75049500D01*
X73235226Y-75049500D01*
X73110935Y-75085994D01*
X73110932Y-75085995D01*
X73110931Y-75085996D01*
X73059677Y-75118934D01*
X73001950Y-75156033D01*
X72917118Y-75253937D01*
X72917116Y-75253939D01*
X72913499Y-75261860D01*
X72867742Y-75314662D01*
X72800701Y-75334343D01*
X72733668Y-75314658D01*
X72689069Y-75285996D01*
X72689067Y-75285995D01*
X72689065Y-75285994D01*
X72564774Y-75249500D01*
X72564772Y-75249500D01*
X72435228Y-75249500D01*
X72435226Y-75249500D01*
X72310935Y-75285994D01*
X72310932Y-75285995D01*
X72310931Y-75285996D01*
X72266332Y-75314658D01*
X72201950Y-75356033D01*
X72117118Y-75453937D01*
X72117117Y-75453938D01*
X72063302Y-75571774D01*
X72044867Y-75700000D01*
X66760500Y-75700000D01*
X66760500Y-75640862D01*
X66780185Y-75573823D01*
X66796819Y-75553181D01*
X66800000Y-75550000D01*
X66800000Y-75002172D01*
X66799999Y-75002155D01*
X66793598Y-74942627D01*
X66793596Y-74942620D01*
X66768318Y-74874844D01*
X66760500Y-74831511D01*
X66760500Y-74697844D01*
X77200000Y-74697844D01*
X77206401Y-74757372D01*
X77206403Y-74757380D01*
X77224786Y-74806667D01*
X77229770Y-74876359D01*
X77224786Y-74893333D01*
X77206403Y-74942619D01*
X77206401Y-74942627D01*
X77200000Y-75002155D01*
X77200000Y-75550000D01*
X78350000Y-75550000D01*
X78350000Y-74150000D01*
X78850000Y-74150000D01*
X78850000Y-75550000D01*
X80000000Y-75550000D01*
X80000000Y-75002172D01*
X79999999Y-75002155D01*
X79993597Y-74942622D01*
X79993597Y-74942621D01*
X79975214Y-74893335D01*
X79970308Y-74824767D01*
X86942001Y-74824767D01*
X86942001Y-74955234D01*
X86975768Y-75081258D01*
X86978504Y-75085996D01*
X87041002Y-75194245D01*
X87133257Y-75286500D01*
X87246245Y-75351734D01*
X87372267Y-75385501D01*
X87372269Y-75385501D01*
X87502733Y-75385501D01*
X87502735Y-75385501D01*
X87628757Y-75351734D01*
X87741745Y-75286500D01*
X87834000Y-75194245D01*
X87899234Y-75081257D01*
X87933001Y-74955235D01*
X87933001Y-74824767D01*
X87899234Y-74698745D01*
X87834000Y-74585757D01*
X87741745Y-74493502D01*
X87683505Y-74459877D01*
X87628758Y-74428268D01*
X87565746Y-74411384D01*
X87502735Y-74394501D01*
X87372267Y-74394501D01*
X87246243Y-74428268D01*
X87133257Y-74493502D01*
X87133254Y-74493504D01*
X87041004Y-74585754D01*
X87041002Y-74585757D01*
X86975768Y-74698743D01*
X86942001Y-74824767D01*
X79970308Y-74824767D01*
X79970228Y-74823644D01*
X79975214Y-74806665D01*
X79993597Y-74757378D01*
X79993597Y-74757377D01*
X79999999Y-74697844D01*
X80000000Y-74697827D01*
X80000000Y-74589312D01*
X80019685Y-74522273D01*
X80072489Y-74476518D01*
X80141647Y-74466574D01*
X80205203Y-74495599D01*
X80211681Y-74501631D01*
X80290122Y-74580072D01*
X80435604Y-74668019D01*
X80435603Y-74668019D01*
X80597894Y-74718590D01*
X80597892Y-74718590D01*
X80668418Y-74724999D01*
X81250000Y-74724999D01*
X81331581Y-74724999D01*
X81402102Y-74718591D01*
X81402107Y-74718590D01*
X81564396Y-74668018D01*
X81709877Y-74580072D01*
X81830072Y-74459877D01*
X81918019Y-74314395D01*
X81968590Y-74152106D01*
X81975000Y-74081572D01*
X81975000Y-74075000D01*
X81250000Y-74075000D01*
X81250000Y-74724999D01*
X80668418Y-74724999D01*
X80749999Y-74724998D01*
X80750000Y-74724998D01*
X80750000Y-74075000D01*
X80130000Y-74075000D01*
X80093681Y-74111319D01*
X80091609Y-74109247D01*
X80057511Y-74138794D01*
X80006000Y-74150000D01*
X78850000Y-74150000D01*
X78350000Y-74150000D01*
X77200000Y-74150000D01*
X77200000Y-74697844D01*
X66760500Y-74697844D01*
X66760500Y-73200000D01*
X68944867Y-73200000D01*
X68963302Y-73328225D01*
X69002477Y-73414004D01*
X69017118Y-73446063D01*
X69101951Y-73543967D01*
X69210931Y-73614004D01*
X69335225Y-73650499D01*
X69335227Y-73650500D01*
X69335228Y-73650500D01*
X69464773Y-73650500D01*
X69464773Y-73650499D01*
X69589069Y-73614004D01*
X69698049Y-73543967D01*
X69782882Y-73446063D01*
X69836697Y-73328226D01*
X69855133Y-73200000D01*
X69836697Y-73071774D01*
X69782882Y-72953937D01*
X69698049Y-72856033D01*
X69589069Y-72785996D01*
X69589065Y-72785994D01*
X69589064Y-72785994D01*
X69464774Y-72749500D01*
X69464772Y-72749500D01*
X69335228Y-72749500D01*
X69335226Y-72749500D01*
X69210935Y-72785994D01*
X69210932Y-72785995D01*
X69210931Y-72785996D01*
X69170866Y-72811744D01*
X69101950Y-72856033D01*
X69017118Y-72953937D01*
X69017117Y-72953938D01*
X68963302Y-73071774D01*
X68944867Y-73200000D01*
X66760500Y-73200000D01*
X66760500Y-70974152D01*
X66760498Y-70974147D01*
X66754018Y-70958503D01*
X66725409Y-70889432D01*
X66660568Y-70824591D01*
X66653503Y-70817526D01*
X66653496Y-70817520D01*
X66486819Y-70650843D01*
X66453334Y-70589520D01*
X66450500Y-70563162D01*
X66450500Y-69513608D01*
X66470185Y-69446569D01*
X66522989Y-69400814D01*
X66531171Y-69397425D01*
X66542089Y-69393353D01*
X66542091Y-69393351D01*
X66657187Y-69307190D01*
X66657190Y-69307187D01*
X66743350Y-69192093D01*
X66743354Y-69192086D01*
X66793596Y-69057379D01*
X66793598Y-69057372D01*
X66799999Y-68997844D01*
X66800000Y-68997827D01*
X66800000Y-68450000D01*
X64000000Y-68450000D01*
X64000000Y-68997844D01*
X64006401Y-69057372D01*
X64006403Y-69057379D01*
X64056645Y-69192086D01*
X64056649Y-69192093D01*
X64142809Y-69307187D01*
X64142812Y-69307190D01*
X64257908Y-69393351D01*
X64257910Y-69393353D01*
X64268829Y-69397425D01*
X64324764Y-69439294D01*
X64349184Y-69504757D01*
X64349500Y-69513608D01*
X64349500Y-69745500D01*
X64329815Y-69812539D01*
X64277011Y-69858294D01*
X64225500Y-69869500D01*
X63494531Y-69869500D01*
X63427492Y-69849815D01*
X63381737Y-69797011D01*
X63376600Y-69783818D01*
X63373897Y-69775500D01*
X63357464Y-69724925D01*
X63327181Y-69631721D01*
X63327178Y-69631715D01*
X63232533Y-69467784D01*
X63105871Y-69327112D01*
X63078451Y-69307190D01*
X62952734Y-69215851D01*
X62952729Y-69215848D01*
X62779807Y-69138857D01*
X62779802Y-69138855D01*
X62634001Y-69107865D01*
X62594646Y-69099500D01*
X62405354Y-69099500D01*
X62372897Y-69106398D01*
X62220197Y-69138855D01*
X62220192Y-69138857D01*
X62047270Y-69215848D01*
X62047265Y-69215851D01*
X61894129Y-69327111D01*
X61767466Y-69467785D01*
X61672821Y-69631715D01*
X61672818Y-69631722D01*
X61622461Y-69786706D01*
X61614326Y-69811744D01*
X61594540Y-70000000D01*
X61614326Y-70188256D01*
X61614327Y-70188259D01*
X61672818Y-70368277D01*
X61672821Y-70368284D01*
X61767467Y-70532216D01*
X61841578Y-70614524D01*
X61894129Y-70672888D01*
X62047265Y-70784148D01*
X62047270Y-70784151D01*
X62220192Y-70861142D01*
X62220197Y-70861144D01*
X62405354Y-70900500D01*
X62405355Y-70900500D01*
X62594644Y-70900500D01*
X62594646Y-70900500D01*
X62779803Y-70861144D01*
X62952730Y-70784151D01*
X63105871Y-70672888D01*
X63232533Y-70532216D01*
X63313198Y-70392500D01*
X63363765Y-70344285D01*
X63420585Y-70330500D01*
X64225500Y-70330500D01*
X64292539Y-70350185D01*
X64338294Y-70402989D01*
X64349500Y-70454500D01*
X64349500Y-70864820D01*
X64349500Y-70864822D01*
X64349499Y-70864822D01*
X64358231Y-70908717D01*
X64358234Y-70908724D01*
X64391495Y-70958503D01*
X64395311Y-70962319D01*
X64428796Y-71023642D01*
X64423812Y-71093334D01*
X64395311Y-71137681D01*
X64391495Y-71141496D01*
X64358234Y-71191275D01*
X64358231Y-71191282D01*
X64349500Y-71235177D01*
X64349500Y-71645500D01*
X64329815Y-71712539D01*
X64277011Y-71758294D01*
X64225500Y-71769500D01*
X63560292Y-71769500D01*
X63560284Y-71769499D01*
X63545850Y-71769499D01*
X63454151Y-71769499D01*
X63454150Y-71769499D01*
X63369430Y-71804592D01*
X63016759Y-72157263D01*
X62955436Y-72190748D01*
X62885744Y-72185764D01*
X62878643Y-72182862D01*
X62779802Y-72138855D01*
X62634001Y-72107865D01*
X62594646Y-72099500D01*
X62405354Y-72099500D01*
X62372897Y-72106398D01*
X62220197Y-72138855D01*
X62220192Y-72138857D01*
X62047270Y-72215848D01*
X62047265Y-72215851D01*
X61894129Y-72327111D01*
X61767466Y-72467785D01*
X61693838Y-72595313D01*
X61643271Y-72643529D01*
X61574664Y-72656752D01*
X61519413Y-72637629D01*
X61439066Y-72585994D01*
X61314774Y-72549500D01*
X61314772Y-72549500D01*
X61185228Y-72549500D01*
X61185226Y-72549500D01*
X61060935Y-72585994D01*
X61060932Y-72585995D01*
X61060931Y-72585996D01*
X61009677Y-72618934D01*
X60951950Y-72656033D01*
X60916712Y-72696702D01*
X60857934Y-72734477D01*
X60822998Y-72739500D01*
X59427002Y-72739500D01*
X59359963Y-72719815D01*
X59333288Y-72696702D01*
X59298049Y-72656033D01*
X59278592Y-72643529D01*
X59189069Y-72585996D01*
X59189065Y-72585994D01*
X59189064Y-72585994D01*
X59064774Y-72549500D01*
X59064772Y-72549500D01*
X58935228Y-72549500D01*
X58935226Y-72549500D01*
X58810935Y-72585994D01*
X58810932Y-72585995D01*
X58810931Y-72585996D01*
X58759677Y-72618934D01*
X58701950Y-72656033D01*
X58617118Y-72753937D01*
X58617117Y-72753938D01*
X58563302Y-72871774D01*
X58544867Y-73000000D01*
X50230500Y-73000000D01*
X50230500Y-67402155D01*
X64000000Y-67402155D01*
X64000000Y-67950000D01*
X65150000Y-67950000D01*
X65650000Y-67950000D01*
X66800000Y-67950000D01*
X66800000Y-67402172D01*
X66799999Y-67402155D01*
X66793598Y-67342627D01*
X66793596Y-67342620D01*
X66743354Y-67207913D01*
X66743350Y-67207906D01*
X66657190Y-67092812D01*
X66657187Y-67092809D01*
X66542093Y-67006649D01*
X66542086Y-67006645D01*
X66407379Y-66956403D01*
X66407372Y-66956401D01*
X66347844Y-66950000D01*
X65650000Y-66950000D01*
X65650000Y-67950000D01*
X65150000Y-67950000D01*
X65150000Y-66950000D01*
X64452155Y-66950000D01*
X64392627Y-66956401D01*
X64392620Y-66956403D01*
X64257913Y-67006645D01*
X64257906Y-67006649D01*
X64142812Y-67092809D01*
X64142809Y-67092812D01*
X64056649Y-67207906D01*
X64056645Y-67207913D01*
X64006403Y-67342620D01*
X64006401Y-67342627D01*
X64000000Y-67402155D01*
X50230500Y-67402155D01*
X50230500Y-66347844D01*
X66950000Y-66347844D01*
X66956401Y-66407372D01*
X66956403Y-66407379D01*
X67006645Y-66542086D01*
X67006649Y-66542093D01*
X67092809Y-66657187D01*
X67092812Y-66657190D01*
X67207906Y-66743350D01*
X67207913Y-66743354D01*
X67342620Y-66793596D01*
X67342627Y-66793598D01*
X67402155Y-66799999D01*
X67402172Y-66800000D01*
X67950000Y-66800000D01*
X68450000Y-66800000D01*
X68997828Y-66800000D01*
X68997844Y-66799999D01*
X69057372Y-66793598D01*
X69057379Y-66793596D01*
X69192086Y-66743354D01*
X69192093Y-66743350D01*
X69307187Y-66657190D01*
X69307190Y-66657187D01*
X69393350Y-66542092D01*
X69397426Y-66531167D01*
X69439297Y-66475233D01*
X69504761Y-66450816D01*
X69513608Y-66450500D01*
X69700500Y-66450500D01*
X69767539Y-66470185D01*
X69813294Y-66522989D01*
X69824500Y-66574500D01*
X69824500Y-71467973D01*
X69861424Y-71557113D01*
X69861423Y-71557113D01*
X69866441Y-71569228D01*
X69866444Y-71569232D01*
X71630769Y-73333558D01*
X71630771Y-73333560D01*
X71700328Y-73362370D01*
X71732027Y-73375500D01*
X71732029Y-73375500D01*
X72267972Y-73375500D01*
X72267973Y-73375500D01*
X72369231Y-73333557D01*
X72446730Y-73256058D01*
X72446729Y-73256058D01*
X72505298Y-73197489D01*
X73833558Y-71869231D01*
X73833558Y-71869229D01*
X73833560Y-71869228D01*
X73860332Y-71804591D01*
X73875500Y-71767973D01*
X73875500Y-71658373D01*
X73875500Y-70765477D01*
X73895185Y-70698438D01*
X73911819Y-70677796D01*
X75277797Y-69311819D01*
X75339120Y-69278334D01*
X75365478Y-69275500D01*
X75585995Y-69275500D01*
X75653034Y-69295185D01*
X75679709Y-69318298D01*
X75701951Y-69343967D01*
X75810931Y-69414004D01*
X75811752Y-69414245D01*
X75935225Y-69450499D01*
X75935227Y-69450500D01*
X75935228Y-69450500D01*
X76009523Y-69450500D01*
X76076562Y-69470185D01*
X76097204Y-69486819D01*
X76866443Y-70256058D01*
X76943942Y-70333557D01*
X77045200Y-70375500D01*
X77425500Y-70375500D01*
X77492539Y-70395185D01*
X77538294Y-70447989D01*
X77549500Y-70499500D01*
X77549500Y-70864820D01*
X77549500Y-70864822D01*
X77549499Y-70864822D01*
X77558231Y-70908717D01*
X77558234Y-70908724D01*
X77591495Y-70958503D01*
X77595311Y-70962319D01*
X77628796Y-71023642D01*
X77623812Y-71093334D01*
X77595311Y-71137681D01*
X77591495Y-71141496D01*
X77558234Y-71191275D01*
X77558231Y-71191282D01*
X77549500Y-71235177D01*
X77549500Y-72586391D01*
X77529815Y-72653430D01*
X77477011Y-72699185D01*
X77468838Y-72702571D01*
X77457909Y-72706647D01*
X77457907Y-72706648D01*
X77342812Y-72792809D01*
X77342809Y-72792812D01*
X77256649Y-72907906D01*
X77256645Y-72907913D01*
X77206403Y-73042620D01*
X77206401Y-73042627D01*
X77200000Y-73102155D01*
X77200000Y-73650000D01*
X79895000Y-73650000D01*
X79931319Y-73613681D01*
X79933390Y-73615752D01*
X79967489Y-73586206D01*
X80019000Y-73575000D01*
X81974999Y-73575000D01*
X81974999Y-73568417D01*
X81968591Y-73497897D01*
X81968590Y-73497892D01*
X81918018Y-73335603D01*
X81830072Y-73190122D01*
X81709877Y-73069927D01*
X81564396Y-72981981D01*
X81414558Y-72935289D01*
X81356411Y-72896551D01*
X81328437Y-72832526D01*
X81339519Y-72763541D01*
X81386138Y-72711498D01*
X81396977Y-72705510D01*
X81481483Y-72664198D01*
X81564198Y-72581483D01*
X81615573Y-72476393D01*
X81625500Y-72408260D01*
X81625500Y-71941740D01*
X81615573Y-71873607D01*
X81564198Y-71768517D01*
X81564196Y-71768515D01*
X81564196Y-71768514D01*
X81483362Y-71687680D01*
X81449877Y-71626357D01*
X81451762Y-71600000D01*
X82444867Y-71600000D01*
X82463302Y-71728225D01*
X82517117Y-71846061D01*
X82517118Y-71846063D01*
X82601951Y-71943967D01*
X82710931Y-72014004D01*
X82816197Y-72044912D01*
X82835225Y-72050499D01*
X82835227Y-72050500D01*
X82835228Y-72050500D01*
X82964773Y-72050500D01*
X82964773Y-72050499D01*
X83089069Y-72014004D01*
X83198049Y-71943967D01*
X83282882Y-71846063D01*
X83336697Y-71728226D01*
X83355133Y-71600000D01*
X83336697Y-71471774D01*
X83282882Y-71353937D01*
X83198049Y-71256033D01*
X83089069Y-71185996D01*
X83089065Y-71185994D01*
X83089064Y-71185994D01*
X82964774Y-71149500D01*
X82964772Y-71149500D01*
X82835228Y-71149500D01*
X82835226Y-71149500D01*
X82710935Y-71185994D01*
X82710932Y-71185995D01*
X82710931Y-71185996D01*
X82659677Y-71218934D01*
X82601950Y-71256033D01*
X82517118Y-71353937D01*
X82517117Y-71353938D01*
X82463302Y-71471774D01*
X82444867Y-71600000D01*
X81451762Y-71600000D01*
X81454861Y-71556665D01*
X81483362Y-71512318D01*
X81489196Y-71506483D01*
X81489198Y-71506481D01*
X81540573Y-71401391D01*
X81550500Y-71333258D01*
X81550500Y-70866738D01*
X81540573Y-70798605D01*
X81489198Y-70693515D01*
X81489196Y-70693513D01*
X81489196Y-70693512D01*
X81406485Y-70610801D01*
X81301391Y-70559424D01*
X81233261Y-70549498D01*
X81233260Y-70549498D01*
X80766740Y-70549498D01*
X80766739Y-70549498D01*
X80698608Y-70559424D01*
X80593514Y-70610801D01*
X80510803Y-70693512D01*
X80459426Y-70798606D01*
X80449500Y-70866737D01*
X80449500Y-71333258D01*
X80459426Y-71401389D01*
X80510803Y-71506483D01*
X80516638Y-71512318D01*
X80550123Y-71573641D01*
X80545139Y-71643333D01*
X80516638Y-71687680D01*
X80435803Y-71768514D01*
X80384426Y-71873608D01*
X80374500Y-71941739D01*
X80374500Y-72408260D01*
X80384426Y-72476391D01*
X80435803Y-72581485D01*
X80518514Y-72664196D01*
X80518515Y-72664196D01*
X80518517Y-72664198D01*
X80603009Y-72705503D01*
X80654591Y-72752631D01*
X80672506Y-72820165D01*
X80651065Y-72886664D01*
X80597076Y-72931014D01*
X80585440Y-72935289D01*
X80435603Y-72981981D01*
X80290124Y-73069926D01*
X80208299Y-73151751D01*
X80146975Y-73185235D01*
X80077284Y-73180251D01*
X80021350Y-73138379D01*
X79997329Y-73077325D01*
X79993598Y-73042626D01*
X79993596Y-73042620D01*
X79943354Y-72907913D01*
X79943350Y-72907906D01*
X79857190Y-72792812D01*
X79857187Y-72792809D01*
X79742092Y-72706648D01*
X79742090Y-72706647D01*
X79731162Y-72702571D01*
X79675230Y-72660698D01*
X79650816Y-72595232D01*
X79650500Y-72586391D01*
X79650500Y-71235177D01*
X79641768Y-71191282D01*
X79641767Y-71191281D01*
X79641767Y-71191278D01*
X79608504Y-71141496D01*
X79604689Y-71137681D01*
X79571204Y-71076358D01*
X79576188Y-71006666D01*
X79604689Y-70962319D01*
X79608500Y-70958506D01*
X79608504Y-70958504D01*
X79641767Y-70908722D01*
X79645605Y-70889429D01*
X79650500Y-70864822D01*
X79650500Y-69899500D01*
X79670185Y-69832461D01*
X79722989Y-69786706D01*
X79774500Y-69775500D01*
X80369364Y-69775500D01*
X80436403Y-69795185D01*
X80480764Y-69845038D01*
X80507388Y-69899500D01*
X80510803Y-69906485D01*
X80593514Y-69989196D01*
X80593515Y-69989196D01*
X80593517Y-69989198D01*
X80698607Y-70040573D01*
X80732673Y-70045536D01*
X80766739Y-70050500D01*
X80766740Y-70050500D01*
X81233261Y-70050500D01*
X81255971Y-70047191D01*
X81301393Y-70040573D01*
X81406483Y-69989198D01*
X81489198Y-69906483D01*
X81540573Y-69801393D01*
X81550500Y-69733260D01*
X81550500Y-69266740D01*
X81540573Y-69198607D01*
X81489198Y-69093517D01*
X81489196Y-69093515D01*
X81489196Y-69093514D01*
X81406485Y-69010803D01*
X81301391Y-68959426D01*
X81233261Y-68949500D01*
X81233260Y-68949500D01*
X80766740Y-68949500D01*
X80766739Y-68949500D01*
X80698608Y-68959426D01*
X80593514Y-69010803D01*
X80510803Y-69093514D01*
X80495270Y-69125286D01*
X80482207Y-69152011D01*
X80480765Y-69154960D01*
X80433637Y-69206542D01*
X80369364Y-69224500D01*
X80109858Y-69224500D01*
X80042819Y-69204815D01*
X79997064Y-69152011D01*
X79987120Y-69082853D01*
X79993281Y-69058716D01*
X79993598Y-69057372D01*
X79999999Y-68997844D01*
X80000000Y-68997827D01*
X80000000Y-68450000D01*
X77200000Y-68450000D01*
X77200000Y-68997844D01*
X77206401Y-69057372D01*
X77206403Y-69057379D01*
X77256645Y-69192086D01*
X77256649Y-69192093D01*
X77342809Y-69307187D01*
X77342812Y-69307190D01*
X77457908Y-69393351D01*
X77457910Y-69393353D01*
X77468829Y-69397425D01*
X77524764Y-69439294D01*
X77549184Y-69504757D01*
X77549500Y-69513608D01*
X77549500Y-69700500D01*
X77529815Y-69767539D01*
X77477011Y-69813294D01*
X77425500Y-69824500D01*
X77265477Y-69824500D01*
X77198438Y-69804815D01*
X77177796Y-69788181D01*
X76490787Y-69101172D01*
X76457302Y-69039849D01*
X76456197Y-69008869D01*
X76455133Y-69008869D01*
X76455133Y-69000000D01*
X76436697Y-68871774D01*
X76388592Y-68766441D01*
X76382882Y-68753937D01*
X76298049Y-68656033D01*
X76189069Y-68585996D01*
X76189065Y-68585994D01*
X76189064Y-68585994D01*
X76064774Y-68549500D01*
X76064772Y-68549500D01*
X75935228Y-68549500D01*
X75935226Y-68549500D01*
X75810935Y-68585994D01*
X75810932Y-68585995D01*
X75810931Y-68585996D01*
X75767071Y-68614183D01*
X75701950Y-68656033D01*
X75679709Y-68681702D01*
X75620931Y-68719477D01*
X75585995Y-68724500D01*
X75254800Y-68724500D01*
X75145200Y-68724500D01*
X75145198Y-68724500D01*
X75145196Y-68724501D01*
X75043944Y-68766439D01*
X75043942Y-68766441D01*
X73443942Y-70366443D01*
X73366444Y-70443940D01*
X73324500Y-70545199D01*
X73324500Y-71547694D01*
X73304815Y-71614733D01*
X73288181Y-71635375D01*
X72599061Y-72324494D01*
X72537738Y-72357979D01*
X72468046Y-72352995D01*
X72412113Y-72311123D01*
X72398588Y-72288328D01*
X72382882Y-72253937D01*
X72298049Y-72156033D01*
X72298048Y-72156032D01*
X72287458Y-72149226D01*
X72241704Y-72096421D01*
X72230500Y-72044912D01*
X72230500Y-66574500D01*
X72250185Y-66507461D01*
X72302989Y-66461706D01*
X72354500Y-66450500D01*
X72764822Y-66450500D01*
X72808717Y-66441768D01*
X72808717Y-66441767D01*
X72808722Y-66441767D01*
X72858504Y-66408504D01*
X72858506Y-66408500D01*
X72862319Y-66404689D01*
X72923642Y-66371204D01*
X72993334Y-66376188D01*
X73037681Y-66404689D01*
X73041496Y-66408504D01*
X73091278Y-66441767D01*
X73091281Y-66441767D01*
X73091282Y-66441768D01*
X73135177Y-66450500D01*
X74486392Y-66450500D01*
X74553431Y-66470185D01*
X74599186Y-66522989D01*
X74602574Y-66531167D01*
X74606649Y-66542092D01*
X74692809Y-66657187D01*
X74692812Y-66657190D01*
X74807906Y-66743350D01*
X74807913Y-66743354D01*
X74926498Y-66787583D01*
X74982432Y-66829454D01*
X75006849Y-66894918D01*
X74991998Y-66963191D01*
X74976879Y-66984966D01*
X74917120Y-67053932D01*
X74917117Y-67053938D01*
X74863302Y-67171774D01*
X74844867Y-67300000D01*
X74863302Y-67428225D01*
X74917117Y-67546061D01*
X74917118Y-67546063D01*
X75001951Y-67643967D01*
X75110931Y-67714004D01*
X75235225Y-67750499D01*
X75235227Y-67750500D01*
X75235228Y-67750500D01*
X75364773Y-67750500D01*
X75364773Y-67750499D01*
X75489069Y-67714004D01*
X75598049Y-67643967D01*
X75682882Y-67546063D01*
X75736697Y-67428226D01*
X75740445Y-67402155D01*
X77200000Y-67402155D01*
X77200000Y-67950000D01*
X78350000Y-67950000D01*
X78850000Y-67950000D01*
X80000000Y-67950000D01*
X80000000Y-67402172D01*
X79999999Y-67402155D01*
X79993598Y-67342627D01*
X79993596Y-67342620D01*
X79943354Y-67207913D01*
X79943350Y-67207906D01*
X79857190Y-67092812D01*
X79857187Y-67092809D01*
X79742093Y-67006649D01*
X79742086Y-67006645D01*
X79607379Y-66956403D01*
X79607372Y-66956401D01*
X79547844Y-66950000D01*
X78850000Y-66950000D01*
X78850000Y-67950000D01*
X78350000Y-67950000D01*
X78350000Y-66950000D01*
X77652155Y-66950000D01*
X77592627Y-66956401D01*
X77592620Y-66956403D01*
X77457913Y-67006645D01*
X77457906Y-67006649D01*
X77342812Y-67092809D01*
X77342809Y-67092812D01*
X77256649Y-67207906D01*
X77256645Y-67207913D01*
X77206403Y-67342620D01*
X77206401Y-67342627D01*
X77200000Y-67402155D01*
X75740445Y-67402155D01*
X75755133Y-67300000D01*
X75736697Y-67171774D01*
X75682882Y-67053937D01*
X75598049Y-66956033D01*
X75598048Y-66956032D01*
X75598046Y-66956030D01*
X75591348Y-66950226D01*
X75593334Y-66947933D01*
X75557491Y-66906550D01*
X75547563Y-66837389D01*
X75550000Y-66832056D01*
X75550000Y-66800000D01*
X76050000Y-66800000D01*
X76597828Y-66800000D01*
X76597844Y-66799999D01*
X76657372Y-66793598D01*
X76657379Y-66793596D01*
X76792086Y-66743354D01*
X76792093Y-66743350D01*
X76907187Y-66657190D01*
X76907190Y-66657187D01*
X76993350Y-66542093D01*
X76993354Y-66542086D01*
X77043596Y-66407379D01*
X77043598Y-66407372D01*
X77049999Y-66347844D01*
X77050000Y-66347827D01*
X77050000Y-65650000D01*
X76050000Y-65650000D01*
X76050000Y-66800000D01*
X75550000Y-66800000D01*
X75550000Y-65150000D01*
X76050000Y-65150000D01*
X77050000Y-65150000D01*
X77050000Y-64452172D01*
X77049999Y-64452155D01*
X77043598Y-64392627D01*
X77043596Y-64392620D01*
X76993354Y-64257913D01*
X76993350Y-64257906D01*
X76907190Y-64142812D01*
X76907187Y-64142809D01*
X76792093Y-64056649D01*
X76792086Y-64056645D01*
X76657379Y-64006403D01*
X76657372Y-64006401D01*
X76597844Y-64000000D01*
X76050000Y-64000000D01*
X76050000Y-65150000D01*
X75550000Y-65150000D01*
X75550000Y-64000000D01*
X75002155Y-64000000D01*
X74942627Y-64006401D01*
X74942620Y-64006403D01*
X74807913Y-64056645D01*
X74807906Y-64056649D01*
X74692812Y-64142809D01*
X74692809Y-64142812D01*
X74606649Y-64257907D01*
X74602574Y-64268833D01*
X74560703Y-64324767D01*
X74495239Y-64349184D01*
X74486392Y-64349500D01*
X73135178Y-64349500D01*
X73091282Y-64358231D01*
X73091275Y-64358234D01*
X73041496Y-64391495D01*
X73037681Y-64395311D01*
X72976358Y-64428796D01*
X72906666Y-64423812D01*
X72862319Y-64395311D01*
X72858503Y-64391495D01*
X72808724Y-64358234D01*
X72808717Y-64358231D01*
X72764822Y-64349500D01*
X72764820Y-64349500D01*
X71235180Y-64349500D01*
X71235178Y-64349500D01*
X71191282Y-64358231D01*
X71191275Y-64358234D01*
X71141496Y-64391495D01*
X71137681Y-64395311D01*
X71076358Y-64428796D01*
X71006666Y-64423812D01*
X70962319Y-64395311D01*
X70958503Y-64391495D01*
X70908724Y-64358234D01*
X70908717Y-64358231D01*
X70864822Y-64349500D01*
X70864820Y-64349500D01*
X69513608Y-64349500D01*
X69446569Y-64329815D01*
X69400814Y-64277011D01*
X69397426Y-64268833D01*
X69393350Y-64257907D01*
X69307190Y-64142812D01*
X69307187Y-64142809D01*
X69192093Y-64056649D01*
X69192086Y-64056645D01*
X69057379Y-64006403D01*
X69057372Y-64006401D01*
X68997844Y-64000000D01*
X68450000Y-64000000D01*
X68450000Y-66800000D01*
X67950000Y-66800000D01*
X67950000Y-65650000D01*
X66950000Y-65650000D01*
X66950000Y-66347844D01*
X50230500Y-66347844D01*
X50230500Y-64452155D01*
X66950000Y-64452155D01*
X66950000Y-65150000D01*
X67950000Y-65150000D01*
X67950000Y-64000000D01*
X67402155Y-64000000D01*
X67342627Y-64006401D01*
X67342620Y-64006403D01*
X67207913Y-64056645D01*
X67207906Y-64056649D01*
X67092812Y-64142809D01*
X67092809Y-64142812D01*
X67006649Y-64257906D01*
X67006645Y-64257913D01*
X66956403Y-64392620D01*
X66956401Y-64392627D01*
X66950000Y-64452155D01*
X50230500Y-64452155D01*
X50230500Y-61673805D01*
X50250185Y-61606766D01*
X50302989Y-61561011D01*
X50372147Y-61551067D01*
X50422212Y-61572709D01*
X50423263Y-61571037D01*
X50429158Y-61574741D01*
X50429159Y-61574742D01*
X50568543Y-61662322D01*
X50723920Y-61716691D01*
X50723923Y-61716691D01*
X50723925Y-61716692D01*
X50887496Y-61735122D01*
X50887500Y-61735122D01*
X50887504Y-61735122D01*
X51051074Y-61716692D01*
X51051075Y-61716691D01*
X51051080Y-61716691D01*
X51206457Y-61662322D01*
X51345841Y-61574742D01*
X51434335Y-61486247D01*
X51495654Y-61452765D01*
X51565346Y-61457749D01*
X51621280Y-61499620D01*
X51629396Y-61511924D01*
X51635331Y-61522204D01*
X51645206Y-61539309D01*
X51645209Y-61539313D01*
X51773554Y-61681854D01*
X51773556Y-61681856D01*
X51928735Y-61794600D01*
X51928736Y-61794601D01*
X52066716Y-61856033D01*
X52103969Y-61872619D01*
X52291592Y-61912500D01*
X52483408Y-61912500D01*
X52671031Y-61872619D01*
X52846263Y-61794601D01*
X53001445Y-61681855D01*
X53117846Y-61552578D01*
X53129790Y-61539313D01*
X53129795Y-61539306D01*
X53139669Y-61522204D01*
X53225702Y-61373191D01*
X53244225Y-61316183D01*
X53283662Y-61258507D01*
X53348020Y-61231308D01*
X53362156Y-61230500D01*
X60359708Y-61230500D01*
X60359716Y-61230501D01*
X60374150Y-61230501D01*
X60465847Y-61230501D01*
X60465850Y-61230501D01*
X60515476Y-61209944D01*
X60550568Y-61195409D01*
X60615409Y-61130568D01*
X60615409Y-61130567D01*
X60632847Y-61113129D01*
X60632848Y-61113126D01*
X61487820Y-60258155D01*
X61549142Y-60224671D01*
X61618834Y-60229655D01*
X61674767Y-60271527D01*
X61699184Y-60336991D01*
X61699500Y-60345837D01*
X61699500Y-61434523D01*
X61679815Y-61501562D01*
X61663181Y-61522204D01*
X61297204Y-61888181D01*
X61235881Y-61921666D01*
X61209523Y-61924500D01*
X59814005Y-61924500D01*
X59746966Y-61904815D01*
X59720291Y-61881702D01*
X59698049Y-61856033D01*
X59589069Y-61785996D01*
X59589065Y-61785994D01*
X59589064Y-61785994D01*
X59464774Y-61749500D01*
X59464772Y-61749500D01*
X59335228Y-61749500D01*
X59335226Y-61749500D01*
X59210935Y-61785994D01*
X59210932Y-61785995D01*
X59210931Y-61785996D01*
X59183206Y-61803814D01*
X59101950Y-61856033D01*
X59017118Y-61953937D01*
X59017117Y-61953938D01*
X58963302Y-62071774D01*
X58944867Y-62200000D01*
X58963302Y-62328225D01*
X59017117Y-62446061D01*
X59017118Y-62446063D01*
X59101951Y-62543967D01*
X59210931Y-62614004D01*
X59335225Y-62650499D01*
X59335227Y-62650500D01*
X59335228Y-62650500D01*
X59464773Y-62650500D01*
X59464773Y-62650499D01*
X59589069Y-62614004D01*
X59698049Y-62543967D01*
X59720291Y-62518298D01*
X59779069Y-62480523D01*
X59814005Y-62475500D01*
X61429799Y-62475500D01*
X61429800Y-62475500D01*
X61531058Y-62433557D01*
X61608557Y-62356058D01*
X62052796Y-61911819D01*
X62114119Y-61878334D01*
X62140477Y-61875500D01*
X63564822Y-61875500D01*
X63608717Y-61866768D01*
X63608717Y-61866767D01*
X63608722Y-61866767D01*
X63658504Y-61833504D01*
X63691767Y-61783722D01*
X63691768Y-61783717D01*
X63700500Y-61739822D01*
X63700500Y-60875000D01*
X64234659Y-60875000D01*
X64253975Y-61071129D01*
X64253976Y-61071132D01*
X64296084Y-61209944D01*
X64311188Y-61259733D01*
X64404086Y-61433532D01*
X64404090Y-61433539D01*
X64529116Y-61585883D01*
X64681460Y-61710909D01*
X64681467Y-61710913D01*
X64855266Y-61803811D01*
X64855269Y-61803811D01*
X64855273Y-61803814D01*
X65043868Y-61861024D01*
X65240000Y-61880341D01*
X65436132Y-61861024D01*
X65624727Y-61803814D01*
X65641964Y-61794601D01*
X65732736Y-61746082D01*
X65798538Y-61710910D01*
X65950883Y-61585883D01*
X66075910Y-61433538D01*
X66138638Y-61316183D01*
X66168811Y-61259733D01*
X66168812Y-61259731D01*
X66168814Y-61259727D01*
X66226024Y-61071132D01*
X66245341Y-60875000D01*
X66774658Y-60875000D01*
X66793974Y-61071129D01*
X66793975Y-61071132D01*
X66836083Y-61209944D01*
X66851187Y-61259733D01*
X66944085Y-61433532D01*
X66944089Y-61433539D01*
X67069115Y-61585883D01*
X67221459Y-61710909D01*
X67221466Y-61710913D01*
X67395265Y-61803811D01*
X67395268Y-61803811D01*
X67395272Y-61803814D01*
X67583867Y-61861024D01*
X67779999Y-61880341D01*
X67976131Y-61861024D01*
X68164726Y-61803814D01*
X68181963Y-61794601D01*
X68272735Y-61746082D01*
X68338537Y-61710910D01*
X68490882Y-61585883D01*
X68615909Y-61433538D01*
X68678637Y-61316183D01*
X68708811Y-61259731D01*
X68708811Y-61259730D01*
X68708813Y-61259727D01*
X68750900Y-61120984D01*
X68789196Y-61062549D01*
X68853008Y-61034093D01*
X68922075Y-61044653D01*
X68974468Y-61090877D01*
X68989334Y-61124889D01*
X69046567Y-61338485D01*
X69046570Y-61338492D01*
X69146399Y-61552578D01*
X69281894Y-61746082D01*
X69448918Y-61913106D01*
X69450086Y-61913924D01*
X69450481Y-61914418D01*
X69453067Y-61916588D01*
X69452630Y-61917107D01*
X69493711Y-61968500D01*
X69500906Y-62037998D01*
X69469385Y-62100353D01*
X69409156Y-62135768D01*
X69378964Y-62139500D01*
X69080851Y-62139500D01*
X68989152Y-62139500D01*
X68989151Y-62139500D01*
X68989147Y-62139501D01*
X68964340Y-62149777D01*
X68964338Y-62149778D01*
X68904439Y-62174588D01*
X68904431Y-62174593D01*
X68860842Y-62218183D01*
X68799519Y-62251668D01*
X68773161Y-62254502D01*
X68635226Y-62254502D01*
X68510935Y-62290996D01*
X68510932Y-62290997D01*
X68510931Y-62290998D01*
X68459677Y-62323936D01*
X68401950Y-62361035D01*
X68317118Y-62458939D01*
X68317117Y-62458940D01*
X68263302Y-62576776D01*
X68244867Y-62705002D01*
X68263302Y-62833227D01*
X68314833Y-62946061D01*
X68317118Y-62951065D01*
X68401951Y-63048969D01*
X68510931Y-63119006D01*
X68635225Y-63155501D01*
X68635227Y-63155502D01*
X68635228Y-63155502D01*
X68764773Y-63155502D01*
X68764773Y-63155501D01*
X68889069Y-63119006D01*
X68998049Y-63048969D01*
X69082882Y-62951065D01*
X69136697Y-62833228D01*
X69154867Y-62706853D01*
X69157997Y-62700000D01*
X80344867Y-62700000D01*
X80363302Y-62828225D01*
X80365587Y-62833228D01*
X80417118Y-62946063D01*
X80501951Y-63043967D01*
X80610931Y-63114004D01*
X80735225Y-63150499D01*
X80735227Y-63150500D01*
X80735228Y-63150500D01*
X80864773Y-63150500D01*
X80864773Y-63150499D01*
X80989069Y-63114004D01*
X81098049Y-63043967D01*
X81120291Y-63018298D01*
X81179069Y-62980523D01*
X81214005Y-62975500D01*
X82034523Y-62975500D01*
X82101562Y-62995185D01*
X82122204Y-63011819D01*
X82688181Y-63577796D01*
X82721666Y-63639119D01*
X82724500Y-63665477D01*
X82724500Y-67033759D01*
X82704815Y-67100798D01*
X82694214Y-67114961D01*
X82617118Y-67203936D01*
X82617117Y-67203937D01*
X82563302Y-67321773D01*
X82544867Y-67449999D01*
X82563302Y-67578224D01*
X82617117Y-67696060D01*
X82617118Y-67696062D01*
X82701951Y-67793966D01*
X82810931Y-67864003D01*
X82935225Y-67900498D01*
X82935227Y-67900499D01*
X82935228Y-67900499D01*
X83064773Y-67900499D01*
X83064773Y-67900498D01*
X83189069Y-67864003D01*
X83298049Y-67793966D01*
X83382882Y-67696062D01*
X83436697Y-67578225D01*
X83455133Y-67449999D01*
X83436697Y-67321773D01*
X83382882Y-67203936D01*
X83305786Y-67114961D01*
X83276762Y-67051405D01*
X83275500Y-67033759D01*
X83275500Y-65800000D01*
X84844867Y-65800000D01*
X84863302Y-65928225D01*
X84876357Y-65956811D01*
X84917118Y-66046063D01*
X85001951Y-66143967D01*
X85110931Y-66214004D01*
X85189036Y-66236937D01*
X85235225Y-66250499D01*
X85235227Y-66250500D01*
X85373162Y-66250500D01*
X85440201Y-66270185D01*
X85460843Y-66286819D01*
X87576842Y-68402818D01*
X87610327Y-68464141D01*
X87605343Y-68533833D01*
X87563471Y-68589766D01*
X87498007Y-68614183D01*
X87489161Y-68614499D01*
X87372267Y-68614499D01*
X87246243Y-68648266D01*
X87133257Y-68713500D01*
X87133254Y-68713502D01*
X87041004Y-68805752D01*
X87041002Y-68805755D01*
X86975768Y-68918741D01*
X86942001Y-69044765D01*
X86942001Y-69175232D01*
X86975768Y-69301256D01*
X87000427Y-69343966D01*
X87041002Y-69414243D01*
X87133257Y-69506498D01*
X87246245Y-69571732D01*
X87372267Y-69605499D01*
X87372269Y-69605499D01*
X87502733Y-69605499D01*
X87502735Y-69605499D01*
X87628757Y-69571732D01*
X87741745Y-69506498D01*
X87834000Y-69414243D01*
X87899234Y-69301255D01*
X87933001Y-69175233D01*
X87933001Y-69058339D01*
X87952686Y-68991300D01*
X88005490Y-68945545D01*
X88074648Y-68935601D01*
X88138204Y-68964626D01*
X88144682Y-68970658D01*
X90533181Y-71359157D01*
X90566666Y-71420480D01*
X90569500Y-71446838D01*
X90569500Y-82044912D01*
X90549815Y-82111951D01*
X90512542Y-82149226D01*
X90501951Y-82156032D01*
X90417118Y-82253937D01*
X90417117Y-82253938D01*
X90363302Y-82371774D01*
X90344867Y-82500000D01*
X90363302Y-82628225D01*
X90417117Y-82746061D01*
X90417118Y-82746063D01*
X90501951Y-82843967D01*
X90610931Y-82914004D01*
X90735225Y-82950499D01*
X90735227Y-82950500D01*
X90735228Y-82950500D01*
X90864773Y-82950500D01*
X90864773Y-82950499D01*
X90989069Y-82914004D01*
X91098049Y-82843967D01*
X91182882Y-82746063D01*
X91236697Y-82628226D01*
X91255133Y-82500000D01*
X91236697Y-82371774D01*
X91182882Y-82253937D01*
X91098049Y-82156033D01*
X91098048Y-82156032D01*
X91087458Y-82149226D01*
X91041704Y-82096421D01*
X91030500Y-82044912D01*
X91030500Y-71360292D01*
X91030501Y-71360283D01*
X91030501Y-71254152D01*
X91030501Y-71254151D01*
X90995409Y-71169432D01*
X85782786Y-65956810D01*
X85749302Y-65895488D01*
X85747730Y-65851486D01*
X85755133Y-65800000D01*
X85736697Y-65671774D01*
X85682882Y-65553937D01*
X85598049Y-65456033D01*
X85489069Y-65385996D01*
X85489065Y-65385994D01*
X85489064Y-65385994D01*
X85364774Y-65349500D01*
X85364772Y-65349500D01*
X85235228Y-65349500D01*
X85235226Y-65349500D01*
X85110935Y-65385994D01*
X85110932Y-65385995D01*
X85110931Y-65385996D01*
X85059677Y-65418934D01*
X85001950Y-65456033D01*
X84917118Y-65553937D01*
X84917117Y-65553938D01*
X84863302Y-65671774D01*
X84844867Y-65800000D01*
X83275500Y-65800000D01*
X83275500Y-63445201D01*
X83275500Y-63445200D01*
X83233557Y-63343942D01*
X83156058Y-63266443D01*
X82356058Y-62466443D01*
X82325866Y-62453937D01*
X82254800Y-62424500D01*
X81214005Y-62424500D01*
X81146966Y-62404815D01*
X81120291Y-62381702D01*
X81098049Y-62356033D01*
X81054780Y-62328226D01*
X80989069Y-62285996D01*
X80989065Y-62285994D01*
X80989064Y-62285994D01*
X80864774Y-62249500D01*
X80864772Y-62249500D01*
X80735228Y-62249500D01*
X80735226Y-62249500D01*
X80610935Y-62285994D01*
X80610932Y-62285995D01*
X80610931Y-62285996D01*
X80603148Y-62290998D01*
X80501950Y-62356033D01*
X80417118Y-62453937D01*
X80363302Y-62571774D01*
X80344867Y-62700000D01*
X69157997Y-62700000D01*
X69183892Y-62643297D01*
X69242670Y-62605523D01*
X69277605Y-62600500D01*
X72469708Y-62600500D01*
X72469716Y-62600501D01*
X72484150Y-62600501D01*
X72575849Y-62600501D01*
X72575850Y-62600501D01*
X72633125Y-62576776D01*
X72660568Y-62565409D01*
X72725409Y-62500568D01*
X72725409Y-62500567D01*
X72742847Y-62483129D01*
X72742849Y-62483126D01*
X76725975Y-58500000D01*
X82044867Y-58500000D01*
X82063302Y-58628225D01*
X82111605Y-58733991D01*
X82117118Y-58746063D01*
X82201951Y-58843967D01*
X82310931Y-58914004D01*
X82435225Y-58950499D01*
X82435227Y-58950500D01*
X82573162Y-58950500D01*
X82640201Y-58970185D01*
X82660843Y-58986819D01*
X84297520Y-60623496D01*
X84297523Y-60623500D01*
X84304591Y-60630568D01*
X84369432Y-60695409D01*
X84426246Y-60718941D01*
X84426248Y-60718943D01*
X84454145Y-60730498D01*
X84454150Y-60730500D01*
X84454151Y-60730500D01*
X86547003Y-60730500D01*
X86614042Y-60750185D01*
X86640716Y-60773297D01*
X86701951Y-60843967D01*
X86810931Y-60914004D01*
X86902281Y-60940826D01*
X86935225Y-60950499D01*
X86935227Y-60950500D01*
X86935228Y-60950500D01*
X87064773Y-60950500D01*
X87064773Y-60950499D01*
X87189069Y-60914004D01*
X87298049Y-60843967D01*
X87382882Y-60746063D01*
X87436697Y-60628226D01*
X87455133Y-60500000D01*
X87436697Y-60371774D01*
X87382882Y-60253937D01*
X87298049Y-60156033D01*
X87189069Y-60085996D01*
X87189065Y-60085994D01*
X87189064Y-60085994D01*
X87064774Y-60049500D01*
X87064772Y-60049500D01*
X86935228Y-60049500D01*
X86935226Y-60049500D01*
X86810935Y-60085994D01*
X86810932Y-60085995D01*
X86810931Y-60085996D01*
X86759677Y-60118934D01*
X86701950Y-60156033D01*
X86640717Y-60226702D01*
X86581939Y-60264477D01*
X86547003Y-60269500D01*
X84646838Y-60269500D01*
X84579799Y-60249815D01*
X84559157Y-60233181D01*
X82982787Y-58656811D01*
X82949302Y-58595488D01*
X82947730Y-58551486D01*
X82955133Y-58500000D01*
X82936697Y-58371774D01*
X82882882Y-58253937D01*
X82798049Y-58156033D01*
X82689069Y-58085996D01*
X82689065Y-58085994D01*
X82689064Y-58085994D01*
X82564774Y-58049500D01*
X82564772Y-58049500D01*
X82435228Y-58049500D01*
X82435226Y-58049500D01*
X82310935Y-58085994D01*
X82310932Y-58085995D01*
X82310931Y-58085996D01*
X82269035Y-58112921D01*
X82201950Y-58156033D01*
X82117118Y-58253937D01*
X82117117Y-58253938D01*
X82063302Y-58371774D01*
X82044867Y-58500000D01*
X76725975Y-58500000D01*
X76739156Y-58486819D01*
X76800479Y-58453334D01*
X76826837Y-58450500D01*
X76964773Y-58450500D01*
X76964773Y-58450499D01*
X77089069Y-58414004D01*
X77198049Y-58343967D01*
X77282882Y-58246063D01*
X77336697Y-58128226D01*
X77355133Y-58000000D01*
X77336697Y-57871774D01*
X77282882Y-57753937D01*
X77198049Y-57656033D01*
X77089069Y-57585996D01*
X77089065Y-57585994D01*
X77089064Y-57585994D01*
X76964774Y-57549500D01*
X76964772Y-57549500D01*
X76835228Y-57549500D01*
X76835226Y-57549500D01*
X76710935Y-57585994D01*
X76710932Y-57585995D01*
X76710931Y-57585996D01*
X76679140Y-57606427D01*
X76601950Y-57656033D01*
X76517118Y-57753937D01*
X76517117Y-57753938D01*
X76463302Y-57871774D01*
X76444867Y-57999999D01*
X76452269Y-58051482D01*
X76442325Y-58120641D01*
X76417212Y-58156810D01*
X72470843Y-62103181D01*
X72409520Y-62136666D01*
X72383162Y-62139500D01*
X71261036Y-62139500D01*
X71193997Y-62119815D01*
X71148242Y-62067011D01*
X71138298Y-61997853D01*
X71167323Y-61934297D01*
X71186944Y-61916601D01*
X71186933Y-61916588D01*
X71187320Y-61916262D01*
X71189914Y-61913924D01*
X71191081Y-61913106D01*
X71358105Y-61746082D01*
X71493600Y-61552578D01*
X71593429Y-61338492D01*
X71593432Y-61338486D01*
X71650636Y-61125000D01*
X70753012Y-61125000D01*
X70785925Y-61067993D01*
X70820000Y-60940826D01*
X70820000Y-60809174D01*
X70785925Y-60682007D01*
X70753012Y-60625000D01*
X71650636Y-60625000D01*
X71650635Y-60624999D01*
X71593432Y-60411513D01*
X71593429Y-60411507D01*
X71493600Y-60197422D01*
X71493599Y-60197420D01*
X71358113Y-60003926D01*
X71358108Y-60003920D01*
X71191082Y-59836894D01*
X70997578Y-59701399D01*
X70783492Y-59601570D01*
X70783486Y-59601567D01*
X70570000Y-59544364D01*
X70570000Y-60441988D01*
X70512993Y-60409075D01*
X70385826Y-60375000D01*
X70254174Y-60375000D01*
X70127007Y-60409075D01*
X70070000Y-60441988D01*
X70070000Y-59544364D01*
X70069999Y-59544364D01*
X69856513Y-59601567D01*
X69856507Y-59601570D01*
X69642422Y-59701399D01*
X69642420Y-59701400D01*
X69448926Y-59836886D01*
X69448920Y-59836891D01*
X69281891Y-60003920D01*
X69281886Y-60003926D01*
X69146400Y-60197420D01*
X69146399Y-60197422D01*
X69046570Y-60411507D01*
X69046567Y-60411514D01*
X68989334Y-60625110D01*
X68952969Y-60684770D01*
X68890122Y-60715299D01*
X68820746Y-60707004D01*
X68766868Y-60662519D01*
X68750900Y-60629016D01*
X68708813Y-60490273D01*
X68708811Y-60490270D01*
X68708811Y-60490268D01*
X68615912Y-60316467D01*
X68615908Y-60316460D01*
X68490882Y-60164116D01*
X68338538Y-60039090D01*
X68338531Y-60039086D01*
X68164732Y-59946188D01*
X68164726Y-59946186D01*
X67976131Y-59888976D01*
X67976128Y-59888975D01*
X67779999Y-59869659D01*
X67583869Y-59888975D01*
X67395265Y-59946188D01*
X67221466Y-60039086D01*
X67221459Y-60039090D01*
X67069115Y-60164116D01*
X66944089Y-60316460D01*
X66944085Y-60316467D01*
X66851187Y-60490266D01*
X66793974Y-60678870D01*
X66774658Y-60875000D01*
X66245341Y-60875000D01*
X66226024Y-60678868D01*
X66168814Y-60490273D01*
X66168811Y-60490269D01*
X66168811Y-60490266D01*
X66075913Y-60316467D01*
X66075909Y-60316460D01*
X65950883Y-60164116D01*
X65798539Y-60039090D01*
X65798532Y-60039086D01*
X65624733Y-59946188D01*
X65624727Y-59946186D01*
X65436132Y-59888976D01*
X65436129Y-59888975D01*
X65240000Y-59869659D01*
X65043870Y-59888975D01*
X64855266Y-59946188D01*
X64681467Y-60039086D01*
X64681460Y-60039090D01*
X64529116Y-60164116D01*
X64404090Y-60316460D01*
X64404086Y-60316467D01*
X64311188Y-60490266D01*
X64253975Y-60678870D01*
X64234659Y-60875000D01*
X63700500Y-60875000D01*
X63700500Y-60010177D01*
X63691768Y-59966282D01*
X63691767Y-59966281D01*
X63691767Y-59966278D01*
X63658504Y-59916496D01*
X63658503Y-59916495D01*
X63608724Y-59883234D01*
X63608717Y-59883231D01*
X63564822Y-59874500D01*
X63564820Y-59874500D01*
X62170838Y-59874500D01*
X62103799Y-59854815D01*
X62058044Y-59802011D01*
X62048100Y-59732853D01*
X62077125Y-59669297D01*
X62083157Y-59662819D01*
X63795477Y-57950500D01*
X65679158Y-56066819D01*
X65740481Y-56033334D01*
X65766839Y-56030500D01*
X73047003Y-56030500D01*
X73114042Y-56050185D01*
X73140717Y-56073298D01*
X73188311Y-56128226D01*
X73201951Y-56143967D01*
X73310931Y-56214004D01*
X73435225Y-56250499D01*
X73435227Y-56250500D01*
X73435228Y-56250500D01*
X73564773Y-56250500D01*
X73564773Y-56250499D01*
X73689069Y-56214004D01*
X73798049Y-56143967D01*
X73882882Y-56046063D01*
X73936697Y-55928226D01*
X73955133Y-55800000D01*
X73936697Y-55671774D01*
X73882882Y-55553937D01*
X73798049Y-55456033D01*
X73689069Y-55385996D01*
X73689065Y-55385994D01*
X73689064Y-55385994D01*
X73564774Y-55349500D01*
X73564772Y-55349500D01*
X73435228Y-55349500D01*
X73435226Y-55349500D01*
X73310935Y-55385994D01*
X73310932Y-55385995D01*
X73310931Y-55385996D01*
X73267350Y-55414004D01*
X73201950Y-55456033D01*
X73140717Y-55526702D01*
X73081939Y-55564477D01*
X73047003Y-55569500D01*
X65680292Y-55569500D01*
X65680284Y-55569499D01*
X65665850Y-55569499D01*
X65574151Y-55569499D01*
X65574150Y-55569499D01*
X65489430Y-55604592D01*
X60360843Y-60733181D01*
X60299520Y-60766666D01*
X60273162Y-60769500D01*
X53362156Y-60769500D01*
X53295117Y-60749815D01*
X53249362Y-60697011D01*
X53244225Y-60683817D01*
X53225705Y-60626817D01*
X53225703Y-60626813D01*
X53225702Y-60626809D01*
X53137998Y-60474901D01*
X53129795Y-60460693D01*
X53129790Y-60460686D01*
X53001445Y-60318145D01*
X52999135Y-60316467D01*
X52994051Y-60312773D01*
X52951385Y-60257444D01*
X52945405Y-60187831D01*
X52978011Y-60126036D01*
X53014537Y-60100070D01*
X53020915Y-60097095D01*
X53020917Y-60097094D01*
X53085688Y-60051741D01*
X52414948Y-59381000D01*
X52437660Y-59381000D01*
X52534561Y-59355036D01*
X52621440Y-59304876D01*
X52692376Y-59233940D01*
X52742536Y-59147061D01*
X52768500Y-59050160D01*
X52768500Y-59027447D01*
X53439241Y-59698188D01*
X53484594Y-59633417D01*
X53484600Y-59633407D01*
X53577919Y-59433284D01*
X53577924Y-59433270D01*
X53635073Y-59219986D01*
X53635075Y-59219976D01*
X53654321Y-59000000D01*
X53654321Y-58999999D01*
X53635075Y-58780023D01*
X53635073Y-58780013D01*
X53577924Y-58566729D01*
X53577920Y-58566720D01*
X53484596Y-58366586D01*
X53439241Y-58301811D01*
X53439240Y-58301810D01*
X52768500Y-58972551D01*
X52768500Y-58949840D01*
X52742536Y-58852939D01*
X52692376Y-58766060D01*
X52621440Y-58695124D01*
X52534561Y-58644964D01*
X52437660Y-58619000D01*
X52414947Y-58619000D01*
X53033946Y-58000000D01*
X56444706Y-58000000D01*
X56463853Y-58243297D01*
X56463853Y-58243300D01*
X56463854Y-58243302D01*
X56513598Y-58450499D01*
X56520830Y-58480619D01*
X56614222Y-58706089D01*
X56741737Y-58914173D01*
X56741738Y-58914176D01*
X56741741Y-58914179D01*
X56900241Y-59099759D01*
X57040997Y-59219976D01*
X57085823Y-59258261D01*
X57085826Y-59258262D01*
X57293910Y-59385777D01*
X57519381Y-59479169D01*
X57519378Y-59479169D01*
X57519384Y-59479170D01*
X57519388Y-59479172D01*
X57756698Y-59536146D01*
X58000000Y-59555294D01*
X58243302Y-59536146D01*
X58480612Y-59479172D01*
X58706089Y-59385777D01*
X58914179Y-59258259D01*
X59099759Y-59099759D01*
X59258259Y-58914179D01*
X59385777Y-58706089D01*
X59479172Y-58480612D01*
X59536146Y-58243302D01*
X59555294Y-58000000D01*
X59536146Y-57756698D01*
X59479172Y-57519388D01*
X59479169Y-57519380D01*
X59385777Y-57293910D01*
X59258262Y-57085826D01*
X59258261Y-57085823D01*
X59206074Y-57024720D01*
X59099759Y-56900241D01*
X58928459Y-56753937D01*
X58914176Y-56741738D01*
X58914173Y-56741737D01*
X58706089Y-56614222D01*
X58480618Y-56520830D01*
X58480621Y-56520830D01*
X58305264Y-56478730D01*
X58243302Y-56463854D01*
X58243300Y-56463853D01*
X58243297Y-56463853D01*
X58000000Y-56444706D01*
X57756702Y-56463853D01*
X57519380Y-56520830D01*
X57293910Y-56614222D01*
X57085826Y-56741737D01*
X57085823Y-56741738D01*
X56900241Y-56900241D01*
X56741738Y-57085823D01*
X56741737Y-57085826D01*
X56614222Y-57293910D01*
X56520830Y-57519380D01*
X56463853Y-57756702D01*
X56444706Y-58000000D01*
X53033946Y-58000000D01*
X53085688Y-57948258D01*
X53020911Y-57902901D01*
X53020905Y-57902898D01*
X52820784Y-57809580D01*
X52820770Y-57809575D01*
X52607486Y-57752426D01*
X52607476Y-57752424D01*
X52387501Y-57733179D01*
X52387499Y-57733179D01*
X52167523Y-57752424D01*
X52167513Y-57752426D01*
X51954229Y-57809575D01*
X51954220Y-57809579D01*
X51754090Y-57902901D01*
X51689311Y-57948258D01*
X52360054Y-58619000D01*
X52337340Y-58619000D01*
X52240439Y-58644964D01*
X52153560Y-58695124D01*
X52082624Y-58766060D01*
X52032464Y-58852939D01*
X52006500Y-58949840D01*
X52006500Y-58972553D01*
X51335757Y-58301810D01*
X51328464Y-58302449D01*
X51289438Y-58333644D01*
X51219940Y-58340838D01*
X51201485Y-58335938D01*
X51051074Y-58283307D01*
X50887504Y-58264878D01*
X50887496Y-58264878D01*
X50723925Y-58283307D01*
X50568546Y-58337676D01*
X50568544Y-58337677D01*
X50558534Y-58343967D01*
X50447069Y-58414005D01*
X50423263Y-58428963D01*
X50422099Y-58427111D01*
X50367106Y-58449552D01*
X50298413Y-58436784D01*
X50247527Y-58388905D01*
X50230500Y-58326194D01*
X50230500Y-54800000D01*
X51544867Y-54800000D01*
X51563302Y-54928225D01*
X51585651Y-54977161D01*
X51617118Y-55046063D01*
X51701951Y-55143967D01*
X51810931Y-55214004D01*
X51920117Y-55246063D01*
X51935225Y-55250499D01*
X51935227Y-55250500D01*
X51935228Y-55250500D01*
X52064773Y-55250500D01*
X52064773Y-55250499D01*
X52189069Y-55214004D01*
X52298049Y-55143967D01*
X52382882Y-55046063D01*
X52436697Y-54928226D01*
X52447872Y-54850500D01*
X52454148Y-54806853D01*
X52483173Y-54743297D01*
X52541951Y-54705523D01*
X52576886Y-54700500D01*
X54494242Y-54700500D01*
X54561281Y-54720185D01*
X54607036Y-54772989D01*
X54616980Y-54842147D01*
X54607036Y-54876011D01*
X54563303Y-54971772D01*
X54563302Y-54971773D01*
X54544867Y-55100000D01*
X54563302Y-55228226D01*
X54563303Y-55228227D01*
X54616102Y-55343841D01*
X54626046Y-55412999D01*
X54597021Y-55476555D01*
X54590989Y-55483033D01*
X53560842Y-56513181D01*
X53499519Y-56546666D01*
X53473161Y-56549500D01*
X53335226Y-56549500D01*
X53210935Y-56585994D01*
X53210932Y-56585995D01*
X53210931Y-56585996D01*
X53167010Y-56614222D01*
X53101950Y-56656033D01*
X53017118Y-56753937D01*
X53017117Y-56753938D01*
X52963302Y-56871774D01*
X52944867Y-57000000D01*
X52963302Y-57128225D01*
X52984608Y-57174877D01*
X53017118Y-57246063D01*
X53101951Y-57343967D01*
X53210931Y-57414004D01*
X53308721Y-57442717D01*
X53335225Y-57450499D01*
X53335227Y-57450500D01*
X53335228Y-57450500D01*
X53464773Y-57450500D01*
X53464773Y-57450499D01*
X53589069Y-57414004D01*
X53698049Y-57343967D01*
X53782882Y-57246063D01*
X53836697Y-57128226D01*
X53855133Y-57000000D01*
X53847730Y-56948513D01*
X53857673Y-56879357D01*
X53882784Y-56843190D01*
X55130566Y-55595409D01*
X55130568Y-55595409D01*
X55195409Y-55530568D01*
X55195410Y-55530564D01*
X55202193Y-55520414D01*
X55205075Y-55522339D01*
X55236026Y-55483920D01*
X55239672Y-55481482D01*
X55298049Y-55443967D01*
X55382882Y-55346063D01*
X55436697Y-55228226D01*
X55439394Y-55209465D01*
X55468416Y-55145909D01*
X55527193Y-55108133D01*
X55597063Y-55108131D01*
X55649813Y-55139428D01*
X56009212Y-55498827D01*
X56042697Y-55560150D01*
X56043807Y-55591133D01*
X56044867Y-55591133D01*
X56044867Y-55599999D01*
X56063302Y-55728225D01*
X56108054Y-55826216D01*
X56117118Y-55846063D01*
X56201951Y-55943967D01*
X56310931Y-56014004D01*
X56435225Y-56050499D01*
X56435227Y-56050500D01*
X56435228Y-56050500D01*
X56564773Y-56050500D01*
X56564773Y-56050499D01*
X56689069Y-56014004D01*
X56798049Y-55943967D01*
X56882882Y-55846063D01*
X56936697Y-55728226D01*
X56955133Y-55600000D01*
X56936697Y-55471774D01*
X56882882Y-55353937D01*
X56798049Y-55256033D01*
X56689069Y-55185996D01*
X56689065Y-55185994D01*
X56689064Y-55185994D01*
X56564774Y-55149500D01*
X56564772Y-55149500D01*
X56490477Y-55149500D01*
X56423438Y-55129815D01*
X56402796Y-55113181D01*
X55481058Y-54191443D01*
X55481056Y-54191442D01*
X55479542Y-54190815D01*
X55479528Y-54190803D01*
X55479526Y-54190808D01*
X55379800Y-54149500D01*
X52320200Y-54149500D01*
X52320198Y-54149500D01*
X52248599Y-54179158D01*
X52218941Y-54191442D01*
X52185860Y-54224524D01*
X52097201Y-54313182D01*
X52035881Y-54346666D01*
X52009522Y-54349500D01*
X51935226Y-54349500D01*
X51810935Y-54385994D01*
X51810932Y-54385995D01*
X51810931Y-54385996D01*
X51785870Y-54402102D01*
X51701950Y-54456033D01*
X51617118Y-54553937D01*
X51617117Y-54553938D01*
X51563302Y-54671774D01*
X51544867Y-54800000D01*
X50230500Y-54800000D01*
X50230500Y-53750000D01*
X63294867Y-53750000D01*
X63313302Y-53878225D01*
X63367117Y-53996061D01*
X63367118Y-53996063D01*
X63451951Y-54093967D01*
X63560931Y-54164004D01*
X63685225Y-54200499D01*
X63685227Y-54200500D01*
X63685228Y-54200500D01*
X63814773Y-54200500D01*
X63814773Y-54200499D01*
X63939069Y-54164004D01*
X64048049Y-54093967D01*
X64057284Y-54083308D01*
X64116058Y-54045532D01*
X64185928Y-54045528D01*
X64244708Y-54083299D01*
X64273737Y-54146852D01*
X64275000Y-54164506D01*
X64275000Y-54331582D01*
X64281408Y-54402102D01*
X64281409Y-54402107D01*
X64331981Y-54564396D01*
X64419927Y-54709877D01*
X64540122Y-54830072D01*
X64685604Y-54918019D01*
X64685603Y-54918019D01*
X64847894Y-54968590D01*
X64847893Y-54968590D01*
X64918408Y-54974998D01*
X64918426Y-54974999D01*
X64924999Y-54974998D01*
X64925000Y-54974998D01*
X64925000Y-53025000D01*
X65425000Y-53025000D01*
X65425000Y-54974999D01*
X65431581Y-54974999D01*
X65502102Y-54968591D01*
X65502107Y-54968590D01*
X65664396Y-54918018D01*
X65809877Y-54830072D01*
X65930072Y-54709877D01*
X66018019Y-54564396D01*
X66064710Y-54414559D01*
X66103447Y-54356411D01*
X66167472Y-54328437D01*
X66236458Y-54339519D01*
X66288501Y-54386137D01*
X66294493Y-54396984D01*
X66323360Y-54456033D01*
X66335803Y-54481485D01*
X66418514Y-54564196D01*
X66418515Y-54564196D01*
X66418517Y-54564198D01*
X66523607Y-54615573D01*
X66551514Y-54619639D01*
X66591739Y-54625500D01*
X66591740Y-54625500D01*
X67058261Y-54625500D01*
X67082858Y-54621916D01*
X67126393Y-54615573D01*
X67231483Y-54564198D01*
X67314198Y-54481483D01*
X67365573Y-54376393D01*
X67375500Y-54308260D01*
X67375500Y-53691740D01*
X67365573Y-53623607D01*
X67314198Y-53518517D01*
X67314196Y-53518515D01*
X67314196Y-53518514D01*
X67231485Y-53435803D01*
X67231078Y-53435604D01*
X67158267Y-53400009D01*
X67106686Y-53352882D01*
X67088771Y-53285348D01*
X67110212Y-53218849D01*
X67125042Y-53200933D01*
X67613126Y-52712848D01*
X67613129Y-52712847D01*
X67630567Y-52695409D01*
X67630568Y-52695409D01*
X67689158Y-52636819D01*
X67750481Y-52603334D01*
X67776839Y-52600500D01*
X67810630Y-52600500D01*
X67810636Y-52600500D01*
X67883625Y-52589866D01*
X67980782Y-52542369D01*
X67996210Y-52534827D01*
X68084827Y-52446210D01*
X68138600Y-52336216D01*
X68185727Y-52284633D01*
X68253261Y-52266719D01*
X68319760Y-52288160D01*
X68361400Y-52336216D01*
X68415172Y-52446210D01*
X68503789Y-52534827D01*
X68616370Y-52589864D01*
X68616371Y-52589864D01*
X68616375Y-52589866D01*
X68663379Y-52596714D01*
X68726878Y-52625857D01*
X68764542Y-52684706D01*
X68769500Y-52719418D01*
X68769500Y-52853161D01*
X68749815Y-52920200D01*
X68733181Y-52940842D01*
X68551357Y-53122666D01*
X68369433Y-53304590D01*
X68369432Y-53304591D01*
X68351444Y-53322579D01*
X68304590Y-53369432D01*
X68290053Y-53404526D01*
X68269500Y-53454146D01*
X68269499Y-53454151D01*
X68269499Y-53544913D01*
X68249814Y-53611952D01*
X68212540Y-53649228D01*
X68201950Y-53656033D01*
X68117118Y-53753937D01*
X68117117Y-53753938D01*
X68063302Y-53871774D01*
X68044867Y-54000000D01*
X68063302Y-54128225D01*
X68096309Y-54200499D01*
X68117118Y-54246063D01*
X68156179Y-54291142D01*
X68191219Y-54331582D01*
X68201951Y-54343967D01*
X68310931Y-54414004D01*
X68435225Y-54450499D01*
X68435227Y-54450500D01*
X68435228Y-54450500D01*
X68564771Y-54450500D01*
X68564772Y-54450500D01*
X68660035Y-54422529D01*
X68729901Y-54422529D01*
X68788680Y-54460303D01*
X68813352Y-54504615D01*
X68831981Y-54564396D01*
X68919927Y-54709877D01*
X69040122Y-54830072D01*
X69185604Y-54918019D01*
X69185603Y-54918019D01*
X69347894Y-54968590D01*
X69347893Y-54968590D01*
X69418408Y-54974998D01*
X69418426Y-54974999D01*
X69424999Y-54974998D01*
X69425000Y-54974998D01*
X69425000Y-53025000D01*
X69925000Y-53025000D01*
X69925000Y-54974999D01*
X69931581Y-54974999D01*
X70002102Y-54968591D01*
X70002107Y-54968590D01*
X70164396Y-54918018D01*
X70309877Y-54830072D01*
X70430072Y-54709877D01*
X70518019Y-54564396D01*
X70564710Y-54414559D01*
X70603447Y-54356411D01*
X70667472Y-54328437D01*
X70736458Y-54339519D01*
X70788501Y-54386137D01*
X70794493Y-54396984D01*
X70823360Y-54456033D01*
X70835803Y-54481485D01*
X70918514Y-54564196D01*
X70918515Y-54564196D01*
X70918517Y-54564198D01*
X71023607Y-54615573D01*
X71051514Y-54619639D01*
X71091739Y-54625500D01*
X71091740Y-54625500D01*
X71558261Y-54625500D01*
X71582858Y-54621916D01*
X71626393Y-54615573D01*
X71731483Y-54564198D01*
X71814198Y-54481483D01*
X71865573Y-54376393D01*
X71875500Y-54308260D01*
X71875500Y-53691740D01*
X71865573Y-53623607D01*
X71814198Y-53518517D01*
X71814196Y-53518515D01*
X71814196Y-53518514D01*
X71731485Y-53435803D01*
X71731078Y-53435604D01*
X71658267Y-53400009D01*
X71606686Y-53352882D01*
X71588771Y-53285348D01*
X71610212Y-53218849D01*
X71625042Y-53200933D01*
X72113126Y-52712848D01*
X72113129Y-52712847D01*
X72130567Y-52695409D01*
X72130568Y-52695409D01*
X72189158Y-52636819D01*
X72250481Y-52603334D01*
X72276839Y-52600500D01*
X72310630Y-52600500D01*
X72310636Y-52600500D01*
X72383625Y-52589866D01*
X72480782Y-52542369D01*
X72496210Y-52534827D01*
X72584827Y-52446210D01*
X72638600Y-52336216D01*
X72685727Y-52284633D01*
X72753261Y-52266719D01*
X72819760Y-52288160D01*
X72861400Y-52336216D01*
X72915172Y-52446210D01*
X73003789Y-52534827D01*
X73116370Y-52589864D01*
X73116371Y-52589864D01*
X73116375Y-52589866D01*
X73163379Y-52596714D01*
X73226878Y-52625857D01*
X73264542Y-52684706D01*
X73269500Y-52719418D01*
X73269500Y-53103161D01*
X73249815Y-53170200D01*
X73233181Y-53190842D01*
X72910842Y-53513181D01*
X72849519Y-53546666D01*
X72823161Y-53549500D01*
X72685226Y-53549500D01*
X72560935Y-53585994D01*
X72560932Y-53585995D01*
X72560931Y-53585996D01*
X72546180Y-53595476D01*
X72451950Y-53656033D01*
X72367118Y-53753937D01*
X72367117Y-53753938D01*
X72313302Y-53871774D01*
X72294867Y-54000000D01*
X72313302Y-54128225D01*
X72346309Y-54200499D01*
X72367118Y-54246063D01*
X72406179Y-54291142D01*
X72441219Y-54331582D01*
X72451951Y-54343967D01*
X72560931Y-54414004D01*
X72685225Y-54450499D01*
X72685227Y-54450500D01*
X72685228Y-54450500D01*
X72814773Y-54450500D01*
X72814773Y-54450499D01*
X72939069Y-54414004D01*
X73048049Y-54343967D01*
X73063644Y-54325968D01*
X73122419Y-54288194D01*
X73192289Y-54288192D01*
X73251068Y-54325964D01*
X73280095Y-54389519D01*
X73280849Y-54395949D01*
X73281408Y-54402102D01*
X73281409Y-54402107D01*
X73331981Y-54564396D01*
X73419927Y-54709877D01*
X73540122Y-54830072D01*
X73685604Y-54918019D01*
X73685603Y-54918019D01*
X73847894Y-54968590D01*
X73847893Y-54968590D01*
X73918408Y-54974998D01*
X73918426Y-54974999D01*
X73924999Y-54974998D01*
X73925000Y-54974998D01*
X73925000Y-53025000D01*
X74425000Y-53025000D01*
X74425000Y-54974999D01*
X74431581Y-54974999D01*
X74502102Y-54968591D01*
X74502107Y-54968590D01*
X74664396Y-54918018D01*
X74809877Y-54830072D01*
X74930072Y-54709877D01*
X75018019Y-54564396D01*
X75064710Y-54414559D01*
X75103447Y-54356411D01*
X75167472Y-54328437D01*
X75236458Y-54339519D01*
X75288501Y-54386137D01*
X75294493Y-54396984D01*
X75323360Y-54456033D01*
X75335803Y-54481485D01*
X75418514Y-54564196D01*
X75418515Y-54564196D01*
X75418517Y-54564198D01*
X75523607Y-54615573D01*
X75551514Y-54619639D01*
X75591739Y-54625500D01*
X75591740Y-54625500D01*
X76058261Y-54625500D01*
X76082858Y-54621916D01*
X76126393Y-54615573D01*
X76231483Y-54564198D01*
X76314198Y-54481483D01*
X76365573Y-54376393D01*
X76375500Y-54308260D01*
X76375500Y-53691740D01*
X76365573Y-53623607D01*
X76314198Y-53518517D01*
X76314196Y-53518515D01*
X76314196Y-53518514D01*
X76231485Y-53435803D01*
X76231078Y-53435604D01*
X76158267Y-53400009D01*
X76106686Y-53352882D01*
X76088771Y-53285348D01*
X76110212Y-53218849D01*
X76125042Y-53200933D01*
X76613126Y-52712848D01*
X76613129Y-52712847D01*
X76630567Y-52695409D01*
X76630568Y-52695409D01*
X76689158Y-52636819D01*
X76750481Y-52603334D01*
X76776839Y-52600500D01*
X76810630Y-52600500D01*
X76810636Y-52600500D01*
X76883625Y-52589866D01*
X76980782Y-52542369D01*
X76996210Y-52534827D01*
X77084827Y-52446210D01*
X77122088Y-52369991D01*
X77139866Y-52333625D01*
X77150500Y-52260636D01*
X77150500Y-51739364D01*
X77524500Y-51739364D01*
X77524500Y-52260636D01*
X77535134Y-52333625D01*
X77535134Y-52333626D01*
X77535135Y-52333628D01*
X77590172Y-52446210D01*
X77678789Y-52534827D01*
X77769735Y-52579287D01*
X77791375Y-52589866D01*
X77793377Y-52590157D01*
X77795560Y-52591159D01*
X77800575Y-52592709D01*
X77800371Y-52593367D01*
X77856877Y-52619301D01*
X77894542Y-52678149D01*
X77899500Y-52712862D01*
X77899500Y-56229800D01*
X77928765Y-56300450D01*
X77928764Y-56300450D01*
X77928765Y-56300451D01*
X77941440Y-56331052D01*
X77941441Y-56331054D01*
X77941443Y-56331058D01*
X77941445Y-56331060D01*
X79009212Y-57398827D01*
X79042697Y-57460150D01*
X79043807Y-57491133D01*
X79044867Y-57491133D01*
X79044867Y-57499999D01*
X79063302Y-57628225D01*
X79076002Y-57656033D01*
X79117118Y-57746063D01*
X79201951Y-57843967D01*
X79310931Y-57914004D01*
X79435225Y-57950499D01*
X79435227Y-57950500D01*
X79435228Y-57950500D01*
X79564773Y-57950500D01*
X79564773Y-57950499D01*
X79689069Y-57914004D01*
X79798049Y-57843967D01*
X79882882Y-57746063D01*
X79936697Y-57628226D01*
X79955133Y-57500000D01*
X79936697Y-57371774D01*
X79882882Y-57253937D01*
X79798049Y-57156033D01*
X79689069Y-57085996D01*
X79689065Y-57085994D01*
X79689064Y-57085994D01*
X79564774Y-57049500D01*
X79564772Y-57049500D01*
X79490477Y-57049500D01*
X79423438Y-57029815D01*
X79402796Y-57013181D01*
X78486819Y-56097204D01*
X78453334Y-56035881D01*
X78450500Y-56009523D01*
X78450500Y-54744654D01*
X78470185Y-54677615D01*
X78522989Y-54631860D01*
X78592144Y-54621916D01*
X78616740Y-54625500D01*
X78616742Y-54625500D01*
X79083262Y-54625500D01*
X79087731Y-54625176D01*
X79087880Y-54627242D01*
X79148645Y-54635827D01*
X79185090Y-54661066D01*
X80647520Y-56123496D01*
X80647523Y-56123500D01*
X80647524Y-56123500D01*
X80654590Y-56130566D01*
X80654591Y-56130568D01*
X80719432Y-56195409D01*
X80779337Y-56220221D01*
X80804150Y-56230500D01*
X80804151Y-56230500D01*
X81547003Y-56230500D01*
X81614042Y-56250185D01*
X81640716Y-56273297D01*
X81701951Y-56343967D01*
X81810931Y-56414004D01*
X81912423Y-56443804D01*
X81935225Y-56450499D01*
X81935227Y-56450500D01*
X81935228Y-56450500D01*
X82064773Y-56450500D01*
X82064773Y-56450499D01*
X82189069Y-56414004D01*
X82298049Y-56343967D01*
X82382882Y-56246063D01*
X82436697Y-56128226D01*
X82455133Y-56000000D01*
X82436697Y-55871774D01*
X82382882Y-55753937D01*
X82298049Y-55656033D01*
X82189069Y-55585996D01*
X82189065Y-55585994D01*
X82189064Y-55585994D01*
X82064774Y-55549500D01*
X82064772Y-55549500D01*
X81935228Y-55549500D01*
X81935226Y-55549500D01*
X81810935Y-55585994D01*
X81810932Y-55585995D01*
X81810931Y-55585996D01*
X81769144Y-55612851D01*
X81701950Y-55656033D01*
X81640717Y-55726702D01*
X81581939Y-55764477D01*
X81547003Y-55769500D01*
X80996838Y-55769500D01*
X80929799Y-55749815D01*
X80909157Y-55733181D01*
X79436819Y-54260843D01*
X79403334Y-54199520D01*
X79400500Y-54173162D01*
X79400500Y-53691739D01*
X79949500Y-53691739D01*
X79949500Y-54308260D01*
X79959426Y-54376391D01*
X80010803Y-54481485D01*
X80093514Y-54564196D01*
X80093515Y-54564196D01*
X80093517Y-54564198D01*
X80198607Y-54615573D01*
X80226514Y-54619639D01*
X80266739Y-54625500D01*
X80266740Y-54625500D01*
X80733261Y-54625500D01*
X80757858Y-54621916D01*
X80801393Y-54615573D01*
X80906483Y-54564198D01*
X80989198Y-54481483D01*
X81040573Y-54376393D01*
X81050500Y-54308260D01*
X81050500Y-53826837D01*
X81070185Y-53759798D01*
X81086815Y-53739160D01*
X81288126Y-53537848D01*
X81288129Y-53537847D01*
X81305567Y-53520409D01*
X81305568Y-53520409D01*
X81370409Y-53455568D01*
X81399876Y-53384427D01*
X81405500Y-53370850D01*
X81405500Y-53279151D01*
X81405500Y-52719418D01*
X81425185Y-52652379D01*
X81477989Y-52606624D01*
X81511617Y-52596714D01*
X81558625Y-52589866D01*
X81582357Y-52578264D01*
X81671210Y-52534827D01*
X81759827Y-52446210D01*
X81797088Y-52369991D01*
X81814866Y-52333625D01*
X81825500Y-52260636D01*
X81825500Y-51739364D01*
X81814866Y-51666375D01*
X81793699Y-51623077D01*
X81759827Y-51553789D01*
X81671210Y-51465172D01*
X81558628Y-51410135D01*
X81558626Y-51410134D01*
X81558625Y-51410134D01*
X81485636Y-51399500D01*
X80864364Y-51399500D01*
X80791375Y-51410134D01*
X80791373Y-51410134D01*
X80791371Y-51410135D01*
X80678789Y-51465172D01*
X80590172Y-51553789D01*
X80535135Y-51666371D01*
X80535134Y-51666373D01*
X80535134Y-51666375D01*
X80524500Y-51739364D01*
X80524500Y-52260636D01*
X80535134Y-52333625D01*
X80535134Y-52333626D01*
X80535135Y-52333628D01*
X80590172Y-52446210D01*
X80678789Y-52534827D01*
X80791370Y-52589864D01*
X80791371Y-52589864D01*
X80791375Y-52589866D01*
X80838379Y-52596714D01*
X80901878Y-52625857D01*
X80939542Y-52684706D01*
X80944500Y-52719418D01*
X80944500Y-53178160D01*
X80924815Y-53245199D01*
X80908181Y-53265842D01*
X80835088Y-53338934D01*
X80773764Y-53372418D01*
X80737809Y-53373683D01*
X80737727Y-53374824D01*
X80733260Y-53374500D01*
X80266740Y-53374500D01*
X80266739Y-53374500D01*
X80198608Y-53384426D01*
X80093514Y-53435803D01*
X80010803Y-53518514D01*
X79959426Y-53623608D01*
X79949500Y-53691739D01*
X79400500Y-53691739D01*
X79390573Y-53623608D01*
X79390573Y-53623607D01*
X79339198Y-53518517D01*
X79339196Y-53518515D01*
X79339196Y-53518514D01*
X79256485Y-53435803D01*
X79249499Y-53432388D01*
X79151393Y-53384427D01*
X79151391Y-53384426D01*
X79083261Y-53374500D01*
X79083260Y-53374500D01*
X78616740Y-53374500D01*
X78592375Y-53378049D01*
X78523199Y-53368235D01*
X78470310Y-53322579D01*
X78450500Y-53255576D01*
X78450500Y-52712862D01*
X78470185Y-52645823D01*
X78522989Y-52600068D01*
X78556620Y-52590158D01*
X78558625Y-52589866D01*
X78655782Y-52542369D01*
X78671210Y-52534827D01*
X78759827Y-52446210D01*
X78797088Y-52369991D01*
X78814866Y-52333625D01*
X78825500Y-52260636D01*
X78825500Y-51955131D01*
X79124500Y-51955131D01*
X79124500Y-52344856D01*
X79124502Y-52344882D01*
X79127413Y-52369987D01*
X79127415Y-52369991D01*
X79172793Y-52472764D01*
X79172794Y-52472765D01*
X79252235Y-52552206D01*
X79355009Y-52597585D01*
X79380135Y-52600500D01*
X79969864Y-52600499D01*
X79969879Y-52600497D01*
X79969882Y-52600497D01*
X79994987Y-52597586D01*
X79994988Y-52597585D01*
X79994991Y-52597585D01*
X80097765Y-52552206D01*
X80177206Y-52472765D01*
X80222585Y-52369991D01*
X80225500Y-52344865D01*
X80225499Y-51955136D01*
X80225393Y-51954220D01*
X80222586Y-51930012D01*
X80222585Y-51930010D01*
X80222585Y-51930009D01*
X80177206Y-51827235D01*
X80097765Y-51747794D01*
X80064894Y-51733280D01*
X79994992Y-51702415D01*
X79969865Y-51699500D01*
X79380143Y-51699500D01*
X79380117Y-51699502D01*
X79355012Y-51702413D01*
X79355008Y-51702415D01*
X79252235Y-51747793D01*
X79172794Y-51827234D01*
X79127415Y-51930006D01*
X79127415Y-51930008D01*
X79124500Y-51955131D01*
X78825500Y-51955131D01*
X78825500Y-51739364D01*
X78814866Y-51666375D01*
X78793699Y-51623077D01*
X78759827Y-51553789D01*
X78671210Y-51465172D01*
X78558628Y-51410135D01*
X78558626Y-51410134D01*
X78558625Y-51410134D01*
X78485636Y-51399500D01*
X77864364Y-51399500D01*
X77791375Y-51410134D01*
X77791373Y-51410134D01*
X77791371Y-51410135D01*
X77678789Y-51465172D01*
X77590172Y-51553789D01*
X77535135Y-51666371D01*
X77535134Y-51666373D01*
X77535134Y-51666375D01*
X77524500Y-51739364D01*
X77150500Y-51739364D01*
X77139866Y-51666375D01*
X77118699Y-51623077D01*
X77084827Y-51553789D01*
X76996210Y-51465172D01*
X76883628Y-51410135D01*
X76883626Y-51410134D01*
X76883625Y-51410134D01*
X76810636Y-51399500D01*
X76189364Y-51399500D01*
X76116375Y-51410134D01*
X76116373Y-51410134D01*
X76116371Y-51410135D01*
X76003789Y-51465172D01*
X75915172Y-51553789D01*
X75860135Y-51666371D01*
X75860134Y-51666373D01*
X75860134Y-51666375D01*
X75849500Y-51739364D01*
X75849500Y-52260636D01*
X75860134Y-52333625D01*
X75860134Y-52333626D01*
X75860135Y-52333628D01*
X75915172Y-52446210D01*
X75983811Y-52514849D01*
X76017296Y-52576172D01*
X76012312Y-52645864D01*
X75983811Y-52690211D01*
X75820862Y-52853161D01*
X75694433Y-52979590D01*
X75694432Y-52979591D01*
X75662832Y-53011191D01*
X75629591Y-53044431D01*
X75629590Y-53044432D01*
X75625382Y-53054594D01*
X75625381Y-53054596D01*
X75594499Y-53129150D01*
X75594499Y-53235283D01*
X75594500Y-53235292D01*
X75594500Y-53272364D01*
X75574815Y-53339403D01*
X75524961Y-53383764D01*
X75418515Y-53435802D01*
X75335802Y-53518515D01*
X75294495Y-53603010D01*
X75247367Y-53654592D01*
X75179833Y-53672506D01*
X75113334Y-53651065D01*
X75068985Y-53597075D01*
X75064710Y-53585439D01*
X75018019Y-53435604D01*
X74930072Y-53290122D01*
X74809877Y-53169927D01*
X74664395Y-53081980D01*
X74664396Y-53081980D01*
X74502105Y-53031409D01*
X74502106Y-53031409D01*
X74431572Y-53025000D01*
X74425000Y-53025000D01*
X73925000Y-53025000D01*
X73924999Y-53024999D01*
X73918436Y-53025000D01*
X73918417Y-53025001D01*
X73865719Y-53029789D01*
X73797174Y-53016251D01*
X73746829Y-52967803D01*
X73730500Y-52906298D01*
X73730500Y-52719418D01*
X73750185Y-52652379D01*
X73802989Y-52606624D01*
X73836617Y-52596714D01*
X73883625Y-52589866D01*
X73907357Y-52578264D01*
X73996210Y-52534827D01*
X74084827Y-52446210D01*
X74122088Y-52369991D01*
X74139866Y-52333625D01*
X74150500Y-52260636D01*
X74150500Y-51955131D01*
X74449500Y-51955131D01*
X74449500Y-52344856D01*
X74449502Y-52344882D01*
X74452413Y-52369987D01*
X74452415Y-52369991D01*
X74497793Y-52472764D01*
X74497794Y-52472765D01*
X74577235Y-52552206D01*
X74680009Y-52597585D01*
X74705135Y-52600500D01*
X75294864Y-52600499D01*
X75294879Y-52600497D01*
X75294882Y-52600497D01*
X75319987Y-52597586D01*
X75319988Y-52597585D01*
X75319991Y-52597585D01*
X75422765Y-52552206D01*
X75502206Y-52472765D01*
X75547585Y-52369991D01*
X75550500Y-52344865D01*
X75550499Y-51955136D01*
X75550393Y-51954220D01*
X75547586Y-51930012D01*
X75547585Y-51930010D01*
X75547585Y-51930009D01*
X75502206Y-51827235D01*
X75422765Y-51747794D01*
X75389894Y-51733280D01*
X75319992Y-51702415D01*
X75294865Y-51699500D01*
X74705143Y-51699500D01*
X74705117Y-51699502D01*
X74680012Y-51702413D01*
X74680008Y-51702415D01*
X74577235Y-51747793D01*
X74497794Y-51827234D01*
X74452415Y-51930006D01*
X74452415Y-51930008D01*
X74449500Y-51955131D01*
X74150500Y-51955131D01*
X74150500Y-51739364D01*
X74139866Y-51666375D01*
X74118699Y-51623077D01*
X74084827Y-51553789D01*
X73996210Y-51465172D01*
X73883628Y-51410135D01*
X73883626Y-51410134D01*
X73883625Y-51410134D01*
X73810636Y-51399500D01*
X73189364Y-51399500D01*
X73116375Y-51410134D01*
X73116373Y-51410134D01*
X73116371Y-51410135D01*
X73003789Y-51465172D01*
X72915174Y-51553787D01*
X72861400Y-51663784D01*
X72814272Y-51715366D01*
X72746738Y-51733280D01*
X72680240Y-51711839D01*
X72638600Y-51663784D01*
X72584825Y-51553787D01*
X72496210Y-51465172D01*
X72383628Y-51410135D01*
X72383626Y-51410134D01*
X72383625Y-51410134D01*
X72310636Y-51399500D01*
X71689364Y-51399500D01*
X71616375Y-51410134D01*
X71616373Y-51410134D01*
X71616371Y-51410135D01*
X71503789Y-51465172D01*
X71415172Y-51553789D01*
X71360135Y-51666371D01*
X71360134Y-51666373D01*
X71360134Y-51666375D01*
X71349500Y-51739364D01*
X71349500Y-52260636D01*
X71360134Y-52333625D01*
X71360134Y-52333626D01*
X71360135Y-52333628D01*
X71415172Y-52446210D01*
X71483811Y-52514849D01*
X71517296Y-52576172D01*
X71512312Y-52645864D01*
X71483811Y-52690211D01*
X71320862Y-52853161D01*
X71194433Y-52979590D01*
X71194432Y-52979591D01*
X71162832Y-53011191D01*
X71129591Y-53044431D01*
X71129590Y-53044432D01*
X71125382Y-53054594D01*
X71125381Y-53054596D01*
X71094499Y-53129150D01*
X71094499Y-53235283D01*
X71094500Y-53235292D01*
X71094500Y-53272364D01*
X71074815Y-53339403D01*
X71024961Y-53383764D01*
X70918515Y-53435802D01*
X70835802Y-53518515D01*
X70794495Y-53603010D01*
X70747367Y-53654592D01*
X70679833Y-53672506D01*
X70613334Y-53651065D01*
X70568985Y-53597075D01*
X70564710Y-53585439D01*
X70518019Y-53435604D01*
X70430072Y-53290122D01*
X70309877Y-53169927D01*
X70164395Y-53081980D01*
X70164396Y-53081980D01*
X70002105Y-53031409D01*
X70002106Y-53031409D01*
X69931572Y-53025000D01*
X69925000Y-53025000D01*
X69425000Y-53025000D01*
X69424999Y-53024999D01*
X69418436Y-53025000D01*
X69418417Y-53025001D01*
X69365719Y-53029789D01*
X69297174Y-53016251D01*
X69246829Y-52967803D01*
X69230500Y-52906298D01*
X69230500Y-52719418D01*
X69250185Y-52652379D01*
X69302989Y-52606624D01*
X69336617Y-52596714D01*
X69383625Y-52589866D01*
X69407357Y-52578264D01*
X69496210Y-52534827D01*
X69584827Y-52446210D01*
X69622088Y-52369991D01*
X69639866Y-52333625D01*
X69650500Y-52260636D01*
X69650500Y-51955131D01*
X69949500Y-51955131D01*
X69949500Y-52344856D01*
X69949502Y-52344882D01*
X69952413Y-52369987D01*
X69952415Y-52369991D01*
X69997793Y-52472764D01*
X69997794Y-52472765D01*
X70077235Y-52552206D01*
X70180009Y-52597585D01*
X70205135Y-52600500D01*
X70794864Y-52600499D01*
X70794879Y-52600497D01*
X70794882Y-52600497D01*
X70819987Y-52597586D01*
X70819988Y-52597585D01*
X70819991Y-52597585D01*
X70922765Y-52552206D01*
X71002206Y-52472765D01*
X71047585Y-52369991D01*
X71050500Y-52344865D01*
X71050499Y-51955136D01*
X71050393Y-51954220D01*
X71047586Y-51930012D01*
X71047585Y-51930010D01*
X71047585Y-51930009D01*
X71002206Y-51827235D01*
X70922765Y-51747794D01*
X70889894Y-51733280D01*
X70819992Y-51702415D01*
X70794865Y-51699500D01*
X70205143Y-51699500D01*
X70205117Y-51699502D01*
X70180012Y-51702413D01*
X70180008Y-51702415D01*
X70077235Y-51747793D01*
X69997794Y-51827234D01*
X69952415Y-51930006D01*
X69952415Y-51930008D01*
X69949500Y-51955131D01*
X69650500Y-51955131D01*
X69650500Y-51739364D01*
X69639866Y-51666375D01*
X69618699Y-51623077D01*
X69584827Y-51553789D01*
X69496210Y-51465172D01*
X69383628Y-51410135D01*
X69383626Y-51410134D01*
X69383625Y-51410134D01*
X69310636Y-51399500D01*
X68689364Y-51399500D01*
X68616375Y-51410134D01*
X68616373Y-51410134D01*
X68616371Y-51410135D01*
X68503789Y-51465172D01*
X68415174Y-51553787D01*
X68361400Y-51663784D01*
X68314272Y-51715366D01*
X68246738Y-51733280D01*
X68180240Y-51711839D01*
X68138600Y-51663784D01*
X68084825Y-51553787D01*
X67996210Y-51465172D01*
X67883628Y-51410135D01*
X67883626Y-51410134D01*
X67883625Y-51410134D01*
X67810636Y-51399500D01*
X67189364Y-51399500D01*
X67116375Y-51410134D01*
X67116373Y-51410134D01*
X67116371Y-51410135D01*
X67003789Y-51465172D01*
X66915172Y-51553789D01*
X66860135Y-51666371D01*
X66860134Y-51666373D01*
X66860134Y-51666375D01*
X66849500Y-51739364D01*
X66849500Y-52260636D01*
X66860134Y-52333625D01*
X66860134Y-52333626D01*
X66860135Y-52333628D01*
X66915172Y-52446210D01*
X66983811Y-52514849D01*
X67017296Y-52576172D01*
X67012312Y-52645864D01*
X66983811Y-52690211D01*
X66820862Y-52853161D01*
X66694433Y-52979590D01*
X66694432Y-52979591D01*
X66662832Y-53011191D01*
X66629591Y-53044431D01*
X66629590Y-53044432D01*
X66625382Y-53054594D01*
X66625381Y-53054596D01*
X66594499Y-53129150D01*
X66594499Y-53235283D01*
X66594500Y-53235292D01*
X66594500Y-53272364D01*
X66574815Y-53339403D01*
X66524961Y-53383764D01*
X66418515Y-53435802D01*
X66335802Y-53518515D01*
X66294495Y-53603010D01*
X66247367Y-53654592D01*
X66179833Y-53672506D01*
X66113334Y-53651065D01*
X66068985Y-53597075D01*
X66064710Y-53585439D01*
X66018019Y-53435604D01*
X65930072Y-53290122D01*
X65809877Y-53169927D01*
X65664395Y-53081980D01*
X65664396Y-53081980D01*
X65502105Y-53031409D01*
X65502106Y-53031409D01*
X65431572Y-53025000D01*
X65425000Y-53025000D01*
X64925000Y-53025000D01*
X64924999Y-53024999D01*
X64918436Y-53025000D01*
X64918417Y-53025001D01*
X64847897Y-53031408D01*
X64847892Y-53031409D01*
X64685603Y-53081981D01*
X64540122Y-53169927D01*
X64419927Y-53290122D01*
X64331980Y-53435604D01*
X64329911Y-53442244D01*
X64291169Y-53500389D01*
X64227142Y-53528359D01*
X64158158Y-53517273D01*
X64117815Y-53486549D01*
X64048049Y-53406033D01*
X64048048Y-53406032D01*
X64037458Y-53399226D01*
X63991704Y-53346421D01*
X63980500Y-53294912D01*
X63980500Y-53146838D01*
X64000185Y-53079799D01*
X64016819Y-53059157D01*
X64439157Y-52636819D01*
X64500480Y-52603334D01*
X64526838Y-52600500D01*
X64810630Y-52600500D01*
X64810636Y-52600500D01*
X64883625Y-52589866D01*
X64980782Y-52542369D01*
X64996210Y-52534827D01*
X65084827Y-52446210D01*
X65122088Y-52369991D01*
X65139866Y-52333625D01*
X65150500Y-52260636D01*
X65150500Y-51955131D01*
X65449500Y-51955131D01*
X65449500Y-52344856D01*
X65449502Y-52344882D01*
X65452413Y-52369987D01*
X65452415Y-52369991D01*
X65497793Y-52472764D01*
X65497794Y-52472765D01*
X65577235Y-52552206D01*
X65680009Y-52597585D01*
X65705135Y-52600500D01*
X66294864Y-52600499D01*
X66294879Y-52600497D01*
X66294882Y-52600497D01*
X66319987Y-52597586D01*
X66319988Y-52597585D01*
X66319991Y-52597585D01*
X66422765Y-52552206D01*
X66502206Y-52472765D01*
X66547585Y-52369991D01*
X66550500Y-52344865D01*
X66550499Y-51955136D01*
X66550393Y-51954220D01*
X66547586Y-51930012D01*
X66547585Y-51930010D01*
X66547585Y-51930009D01*
X66502206Y-51827235D01*
X66422765Y-51747794D01*
X66389894Y-51733280D01*
X66319992Y-51702415D01*
X66294865Y-51699500D01*
X65705143Y-51699500D01*
X65705117Y-51699502D01*
X65680012Y-51702413D01*
X65680008Y-51702415D01*
X65577235Y-51747793D01*
X65497794Y-51827234D01*
X65452415Y-51930006D01*
X65452415Y-51930008D01*
X65449500Y-51955131D01*
X65150500Y-51955131D01*
X65150500Y-51739364D01*
X65139866Y-51666375D01*
X65118699Y-51623077D01*
X65084827Y-51553789D01*
X64996210Y-51465172D01*
X64883628Y-51410135D01*
X64883626Y-51410134D01*
X64883625Y-51410134D01*
X64810636Y-51399500D01*
X64189364Y-51399500D01*
X64116375Y-51410134D01*
X64116373Y-51410134D01*
X64116371Y-51410135D01*
X64003789Y-51465172D01*
X63915172Y-51553789D01*
X63860135Y-51666371D01*
X63860134Y-51666373D01*
X63860134Y-51666375D01*
X63849500Y-51739364D01*
X63849500Y-52260636D01*
X63858614Y-52323198D01*
X63860134Y-52333626D01*
X63896857Y-52408744D01*
X63908615Y-52477617D01*
X63881272Y-52541914D01*
X63873137Y-52550885D01*
X63745874Y-52678149D01*
X63619433Y-52804590D01*
X63619432Y-52804591D01*
X63587012Y-52837011D01*
X63554592Y-52869430D01*
X63554591Y-52869431D01*
X63554591Y-52869432D01*
X63545251Y-52891980D01*
X63545251Y-52891981D01*
X63519499Y-52954147D01*
X63519499Y-53060283D01*
X63519500Y-53060292D01*
X63519500Y-53294912D01*
X63499815Y-53361951D01*
X63462542Y-53399226D01*
X63451951Y-53406032D01*
X63367118Y-53503937D01*
X63367117Y-53503938D01*
X63313302Y-53621774D01*
X63294867Y-53750000D01*
X50230500Y-53750000D01*
X50230500Y-53199701D01*
X50250185Y-53132662D01*
X50302989Y-53086907D01*
X50372147Y-53076963D01*
X50427383Y-53099382D01*
X50468356Y-53129150D01*
X50541238Y-53182102D01*
X50647751Y-53229524D01*
X50716469Y-53260119D01*
X50904092Y-53300000D01*
X51095908Y-53300000D01*
X51283531Y-53260119D01*
X51458763Y-53182101D01*
X51613945Y-53069355D01*
X51693837Y-52980624D01*
X51753323Y-52943976D01*
X51823180Y-52945306D01*
X51881229Y-52984193D01*
X51898368Y-53011191D01*
X51902897Y-53020904D01*
X51902901Y-53020911D01*
X51948258Y-53085687D01*
X51948258Y-53085688D01*
X52619000Y-52414946D01*
X52619000Y-52437660D01*
X52644964Y-52534561D01*
X52695124Y-52621440D01*
X52766060Y-52692376D01*
X52852939Y-52742536D01*
X52949840Y-52768500D01*
X52972553Y-52768500D01*
X52301810Y-53439240D01*
X52366590Y-53484599D01*
X52366592Y-53484600D01*
X52566715Y-53577919D01*
X52566729Y-53577924D01*
X52780013Y-53635073D01*
X52780023Y-53635075D01*
X52999999Y-53654321D01*
X53000001Y-53654321D01*
X53219976Y-53635075D01*
X53219986Y-53635073D01*
X53433270Y-53577924D01*
X53433284Y-53577919D01*
X53633407Y-53484600D01*
X53633417Y-53484594D01*
X53698188Y-53439241D01*
X53027448Y-52768500D01*
X53050160Y-52768500D01*
X53147061Y-52742536D01*
X53233940Y-52692376D01*
X53304876Y-52621440D01*
X53355036Y-52534561D01*
X53381000Y-52437660D01*
X53381000Y-52414947D01*
X54051741Y-53085688D01*
X54097094Y-53020917D01*
X54097100Y-53020907D01*
X54190419Y-52820784D01*
X54190424Y-52820770D01*
X54247573Y-52607486D01*
X54247575Y-52607476D01*
X54266821Y-52387500D01*
X54266821Y-52387499D01*
X54247575Y-52167523D01*
X54247573Y-52167513D01*
X54190424Y-51954229D01*
X54190420Y-51954220D01*
X54097096Y-51754086D01*
X54051741Y-51689311D01*
X54051740Y-51689310D01*
X53381000Y-52360051D01*
X53381000Y-52337340D01*
X53355036Y-52240439D01*
X53304876Y-52153560D01*
X53233940Y-52082624D01*
X53147061Y-52032464D01*
X53050160Y-52006500D01*
X53027447Y-52006500D01*
X53698188Y-51335758D01*
X53697549Y-51328464D01*
X53666354Y-51289437D01*
X53659160Y-51219939D01*
X53664056Y-51201500D01*
X53716691Y-51051080D01*
X53719266Y-51028226D01*
X53735122Y-50887503D01*
X53735122Y-50887496D01*
X53716692Y-50723925D01*
X53716691Y-50723923D01*
X53716691Y-50723920D01*
X53662322Y-50568543D01*
X53574742Y-50429159D01*
X53574741Y-50429158D01*
X53571037Y-50423263D01*
X53572892Y-50422096D01*
X53550450Y-50367133D01*
X53563202Y-50298437D01*
X53611070Y-50247540D01*
X53673805Y-50230500D01*
X90218632Y-50230500D01*
X90285671Y-50250185D01*
G37*
%TD.AperFunction*%
%TA.AperFunction,Conductor*%
G36*
X52006500Y-59050160D02*
G01*
X52032464Y-59147061D01*
X52082624Y-59233940D01*
X52153560Y-59304876D01*
X52240439Y-59355036D01*
X52337340Y-59381000D01*
X52360053Y-59381000D01*
X51689310Y-60051740D01*
X51754090Y-60097099D01*
X51754091Y-60097100D01*
X51760465Y-60100072D01*
X51812906Y-60146243D01*
X51832059Y-60213436D01*
X51811845Y-60280318D01*
X51780951Y-60312771D01*
X51773556Y-60318143D01*
X51773554Y-60318145D01*
X51645209Y-60460686D01*
X51645204Y-60460694D01*
X51629400Y-60488068D01*
X51578833Y-60536284D01*
X51510226Y-60549506D01*
X51445361Y-60523538D01*
X51434332Y-60513749D01*
X51345841Y-60425258D01*
X51206455Y-60337677D01*
X51206453Y-60337676D01*
X51051074Y-60283307D01*
X50887504Y-60264878D01*
X50887496Y-60264878D01*
X50723925Y-60283307D01*
X50568546Y-60337676D01*
X50568544Y-60337677D01*
X50514279Y-60371774D01*
X50451035Y-60411513D01*
X50423263Y-60428963D01*
X50422099Y-60427111D01*
X50367106Y-60449552D01*
X50298413Y-60436784D01*
X50247527Y-60388905D01*
X50230500Y-60326194D01*
X50230500Y-59673805D01*
X50250185Y-59606766D01*
X50302989Y-59561011D01*
X50372147Y-59551067D01*
X50422212Y-59572709D01*
X50423263Y-59571037D01*
X50429158Y-59574741D01*
X50429159Y-59574742D01*
X50568543Y-59662322D01*
X50723920Y-59716691D01*
X50723923Y-59716691D01*
X50723925Y-59716692D01*
X50887496Y-59735122D01*
X50887500Y-59735122D01*
X50887504Y-59735122D01*
X51051074Y-59716692D01*
X51051075Y-59716691D01*
X51051080Y-59716691D01*
X51201487Y-59664060D01*
X51271262Y-59660498D01*
X51331890Y-59695227D01*
X51334212Y-59698052D01*
X51335758Y-59698188D01*
X52006500Y-59027446D01*
X52006500Y-59050160D01*
G37*
%TD.AperFunction*%
%TA.AperFunction,Conductor*%
G36*
X52393234Y-50250185D02*
G01*
X52438989Y-50302989D01*
X52448933Y-50372147D01*
X52427290Y-50422212D01*
X52428963Y-50423263D01*
X52425258Y-50429158D01*
X52425258Y-50429159D01*
X52397411Y-50473477D01*
X52337677Y-50568544D01*
X52337676Y-50568546D01*
X52283307Y-50723925D01*
X52264878Y-50887496D01*
X52264878Y-50887503D01*
X52283307Y-51051074D01*
X52335938Y-51201485D01*
X52339499Y-51271264D01*
X52304770Y-51331891D01*
X52301946Y-51334211D01*
X52301810Y-51335757D01*
X52972554Y-52006500D01*
X52949840Y-52006500D01*
X52852939Y-52032464D01*
X52766060Y-52082624D01*
X52695124Y-52153560D01*
X52644964Y-52240439D01*
X52619000Y-52337340D01*
X52619000Y-52360053D01*
X51948258Y-51689311D01*
X51902900Y-51754090D01*
X51898366Y-51763814D01*
X51852190Y-51816250D01*
X51784995Y-51835398D01*
X51718115Y-51815178D01*
X51693837Y-51794374D01*
X51613945Y-51705645D01*
X51613943Y-51705643D01*
X51500300Y-51623077D01*
X51457634Y-51567747D01*
X51451655Y-51498134D01*
X51484261Y-51436339D01*
X51485373Y-51435209D01*
X51574742Y-51345841D01*
X51662322Y-51206457D01*
X51716691Y-51051080D01*
X51719266Y-51028226D01*
X51735122Y-50887503D01*
X51735122Y-50887496D01*
X51716692Y-50723925D01*
X51716691Y-50723923D01*
X51716691Y-50723920D01*
X51662322Y-50568543D01*
X51574742Y-50429159D01*
X51574741Y-50429158D01*
X51571037Y-50423263D01*
X51572892Y-50422096D01*
X51550450Y-50367133D01*
X51563202Y-50298437D01*
X51611070Y-50247540D01*
X51673805Y-50230500D01*
X52326195Y-50230500D01*
X52393234Y-50250185D01*
G37*
%TD.AperFunction*%
%TD*%
%TA.AperFunction,NonConductor*%
G36*
X87663720Y-53864339D02*
G01*
X87694449Y-53927088D01*
X87695171Y-53931853D01*
X87698408Y-53956443D01*
X87699807Y-53967065D01*
X87730492Y-54041146D01*
X87742174Y-54069347D01*
X87749643Y-54138817D01*
X87718368Y-54201296D01*
X87658279Y-54236948D01*
X87627613Y-54240800D01*
X87374688Y-54240800D01*
X87307649Y-54221115D01*
X87261894Y-54168311D01*
X87251950Y-54099153D01*
X87280975Y-54035597D01*
X87305797Y-54013698D01*
X87347258Y-53985994D01*
X87384423Y-53961161D01*
X87418496Y-53927088D01*
X87481469Y-53864116D01*
X87482539Y-53865186D01*
X87534100Y-53830049D01*
X87603944Y-53828164D01*
X87663720Y-53864339D01*
G37*
%TD.AperFunction*%
%TA.AperFunction,NonConductor*%
G36*
X91361844Y-54180319D02*
G01*
X91394597Y-54242036D01*
X91394743Y-54291142D01*
X91374200Y-54394419D01*
X91374200Y-54525580D01*
X91394743Y-54628857D01*
X91388516Y-54698449D01*
X91345652Y-54753626D01*
X91279763Y-54776870D01*
X91211766Y-54760802D01*
X91174751Y-54728535D01*
X91158130Y-54706874D01*
X91158128Y-54706873D01*
X91158128Y-54706872D01*
X91044448Y-54619642D01*
X91044445Y-54619641D01*
X91044443Y-54619639D01*
X90935613Y-54574561D01*
X90881209Y-54530721D01*
X90859144Y-54464426D01*
X90876423Y-54396727D01*
X90927560Y-54349116D01*
X90935613Y-54345439D01*
X90969067Y-54331582D01*
X91044443Y-54300360D01*
X91044444Y-54300360D01*
X91044444Y-54300359D01*
X91044448Y-54300358D01*
X91158128Y-54213128D01*
X91174751Y-54191463D01*
X91231177Y-54150262D01*
X91300923Y-54146107D01*
X91361844Y-54180319D01*
G37*
%TD.AperFunction*%
%TA.AperFunction,NonConductor*%
G36*
X93006061Y-50231097D02*
G01*
X93137973Y-50244089D01*
X93161801Y-50248828D01*
X93282793Y-50285531D01*
X93305245Y-50294832D01*
X93338783Y-50312758D01*
X93416738Y-50354426D01*
X93436949Y-50367930D01*
X93534677Y-50448132D01*
X93551867Y-50465322D01*
X93632069Y-50563050D01*
X93645573Y-50583261D01*
X93705166Y-50694751D01*
X93714469Y-50717209D01*
X93751169Y-50838192D01*
X93755911Y-50862032D01*
X93758420Y-50887503D01*
X93768577Y-50990633D01*
X93768903Y-50993937D01*
X93769500Y-51006092D01*
X93769500Y-54811523D01*
X93749815Y-54878562D01*
X93697011Y-54924317D01*
X93627853Y-54934261D01*
X93564297Y-54905236D01*
X93532706Y-54863035D01*
X93507048Y-54806853D01*
X93482882Y-54753937D01*
X93398049Y-54656033D01*
X93289069Y-54585996D01*
X93289065Y-54585994D01*
X93289064Y-54585994D01*
X93164774Y-54549500D01*
X93164772Y-54549500D01*
X93035228Y-54549500D01*
X93035226Y-54549500D01*
X92910935Y-54585994D01*
X92910932Y-54585995D01*
X92910931Y-54585996D01*
X92896837Y-54595053D01*
X92829799Y-54614737D01*
X92762760Y-54595052D01*
X92717005Y-54542247D01*
X92705800Y-54490737D01*
X92705800Y-54394423D01*
X92705799Y-54394419D01*
X92680216Y-54265800D01*
X92680213Y-54265791D01*
X92630028Y-54144630D01*
X92630021Y-54144618D01*
X92557161Y-54035577D01*
X92557158Y-54035573D01*
X92464426Y-53942841D01*
X92464422Y-53942838D01*
X92355381Y-53869978D01*
X92355369Y-53869971D01*
X92234208Y-53819786D01*
X92234199Y-53819783D01*
X92105580Y-53794200D01*
X92105576Y-53794200D01*
X91974424Y-53794200D01*
X91974419Y-53794200D01*
X91845800Y-53819783D01*
X91845791Y-53819786D01*
X91724630Y-53869971D01*
X91724618Y-53869978D01*
X91615577Y-53942838D01*
X91615573Y-53942841D01*
X91522838Y-54035576D01*
X91522371Y-54036146D01*
X91522051Y-54036363D01*
X91518531Y-54039884D01*
X91517863Y-54039216D01*
X91464621Y-54075475D01*
X91394776Y-54077339D01*
X91335012Y-54041146D01*
X91304302Y-53978387D01*
X91303586Y-53941291D01*
X91318896Y-53825000D01*
X91309540Y-53753937D01*
X91300193Y-53682936D01*
X91300191Y-53682931D01*
X91288340Y-53654321D01*
X91263966Y-53595476D01*
X91245360Y-53550556D01*
X91245360Y-53550555D01*
X91245358Y-53550552D01*
X91158128Y-53436872D01*
X91044448Y-53349642D01*
X91044445Y-53349641D01*
X91044443Y-53349639D01*
X90912068Y-53294808D01*
X90912063Y-53294806D01*
X90770001Y-53276104D01*
X90769999Y-53276104D01*
X90641218Y-53293058D01*
X90572183Y-53282292D01*
X90519927Y-53235912D01*
X90501042Y-53168643D01*
X90510472Y-53122666D01*
X90518552Y-53103161D01*
X90522139Y-53094500D01*
X90525285Y-53086907D01*
X90531417Y-53072101D01*
X90532951Y-53068399D01*
X90532951Y-52976700D01*
X90532951Y-52966711D01*
X90532950Y-52966697D01*
X90532950Y-52459103D01*
X90552635Y-52392064D01*
X90605439Y-52346309D01*
X90674597Y-52336365D01*
X90738153Y-52365390D01*
X90774881Y-52420786D01*
X90781535Y-52441267D01*
X90866229Y-52607486D01*
X90878577Y-52631721D01*
X91004214Y-52804645D01*
X91155355Y-52955786D01*
X91328279Y-53081423D01*
X91428841Y-53132662D01*
X91518730Y-53178463D01*
X91597791Y-53204151D01*
X91722013Y-53244513D01*
X91819789Y-53259999D01*
X91933122Y-53277950D01*
X91933127Y-53277950D01*
X92146878Y-53277950D01*
X92259454Y-53260119D01*
X92357987Y-53244513D01*
X92561272Y-53178462D01*
X92751721Y-53081423D01*
X92924645Y-52955786D01*
X93075786Y-52804645D01*
X93201423Y-52631721D01*
X93298462Y-52441272D01*
X93364513Y-52237987D01*
X93396830Y-52033946D01*
X93397950Y-52026878D01*
X93397950Y-51813121D01*
X93374706Y-51666371D01*
X93364513Y-51602013D01*
X93319099Y-51462242D01*
X93298463Y-51398730D01*
X93298462Y-51398728D01*
X93201423Y-51208279D01*
X93075786Y-51035355D01*
X92924645Y-50884214D01*
X92751721Y-50758577D01*
X92683703Y-50723920D01*
X92561269Y-50661536D01*
X92357988Y-50595487D01*
X92146878Y-50562050D01*
X92146873Y-50562050D01*
X91933127Y-50562050D01*
X91933122Y-50562050D01*
X91722011Y-50595487D01*
X91518730Y-50661536D01*
X91328278Y-50758577D01*
X91155356Y-50884213D01*
X91066052Y-50973517D01*
X91004728Y-51007001D01*
X90935037Y-51002017D01*
X90879103Y-50960145D01*
X90855633Y-50903481D01*
X90853335Y-50887500D01*
X90836697Y-50771774D01*
X90782882Y-50653937D01*
X90698049Y-50556033D01*
X90589069Y-50485996D01*
X90589065Y-50485994D01*
X90589064Y-50485994D01*
X90546434Y-50473477D01*
X90487656Y-50435704D01*
X90458630Y-50372148D01*
X90468573Y-50302990D01*
X90514328Y-50250185D01*
X90581367Y-50230500D01*
X92959357Y-50230500D01*
X92993907Y-50230500D01*
X93006061Y-50231097D01*
G37*
%TD.AperFunction*%
%TA.AperFunction,NonConductor*%
G36*
X90548249Y-55592185D02*
G01*
X90627935Y-55625193D01*
X90698967Y-55634544D01*
X90769999Y-55643896D01*
X90770000Y-55643896D01*
X90850124Y-55633347D01*
X90919157Y-55644112D01*
X90953986Y-55668602D01*
X91007640Y-55722256D01*
X91037294Y-55734538D01*
X91037296Y-55734540D01*
X91086244Y-55754814D01*
X91108899Y-55764199D01*
X91108900Y-55764199D01*
X91111727Y-55765370D01*
X91166131Y-55809211D01*
X91188196Y-55875505D01*
X91170917Y-55943204D01*
X91151957Y-55967612D01*
X91004213Y-56115356D01*
X90878573Y-56288283D01*
X90799331Y-56443804D01*
X90751357Y-56494600D01*
X90683536Y-56511395D01*
X90617401Y-56488857D01*
X90601166Y-56475190D01*
X90413119Y-56287143D01*
X90379634Y-56225820D01*
X90376800Y-56199462D01*
X90376800Y-55706748D01*
X90396485Y-55639709D01*
X90449289Y-55593954D01*
X90518447Y-55584010D01*
X90548249Y-55592185D01*
G37*
%TD.AperFunction*%
%TA.AperFunction,NonConductor*%
G36*
X71093334Y-66376188D02*
G01*
X71137681Y-66404689D01*
X71141496Y-66408504D01*
X71191278Y-66441767D01*
X71191281Y-66441767D01*
X71191282Y-66441768D01*
X71235177Y-66450500D01*
X71235180Y-66450500D01*
X71645500Y-66450500D01*
X71712539Y-66470185D01*
X71758294Y-66522989D01*
X71769500Y-66574500D01*
X71769500Y-72044912D01*
X71749815Y-72111951D01*
X71712542Y-72149226D01*
X71701951Y-72156032D01*
X71617118Y-72253937D01*
X71617117Y-72253937D01*
X71601411Y-72288328D01*
X71555655Y-72341130D01*
X71488614Y-72360813D01*
X71421576Y-72341127D01*
X71400937Y-72324494D01*
X70411819Y-71335376D01*
X70378334Y-71274053D01*
X70375500Y-71247695D01*
X70375500Y-66574500D01*
X70395185Y-66507461D01*
X70447989Y-66461706D01*
X70499500Y-66450500D01*
X70864822Y-66450500D01*
X70908717Y-66441768D01*
X70908717Y-66441767D01*
X70908722Y-66441767D01*
X70958504Y-66408504D01*
X70958506Y-66408500D01*
X70962319Y-66404689D01*
X71023642Y-66371204D01*
X71093334Y-66376188D01*
G37*
%TD.AperFunction*%
%TA.AperFunction,NonConductor*%
G36*
X71093334Y-79576188D02*
G01*
X71137681Y-79604689D01*
X71141496Y-79608504D01*
X71191278Y-79641767D01*
X71191281Y-79641767D01*
X71191282Y-79641768D01*
X71235177Y-79650500D01*
X71235180Y-79650500D01*
X72374162Y-79650500D01*
X72441201Y-79670185D01*
X72486956Y-79722989D01*
X72496900Y-79792147D01*
X72467875Y-79855703D01*
X72461843Y-79862181D01*
X72340843Y-79983181D01*
X72279520Y-80016666D01*
X72253162Y-80019500D01*
X70702997Y-80019500D01*
X70635958Y-79999815D01*
X70609283Y-79976702D01*
X70548049Y-79906033D01*
X70505698Y-79878816D01*
X70459943Y-79826012D01*
X70449999Y-79756853D01*
X70479024Y-79693298D01*
X70537802Y-79655523D01*
X70572737Y-79650500D01*
X70864822Y-79650500D01*
X70908717Y-79641768D01*
X70908717Y-79641767D01*
X70908722Y-79641767D01*
X70958504Y-79608504D01*
X70958506Y-79608500D01*
X70962319Y-79604689D01*
X71023642Y-79571204D01*
X71093334Y-79576188D01*
G37*
%TD.AperFunction*%
M02*
