%TF.GenerationSoftware,KiCad,Pcbnew,8.0.8*%
%TF.CreationDate,2025-02-13T14:20:33-05:00*%
%TF.ProjectId,GF24,47463234-2e6b-4696-9361-645f70636258,rev?*%
%TF.SameCoordinates,Original*%
%TF.FileFunction,Legend,Bot*%
%TF.FilePolarity,Positive*%
%FSLAX46Y46*%
G04 Gerber Fmt 4.6, Leading zero omitted, Abs format (unit mm)*
G04 Created by KiCad (PCBNEW 8.0.8) date 2025-02-13 14:20:33*
%MOMM*%
%LPD*%
G01*
G04 APERTURE LIST*
%ADD10C,0.100000*%
%ADD11C,0.150000*%
%ADD12C,0.000000*%
%ADD13C,0.200000*%
%ADD14C,0.152400*%
%ADD15C,0.127000*%
%ADD16C,0.250000*%
%ADD17C,0.120000*%
G04 APERTURE END LIST*
D10*
X122400000Y-110150000D02*
X121950000Y-110150000D01*
X124500000Y-103950000D02*
X124500000Y-104450000D01*
X142600000Y-111650000D02*
X143850000Y-111650000D01*
G36*
X141438972Y-112322419D02*
G01*
X141119824Y-112322419D01*
X141042401Y-112283708D01*
X141006255Y-112247561D01*
X140967544Y-112170139D01*
X140967544Y-112050888D01*
X141006255Y-111973464D01*
X141039791Y-111939929D01*
X141163752Y-111898609D01*
X141438972Y-111898609D01*
X141438972Y-112322419D01*
G37*
G36*
X141438972Y-111798609D02*
G01*
X141167443Y-111798609D01*
X141090019Y-111759897D01*
X141053874Y-111723753D01*
X141015163Y-111646330D01*
X141015163Y-111574698D01*
X141053874Y-111497274D01*
X141090019Y-111461130D01*
X141167443Y-111422419D01*
X141438972Y-111422419D01*
X141438972Y-111798609D01*
G37*
G36*
X142649957Y-112533530D02*
G01*
X138756433Y-112533530D01*
X138756433Y-112086704D01*
X138867544Y-112086704D01*
X138867544Y-112181942D01*
X138868032Y-112184398D01*
X138867670Y-112185487D01*
X138869786Y-112193214D01*
X138871350Y-112201076D01*
X138872161Y-112201887D01*
X138872823Y-112204303D01*
X138920441Y-112299540D01*
X138925352Y-112305868D01*
X138929807Y-112312535D01*
X138977426Y-112360155D01*
X138984092Y-112364609D01*
X138990421Y-112369521D01*
X139085659Y-112417140D01*
X139088074Y-112417801D01*
X139088886Y-112418613D01*
X139096747Y-112420176D01*
X139104475Y-112422293D01*
X139105563Y-112421930D01*
X139108020Y-112422419D01*
X139346115Y-112422419D01*
X139353977Y-112420855D01*
X139361926Y-112419853D01*
X139504783Y-112372234D01*
X139521731Y-112362573D01*
X139538846Y-112328344D01*
X139526744Y-112292040D01*
X139492516Y-112274926D01*
X139473160Y-112277366D01*
X139338002Y-112322419D01*
X139119824Y-112322419D01*
X139042401Y-112283708D01*
X139006255Y-112247561D01*
X138967544Y-112170139D01*
X138967544Y-112098507D01*
X139006255Y-112021083D01*
X139042400Y-111984939D01*
X139125472Y-111943403D01*
X139310623Y-111897116D01*
X139315575Y-111894776D01*
X139320857Y-111893330D01*
X139416094Y-111845712D01*
X139422427Y-111840796D01*
X139429089Y-111836345D01*
X139476708Y-111788727D01*
X139481162Y-111782060D01*
X139486074Y-111775732D01*
X139533693Y-111680494D01*
X139534354Y-111678078D01*
X139535166Y-111677267D01*
X139536729Y-111669405D01*
X139538846Y-111661678D01*
X139538483Y-111660589D01*
X139538972Y-111658133D01*
X139538972Y-111562895D01*
X139538483Y-111560438D01*
X139538846Y-111559350D01*
X139536729Y-111551622D01*
X139535166Y-111543761D01*
X139534354Y-111542949D01*
X139533693Y-111540534D01*
X139486074Y-111445296D01*
X139481162Y-111438967D01*
X139476708Y-111432301D01*
X139429089Y-111384683D01*
X139422427Y-111380231D01*
X139416094Y-111375316D01*
X139410300Y-111372419D01*
X139867544Y-111372419D01*
X139867544Y-112181942D01*
X139868032Y-112184398D01*
X139867670Y-112185487D01*
X139869786Y-112193214D01*
X139871350Y-112201076D01*
X139872161Y-112201887D01*
X139872823Y-112204303D01*
X139920441Y-112299540D01*
X139925352Y-112305868D01*
X139929807Y-112312535D01*
X139977426Y-112360155D01*
X139984092Y-112364609D01*
X139990421Y-112369521D01*
X140085659Y-112417140D01*
X140088074Y-112417801D01*
X140088886Y-112418613D01*
X140096747Y-112420176D01*
X140104475Y-112422293D01*
X140105563Y-112421930D01*
X140108020Y-112422419D01*
X140298496Y-112422419D01*
X140300952Y-112421930D01*
X140302041Y-112422293D01*
X140309768Y-112420176D01*
X140317630Y-112418613D01*
X140318441Y-112417801D01*
X140320857Y-112417140D01*
X140416094Y-112369522D01*
X140422421Y-112364611D01*
X140429090Y-112360155D01*
X140476709Y-112312535D01*
X140481162Y-112305869D01*
X140486074Y-112299541D01*
X140533693Y-112204303D01*
X140534354Y-112201887D01*
X140535166Y-112201076D01*
X140536729Y-112193214D01*
X140538846Y-112185487D01*
X140538483Y-112184398D01*
X140538972Y-112181942D01*
X140538972Y-112039085D01*
X140867544Y-112039085D01*
X140867544Y-112181942D01*
X140868032Y-112184398D01*
X140867670Y-112185487D01*
X140869786Y-112193214D01*
X140871350Y-112201076D01*
X140872161Y-112201887D01*
X140872823Y-112204303D01*
X140920441Y-112299540D01*
X140925352Y-112305868D01*
X140929807Y-112312535D01*
X140977426Y-112360155D01*
X140984092Y-112364609D01*
X140990421Y-112369521D01*
X141085659Y-112417140D01*
X141088074Y-112417801D01*
X141088886Y-112418613D01*
X141096747Y-112420176D01*
X141104475Y-112422293D01*
X141105563Y-112421930D01*
X141108020Y-112422419D01*
X141488972Y-112422419D01*
X141508106Y-112418613D01*
X141535166Y-112391553D01*
X141538972Y-112372419D01*
X141538972Y-111372419D01*
X141538267Y-111368875D01*
X141772432Y-111368875D01*
X141774872Y-111388230D01*
X142108205Y-112388230D01*
X142117866Y-112405178D01*
X142121207Y-112406848D01*
X142122879Y-112410192D01*
X142137921Y-112415205D01*
X142152095Y-112422293D01*
X142155638Y-112421111D01*
X142159183Y-112422293D01*
X142173362Y-112415203D01*
X142188399Y-112410191D01*
X142190069Y-112406850D01*
X142193412Y-112405179D01*
X142203073Y-112388230D01*
X142536406Y-111388231D01*
X142538846Y-111368875D01*
X142521732Y-111334647D01*
X142485428Y-111322545D01*
X142451199Y-111339660D01*
X142441538Y-111356608D01*
X142155639Y-112214305D01*
X141869740Y-111356608D01*
X141860079Y-111339659D01*
X141825850Y-111322545D01*
X141789546Y-111334646D01*
X141772432Y-111368875D01*
X141538267Y-111368875D01*
X141535166Y-111353285D01*
X141508106Y-111326225D01*
X141488972Y-111322419D01*
X141155639Y-111322419D01*
X141153182Y-111322907D01*
X141152094Y-111322545D01*
X141144366Y-111324661D01*
X141136505Y-111326225D01*
X141135693Y-111327036D01*
X141133278Y-111327698D01*
X141038040Y-111375317D01*
X141031711Y-111380228D01*
X141025045Y-111384683D01*
X140977427Y-111432302D01*
X140972975Y-111438963D01*
X140968060Y-111445297D01*
X140920442Y-111540534D01*
X140919780Y-111542949D01*
X140918969Y-111543761D01*
X140917405Y-111551622D01*
X140915289Y-111559350D01*
X140915651Y-111560438D01*
X140915163Y-111562895D01*
X140915163Y-111658133D01*
X140915651Y-111660589D01*
X140915289Y-111661678D01*
X140917405Y-111669405D01*
X140918969Y-111677267D01*
X140919780Y-111678078D01*
X140920442Y-111680494D01*
X140968060Y-111775731D01*
X140972975Y-111782064D01*
X140977427Y-111788726D01*
X141025045Y-111836345D01*
X141028131Y-111838407D01*
X140996971Y-111848794D01*
X140994796Y-111850034D01*
X140993647Y-111850034D01*
X140986980Y-111854488D01*
X140980022Y-111858455D01*
X140979508Y-111859481D01*
X140977426Y-111860873D01*
X140929808Y-111908492D01*
X140925356Y-111915153D01*
X140920441Y-111921487D01*
X140872823Y-112016724D01*
X140872161Y-112019139D01*
X140871350Y-112019951D01*
X140869786Y-112027812D01*
X140867670Y-112035540D01*
X140868032Y-112036628D01*
X140867544Y-112039085D01*
X140538972Y-112039085D01*
X140538972Y-111372419D01*
X140535166Y-111353285D01*
X140508106Y-111326225D01*
X140469838Y-111326225D01*
X140442778Y-111353285D01*
X140438972Y-111372419D01*
X140438972Y-112170138D01*
X140400260Y-112247561D01*
X140364114Y-112283708D01*
X140286693Y-112322419D01*
X140119824Y-112322419D01*
X140042401Y-112283708D01*
X140006255Y-112247561D01*
X139967544Y-112170139D01*
X139967544Y-111372419D01*
X139963738Y-111353285D01*
X139936678Y-111326225D01*
X139898410Y-111326225D01*
X139871350Y-111353285D01*
X139867544Y-111372419D01*
X139410300Y-111372419D01*
X139320857Y-111327698D01*
X139318441Y-111327036D01*
X139317630Y-111326225D01*
X139309768Y-111324661D01*
X139302041Y-111322545D01*
X139300952Y-111322907D01*
X139298496Y-111322419D01*
X139060401Y-111322419D01*
X139052539Y-111323982D01*
X139044589Y-111324985D01*
X138901733Y-111372604D01*
X138884784Y-111382265D01*
X138867670Y-111416494D01*
X138879771Y-111452798D01*
X138914000Y-111469912D01*
X138933355Y-111467472D01*
X139068514Y-111422419D01*
X139286693Y-111422419D01*
X139364116Y-111461130D01*
X139400260Y-111497275D01*
X139438972Y-111574698D01*
X139438972Y-111646329D01*
X139400260Y-111723752D01*
X139364116Y-111759897D01*
X139281045Y-111801433D01*
X139095893Y-111847721D01*
X139090940Y-111850060D01*
X139085659Y-111851507D01*
X138990421Y-111899126D01*
X138984092Y-111904037D01*
X138977426Y-111908492D01*
X138929808Y-111956111D01*
X138925356Y-111962772D01*
X138920441Y-111969106D01*
X138872823Y-112064343D01*
X138872161Y-112066758D01*
X138871350Y-112067570D01*
X138869786Y-112075431D01*
X138867670Y-112083159D01*
X138868032Y-112084247D01*
X138867544Y-112086704D01*
X138756433Y-112086704D01*
X138756433Y-111211308D01*
X142649957Y-111211308D01*
X142649957Y-112533530D01*
G37*
G36*
X116696228Y-97815889D02*
G01*
X116657516Y-97893312D01*
X116621372Y-97929457D01*
X116543949Y-97968169D01*
X116424699Y-97968169D01*
X116347275Y-97929457D01*
X116311130Y-97893313D01*
X116272419Y-97815890D01*
X116272419Y-97496741D01*
X116696228Y-97496741D01*
X116696228Y-97815889D01*
G37*
G36*
X116696228Y-95673032D02*
G01*
X116657516Y-95750455D01*
X116621372Y-95786600D01*
X116543949Y-95825312D01*
X116424699Y-95825312D01*
X116347275Y-95786600D01*
X116311130Y-95750456D01*
X116272419Y-95673033D01*
X116272419Y-95353884D01*
X116696228Y-95353884D01*
X116696228Y-95673032D01*
G37*
G36*
X117383095Y-98179280D02*
G01*
X116061308Y-98179280D01*
X116061308Y-97446741D01*
X116172419Y-97446741D01*
X116172419Y-97827693D01*
X116172907Y-97830149D01*
X116172545Y-97831238D01*
X116174661Y-97838965D01*
X116176225Y-97846827D01*
X116177036Y-97847638D01*
X116177698Y-97850054D01*
X116225316Y-97945291D01*
X116230231Y-97951624D01*
X116234683Y-97958286D01*
X116282301Y-98005905D01*
X116288967Y-98010359D01*
X116295296Y-98015271D01*
X116390534Y-98062890D01*
X116392949Y-98063551D01*
X116393761Y-98064363D01*
X116401622Y-98065926D01*
X116409350Y-98068043D01*
X116410438Y-98067680D01*
X116412895Y-98068169D01*
X116555752Y-98068169D01*
X116558208Y-98067680D01*
X116559297Y-98068043D01*
X116567024Y-98065926D01*
X116574886Y-98064363D01*
X116575697Y-98063551D01*
X116578113Y-98062890D01*
X116673350Y-98015272D01*
X116679683Y-98010356D01*
X116686345Y-98005905D01*
X116733964Y-97958287D01*
X116738418Y-97951620D01*
X116743330Y-97945292D01*
X116790949Y-97850054D01*
X116791610Y-97847638D01*
X116792422Y-97846827D01*
X116793985Y-97838965D01*
X116796102Y-97831238D01*
X116795739Y-97830149D01*
X116796228Y-97827693D01*
X116796228Y-97780868D01*
X117193746Y-98059131D01*
X117211604Y-98066985D01*
X117249290Y-98060335D01*
X117271235Y-98028984D01*
X117264585Y-97991298D01*
X117251092Y-97977207D01*
X116796228Y-97658802D01*
X116796228Y-97496741D01*
X117222419Y-97496741D01*
X117241553Y-97492935D01*
X117268613Y-97465875D01*
X117268613Y-97427607D01*
X117241553Y-97400547D01*
X117222419Y-97396741D01*
X116222419Y-97396741D01*
X116203285Y-97400547D01*
X116176225Y-97427607D01*
X116172419Y-97446741D01*
X116061308Y-97446741D01*
X116061308Y-96216560D01*
X116173049Y-96216560D01*
X116193106Y-96249152D01*
X116210838Y-96257286D01*
X117018075Y-96449485D01*
X116495250Y-96588905D01*
X116477743Y-96597513D01*
X116474327Y-96603411D01*
X116468429Y-96606827D01*
X116465080Y-96619385D01*
X116458569Y-96630632D01*
X116460325Y-96637217D01*
X116458569Y-96643802D01*
X116465080Y-96655048D01*
X116468429Y-96667607D01*
X116474327Y-96671022D01*
X116477743Y-96676921D01*
X116495250Y-96685529D01*
X117018075Y-96824948D01*
X116210838Y-97017149D01*
X116193106Y-97025283D01*
X116173049Y-97057875D01*
X116181913Y-97095102D01*
X116214505Y-97115159D01*
X116234000Y-97114429D01*
X117234000Y-96876333D01*
X117251732Y-96868199D01*
X117255651Y-96861829D01*
X117262123Y-96858083D01*
X117265308Y-96846136D01*
X117271789Y-96835607D01*
X117270057Y-96828333D01*
X117271984Y-96821108D01*
X117265788Y-96810406D01*
X117262925Y-96798380D01*
X117256557Y-96794461D01*
X117252810Y-96787989D01*
X117235302Y-96779381D01*
X116702186Y-96637217D01*
X117235302Y-96495053D01*
X117252810Y-96486445D01*
X117256557Y-96479972D01*
X117262925Y-96476054D01*
X117265788Y-96464027D01*
X117271984Y-96453326D01*
X117270057Y-96446100D01*
X117271789Y-96438827D01*
X117265308Y-96428297D01*
X117262123Y-96416351D01*
X117255651Y-96412604D01*
X117251732Y-96406235D01*
X117234000Y-96398101D01*
X116234000Y-96160006D01*
X116214505Y-96159276D01*
X116181913Y-96179333D01*
X116173049Y-96216560D01*
X116061308Y-96216560D01*
X116061308Y-95303884D01*
X116172419Y-95303884D01*
X116172419Y-95684836D01*
X116172907Y-95687292D01*
X116172545Y-95688381D01*
X116174661Y-95696108D01*
X116176225Y-95703970D01*
X116177036Y-95704781D01*
X116177698Y-95707197D01*
X116225316Y-95802434D01*
X116230231Y-95808767D01*
X116234683Y-95815429D01*
X116282301Y-95863048D01*
X116288967Y-95867502D01*
X116295296Y-95872414D01*
X116390534Y-95920033D01*
X116392949Y-95920694D01*
X116393761Y-95921506D01*
X116401622Y-95923069D01*
X116409350Y-95925186D01*
X116410438Y-95924823D01*
X116412895Y-95925312D01*
X116555752Y-95925312D01*
X116558208Y-95924823D01*
X116559297Y-95925186D01*
X116567024Y-95923069D01*
X116574886Y-95921506D01*
X116575697Y-95920694D01*
X116578113Y-95920033D01*
X116673350Y-95872415D01*
X116679683Y-95867499D01*
X116686345Y-95863048D01*
X116733964Y-95815430D01*
X116738418Y-95808763D01*
X116743330Y-95802435D01*
X116790949Y-95707197D01*
X116791610Y-95704781D01*
X116792422Y-95703970D01*
X116793985Y-95696108D01*
X116796102Y-95688381D01*
X116795739Y-95687292D01*
X116796228Y-95684836D01*
X116796228Y-95353884D01*
X117222419Y-95353884D01*
X117241553Y-95350078D01*
X117268613Y-95323018D01*
X117268613Y-95284750D01*
X117241553Y-95257690D01*
X117222419Y-95253884D01*
X116222419Y-95253884D01*
X116203285Y-95257690D01*
X116176225Y-95284750D01*
X116172419Y-95303884D01*
X116061308Y-95303884D01*
X116061308Y-95142773D01*
X117383095Y-95142773D01*
X117383095Y-98179280D01*
G37*
G36*
X134522419Y-97124342D02*
G01*
X134481099Y-97248301D01*
X134399942Y-97329457D01*
X134316872Y-97370993D01*
X134137692Y-97415788D01*
X134007145Y-97415788D01*
X133827966Y-97370993D01*
X133744892Y-97329456D01*
X133663739Y-97248303D01*
X133622419Y-97124341D01*
X133622419Y-96944360D01*
X134522419Y-96944360D01*
X134522419Y-97124342D01*
G37*
G36*
X134403998Y-95891889D02*
G01*
X134483707Y-95971598D01*
X134522419Y-96049020D01*
X134522419Y-96215889D01*
X134483707Y-96293311D01*
X134403998Y-96373020D01*
X134232930Y-96415788D01*
X133911907Y-96415788D01*
X133740837Y-96373020D01*
X133661131Y-96293314D01*
X133622419Y-96215890D01*
X133622419Y-96049020D01*
X133661131Y-95971596D01*
X133740837Y-95891889D01*
X133911907Y-95849122D01*
X134232930Y-95849122D01*
X134403998Y-95891889D01*
G37*
G36*
X134733530Y-98527855D02*
G01*
X133411308Y-98527855D01*
X133411308Y-97894360D01*
X133522419Y-97894360D01*
X133522419Y-98370550D01*
X133526225Y-98389684D01*
X133553285Y-98416744D01*
X133591553Y-98416744D01*
X133618613Y-98389684D01*
X133622419Y-98370550D01*
X133622419Y-97944360D01*
X133998609Y-97944360D01*
X133998609Y-98227693D01*
X134002415Y-98246827D01*
X134029475Y-98273887D01*
X134067743Y-98273887D01*
X134094803Y-98246827D01*
X134098609Y-98227693D01*
X134098609Y-97944360D01*
X134522419Y-97944360D01*
X134522419Y-98370550D01*
X134526225Y-98389684D01*
X134553285Y-98416744D01*
X134591553Y-98416744D01*
X134618613Y-98389684D01*
X134622419Y-98370550D01*
X134622419Y-97894360D01*
X134618613Y-97875226D01*
X134591553Y-97848166D01*
X134572419Y-97844360D01*
X133572419Y-97844360D01*
X133553285Y-97848166D01*
X133526225Y-97875226D01*
X133522419Y-97894360D01*
X133411308Y-97894360D01*
X133411308Y-96894360D01*
X133522419Y-96894360D01*
X133522419Y-97132455D01*
X133523982Y-97140317D01*
X133524985Y-97148266D01*
X133572604Y-97291123D01*
X133573844Y-97293298D01*
X133573844Y-97294446D01*
X133578297Y-97301110D01*
X133582265Y-97308071D01*
X133583291Y-97308584D01*
X133584683Y-97310667D01*
X133679921Y-97405905D01*
X133686580Y-97410355D01*
X133692915Y-97415271D01*
X133788153Y-97462890D01*
X133793434Y-97464336D01*
X133798387Y-97466676D01*
X133988863Y-97514295D01*
X133994980Y-97514592D01*
X134000990Y-97515788D01*
X134143847Y-97515788D01*
X134149856Y-97514592D01*
X134155974Y-97514295D01*
X134346450Y-97466676D01*
X134351402Y-97464336D01*
X134356684Y-97462890D01*
X134451921Y-97415272D01*
X134458249Y-97410360D01*
X134464916Y-97405906D01*
X134560155Y-97310667D01*
X134561545Y-97308585D01*
X134562573Y-97308072D01*
X134566543Y-97301106D01*
X134570994Y-97294446D01*
X134570994Y-97293298D01*
X134572234Y-97291123D01*
X134619853Y-97148267D01*
X134620855Y-97140316D01*
X134622419Y-97132455D01*
X134622419Y-96894360D01*
X134618613Y-96875226D01*
X134591553Y-96848166D01*
X134572419Y-96844360D01*
X133572419Y-96844360D01*
X133553285Y-96848166D01*
X133526225Y-96875226D01*
X133522419Y-96894360D01*
X133411308Y-96894360D01*
X133411308Y-96037217D01*
X133522419Y-96037217D01*
X133522419Y-96227693D01*
X133522907Y-96230149D01*
X133522545Y-96231238D01*
X133524661Y-96238965D01*
X133526225Y-96246827D01*
X133527036Y-96247638D01*
X133527698Y-96250054D01*
X133575316Y-96345291D01*
X133580231Y-96351624D01*
X133584683Y-96358286D01*
X133679921Y-96453524D01*
X133684423Y-96456532D01*
X133685510Y-96458343D01*
X133691048Y-96460959D01*
X133696142Y-96464363D01*
X133698253Y-96464363D01*
X133703149Y-96466676D01*
X133893625Y-96514295D01*
X133899742Y-96514592D01*
X133905752Y-96515788D01*
X134239085Y-96515788D01*
X134245094Y-96514592D01*
X134251212Y-96514295D01*
X134441688Y-96466676D01*
X134446584Y-96464363D01*
X134448695Y-96464363D01*
X134453790Y-96460958D01*
X134459327Y-96458343D01*
X134460412Y-96456534D01*
X134464916Y-96453525D01*
X134560155Y-96358286D01*
X134564605Y-96351626D01*
X134569521Y-96345292D01*
X134617140Y-96250054D01*
X134617801Y-96247638D01*
X134618613Y-96246827D01*
X134620176Y-96238965D01*
X134622293Y-96231238D01*
X134621930Y-96230149D01*
X134622419Y-96227693D01*
X134622419Y-96037217D01*
X134621930Y-96034760D01*
X134622293Y-96033672D01*
X134620176Y-96025944D01*
X134618613Y-96018083D01*
X134617801Y-96017271D01*
X134617140Y-96014856D01*
X134569521Y-95919618D01*
X134564605Y-95913283D01*
X134560155Y-95906624D01*
X134464916Y-95811385D01*
X134460412Y-95808375D01*
X134459327Y-95806567D01*
X134453790Y-95803951D01*
X134448695Y-95800547D01*
X134446584Y-95800547D01*
X134441688Y-95798234D01*
X134251212Y-95750615D01*
X134245094Y-95750317D01*
X134239085Y-95749122D01*
X133905752Y-95749122D01*
X133899742Y-95750317D01*
X133893625Y-95750615D01*
X133703149Y-95798234D01*
X133698253Y-95800547D01*
X133696142Y-95800547D01*
X133691048Y-95803950D01*
X133685510Y-95806567D01*
X133684423Y-95808377D01*
X133679921Y-95811386D01*
X133584683Y-95906624D01*
X133580231Y-95913285D01*
X133575316Y-95919619D01*
X133527698Y-96014856D01*
X133527036Y-96017271D01*
X133526225Y-96018083D01*
X133524661Y-96025944D01*
X133522545Y-96033672D01*
X133522907Y-96034760D01*
X133522419Y-96037217D01*
X133411308Y-96037217D01*
X133411308Y-94701688D01*
X133522467Y-94701688D01*
X133526225Y-94712022D01*
X133526225Y-94723018D01*
X133532507Y-94729300D01*
X133535545Y-94737653D01*
X133551275Y-94749193D01*
X134168469Y-95037217D01*
X133551275Y-95325241D01*
X133535545Y-95336781D01*
X133532507Y-95345133D01*
X133526225Y-95351416D01*
X133526225Y-95362411D01*
X133522467Y-95372746D01*
X133526225Y-95380798D01*
X133526225Y-95389684D01*
X133533999Y-95397458D01*
X133538650Y-95407424D01*
X133547002Y-95410461D01*
X133553285Y-95416744D01*
X133572419Y-95420550D01*
X134572419Y-95420550D01*
X134591553Y-95416744D01*
X134618613Y-95389684D01*
X134618613Y-95351416D01*
X134591553Y-95324356D01*
X134572419Y-95320550D01*
X133797797Y-95320550D01*
X134307849Y-95082526D01*
X134318238Y-95074903D01*
X134320473Y-95074091D01*
X134321059Y-95072833D01*
X134323578Y-95070986D01*
X134329422Y-95054913D01*
X134336656Y-95039413D01*
X134335857Y-95037217D01*
X134336656Y-95035021D01*
X134329422Y-95019520D01*
X134323578Y-95003448D01*
X134321059Y-95001600D01*
X134320473Y-95000343D01*
X134318238Y-94999530D01*
X134307849Y-94991908D01*
X133797797Y-94753884D01*
X134572419Y-94753884D01*
X134591553Y-94750078D01*
X134618613Y-94723018D01*
X134618613Y-94684750D01*
X134591553Y-94657690D01*
X134572419Y-94653884D01*
X133572419Y-94653884D01*
X133553285Y-94657690D01*
X133547002Y-94663972D01*
X133538650Y-94667010D01*
X133533999Y-94676975D01*
X133526225Y-94684750D01*
X133526225Y-94693635D01*
X133522467Y-94701688D01*
X133411308Y-94701688D01*
X133411308Y-94542773D01*
X134733530Y-94542773D01*
X134733530Y-98527855D01*
G37*
G36*
X125796115Y-110372419D02*
G01*
X125476967Y-110372419D01*
X125399544Y-110333708D01*
X125363398Y-110297561D01*
X125324687Y-110220139D01*
X125324687Y-110100888D01*
X125363398Y-110023464D01*
X125396934Y-109989929D01*
X125520895Y-109948609D01*
X125796115Y-109948609D01*
X125796115Y-110372419D01*
G37*
G36*
X125796115Y-109848609D02*
G01*
X125524586Y-109848609D01*
X125447162Y-109809897D01*
X125411017Y-109773753D01*
X125372306Y-109696330D01*
X125372306Y-109624698D01*
X125411017Y-109547274D01*
X125447162Y-109511130D01*
X125524586Y-109472419D01*
X125796115Y-109472419D01*
X125796115Y-109848609D01*
G37*
G36*
X124824363Y-110086704D02*
G01*
X124486915Y-110086704D01*
X124655639Y-109580532D01*
X124824363Y-110086704D01*
G37*
G36*
X126007226Y-110583530D02*
G01*
X122307858Y-110583530D01*
X122307858Y-110022332D01*
X122418969Y-110022332D01*
X122418969Y-110060600D01*
X122446029Y-110087660D01*
X122465163Y-110091466D01*
X122796115Y-110091466D01*
X122796115Y-110422419D01*
X122799921Y-110441553D01*
X122826981Y-110468613D01*
X122865249Y-110468613D01*
X122892309Y-110441553D01*
X122896115Y-110422419D01*
X122896115Y-110091466D01*
X123227067Y-110091466D01*
X123246201Y-110087660D01*
X123273261Y-110060600D01*
X123273261Y-110022332D01*
X123246201Y-109995272D01*
X123227067Y-109991466D01*
X122896115Y-109991466D01*
X122896115Y-109660514D01*
X122892309Y-109641380D01*
X122865249Y-109614320D01*
X122826981Y-109614320D01*
X122799921Y-109641380D01*
X122796115Y-109660514D01*
X122796115Y-109991466D01*
X122465163Y-109991466D01*
X122446029Y-109995272D01*
X122418969Y-110022332D01*
X122307858Y-110022332D01*
X122307858Y-109403285D01*
X123514207Y-109403285D01*
X123514207Y-109441553D01*
X123541267Y-109468613D01*
X123560401Y-109472419D01*
X123796115Y-109472419D01*
X123796115Y-110422419D01*
X123799921Y-110441553D01*
X123826981Y-110468613D01*
X123865249Y-110468613D01*
X123892309Y-110441553D01*
X123895410Y-110425963D01*
X124272432Y-110425963D01*
X124289546Y-110460192D01*
X124325850Y-110472293D01*
X124360079Y-110455179D01*
X124369740Y-110438230D01*
X124453582Y-110186704D01*
X124857696Y-110186704D01*
X124941538Y-110438230D01*
X124951199Y-110455178D01*
X124985428Y-110472293D01*
X125021732Y-110460191D01*
X125038846Y-110425963D01*
X125036406Y-110406607D01*
X124930565Y-110089085D01*
X125224687Y-110089085D01*
X125224687Y-110231942D01*
X125225175Y-110234398D01*
X125224813Y-110235487D01*
X125226929Y-110243214D01*
X125228493Y-110251076D01*
X125229304Y-110251887D01*
X125229966Y-110254303D01*
X125277584Y-110349540D01*
X125282495Y-110355868D01*
X125286950Y-110362535D01*
X125334569Y-110410155D01*
X125341235Y-110414609D01*
X125347564Y-110419521D01*
X125442802Y-110467140D01*
X125445217Y-110467801D01*
X125446029Y-110468613D01*
X125453890Y-110470176D01*
X125461618Y-110472293D01*
X125462706Y-110471930D01*
X125465163Y-110472419D01*
X125846115Y-110472419D01*
X125865249Y-110468613D01*
X125892309Y-110441553D01*
X125896115Y-110422419D01*
X125896115Y-109422419D01*
X125892309Y-109403285D01*
X125865249Y-109376225D01*
X125846115Y-109372419D01*
X125512782Y-109372419D01*
X125510325Y-109372907D01*
X125509237Y-109372545D01*
X125501509Y-109374661D01*
X125493648Y-109376225D01*
X125492836Y-109377036D01*
X125490421Y-109377698D01*
X125395183Y-109425317D01*
X125388854Y-109430228D01*
X125382188Y-109434683D01*
X125334570Y-109482302D01*
X125330118Y-109488963D01*
X125325203Y-109495297D01*
X125277585Y-109590534D01*
X125276923Y-109592949D01*
X125276112Y-109593761D01*
X125274548Y-109601622D01*
X125272432Y-109609350D01*
X125272794Y-109610438D01*
X125272306Y-109612895D01*
X125272306Y-109708133D01*
X125272794Y-109710589D01*
X125272432Y-109711678D01*
X125274548Y-109719405D01*
X125276112Y-109727267D01*
X125276923Y-109728078D01*
X125277585Y-109730494D01*
X125325203Y-109825731D01*
X125330118Y-109832064D01*
X125334570Y-109838726D01*
X125382188Y-109886345D01*
X125385274Y-109888407D01*
X125354114Y-109898794D01*
X125351939Y-109900034D01*
X125350790Y-109900034D01*
X125344123Y-109904488D01*
X125337165Y-109908455D01*
X125336651Y-109909481D01*
X125334569Y-109910873D01*
X125286951Y-109958492D01*
X125282499Y-109965153D01*
X125277584Y-109971487D01*
X125229966Y-110066724D01*
X125229304Y-110069139D01*
X125228493Y-110069951D01*
X125226929Y-110077812D01*
X125224813Y-110085540D01*
X125225175Y-110086628D01*
X125224687Y-110089085D01*
X124930565Y-110089085D01*
X124703073Y-109406608D01*
X124693412Y-109389659D01*
X124690069Y-109387987D01*
X124688399Y-109384647D01*
X124673362Y-109379634D01*
X124659183Y-109372545D01*
X124655638Y-109373726D01*
X124652095Y-109372545D01*
X124637921Y-109379632D01*
X124622879Y-109384646D01*
X124621207Y-109387989D01*
X124617866Y-109389660D01*
X124608205Y-109406608D01*
X124274872Y-110406608D01*
X124272432Y-110425963D01*
X123895410Y-110425963D01*
X123896115Y-110422419D01*
X123896115Y-109472419D01*
X124131829Y-109472419D01*
X124150963Y-109468613D01*
X124178023Y-109441553D01*
X124178023Y-109403285D01*
X124150963Y-109376225D01*
X124131829Y-109372419D01*
X123560401Y-109372419D01*
X123541267Y-109376225D01*
X123514207Y-109403285D01*
X122307858Y-109403285D01*
X122307858Y-109261308D01*
X126007226Y-109261308D01*
X126007226Y-110583530D01*
G37*
G36*
X143546277Y-120883530D02*
G01*
X141755477Y-120883530D01*
X141755477Y-119798523D01*
X141866588Y-119798523D01*
X141866588Y-119836791D01*
X141893648Y-119863851D01*
X141931916Y-119863851D01*
X141948137Y-119853012D01*
X141987410Y-119813739D01*
X142111371Y-119772419D01*
X142190383Y-119772419D01*
X142314344Y-119813739D01*
X142395497Y-119894892D01*
X142437034Y-119977966D01*
X142481829Y-120157145D01*
X142481829Y-120287692D01*
X142437034Y-120466870D01*
X142395497Y-120549944D01*
X142314343Y-120631098D01*
X142190383Y-120672419D01*
X142111371Y-120672419D01*
X141987411Y-120631099D01*
X141948138Y-120591825D01*
X141931917Y-120580986D01*
X141893648Y-120580986D01*
X141866588Y-120608045D01*
X141866588Y-120646314D01*
X141877426Y-120662535D01*
X141925045Y-120710155D01*
X141927127Y-120711546D01*
X141927641Y-120712573D01*
X141934599Y-120716539D01*
X141941266Y-120720994D01*
X141942415Y-120720994D01*
X141944590Y-120722234D01*
X142087446Y-120769853D01*
X142095396Y-120770855D01*
X142103258Y-120772419D01*
X142198496Y-120772419D01*
X142206358Y-120770855D01*
X142214307Y-120769853D01*
X142357164Y-120722234D01*
X142359339Y-120720994D01*
X142360488Y-120720994D01*
X142367158Y-120716536D01*
X142374112Y-120712573D01*
X142374624Y-120711547D01*
X142376709Y-120710155D01*
X142471947Y-120614916D01*
X142476400Y-120608250D01*
X142481312Y-120601922D01*
X142528931Y-120506684D01*
X142530377Y-120501402D01*
X142532717Y-120496450D01*
X142580336Y-120305974D01*
X142580633Y-120299856D01*
X142581829Y-120293847D01*
X142581829Y-120150990D01*
X142580633Y-120144980D01*
X142580336Y-120138863D01*
X142532717Y-119948387D01*
X142530377Y-119943434D01*
X142528931Y-119938153D01*
X142481312Y-119842915D01*
X142476396Y-119836580D01*
X142471946Y-119829921D01*
X142376708Y-119734683D01*
X142374625Y-119733291D01*
X142374112Y-119732265D01*
X142367151Y-119728297D01*
X142360487Y-119723844D01*
X142359339Y-119723844D01*
X142357164Y-119722604D01*
X142299207Y-119703285D01*
X142771350Y-119703285D01*
X142771350Y-119741553D01*
X142798410Y-119768613D01*
X142817544Y-119772419D01*
X143053258Y-119772419D01*
X143053258Y-120722419D01*
X143057064Y-120741553D01*
X143084124Y-120768613D01*
X143122392Y-120768613D01*
X143149452Y-120741553D01*
X143153258Y-120722419D01*
X143153258Y-119772419D01*
X143388972Y-119772419D01*
X143408106Y-119768613D01*
X143435166Y-119741553D01*
X143435166Y-119703285D01*
X143408106Y-119676225D01*
X143388972Y-119672419D01*
X142817544Y-119672419D01*
X142798410Y-119676225D01*
X142771350Y-119703285D01*
X142299207Y-119703285D01*
X142214307Y-119674985D01*
X142206358Y-119673982D01*
X142198496Y-119672419D01*
X142103258Y-119672419D01*
X142095396Y-119673982D01*
X142087446Y-119674985D01*
X141944590Y-119722604D01*
X141942415Y-119723844D01*
X141941266Y-119723844D01*
X141934599Y-119728298D01*
X141927641Y-119732265D01*
X141927127Y-119733291D01*
X141925045Y-119734683D01*
X141877427Y-119782302D01*
X141866588Y-119798523D01*
X141755477Y-119798523D01*
X141755477Y-119561308D01*
X143546277Y-119561308D01*
X143546277Y-120883530D01*
G37*
G36*
X125746115Y-103822419D02*
G01*
X125426967Y-103822419D01*
X125349544Y-103783708D01*
X125313398Y-103747561D01*
X125274687Y-103670139D01*
X125274687Y-103550888D01*
X125313398Y-103473464D01*
X125346934Y-103439929D01*
X125470895Y-103398609D01*
X125746115Y-103398609D01*
X125746115Y-103822419D01*
G37*
G36*
X125746115Y-103298609D02*
G01*
X125474586Y-103298609D01*
X125397162Y-103259897D01*
X125361017Y-103223753D01*
X125322306Y-103146330D01*
X125322306Y-103074698D01*
X125361017Y-102997274D01*
X125397162Y-102961130D01*
X125474586Y-102922419D01*
X125746115Y-102922419D01*
X125746115Y-103298609D01*
G37*
G36*
X124774363Y-103536704D02*
G01*
X124436915Y-103536704D01*
X124605639Y-103030532D01*
X124774363Y-103536704D01*
G37*
G36*
X125957226Y-104033530D02*
G01*
X122257858Y-104033530D01*
X122257858Y-103472332D01*
X122368969Y-103472332D01*
X122368969Y-103510600D01*
X122396029Y-103537660D01*
X122415163Y-103541466D01*
X122746115Y-103541466D01*
X122746115Y-103872419D01*
X122749921Y-103891553D01*
X122776981Y-103918613D01*
X122815249Y-103918613D01*
X122842309Y-103891553D01*
X122846115Y-103872419D01*
X122846115Y-103541466D01*
X123177067Y-103541466D01*
X123196201Y-103537660D01*
X123223261Y-103510600D01*
X123223261Y-103472332D01*
X123196201Y-103445272D01*
X123177067Y-103441466D01*
X122846115Y-103441466D01*
X122846115Y-103110514D01*
X122842309Y-103091380D01*
X122815249Y-103064320D01*
X122776981Y-103064320D01*
X122749921Y-103091380D01*
X122746115Y-103110514D01*
X122746115Y-103441466D01*
X122415163Y-103441466D01*
X122396029Y-103445272D01*
X122368969Y-103472332D01*
X122257858Y-103472332D01*
X122257858Y-102853285D01*
X123464207Y-102853285D01*
X123464207Y-102891553D01*
X123491267Y-102918613D01*
X123510401Y-102922419D01*
X123746115Y-102922419D01*
X123746115Y-103872419D01*
X123749921Y-103891553D01*
X123776981Y-103918613D01*
X123815249Y-103918613D01*
X123842309Y-103891553D01*
X123845410Y-103875963D01*
X124222432Y-103875963D01*
X124239546Y-103910192D01*
X124275850Y-103922293D01*
X124310079Y-103905179D01*
X124319740Y-103888230D01*
X124403582Y-103636704D01*
X124807696Y-103636704D01*
X124891538Y-103888230D01*
X124901199Y-103905178D01*
X124935428Y-103922293D01*
X124971732Y-103910191D01*
X124988846Y-103875963D01*
X124986406Y-103856607D01*
X124880565Y-103539085D01*
X125174687Y-103539085D01*
X125174687Y-103681942D01*
X125175175Y-103684398D01*
X125174813Y-103685487D01*
X125176929Y-103693214D01*
X125178493Y-103701076D01*
X125179304Y-103701887D01*
X125179966Y-103704303D01*
X125227584Y-103799540D01*
X125232495Y-103805868D01*
X125236950Y-103812535D01*
X125284569Y-103860155D01*
X125291235Y-103864609D01*
X125297564Y-103869521D01*
X125392802Y-103917140D01*
X125395217Y-103917801D01*
X125396029Y-103918613D01*
X125403890Y-103920176D01*
X125411618Y-103922293D01*
X125412706Y-103921930D01*
X125415163Y-103922419D01*
X125796115Y-103922419D01*
X125815249Y-103918613D01*
X125842309Y-103891553D01*
X125846115Y-103872419D01*
X125846115Y-102872419D01*
X125842309Y-102853285D01*
X125815249Y-102826225D01*
X125796115Y-102822419D01*
X125462782Y-102822419D01*
X125460325Y-102822907D01*
X125459237Y-102822545D01*
X125451509Y-102824661D01*
X125443648Y-102826225D01*
X125442836Y-102827036D01*
X125440421Y-102827698D01*
X125345183Y-102875317D01*
X125338854Y-102880228D01*
X125332188Y-102884683D01*
X125284570Y-102932302D01*
X125280118Y-102938963D01*
X125275203Y-102945297D01*
X125227585Y-103040534D01*
X125226923Y-103042949D01*
X125226112Y-103043761D01*
X125224548Y-103051622D01*
X125222432Y-103059350D01*
X125222794Y-103060438D01*
X125222306Y-103062895D01*
X125222306Y-103158133D01*
X125222794Y-103160589D01*
X125222432Y-103161678D01*
X125224548Y-103169405D01*
X125226112Y-103177267D01*
X125226923Y-103178078D01*
X125227585Y-103180494D01*
X125275203Y-103275731D01*
X125280118Y-103282064D01*
X125284570Y-103288726D01*
X125332188Y-103336345D01*
X125335274Y-103338407D01*
X125304114Y-103348794D01*
X125301939Y-103350034D01*
X125300790Y-103350034D01*
X125294123Y-103354488D01*
X125287165Y-103358455D01*
X125286651Y-103359481D01*
X125284569Y-103360873D01*
X125236951Y-103408492D01*
X125232499Y-103415153D01*
X125227584Y-103421487D01*
X125179966Y-103516724D01*
X125179304Y-103519139D01*
X125178493Y-103519951D01*
X125176929Y-103527812D01*
X125174813Y-103535540D01*
X125175175Y-103536628D01*
X125174687Y-103539085D01*
X124880565Y-103539085D01*
X124653073Y-102856608D01*
X124643412Y-102839659D01*
X124640069Y-102837987D01*
X124638399Y-102834647D01*
X124623362Y-102829634D01*
X124609183Y-102822545D01*
X124605638Y-102823726D01*
X124602095Y-102822545D01*
X124587921Y-102829632D01*
X124572879Y-102834646D01*
X124571207Y-102837989D01*
X124567866Y-102839660D01*
X124558205Y-102856608D01*
X124224872Y-103856608D01*
X124222432Y-103875963D01*
X123845410Y-103875963D01*
X123846115Y-103872419D01*
X123846115Y-102922419D01*
X124081829Y-102922419D01*
X124100963Y-102918613D01*
X124128023Y-102891553D01*
X124128023Y-102853285D01*
X124100963Y-102826225D01*
X124081829Y-102822419D01*
X123510401Y-102822419D01*
X123491267Y-102826225D01*
X123464207Y-102853285D01*
X122257858Y-102853285D01*
X122257858Y-102711308D01*
X125957226Y-102711308D01*
X125957226Y-104033530D01*
G37*
G36*
X133618530Y-103669209D02*
G01*
X132296308Y-103669209D01*
X132296308Y-103235893D01*
X132408370Y-103235893D01*
X132411225Y-103240175D01*
X132411225Y-103245324D01*
X132421521Y-103255620D01*
X132429597Y-103267734D01*
X132434644Y-103268743D01*
X132438285Y-103272384D01*
X132457419Y-103276190D01*
X133407419Y-103276190D01*
X133407419Y-103511904D01*
X133411225Y-103531038D01*
X133438285Y-103558098D01*
X133476553Y-103558098D01*
X133503613Y-103531038D01*
X133507419Y-103511904D01*
X133507419Y-102940476D01*
X133503613Y-102921342D01*
X133476553Y-102894282D01*
X133438285Y-102894282D01*
X133411225Y-102921342D01*
X133407419Y-102940476D01*
X133407419Y-103176190D01*
X132622557Y-103176190D01*
X132628011Y-103172554D01*
X132631515Y-103169057D01*
X132635631Y-103166307D01*
X132730869Y-103071069D01*
X132735319Y-103064409D01*
X132740235Y-103058075D01*
X132787854Y-102962837D01*
X132793007Y-102944021D01*
X132780905Y-102907716D01*
X132746677Y-102890602D01*
X132710373Y-102902704D01*
X132698411Y-102918116D01*
X132654420Y-103006097D01*
X132568425Y-103092093D01*
X132429684Y-103184587D01*
X132415875Y-103198368D01*
X132414865Y-103203415D01*
X132411225Y-103207056D01*
X132411225Y-103221618D01*
X132408370Y-103235893D01*
X132296308Y-103235893D01*
X132296308Y-102283512D01*
X132408370Y-102283512D01*
X132411225Y-102287794D01*
X132411225Y-102292943D01*
X132421521Y-102303239D01*
X132429597Y-102315353D01*
X132434644Y-102316362D01*
X132438285Y-102320003D01*
X132457419Y-102323809D01*
X133407419Y-102323809D01*
X133407419Y-102559523D01*
X133411225Y-102578657D01*
X133438285Y-102605717D01*
X133476553Y-102605717D01*
X133503613Y-102578657D01*
X133507419Y-102559523D01*
X133507419Y-101988095D01*
X133503613Y-101968961D01*
X133476553Y-101941901D01*
X133438285Y-101941901D01*
X133411225Y-101968961D01*
X133407419Y-101988095D01*
X133407419Y-102223809D01*
X132622557Y-102223809D01*
X132628011Y-102220173D01*
X132631515Y-102216676D01*
X132635631Y-102213926D01*
X132730869Y-102118688D01*
X132735319Y-102112028D01*
X132740235Y-102105694D01*
X132787854Y-102010456D01*
X132793007Y-101991640D01*
X132780905Y-101955335D01*
X132746677Y-101938221D01*
X132710373Y-101950323D01*
X132698411Y-101965735D01*
X132654420Y-102053716D01*
X132568425Y-102139712D01*
X132429684Y-102232206D01*
X132415875Y-102245987D01*
X132414865Y-102251034D01*
X132411225Y-102254675D01*
X132411225Y-102269237D01*
X132408370Y-102283512D01*
X132296308Y-102283512D01*
X132296308Y-101321428D01*
X132407419Y-101321428D01*
X132407419Y-101416666D01*
X132408982Y-101424528D01*
X132409985Y-101432477D01*
X132457604Y-101575334D01*
X132458844Y-101577509D01*
X132458844Y-101578657D01*
X132463297Y-101585321D01*
X132467265Y-101592282D01*
X132468291Y-101592795D01*
X132469683Y-101594878D01*
X132517301Y-101642497D01*
X132533522Y-101653336D01*
X132571791Y-101653336D01*
X132598851Y-101626276D01*
X132598851Y-101588007D01*
X132588012Y-101571786D01*
X132548739Y-101532514D01*
X132507419Y-101408552D01*
X132507419Y-101329541D01*
X132548739Y-101205579D01*
X132629892Y-101124426D01*
X132712966Y-101082889D01*
X132892145Y-101038095D01*
X133022692Y-101038095D01*
X133201872Y-101082890D01*
X133284942Y-101124425D01*
X133366099Y-101205581D01*
X133407419Y-101329541D01*
X133407419Y-101408553D01*
X133366099Y-101532512D01*
X133326825Y-101571786D01*
X133315986Y-101588007D01*
X133315986Y-101626276D01*
X133343045Y-101653336D01*
X133381314Y-101653336D01*
X133397535Y-101642498D01*
X133445155Y-101594879D01*
X133446546Y-101592796D01*
X133447573Y-101592283D01*
X133451539Y-101585324D01*
X133455994Y-101578658D01*
X133455994Y-101577509D01*
X133457234Y-101575334D01*
X133504853Y-101432478D01*
X133505855Y-101424527D01*
X133507419Y-101416666D01*
X133507419Y-101321428D01*
X133505855Y-101313566D01*
X133504853Y-101305616D01*
X133457234Y-101162760D01*
X133455994Y-101160584D01*
X133455994Y-101159437D01*
X133451543Y-101152776D01*
X133447573Y-101145811D01*
X133446545Y-101145297D01*
X133445155Y-101143216D01*
X133349916Y-101047977D01*
X133343249Y-101043522D01*
X133336921Y-101038611D01*
X133241684Y-100990993D01*
X133236402Y-100989546D01*
X133231450Y-100987207D01*
X133040974Y-100939588D01*
X133034856Y-100939290D01*
X133028847Y-100938095D01*
X132885990Y-100938095D01*
X132879980Y-100939290D01*
X132873863Y-100939588D01*
X132683387Y-100987207D01*
X132678434Y-100989546D01*
X132673153Y-100990993D01*
X132577915Y-101038612D01*
X132571580Y-101043527D01*
X132564921Y-101047978D01*
X132469683Y-101143216D01*
X132468291Y-101145298D01*
X132467265Y-101145812D01*
X132463297Y-101152772D01*
X132458844Y-101159437D01*
X132458844Y-101160584D01*
X132457604Y-101162760D01*
X132409985Y-101305617D01*
X132408982Y-101313565D01*
X132407419Y-101321428D01*
X132296308Y-101321428D01*
X132296308Y-100826984D01*
X133618530Y-100826984D01*
X133618530Y-103669209D01*
G37*
G36*
X136431228Y-103904862D02*
G01*
X136392516Y-103982285D01*
X136356372Y-104018430D01*
X136278949Y-104057142D01*
X136159699Y-104057142D01*
X136082275Y-104018430D01*
X136046130Y-103982286D01*
X136007419Y-103904863D01*
X136007419Y-103585714D01*
X136431228Y-103585714D01*
X136431228Y-103904862D01*
G37*
G36*
X137118530Y-106173015D02*
G01*
X135796308Y-106173015D01*
X135796308Y-105392857D01*
X135907419Y-105392857D01*
X135907419Y-106011904D01*
X135910193Y-106025850D01*
X135910055Y-106027923D01*
X135910767Y-106028737D01*
X135911225Y-106031038D01*
X135923665Y-106043478D01*
X135935254Y-106056723D01*
X135937028Y-106056841D01*
X135938285Y-106058098D01*
X135955884Y-106058098D01*
X135973438Y-106059268D01*
X135975470Y-106058098D01*
X135976553Y-106058098D01*
X135978023Y-106056627D01*
X135990344Y-106049533D01*
X136288371Y-105788759D01*
X136288371Y-105821428D01*
X136288859Y-105823884D01*
X136288497Y-105824973D01*
X136290613Y-105832700D01*
X136292177Y-105840562D01*
X136292988Y-105841373D01*
X136293650Y-105843789D01*
X136341268Y-105939026D01*
X136346183Y-105945359D01*
X136350635Y-105952021D01*
X136398253Y-105999640D01*
X136404919Y-106004094D01*
X136411248Y-106009006D01*
X136506486Y-106056625D01*
X136508901Y-106057286D01*
X136509713Y-106058098D01*
X136517574Y-106059661D01*
X136525302Y-106061778D01*
X136526390Y-106061415D01*
X136528847Y-106061904D01*
X136766942Y-106061904D01*
X136769398Y-106061415D01*
X136770487Y-106061778D01*
X136778214Y-106059661D01*
X136786076Y-106058098D01*
X136786887Y-106057286D01*
X136789303Y-106056625D01*
X136884540Y-106009007D01*
X136890868Y-106004095D01*
X136897535Y-105999641D01*
X136945155Y-105952022D01*
X136949609Y-105945355D01*
X136954521Y-105939027D01*
X137002140Y-105843789D01*
X137002801Y-105841373D01*
X137003613Y-105840562D01*
X137005176Y-105832700D01*
X137007293Y-105824973D01*
X137006930Y-105823884D01*
X137007419Y-105821428D01*
X137007419Y-105535714D01*
X137006930Y-105533257D01*
X137007293Y-105532169D01*
X137005176Y-105524441D01*
X137003613Y-105516580D01*
X137002801Y-105515768D01*
X137002140Y-105513353D01*
X136954521Y-105418115D01*
X136949609Y-105411786D01*
X136945155Y-105405120D01*
X136897535Y-105357501D01*
X136881314Y-105346663D01*
X136843045Y-105346663D01*
X136815986Y-105373723D01*
X136815986Y-105411992D01*
X136826825Y-105428213D01*
X136868708Y-105470095D01*
X136907419Y-105547517D01*
X136907419Y-105809624D01*
X136868708Y-105887046D01*
X136832561Y-105923192D01*
X136755139Y-105961904D01*
X136540651Y-105961904D01*
X136463227Y-105923192D01*
X136427082Y-105887048D01*
X136388371Y-105809625D01*
X136388371Y-105678571D01*
X136385596Y-105664624D01*
X136385735Y-105662552D01*
X136385022Y-105661737D01*
X136384565Y-105659437D01*
X136372124Y-105646996D01*
X136360536Y-105633752D01*
X136358761Y-105633633D01*
X136357505Y-105632377D01*
X136339906Y-105632377D01*
X136322352Y-105631207D01*
X136320320Y-105632377D01*
X136319237Y-105632377D01*
X136317766Y-105633847D01*
X136305446Y-105640942D01*
X136007419Y-105901715D01*
X136007419Y-105392857D01*
X136003613Y-105373723D01*
X135976553Y-105346663D01*
X135938285Y-105346663D01*
X135911225Y-105373723D01*
X135907419Y-105392857D01*
X135796308Y-105392857D01*
X135796308Y-104783512D01*
X135908370Y-104783512D01*
X135911225Y-104787794D01*
X135911225Y-104792943D01*
X135921521Y-104803239D01*
X135929597Y-104815353D01*
X135934644Y-104816362D01*
X135938285Y-104820003D01*
X135957419Y-104823809D01*
X136907419Y-104823809D01*
X136907419Y-105059523D01*
X136911225Y-105078657D01*
X136938285Y-105105717D01*
X136976553Y-105105717D01*
X137003613Y-105078657D01*
X137007419Y-105059523D01*
X137007419Y-104488095D01*
X137003613Y-104468961D01*
X136976553Y-104441901D01*
X136938285Y-104441901D01*
X136911225Y-104468961D01*
X136907419Y-104488095D01*
X136907419Y-104723809D01*
X136122557Y-104723809D01*
X136128011Y-104720173D01*
X136131515Y-104716676D01*
X136135631Y-104713926D01*
X136230869Y-104618688D01*
X136235319Y-104612028D01*
X136240235Y-104605694D01*
X136287854Y-104510456D01*
X136293007Y-104491640D01*
X136280905Y-104455335D01*
X136246677Y-104438221D01*
X136210373Y-104450323D01*
X136198411Y-104465735D01*
X136154420Y-104553716D01*
X136068425Y-104639712D01*
X135929684Y-104732206D01*
X135915875Y-104745987D01*
X135914865Y-104751034D01*
X135911225Y-104754675D01*
X135911225Y-104769237D01*
X135908370Y-104783512D01*
X135796308Y-104783512D01*
X135796308Y-103535714D01*
X135907419Y-103535714D01*
X135907419Y-103916666D01*
X135907907Y-103919122D01*
X135907545Y-103920211D01*
X135909661Y-103927938D01*
X135911225Y-103935800D01*
X135912036Y-103936611D01*
X135912698Y-103939027D01*
X135960316Y-104034264D01*
X135965231Y-104040597D01*
X135969683Y-104047259D01*
X136017301Y-104094878D01*
X136023967Y-104099332D01*
X136030296Y-104104244D01*
X136125534Y-104151863D01*
X136127949Y-104152524D01*
X136128761Y-104153336D01*
X136136622Y-104154899D01*
X136144350Y-104157016D01*
X136145438Y-104156653D01*
X136147895Y-104157142D01*
X136290752Y-104157142D01*
X136293208Y-104156653D01*
X136294297Y-104157016D01*
X136302024Y-104154899D01*
X136309886Y-104153336D01*
X136310697Y-104152524D01*
X136313113Y-104151863D01*
X136408350Y-104104245D01*
X136414683Y-104099329D01*
X136421345Y-104094878D01*
X136468964Y-104047260D01*
X136473418Y-104040593D01*
X136478330Y-104034265D01*
X136525949Y-103939027D01*
X136526610Y-103936611D01*
X136527422Y-103935800D01*
X136528985Y-103927938D01*
X136531102Y-103920211D01*
X136530739Y-103919122D01*
X136531228Y-103916666D01*
X136531228Y-103869841D01*
X136928746Y-104148104D01*
X136946604Y-104155958D01*
X136984290Y-104149308D01*
X137006235Y-104117957D01*
X136999585Y-104080271D01*
X136986092Y-104066180D01*
X136531228Y-103747775D01*
X136531228Y-103585714D01*
X136957419Y-103585714D01*
X136976553Y-103581908D01*
X137003613Y-103554848D01*
X137003613Y-103516580D01*
X136976553Y-103489520D01*
X136957419Y-103485714D01*
X135957419Y-103485714D01*
X135938285Y-103489520D01*
X135911225Y-103516580D01*
X135907419Y-103535714D01*
X135796308Y-103535714D01*
X135796308Y-103374603D01*
X137118530Y-103374603D01*
X137118530Y-106173015D01*
G37*
D11*
G36*
X143523429Y-110102777D02*
G01*
X142151207Y-110102777D01*
X142151207Y-109488095D01*
X142262318Y-109488095D01*
X142262318Y-109726190D01*
X142263759Y-109740822D01*
X142264790Y-109743311D01*
X142264981Y-109745999D01*
X142270236Y-109759731D01*
X142317855Y-109854969D01*
X142321819Y-109861268D01*
X142322577Y-109863096D01*
X142324265Y-109865152D01*
X142325687Y-109867412D01*
X142327185Y-109868711D01*
X142331904Y-109874461D01*
X142379523Y-109922080D01*
X142385272Y-109926798D01*
X142386572Y-109928297D01*
X142388831Y-109929718D01*
X142390888Y-109931407D01*
X142392715Y-109932164D01*
X142399015Y-109936129D01*
X142494253Y-109983748D01*
X142507984Y-109989003D01*
X142510673Y-109989194D01*
X142513162Y-109990225D01*
X142527794Y-109991666D01*
X142623032Y-109991666D01*
X142630437Y-109990936D01*
X142632412Y-109991077D01*
X142635009Y-109990486D01*
X142637664Y-109990225D01*
X142639495Y-109989466D01*
X142646749Y-109987817D01*
X142789606Y-109940198D01*
X142803031Y-109934204D01*
X142805066Y-109932438D01*
X142807557Y-109931407D01*
X142818922Y-109922080D01*
X143262318Y-109478684D01*
X143262318Y-109916666D01*
X143263759Y-109931298D01*
X143274958Y-109958334D01*
X143295650Y-109979026D01*
X143322686Y-109990225D01*
X143351950Y-109990225D01*
X143378986Y-109979026D01*
X143399678Y-109958334D01*
X143410877Y-109931298D01*
X143412318Y-109916666D01*
X143412318Y-109297619D01*
X143410877Y-109282987D01*
X143406193Y-109271679D01*
X143399679Y-109255951D01*
X143378986Y-109235259D01*
X143351950Y-109224060D01*
X143322686Y-109224060D01*
X143314767Y-109227339D01*
X143295650Y-109235258D01*
X143284285Y-109244586D01*
X142725375Y-109803494D01*
X142610862Y-109841666D01*
X142545499Y-109841666D01*
X142476983Y-109807408D01*
X142446576Y-109777001D01*
X142412318Y-109708485D01*
X142412318Y-109505800D01*
X142446576Y-109437284D01*
X142485589Y-109398271D01*
X142494916Y-109386906D01*
X142506115Y-109359870D01*
X142506115Y-109330607D01*
X142494916Y-109303571D01*
X142474223Y-109282878D01*
X142447187Y-109271679D01*
X142417924Y-109271679D01*
X142390888Y-109282878D01*
X142379523Y-109292205D01*
X142331904Y-109339824D01*
X142327185Y-109345573D01*
X142325687Y-109346873D01*
X142324265Y-109349132D01*
X142322577Y-109351189D01*
X142321819Y-109353016D01*
X142317855Y-109359316D01*
X142270236Y-109454554D01*
X142264981Y-109468286D01*
X142264790Y-109470973D01*
X142263759Y-109473463D01*
X142262318Y-109488095D01*
X142151207Y-109488095D01*
X142151207Y-108902034D01*
X142263759Y-108902034D01*
X142263759Y-108931298D01*
X142274958Y-108958334D01*
X142295650Y-108979026D01*
X142322686Y-108990225D01*
X142337318Y-108991666D01*
X143051603Y-108991666D01*
X143059008Y-108990936D01*
X143060983Y-108991077D01*
X143063580Y-108990486D01*
X143066235Y-108990225D01*
X143068066Y-108989466D01*
X143075320Y-108987817D01*
X143218177Y-108940198D01*
X143231602Y-108934204D01*
X143233636Y-108932439D01*
X143236127Y-108931408D01*
X143247493Y-108922080D01*
X143342732Y-108826842D01*
X143352060Y-108815477D01*
X143353091Y-108812986D01*
X143354856Y-108810952D01*
X143360850Y-108797526D01*
X143408469Y-108654670D01*
X143410118Y-108647414D01*
X143410877Y-108645584D01*
X143411138Y-108642930D01*
X143411729Y-108640333D01*
X143411588Y-108638358D01*
X143412318Y-108630952D01*
X143412318Y-108535714D01*
X143410877Y-108521082D01*
X143399678Y-108494046D01*
X143378986Y-108473354D01*
X143351950Y-108462155D01*
X143322686Y-108462155D01*
X143295650Y-108473354D01*
X143274958Y-108494046D01*
X143263759Y-108521082D01*
X143262318Y-108535714D01*
X143262318Y-108618782D01*
X143224147Y-108733294D01*
X143153946Y-108803494D01*
X143039433Y-108841666D01*
X142337318Y-108841666D01*
X142322686Y-108843107D01*
X142295650Y-108854306D01*
X142274958Y-108874998D01*
X142263759Y-108902034D01*
X142151207Y-108902034D01*
X142151207Y-108351044D01*
X143523429Y-108351044D01*
X143523429Y-110102777D01*
G37*
G36*
X122448015Y-119140930D02*
G01*
X120504365Y-119140930D01*
X120504365Y-118526247D01*
X120615476Y-118526247D01*
X120615476Y-118764342D01*
X120616917Y-118778974D01*
X120617948Y-118781463D01*
X120618139Y-118784151D01*
X120623394Y-118797883D01*
X120671013Y-118893121D01*
X120674976Y-118899417D01*
X120675734Y-118901247D01*
X120677423Y-118903305D01*
X120678845Y-118905564D01*
X120680343Y-118906863D01*
X120685061Y-118912612D01*
X120732680Y-118960232D01*
X120738429Y-118964950D01*
X120739730Y-118966450D01*
X120741989Y-118967872D01*
X120744046Y-118969560D01*
X120745873Y-118970317D01*
X120752173Y-118974282D01*
X120847411Y-119021901D01*
X120861142Y-119027156D01*
X120863831Y-119027347D01*
X120866320Y-119028378D01*
X120880952Y-119029819D01*
X121119047Y-119029819D01*
X121133679Y-119028378D01*
X121136168Y-119027346D01*
X121138856Y-119027156D01*
X121152588Y-119021901D01*
X121247826Y-118974282D01*
X121254125Y-118970317D01*
X121255953Y-118969560D01*
X121258009Y-118967872D01*
X121260269Y-118966450D01*
X121261569Y-118964950D01*
X121267319Y-118960232D01*
X121314937Y-118912613D01*
X121324265Y-118901247D01*
X121335463Y-118874211D01*
X121335463Y-118844948D01*
X121324264Y-118817912D01*
X121303571Y-118797219D01*
X121276535Y-118786021D01*
X121247272Y-118786021D01*
X121220236Y-118797220D01*
X121208870Y-118806548D01*
X121169857Y-118845561D01*
X121101342Y-118879819D01*
X120898657Y-118879819D01*
X120830141Y-118845561D01*
X120799734Y-118815153D01*
X120765476Y-118746637D01*
X120765476Y-118543952D01*
X120799734Y-118475436D01*
X120830141Y-118445029D01*
X120898657Y-118410771D01*
X121101342Y-118410771D01*
X121169858Y-118445029D01*
X121208871Y-118484042D01*
X121220236Y-118493369D01*
X121223724Y-118494814D01*
X121226648Y-118497206D01*
X121237145Y-118500373D01*
X121247272Y-118504568D01*
X121251048Y-118504568D01*
X121254664Y-118505659D01*
X121265574Y-118504568D01*
X121276535Y-118504568D01*
X121280023Y-118503122D01*
X121283783Y-118502747D01*
X121293446Y-118497562D01*
X121303571Y-118493369D01*
X121306241Y-118490698D01*
X121309570Y-118488913D01*
X121316515Y-118480424D01*
X121324264Y-118472676D01*
X121325708Y-118469189D01*
X121328101Y-118466265D01*
X121331269Y-118455764D01*
X121335463Y-118445640D01*
X121335463Y-118441864D01*
X121336554Y-118438249D01*
X121336532Y-118423546D01*
X121289659Y-117954819D01*
X121615476Y-117954819D01*
X121615476Y-118764342D01*
X121616917Y-118778974D01*
X121617948Y-118781463D01*
X121618139Y-118784151D01*
X121623394Y-118797883D01*
X121671013Y-118893121D01*
X121674976Y-118899417D01*
X121675734Y-118901247D01*
X121677423Y-118903305D01*
X121678845Y-118905564D01*
X121680343Y-118906863D01*
X121685061Y-118912612D01*
X121732680Y-118960232D01*
X121738429Y-118964950D01*
X121739730Y-118966450D01*
X121741989Y-118967872D01*
X121744046Y-118969560D01*
X121745873Y-118970317D01*
X121752173Y-118974282D01*
X121847411Y-119021901D01*
X121861142Y-119027156D01*
X121863831Y-119027347D01*
X121866320Y-119028378D01*
X121880952Y-119029819D01*
X122071428Y-119029819D01*
X122086060Y-119028378D01*
X122088549Y-119027346D01*
X122091237Y-119027156D01*
X122104969Y-119021901D01*
X122200207Y-118974282D01*
X122206506Y-118970317D01*
X122208334Y-118969560D01*
X122210390Y-118967872D01*
X122212650Y-118966450D01*
X122213950Y-118964950D01*
X122219700Y-118960232D01*
X122267318Y-118912613D01*
X122272036Y-118906863D01*
X122273535Y-118905564D01*
X122274956Y-118903305D01*
X122276646Y-118901247D01*
X122277403Y-118899417D01*
X122281367Y-118893121D01*
X122328986Y-118797883D01*
X122334241Y-118784152D01*
X122334432Y-118781462D01*
X122335463Y-118778974D01*
X122336904Y-118764342D01*
X122336904Y-117954819D01*
X122335463Y-117940187D01*
X122324264Y-117913151D01*
X122303572Y-117892459D01*
X122276536Y-117881260D01*
X122247272Y-117881260D01*
X122220236Y-117892459D01*
X122199544Y-117913151D01*
X122188345Y-117940187D01*
X122186904Y-117954819D01*
X122186904Y-118746637D01*
X122152645Y-118815153D01*
X122122238Y-118845561D01*
X122053723Y-118879819D01*
X121898657Y-118879819D01*
X121830141Y-118845561D01*
X121799734Y-118815153D01*
X121765476Y-118746637D01*
X121765476Y-117954819D01*
X121764035Y-117940187D01*
X121752836Y-117913151D01*
X121732144Y-117892459D01*
X121705108Y-117881260D01*
X121675844Y-117881260D01*
X121648808Y-117892459D01*
X121628116Y-117913151D01*
X121616917Y-117940187D01*
X121615476Y-117954819D01*
X121289659Y-117954819D01*
X121288913Y-117947356D01*
X121287844Y-117942023D01*
X121287844Y-117940187D01*
X121287130Y-117938464D01*
X121286023Y-117932940D01*
X121280840Y-117923280D01*
X121276645Y-117913151D01*
X121273973Y-117910479D01*
X121272189Y-117907153D01*
X121263706Y-117900212D01*
X121255953Y-117892459D01*
X121252464Y-117891013D01*
X121249541Y-117888622D01*
X121239043Y-117885454D01*
X121228917Y-117881260D01*
X121223311Y-117880707D01*
X121221525Y-117880169D01*
X121219696Y-117880351D01*
X121214285Y-117879819D01*
X120738095Y-117879819D01*
X120723463Y-117881260D01*
X120696427Y-117892459D01*
X120675735Y-117913151D01*
X120664536Y-117940187D01*
X120664536Y-117969451D01*
X120675735Y-117996487D01*
X120696427Y-118017179D01*
X120723463Y-118028378D01*
X120738095Y-118029819D01*
X121146411Y-118029819D01*
X121171229Y-118278009D01*
X121152588Y-118268689D01*
X121138856Y-118263434D01*
X121136168Y-118263243D01*
X121133679Y-118262212D01*
X121119047Y-118260771D01*
X120880952Y-118260771D01*
X120866320Y-118262212D01*
X120863831Y-118263242D01*
X120861142Y-118263434D01*
X120847411Y-118268689D01*
X120752173Y-118316308D01*
X120745873Y-118320272D01*
X120744046Y-118321030D01*
X120741989Y-118322718D01*
X120739730Y-118324140D01*
X120738430Y-118325638D01*
X120732681Y-118330357D01*
X120685062Y-118377976D01*
X120680343Y-118383725D01*
X120678845Y-118385025D01*
X120677423Y-118387284D01*
X120675735Y-118389341D01*
X120674977Y-118391168D01*
X120671013Y-118397468D01*
X120623394Y-118492706D01*
X120618139Y-118506438D01*
X120617948Y-118509125D01*
X120616917Y-118511615D01*
X120615476Y-118526247D01*
X120504365Y-118526247D01*
X120504365Y-117768708D01*
X122448015Y-117768708D01*
X122448015Y-119140930D01*
G37*
D10*
G36*
X126660857Y-109427082D02*
G01*
X126697001Y-109463227D01*
X126735713Y-109540650D01*
X126735713Y-109755138D01*
X126697001Y-109832561D01*
X126660855Y-109868708D01*
X126583434Y-109907419D01*
X126416565Y-109907419D01*
X126339142Y-109868708D01*
X126302996Y-109832561D01*
X126264285Y-109755139D01*
X126264285Y-109540650D01*
X126302996Y-109463226D01*
X126339141Y-109427082D01*
X126416565Y-109388371D01*
X126583434Y-109388371D01*
X126660857Y-109427082D01*
G37*
G36*
X127688094Y-109431228D02*
G01*
X127368946Y-109431228D01*
X127291522Y-109392516D01*
X127255377Y-109356372D01*
X127216666Y-109278949D01*
X127216666Y-109159698D01*
X127255377Y-109082274D01*
X127291522Y-109046130D01*
X127368946Y-109007419D01*
X127688094Y-109007419D01*
X127688094Y-109431228D01*
G37*
G36*
X127899205Y-110118530D02*
G01*
X126053174Y-110118530D01*
X126053174Y-109528847D01*
X126164285Y-109528847D01*
X126164285Y-109766942D01*
X126164773Y-109769398D01*
X126164411Y-109770487D01*
X126166527Y-109778214D01*
X126168091Y-109786076D01*
X126168902Y-109786887D01*
X126169564Y-109789303D01*
X126217182Y-109884540D01*
X126222093Y-109890868D01*
X126226548Y-109897535D01*
X126274167Y-109945155D01*
X126280833Y-109949609D01*
X126287162Y-109954521D01*
X126382400Y-110002140D01*
X126384815Y-110002801D01*
X126385627Y-110003613D01*
X126393488Y-110005176D01*
X126401216Y-110007293D01*
X126402304Y-110006930D01*
X126404761Y-110007419D01*
X126595237Y-110007419D01*
X126597693Y-110006930D01*
X126598782Y-110007293D01*
X126606509Y-110005176D01*
X126614371Y-110003613D01*
X126615182Y-110002801D01*
X126617598Y-110002140D01*
X126712835Y-109954522D01*
X126719162Y-109949611D01*
X126725831Y-109945155D01*
X126773450Y-109897535D01*
X126777903Y-109890869D01*
X126782815Y-109884541D01*
X126830434Y-109789303D01*
X126831095Y-109786887D01*
X126831907Y-109786076D01*
X126833470Y-109778214D01*
X126835587Y-109770487D01*
X126835224Y-109769398D01*
X126835713Y-109766942D01*
X126835713Y-109385990D01*
X126834517Y-109379980D01*
X126834220Y-109373863D01*
X126786601Y-109183387D01*
X126782959Y-109175679D01*
X126779697Y-109167779D01*
X126766441Y-109147895D01*
X127116666Y-109147895D01*
X127116666Y-109290752D01*
X127117154Y-109293208D01*
X127116792Y-109294297D01*
X127118908Y-109302024D01*
X127120472Y-109309886D01*
X127121283Y-109310697D01*
X127121945Y-109313113D01*
X127169563Y-109408350D01*
X127174478Y-109414683D01*
X127178930Y-109421345D01*
X127226548Y-109468964D01*
X127233214Y-109473418D01*
X127239543Y-109478330D01*
X127334781Y-109525949D01*
X127337196Y-109526610D01*
X127338008Y-109527422D01*
X127345869Y-109528985D01*
X127353597Y-109531102D01*
X127354685Y-109530739D01*
X127357142Y-109531228D01*
X127403966Y-109531228D01*
X127125704Y-109928746D01*
X127117850Y-109946604D01*
X127124500Y-109984290D01*
X127155851Y-110006235D01*
X127193537Y-109999585D01*
X127207628Y-109986092D01*
X127526032Y-109531228D01*
X127688094Y-109531228D01*
X127688094Y-109957419D01*
X127691900Y-109976553D01*
X127718960Y-110003613D01*
X127757228Y-110003613D01*
X127784288Y-109976553D01*
X127788094Y-109957419D01*
X127788094Y-108957419D01*
X127784288Y-108938285D01*
X127757228Y-108911225D01*
X127738094Y-108907419D01*
X127357142Y-108907419D01*
X127354685Y-108907907D01*
X127353597Y-108907545D01*
X127345869Y-108909661D01*
X127338008Y-108911225D01*
X127337196Y-108912036D01*
X127334781Y-108912698D01*
X127239543Y-108960317D01*
X127233214Y-108965228D01*
X127226548Y-108969683D01*
X127178930Y-109017302D01*
X127174478Y-109023963D01*
X127169563Y-109030297D01*
X127121945Y-109125534D01*
X127121283Y-109127949D01*
X127120472Y-109128761D01*
X127118908Y-109136622D01*
X127116792Y-109144350D01*
X127117154Y-109145438D01*
X127116666Y-109147895D01*
X126766441Y-109147895D01*
X126684459Y-109024922D01*
X126680961Y-109021417D01*
X126678211Y-109017301D01*
X126630592Y-108969683D01*
X126623930Y-108965231D01*
X126617597Y-108960316D01*
X126522360Y-108912698D01*
X126519944Y-108912036D01*
X126519133Y-108911225D01*
X126511271Y-108909661D01*
X126503544Y-108907545D01*
X126502455Y-108907907D01*
X126499999Y-108907419D01*
X126309523Y-108907419D01*
X126290389Y-108911225D01*
X126263329Y-108938285D01*
X126263329Y-108976553D01*
X126290389Y-109003613D01*
X126309523Y-109007419D01*
X126488196Y-109007419D01*
X126565619Y-109046130D01*
X126603998Y-109084510D01*
X126691687Y-109216041D01*
X126725236Y-109350238D01*
X126719168Y-109346183D01*
X126712835Y-109341268D01*
X126617598Y-109293650D01*
X126615182Y-109292988D01*
X126614371Y-109292177D01*
X126606509Y-109290613D01*
X126598782Y-109288497D01*
X126597693Y-109288859D01*
X126595237Y-109288371D01*
X126404761Y-109288371D01*
X126402304Y-109288859D01*
X126401216Y-109288497D01*
X126393488Y-109290613D01*
X126385627Y-109292177D01*
X126384815Y-109292988D01*
X126382400Y-109293650D01*
X126287162Y-109341269D01*
X126280833Y-109346180D01*
X126274167Y-109350635D01*
X126226549Y-109398254D01*
X126222097Y-109404915D01*
X126217182Y-109411249D01*
X126169564Y-109506486D01*
X126168902Y-109508901D01*
X126168091Y-109509713D01*
X126166527Y-109517574D01*
X126164411Y-109525302D01*
X126164773Y-109526390D01*
X126164285Y-109528847D01*
X126053174Y-109528847D01*
X126053174Y-108796308D01*
X127899205Y-108796308D01*
X127899205Y-110118530D01*
G37*
D11*
G36*
X114025098Y-106491726D02*
G01*
X112271143Y-106491726D01*
X112271143Y-105876295D01*
X112382408Y-105876295D01*
X112382408Y-106114720D01*
X112383849Y-106129352D01*
X112384880Y-106131841D01*
X112385071Y-106134529D01*
X112390326Y-106148261D01*
X112438011Y-106243631D01*
X112441973Y-106249925D01*
X112442732Y-106251757D01*
X112444425Y-106253820D01*
X112445844Y-106256074D01*
X112447338Y-106257370D01*
X112452059Y-106263122D01*
X112499744Y-106310808D01*
X112505495Y-106315528D01*
X112506794Y-106317026D01*
X112509049Y-106318445D01*
X112511109Y-106320136D01*
X112512939Y-106320894D01*
X112519237Y-106324858D01*
X112614607Y-106372543D01*
X112628339Y-106377798D01*
X112631026Y-106377988D01*
X112633516Y-106379020D01*
X112648148Y-106380461D01*
X112934258Y-106380461D01*
X112948890Y-106379020D01*
X112951379Y-106377988D01*
X112954067Y-106377798D01*
X112967799Y-106372543D01*
X113063169Y-106324858D01*
X113069465Y-106320894D01*
X113071296Y-106320136D01*
X113073357Y-106318444D01*
X113075612Y-106317025D01*
X113076909Y-106315529D01*
X113082662Y-106310808D01*
X113130346Y-106263123D01*
X113139674Y-106251757D01*
X113150872Y-106224721D01*
X113150871Y-106195458D01*
X113139673Y-106168422D01*
X113118980Y-106147729D01*
X113091943Y-106136531D01*
X113062680Y-106136532D01*
X113035644Y-106147730D01*
X113024279Y-106157058D01*
X112985200Y-106196137D01*
X112916553Y-106230461D01*
X112665853Y-106230461D01*
X112597205Y-106196137D01*
X112566732Y-106165663D01*
X112532408Y-106097015D01*
X112532408Y-105894000D01*
X112566732Y-105825352D01*
X112597205Y-105794879D01*
X112665853Y-105760555D01*
X112791203Y-105760555D01*
X112798935Y-105759793D01*
X112800909Y-105759925D01*
X112802268Y-105759465D01*
X112805835Y-105759114D01*
X112817084Y-105754454D01*
X112828631Y-105750549D01*
X112830535Y-105748882D01*
X112832871Y-105747915D01*
X112841478Y-105739307D01*
X112850654Y-105731279D01*
X112851776Y-105729009D01*
X112853563Y-105727223D01*
X112858223Y-105715972D01*
X112863626Y-105705047D01*
X112863794Y-105702523D01*
X112864762Y-105700187D01*
X112864762Y-105688011D01*
X112865573Y-105675849D01*
X112864762Y-105673451D01*
X112864762Y-105670923D01*
X112860101Y-105659671D01*
X112856197Y-105648128D01*
X112854111Y-105645210D01*
X112853563Y-105643887D01*
X112852167Y-105642491D01*
X112847647Y-105636168D01*
X112622691Y-105379075D01*
X113077313Y-105379075D01*
X113091945Y-105377634D01*
X113118981Y-105366435D01*
X113139673Y-105345743D01*
X113150872Y-105318707D01*
X113150872Y-105304075D01*
X113383794Y-105304075D01*
X113383794Y-106019350D01*
X113384523Y-106026755D01*
X113384383Y-106028730D01*
X113384973Y-106031327D01*
X113385235Y-106033982D01*
X113385993Y-106035813D01*
X113387643Y-106043067D01*
X113435328Y-106186122D01*
X113441322Y-106199547D01*
X113443086Y-106201581D01*
X113444118Y-106204072D01*
X113453446Y-106215438D01*
X113548816Y-106310809D01*
X113560181Y-106320136D01*
X113562669Y-106321166D01*
X113564706Y-106322933D01*
X113578132Y-106328927D01*
X113721187Y-106376612D01*
X113728440Y-106378261D01*
X113730272Y-106379020D01*
X113732926Y-106379281D01*
X113735524Y-106379872D01*
X113737498Y-106379731D01*
X113744904Y-106380461D01*
X113840274Y-106380461D01*
X113854906Y-106379020D01*
X113881942Y-106367821D01*
X113902634Y-106347129D01*
X113913833Y-106320093D01*
X113913833Y-106290829D01*
X113902634Y-106263793D01*
X113881942Y-106243101D01*
X113854906Y-106231902D01*
X113840274Y-106230461D01*
X113757074Y-106230461D01*
X113642363Y-106192224D01*
X113572031Y-106121891D01*
X113533794Y-106007180D01*
X113533794Y-105304075D01*
X113532353Y-105289443D01*
X113521154Y-105262407D01*
X113500462Y-105241715D01*
X113473426Y-105230516D01*
X113444162Y-105230516D01*
X113417126Y-105241715D01*
X113396434Y-105262407D01*
X113385235Y-105289443D01*
X113383794Y-105304075D01*
X113150872Y-105304075D01*
X113150872Y-105289443D01*
X113139673Y-105262407D01*
X113118981Y-105241715D01*
X113091945Y-105230516D01*
X113077313Y-105229075D01*
X112457408Y-105229075D01*
X112449669Y-105229837D01*
X112447702Y-105229706D01*
X112446346Y-105230164D01*
X112442776Y-105230516D01*
X112431518Y-105235179D01*
X112419981Y-105239081D01*
X112418076Y-105240746D01*
X112415740Y-105241715D01*
X112407129Y-105250325D01*
X112397957Y-105258351D01*
X112396834Y-105260620D01*
X112395048Y-105262407D01*
X112390387Y-105273657D01*
X112384985Y-105284583D01*
X112384816Y-105287106D01*
X112383849Y-105289443D01*
X112383849Y-105301627D01*
X112383039Y-105313781D01*
X112383849Y-105316176D01*
X112383849Y-105318707D01*
X112388512Y-105329964D01*
X112392414Y-105341502D01*
X112394499Y-105344419D01*
X112395048Y-105345743D01*
X112396443Y-105347138D01*
X112400965Y-105353463D01*
X112628272Y-105613243D01*
X112614607Y-105618473D01*
X112519237Y-105666158D01*
X112512942Y-105670120D01*
X112511110Y-105670879D01*
X112509048Y-105672570D01*
X112506794Y-105673990D01*
X112505495Y-105675486D01*
X112499745Y-105680207D01*
X112452060Y-105727892D01*
X112447339Y-105733644D01*
X112445844Y-105734941D01*
X112444424Y-105737195D01*
X112442733Y-105739257D01*
X112441974Y-105741087D01*
X112438011Y-105747384D01*
X112390326Y-105842754D01*
X112385071Y-105856486D01*
X112384880Y-105859173D01*
X112383849Y-105861663D01*
X112382408Y-105876295D01*
X112271143Y-105876295D01*
X112271143Y-105117810D01*
X114025098Y-105117810D01*
X114025098Y-106491726D01*
G37*
G36*
X130870422Y-98662448D02*
G01*
X128943233Y-98662448D01*
X128943233Y-97909380D01*
X129098789Y-97909380D01*
X129108043Y-97937143D01*
X129127217Y-97959250D01*
X129153390Y-97972336D01*
X129182580Y-97974411D01*
X129196917Y-97971151D01*
X130098200Y-97670722D01*
X130098200Y-98158333D01*
X129706533Y-98158333D01*
X129691901Y-98159774D01*
X129664865Y-98170973D01*
X129644173Y-98191665D01*
X129632974Y-98218701D01*
X129632974Y-98247965D01*
X129644173Y-98275001D01*
X129664865Y-98295693D01*
X129691901Y-98306892D01*
X129706533Y-98308333D01*
X130098200Y-98308333D01*
X130098200Y-98433333D01*
X130099641Y-98447965D01*
X130110840Y-98475001D01*
X130131532Y-98495693D01*
X130158568Y-98506892D01*
X130187832Y-98506892D01*
X130214868Y-98495693D01*
X130235560Y-98475001D01*
X130246759Y-98447965D01*
X130248200Y-98433333D01*
X130248200Y-98308333D01*
X130639866Y-98308333D01*
X130654498Y-98306892D01*
X130681534Y-98295693D01*
X130702226Y-98275001D01*
X130713425Y-98247965D01*
X130713425Y-98218701D01*
X130702226Y-98191665D01*
X130681534Y-98170973D01*
X130654498Y-98159774D01*
X130639866Y-98158333D01*
X130248200Y-98158333D01*
X130248200Y-97566666D01*
X130247470Y-97559260D01*
X130247611Y-97557286D01*
X130247135Y-97555860D01*
X130246759Y-97552034D01*
X130242158Y-97540926D01*
X130238357Y-97529523D01*
X130236590Y-97527486D01*
X130235560Y-97524998D01*
X130227064Y-97516502D01*
X130219184Y-97507416D01*
X130216772Y-97506210D01*
X130214868Y-97504306D01*
X130203769Y-97499708D01*
X130193010Y-97494329D01*
X130190320Y-97494137D01*
X130187832Y-97493107D01*
X130175811Y-97493107D01*
X130163820Y-97492255D01*
X130160073Y-97493107D01*
X130158568Y-97493107D01*
X130156736Y-97493865D01*
X130149483Y-97495515D01*
X129149483Y-97828849D01*
X129136057Y-97834843D01*
X129113950Y-97854017D01*
X129100864Y-97880190D01*
X129098789Y-97909380D01*
X128943233Y-97909380D01*
X128943233Y-95897196D01*
X129164918Y-95897196D01*
X129169551Y-95926091D01*
X129184887Y-95951013D01*
X129208594Y-95968170D01*
X129222494Y-95972960D01*
X130333350Y-96237449D01*
X129620541Y-96427532D01*
X129617113Y-96428817D01*
X129615673Y-96429009D01*
X129613962Y-96429999D01*
X129606775Y-96432695D01*
X129598915Y-96438710D01*
X129590348Y-96443671D01*
X129587394Y-96447528D01*
X129583537Y-96450482D01*
X129578576Y-96459049D01*
X129572561Y-96466909D01*
X129571309Y-96471601D01*
X129568875Y-96475807D01*
X129567570Y-96485622D01*
X129565021Y-96495185D01*
X129565660Y-96500000D01*
X129565021Y-96504815D01*
X129567570Y-96514377D01*
X129568875Y-96524193D01*
X129571309Y-96528398D01*
X129572561Y-96533091D01*
X129578576Y-96540950D01*
X129583537Y-96549518D01*
X129587394Y-96552471D01*
X129590348Y-96556329D01*
X129598915Y-96561289D01*
X129606775Y-96567305D01*
X129613962Y-96570000D01*
X129615673Y-96570991D01*
X129617113Y-96571182D01*
X129620541Y-96572468D01*
X130333349Y-96762549D01*
X129222494Y-97027040D01*
X129208594Y-97031830D01*
X129184887Y-97048987D01*
X129169551Y-97073909D01*
X129164918Y-97102804D01*
X129171696Y-97131272D01*
X129188853Y-97154979D01*
X129213775Y-97170315D01*
X129242670Y-97174948D01*
X129257238Y-97172960D01*
X130657238Y-96839626D01*
X130662255Y-96837896D01*
X130664059Y-96837657D01*
X130665689Y-96836712D01*
X130671138Y-96834835D01*
X130679958Y-96828452D01*
X130689384Y-96822995D01*
X130691724Y-96819937D01*
X130694845Y-96817679D01*
X130700554Y-96808400D01*
X130707171Y-96799757D01*
X130708162Y-96796038D01*
X130710182Y-96792757D01*
X130711905Y-96782002D01*
X130714712Y-96771481D01*
X130714204Y-96767663D01*
X130714814Y-96763862D01*
X130712291Y-96753267D01*
X130710857Y-96742473D01*
X130708928Y-96739141D01*
X130708036Y-96735394D01*
X130701649Y-96726569D01*
X130696195Y-96717148D01*
X130693137Y-96714807D01*
X130690879Y-96711687D01*
X130681606Y-96705981D01*
X130672958Y-96699361D01*
X130667556Y-96697335D01*
X130665957Y-96696351D01*
X130664166Y-96696063D01*
X130659191Y-96694198D01*
X129930946Y-96499999D01*
X130659191Y-96305801D01*
X130664165Y-96303935D01*
X130665957Y-96303648D01*
X130667557Y-96302663D01*
X130672957Y-96300638D01*
X130681603Y-96294019D01*
X130690879Y-96288312D01*
X130693137Y-96285191D01*
X130696195Y-96282851D01*
X130701652Y-96273425D01*
X130708035Y-96264605D01*
X130708926Y-96260860D01*
X130710857Y-96257526D01*
X130712291Y-96246725D01*
X130714813Y-96236137D01*
X130714203Y-96232336D01*
X130714711Y-96228518D01*
X130711904Y-96217993D01*
X130710181Y-96207242D01*
X130708163Y-96203963D01*
X130707171Y-96200242D01*
X130700549Y-96191591D01*
X130694844Y-96182320D01*
X130691725Y-96180063D01*
X130689384Y-96177004D01*
X130679957Y-96171546D01*
X130671137Y-96165163D01*
X130665686Y-96163284D01*
X130664059Y-96162342D01*
X130662258Y-96162102D01*
X130657237Y-96160372D01*
X129257238Y-95827040D01*
X129242670Y-95825052D01*
X129213775Y-95829685D01*
X129188853Y-95845021D01*
X129171696Y-95868728D01*
X129164918Y-95897196D01*
X128943233Y-95897196D01*
X128943233Y-94900000D01*
X129164866Y-94900000D01*
X129164866Y-95233333D01*
X129165595Y-95240738D01*
X129165455Y-95242713D01*
X129166045Y-95245310D01*
X129166307Y-95247965D01*
X129167065Y-95249796D01*
X129168715Y-95257050D01*
X129235382Y-95457051D01*
X129241376Y-95470476D01*
X129260550Y-95492583D01*
X129286723Y-95505670D01*
X129315913Y-95507745D01*
X129343676Y-95498490D01*
X129365783Y-95479317D01*
X129378870Y-95453143D01*
X129380944Y-95423953D01*
X129377684Y-95409616D01*
X129314866Y-95221162D01*
X129314866Y-94917705D01*
X129368171Y-94811094D01*
X129417627Y-94761638D01*
X129524238Y-94708333D01*
X129622161Y-94708333D01*
X129728772Y-94761638D01*
X129778226Y-94811093D01*
X129835768Y-94926176D01*
X129900439Y-95184857D01*
X129900824Y-95185936D01*
X129900863Y-95186476D01*
X129903190Y-95192557D01*
X129905386Y-95198703D01*
X129905708Y-95199138D01*
X129906118Y-95200208D01*
X129972784Y-95333541D01*
X129976748Y-95339840D01*
X129977506Y-95341668D01*
X129979194Y-95343724D01*
X129980616Y-95345984D01*
X129982114Y-95347283D01*
X129986833Y-95353033D01*
X130053500Y-95419700D01*
X130059249Y-95424418D01*
X130060549Y-95425917D01*
X130062808Y-95427338D01*
X130064865Y-95429027D01*
X130066692Y-95429784D01*
X130072992Y-95433749D01*
X130206326Y-95500415D01*
X130220057Y-95505670D01*
X130222744Y-95505860D01*
X130225234Y-95506892D01*
X130239866Y-95508333D01*
X130373200Y-95508333D01*
X130387832Y-95506892D01*
X130390321Y-95505860D01*
X130393009Y-95505670D01*
X130406741Y-95500415D01*
X130540074Y-95433749D01*
X130546373Y-95429784D01*
X130548201Y-95429027D01*
X130550257Y-95427338D01*
X130552517Y-95425917D01*
X130553816Y-95424418D01*
X130559566Y-95419700D01*
X130626233Y-95353033D01*
X130630951Y-95347283D01*
X130632450Y-95345984D01*
X130633871Y-95343724D01*
X130635560Y-95341668D01*
X130636317Y-95339840D01*
X130640282Y-95333541D01*
X130706948Y-95200207D01*
X130712203Y-95186476D01*
X130712393Y-95183788D01*
X130713425Y-95181299D01*
X130714866Y-95166667D01*
X130714866Y-94833333D01*
X130714136Y-94825927D01*
X130714277Y-94823953D01*
X130713686Y-94821355D01*
X130713425Y-94818701D01*
X130712666Y-94816869D01*
X130711017Y-94809616D01*
X130644351Y-94609616D01*
X130638357Y-94596191D01*
X130619183Y-94574083D01*
X130593010Y-94560997D01*
X130563820Y-94558922D01*
X130536058Y-94568176D01*
X130513950Y-94587350D01*
X130500864Y-94613523D01*
X130498789Y-94642713D01*
X130502049Y-94657050D01*
X130564866Y-94845502D01*
X130564866Y-95148962D01*
X130511560Y-95255573D01*
X130462105Y-95305028D01*
X130355495Y-95358333D01*
X130257571Y-95358333D01*
X130150959Y-95305027D01*
X130101504Y-95255572D01*
X130043964Y-95140491D01*
X129979294Y-94881810D01*
X129978908Y-94880730D01*
X129978870Y-94880190D01*
X129976539Y-94874100D01*
X129974347Y-94867964D01*
X129974024Y-94867528D01*
X129973615Y-94866459D01*
X129906948Y-94733126D01*
X129902985Y-94726831D01*
X129902227Y-94725000D01*
X129900533Y-94722936D01*
X129899115Y-94720683D01*
X129897620Y-94719386D01*
X129892900Y-94713635D01*
X129826233Y-94646967D01*
X129820483Y-94642248D01*
X129819184Y-94640750D01*
X129816924Y-94639328D01*
X129814868Y-94637640D01*
X129813040Y-94636882D01*
X129806741Y-94632918D01*
X129673407Y-94566251D01*
X129659675Y-94560996D01*
X129656987Y-94560805D01*
X129654498Y-94559774D01*
X129639866Y-94558333D01*
X129506533Y-94558333D01*
X129491901Y-94559774D01*
X129489412Y-94560804D01*
X129486723Y-94560996D01*
X129472992Y-94566251D01*
X129339659Y-94632918D01*
X129333362Y-94636881D01*
X129331532Y-94637640D01*
X129329470Y-94639331D01*
X129327216Y-94640751D01*
X129325919Y-94642246D01*
X129320167Y-94646967D01*
X129253500Y-94713634D01*
X129248779Y-94719386D01*
X129247284Y-94720683D01*
X129245864Y-94722937D01*
X129244173Y-94724999D01*
X129243414Y-94726829D01*
X129239451Y-94733126D01*
X129172784Y-94866459D01*
X129167529Y-94880190D01*
X129167337Y-94882879D01*
X129166307Y-94885368D01*
X129164866Y-94900000D01*
X128943233Y-94900000D01*
X128943233Y-94402777D01*
X130870422Y-94402777D01*
X130870422Y-98662448D01*
G37*
D10*
G36*
X128407419Y-120241887D02*
G01*
X128366099Y-120365846D01*
X128284942Y-120447002D01*
X128201872Y-120488538D01*
X128022692Y-120533333D01*
X127892145Y-120533333D01*
X127712966Y-120488538D01*
X127629892Y-120447001D01*
X127548739Y-120365848D01*
X127507419Y-120241886D01*
X127507419Y-120061905D01*
X128407419Y-120061905D01*
X128407419Y-120241887D01*
G37*
G36*
X128618530Y-121693019D02*
G01*
X127296308Y-121693019D01*
X127296308Y-121259703D01*
X127408370Y-121259703D01*
X127411225Y-121263985D01*
X127411225Y-121269134D01*
X127421521Y-121279430D01*
X127429597Y-121291544D01*
X127434644Y-121292553D01*
X127438285Y-121296194D01*
X127457419Y-121300000D01*
X128407419Y-121300000D01*
X128407419Y-121535714D01*
X128411225Y-121554848D01*
X128438285Y-121581908D01*
X128476553Y-121581908D01*
X128503613Y-121554848D01*
X128507419Y-121535714D01*
X128507419Y-120964286D01*
X128503613Y-120945152D01*
X128476553Y-120918092D01*
X128438285Y-120918092D01*
X128411225Y-120945152D01*
X128407419Y-120964286D01*
X128407419Y-121200000D01*
X127622557Y-121200000D01*
X127628011Y-121196364D01*
X127631515Y-121192867D01*
X127635631Y-121190117D01*
X127730869Y-121094879D01*
X127735319Y-121088219D01*
X127740235Y-121081885D01*
X127787854Y-120986647D01*
X127793007Y-120967831D01*
X127780905Y-120931526D01*
X127746677Y-120914412D01*
X127710373Y-120926514D01*
X127698411Y-120941926D01*
X127654420Y-121029907D01*
X127568425Y-121115903D01*
X127429684Y-121208397D01*
X127415875Y-121222178D01*
X127414865Y-121227225D01*
X127411225Y-121230866D01*
X127411225Y-121245428D01*
X127408370Y-121259703D01*
X127296308Y-121259703D01*
X127296308Y-120011905D01*
X127407419Y-120011905D01*
X127407419Y-120250000D01*
X127408982Y-120257862D01*
X127409985Y-120265811D01*
X127457604Y-120408668D01*
X127458844Y-120410843D01*
X127458844Y-120411991D01*
X127463297Y-120418655D01*
X127467265Y-120425616D01*
X127468291Y-120426129D01*
X127469683Y-120428212D01*
X127564921Y-120523450D01*
X127571580Y-120527900D01*
X127577915Y-120532816D01*
X127673153Y-120580435D01*
X127678434Y-120581881D01*
X127683387Y-120584221D01*
X127873863Y-120631840D01*
X127879980Y-120632137D01*
X127885990Y-120633333D01*
X128028847Y-120633333D01*
X128034856Y-120632137D01*
X128040974Y-120631840D01*
X128231450Y-120584221D01*
X128236402Y-120581881D01*
X128241684Y-120580435D01*
X128336921Y-120532817D01*
X128343249Y-120527905D01*
X128349916Y-120523451D01*
X128445155Y-120428212D01*
X128446545Y-120426130D01*
X128447573Y-120425617D01*
X128451543Y-120418651D01*
X128455994Y-120411991D01*
X128455994Y-120410843D01*
X128457234Y-120408668D01*
X128504853Y-120265812D01*
X128505855Y-120257861D01*
X128507419Y-120250000D01*
X128507419Y-120011905D01*
X128503613Y-119992771D01*
X128476553Y-119965711D01*
X128457419Y-119961905D01*
X127457419Y-119961905D01*
X127438285Y-119965711D01*
X127411225Y-119992771D01*
X127407419Y-120011905D01*
X127296308Y-120011905D01*
X127296308Y-119850794D01*
X128618530Y-119850794D01*
X128618530Y-121693019D01*
G37*
G36*
X123368530Y-107423015D02*
G01*
X122046308Y-107423015D01*
X122046308Y-106642857D01*
X122157419Y-106642857D01*
X122157419Y-107261904D01*
X122160193Y-107275850D01*
X122160055Y-107277923D01*
X122160767Y-107278737D01*
X122161225Y-107281038D01*
X122173665Y-107293478D01*
X122185254Y-107306723D01*
X122187028Y-107306841D01*
X122188285Y-107308098D01*
X122205884Y-107308098D01*
X122223438Y-107309268D01*
X122225470Y-107308098D01*
X122226553Y-107308098D01*
X122228023Y-107306627D01*
X122240344Y-107299533D01*
X122538371Y-107038759D01*
X122538371Y-107071428D01*
X122538859Y-107073884D01*
X122538497Y-107074973D01*
X122540613Y-107082700D01*
X122542177Y-107090562D01*
X122542988Y-107091373D01*
X122543650Y-107093789D01*
X122591268Y-107189026D01*
X122596183Y-107195359D01*
X122600635Y-107202021D01*
X122648253Y-107249640D01*
X122654919Y-107254094D01*
X122661248Y-107259006D01*
X122756486Y-107306625D01*
X122758901Y-107307286D01*
X122759713Y-107308098D01*
X122767574Y-107309661D01*
X122775302Y-107311778D01*
X122776390Y-107311415D01*
X122778847Y-107311904D01*
X123016942Y-107311904D01*
X123019398Y-107311415D01*
X123020487Y-107311778D01*
X123028214Y-107309661D01*
X123036076Y-107308098D01*
X123036887Y-107307286D01*
X123039303Y-107306625D01*
X123134540Y-107259007D01*
X123140868Y-107254095D01*
X123147535Y-107249641D01*
X123195155Y-107202022D01*
X123199609Y-107195355D01*
X123204521Y-107189027D01*
X123252140Y-107093789D01*
X123252801Y-107091373D01*
X123253613Y-107090562D01*
X123255176Y-107082700D01*
X123257293Y-107074973D01*
X123256930Y-107073884D01*
X123257419Y-107071428D01*
X123257419Y-106785714D01*
X123256930Y-106783257D01*
X123257293Y-106782169D01*
X123255176Y-106774441D01*
X123253613Y-106766580D01*
X123252801Y-106765768D01*
X123252140Y-106763353D01*
X123204521Y-106668115D01*
X123199609Y-106661786D01*
X123195155Y-106655120D01*
X123147535Y-106607501D01*
X123131314Y-106596663D01*
X123093045Y-106596663D01*
X123065986Y-106623723D01*
X123065986Y-106661992D01*
X123076825Y-106678213D01*
X123118708Y-106720095D01*
X123157419Y-106797517D01*
X123157419Y-107059624D01*
X123118708Y-107137046D01*
X123082561Y-107173192D01*
X123005139Y-107211904D01*
X122790651Y-107211904D01*
X122713227Y-107173192D01*
X122677082Y-107137048D01*
X122638371Y-107059625D01*
X122638371Y-106928571D01*
X122635596Y-106914624D01*
X122635735Y-106912552D01*
X122635022Y-106911737D01*
X122634565Y-106909437D01*
X122622124Y-106896996D01*
X122610536Y-106883752D01*
X122608761Y-106883633D01*
X122607505Y-106882377D01*
X122589906Y-106882377D01*
X122572352Y-106881207D01*
X122570320Y-106882377D01*
X122569237Y-106882377D01*
X122567766Y-106883847D01*
X122555446Y-106890942D01*
X122257419Y-107151715D01*
X122257419Y-106642857D01*
X122253613Y-106623723D01*
X122226553Y-106596663D01*
X122188285Y-106596663D01*
X122161225Y-106623723D01*
X122157419Y-106642857D01*
X122046308Y-106642857D01*
X122046308Y-106033512D01*
X122158370Y-106033512D01*
X122161225Y-106037794D01*
X122161225Y-106042943D01*
X122171521Y-106053239D01*
X122179597Y-106065353D01*
X122184644Y-106066362D01*
X122188285Y-106070003D01*
X122207419Y-106073809D01*
X123157419Y-106073809D01*
X123157419Y-106309523D01*
X123161225Y-106328657D01*
X123188285Y-106355717D01*
X123226553Y-106355717D01*
X123253613Y-106328657D01*
X123257419Y-106309523D01*
X123257419Y-105738095D01*
X123253613Y-105718961D01*
X123226553Y-105691901D01*
X123188285Y-105691901D01*
X123161225Y-105718961D01*
X123157419Y-105738095D01*
X123157419Y-105973809D01*
X122372557Y-105973809D01*
X122378011Y-105970173D01*
X122381515Y-105966676D01*
X122385631Y-105963926D01*
X122480869Y-105868688D01*
X122485319Y-105862028D01*
X122490235Y-105855694D01*
X122537854Y-105760456D01*
X122543007Y-105741640D01*
X122530905Y-105705335D01*
X122496677Y-105688221D01*
X122460373Y-105700323D01*
X122448411Y-105715735D01*
X122404420Y-105803716D01*
X122318425Y-105889712D01*
X122179684Y-105982206D01*
X122165875Y-105995987D01*
X122164865Y-106001034D01*
X122161225Y-106004675D01*
X122161225Y-106019237D01*
X122158370Y-106033512D01*
X122046308Y-106033512D01*
X122046308Y-105071428D01*
X122157419Y-105071428D01*
X122157419Y-105166666D01*
X122158982Y-105174528D01*
X122159985Y-105182477D01*
X122207604Y-105325334D01*
X122208844Y-105327509D01*
X122208844Y-105328657D01*
X122213297Y-105335321D01*
X122217265Y-105342282D01*
X122218291Y-105342795D01*
X122219683Y-105344878D01*
X122267301Y-105392497D01*
X122283522Y-105403336D01*
X122321791Y-105403336D01*
X122348851Y-105376276D01*
X122348851Y-105338007D01*
X122338012Y-105321786D01*
X122298739Y-105282514D01*
X122257419Y-105158552D01*
X122257419Y-105079541D01*
X122298739Y-104955579D01*
X122379892Y-104874426D01*
X122462966Y-104832889D01*
X122642145Y-104788095D01*
X122772692Y-104788095D01*
X122951872Y-104832890D01*
X123034942Y-104874425D01*
X123116099Y-104955581D01*
X123157419Y-105079541D01*
X123157419Y-105158553D01*
X123116099Y-105282512D01*
X123076825Y-105321786D01*
X123065986Y-105338007D01*
X123065986Y-105376276D01*
X123093045Y-105403336D01*
X123131314Y-105403336D01*
X123147535Y-105392498D01*
X123195155Y-105344879D01*
X123196546Y-105342796D01*
X123197573Y-105342283D01*
X123201539Y-105335324D01*
X123205994Y-105328658D01*
X123205994Y-105327509D01*
X123207234Y-105325334D01*
X123254853Y-105182478D01*
X123255855Y-105174527D01*
X123257419Y-105166666D01*
X123257419Y-105071428D01*
X123255855Y-105063566D01*
X123254853Y-105055616D01*
X123207234Y-104912760D01*
X123205994Y-104910584D01*
X123205994Y-104909437D01*
X123201543Y-104902776D01*
X123197573Y-104895811D01*
X123196545Y-104895297D01*
X123195155Y-104893216D01*
X123099916Y-104797977D01*
X123093249Y-104793522D01*
X123086921Y-104788611D01*
X122991684Y-104740993D01*
X122986402Y-104739546D01*
X122981450Y-104737207D01*
X122790974Y-104689588D01*
X122784856Y-104689290D01*
X122778847Y-104688095D01*
X122635990Y-104688095D01*
X122629980Y-104689290D01*
X122623863Y-104689588D01*
X122433387Y-104737207D01*
X122428434Y-104739546D01*
X122423153Y-104740993D01*
X122327915Y-104788612D01*
X122321580Y-104793527D01*
X122314921Y-104797978D01*
X122219683Y-104893216D01*
X122218291Y-104895298D01*
X122217265Y-104895812D01*
X122213297Y-104902772D01*
X122208844Y-104909437D01*
X122208844Y-104910584D01*
X122207604Y-104912760D01*
X122159985Y-105055617D01*
X122158982Y-105063565D01*
X122157419Y-105071428D01*
X122046308Y-105071428D01*
X122046308Y-104576984D01*
X123368530Y-104576984D01*
X123368530Y-107423015D01*
G37*
G36*
X134097781Y-116503690D02*
G01*
X131306981Y-116503690D01*
X131306981Y-116323445D01*
X131418092Y-116323445D01*
X131418092Y-116361713D01*
X131445152Y-116388773D01*
X131464286Y-116392579D01*
X132035714Y-116392579D01*
X132054848Y-116388773D01*
X132081908Y-116361713D01*
X132081908Y-116323445D01*
X132054848Y-116296385D01*
X132035714Y-116292579D01*
X131800000Y-116292579D01*
X131800000Y-115342579D01*
X132319048Y-115342579D01*
X132319048Y-116342579D01*
X132322854Y-116361713D01*
X132349914Y-116388773D01*
X132388182Y-116388773D01*
X132415242Y-116361713D01*
X132419048Y-116342579D01*
X132419048Y-115916389D01*
X132890476Y-115916389D01*
X132890476Y-116342579D01*
X132894282Y-116361713D01*
X132921342Y-116388773D01*
X132959610Y-116388773D01*
X132986670Y-116361713D01*
X132990476Y-116342579D01*
X132990476Y-116053320D01*
X133319174Y-116053320D01*
X133331275Y-116089625D01*
X133346687Y-116101586D01*
X133434669Y-116145577D01*
X133520665Y-116231573D01*
X133613160Y-116370314D01*
X133626940Y-116384123D01*
X133631987Y-116385132D01*
X133635628Y-116388773D01*
X133650188Y-116388773D01*
X133664466Y-116391629D01*
X133668750Y-116388773D01*
X133673896Y-116388773D01*
X133684190Y-116378478D01*
X133696306Y-116370401D01*
X133697315Y-116365353D01*
X133700956Y-116361713D01*
X133704762Y-116342579D01*
X133704762Y-115392579D01*
X133940476Y-115392579D01*
X133959610Y-115388773D01*
X133986670Y-115361713D01*
X133986670Y-115323445D01*
X133959610Y-115296385D01*
X133940476Y-115292579D01*
X133369048Y-115292579D01*
X133349914Y-115296385D01*
X133322854Y-115323445D01*
X133322854Y-115361713D01*
X133349914Y-115388773D01*
X133369048Y-115392579D01*
X133604762Y-115392579D01*
X133604762Y-116177439D01*
X133601127Y-116171987D01*
X133597627Y-116168480D01*
X133594879Y-116164367D01*
X133499641Y-116069129D01*
X133492979Y-116064677D01*
X133486646Y-116059762D01*
X133391409Y-116012144D01*
X133372593Y-116006991D01*
X133336288Y-116019092D01*
X133319174Y-116053320D01*
X132990476Y-116053320D01*
X132990476Y-115342579D01*
X132986670Y-115323445D01*
X132959610Y-115296385D01*
X132921342Y-115296385D01*
X132894282Y-115323445D01*
X132890476Y-115342579D01*
X132890476Y-115816389D01*
X132419048Y-115816389D01*
X132419048Y-115342579D01*
X132415242Y-115323445D01*
X132388182Y-115296385D01*
X132349914Y-115296385D01*
X132322854Y-115323445D01*
X132319048Y-115342579D01*
X131800000Y-115342579D01*
X131796194Y-115323445D01*
X131769134Y-115296385D01*
X131730866Y-115296385D01*
X131703806Y-115323445D01*
X131700000Y-115342579D01*
X131700000Y-116292579D01*
X131464286Y-116292579D01*
X131445152Y-116296385D01*
X131418092Y-116323445D01*
X131306981Y-116323445D01*
X131306981Y-115181468D01*
X134097781Y-115181468D01*
X134097781Y-116503690D01*
G37*
G36*
X130273015Y-103618530D02*
G01*
X128335552Y-103618530D01*
X128335552Y-103104951D01*
X128446663Y-103104951D01*
X128446663Y-103143219D01*
X128473723Y-103170279D01*
X128492857Y-103174085D01*
X128585714Y-103174085D01*
X128585714Y-103457419D01*
X128589520Y-103476553D01*
X128616580Y-103503613D01*
X128654848Y-103503613D01*
X128681908Y-103476553D01*
X128685714Y-103457419D01*
X128685714Y-103174085D01*
X129111904Y-103174085D01*
X129131038Y-103170279D01*
X129136857Y-103164459D01*
X129144664Y-103161857D01*
X129149868Y-103151449D01*
X129158098Y-103143219D01*
X129158098Y-103134989D01*
X129161778Y-103127629D01*
X129159338Y-103108273D01*
X128942386Y-102457419D01*
X129490476Y-102457419D01*
X129490476Y-103266942D01*
X129490964Y-103269398D01*
X129490602Y-103270487D01*
X129492718Y-103278214D01*
X129494282Y-103286076D01*
X129495093Y-103286887D01*
X129495755Y-103289303D01*
X129543373Y-103384540D01*
X129548284Y-103390868D01*
X129552739Y-103397535D01*
X129600358Y-103445155D01*
X129607024Y-103449609D01*
X129613353Y-103454521D01*
X129708591Y-103502140D01*
X129711006Y-103502801D01*
X129711818Y-103503613D01*
X129719679Y-103505176D01*
X129727407Y-103507293D01*
X129728495Y-103506930D01*
X129730952Y-103507419D01*
X129921428Y-103507419D01*
X129923884Y-103506930D01*
X129924973Y-103507293D01*
X129932700Y-103505176D01*
X129940562Y-103503613D01*
X129941373Y-103502801D01*
X129943789Y-103502140D01*
X130039026Y-103454522D01*
X130045353Y-103449611D01*
X130052022Y-103445155D01*
X130099641Y-103397535D01*
X130104094Y-103390869D01*
X130109006Y-103384541D01*
X130156625Y-103289303D01*
X130157286Y-103286887D01*
X130158098Y-103286076D01*
X130159661Y-103278214D01*
X130161778Y-103270487D01*
X130161415Y-103269398D01*
X130161904Y-103266942D01*
X130161904Y-102457419D01*
X130158098Y-102438285D01*
X130131038Y-102411225D01*
X130092770Y-102411225D01*
X130065710Y-102438285D01*
X130061904Y-102457419D01*
X130061904Y-103255138D01*
X130023192Y-103332561D01*
X129987046Y-103368708D01*
X129909625Y-103407419D01*
X129742756Y-103407419D01*
X129665333Y-103368708D01*
X129629187Y-103332561D01*
X129590476Y-103255139D01*
X129590476Y-102457419D01*
X129586670Y-102438285D01*
X129559610Y-102411225D01*
X129521342Y-102411225D01*
X129494282Y-102438285D01*
X129490476Y-102457419D01*
X128942386Y-102457419D01*
X128921243Y-102393989D01*
X128911582Y-102377040D01*
X128877353Y-102359926D01*
X128841049Y-102372027D01*
X128823935Y-102406256D01*
X128826375Y-102425611D01*
X129042533Y-103074085D01*
X128685714Y-103074085D01*
X128685714Y-102790752D01*
X128681908Y-102771618D01*
X128654848Y-102744558D01*
X128616580Y-102744558D01*
X128589520Y-102771618D01*
X128585714Y-102790752D01*
X128585714Y-103074085D01*
X128492857Y-103074085D01*
X128473723Y-103077891D01*
X128446663Y-103104951D01*
X128335552Y-103104951D01*
X128335552Y-102248815D01*
X130273015Y-102248815D01*
X130273015Y-103618530D01*
G37*
D11*
G36*
X134122239Y-127814077D02*
G01*
X134194181Y-127886019D01*
X134234523Y-128047386D01*
X134234523Y-128362251D01*
X134194181Y-128523617D01*
X134122238Y-128595561D01*
X134053723Y-128629819D01*
X133919160Y-128629819D01*
X133972998Y-128575980D01*
X134041514Y-128541723D01*
X134119047Y-128541723D01*
X134133679Y-128540282D01*
X134160715Y-128529083D01*
X134181407Y-128508391D01*
X134192606Y-128481355D01*
X134192606Y-128452091D01*
X134181407Y-128425055D01*
X134160715Y-128404363D01*
X134133679Y-128393164D01*
X134119047Y-128391723D01*
X134023809Y-128391723D01*
X134009177Y-128393164D01*
X134006688Y-128394194D01*
X134003999Y-128394386D01*
X133990268Y-128399641D01*
X133895030Y-128447260D01*
X133888730Y-128451224D01*
X133886903Y-128451982D01*
X133884846Y-128453670D01*
X133882587Y-128455092D01*
X133881287Y-128456590D01*
X133875538Y-128461309D01*
X133785714Y-128551133D01*
X133758198Y-128523617D01*
X133717857Y-128362251D01*
X133717857Y-128047386D01*
X133758198Y-127886019D01*
X133830141Y-127814077D01*
X133898657Y-127779819D01*
X134053723Y-127779819D01*
X134122239Y-127814077D01*
G37*
G36*
X134495634Y-128985579D02*
G01*
X132505806Y-128985579D01*
X132505806Y-128790676D01*
X133520827Y-128790676D01*
X133522901Y-128819866D01*
X133535988Y-128846041D01*
X133558096Y-128865214D01*
X133585857Y-128874468D01*
X133615047Y-128872394D01*
X133628779Y-128867139D01*
X133724017Y-128819520D01*
X133730316Y-128815555D01*
X133732144Y-128814798D01*
X133734200Y-128813109D01*
X133736460Y-128811688D01*
X133737759Y-128810189D01*
X133743509Y-128805471D01*
X133800523Y-128748457D01*
X133847411Y-128771901D01*
X133861142Y-128777156D01*
X133863831Y-128777347D01*
X133866320Y-128778378D01*
X133880952Y-128779819D01*
X134071428Y-128779819D01*
X134086060Y-128778378D01*
X134088549Y-128777346D01*
X134091237Y-128777156D01*
X134104969Y-128771901D01*
X134200207Y-128724282D01*
X134206506Y-128720317D01*
X134208334Y-128719560D01*
X134210390Y-128717871D01*
X134212650Y-128716450D01*
X134213949Y-128714951D01*
X134219699Y-128710233D01*
X134314938Y-128614993D01*
X134324265Y-128603628D01*
X134326398Y-128598476D01*
X134329718Y-128593997D01*
X134334665Y-128580151D01*
X134382284Y-128389675D01*
X134382659Y-128387138D01*
X134383082Y-128386117D01*
X134383624Y-128380604D01*
X134384434Y-128375131D01*
X134384271Y-128374038D01*
X134384523Y-128371485D01*
X134384523Y-128038152D01*
X134384271Y-128035598D01*
X134384434Y-128034506D01*
X134383624Y-128029032D01*
X134383082Y-128023520D01*
X134382659Y-128022498D01*
X134382284Y-128019962D01*
X134334665Y-127829486D01*
X134329718Y-127815640D01*
X134326399Y-127811161D01*
X134324265Y-127806008D01*
X134314937Y-127794643D01*
X134219699Y-127699405D01*
X134213949Y-127694686D01*
X134212650Y-127693188D01*
X134210390Y-127691766D01*
X134208334Y-127690078D01*
X134206506Y-127689320D01*
X134200207Y-127685356D01*
X134104969Y-127637737D01*
X134091237Y-127632482D01*
X134088549Y-127632291D01*
X134086060Y-127631260D01*
X134071428Y-127629819D01*
X133880952Y-127629819D01*
X133866320Y-127631260D01*
X133863831Y-127632290D01*
X133861142Y-127632482D01*
X133847411Y-127637737D01*
X133752173Y-127685356D01*
X133745878Y-127689318D01*
X133744046Y-127690077D01*
X133741984Y-127691768D01*
X133739730Y-127693188D01*
X133738431Y-127694684D01*
X133732681Y-127699405D01*
X133637443Y-127794643D01*
X133628116Y-127806008D01*
X133625982Y-127811158D01*
X133622662Y-127815640D01*
X133617715Y-127829486D01*
X133570096Y-128019962D01*
X133569720Y-128022498D01*
X133569298Y-128023520D01*
X133568755Y-128029032D01*
X133567946Y-128034506D01*
X133568108Y-128035598D01*
X133567857Y-128038152D01*
X133567857Y-128371485D01*
X133568108Y-128374038D01*
X133567946Y-128375131D01*
X133568755Y-128380604D01*
X133569298Y-128386117D01*
X133569720Y-128387138D01*
X133570096Y-128389675D01*
X133617715Y-128580151D01*
X133622662Y-128593997D01*
X133625981Y-128598476D01*
X133628115Y-128603628D01*
X133637443Y-128614994D01*
X133679648Y-128657199D01*
X133646049Y-128690799D01*
X133561697Y-128732975D01*
X133549254Y-128740807D01*
X133530081Y-128762915D01*
X133520827Y-128790676D01*
X132505806Y-128790676D01*
X132505806Y-128690187D01*
X132616917Y-128690187D01*
X132616917Y-128719451D01*
X132628116Y-128746487D01*
X132648808Y-128767179D01*
X132675844Y-128778378D01*
X132690476Y-128779819D01*
X133261904Y-128779819D01*
X133276536Y-128778378D01*
X133303572Y-128767179D01*
X133324264Y-128746487D01*
X133335463Y-128719451D01*
X133335463Y-128690187D01*
X133324264Y-128663151D01*
X133303572Y-128642459D01*
X133276536Y-128631260D01*
X133261904Y-128629819D01*
X133051190Y-128629819D01*
X133051190Y-127933504D01*
X133113633Y-127995947D01*
X133119383Y-128000667D01*
X133120682Y-128002164D01*
X133122936Y-128003583D01*
X133124998Y-128005275D01*
X133126830Y-128006033D01*
X133133125Y-128009996D01*
X133228363Y-128057615D01*
X133242094Y-128062870D01*
X133271284Y-128064944D01*
X133299046Y-128055690D01*
X133321153Y-128036517D01*
X133334241Y-128010342D01*
X133336315Y-127981152D01*
X133327061Y-127953391D01*
X133307888Y-127931283D01*
X133295445Y-127923451D01*
X133211093Y-127881275D01*
X133129712Y-127799894D01*
X133038594Y-127663216D01*
X133038559Y-127663173D01*
X133038550Y-127663151D01*
X133038498Y-127663099D01*
X133029278Y-127651841D01*
X133023108Y-127647709D01*
X133017858Y-127642459D01*
X133011068Y-127639646D01*
X133004963Y-127635558D01*
X132997682Y-127634101D01*
X132990822Y-127631260D01*
X132983474Y-127631260D01*
X132976269Y-127629819D01*
X132968985Y-127631260D01*
X132961558Y-127631260D01*
X132954769Y-127634072D01*
X132947561Y-127635498D01*
X132941382Y-127639617D01*
X132934522Y-127642459D01*
X132929326Y-127647654D01*
X132923212Y-127651731D01*
X132919080Y-127657900D01*
X132913830Y-127663151D01*
X132911017Y-127669940D01*
X132906929Y-127676046D01*
X132905472Y-127683326D01*
X132902631Y-127690187D01*
X132901205Y-127704663D01*
X132901190Y-127704740D01*
X132901195Y-127704766D01*
X132901190Y-127704819D01*
X132901190Y-128629819D01*
X132690476Y-128629819D01*
X132675844Y-128631260D01*
X132648808Y-128642459D01*
X132628116Y-128663151D01*
X132616917Y-128690187D01*
X132505806Y-128690187D01*
X132505806Y-127518708D01*
X134495634Y-127518708D01*
X134495634Y-128985579D01*
G37*
D10*
G36*
X130188094Y-107931228D02*
G01*
X129868946Y-107931228D01*
X129791522Y-107892516D01*
X129755377Y-107856372D01*
X129716666Y-107778949D01*
X129716666Y-107659698D01*
X129755377Y-107582274D01*
X129791522Y-107546130D01*
X129868946Y-107507419D01*
X130188094Y-107507419D01*
X130188094Y-107931228D01*
G37*
G36*
X130399205Y-108618530D02*
G01*
X128553174Y-108618530D01*
X128553174Y-108028847D01*
X128664285Y-108028847D01*
X128664285Y-108266942D01*
X128664773Y-108269398D01*
X128664411Y-108270487D01*
X128666527Y-108278214D01*
X128668091Y-108286076D01*
X128668902Y-108286887D01*
X128669564Y-108289303D01*
X128717182Y-108384540D01*
X128722093Y-108390868D01*
X128726548Y-108397535D01*
X128774167Y-108445155D01*
X128780833Y-108449609D01*
X128787162Y-108454521D01*
X128882400Y-108502140D01*
X128884815Y-108502801D01*
X128885627Y-108503613D01*
X128893488Y-108505176D01*
X128901216Y-108507293D01*
X128902304Y-108506930D01*
X128904761Y-108507419D01*
X129142856Y-108507419D01*
X129145312Y-108506930D01*
X129146401Y-108507293D01*
X129154128Y-108505176D01*
X129161990Y-108503613D01*
X129162801Y-108502801D01*
X129165217Y-108502140D01*
X129260454Y-108454522D01*
X129266781Y-108449611D01*
X129273450Y-108445155D01*
X129321069Y-108397535D01*
X129331907Y-108381314D01*
X129331907Y-108343045D01*
X129304847Y-108315986D01*
X129266578Y-108315986D01*
X129250357Y-108326825D01*
X129208474Y-108368708D01*
X129131053Y-108407419D01*
X128916565Y-108407419D01*
X128839142Y-108368708D01*
X128802996Y-108332561D01*
X128764285Y-108255139D01*
X128764285Y-108040650D01*
X128802996Y-107963226D01*
X128839141Y-107927082D01*
X128916565Y-107888371D01*
X129131053Y-107888371D01*
X129208476Y-107927082D01*
X129250357Y-107968964D01*
X129266578Y-107979803D01*
X129269223Y-107979803D01*
X129271270Y-107981478D01*
X129288020Y-107979803D01*
X129304847Y-107979803D01*
X129306716Y-107977933D01*
X129309349Y-107977670D01*
X129320009Y-107964640D01*
X129331907Y-107952743D01*
X129331907Y-107950099D01*
X129333582Y-107948052D01*
X129335465Y-107928634D01*
X129307391Y-107647895D01*
X129616666Y-107647895D01*
X129616666Y-107790752D01*
X129617154Y-107793208D01*
X129616792Y-107794297D01*
X129618908Y-107802024D01*
X129620472Y-107809886D01*
X129621283Y-107810697D01*
X129621945Y-107813113D01*
X129669563Y-107908350D01*
X129674478Y-107914683D01*
X129678930Y-107921345D01*
X129726548Y-107968964D01*
X129733214Y-107973418D01*
X129739543Y-107978330D01*
X129834781Y-108025949D01*
X129837196Y-108026610D01*
X129838008Y-108027422D01*
X129845869Y-108028985D01*
X129853597Y-108031102D01*
X129854685Y-108030739D01*
X129857142Y-108031228D01*
X129903966Y-108031228D01*
X129625704Y-108428746D01*
X129617850Y-108446604D01*
X129624500Y-108484290D01*
X129655851Y-108506235D01*
X129693537Y-108499585D01*
X129707628Y-108486092D01*
X130026032Y-108031228D01*
X130188094Y-108031228D01*
X130188094Y-108457419D01*
X130191900Y-108476553D01*
X130218960Y-108503613D01*
X130257228Y-108503613D01*
X130284288Y-108476553D01*
X130288094Y-108457419D01*
X130288094Y-107457419D01*
X130284288Y-107438285D01*
X130257228Y-107411225D01*
X130238094Y-107407419D01*
X129857142Y-107407419D01*
X129854685Y-107407907D01*
X129853597Y-107407545D01*
X129845869Y-107409661D01*
X129838008Y-107411225D01*
X129837196Y-107412036D01*
X129834781Y-107412698D01*
X129739543Y-107460317D01*
X129733214Y-107465228D01*
X129726548Y-107469683D01*
X129678930Y-107517302D01*
X129674478Y-107523963D01*
X129669563Y-107530297D01*
X129621945Y-107625534D01*
X129621283Y-107627949D01*
X129620472Y-107628761D01*
X129618908Y-107636622D01*
X129616792Y-107644350D01*
X129617154Y-107645438D01*
X129616666Y-107647895D01*
X129307391Y-107647895D01*
X129287846Y-107452444D01*
X129284288Y-107440777D01*
X129284288Y-107438285D01*
X129283194Y-107437191D01*
X129282155Y-107433783D01*
X129269125Y-107423122D01*
X129257228Y-107411225D01*
X129253735Y-107410530D01*
X129252537Y-107409550D01*
X129250055Y-107409798D01*
X129238094Y-107407419D01*
X128761904Y-107407419D01*
X128742770Y-107411225D01*
X128715710Y-107438285D01*
X128715710Y-107476553D01*
X128742770Y-107503613D01*
X128761904Y-107507419D01*
X129192845Y-107507419D01*
X129224428Y-107823255D01*
X129165217Y-107793650D01*
X129162801Y-107792988D01*
X129161990Y-107792177D01*
X129154128Y-107790613D01*
X129146401Y-107788497D01*
X129145312Y-107788859D01*
X129142856Y-107788371D01*
X128904761Y-107788371D01*
X128902304Y-107788859D01*
X128901216Y-107788497D01*
X128893488Y-107790613D01*
X128885627Y-107792177D01*
X128884815Y-107792988D01*
X128882400Y-107793650D01*
X128787162Y-107841269D01*
X128780833Y-107846180D01*
X128774167Y-107850635D01*
X128726549Y-107898254D01*
X128722097Y-107904915D01*
X128717182Y-107911249D01*
X128669564Y-108006486D01*
X128668902Y-108008901D01*
X128668091Y-108009713D01*
X128666527Y-108017574D01*
X128664411Y-108025302D01*
X128664773Y-108026390D01*
X128664285Y-108028847D01*
X128553174Y-108028847D01*
X128553174Y-107296308D01*
X130399205Y-107296308D01*
X130399205Y-108618530D01*
G37*
D11*
G36*
X148414955Y-125930930D02*
G01*
X146664663Y-125930930D01*
X146664663Y-125730187D01*
X146775774Y-125730187D01*
X146775774Y-125759451D01*
X146786973Y-125786487D01*
X146807665Y-125807179D01*
X146834701Y-125818378D01*
X146849333Y-125819819D01*
X147420761Y-125819819D01*
X147435393Y-125818378D01*
X147462429Y-125807179D01*
X147483121Y-125786487D01*
X147494320Y-125759451D01*
X147494320Y-125730187D01*
X147483121Y-125703151D01*
X147462429Y-125682459D01*
X147435393Y-125671260D01*
X147420761Y-125669819D01*
X147210047Y-125669819D01*
X147210047Y-124973504D01*
X147272490Y-125035947D01*
X147278240Y-125040667D01*
X147279539Y-125042164D01*
X147281793Y-125043583D01*
X147283855Y-125045275D01*
X147285687Y-125046033D01*
X147291982Y-125049996D01*
X147387220Y-125097615D01*
X147400951Y-125102870D01*
X147430141Y-125104944D01*
X147457903Y-125095690D01*
X147480010Y-125076517D01*
X147493098Y-125050342D01*
X147495172Y-125021152D01*
X147485918Y-124993391D01*
X147466745Y-124971283D01*
X147454302Y-124963451D01*
X147369950Y-124921275D01*
X147288569Y-124839894D01*
X147225186Y-124744819D01*
X147774333Y-124744819D01*
X147774333Y-125459104D01*
X147775062Y-125466509D01*
X147774922Y-125468484D01*
X147775512Y-125471081D01*
X147775774Y-125473736D01*
X147776532Y-125475567D01*
X147778182Y-125482821D01*
X147825801Y-125625678D01*
X147831795Y-125639103D01*
X147833559Y-125641137D01*
X147834591Y-125643628D01*
X147843919Y-125654994D01*
X147939157Y-125750233D01*
X147950522Y-125759561D01*
X147953012Y-125760592D01*
X147955047Y-125762357D01*
X147968473Y-125768351D01*
X148111329Y-125815970D01*
X148118584Y-125817619D01*
X148120415Y-125818378D01*
X148123068Y-125818639D01*
X148125666Y-125819230D01*
X148127640Y-125819089D01*
X148135047Y-125819819D01*
X148230285Y-125819819D01*
X148244917Y-125818378D01*
X148271953Y-125807179D01*
X148292645Y-125786487D01*
X148303844Y-125759451D01*
X148303844Y-125730187D01*
X148292645Y-125703151D01*
X148271953Y-125682459D01*
X148244917Y-125671260D01*
X148230285Y-125669819D01*
X148147217Y-125669819D01*
X148032704Y-125631648D01*
X147962504Y-125561447D01*
X147924333Y-125446933D01*
X147924333Y-124744819D01*
X147922892Y-124730187D01*
X147911693Y-124703151D01*
X147891001Y-124682459D01*
X147863965Y-124671260D01*
X147834701Y-124671260D01*
X147807665Y-124682459D01*
X147786973Y-124703151D01*
X147775774Y-124730187D01*
X147774333Y-124744819D01*
X147225186Y-124744819D01*
X147197451Y-124703216D01*
X147197416Y-124703173D01*
X147197407Y-124703151D01*
X147197355Y-124703099D01*
X147188135Y-124691841D01*
X147181965Y-124687709D01*
X147176715Y-124682459D01*
X147169925Y-124679646D01*
X147163820Y-124675558D01*
X147156539Y-124674101D01*
X147149679Y-124671260D01*
X147142331Y-124671260D01*
X147135126Y-124669819D01*
X147127842Y-124671260D01*
X147120415Y-124671260D01*
X147113626Y-124674072D01*
X147106418Y-124675498D01*
X147100239Y-124679617D01*
X147093379Y-124682459D01*
X147088183Y-124687654D01*
X147082069Y-124691731D01*
X147077937Y-124697900D01*
X147072687Y-124703151D01*
X147069874Y-124709940D01*
X147065786Y-124716046D01*
X147064329Y-124723326D01*
X147061488Y-124730187D01*
X147060062Y-124744663D01*
X147060047Y-124744740D01*
X147060052Y-124744766D01*
X147060047Y-124744819D01*
X147060047Y-125669819D01*
X146849333Y-125669819D01*
X146834701Y-125671260D01*
X146807665Y-125682459D01*
X146786973Y-125703151D01*
X146775774Y-125730187D01*
X146664663Y-125730187D01*
X146664663Y-124558708D01*
X148414955Y-124558708D01*
X148414955Y-125930930D01*
G37*
G36*
X77140930Y-110852777D02*
G01*
X75768708Y-110852777D01*
X75768708Y-110142857D01*
X75879819Y-110142857D01*
X75879819Y-110619047D01*
X75881260Y-110633679D01*
X75892459Y-110660715D01*
X75913151Y-110681407D01*
X75940187Y-110692606D01*
X75969451Y-110692606D01*
X75996487Y-110681407D01*
X76017179Y-110660715D01*
X76028378Y-110633679D01*
X76029819Y-110619047D01*
X76029819Y-110210731D01*
X76278009Y-110185912D01*
X76268689Y-110204554D01*
X76263434Y-110218286D01*
X76263243Y-110220973D01*
X76262212Y-110223463D01*
X76260771Y-110238095D01*
X76260771Y-110476190D01*
X76262212Y-110490822D01*
X76263243Y-110493311D01*
X76263434Y-110495999D01*
X76268689Y-110509731D01*
X76316308Y-110604969D01*
X76320272Y-110611268D01*
X76321030Y-110613096D01*
X76322718Y-110615152D01*
X76324140Y-110617412D01*
X76325638Y-110618711D01*
X76330357Y-110624461D01*
X76377976Y-110672080D01*
X76383725Y-110676798D01*
X76385025Y-110678297D01*
X76387284Y-110679718D01*
X76389341Y-110681407D01*
X76391168Y-110682164D01*
X76397468Y-110686129D01*
X76492706Y-110733748D01*
X76506437Y-110739003D01*
X76509126Y-110739194D01*
X76511615Y-110740225D01*
X76526247Y-110741666D01*
X76764342Y-110741666D01*
X76778974Y-110740225D01*
X76781463Y-110739193D01*
X76784151Y-110739003D01*
X76797883Y-110733748D01*
X76893121Y-110686129D01*
X76899417Y-110682165D01*
X76901247Y-110681408D01*
X76903305Y-110679718D01*
X76905564Y-110678297D01*
X76906863Y-110676798D01*
X76912612Y-110672081D01*
X76960232Y-110624462D01*
X76964950Y-110618712D01*
X76966450Y-110617412D01*
X76967872Y-110615152D01*
X76969560Y-110613096D01*
X76970317Y-110611268D01*
X76974282Y-110604969D01*
X77021901Y-110509731D01*
X77027156Y-110496000D01*
X77027347Y-110493310D01*
X77028378Y-110490822D01*
X77029819Y-110476190D01*
X77029819Y-110238095D01*
X77028378Y-110223463D01*
X77027347Y-110220974D01*
X77027156Y-110218285D01*
X77021901Y-110204554D01*
X76974282Y-110109316D01*
X76970317Y-110103016D01*
X76969560Y-110101189D01*
X76967872Y-110099132D01*
X76966450Y-110096873D01*
X76964950Y-110095572D01*
X76960232Y-110089823D01*
X76912612Y-110042204D01*
X76901247Y-110032877D01*
X76874211Y-110021679D01*
X76844948Y-110021679D01*
X76817912Y-110032878D01*
X76797219Y-110053571D01*
X76786021Y-110080607D01*
X76786021Y-110109870D01*
X76797220Y-110136906D01*
X76806548Y-110148272D01*
X76845561Y-110187284D01*
X76879819Y-110255800D01*
X76879819Y-110458485D01*
X76845561Y-110527000D01*
X76815153Y-110557407D01*
X76746637Y-110591666D01*
X76543952Y-110591666D01*
X76475436Y-110557408D01*
X76445029Y-110527001D01*
X76410771Y-110458485D01*
X76410771Y-110255800D01*
X76445029Y-110187284D01*
X76484042Y-110148271D01*
X76493369Y-110136906D01*
X76494814Y-110133417D01*
X76497206Y-110130494D01*
X76500373Y-110119996D01*
X76504568Y-110109870D01*
X76504568Y-110106093D01*
X76505659Y-110102478D01*
X76504568Y-110091568D01*
X76504568Y-110080607D01*
X76503122Y-110077118D01*
X76502747Y-110073359D01*
X76497562Y-110063695D01*
X76493369Y-110053571D01*
X76490698Y-110050900D01*
X76488913Y-110047572D01*
X76480424Y-110040626D01*
X76472676Y-110032878D01*
X76469189Y-110031433D01*
X76466265Y-110029041D01*
X76455764Y-110025872D01*
X76445640Y-110021679D01*
X76441865Y-110021679D01*
X76438249Y-110020588D01*
X76423546Y-110020610D01*
X75947356Y-110068229D01*
X75942024Y-110069298D01*
X75940187Y-110069298D01*
X75938464Y-110070011D01*
X75932940Y-110071119D01*
X75923280Y-110076301D01*
X75913151Y-110080497D01*
X75910479Y-110083168D01*
X75907153Y-110084953D01*
X75900212Y-110093435D01*
X75892459Y-110101189D01*
X75891013Y-110104677D01*
X75888622Y-110107601D01*
X75885454Y-110118098D01*
X75881260Y-110128225D01*
X75880707Y-110133830D01*
X75880169Y-110135617D01*
X75880351Y-110137445D01*
X75879819Y-110142857D01*
X75768708Y-110142857D01*
X75768708Y-109652034D01*
X75881260Y-109652034D01*
X75881260Y-109681298D01*
X75892459Y-109708334D01*
X75913151Y-109729026D01*
X75940187Y-109740225D01*
X75954819Y-109741666D01*
X76669104Y-109741666D01*
X76676509Y-109740936D01*
X76678484Y-109741077D01*
X76681081Y-109740486D01*
X76683736Y-109740225D01*
X76685567Y-109739466D01*
X76692821Y-109737817D01*
X76835678Y-109690198D01*
X76849103Y-109684204D01*
X76851137Y-109682439D01*
X76853628Y-109681408D01*
X76864994Y-109672080D01*
X76960233Y-109576842D01*
X76969561Y-109565477D01*
X76970592Y-109562986D01*
X76972357Y-109560952D01*
X76978351Y-109547526D01*
X77025970Y-109404670D01*
X77027619Y-109397414D01*
X77028378Y-109395584D01*
X77028639Y-109392930D01*
X77029230Y-109390333D01*
X77029089Y-109388358D01*
X77029819Y-109380952D01*
X77029819Y-109285714D01*
X77028378Y-109271082D01*
X77017179Y-109244046D01*
X76996487Y-109223354D01*
X76969451Y-109212155D01*
X76940187Y-109212155D01*
X76913151Y-109223354D01*
X76892459Y-109244046D01*
X76881260Y-109271082D01*
X76879819Y-109285714D01*
X76879819Y-109368782D01*
X76841648Y-109483294D01*
X76771447Y-109553494D01*
X76656934Y-109591666D01*
X75954819Y-109591666D01*
X75940187Y-109593107D01*
X75913151Y-109604306D01*
X75892459Y-109624998D01*
X75881260Y-109652034D01*
X75768708Y-109652034D01*
X75768708Y-109101044D01*
X77140930Y-109101044D01*
X77140930Y-110852777D01*
G37*
D10*
G36*
X140923015Y-110953691D02*
G01*
X138076984Y-110953691D01*
X138076984Y-110221152D01*
X138188095Y-110221152D01*
X138188095Y-110364009D01*
X138189290Y-110370018D01*
X138189588Y-110376136D01*
X138237207Y-110566612D01*
X138239546Y-110571564D01*
X138240993Y-110576846D01*
X138288611Y-110672083D01*
X138293526Y-110678416D01*
X138297978Y-110685078D01*
X138393216Y-110780316D01*
X138395297Y-110781706D01*
X138395811Y-110782734D01*
X138402776Y-110786704D01*
X138409437Y-110791155D01*
X138410585Y-110791155D01*
X138412760Y-110792395D01*
X138555616Y-110840014D01*
X138563566Y-110841016D01*
X138571428Y-110842580D01*
X138666666Y-110842580D01*
X138674528Y-110841016D01*
X138682477Y-110840014D01*
X138825334Y-110792395D01*
X138827509Y-110791155D01*
X138828657Y-110791155D01*
X138835321Y-110786701D01*
X138842282Y-110782734D01*
X138842795Y-110781707D01*
X138844878Y-110780316D01*
X138892497Y-110732698D01*
X138903336Y-110716477D01*
X138903336Y-110678208D01*
X138876276Y-110651148D01*
X138838007Y-110651148D01*
X138821786Y-110661987D01*
X138782514Y-110701259D01*
X138658553Y-110742580D01*
X138579541Y-110742580D01*
X138455579Y-110701259D01*
X138374426Y-110620106D01*
X138332890Y-110537034D01*
X138324462Y-110503321D01*
X139188221Y-110503321D01*
X139200322Y-110539626D01*
X139215734Y-110551587D01*
X139303716Y-110595578D01*
X139389712Y-110681574D01*
X139482207Y-110820315D01*
X139495987Y-110834124D01*
X139501034Y-110835133D01*
X139504675Y-110838774D01*
X139519235Y-110838774D01*
X139533513Y-110841630D01*
X139537797Y-110838774D01*
X139542943Y-110838774D01*
X139553237Y-110828479D01*
X139565353Y-110820402D01*
X139566362Y-110815354D01*
X139570003Y-110811714D01*
X139573809Y-110792580D01*
X139573809Y-110321365D01*
X140140724Y-110321365D01*
X140188343Y-110797555D01*
X140191901Y-110809221D01*
X140191901Y-110811714D01*
X140192994Y-110812807D01*
X140194034Y-110816215D01*
X140207060Y-110826873D01*
X140218961Y-110838774D01*
X140222454Y-110839468D01*
X140223652Y-110840449D01*
X140226133Y-110840200D01*
X140238095Y-110842580D01*
X140714285Y-110842580D01*
X140733419Y-110838774D01*
X140760479Y-110811714D01*
X140760479Y-110773446D01*
X140733419Y-110746386D01*
X140714285Y-110742580D01*
X140283345Y-110742580D01*
X140251760Y-110426743D01*
X140310972Y-110456349D01*
X140313387Y-110457010D01*
X140314199Y-110457822D01*
X140322060Y-110459385D01*
X140329788Y-110461502D01*
X140330876Y-110461139D01*
X140333333Y-110461628D01*
X140571428Y-110461628D01*
X140573884Y-110461139D01*
X140574973Y-110461502D01*
X140582700Y-110459385D01*
X140590562Y-110457822D01*
X140591373Y-110457010D01*
X140593789Y-110456349D01*
X140689026Y-110408731D01*
X140695359Y-110403815D01*
X140702021Y-110399364D01*
X140749640Y-110351746D01*
X140754094Y-110345079D01*
X140759006Y-110338751D01*
X140806625Y-110243513D01*
X140807286Y-110241097D01*
X140808098Y-110240286D01*
X140809661Y-110232424D01*
X140811778Y-110224697D01*
X140811415Y-110223608D01*
X140811904Y-110221152D01*
X140811904Y-109983057D01*
X140811415Y-109980600D01*
X140811778Y-109979512D01*
X140809661Y-109971784D01*
X140808098Y-109963923D01*
X140807286Y-109963111D01*
X140806625Y-109960696D01*
X140759006Y-109865458D01*
X140754094Y-109859129D01*
X140749640Y-109852463D01*
X140702021Y-109804845D01*
X140695361Y-109800394D01*
X140689027Y-109795479D01*
X140593789Y-109747859D01*
X140591373Y-109747197D01*
X140590562Y-109746386D01*
X140582700Y-109744822D01*
X140574973Y-109742706D01*
X140573884Y-109743068D01*
X140571428Y-109742580D01*
X140333333Y-109742580D01*
X140330876Y-109743068D01*
X140329788Y-109742706D01*
X140322060Y-109744822D01*
X140314199Y-109746386D01*
X140313387Y-109747197D01*
X140310972Y-109747859D01*
X140215734Y-109795479D01*
X140209405Y-109800390D01*
X140202739Y-109804845D01*
X140155121Y-109852464D01*
X140144282Y-109868685D01*
X140144282Y-109906953D01*
X140171342Y-109934013D01*
X140209610Y-109934013D01*
X140225831Y-109923174D01*
X140267713Y-109881291D01*
X140345136Y-109842580D01*
X140559625Y-109842580D01*
X140637048Y-109881292D01*
X140673192Y-109917437D01*
X140711904Y-109994860D01*
X140711904Y-110209348D01*
X140673192Y-110286771D01*
X140637048Y-110322916D01*
X140559625Y-110361628D01*
X140345137Y-110361628D01*
X140267713Y-110322916D01*
X140225831Y-110281035D01*
X140209610Y-110270196D01*
X140206966Y-110270196D01*
X140204919Y-110268521D01*
X140188169Y-110270196D01*
X140171342Y-110270196D01*
X140169472Y-110272065D01*
X140166840Y-110272329D01*
X140156179Y-110285358D01*
X140144282Y-110297256D01*
X140144282Y-110299899D01*
X140142607Y-110301947D01*
X140140724Y-110321365D01*
X139573809Y-110321365D01*
X139573809Y-109842580D01*
X139809523Y-109842580D01*
X139828657Y-109838774D01*
X139855717Y-109811714D01*
X139855717Y-109773446D01*
X139828657Y-109746386D01*
X139809523Y-109742580D01*
X139238095Y-109742580D01*
X139218961Y-109746386D01*
X139191901Y-109773446D01*
X139191901Y-109811714D01*
X139218961Y-109838774D01*
X139238095Y-109842580D01*
X139473809Y-109842580D01*
X139473809Y-110627440D01*
X139470174Y-110621988D01*
X139466674Y-110618481D01*
X139463926Y-110614368D01*
X139368688Y-110519130D01*
X139362026Y-110514678D01*
X139355693Y-110509763D01*
X139260456Y-110462145D01*
X139241640Y-110456992D01*
X139205335Y-110469093D01*
X139188221Y-110503321D01*
X138324462Y-110503321D01*
X138288095Y-110357854D01*
X138288095Y-110227307D01*
X138332890Y-110048127D01*
X138374426Y-109965055D01*
X138455579Y-109883901D01*
X138579542Y-109842580D01*
X138658552Y-109842580D01*
X138782514Y-109883901D01*
X138821786Y-109923174D01*
X138838007Y-109934013D01*
X138876276Y-109934013D01*
X138903336Y-109906953D01*
X138903336Y-109868684D01*
X138892497Y-109852463D01*
X138844878Y-109804845D01*
X138842796Y-109803454D01*
X138842283Y-109802427D01*
X138835315Y-109798455D01*
X138828657Y-109794006D01*
X138827510Y-109794006D01*
X138825335Y-109792766D01*
X138682478Y-109745146D01*
X138674527Y-109744143D01*
X138666666Y-109742580D01*
X138571428Y-109742580D01*
X138563566Y-109744143D01*
X138555616Y-109745146D01*
X138412759Y-109792766D01*
X138410584Y-109794006D01*
X138409437Y-109794006D01*
X138402778Y-109798455D01*
X138395811Y-109802427D01*
X138395297Y-109803454D01*
X138393216Y-109804845D01*
X138297978Y-109900083D01*
X138293526Y-109906744D01*
X138288611Y-109913078D01*
X138240993Y-110008315D01*
X138239546Y-110013596D01*
X138237207Y-110018549D01*
X138189588Y-110209025D01*
X138189290Y-110215142D01*
X138188095Y-110221152D01*
X138076984Y-110221152D01*
X138076984Y-109631469D01*
X140923015Y-109631469D01*
X140923015Y-110953691D01*
G37*
G36*
X140181228Y-104904862D02*
G01*
X140142516Y-104982285D01*
X140106372Y-105018430D01*
X140028949Y-105057142D01*
X139909699Y-105057142D01*
X139832275Y-105018430D01*
X139796130Y-104982286D01*
X139757419Y-104904863D01*
X139757419Y-104585714D01*
X140181228Y-104585714D01*
X140181228Y-104904862D01*
G37*
G36*
X140868530Y-107216828D02*
G01*
X139498815Y-107216828D01*
X139498815Y-106675027D01*
X139609926Y-106675027D01*
X139622027Y-106711331D01*
X139656256Y-106728445D01*
X139675611Y-106726005D01*
X140324085Y-106509847D01*
X140324085Y-106866666D01*
X140040752Y-106866666D01*
X140021618Y-106870472D01*
X139994558Y-106897532D01*
X139994558Y-106935800D01*
X140021618Y-106962860D01*
X140040752Y-106966666D01*
X140324085Y-106966666D01*
X140324085Y-107059523D01*
X140327891Y-107078657D01*
X140354951Y-107105717D01*
X140393219Y-107105717D01*
X140420279Y-107078657D01*
X140424085Y-107059523D01*
X140424085Y-106966666D01*
X140707419Y-106966666D01*
X140726553Y-106962860D01*
X140753613Y-106935800D01*
X140753613Y-106897532D01*
X140726553Y-106870472D01*
X140707419Y-106866666D01*
X140424085Y-106866666D01*
X140424085Y-106440476D01*
X140420279Y-106421342D01*
X140414459Y-106415522D01*
X140411857Y-106407716D01*
X140401449Y-106402512D01*
X140393219Y-106394282D01*
X140384989Y-106394282D01*
X140377629Y-106390602D01*
X140358273Y-106393042D01*
X139643989Y-106631137D01*
X139627040Y-106640798D01*
X139609926Y-106675027D01*
X139498815Y-106675027D01*
X139498815Y-105783512D01*
X139658370Y-105783512D01*
X139661225Y-105787794D01*
X139661225Y-105792943D01*
X139671521Y-105803239D01*
X139679597Y-105815353D01*
X139684644Y-105816362D01*
X139688285Y-105820003D01*
X139707419Y-105823809D01*
X140657419Y-105823809D01*
X140657419Y-106059523D01*
X140661225Y-106078657D01*
X140688285Y-106105717D01*
X140726553Y-106105717D01*
X140753613Y-106078657D01*
X140757419Y-106059523D01*
X140757419Y-105488095D01*
X140753613Y-105468961D01*
X140726553Y-105441901D01*
X140688285Y-105441901D01*
X140661225Y-105468961D01*
X140657419Y-105488095D01*
X140657419Y-105723809D01*
X139872557Y-105723809D01*
X139878011Y-105720173D01*
X139881515Y-105716676D01*
X139885631Y-105713926D01*
X139980869Y-105618688D01*
X139985319Y-105612028D01*
X139990235Y-105605694D01*
X140037854Y-105510456D01*
X140043007Y-105491640D01*
X140030905Y-105455335D01*
X139996677Y-105438221D01*
X139960373Y-105450323D01*
X139948411Y-105465735D01*
X139904420Y-105553716D01*
X139818425Y-105639712D01*
X139679684Y-105732206D01*
X139665875Y-105745987D01*
X139664865Y-105751034D01*
X139661225Y-105754675D01*
X139661225Y-105769237D01*
X139658370Y-105783512D01*
X139498815Y-105783512D01*
X139498815Y-104535714D01*
X139657419Y-104535714D01*
X139657419Y-104916666D01*
X139657907Y-104919122D01*
X139657545Y-104920211D01*
X139659661Y-104927938D01*
X139661225Y-104935800D01*
X139662036Y-104936611D01*
X139662698Y-104939027D01*
X139710316Y-105034264D01*
X139715231Y-105040597D01*
X139719683Y-105047259D01*
X139767301Y-105094878D01*
X139773967Y-105099332D01*
X139780296Y-105104244D01*
X139875534Y-105151863D01*
X139877949Y-105152524D01*
X139878761Y-105153336D01*
X139886622Y-105154899D01*
X139894350Y-105157016D01*
X139895438Y-105156653D01*
X139897895Y-105157142D01*
X140040752Y-105157142D01*
X140043208Y-105156653D01*
X140044297Y-105157016D01*
X140052024Y-105154899D01*
X140059886Y-105153336D01*
X140060697Y-105152524D01*
X140063113Y-105151863D01*
X140158350Y-105104245D01*
X140164683Y-105099329D01*
X140171345Y-105094878D01*
X140218964Y-105047260D01*
X140223418Y-105040593D01*
X140228330Y-105034265D01*
X140275949Y-104939027D01*
X140276610Y-104936611D01*
X140277422Y-104935800D01*
X140278985Y-104927938D01*
X140281102Y-104920211D01*
X140280739Y-104919122D01*
X140281228Y-104916666D01*
X140281228Y-104869841D01*
X140678746Y-105148104D01*
X140696604Y-105155958D01*
X140734290Y-105149308D01*
X140756235Y-105117957D01*
X140749585Y-105080271D01*
X140736092Y-105066180D01*
X140281228Y-104747775D01*
X140281228Y-104585714D01*
X140707419Y-104585714D01*
X140726553Y-104581908D01*
X140753613Y-104554848D01*
X140753613Y-104516580D01*
X140726553Y-104489520D01*
X140707419Y-104485714D01*
X139707419Y-104485714D01*
X139688285Y-104489520D01*
X139661225Y-104516580D01*
X139657419Y-104535714D01*
X139498815Y-104535714D01*
X139498815Y-104374603D01*
X140868530Y-104374603D01*
X140868530Y-107216828D01*
G37*
D11*
G36*
X148870422Y-99097222D02*
G01*
X147009310Y-99097222D01*
X147009310Y-98133333D01*
X147164866Y-98133333D01*
X147164866Y-98800000D01*
X147166307Y-98814632D01*
X147177506Y-98841668D01*
X147198198Y-98862360D01*
X147225234Y-98873559D01*
X147254498Y-98873559D01*
X147281534Y-98862360D01*
X147302226Y-98841668D01*
X147313425Y-98814632D01*
X147314866Y-98800000D01*
X147314866Y-98201207D01*
X147743508Y-98158342D01*
X147706118Y-98233125D01*
X147700863Y-98246857D01*
X147700672Y-98249544D01*
X147699641Y-98252034D01*
X147698200Y-98266666D01*
X147698200Y-98600000D01*
X147699641Y-98614632D01*
X147700672Y-98617121D01*
X147700863Y-98619809D01*
X147706118Y-98633541D01*
X147772784Y-98766874D01*
X147776748Y-98773173D01*
X147777506Y-98775001D01*
X147779194Y-98777057D01*
X147780616Y-98779317D01*
X147782114Y-98780616D01*
X147786833Y-98786366D01*
X147853500Y-98853033D01*
X147859249Y-98857751D01*
X147860549Y-98859250D01*
X147862808Y-98860671D01*
X147864865Y-98862360D01*
X147866692Y-98863117D01*
X147872992Y-98867082D01*
X148006326Y-98933748D01*
X148020057Y-98939003D01*
X148022744Y-98939193D01*
X148025234Y-98940225D01*
X148039866Y-98941666D01*
X148373200Y-98941666D01*
X148387832Y-98940225D01*
X148390321Y-98939193D01*
X148393009Y-98939003D01*
X148406741Y-98933748D01*
X148540074Y-98867082D01*
X148546373Y-98863117D01*
X148548201Y-98862360D01*
X148550257Y-98860671D01*
X148552517Y-98859250D01*
X148553816Y-98857751D01*
X148559566Y-98853033D01*
X148626233Y-98786366D01*
X148630951Y-98780616D01*
X148632450Y-98779317D01*
X148633871Y-98777057D01*
X148635560Y-98775001D01*
X148636317Y-98773173D01*
X148640282Y-98766874D01*
X148706948Y-98633540D01*
X148712203Y-98619809D01*
X148712393Y-98617121D01*
X148713425Y-98614632D01*
X148714866Y-98600000D01*
X148714866Y-98266666D01*
X148713425Y-98252034D01*
X148712393Y-98249544D01*
X148712203Y-98246857D01*
X148706948Y-98233126D01*
X148640282Y-98099792D01*
X148636317Y-98093492D01*
X148635560Y-98091665D01*
X148633871Y-98089608D01*
X148632450Y-98087349D01*
X148630951Y-98086049D01*
X148626233Y-98080300D01*
X148559566Y-98013633D01*
X148548201Y-98004306D01*
X148521164Y-97993107D01*
X148491902Y-97993107D01*
X148464865Y-98004306D01*
X148444173Y-98024998D01*
X148432974Y-98052035D01*
X148432974Y-98081297D01*
X148444173Y-98108334D01*
X148453500Y-98119699D01*
X148511560Y-98177759D01*
X148564866Y-98284370D01*
X148564866Y-98582295D01*
X148511560Y-98688906D01*
X148462105Y-98738361D01*
X148355495Y-98791666D01*
X148057571Y-98791666D01*
X147950959Y-98738360D01*
X147901504Y-98688905D01*
X147848200Y-98582295D01*
X147848200Y-98284370D01*
X147901504Y-98177760D01*
X147959566Y-98119699D01*
X147968893Y-98108334D01*
X147970338Y-98104845D01*
X147972730Y-98101922D01*
X147975897Y-98091424D01*
X147980092Y-98081298D01*
X147980092Y-98077521D01*
X147981183Y-98073906D01*
X147980092Y-98062996D01*
X147980092Y-98052035D01*
X147978646Y-98048546D01*
X147978271Y-98044787D01*
X147973086Y-98035123D01*
X147968893Y-98024999D01*
X147966222Y-98022328D01*
X147964437Y-98019000D01*
X147955948Y-98012054D01*
X147948200Y-98004306D01*
X147944713Y-98002861D01*
X147941789Y-98000469D01*
X147931288Y-97997300D01*
X147921164Y-97993107D01*
X147917389Y-97993107D01*
X147913773Y-97992016D01*
X147899070Y-97992038D01*
X147232403Y-98058705D01*
X147227071Y-98059774D01*
X147225234Y-98059774D01*
X147223511Y-98060487D01*
X147217987Y-98061595D01*
X147208327Y-98066777D01*
X147198198Y-98070973D01*
X147195526Y-98073644D01*
X147192200Y-98075429D01*
X147185259Y-98083911D01*
X147177506Y-98091665D01*
X147176060Y-98095153D01*
X147173669Y-98098077D01*
X147170501Y-98108574D01*
X147166307Y-98118701D01*
X147165754Y-98124306D01*
X147165216Y-98126093D01*
X147165398Y-98127921D01*
X147164866Y-98133333D01*
X147009310Y-98133333D01*
X147009310Y-96397196D01*
X147164918Y-96397196D01*
X147169551Y-96426091D01*
X147184887Y-96451013D01*
X147208594Y-96468170D01*
X147222494Y-96472960D01*
X148333350Y-96737449D01*
X147620541Y-96927532D01*
X147617113Y-96928817D01*
X147615673Y-96929009D01*
X147613962Y-96929999D01*
X147606775Y-96932695D01*
X147598915Y-96938710D01*
X147590348Y-96943671D01*
X147587394Y-96947528D01*
X147583537Y-96950482D01*
X147578576Y-96959049D01*
X147572561Y-96966909D01*
X147571309Y-96971601D01*
X147568875Y-96975807D01*
X147567570Y-96985622D01*
X147565021Y-96995185D01*
X147565660Y-97000000D01*
X147565021Y-97004815D01*
X147567570Y-97014377D01*
X147568875Y-97024193D01*
X147571309Y-97028398D01*
X147572561Y-97033091D01*
X147578576Y-97040950D01*
X147583537Y-97049518D01*
X147587394Y-97052471D01*
X147590348Y-97056329D01*
X147598915Y-97061289D01*
X147606775Y-97067305D01*
X147613962Y-97070000D01*
X147615673Y-97070991D01*
X147617113Y-97071182D01*
X147620541Y-97072468D01*
X148333349Y-97262549D01*
X147222494Y-97527040D01*
X147208594Y-97531830D01*
X147184887Y-97548987D01*
X147169551Y-97573909D01*
X147164918Y-97602804D01*
X147171696Y-97631272D01*
X147188853Y-97654979D01*
X147213775Y-97670315D01*
X147242670Y-97674948D01*
X147257238Y-97672960D01*
X148657238Y-97339626D01*
X148662255Y-97337896D01*
X148664059Y-97337657D01*
X148665689Y-97336712D01*
X148671138Y-97334835D01*
X148679958Y-97328452D01*
X148689384Y-97322995D01*
X148691724Y-97319937D01*
X148694845Y-97317679D01*
X148700554Y-97308400D01*
X148707171Y-97299757D01*
X148708162Y-97296038D01*
X148710182Y-97292757D01*
X148711905Y-97282002D01*
X148714712Y-97271481D01*
X148714204Y-97267663D01*
X148714814Y-97263862D01*
X148712291Y-97253267D01*
X148710857Y-97242473D01*
X148708928Y-97239141D01*
X148708036Y-97235394D01*
X148701649Y-97226569D01*
X148696195Y-97217148D01*
X148693137Y-97214807D01*
X148690879Y-97211687D01*
X148681606Y-97205981D01*
X148672958Y-97199361D01*
X148667556Y-97197335D01*
X148665957Y-97196351D01*
X148664166Y-97196063D01*
X148659191Y-97194198D01*
X147930946Y-96999999D01*
X148659191Y-96805801D01*
X148664165Y-96803935D01*
X148665957Y-96803648D01*
X148667557Y-96802663D01*
X148672957Y-96800638D01*
X148681603Y-96794019D01*
X148690879Y-96788312D01*
X148693137Y-96785191D01*
X148696195Y-96782851D01*
X148701652Y-96773425D01*
X148708035Y-96764605D01*
X148708926Y-96760860D01*
X148710857Y-96757526D01*
X148712291Y-96746725D01*
X148714813Y-96736137D01*
X148714203Y-96732336D01*
X148714711Y-96728518D01*
X148711904Y-96717993D01*
X148710181Y-96707242D01*
X148708163Y-96703963D01*
X148707171Y-96700242D01*
X148700549Y-96691591D01*
X148694844Y-96682320D01*
X148691725Y-96680063D01*
X148689384Y-96677004D01*
X148679957Y-96671546D01*
X148671137Y-96665163D01*
X148665686Y-96663284D01*
X148664059Y-96662342D01*
X148662258Y-96662102D01*
X148657237Y-96660372D01*
X147257238Y-96327040D01*
X147242670Y-96325052D01*
X147213775Y-96329685D01*
X147188853Y-96345021D01*
X147171696Y-96368728D01*
X147164918Y-96397196D01*
X147009310Y-96397196D01*
X147009310Y-95400000D01*
X147164866Y-95400000D01*
X147164866Y-95733333D01*
X147165595Y-95740738D01*
X147165455Y-95742713D01*
X147166045Y-95745310D01*
X147166307Y-95747965D01*
X147167065Y-95749796D01*
X147168715Y-95757050D01*
X147235382Y-95957051D01*
X147241376Y-95970476D01*
X147260550Y-95992583D01*
X147286723Y-96005670D01*
X147315913Y-96007745D01*
X147343676Y-95998490D01*
X147365783Y-95979317D01*
X147378870Y-95953143D01*
X147380944Y-95923953D01*
X147377684Y-95909616D01*
X147314866Y-95721162D01*
X147314866Y-95417705D01*
X147368171Y-95311094D01*
X147417627Y-95261638D01*
X147524238Y-95208333D01*
X147622161Y-95208333D01*
X147728772Y-95261638D01*
X147778226Y-95311093D01*
X147835768Y-95426176D01*
X147900439Y-95684857D01*
X147900824Y-95685936D01*
X147900863Y-95686476D01*
X147903190Y-95692557D01*
X147905386Y-95698703D01*
X147905708Y-95699138D01*
X147906118Y-95700208D01*
X147972784Y-95833541D01*
X147976748Y-95839840D01*
X147977506Y-95841668D01*
X147979194Y-95843724D01*
X147980616Y-95845984D01*
X147982114Y-95847283D01*
X147986833Y-95853033D01*
X148053500Y-95919700D01*
X148059249Y-95924418D01*
X148060549Y-95925917D01*
X148062808Y-95927338D01*
X148064865Y-95929027D01*
X148066692Y-95929784D01*
X148072992Y-95933749D01*
X148206326Y-96000415D01*
X148220057Y-96005670D01*
X148222744Y-96005860D01*
X148225234Y-96006892D01*
X148239866Y-96008333D01*
X148373200Y-96008333D01*
X148387832Y-96006892D01*
X148390321Y-96005860D01*
X148393009Y-96005670D01*
X148406741Y-96000415D01*
X148540074Y-95933749D01*
X148546373Y-95929784D01*
X148548201Y-95929027D01*
X148550257Y-95927338D01*
X148552517Y-95925917D01*
X148553816Y-95924418D01*
X148559566Y-95919700D01*
X148626233Y-95853033D01*
X148630951Y-95847283D01*
X148632450Y-95845984D01*
X148633871Y-95843724D01*
X148635560Y-95841668D01*
X148636317Y-95839840D01*
X148640282Y-95833541D01*
X148706948Y-95700207D01*
X148712203Y-95686476D01*
X148712393Y-95683788D01*
X148713425Y-95681299D01*
X148714866Y-95666667D01*
X148714866Y-95333333D01*
X148714136Y-95325927D01*
X148714277Y-95323953D01*
X148713686Y-95321355D01*
X148713425Y-95318701D01*
X148712666Y-95316869D01*
X148711017Y-95309616D01*
X148644351Y-95109616D01*
X148638357Y-95096191D01*
X148619183Y-95074083D01*
X148593010Y-95060997D01*
X148563820Y-95058922D01*
X148536058Y-95068176D01*
X148513950Y-95087350D01*
X148500864Y-95113523D01*
X148498789Y-95142713D01*
X148502049Y-95157050D01*
X148564866Y-95345502D01*
X148564866Y-95648962D01*
X148511560Y-95755573D01*
X148462105Y-95805028D01*
X148355495Y-95858333D01*
X148257571Y-95858333D01*
X148150959Y-95805027D01*
X148101504Y-95755572D01*
X148043964Y-95640491D01*
X147979294Y-95381810D01*
X147978908Y-95380730D01*
X147978870Y-95380190D01*
X147976539Y-95374100D01*
X147974347Y-95367964D01*
X147974024Y-95367528D01*
X147973615Y-95366459D01*
X147906948Y-95233126D01*
X147902985Y-95226831D01*
X147902227Y-95225000D01*
X147900533Y-95222936D01*
X147899115Y-95220683D01*
X147897620Y-95219386D01*
X147892900Y-95213635D01*
X147826233Y-95146967D01*
X147820483Y-95142248D01*
X147819184Y-95140750D01*
X147816924Y-95139328D01*
X147814868Y-95137640D01*
X147813040Y-95136882D01*
X147806741Y-95132918D01*
X147673407Y-95066251D01*
X147659675Y-95060996D01*
X147656987Y-95060805D01*
X147654498Y-95059774D01*
X147639866Y-95058333D01*
X147506533Y-95058333D01*
X147491901Y-95059774D01*
X147489412Y-95060804D01*
X147486723Y-95060996D01*
X147472992Y-95066251D01*
X147339659Y-95132918D01*
X147333362Y-95136881D01*
X147331532Y-95137640D01*
X147329470Y-95139331D01*
X147327216Y-95140751D01*
X147325919Y-95142246D01*
X147320167Y-95146967D01*
X147253500Y-95213634D01*
X147248779Y-95219386D01*
X147247284Y-95220683D01*
X147245864Y-95222937D01*
X147244173Y-95224999D01*
X147243414Y-95226829D01*
X147239451Y-95233126D01*
X147172784Y-95366459D01*
X147167529Y-95380190D01*
X147167337Y-95382879D01*
X147166307Y-95385368D01*
X147164866Y-95400000D01*
X147009310Y-95400000D01*
X147009310Y-94902777D01*
X148870422Y-94902777D01*
X148870422Y-99097222D01*
G37*
D10*
G36*
X132417724Y-124005377D02*
G01*
X132453868Y-124041522D01*
X132492580Y-124118945D01*
X132492580Y-124438094D01*
X132068771Y-124438094D01*
X132068771Y-124118945D01*
X132107482Y-124041521D01*
X132143627Y-124005377D01*
X132221051Y-123966666D01*
X132340301Y-123966666D01*
X132417724Y-124005377D01*
G37*
G36*
X132703691Y-124649205D02*
G01*
X131381469Y-124649205D01*
X131381469Y-123905851D01*
X131493764Y-123905851D01*
X131500414Y-123943537D01*
X131513907Y-123957628D01*
X131968771Y-124276032D01*
X131968771Y-124438094D01*
X131542580Y-124438094D01*
X131523446Y-124441900D01*
X131496386Y-124468960D01*
X131496386Y-124507228D01*
X131523446Y-124534288D01*
X131542580Y-124538094D01*
X132542580Y-124538094D01*
X132561714Y-124534288D01*
X132588774Y-124507228D01*
X132592580Y-124488094D01*
X132592580Y-124107142D01*
X132592091Y-124104685D01*
X132592454Y-124103597D01*
X132590337Y-124095869D01*
X132588774Y-124088008D01*
X132587962Y-124087196D01*
X132587301Y-124084781D01*
X132539682Y-123989543D01*
X132534770Y-123983214D01*
X132530316Y-123976548D01*
X132482697Y-123928930D01*
X132476035Y-123924478D01*
X132469702Y-123919563D01*
X132374465Y-123871945D01*
X132372049Y-123871283D01*
X132371238Y-123870472D01*
X132363376Y-123868908D01*
X132355649Y-123866792D01*
X132354560Y-123867154D01*
X132352104Y-123866666D01*
X132209247Y-123866666D01*
X132206790Y-123867154D01*
X132205702Y-123866792D01*
X132197974Y-123868908D01*
X132190113Y-123870472D01*
X132189301Y-123871283D01*
X132186886Y-123871945D01*
X132091648Y-123919564D01*
X132085319Y-123924475D01*
X132078653Y-123928930D01*
X132031035Y-123976549D01*
X132026583Y-123983210D01*
X132021668Y-123989544D01*
X131974050Y-124084781D01*
X131973388Y-124087196D01*
X131972577Y-124088008D01*
X131971013Y-124095869D01*
X131968897Y-124103597D01*
X131969259Y-124104685D01*
X131968771Y-124107142D01*
X131968771Y-124153966D01*
X131571253Y-123875704D01*
X131553395Y-123867850D01*
X131515709Y-123874500D01*
X131493764Y-123905851D01*
X131381469Y-123905851D01*
X131381469Y-122964285D01*
X131492580Y-122964285D01*
X131492580Y-123583332D01*
X131496386Y-123602466D01*
X131523446Y-123629526D01*
X131561714Y-123629526D01*
X131577935Y-123618687D01*
X132141017Y-123055605D01*
X132264979Y-123014285D01*
X132340301Y-123014285D01*
X132417724Y-123052996D01*
X132453868Y-123089141D01*
X132492580Y-123166564D01*
X132492580Y-123381052D01*
X132453868Y-123458475D01*
X132411987Y-123500358D01*
X132401148Y-123516579D01*
X132401148Y-123554847D01*
X132428208Y-123581907D01*
X132466476Y-123581907D01*
X132482697Y-123571068D01*
X132530316Y-123523450D01*
X132534770Y-123516783D01*
X132539682Y-123510455D01*
X132587301Y-123415217D01*
X132587962Y-123412801D01*
X132588774Y-123411990D01*
X132590337Y-123404128D01*
X132592454Y-123396401D01*
X132592091Y-123395312D01*
X132592580Y-123392856D01*
X132592580Y-123154761D01*
X132592091Y-123152304D01*
X132592454Y-123151216D01*
X132590337Y-123143488D01*
X132588774Y-123135627D01*
X132587962Y-123134815D01*
X132587301Y-123132400D01*
X132539682Y-123037162D01*
X132534770Y-123030833D01*
X132530316Y-123024167D01*
X132482697Y-122976549D01*
X132476035Y-122972097D01*
X132469702Y-122967182D01*
X132374465Y-122919564D01*
X132372049Y-122918902D01*
X132371238Y-122918091D01*
X132363376Y-122916527D01*
X132355649Y-122914411D01*
X132354560Y-122914773D01*
X132352104Y-122914285D01*
X132256866Y-122914285D01*
X132249004Y-122915848D01*
X132241054Y-122916851D01*
X132098198Y-122964470D01*
X132096023Y-122965710D01*
X132094875Y-122965710D01*
X132088214Y-122970160D01*
X132081249Y-122974131D01*
X132080735Y-122975158D01*
X132078654Y-122976549D01*
X131592580Y-123462622D01*
X131592580Y-122964285D01*
X131588774Y-122945151D01*
X131561714Y-122918091D01*
X131523446Y-122918091D01*
X131496386Y-122945151D01*
X131492580Y-122964285D01*
X131381469Y-122964285D01*
X131381469Y-122803174D01*
X132703691Y-122803174D01*
X132703691Y-124649205D01*
G37*
G36*
X136368530Y-112423015D02*
G01*
X135046308Y-112423015D01*
X135046308Y-111833333D01*
X135157419Y-111833333D01*
X135157419Y-112071428D01*
X135157907Y-112073884D01*
X135157545Y-112074973D01*
X135159661Y-112082700D01*
X135161225Y-112090562D01*
X135162036Y-112091373D01*
X135162698Y-112093789D01*
X135210316Y-112189026D01*
X135215231Y-112195359D01*
X135219683Y-112202021D01*
X135267301Y-112249640D01*
X135273967Y-112254094D01*
X135280296Y-112259006D01*
X135375534Y-112306625D01*
X135377949Y-112307286D01*
X135378761Y-112308098D01*
X135386622Y-112309661D01*
X135394350Y-112311778D01*
X135395438Y-112311415D01*
X135397895Y-112311904D01*
X135493133Y-112311904D01*
X135500995Y-112310340D01*
X135508944Y-112309338D01*
X135651801Y-112261719D01*
X135653976Y-112260479D01*
X135655124Y-112260479D01*
X135661788Y-112256025D01*
X135668749Y-112252058D01*
X135669262Y-112251031D01*
X135671345Y-112249640D01*
X136157419Y-111763566D01*
X136157419Y-112261904D01*
X136161225Y-112281038D01*
X136188285Y-112308098D01*
X136226553Y-112308098D01*
X136253613Y-112281038D01*
X136257419Y-112261904D01*
X136257419Y-111642857D01*
X136253613Y-111623723D01*
X136226553Y-111596663D01*
X136188285Y-111596663D01*
X136172064Y-111607502D01*
X135608981Y-112170583D01*
X135485020Y-112211904D01*
X135409699Y-112211904D01*
X135332275Y-112173192D01*
X135296130Y-112137048D01*
X135257419Y-112059625D01*
X135257419Y-111845136D01*
X135296130Y-111767712D01*
X135338012Y-111725832D01*
X135348851Y-111709611D01*
X135348851Y-111671342D01*
X135321791Y-111644282D01*
X135283522Y-111644282D01*
X135267301Y-111655121D01*
X135219683Y-111702740D01*
X135215231Y-111709401D01*
X135210316Y-111715735D01*
X135162698Y-111810972D01*
X135162036Y-111813387D01*
X135161225Y-111814199D01*
X135159661Y-111822060D01*
X135157545Y-111829788D01*
X135157907Y-111830876D01*
X135157419Y-111833333D01*
X135046308Y-111833333D01*
X135046308Y-111033512D01*
X135158370Y-111033512D01*
X135161225Y-111037794D01*
X135161225Y-111042943D01*
X135171521Y-111053239D01*
X135179597Y-111065353D01*
X135184644Y-111066362D01*
X135188285Y-111070003D01*
X135207419Y-111073809D01*
X136157419Y-111073809D01*
X136157419Y-111309523D01*
X136161225Y-111328657D01*
X136188285Y-111355717D01*
X136226553Y-111355717D01*
X136253613Y-111328657D01*
X136257419Y-111309523D01*
X136257419Y-110738095D01*
X136253613Y-110718961D01*
X136226553Y-110691901D01*
X136188285Y-110691901D01*
X136161225Y-110718961D01*
X136157419Y-110738095D01*
X136157419Y-110973809D01*
X135372557Y-110973809D01*
X135378011Y-110970173D01*
X135381515Y-110966676D01*
X135385631Y-110963926D01*
X135480869Y-110868688D01*
X135485319Y-110862028D01*
X135490235Y-110855694D01*
X135537854Y-110760456D01*
X135543007Y-110741640D01*
X135530905Y-110705335D01*
X135496677Y-110688221D01*
X135460373Y-110700323D01*
X135448411Y-110715735D01*
X135404420Y-110803716D01*
X135318425Y-110889712D01*
X135179684Y-110982206D01*
X135165875Y-110995987D01*
X135164865Y-111001034D01*
X135161225Y-111004675D01*
X135161225Y-111019237D01*
X135158370Y-111033512D01*
X135046308Y-111033512D01*
X135046308Y-110071428D01*
X135157419Y-110071428D01*
X135157419Y-110166666D01*
X135158982Y-110174528D01*
X135159985Y-110182477D01*
X135207604Y-110325334D01*
X135208844Y-110327509D01*
X135208844Y-110328657D01*
X135213297Y-110335321D01*
X135217265Y-110342282D01*
X135218291Y-110342795D01*
X135219683Y-110344878D01*
X135267301Y-110392497D01*
X135283522Y-110403336D01*
X135321791Y-110403336D01*
X135348851Y-110376276D01*
X135348851Y-110338007D01*
X135338012Y-110321786D01*
X135298739Y-110282514D01*
X135257419Y-110158552D01*
X135257419Y-110079541D01*
X135298739Y-109955579D01*
X135379892Y-109874426D01*
X135462966Y-109832889D01*
X135642145Y-109788095D01*
X135772692Y-109788095D01*
X135951872Y-109832890D01*
X136034942Y-109874425D01*
X136116099Y-109955581D01*
X136157419Y-110079541D01*
X136157419Y-110158553D01*
X136116099Y-110282512D01*
X136076825Y-110321786D01*
X136065986Y-110338007D01*
X136065986Y-110376276D01*
X136093045Y-110403336D01*
X136131314Y-110403336D01*
X136147535Y-110392498D01*
X136195155Y-110344879D01*
X136196546Y-110342796D01*
X136197573Y-110342283D01*
X136201539Y-110335324D01*
X136205994Y-110328658D01*
X136205994Y-110327509D01*
X136207234Y-110325334D01*
X136254853Y-110182478D01*
X136255855Y-110174527D01*
X136257419Y-110166666D01*
X136257419Y-110071428D01*
X136255855Y-110063566D01*
X136254853Y-110055616D01*
X136207234Y-109912760D01*
X136205994Y-109910584D01*
X136205994Y-109909437D01*
X136201543Y-109902776D01*
X136197573Y-109895811D01*
X136196545Y-109895297D01*
X136195155Y-109893216D01*
X136099916Y-109797977D01*
X136093249Y-109793522D01*
X136086921Y-109788611D01*
X135991684Y-109740993D01*
X135986402Y-109739546D01*
X135981450Y-109737207D01*
X135790974Y-109689588D01*
X135784856Y-109689290D01*
X135778847Y-109688095D01*
X135635990Y-109688095D01*
X135629980Y-109689290D01*
X135623863Y-109689588D01*
X135433387Y-109737207D01*
X135428434Y-109739546D01*
X135423153Y-109740993D01*
X135327915Y-109788612D01*
X135321580Y-109793527D01*
X135314921Y-109797978D01*
X135219683Y-109893216D01*
X135218291Y-109895298D01*
X135217265Y-109895812D01*
X135213297Y-109902772D01*
X135208844Y-109909437D01*
X135208844Y-109910584D01*
X135207604Y-109912760D01*
X135159985Y-110055617D01*
X135158982Y-110063565D01*
X135157419Y-110071428D01*
X135046308Y-110071428D01*
X135046308Y-109576984D01*
X136368530Y-109576984D01*
X136368530Y-112423015D01*
G37*
%TO.C,C11*%
X134900000Y-107350000D02*
X134900000Y-104650000D01*
X134750000Y-104500000D02*
G75*
G02*
X134900000Y-104650000I0J-150000D01*
G01*
X134900000Y-107350000D02*
G75*
G02*
X134750000Y-107500000I-150000J0D01*
G01*
%TO.C,R13*%
X138474999Y-105425000D02*
X138474999Y-104075000D01*
X138324999Y-103925000D02*
G75*
G02*
X138474999Y-104075000I0J-150000D01*
G01*
X138474999Y-105425000D02*
G75*
G02*
X138324999Y-105574999I-149999J0D01*
G01*
D12*
%TO.C,G\u002A\u002A\u002A*%
G36*
X137755556Y-124294445D02*
G01*
X137744445Y-124305556D01*
X137733334Y-124294445D01*
X137744445Y-124283334D01*
X137755556Y-124294445D01*
G37*
G36*
X138835443Y-124609128D02*
G01*
X138857293Y-124731141D01*
X138881564Y-124850000D01*
X138898929Y-124930858D01*
X138920411Y-125036079D01*
X138937273Y-125124692D01*
X138946896Y-125183334D01*
X138948116Y-125192267D01*
X138961863Y-125270707D01*
X138978063Y-125338889D01*
X138995728Y-125411293D01*
X139012367Y-125514386D01*
X139021679Y-125618396D01*
X139023152Y-125712233D01*
X139016273Y-125784807D01*
X139000530Y-125825026D01*
X138987004Y-125848632D01*
X138977778Y-125898889D01*
X138963583Y-125937196D01*
X138924253Y-125950576D01*
X138869698Y-125936518D01*
X138809869Y-125895239D01*
X138799008Y-125885001D01*
X138776198Y-125859075D01*
X138762234Y-125828599D01*
X138755156Y-125783604D01*
X138753003Y-125714117D01*
X138753814Y-125610168D01*
X138754372Y-125530800D01*
X138752291Y-125448304D01*
X138745484Y-125392879D01*
X138732460Y-125354339D01*
X138711730Y-125322500D01*
X138696148Y-125298932D01*
X138671301Y-125227685D01*
X138659502Y-125123964D01*
X138642208Y-124999944D01*
X138598874Y-124896925D01*
X138523192Y-124803704D01*
X138482520Y-124771784D01*
X138443854Y-124756227D01*
X138390671Y-124753872D01*
X138295739Y-124748096D01*
X138200778Y-124740788D01*
X138116892Y-124732929D01*
X138055182Y-124725495D01*
X138026751Y-124719465D01*
X138003007Y-124709530D01*
X137953999Y-124695838D01*
X137905778Y-124685026D01*
X137837762Y-124669650D01*
X137803319Y-124663422D01*
X137783391Y-124671940D01*
X137786764Y-124708305D01*
X137787632Y-124712396D01*
X137815481Y-124861276D01*
X137830824Y-124983621D01*
X137833220Y-125074198D01*
X137822226Y-125127773D01*
X137809716Y-125165223D01*
X137811968Y-125212848D01*
X137824337Y-125258121D01*
X137836548Y-125330175D01*
X137844649Y-125405051D01*
X137845700Y-125461112D01*
X137844980Y-125472688D01*
X137843916Y-125532354D01*
X137844399Y-125616615D01*
X137846176Y-125710508D01*
X137848992Y-125799075D01*
X137852595Y-125867355D01*
X137853081Y-125876593D01*
X137847052Y-125944074D01*
X137828129Y-125995133D01*
X137791830Y-126028267D01*
X137736965Y-126034779D01*
X137682940Y-126000000D01*
X137669700Y-125973783D01*
X137651742Y-125905463D01*
X137634478Y-125806365D01*
X137618872Y-125684319D01*
X137605889Y-125547157D01*
X137596493Y-125402706D01*
X137591649Y-125258798D01*
X137590785Y-125226400D01*
X137584912Y-125139442D01*
X137575259Y-125072016D01*
X137563409Y-125036576D01*
X137554503Y-125015852D01*
X137542645Y-124956619D01*
X137533130Y-124875126D01*
X137526796Y-124784612D01*
X137524480Y-124698317D01*
X137527019Y-124629481D01*
X137533382Y-124600000D01*
X138311211Y-124600000D01*
X138311391Y-124602029D01*
X138334666Y-124621717D01*
X138387650Y-124631661D01*
X138414167Y-124632280D01*
X138449368Y-124625312D01*
X138451839Y-124603883D01*
X138448380Y-124597729D01*
X138416357Y-124578914D01*
X138370349Y-124572677D01*
X138329065Y-124579534D01*
X138311211Y-124600000D01*
X137533382Y-124600000D01*
X137535251Y-124591343D01*
X137541042Y-124576317D01*
X137533380Y-124538944D01*
X137516506Y-124504637D01*
X137501317Y-124449310D01*
X137487922Y-124375953D01*
X137462548Y-124213849D01*
X137449269Y-124082091D01*
X137447102Y-123972040D01*
X137441300Y-123860404D01*
X137415842Y-123787435D01*
X137405435Y-123768692D01*
X137394107Y-123731223D01*
X137388924Y-123676809D01*
X137389253Y-123596353D01*
X137394458Y-123480755D01*
X137398558Y-123396724D01*
X137402655Y-123284898D01*
X137404709Y-123188592D01*
X137404323Y-123122223D01*
X137404260Y-123087343D01*
X137410300Y-123035502D01*
X137422415Y-123013889D01*
X137428710Y-123013103D01*
X137472223Y-123007858D01*
X137489504Y-122991432D01*
X137493666Y-122944368D01*
X137492483Y-122930443D01*
X137497406Y-122897490D01*
X137521444Y-122897221D01*
X137537754Y-122906354D01*
X137558119Y-122935711D01*
X137558562Y-122940023D01*
X137563675Y-122984830D01*
X137574243Y-123008439D01*
X137605556Y-123047529D01*
X137630566Y-123075938D01*
X137645137Y-123101588D01*
X137646995Y-123133436D01*
X137651747Y-123203938D01*
X137658211Y-123294549D01*
X137665388Y-123391567D01*
X137672276Y-123481285D01*
X137677874Y-123550000D01*
X137684107Y-123610763D01*
X137697536Y-123716153D01*
X137712825Y-123816667D01*
X137714709Y-123827806D01*
X137727360Y-123905311D01*
X137734231Y-123962295D01*
X137735936Y-124014968D01*
X137733090Y-124079541D01*
X137726307Y-124172223D01*
X137722619Y-124243792D01*
X137722642Y-124319556D01*
X137727310Y-124368999D01*
X137741434Y-124401636D01*
X137793078Y-124444248D01*
X137870205Y-124463061D01*
X137963176Y-124454577D01*
X137995649Y-124447858D01*
X138118622Y-124433786D01*
X138259751Y-124430652D01*
X138400000Y-124439130D01*
X138500000Y-124450000D01*
X138506865Y-124354917D01*
X138507442Y-124343777D01*
X138501154Y-124262214D01*
X138480577Y-124193378D01*
X138479940Y-124192069D01*
X138463383Y-124139190D01*
X138446792Y-124057167D01*
X138432095Y-123960507D01*
X138421223Y-123863717D01*
X138416103Y-123781305D01*
X138418665Y-123727778D01*
X138419811Y-123720246D01*
X138423839Y-123672035D01*
X138427988Y-123596225D01*
X138431522Y-123505556D01*
X138431974Y-123492154D01*
X138442776Y-123333533D01*
X138463284Y-123216065D01*
X138494929Y-123137391D01*
X138539142Y-123095150D01*
X138597353Y-123086984D01*
X138670992Y-123110531D01*
X138700005Y-123129328D01*
X138731615Y-123174823D01*
X138756124Y-123252367D01*
X138766378Y-123303614D01*
X138770577Y-123369874D01*
X138759123Y-123405741D01*
X138732913Y-123405296D01*
X138715194Y-123407350D01*
X138691656Y-123435016D01*
X138676196Y-123474137D01*
X138678485Y-123506700D01*
X138679814Y-123509535D01*
X138687571Y-123547991D01*
X138695022Y-123615924D01*
X138700718Y-123700685D01*
X138702368Y-123727348D01*
X138713856Y-123839487D01*
X138731956Y-123965671D01*
X138753552Y-124083334D01*
X138760640Y-124118006D01*
X138782478Y-124236838D01*
X138801051Y-124354527D01*
X138812945Y-124450000D01*
X138819048Y-124501652D01*
X138834643Y-124603883D01*
X138835443Y-124609128D01*
G37*
G36*
X136716268Y-125412859D02*
G01*
X136733334Y-125442119D01*
X136733697Y-125445511D01*
X136749202Y-125481755D01*
X136780502Y-125531604D01*
X136815715Y-125606231D01*
X136834189Y-125709029D01*
X136834901Y-125722225D01*
X136833912Y-125788851D01*
X136827680Y-125806975D01*
X136819158Y-125831762D01*
X136785288Y-125868397D01*
X136768747Y-125883700D01*
X136744453Y-125918034D01*
X136735432Y-125964349D01*
X136737158Y-126038659D01*
X136738847Y-126085494D01*
X136733861Y-126142496D01*
X136717778Y-126160924D01*
X136703520Y-126163597D01*
X136665563Y-126186660D01*
X136647690Y-126193907D01*
X136595084Y-126187734D01*
X136523047Y-126162248D01*
X136442057Y-126121501D01*
X136362594Y-126069542D01*
X136349024Y-126059708D01*
X136299877Y-126029028D01*
X136268150Y-126016667D01*
X136249672Y-126030172D01*
X136245432Y-126062630D01*
X136261112Y-126088951D01*
X136265452Y-126092466D01*
X136248183Y-126090803D01*
X136222636Y-126086572D01*
X136169002Y-126083334D01*
X136165108Y-126083100D01*
X136118712Y-126068664D01*
X136049220Y-126036563D01*
X135968505Y-125993442D01*
X135888444Y-125945945D01*
X135820910Y-125900719D01*
X135777778Y-125864407D01*
X135765291Y-125852162D01*
X135716391Y-125812181D01*
X135655556Y-125768848D01*
X135615993Y-125740521D01*
X135539805Y-125678284D01*
X135457916Y-125604275D01*
X135378351Y-125526468D01*
X135309139Y-125452838D01*
X135258308Y-125391357D01*
X135233884Y-125350000D01*
X135219700Y-125318420D01*
X135181721Y-125257516D01*
X135132227Y-125192058D01*
X135122047Y-125179672D01*
X135075325Y-125114384D01*
X135052885Y-125057842D01*
X135047067Y-124992058D01*
X135048458Y-124955234D01*
X135066158Y-124859437D01*
X135341319Y-124859437D01*
X135342842Y-124921535D01*
X135353399Y-124976330D01*
X135364059Y-125001777D01*
X135404205Y-125069245D01*
X135455601Y-125134570D01*
X135484048Y-125166583D01*
X135519549Y-125210738D01*
X135533486Y-125234570D01*
X135536018Y-125240131D01*
X135563621Y-125267146D01*
X135611798Y-125303231D01*
X135623508Y-125311507D01*
X135693013Y-125368814D01*
X135755412Y-125431009D01*
X135774225Y-125451676D01*
X135814271Y-125490399D01*
X135838210Y-125505940D01*
X135840071Y-125506221D01*
X135868205Y-125524368D01*
X135908407Y-125562034D01*
X135926009Y-125577609D01*
X135984919Y-125618494D01*
X136065952Y-125666776D01*
X136157020Y-125715018D01*
X136164137Y-125718542D01*
X136290958Y-125776358D01*
X136395509Y-125814534D01*
X136474493Y-125832644D01*
X136524613Y-125830266D01*
X136542573Y-125806975D01*
X136525076Y-125762347D01*
X136512912Y-125737096D01*
X136493226Y-125671590D01*
X136478865Y-125593907D01*
X136477565Y-125584179D01*
X136463457Y-125497683D01*
X136443135Y-125391768D01*
X136439767Y-125376177D01*
X136569715Y-125376177D01*
X136570564Y-125402045D01*
X136580507Y-125408398D01*
X136620371Y-125416327D01*
X136625826Y-125416238D01*
X136643786Y-125411682D01*
X136622223Y-125394105D01*
X136617776Y-125391140D01*
X136600062Y-125371259D01*
X136622223Y-125350341D01*
X136636882Y-125337581D01*
X136630499Y-125328118D01*
X136625417Y-125328463D01*
X136592813Y-125345713D01*
X136569715Y-125376177D01*
X136439767Y-125376177D01*
X136420534Y-125287135D01*
X136414630Y-125261004D01*
X136395854Y-125169225D01*
X136382722Y-125091385D01*
X136377778Y-125042079D01*
X136370949Y-124994779D01*
X136346987Y-124938151D01*
X136330072Y-124895685D01*
X136314437Y-124823732D01*
X136303929Y-124738762D01*
X136295423Y-124660920D01*
X136276711Y-124543036D01*
X136254361Y-124438889D01*
X136237187Y-124364669D01*
X136223370Y-124287029D01*
X136218690Y-124234057D01*
X136214717Y-124190477D01*
X136200772Y-124161588D01*
X136198386Y-124159328D01*
X136181237Y-124125952D01*
X136157592Y-124063434D01*
X136131820Y-123983087D01*
X136125806Y-123963266D01*
X136100560Y-123888691D01*
X136078628Y-123836390D01*
X136064196Y-123816667D01*
X136056601Y-123801526D01*
X136054148Y-123757795D01*
X136057241Y-123702064D01*
X136064857Y-123651226D01*
X136075974Y-123622175D01*
X136074075Y-123611732D01*
X136050210Y-123578372D01*
X136010243Y-123533583D01*
X135964653Y-123488191D01*
X135923919Y-123453019D01*
X135898520Y-123438889D01*
X135890037Y-123440589D01*
X135848698Y-123455977D01*
X135790350Y-123482183D01*
X135771421Y-123491125D01*
X135698092Y-123523990D01*
X135637349Y-123548885D01*
X135627926Y-123552596D01*
X135588161Y-123580433D01*
X135582321Y-123622258D01*
X135593365Y-123652457D01*
X135617683Y-123666504D01*
X135620391Y-123666249D01*
X135647183Y-123685723D01*
X135675518Y-123735969D01*
X135698732Y-123805556D01*
X135719503Y-123885300D01*
X135741373Y-123951691D01*
X135761341Y-123988889D01*
X135770412Y-124006484D01*
X135758113Y-124046919D01*
X135750178Y-124067521D01*
X135770674Y-124088134D01*
X135827671Y-124113323D01*
X135867196Y-124132844D01*
X135936425Y-124180597D01*
X136007590Y-124241636D01*
X136070924Y-124306531D01*
X136116664Y-124365851D01*
X136135044Y-124410166D01*
X136137352Y-124459220D01*
X136140600Y-124523308D01*
X136136700Y-124572103D01*
X136104479Y-124626322D01*
X136044169Y-124648978D01*
X135960201Y-124637270D01*
X135949847Y-124633942D01*
X135885762Y-124611286D01*
X135839183Y-124591712D01*
X135817541Y-124585686D01*
X135757293Y-124581613D01*
X135680216Y-124584028D01*
X135601619Y-124591732D01*
X135536815Y-124603524D01*
X135501112Y-124618204D01*
X135493478Y-124627243D01*
X135495727Y-124638889D01*
X135497775Y-124640781D01*
X135485731Y-124663918D01*
X135452605Y-124704938D01*
X135439552Y-124718857D01*
X135400329Y-124752029D01*
X135375779Y-124759876D01*
X135359933Y-124765996D01*
X135347470Y-124803202D01*
X135341319Y-124859437D01*
X135066158Y-124859437D01*
X135072481Y-124825213D01*
X135127371Y-124674055D01*
X135214481Y-124497768D01*
X135237406Y-124467923D01*
X135303843Y-124416709D01*
X135391927Y-124371792D01*
X135487347Y-124339904D01*
X135575793Y-124327778D01*
X135661430Y-124327778D01*
X135635017Y-124250948D01*
X135633464Y-124246516D01*
X135605835Y-124182794D01*
X135576524Y-124134281D01*
X135511768Y-124034548D01*
X135473244Y-123918474D01*
X135473075Y-123917393D01*
X135459727Y-123867564D01*
X135442635Y-123842658D01*
X135426918Y-123827729D01*
X135398723Y-123778902D01*
X135367984Y-123709271D01*
X135339762Y-123631815D01*
X135319118Y-123559515D01*
X135311112Y-123505348D01*
X135328508Y-123460628D01*
X135375021Y-123403212D01*
X135440263Y-123342382D01*
X135513843Y-123286836D01*
X135585367Y-123245271D01*
X135644445Y-123226385D01*
X135657764Y-123225092D01*
X135706106Y-123219957D01*
X135729133Y-123205342D01*
X135754430Y-123164074D01*
X135761109Y-123148656D01*
X135782350Y-123124647D01*
X135821899Y-123113740D01*
X135892768Y-123110937D01*
X135980914Y-123116845D01*
X136085155Y-123150749D01*
X136165941Y-123218844D01*
X136230615Y-123325799D01*
X136256902Y-123386354D01*
X136279998Y-123448501D01*
X136288889Y-123485457D01*
X136290341Y-123499931D01*
X136307693Y-123540000D01*
X136309269Y-123542195D01*
X136322429Y-123578759D01*
X136338316Y-123644814D01*
X136353838Y-123727778D01*
X136353905Y-123728187D01*
X136370799Y-123824199D01*
X136388814Y-123915844D01*
X136404060Y-123983334D01*
X136405751Y-123990028D01*
X136424189Y-124076516D01*
X136437706Y-124161112D01*
X136440148Y-124177319D01*
X136457778Y-124238283D01*
X136481755Y-124276108D01*
X136501513Y-124300546D01*
X136528512Y-124367570D01*
X136547664Y-124458580D01*
X136555733Y-124561112D01*
X136556263Y-124574550D01*
X136567901Y-124642948D01*
X136589596Y-124693137D01*
X136598026Y-124707562D01*
X136615730Y-124772719D01*
X136622223Y-124862932D01*
X136622225Y-124864400D01*
X136633999Y-124981931D01*
X136665084Y-125085326D01*
X136675319Y-125109356D01*
X136694053Y-125175997D01*
X136686525Y-125221086D01*
X136677979Y-125244649D01*
X136688168Y-125304207D01*
X136699762Y-125335869D01*
X136686096Y-125362838D01*
X136675385Y-125376484D01*
X136697147Y-125398624D01*
X136714687Y-125411682D01*
X136716268Y-125412859D01*
G37*
G36*
X143969916Y-126833143D02*
G01*
X144005476Y-126875168D01*
X144025160Y-126903878D01*
X144032454Y-126923274D01*
X144030846Y-126937359D01*
X144023607Y-126953573D01*
X144005169Y-126969295D01*
X143971466Y-126963308D01*
X143910845Y-126935426D01*
X143868919Y-126920820D01*
X143799109Y-126907973D01*
X143724846Y-126902173D01*
X143662026Y-126904503D01*
X143626546Y-126916047D01*
X143621646Y-126917169D01*
X143587343Y-126907688D01*
X143534176Y-126883763D01*
X143519516Y-126874705D01*
X143469085Y-126830548D01*
X143466534Y-126827778D01*
X143666667Y-126827778D01*
X143677778Y-126838889D01*
X143688889Y-126827778D01*
X143677778Y-126816667D01*
X143666667Y-126827778D01*
X143466534Y-126827778D01*
X143409730Y-126766091D01*
X143349520Y-126691681D01*
X143296524Y-126617665D01*
X143258809Y-126554390D01*
X143244445Y-126512203D01*
X143239156Y-126495190D01*
X143211112Y-126461112D01*
X143193927Y-126440806D01*
X143177778Y-126391506D01*
X143167386Y-126355732D01*
X143133334Y-126311511D01*
X143104422Y-126279715D01*
X143088889Y-126244364D01*
X143084557Y-126228665D01*
X143054213Y-126201966D01*
X143049661Y-126199481D01*
X143020165Y-126166489D01*
X142983919Y-126109246D01*
X142948566Y-126042022D01*
X142921749Y-125979093D01*
X142911112Y-125934730D01*
X142909302Y-125923230D01*
X142888889Y-125905556D01*
X142878552Y-125901662D01*
X142866667Y-125871852D01*
X142856749Y-125836693D01*
X142829824Y-125772397D01*
X142790886Y-125688997D01*
X142744933Y-125596323D01*
X142696962Y-125504203D01*
X142651970Y-125422466D01*
X142614953Y-125360940D01*
X142590909Y-125329454D01*
X142590011Y-125328686D01*
X142565566Y-125285721D01*
X142555556Y-125224360D01*
X142555534Y-125221251D01*
X142546548Y-125165826D01*
X142525397Y-125137032D01*
X142518178Y-125132441D01*
X142491261Y-125095518D01*
X142466285Y-125037730D01*
X142458803Y-125016669D01*
X142436727Y-124969022D01*
X142419221Y-124950000D01*
X142418023Y-124949715D01*
X142399815Y-124927885D01*
X142372414Y-124881631D01*
X142343427Y-124825559D01*
X142320458Y-124774274D01*
X142311112Y-124742380D01*
X142310620Y-124740513D01*
X142295773Y-124711500D01*
X142264421Y-124656679D01*
X142222223Y-124586006D01*
X142214575Y-124573298D01*
X142173359Y-124500201D01*
X142144320Y-124440918D01*
X142133334Y-124407269D01*
X142131709Y-124393183D01*
X142114338Y-124363106D01*
X142098421Y-124339103D01*
X142073343Y-124284522D01*
X142045080Y-124211794D01*
X142017588Y-124141447D01*
X141987470Y-124075817D01*
X141964353Y-124037446D01*
X141935659Y-123992225D01*
X141909215Y-123931891D01*
X141906932Y-123925552D01*
X141885087Y-123879836D01*
X141866090Y-123861112D01*
X141852609Y-123847408D01*
X141828278Y-123801867D01*
X141800626Y-123735461D01*
X141794279Y-123718589D01*
X141731654Y-123563736D01*
X141676971Y-123451625D01*
X141629700Y-123381453D01*
X141589312Y-123352417D01*
X141555276Y-123363716D01*
X141551121Y-123372200D01*
X141542442Y-123418178D01*
X141535582Y-123492308D01*
X141531746Y-123583334D01*
X141531547Y-123592029D01*
X141524810Y-123703309D01*
X141511747Y-123800237D01*
X141494334Y-123867798D01*
X141477062Y-123928168D01*
X141473870Y-124046624D01*
X141475392Y-124058706D01*
X141474293Y-124137677D01*
X141447272Y-124201246D01*
X141431877Y-124230009D01*
X141417749Y-124281135D01*
X141411041Y-124354583D01*
X141410191Y-124461309D01*
X141410598Y-124508111D01*
X141409409Y-124587267D01*
X141404117Y-124633722D01*
X141393310Y-124655622D01*
X141375579Y-124661112D01*
X141352369Y-124668941D01*
X141327160Y-124704544D01*
X141312376Y-124731310D01*
X141264152Y-124760111D01*
X141199921Y-124766603D01*
X141135374Y-124747290D01*
X141126680Y-124741894D01*
X141075673Y-124696825D01*
X141029093Y-124638318D01*
X141022566Y-124628217D01*
X140979281Y-124562681D01*
X140941715Y-124507788D01*
X140916232Y-124458214D01*
X140898967Y-124390198D01*
X140898949Y-124389977D01*
X140884579Y-124348627D01*
X140849758Y-124280958D01*
X140800373Y-124196328D01*
X140742314Y-124104093D01*
X140681468Y-124013612D01*
X140623725Y-123934242D01*
X140574973Y-123875341D01*
X140553061Y-123841333D01*
X140548521Y-123802947D01*
X140546565Y-123784083D01*
X140520077Y-123738699D01*
X140471555Y-123682993D01*
X140437179Y-123647301D01*
X140382657Y-123585654D01*
X140345260Y-123537014D01*
X140311071Y-123488321D01*
X140266727Y-123431629D01*
X140232645Y-123391373D01*
X140185023Y-123334592D01*
X140147082Y-123300669D01*
X140100145Y-123279037D01*
X140097893Y-123278670D01*
X140082333Y-123275864D01*
X140070764Y-123277378D01*
X140062311Y-123288936D01*
X140056100Y-123316263D01*
X140051257Y-123365083D01*
X140046906Y-123441123D01*
X140042173Y-123550107D01*
X140036185Y-123697759D01*
X140029133Y-123820548D01*
X140018393Y-123944461D01*
X140005529Y-124052784D01*
X139992011Y-124131092D01*
X139975618Y-124224167D01*
X139970156Y-124333452D01*
X139977897Y-124465556D01*
X139981468Y-124501456D01*
X139991713Y-124586512D01*
X140001979Y-124650719D01*
X140010503Y-124682349D01*
X140012647Y-124687554D01*
X140020358Y-124730068D01*
X140027514Y-124801289D01*
X140032801Y-124889016D01*
X140034030Y-124917794D01*
X140044359Y-125150701D01*
X140053537Y-125340334D01*
X140061625Y-125487730D01*
X140068684Y-125593925D01*
X140074775Y-125659958D01*
X140079960Y-125686864D01*
X140080143Y-125687165D01*
X140078873Y-125722746D01*
X140048937Y-125765100D01*
X140001819Y-125802333D01*
X139949001Y-125822544D01*
X139944936Y-125823114D01*
X139866230Y-125821701D01*
X139795624Y-125800720D01*
X139750793Y-125765277D01*
X139741289Y-125744447D01*
X139733950Y-125690153D01*
X139742394Y-125638420D01*
X139764815Y-125609342D01*
X139775058Y-125598390D01*
X139789782Y-125549347D01*
X139799954Y-125470097D01*
X139805414Y-125369610D01*
X139806001Y-125256858D01*
X139801554Y-125140812D01*
X139791912Y-125030445D01*
X139776915Y-124934729D01*
X139764194Y-124860007D01*
X139764034Y-124802722D01*
X139778943Y-124758936D01*
X139802711Y-124726928D01*
X139825505Y-124718695D01*
X139833183Y-124713085D01*
X139825310Y-124679048D01*
X139825080Y-124678422D01*
X139812216Y-124621143D01*
X139801288Y-124529781D01*
X139792328Y-124410874D01*
X139785368Y-124270961D01*
X139780439Y-124116582D01*
X139777573Y-123954274D01*
X139776801Y-123790578D01*
X139778154Y-123632033D01*
X139781665Y-123485176D01*
X139787365Y-123356548D01*
X139795285Y-123252687D01*
X139805457Y-123180131D01*
X139817913Y-123145422D01*
X139829437Y-123126663D01*
X139820401Y-123079929D01*
X139813399Y-123065436D01*
X139815332Y-123043876D01*
X139853277Y-123038889D01*
X139889602Y-123031761D01*
X139922223Y-122994445D01*
X139925608Y-122987022D01*
X139963471Y-122960548D01*
X140028132Y-122948100D01*
X140106910Y-122949664D01*
X140187124Y-122965228D01*
X140256096Y-122994778D01*
X140262812Y-122999378D01*
X140305183Y-123039098D01*
X140357879Y-123099755D01*
X140412859Y-123170581D01*
X140462084Y-123240807D01*
X140497515Y-123299663D01*
X140511112Y-123336382D01*
X140524041Y-123360865D01*
X140557973Y-123409136D01*
X140605556Y-123470730D01*
X140653820Y-123531995D01*
X140702087Y-123595542D01*
X140733334Y-123639357D01*
X140762416Y-123678440D01*
X140805556Y-123725065D01*
X140829237Y-123752174D01*
X140844445Y-123788272D01*
X140846121Y-123799063D01*
X140866667Y-123816667D01*
X140877883Y-123821731D01*
X140888889Y-123853458D01*
X140889641Y-123860590D01*
X140907738Y-123906140D01*
X140942415Y-123960426D01*
X140945359Y-123964333D01*
X140991562Y-124035050D01*
X141029272Y-124106968D01*
X141040396Y-124129744D01*
X141076085Y-124188145D01*
X141118188Y-124245144D01*
X141157127Y-124288395D01*
X141183328Y-124305556D01*
X141195763Y-124296313D01*
X141206872Y-124259530D01*
X141207774Y-124213538D01*
X141196349Y-124178935D01*
X141186108Y-124162726D01*
X141194030Y-124150000D01*
X141194666Y-124149940D01*
X141204988Y-124127281D01*
X141211070Y-124070162D01*
X141211877Y-123987966D01*
X141211344Y-123952765D01*
X141214630Y-123808258D01*
X141225506Y-123663548D01*
X141242626Y-123529784D01*
X141264643Y-123418114D01*
X141290209Y-123339685D01*
X141298287Y-123320786D01*
X141321242Y-123245514D01*
X141329229Y-123180623D01*
X141334313Y-123142132D01*
X141363375Y-123071035D01*
X141410562Y-122996108D01*
X141467224Y-122928628D01*
X141524709Y-122879870D01*
X141574364Y-122861111D01*
X141628096Y-122870833D01*
X141688844Y-122898651D01*
X141736362Y-122935452D01*
X141755556Y-122971998D01*
X141758418Y-122994932D01*
X141774108Y-123020371D01*
X141784739Y-123033299D01*
X141811508Y-123078490D01*
X141848033Y-123146358D01*
X141889257Y-123226792D01*
X141930122Y-123309682D01*
X141965572Y-123384920D01*
X141990551Y-123442394D01*
X142000000Y-123471995D01*
X142007471Y-123491917D01*
X142035014Y-123529635D01*
X142056772Y-123558964D01*
X142074716Y-123600270D01*
X142088704Y-123638826D01*
X142117480Y-123690326D01*
X142144033Y-123739796D01*
X142155556Y-123779831D01*
X142160630Y-123800639D01*
X142188889Y-123838889D01*
X142206774Y-123857698D01*
X142222223Y-123891787D01*
X142222783Y-123896723D01*
X142237456Y-123938031D01*
X142266667Y-124000247D01*
X142303202Y-124069535D01*
X142339843Y-124132056D01*
X142369374Y-124173972D01*
X142388882Y-124210078D01*
X142400000Y-124268718D01*
X142404591Y-124315016D01*
X142420388Y-124366969D01*
X142434903Y-124395329D01*
X142464999Y-124455623D01*
X142500505Y-124527778D01*
X142528821Y-124581601D01*
X142573038Y-124654439D01*
X142611123Y-124705556D01*
X142614798Y-124709665D01*
X142659527Y-124768611D01*
X142715726Y-124853823D01*
X142775912Y-124953015D01*
X142832600Y-125053899D01*
X142878305Y-125144190D01*
X142892885Y-125173545D01*
X142921022Y-125220142D01*
X142940201Y-125238634D01*
X142945155Y-125239680D01*
X142946001Y-125258594D01*
X142944919Y-125274460D01*
X142966912Y-125305759D01*
X142983914Y-125325652D01*
X143000000Y-125373632D01*
X143003147Y-125396241D01*
X143022223Y-125427778D01*
X143037460Y-125454727D01*
X143044445Y-125505556D01*
X143050570Y-125553249D01*
X143066825Y-125583431D01*
X143087415Y-125604987D01*
X143119822Y-125657563D01*
X143149697Y-125721257D01*
X143167841Y-125778318D01*
X143177616Y-125807212D01*
X143204245Y-125841512D01*
X143221346Y-125862316D01*
X143234003Y-125909812D01*
X143234633Y-125916066D01*
X143254792Y-125968569D01*
X143293685Y-126023073D01*
X143318626Y-126053608D01*
X143366133Y-126123927D01*
X143409755Y-126200929D01*
X143430298Y-126239426D01*
X143466852Y-126297129D01*
X143514235Y-126357772D01*
X143579751Y-126430396D01*
X143670700Y-126524041D01*
X143733114Y-126587164D01*
X143837222Y-126693142D01*
X143914994Y-126773802D01*
X143964951Y-126827778D01*
X143969916Y-126833143D01*
G37*
D13*
%TO.C,J2*%
X147640000Y-104780000D02*
X146430000Y-104780000D01*
X147640000Y-113720000D02*
X146430000Y-113720000D01*
X150360000Y-113720000D02*
X151850000Y-113720000D01*
X151850000Y-104780000D02*
X150360000Y-104780000D01*
X151850000Y-113720000D02*
X151850000Y-104780000D01*
X143440000Y-105470000D02*
G75*
G02*
X143240000Y-105470000I-100000J0D01*
G01*
X143240000Y-105470000D02*
G75*
G02*
X143440000Y-105470000I100000J0D01*
G01*
D14*
%TO.C,U5*%
X117626500Y-122577339D02*
X117626500Y-126422661D01*
X119577339Y-128373500D02*
X123422661Y-128373500D01*
X123422661Y-120626500D02*
X119577339Y-120626500D01*
X125373500Y-126422661D02*
X125373500Y-122577339D01*
X127076200Y-120000000D02*
G75*
G02*
X126923800Y-120000000I-76200J0D01*
G01*
X126923800Y-120000000D02*
G75*
G02*
X127076200Y-120000000I76200J0D01*
G01*
D10*
%TO.C,R6*%
X126325000Y-108724999D02*
X127675000Y-108724999D01*
X126325000Y-108724999D02*
G75*
G02*
X126175001Y-108574999I0J149999D01*
G01*
X127825000Y-108574999D02*
G75*
G02*
X127675000Y-108724999I-150000J0D01*
G01*
%TO.C,J3*%
D15*
X121663500Y-113000000D02*
G75*
G02*
X121536500Y-113000000I-63500J0D01*
G01*
X121536500Y-113000000D02*
G75*
G02*
X121663500Y-113000000I63500J0D01*
G01*
%TO.C,SW4*%
X117920000Y-93601000D02*
X117920000Y-99399000D01*
X128080000Y-93601000D02*
X128080000Y-99399000D01*
D13*
X119415000Y-102750000D02*
G75*
G02*
X119215000Y-102750000I-100000J0D01*
G01*
X119215000Y-102750000D02*
G75*
G02*
X119415000Y-102750000I100000J0D01*
G01*
D10*
%TO.C,D1*%
X128610000Y-125985000D02*
X128610000Y-123015000D01*
X128460000Y-122865000D02*
G75*
G02*
X128610000Y-123015000I0J-150000D01*
G01*
X128610000Y-125985000D02*
G75*
G02*
X128460000Y-126135000I-150000J0D01*
G01*
D16*
X127875000Y-122110000D02*
G75*
G02*
X127625000Y-122110000I-125000J0D01*
G01*
X127625000Y-122110000D02*
G75*
G02*
X127875000Y-122110000I125000J0D01*
G01*
D10*
%TO.C,C13*%
X125475000Y-106750000D02*
X125475000Y-105250000D01*
X125325000Y-105100000D02*
G75*
G02*
X125475000Y-105250000I0J-150000D01*
G01*
X125475000Y-106750000D02*
G75*
G02*
X125325000Y-106900000I-150000J0D01*
G01*
%TO.C,TH1*%
X133425000Y-113825001D02*
X132075000Y-113825001D01*
X131925000Y-113975001D02*
G75*
G02*
X132075000Y-113825001I150000J0D01*
G01*
X133425000Y-113825001D02*
G75*
G02*
X133574999Y-113975001I0J-149999D01*
G01*
%TO.C,U4*%
X127200000Y-106850000D02*
X127200000Y-106750000D01*
X127350000Y-107000000D02*
X131350000Y-107000000D01*
X131500000Y-106850000D02*
X131500000Y-106750000D01*
X127350000Y-107000000D02*
G75*
G02*
X127200000Y-106850000I0J150000D01*
G01*
X131500000Y-106850000D02*
G75*
G02*
X131350000Y-107000000I-150000J0D01*
G01*
D16*
X131625000Y-104050000D02*
G75*
G02*
X131375000Y-104050000I-125000J0D01*
G01*
X131375000Y-104050000D02*
G75*
G02*
X131625000Y-104050000I125000J0D01*
G01*
D13*
%TO.C,Q1*%
X131750000Y-126500000D02*
G75*
G02*
X131550000Y-126500000I-100000J0D01*
G01*
X131550000Y-126500000D02*
G75*
G02*
X131750000Y-126500000I100000J0D01*
G01*
D10*
%TO.C,R5*%
X128825000Y-110225000D02*
X130175000Y-110225000D01*
X128825000Y-110225000D02*
G75*
G02*
X128675000Y-110075000I0J150000D01*
G01*
X130325000Y-110075000D02*
G75*
G02*
X130175000Y-110225000I-150000J0D01*
G01*
D17*
%TO.C,J1*%
X149421000Y-120925000D02*
X149421000Y-121560000D01*
X149421000Y-121560000D02*
X148786000Y-121560000D01*
D15*
%TO.C,J5*%
X70800000Y-106000000D02*
X70800000Y-114000000D01*
X73750000Y-103875000D02*
X74500000Y-103875000D01*
X74500000Y-103875000D02*
X74500000Y-106050000D01*
X74500000Y-113950000D02*
X74500000Y-116125000D01*
X74500000Y-116125000D02*
X73750000Y-116125000D01*
D13*
X75900000Y-113145000D02*
G75*
G02*
X75700000Y-113145000I-100000J0D01*
G01*
X75700000Y-113145000D02*
G75*
G02*
X75900000Y-113145000I100000J0D01*
G01*
D10*
%TO.C,C15*%
X140250000Y-107525000D02*
X138750000Y-107525000D01*
X138600000Y-107675000D02*
G75*
G02*
X138750000Y-107525000I150000J0D01*
G01*
X140250000Y-107525000D02*
G75*
G02*
X140400000Y-107675000I0J-150000D01*
G01*
%TO.C,R14*%
X142224999Y-106425000D02*
X142224999Y-105075000D01*
X142074999Y-104925000D02*
G75*
G02*
X142224999Y-105075000I0J-150000D01*
G01*
X142224999Y-106425000D02*
G75*
G02*
X142074999Y-106574999I-149999J0D01*
G01*
D15*
%TO.C,SW5*%
X135920000Y-93601000D02*
X135920000Y-99399000D01*
X146080000Y-93601000D02*
X146080000Y-99399000D01*
D13*
X137415000Y-102750000D02*
G75*
G02*
X137215000Y-102750000I-100000J0D01*
G01*
X137215000Y-102750000D02*
G75*
G02*
X137415000Y-102750000I100000J0D01*
G01*
D10*
%TO.C,R2*%
X129775001Y-123075000D02*
X129775001Y-124425000D01*
X129775001Y-123075000D02*
G75*
G02*
X129925001Y-122925001I149999J0D01*
G01*
X129925001Y-124575000D02*
G75*
G02*
X129775001Y-124425000I0J150000D01*
G01*
%TO.C,C12*%
X136500000Y-108399999D02*
X136500000Y-107100001D01*
X136350000Y-106950001D02*
G75*
G02*
X136500000Y-107100001I0J-150000D01*
G01*
X136500000Y-108399999D02*
G75*
G02*
X136350000Y-108550000I-150000J-1D01*
G01*
%TD*%
M02*
