M48
; DRILL file {KiCad 8.0.8} date 2025-05-29T10:28:47-0400
; FORMAT={-:-/ absolute / inch / decimal}
; #@! TF.CreationDate,2025-05-29T10:28:47-04:00
; #@! TF.GenerationSoftware,Kicad,Pcbnew,8.0.8
; #@! TF.FileFunction,Plated,1,4,PTH
FMAT,2
INCH
; #@! TA.AperFunction,Plated,PTH,ViaDrill
T1C0.0118
; #@! TA.AperFunction,Plated,PTH,ComponentDrill
T2C0.0300
; #@! TA.AperFunction,Plated,PTH,ComponentDrill
T3C0.0394
%
G90
G05
T1
X2.0472Y-2.1575
X2.0669Y-2.7756
X2.0787Y-3.6299
X2.1024Y-2.2441
X2.126Y-2.1654
X2.1654Y-2.1693
X2.2244Y-2.189
X2.3228Y-2.874
X2.3386Y-2.4488
X2.3819Y-2.8937
X2.4114Y-2.874
X2.4705Y-3.2087
X2.4882Y-2.5709
X2.5098Y-2.1161
X2.5906Y-3.0394
X2.6299Y-3.1339
X2.6811Y-2.7008
X2.685Y-3.1732
X2.6969Y-2.126
X2.7047Y-2.4687
X2.7323Y-2.8819
X2.7657Y-3.1594
X2.7835Y-2.4764
X2.8346Y-2.8543
X2.8543Y-2.9803
X2.8642Y-2.126
X2.8858Y-2.9724
X2.8937Y-2.1969
X2.9646Y-2.6496
X2.9921Y-2.7165
X3.0118Y-2.6417
X3.0276Y-2.2835
X3.0512Y-2.3819
X3.0551Y-3.5039
X3.0945Y-3.2559
X3.1299Y-2.2638
X3.1772Y-2.9843
X3.1811Y-2.4685
X3.189Y-2.6575
X3.2283Y-2.2047
X3.248Y-2.3031
X3.2638Y-2.8189
X3.2677Y-2.6555
X3.3583Y-2.5906
X3.3701Y-2.1417
X3.4213Y-3.1181
X3.4252Y-2.3819
X3.4291Y-3.2953
X3.4357Y-2.2268
X3.5039Y-2.5886
X3.5591Y-2.0039
X3.563Y-2.2913
X3.5748Y-3.248
X3.6654Y-2.1654
T2
X2.0079Y-2.0625
X2.0625Y-2.3228
X2.0625Y-2.4016
X2.0866Y-2.0625
X3.5827Y-3.5433
X3.5827Y-3.622
X3.5871Y-3.3858
X3.5871Y-3.4646
T3
X2.4685Y-2.3967
X2.5685Y-2.3967
X2.6685Y-2.3967
X2.7685Y-2.3967
M30
