%TF.GenerationSoftware,KiCad,Pcbnew,8.0.8*%
%TF.CreationDate,2025-02-13T14:20:33-05:00*%
%TF.ProjectId,GF24,47463234-2e6b-4696-9361-645f70636258,rev?*%
%TF.SameCoordinates,Original*%
%TF.FileFunction,Copper,L3,Inr*%
%TF.FilePolarity,Positive*%
%FSLAX46Y46*%
G04 Gerber Fmt 4.6, Leading zero omitted, Abs format (unit mm)*
G04 Created by KiCad (PCBNEW 8.0.8) date 2025-02-13 14:20:33*
%MOMM*%
%LPD*%
G01*
G04 APERTURE LIST*
%TA.AperFunction,ViaPad*%
%ADD10C,0.700000*%
%TD*%
%TA.AperFunction,Conductor*%
%ADD11C,0.160000*%
%TD*%
G04 APERTURE END LIST*
D10*
%TO.N,GND*%
X139800000Y-107250000D03*
X125250000Y-96500000D03*
X120750000Y-127250000D03*
X116500000Y-94750000D03*
X115250000Y-103750000D03*
X131500000Y-93000000D03*
X125250000Y-108750000D03*
X123900000Y-115400000D03*
X129750000Y-99250000D03*
X140000000Y-128500000D03*
X150750000Y-98750000D03*
X136250000Y-118750000D03*
X138900000Y-103300000D03*
X123750000Y-98500000D03*
X147250000Y-100250000D03*
X141500000Y-96500000D03*
X133750000Y-129250000D03*
X120250000Y-113250000D03*
%TO.N,+3V3*%
X151000000Y-121250000D03*
X125900000Y-119000000D03*
X140000000Y-106050000D03*
%TO.N,NRST*%
X125200000Y-114000000D03*
X115900000Y-106100000D03*
X148500000Y-123950000D03*
%TO.N,/REG_I*%
X123000000Y-101035000D03*
X139800000Y-100600000D03*
X134400000Y-100400000D03*
%TO.N,BUTTON*%
X137300000Y-112950000D03*
X144400000Y-102550000D03*
%TO.N,VBUS*%
X133750000Y-104500000D03*
X136800000Y-98000000D03*
X143350000Y-105850000D03*
X142300000Y-108750000D03*
%TO.N,MODE*%
X137300000Y-113800000D03*
X137400000Y-107950000D03*
X139600000Y-105300000D03*
%TO.N,/SWDCLK*%
X134200000Y-108800000D03*
X148500000Y-116700000D03*
%TO.N,/SWDIO*%
X136500000Y-112250000D03*
X150800000Y-119400000D03*
%TO.N,BUZZER*%
X130500000Y-121850000D03*
X131200000Y-112050000D03*
%TO.N,/CH-TH-DIV*%
X132300000Y-113400000D03*
X129150000Y-107850000D03*
%TO.N,I2C-SDA*%
X137250000Y-119800000D03*
X133150000Y-119800000D03*
%TO.N,STATG*%
X129100000Y-111200000D03*
X121550000Y-103150000D03*
%TO.N,STATR*%
X115950000Y-98650000D03*
X129950000Y-111200000D03*
%TO.N,N-FAULT*%
X135350000Y-104700000D03*
X141500000Y-103300000D03*
%TO.N,N-CHRG*%
X145800000Y-109900000D03*
X131550000Y-102150000D03*
%TO.N,GNSS-RX*%
X73500000Y-110700000D03*
X95200000Y-108100000D03*
%TO.N,GNSS-TIMEPULSE*%
X88100000Y-115200000D03*
X73500000Y-113200000D03*
%TO.N,GNSS-TX*%
X73500000Y-111900000D03*
X95200000Y-110100000D03*
%TO.N,GNSS-N-RESET*%
X90000000Y-104750000D03*
X73500000Y-109400000D03*
%TO.N,/GNSS-ST-RX*%
X124650000Y-125100000D03*
X125950000Y-117750000D03*
%TO.N,/GNSS-ST-TIMEPULSE*%
X127050000Y-125100000D03*
X128750000Y-119550000D03*
%TO.N,/GNSS-ST-TX*%
X127350000Y-119150000D03*
X125850000Y-125100000D03*
%TO.N,/GNSS-ST-N-RESET*%
X123400000Y-125100000D03*
X125300000Y-117100000D03*
%TO.N,GNSS-3V3*%
X84700000Y-108100000D03*
X73500000Y-108200000D03*
X91900000Y-104700000D03*
%TO.N,GNSS-GND*%
X80000000Y-110000000D03*
X95100000Y-116600000D03*
X100000000Y-100000000D03*
X84800000Y-106200000D03*
X97000000Y-103000000D03*
X83000000Y-119000000D03*
X86200000Y-118000000D03*
X95100000Y-103400000D03*
X95000000Y-120000000D03*
X83000000Y-103000000D03*
X96600000Y-104900000D03*
X82000000Y-111900000D03*
X83000000Y-101000000D03*
X100000000Y-115000000D03*
X82000000Y-113800000D03*
X99000000Y-117000000D03*
X98000000Y-110000000D03*
X98000000Y-113800000D03*
X89000000Y-107000000D03*
X93800000Y-102000000D03*
X100000000Y-110000000D03*
X97000000Y-119000000D03*
X99000000Y-103000000D03*
X83400000Y-104900000D03*
X84800000Y-113800000D03*
X92000000Y-111900000D03*
X96600000Y-115100000D03*
X90000000Y-102000000D03*
X85000000Y-100000000D03*
X95000000Y-100000000D03*
X93800000Y-104800000D03*
X83400000Y-115100000D03*
X90000000Y-100000000D03*
X80000000Y-120000000D03*
X95200000Y-106200000D03*
X84900000Y-103400000D03*
X86200000Y-104800000D03*
X97000000Y-117000000D03*
X97000000Y-101000000D03*
X83000000Y-117000000D03*
X92000000Y-107000000D03*
X93800000Y-118000000D03*
X81000000Y-103000000D03*
X95200000Y-113800000D03*
X80000000Y-115000000D03*
X88000000Y-111900000D03*
X86200000Y-102000000D03*
X90000000Y-110000000D03*
X98000000Y-106200000D03*
X84800000Y-111900000D03*
X81000000Y-117000000D03*
X85000000Y-120000000D03*
X93800000Y-115200000D03*
X100000000Y-105000000D03*
X90000000Y-120000000D03*
X82000000Y-110000000D03*
X90000000Y-118000000D03*
X84900000Y-116600000D03*
X86200000Y-115200000D03*
X80000000Y-100000000D03*
X80000000Y-105000000D03*
X100000000Y-120000000D03*
%TD*%
D11*
%TO.N,/SWDCLK*%
X140100000Y-108550000D02*
X134450000Y-108550000D01*
X134450000Y-108550000D02*
X134200000Y-108800000D01*
X148500000Y-116700000D02*
X148250000Y-116700000D01*
X148250000Y-116700000D02*
X140100000Y-108550000D01*
%TO.N,/SWDIO*%
X139235002Y-112250000D02*
X136500000Y-112250000D01*
X150800000Y-119400000D02*
X146385002Y-119400000D01*
X146385002Y-119400000D02*
X139235002Y-112250000D01*
%TO.N,BUZZER*%
X130500000Y-121850000D02*
X131200000Y-121150000D01*
X131200000Y-121150000D02*
X131200000Y-112050000D01*
%TO.N,/CH-TH-DIV*%
X132300000Y-111000000D02*
X132300000Y-113400000D01*
X129150000Y-107850000D02*
X132300000Y-111000000D01*
%TO.N,N-FAULT*%
X138400000Y-104700000D02*
X135350000Y-104700000D01*
X141500000Y-103300000D02*
X139800000Y-103300000D01*
X139800000Y-103300000D02*
X138400000Y-104700000D01*
%TO.N,N-CHRG*%
X142530000Y-106630000D02*
X145800000Y-109900000D01*
X131550000Y-102150000D02*
X131550000Y-103950000D01*
X134230000Y-106630000D02*
X142530000Y-106630000D01*
X131550000Y-103950000D02*
X134230000Y-106630000D01*
%TO.N,GNSS-RX*%
X92600000Y-110700000D02*
X95200000Y-108100000D01*
X73500000Y-110700000D02*
X92600000Y-110700000D01*
%TO.N,GNSS-TIMEPULSE*%
X73500000Y-113200000D02*
X86100000Y-113200000D01*
X86100000Y-113200000D02*
X88100000Y-115200000D01*
%TO.N,GNSS-TX*%
X73500000Y-111900000D02*
X74080000Y-112480000D01*
X74080000Y-112480000D02*
X92820000Y-112480000D01*
X92820000Y-112480000D02*
X95200000Y-110100000D01*
%TO.N,GNSS-N-RESET*%
X85350000Y-109400000D02*
X90000000Y-104750000D01*
X73500000Y-109400000D02*
X85350000Y-109400000D01*
%TD*%
%TA.AperFunction,Conductor*%
%TO.N,/REG_I*%
G36*
X129314780Y-99519685D02*
G01*
X129341453Y-99542796D01*
X129418872Y-99632143D01*
X129539947Y-99709953D01*
X129539950Y-99709954D01*
X129539949Y-99709954D01*
X129678036Y-99750499D01*
X129678038Y-99750500D01*
X129678039Y-99750500D01*
X129821962Y-99750500D01*
X129821962Y-99750499D01*
X129960053Y-99709953D01*
X130081128Y-99632143D01*
X130158546Y-99542796D01*
X130217324Y-99505023D01*
X130252259Y-99500000D01*
X140376000Y-99500000D01*
X140443039Y-99519685D01*
X140488794Y-99572489D01*
X140500000Y-99624000D01*
X140500000Y-102376000D01*
X140480315Y-102443039D01*
X140427511Y-102488794D01*
X140376000Y-102500000D01*
X132133331Y-102500000D01*
X132066292Y-102480315D01*
X132020537Y-102427511D01*
X132010593Y-102358353D01*
X132020536Y-102324489D01*
X132035165Y-102292457D01*
X132055647Y-102150000D01*
X132035165Y-102007543D01*
X131975377Y-101876627D01*
X131881128Y-101767857D01*
X131760053Y-101690047D01*
X131760051Y-101690046D01*
X131760049Y-101690045D01*
X131760050Y-101690045D01*
X131621963Y-101649500D01*
X131621961Y-101649500D01*
X131478039Y-101649500D01*
X131478036Y-101649500D01*
X131339949Y-101690045D01*
X131218873Y-101767856D01*
X131124623Y-101876626D01*
X131124622Y-101876628D01*
X131064834Y-102007543D01*
X131044353Y-102150000D01*
X131064834Y-102292454D01*
X131079464Y-102324489D01*
X131089407Y-102393647D01*
X131060382Y-102457203D01*
X131001603Y-102494977D01*
X130966669Y-102500000D01*
X122124000Y-102500000D01*
X122056961Y-102480315D01*
X122011206Y-102427511D01*
X122000000Y-102376000D01*
X122000000Y-99624000D01*
X122019685Y-99556961D01*
X122072489Y-99511206D01*
X122124000Y-99500000D01*
X129247741Y-99500000D01*
X129314780Y-99519685D01*
G37*
%TD.AperFunction*%
%TD*%
M02*
