%TF.GenerationSoftware,KiCad,Pcbnew,8.0.8*%
%TF.CreationDate,2025-01-25T09:27:46-05:00*%
%TF.ProjectId,GF24,47463234-2e6b-4696-9361-645f70636258,rev?*%
%TF.SameCoordinates,Original*%
%TF.FileFunction,Legend,Bot*%
%TF.FilePolarity,Positive*%
%FSLAX46Y46*%
G04 Gerber Fmt 4.6, Leading zero omitted, Abs format (unit mm)*
G04 Created by KiCad (PCBNEW 8.0.8) date 2025-01-25 09:27:46*
%MOMM*%
%LPD*%
G01*
G04 APERTURE LIST*
%ADD10C,0.100000*%
%ADD11C,0.150000*%
%ADD12C,0.508000*%
%ADD13C,0.250000*%
G04 APERTURE END LIST*
D10*
G36*
X181247618Y-100657419D02*
G01*
X180928470Y-100657419D01*
X180851047Y-100618708D01*
X180814901Y-100582561D01*
X180776190Y-100505139D01*
X180776190Y-100385888D01*
X180814901Y-100308464D01*
X180848437Y-100274929D01*
X180972398Y-100233609D01*
X181247618Y-100233609D01*
X181247618Y-100657419D01*
G37*
G36*
X181247618Y-100133609D02*
G01*
X180976089Y-100133609D01*
X180898665Y-100094897D01*
X180862520Y-100058753D01*
X180823809Y-99981330D01*
X180823809Y-99909698D01*
X180862520Y-99832274D01*
X180898665Y-99796130D01*
X180976089Y-99757419D01*
X181247618Y-99757419D01*
X181247618Y-100133609D01*
G37*
G36*
X180275866Y-100371704D02*
G01*
X179938418Y-100371704D01*
X180107142Y-99865532D01*
X180275866Y-100371704D01*
G37*
G36*
X181458729Y-100868530D02*
G01*
X177997456Y-100868530D01*
X177997456Y-100688285D01*
X178108567Y-100688285D01*
X178108567Y-100726553D01*
X178135627Y-100753613D01*
X178154761Y-100757419D01*
X178726189Y-100757419D01*
X178745323Y-100753613D01*
X178772383Y-100726553D01*
X178772383Y-100688285D01*
X178745323Y-100661225D01*
X178726189Y-100657419D01*
X178490475Y-100657419D01*
X178490475Y-99872557D01*
X178494111Y-99878011D01*
X178497607Y-99881515D01*
X178500358Y-99885631D01*
X178595596Y-99980869D01*
X178602255Y-99985319D01*
X178608590Y-99990235D01*
X178703828Y-100037854D01*
X178722644Y-100043007D01*
X178758949Y-100030905D01*
X178776063Y-99996677D01*
X178763961Y-99960373D01*
X178748549Y-99948411D01*
X178660567Y-99904420D01*
X178574572Y-99818425D01*
X178487812Y-99688285D01*
X178965710Y-99688285D01*
X178965710Y-99726553D01*
X178992770Y-99753613D01*
X179011904Y-99757419D01*
X179247618Y-99757419D01*
X179247618Y-100707419D01*
X179251424Y-100726553D01*
X179278484Y-100753613D01*
X179316752Y-100753613D01*
X179343812Y-100726553D01*
X179346913Y-100710963D01*
X179723935Y-100710963D01*
X179741049Y-100745192D01*
X179777353Y-100757293D01*
X179811582Y-100740179D01*
X179821243Y-100723230D01*
X179905085Y-100471704D01*
X180309199Y-100471704D01*
X180393041Y-100723230D01*
X180402702Y-100740178D01*
X180436931Y-100757293D01*
X180473235Y-100745191D01*
X180490349Y-100710963D01*
X180487909Y-100691607D01*
X180382068Y-100374085D01*
X180676190Y-100374085D01*
X180676190Y-100516942D01*
X180676678Y-100519398D01*
X180676316Y-100520487D01*
X180678432Y-100528214D01*
X180679996Y-100536076D01*
X180680807Y-100536887D01*
X180681469Y-100539303D01*
X180729087Y-100634540D01*
X180733998Y-100640868D01*
X180738453Y-100647535D01*
X180786072Y-100695155D01*
X180792738Y-100699609D01*
X180799067Y-100704521D01*
X180894305Y-100752140D01*
X180896720Y-100752801D01*
X180897532Y-100753613D01*
X180905393Y-100755176D01*
X180913121Y-100757293D01*
X180914209Y-100756930D01*
X180916666Y-100757419D01*
X181297618Y-100757419D01*
X181316752Y-100753613D01*
X181343812Y-100726553D01*
X181347618Y-100707419D01*
X181347618Y-99707419D01*
X181343812Y-99688285D01*
X181316752Y-99661225D01*
X181297618Y-99657419D01*
X180964285Y-99657419D01*
X180961828Y-99657907D01*
X180960740Y-99657545D01*
X180953012Y-99659661D01*
X180945151Y-99661225D01*
X180944339Y-99662036D01*
X180941924Y-99662698D01*
X180846686Y-99710317D01*
X180840357Y-99715228D01*
X180833691Y-99719683D01*
X180786073Y-99767302D01*
X180781621Y-99773963D01*
X180776706Y-99780297D01*
X180729088Y-99875534D01*
X180728426Y-99877949D01*
X180727615Y-99878761D01*
X180726051Y-99886622D01*
X180723935Y-99894350D01*
X180724297Y-99895438D01*
X180723809Y-99897895D01*
X180723809Y-99993133D01*
X180724297Y-99995589D01*
X180723935Y-99996678D01*
X180726051Y-100004405D01*
X180727615Y-100012267D01*
X180728426Y-100013078D01*
X180729088Y-100015494D01*
X180776706Y-100110731D01*
X180781621Y-100117064D01*
X180786073Y-100123726D01*
X180833691Y-100171345D01*
X180836777Y-100173407D01*
X180805617Y-100183794D01*
X180803442Y-100185034D01*
X180802293Y-100185034D01*
X180795626Y-100189488D01*
X180788668Y-100193455D01*
X180788154Y-100194481D01*
X180786072Y-100195873D01*
X180738454Y-100243492D01*
X180734002Y-100250153D01*
X180729087Y-100256487D01*
X180681469Y-100351724D01*
X180680807Y-100354139D01*
X180679996Y-100354951D01*
X180678432Y-100362812D01*
X180676316Y-100370540D01*
X180676678Y-100371628D01*
X180676190Y-100374085D01*
X180382068Y-100374085D01*
X180154576Y-99691608D01*
X180144915Y-99674659D01*
X180141572Y-99672987D01*
X180139902Y-99669647D01*
X180124865Y-99664634D01*
X180110686Y-99657545D01*
X180107141Y-99658726D01*
X180103598Y-99657545D01*
X180089424Y-99664632D01*
X180074382Y-99669646D01*
X180072710Y-99672989D01*
X180069369Y-99674660D01*
X180059708Y-99691608D01*
X179726375Y-100691608D01*
X179723935Y-100710963D01*
X179346913Y-100710963D01*
X179347618Y-100707419D01*
X179347618Y-99757419D01*
X179583332Y-99757419D01*
X179602466Y-99753613D01*
X179629526Y-99726553D01*
X179629526Y-99688285D01*
X179602466Y-99661225D01*
X179583332Y-99657419D01*
X179011904Y-99657419D01*
X178992770Y-99661225D01*
X178965710Y-99688285D01*
X178487812Y-99688285D01*
X178482078Y-99679684D01*
X178468297Y-99665875D01*
X178463249Y-99664865D01*
X178459609Y-99661225D01*
X178445047Y-99661225D01*
X178430772Y-99658370D01*
X178426489Y-99661225D01*
X178421341Y-99661225D01*
X178411044Y-99671521D01*
X178398931Y-99679597D01*
X178397921Y-99684644D01*
X178394281Y-99688285D01*
X178390475Y-99707419D01*
X178390475Y-100657419D01*
X178154761Y-100657419D01*
X178135627Y-100661225D01*
X178108567Y-100688285D01*
X177997456Y-100688285D01*
X177997456Y-99546308D01*
X181458729Y-99546308D01*
X181458729Y-100868530D01*
G37*
G36*
X183728314Y-95224758D02*
G01*
X183780349Y-95231979D01*
X183827774Y-95244450D01*
X183875617Y-95264758D01*
X183917975Y-95291516D01*
X183954924Y-95324804D01*
X183986462Y-95364623D01*
X184001646Y-95389566D01*
X184023857Y-95436060D01*
X184040298Y-95484683D01*
X184048053Y-95518282D01*
X184055423Y-95568138D01*
X184059468Y-95618971D01*
X184060947Y-95669207D01*
X184060997Y-95680948D01*
X184060997Y-95808687D01*
X183295052Y-95808687D01*
X183295052Y-95680948D01*
X183296153Y-95627708D01*
X183299457Y-95578449D01*
X183305711Y-95528384D01*
X183308974Y-95509733D01*
X183321512Y-95460773D01*
X183339650Y-95414640D01*
X183360997Y-95375156D01*
X183390007Y-95335305D01*
X183427770Y-95298096D01*
X183471352Y-95268329D01*
X183485561Y-95260850D01*
X183532165Y-95242432D01*
X183584875Y-95230041D01*
X183636853Y-95224088D01*
X183679002Y-95222748D01*
X183728314Y-95224758D01*
G37*
G36*
X184312792Y-96940733D02*
G01*
X183043257Y-96940733D01*
X183043257Y-96829622D01*
X183170000Y-96829622D01*
X184186050Y-96829622D01*
X184186050Y-96155756D01*
X184060997Y-96155756D01*
X184060997Y-96693823D01*
X183795261Y-96693823D01*
X183795261Y-96155756D01*
X183670209Y-96155756D01*
X183670209Y-96693823D01*
X183295052Y-96693823D01*
X183295052Y-96155756D01*
X183170000Y-96155756D01*
X183170000Y-96829622D01*
X183043257Y-96829622D01*
X183043257Y-95686321D01*
X183170000Y-95686321D01*
X183170000Y-95944486D01*
X184186050Y-95944486D01*
X184186050Y-95689008D01*
X184185294Y-95635026D01*
X184183027Y-95585372D01*
X184178472Y-95532913D01*
X184170748Y-95480171D01*
X184164556Y-95451115D01*
X184151191Y-95403545D01*
X184133350Y-95355765D01*
X184110088Y-95309378D01*
X184105450Y-95301639D01*
X184075064Y-95258113D01*
X184040541Y-95219005D01*
X184001881Y-95184315D01*
X183959083Y-95154043D01*
X183932770Y-95138729D01*
X183883718Y-95115983D01*
X183830809Y-95098824D01*
X183782389Y-95088563D01*
X183731135Y-95082407D01*
X183677048Y-95080355D01*
X183626026Y-95082493D01*
X183576824Y-95088907D01*
X183521723Y-95101795D01*
X183469100Y-95120503D01*
X183425966Y-95141171D01*
X183379113Y-95169695D01*
X183337075Y-95202052D01*
X183299852Y-95238243D01*
X183267445Y-95278268D01*
X183251088Y-95302860D01*
X183226559Y-95348245D01*
X183206705Y-95396779D01*
X183191525Y-95448461D01*
X183189050Y-95459175D01*
X183179841Y-95512000D01*
X183174185Y-95566222D01*
X183171190Y-95619276D01*
X183170074Y-95668919D01*
X183170023Y-95680948D01*
X183170000Y-95686321D01*
X183043257Y-95686321D01*
X183043257Y-94387926D01*
X183154368Y-94387926D01*
X183155922Y-94439232D01*
X183160586Y-94488645D01*
X183169722Y-94542798D01*
X183182919Y-94594478D01*
X183186852Y-94607012D01*
X183205140Y-94654990D01*
X183227519Y-94699275D01*
X183257585Y-94744679D01*
X183284549Y-94776761D01*
X183324115Y-94814053D01*
X183363663Y-94842919D01*
X183407333Y-94867755D01*
X183448925Y-94886181D01*
X183500353Y-94902958D01*
X183548784Y-94913705D01*
X183600417Y-94920783D01*
X183655253Y-94924191D01*
X183679734Y-94924528D01*
X183738650Y-94922291D01*
X183794376Y-94915582D01*
X183846911Y-94904400D01*
X183896256Y-94888746D01*
X183942410Y-94868619D01*
X183985374Y-94844019D01*
X184025147Y-94814946D01*
X184061730Y-94781401D01*
X184094531Y-94743891D01*
X184122959Y-94703045D01*
X184147013Y-94658864D01*
X184166693Y-94611347D01*
X184182001Y-94560495D01*
X184192934Y-94506307D01*
X184199495Y-94448784D01*
X184201681Y-94387926D01*
X184200039Y-94338570D01*
X184195112Y-94288596D01*
X184186901Y-94238003D01*
X184180921Y-94209629D01*
X184167081Y-94157282D01*
X184150919Y-94108903D01*
X184131124Y-94058784D01*
X184110823Y-94013502D01*
X183951577Y-94013502D01*
X183951577Y-94025958D01*
X183979283Y-94068685D01*
X183990900Y-94087752D01*
X184015827Y-94132900D01*
X184031688Y-94167375D01*
X184048329Y-94214587D01*
X184061245Y-94263688D01*
X184063684Y-94274842D01*
X184072065Y-94326320D01*
X184076010Y-94378561D01*
X184076629Y-94411129D01*
X184074035Y-94463103D01*
X184066253Y-94511560D01*
X184050068Y-94565063D01*
X184026411Y-94613501D01*
X183995285Y-94656872D01*
X183970383Y-94682971D01*
X183927905Y-94716920D01*
X183880155Y-94743845D01*
X183827132Y-94763746D01*
X183778919Y-94774965D01*
X183727045Y-94781306D01*
X183682909Y-94782867D01*
X183625221Y-94780321D01*
X183571684Y-94772682D01*
X183522296Y-94759951D01*
X183468509Y-94737952D01*
X183420699Y-94708620D01*
X183385422Y-94678575D01*
X183349398Y-94636721D01*
X183320827Y-94589560D01*
X183299710Y-94537093D01*
X183287805Y-94489316D01*
X183281077Y-94437855D01*
X183279420Y-94394032D01*
X183281138Y-94344756D01*
X183286290Y-94295480D01*
X183291632Y-94262629D01*
X183302922Y-94211948D01*
X183317695Y-94163408D01*
X183323628Y-94147591D01*
X183560788Y-94147591D01*
X183560788Y-94421632D01*
X183685840Y-94421632D01*
X183685840Y-94012769D01*
X183249378Y-94012769D01*
X183228601Y-94061129D01*
X183209408Y-94111962D01*
X183193677Y-94159223D01*
X183182700Y-94195951D01*
X183170305Y-94245136D01*
X183161451Y-94293526D01*
X183155724Y-94347017D01*
X183154368Y-94387926D01*
X183043257Y-94387926D01*
X183043257Y-93780494D01*
X183170000Y-93780494D01*
X184186050Y-93780494D01*
X184186050Y-93106628D01*
X184060997Y-93106628D01*
X184060997Y-93644695D01*
X183795261Y-93644695D01*
X183795261Y-93106628D01*
X183670209Y-93106628D01*
X183670209Y-93644695D01*
X183295052Y-93644695D01*
X183295052Y-93106628D01*
X183170000Y-93106628D01*
X183170000Y-93780494D01*
X183043257Y-93780494D01*
X183043257Y-92995517D01*
X184312792Y-92995517D01*
X184312792Y-96940733D01*
G37*
G36*
X160749233Y-79254164D02*
G01*
X158770052Y-81233345D01*
X157875238Y-80338532D01*
X158149581Y-80338532D01*
X158154838Y-80387986D01*
X158157292Y-80397476D01*
X158176944Y-80442913D01*
X158206790Y-80482581D01*
X158214630Y-80490737D01*
X158254029Y-80521838D01*
X158298824Y-80541740D01*
X158349017Y-80550442D01*
X158359703Y-80550839D01*
X158411913Y-80546940D01*
X158460817Y-80533730D01*
X158506415Y-80511211D01*
X158515138Y-80505590D01*
X158521701Y-80512153D01*
X158496831Y-80554286D01*
X158484397Y-80581581D01*
X158469054Y-80628339D01*
X158463845Y-80663270D01*
X158466887Y-80713526D01*
X158477488Y-80753596D01*
X158499994Y-80797671D01*
X158531286Y-80836975D01*
X158543117Y-80849275D01*
X158581287Y-80882394D01*
X158625763Y-80909996D01*
X158651058Y-80921293D01*
X158699480Y-80935683D01*
X158749328Y-80941806D01*
X158772815Y-80941845D01*
X158824643Y-80935579D01*
X158875208Y-80920667D01*
X158908217Y-80905922D01*
X158952343Y-80880084D01*
X158994960Y-80848165D01*
X159032392Y-80813870D01*
X159068421Y-80775109D01*
X159101380Y-80733953D01*
X159131270Y-80690402D01*
X159136879Y-80681405D01*
X159162235Y-80638056D01*
X159184867Y-80594464D01*
X159201989Y-80555157D01*
X159102856Y-80456023D01*
X159095602Y-80463277D01*
X159079338Y-80513008D01*
X159058840Y-80560174D01*
X159038091Y-80599887D01*
X159011794Y-80642760D01*
X158980218Y-80685479D01*
X158945867Y-80723545D01*
X158907160Y-80756022D01*
X158871085Y-80778638D01*
X158824766Y-80798310D01*
X158785596Y-80805062D01*
X158736881Y-80801223D01*
X158706496Y-80792282D01*
X158662781Y-80767024D01*
X158631887Y-80739779D01*
X158600412Y-80702086D01*
X158581630Y-80664652D01*
X158573785Y-80616289D01*
X158576622Y-80591252D01*
X158594100Y-80543271D01*
X158609608Y-80518198D01*
X158639691Y-80479491D01*
X158671092Y-80445661D01*
X158714786Y-80401967D01*
X158637414Y-80324594D01*
X158603391Y-80358617D01*
X158566486Y-80391874D01*
X158525097Y-80420437D01*
X158479269Y-80441182D01*
X158456418Y-80447215D01*
X158403797Y-80448268D01*
X158356033Y-80429405D01*
X158326889Y-80405766D01*
X158298677Y-80363850D01*
X158294593Y-80351018D01*
X158292620Y-80301265D01*
X158295111Y-80289362D01*
X158314249Y-80242505D01*
X158323262Y-80228052D01*
X158354690Y-80188209D01*
X158372483Y-80169505D01*
X158409934Y-80136135D01*
X158453115Y-80105193D01*
X158485088Y-80085915D01*
X158531417Y-80062153D01*
X158579215Y-80042636D01*
X158623943Y-80028577D01*
X158628779Y-80023741D01*
X158529646Y-79924608D01*
X158481014Y-79945216D01*
X158437331Y-79968273D01*
X158407025Y-79986091D01*
X158364057Y-80014304D01*
X158324531Y-80044541D01*
X158285025Y-80080139D01*
X158281640Y-80083497D01*
X158247821Y-80119561D01*
X158216932Y-80158019D01*
X158197878Y-80186257D01*
X158174497Y-80230558D01*
X158157590Y-80279417D01*
X158155219Y-80289362D01*
X158149581Y-80338532D01*
X157875238Y-80338532D01*
X157872354Y-80335648D01*
X158669392Y-79538610D01*
X158848633Y-79538610D01*
X159489717Y-80179694D01*
X159342054Y-80327358D01*
X159419426Y-80404730D01*
X159810950Y-80013206D01*
X159733578Y-79935834D01*
X159582978Y-80086433D01*
X159107692Y-79611147D01*
X159258291Y-79460547D01*
X159191972Y-79394228D01*
X159154631Y-79428400D01*
X159121508Y-79454675D01*
X159080367Y-79481597D01*
X159053808Y-79493016D01*
X159004101Y-79499784D01*
X158988352Y-79498025D01*
X158942365Y-79477857D01*
X158923933Y-79463311D01*
X158848633Y-79538610D01*
X158669392Y-79538610D01*
X159031037Y-79176965D01*
X159314939Y-79176965D01*
X159428406Y-79290432D01*
X159435660Y-79283179D01*
X159443918Y-79231788D01*
X159455219Y-79183657D01*
X159471572Y-79133406D01*
X159486954Y-79097174D01*
X159510454Y-79053303D01*
X159538599Y-79011454D01*
X159571390Y-78971627D01*
X159591613Y-78950375D01*
X159630106Y-78915923D01*
X159673773Y-78885880D01*
X159707672Y-78868512D01*
X159754731Y-78852442D01*
X159804462Y-78844387D01*
X159839101Y-78843470D01*
X159891083Y-78849323D01*
X159939714Y-78862924D01*
X159980201Y-78879911D01*
X160025226Y-78905263D01*
X160065403Y-78933964D01*
X160105251Y-78968239D01*
X160122856Y-78985261D01*
X160157074Y-79022047D01*
X160189427Y-79063432D01*
X160217748Y-79109415D01*
X160228898Y-79132406D01*
X160247289Y-79182069D01*
X160258292Y-79229895D01*
X160261885Y-79271780D01*
X160258169Y-79322305D01*
X160246244Y-79371032D01*
X160233733Y-79402518D01*
X160209042Y-79447416D01*
X160178230Y-79489109D01*
X160154289Y-79515122D01*
X160114184Y-79551730D01*
X160071975Y-79583447D01*
X160027662Y-79610273D01*
X160002135Y-79623064D01*
X159954371Y-79642461D01*
X159904338Y-79657132D01*
X159852038Y-79667076D01*
X159822003Y-79670558D01*
X159815267Y-79677293D01*
X159927008Y-79789034D01*
X159974504Y-79770723D01*
X159997127Y-79762437D01*
X160042367Y-79743183D01*
X160075017Y-79727032D01*
X160119304Y-79701592D01*
X160154807Y-79678329D01*
X160196213Y-79646767D01*
X160232656Y-79613555D01*
X160237878Y-79608384D01*
X160274999Y-79568542D01*
X160307608Y-79527773D01*
X160335705Y-79486075D01*
X160359291Y-79443450D01*
X160379840Y-79394345D01*
X160393887Y-79343983D01*
X160401431Y-79292365D01*
X160402812Y-79263145D01*
X160399830Y-79210927D01*
X160389716Y-79158026D01*
X160374739Y-79110429D01*
X160359809Y-79074377D01*
X160334648Y-79026246D01*
X160307620Y-78984504D01*
X160275915Y-78943108D01*
X160239532Y-78902060D01*
X160222508Y-78884574D01*
X160183583Y-78848062D01*
X160144030Y-78815749D01*
X160103850Y-78787634D01*
X160057160Y-78760643D01*
X160039439Y-78751936D01*
X159991913Y-78732560D01*
X159944322Y-78718647D01*
X159890704Y-78709522D01*
X159848945Y-78707205D01*
X159797023Y-78710192D01*
X159745593Y-78719737D01*
X159694654Y-78735839D01*
X159666568Y-78747618D01*
X159622226Y-78770501D01*
X159579179Y-78798221D01*
X159537427Y-78830776D01*
X159496971Y-78868167D01*
X159461886Y-78905983D01*
X159429602Y-78946464D01*
X159400117Y-78989610D01*
X159394556Y-78998559D01*
X159370453Y-79041788D01*
X159347689Y-79090454D01*
X159328578Y-79138278D01*
X159314939Y-79176965D01*
X159031037Y-79176965D01*
X159851536Y-78356466D01*
X160749233Y-79254164D01*
G37*
D11*
G36*
X126965380Y-82226741D02*
G01*
X127019117Y-82233378D01*
X127068430Y-82244439D01*
X127121764Y-82263553D01*
X127168728Y-82289038D01*
X127202997Y-82315143D01*
X127237859Y-82351379D01*
X127265508Y-82391942D01*
X127285944Y-82436833D01*
X127299167Y-82486052D01*
X127305178Y-82539598D01*
X127305579Y-82558409D01*
X127301972Y-82613381D01*
X127291153Y-82663990D01*
X127273121Y-82710238D01*
X127247876Y-82752124D01*
X127215419Y-82789648D01*
X127202997Y-82801186D01*
X127161343Y-82831898D01*
X127113318Y-82856255D01*
X127058921Y-82874259D01*
X127008724Y-82884408D01*
X126954102Y-82890144D01*
X126907219Y-82891556D01*
X126849590Y-82889374D01*
X126796231Y-82882826D01*
X126747142Y-82871914D01*
X126693870Y-82853058D01*
X126646747Y-82827916D01*
X126612173Y-82802163D01*
X126576896Y-82766431D01*
X126548918Y-82726097D01*
X126528239Y-82681160D01*
X126514858Y-82631621D01*
X126508776Y-82577479D01*
X126508370Y-82558409D01*
X126512019Y-82502243D01*
X126522967Y-82450801D01*
X126541214Y-82404081D01*
X126566759Y-82362083D01*
X126599603Y-82324809D01*
X126612173Y-82313433D01*
X126654173Y-82283220D01*
X126702322Y-82259257D01*
X126756618Y-82241546D01*
X126806561Y-82231561D01*
X126860774Y-82225918D01*
X126907219Y-82224529D01*
X126965380Y-82226741D01*
G37*
G36*
X127791847Y-84020183D02*
G01*
X126272207Y-84020183D01*
X126272207Y-83530007D01*
X126383318Y-83530007D01*
X126385928Y-83586596D01*
X126393759Y-83638393D01*
X126409494Y-83692768D01*
X126432334Y-83740621D01*
X126457568Y-83776448D01*
X126492576Y-83811280D01*
X126538769Y-83840612D01*
X126591556Y-83858770D01*
X126643154Y-83865492D01*
X126658824Y-83865841D01*
X126710741Y-83862567D01*
X126759331Y-83852746D01*
X126765558Y-83850942D01*
X126813613Y-83832746D01*
X126859103Y-83807467D01*
X126900502Y-83778280D01*
X126938648Y-83746702D01*
X126941168Y-83744452D01*
X126978114Y-83710044D01*
X127015434Y-83672736D01*
X127030561Y-83657013D01*
X127065580Y-83619949D01*
X127100048Y-83582275D01*
X127133968Y-83543990D01*
X127167337Y-83505094D01*
X127199822Y-83466549D01*
X127234907Y-83424756D01*
X127268446Y-83384624D01*
X127289947Y-83358793D01*
X127289947Y-83909072D01*
X127415000Y-83909072D01*
X127415000Y-83216643D01*
X127263813Y-83216643D01*
X127230173Y-83257211D01*
X127196571Y-83297856D01*
X127163008Y-83338578D01*
X127144378Y-83361235D01*
X127110777Y-83401247D01*
X127077291Y-83439674D01*
X127043921Y-83476517D01*
X127025432Y-83496301D01*
X126988128Y-83535484D01*
X126953304Y-83570600D01*
X126914790Y-83607371D01*
X126874372Y-83642869D01*
X126834133Y-83673678D01*
X126829549Y-83676797D01*
X126782914Y-83702557D01*
X126733989Y-83718776D01*
X126682775Y-83725455D01*
X126672257Y-83725645D01*
X126623317Y-83719440D01*
X126578947Y-83698517D01*
X126551845Y-83673133D01*
X126525353Y-83627876D01*
X126511809Y-83576071D01*
X126508370Y-83526343D01*
X126511555Y-83473848D01*
X126520147Y-83422385D01*
X126527665Y-83391033D01*
X126543326Y-83341397D01*
X126563778Y-83292570D01*
X126586528Y-83248883D01*
X126586528Y-83242044D01*
X126445600Y-83242044D01*
X126425878Y-83291005D01*
X126411497Y-83338197D01*
X126402857Y-83372226D01*
X126392553Y-83422582D01*
X126386065Y-83471984D01*
X126383337Y-83525224D01*
X126383318Y-83530007D01*
X126272207Y-83530007D01*
X126272207Y-82557676D01*
X126383318Y-82557676D01*
X126383348Y-82558409D01*
X126385531Y-82611226D01*
X126392172Y-82661968D01*
X126403239Y-82709900D01*
X126418733Y-82755024D01*
X126441030Y-82802240D01*
X126468080Y-82845244D01*
X126499883Y-82884037D01*
X126519605Y-82903768D01*
X126560057Y-82936621D01*
X126605300Y-82964836D01*
X126649539Y-82986025D01*
X126685202Y-82999511D01*
X126735714Y-83014151D01*
X126789555Y-83024607D01*
X126839395Y-83030326D01*
X126891783Y-83032842D01*
X126907219Y-83032973D01*
X126963425Y-83031100D01*
X127016794Y-83025483D01*
X127067324Y-83016121D01*
X127115016Y-83003015D01*
X127168499Y-82982344D01*
X127217896Y-82956280D01*
X127262586Y-82925758D01*
X127301953Y-82891525D01*
X127335996Y-82853584D01*
X127364716Y-82811933D01*
X127388112Y-82766572D01*
X127394727Y-82750628D01*
X127447255Y-82757108D01*
X127493307Y-82774205D01*
X127513429Y-82787753D01*
X127542314Y-82828639D01*
X127554198Y-82880800D01*
X127555683Y-82912805D01*
X127548826Y-82963252D01*
X127544448Y-82979728D01*
X127528467Y-83026841D01*
X127524420Y-83035171D01*
X127524420Y-83053733D01*
X127659975Y-83053733D01*
X127670874Y-83005061D01*
X127675851Y-82972156D01*
X127680049Y-82921323D01*
X127680736Y-82890091D01*
X127677580Y-82840082D01*
X127666246Y-82788424D01*
X127646668Y-82742629D01*
X127614790Y-82698116D01*
X127573194Y-82662567D01*
X127528662Y-82639791D01*
X127477016Y-82625320D01*
X127425990Y-82619469D01*
X127429654Y-82587474D01*
X127430631Y-82557676D01*
X127428433Y-82504920D01*
X127421838Y-82454606D01*
X127410847Y-82406734D01*
X127395460Y-82361305D01*
X127373184Y-82313795D01*
X127345924Y-82270458D01*
X127313679Y-82231294D01*
X127293611Y-82211340D01*
X127253571Y-82178822D01*
X127208740Y-82150787D01*
X127159118Y-82127233D01*
X127129480Y-82116085D01*
X127079135Y-82101553D01*
X127025310Y-82091172D01*
X126975358Y-82085495D01*
X126922741Y-82082998D01*
X126907219Y-82082868D01*
X126854685Y-82084446D01*
X126804583Y-82089179D01*
X126750300Y-82098453D01*
X126699192Y-82111848D01*
X126686912Y-82115841D01*
X126639818Y-82134220D01*
X126596236Y-82156385D01*
X126551403Y-82185846D01*
X126519605Y-82212072D01*
X126484945Y-82248325D01*
X126455154Y-82289215D01*
X126430231Y-82334741D01*
X126418489Y-82362038D01*
X126401487Y-82413753D01*
X126391046Y-82461895D01*
X126385001Y-82512083D01*
X126383318Y-82557676D01*
X126272207Y-82557676D01*
X126272207Y-81971757D01*
X127791847Y-81971757D01*
X127791847Y-84020183D01*
G37*
D10*
G36*
X146353244Y-84958528D02*
G01*
X146215735Y-84958528D01*
X146166046Y-84956795D01*
X146115424Y-84950487D01*
X146103139Y-84948026D01*
X146056152Y-84931697D01*
X146021562Y-84908703D01*
X145989181Y-84871971D01*
X145975889Y-84846909D01*
X145963449Y-84798803D01*
X145960990Y-84758249D01*
X145967722Y-84708606D01*
X145976621Y-84685709D01*
X146007361Y-84646784D01*
X146027668Y-84632220D01*
X146073499Y-84612007D01*
X146097766Y-84606330D01*
X146147938Y-84600405D01*
X146193265Y-84599003D01*
X146353244Y-84599003D01*
X146353244Y-84958528D01*
G37*
G36*
X146600154Y-85601112D02*
G01*
X143849286Y-85601112D01*
X143849286Y-85364948D01*
X143960397Y-85364948D01*
X143960397Y-85490001D01*
X144652825Y-85490001D01*
X144652825Y-85364948D01*
X144850418Y-85364948D01*
X144850418Y-85490001D01*
X145542846Y-85490001D01*
X145642741Y-85490001D01*
X145819329Y-85490001D01*
X146161513Y-85083580D01*
X146353244Y-85083580D01*
X146353244Y-85490001D01*
X146489043Y-85490001D01*
X146489043Y-84473950D01*
X146202546Y-84473950D01*
X146152793Y-84474897D01*
X146103267Y-84478169D01*
X146051833Y-84485182D01*
X146047940Y-84485918D01*
X145999789Y-84498588D01*
X145952532Y-84519264D01*
X145936810Y-84528416D01*
X145895595Y-84559579D01*
X145862442Y-84596707D01*
X145849859Y-84615855D01*
X145829618Y-84663197D01*
X145820092Y-84715198D01*
X145818596Y-84749212D01*
X145819195Y-84758249D01*
X145822077Y-84801694D01*
X145832518Y-84849718D01*
X145852585Y-84898417D01*
X145874284Y-84932394D01*
X145908911Y-84971006D01*
X145950147Y-85003861D01*
X145997989Y-85030958D01*
X146027424Y-85043525D01*
X145642741Y-85490001D01*
X145542846Y-85490001D01*
X145542846Y-85338814D01*
X145502278Y-85305174D01*
X145461633Y-85271572D01*
X145420911Y-85238009D01*
X145398254Y-85219379D01*
X145358243Y-85185778D01*
X145319815Y-85152292D01*
X145282972Y-85118922D01*
X145263188Y-85100433D01*
X145224005Y-85063129D01*
X145188889Y-85028305D01*
X145152118Y-84989791D01*
X145116621Y-84949373D01*
X145085812Y-84909134D01*
X145082692Y-84904550D01*
X145056932Y-84857915D01*
X145040713Y-84808990D01*
X145034035Y-84757776D01*
X145033844Y-84747258D01*
X145040049Y-84698318D01*
X145060972Y-84653948D01*
X145086356Y-84626846D01*
X145131614Y-84600354D01*
X145183419Y-84586810D01*
X145233146Y-84583371D01*
X145285642Y-84586556D01*
X145337104Y-84595148D01*
X145368457Y-84602666D01*
X145418092Y-84618327D01*
X145466919Y-84638779D01*
X145510606Y-84661529D01*
X145517445Y-84661529D01*
X145517445Y-84520601D01*
X145468485Y-84500879D01*
X145421292Y-84486498D01*
X145387263Y-84477858D01*
X145336907Y-84467554D01*
X145287505Y-84461066D01*
X145234265Y-84458338D01*
X145229482Y-84458319D01*
X145172893Y-84460929D01*
X145121096Y-84468760D01*
X145066721Y-84484495D01*
X145018868Y-84507335D01*
X144983041Y-84532569D01*
X144948210Y-84567577D01*
X144918878Y-84613770D01*
X144900720Y-84666557D01*
X144893998Y-84718155D01*
X144893648Y-84733825D01*
X144896922Y-84785742D01*
X144906743Y-84834332D01*
X144908547Y-84840559D01*
X144926743Y-84888614D01*
X144952023Y-84934104D01*
X144981210Y-84975503D01*
X145012787Y-85013649D01*
X145015037Y-85016169D01*
X145049445Y-85053115D01*
X145086753Y-85090435D01*
X145102476Y-85105562D01*
X145139540Y-85140581D01*
X145177214Y-85175049D01*
X145215500Y-85208969D01*
X145254395Y-85242338D01*
X145292940Y-85274823D01*
X145334733Y-85309908D01*
X145374865Y-85343447D01*
X145400697Y-85364948D01*
X144850418Y-85364948D01*
X144652825Y-85364948D01*
X144652825Y-85338814D01*
X144612257Y-85305174D01*
X144571612Y-85271572D01*
X144530890Y-85238009D01*
X144508233Y-85219379D01*
X144468222Y-85185778D01*
X144429794Y-85152292D01*
X144392951Y-85118922D01*
X144373167Y-85100433D01*
X144333984Y-85063129D01*
X144298869Y-85028305D01*
X144262098Y-84989791D01*
X144226600Y-84949373D01*
X144195791Y-84909134D01*
X144192672Y-84904550D01*
X144166912Y-84857915D01*
X144150692Y-84808990D01*
X144144014Y-84757776D01*
X144143823Y-84747258D01*
X144150028Y-84698318D01*
X144170951Y-84653948D01*
X144196335Y-84626846D01*
X144241593Y-84600354D01*
X144293398Y-84586810D01*
X144343125Y-84583371D01*
X144395621Y-84586556D01*
X144447083Y-84595148D01*
X144478436Y-84602666D01*
X144528071Y-84618327D01*
X144576898Y-84638779D01*
X144620585Y-84661529D01*
X144627424Y-84661529D01*
X144627424Y-84520601D01*
X144578464Y-84500879D01*
X144531271Y-84486498D01*
X144497242Y-84477858D01*
X144446886Y-84467554D01*
X144397484Y-84461066D01*
X144344244Y-84458338D01*
X144339461Y-84458319D01*
X144282873Y-84460929D01*
X144231075Y-84468760D01*
X144176700Y-84484495D01*
X144128847Y-84507335D01*
X144093020Y-84532569D01*
X144058189Y-84567577D01*
X144028857Y-84613770D01*
X144010699Y-84666557D01*
X144003977Y-84718155D01*
X144003628Y-84733825D01*
X144006901Y-84785742D01*
X144016722Y-84834332D01*
X144018526Y-84840559D01*
X144036722Y-84888614D01*
X144062002Y-84934104D01*
X144091189Y-84975503D01*
X144122766Y-85013649D01*
X144125016Y-85016169D01*
X144159424Y-85053115D01*
X144196732Y-85090435D01*
X144212455Y-85105562D01*
X144249519Y-85140581D01*
X144287194Y-85175049D01*
X144325479Y-85208969D01*
X144364374Y-85242338D01*
X144402919Y-85274823D01*
X144444712Y-85309908D01*
X144484844Y-85343447D01*
X144510676Y-85364948D01*
X143960397Y-85364948D01*
X143849286Y-85364948D01*
X143849286Y-84347208D01*
X146600154Y-84347208D01*
X146600154Y-85601112D01*
G37*
D11*
G36*
X120965380Y-82226741D02*
G01*
X121019117Y-82233378D01*
X121068430Y-82244439D01*
X121121764Y-82263553D01*
X121168728Y-82289038D01*
X121202997Y-82315143D01*
X121237859Y-82351379D01*
X121265508Y-82391942D01*
X121285944Y-82436833D01*
X121299167Y-82486052D01*
X121305178Y-82539598D01*
X121305579Y-82558409D01*
X121301972Y-82613381D01*
X121291153Y-82663990D01*
X121273121Y-82710238D01*
X121247876Y-82752124D01*
X121215419Y-82789648D01*
X121202997Y-82801186D01*
X121161343Y-82831898D01*
X121113318Y-82856255D01*
X121058921Y-82874259D01*
X121008724Y-82884408D01*
X120954102Y-82890144D01*
X120907219Y-82891556D01*
X120849590Y-82889374D01*
X120796231Y-82882826D01*
X120747142Y-82871914D01*
X120693870Y-82853058D01*
X120646747Y-82827916D01*
X120612173Y-82802163D01*
X120576896Y-82766431D01*
X120548918Y-82726097D01*
X120528239Y-82681160D01*
X120514858Y-82631621D01*
X120508776Y-82577479D01*
X120508370Y-82558409D01*
X120512019Y-82502243D01*
X120522967Y-82450801D01*
X120541214Y-82404081D01*
X120566759Y-82362083D01*
X120599603Y-82324809D01*
X120612173Y-82313433D01*
X120654173Y-82283220D01*
X120702322Y-82259257D01*
X120756618Y-82241546D01*
X120806561Y-82231561D01*
X120860774Y-82225918D01*
X120907219Y-82224529D01*
X120965380Y-82226741D01*
G37*
G36*
X121791847Y-84005772D02*
G01*
X120272207Y-84005772D01*
X120272207Y-83538067D01*
X120383318Y-83538067D01*
X120384905Y-83587482D01*
X120390257Y-83636517D01*
X120396751Y-83669958D01*
X120411544Y-83717816D01*
X120434138Y-83764320D01*
X120439494Y-83773028D01*
X120470275Y-83811784D01*
X120508961Y-83843036D01*
X120517407Y-83848011D01*
X120563432Y-83866243D01*
X120612585Y-83873189D01*
X120623897Y-83873412D01*
X120673747Y-83867545D01*
X120719495Y-83849942D01*
X120761140Y-83820604D01*
X120768977Y-83813329D01*
X120803138Y-83773653D01*
X120828378Y-83729733D01*
X120844697Y-83681566D01*
X120846891Y-83671423D01*
X120856172Y-83671423D01*
X120868379Y-83718802D01*
X120878886Y-83746894D01*
X120901100Y-83790807D01*
X120922117Y-83819190D01*
X120959804Y-83852575D01*
X120995635Y-83873412D01*
X121042714Y-83888664D01*
X121092633Y-83894329D01*
X121109696Y-83894661D01*
X121160105Y-83891089D01*
X121211072Y-83879158D01*
X121236946Y-83869260D01*
X121281361Y-83845195D01*
X121320939Y-83814278D01*
X121337575Y-83797697D01*
X121369792Y-83756618D01*
X121395002Y-83710319D01*
X121407916Y-83676553D01*
X121420849Y-83627080D01*
X121428413Y-83574375D01*
X121430631Y-83523656D01*
X121428699Y-83470772D01*
X121422903Y-83418365D01*
X121413243Y-83366435D01*
X121410847Y-83356106D01*
X121398125Y-83307524D01*
X121383304Y-83260697D01*
X121367616Y-83220795D01*
X121227421Y-83220795D01*
X121227421Y-83231054D01*
X121251086Y-83277719D01*
X121269942Y-83325565D01*
X121283353Y-83368318D01*
X121295073Y-83417229D01*
X121302952Y-83469763D01*
X121305579Y-83520970D01*
X121301174Y-83571305D01*
X121291657Y-83612805D01*
X121272814Y-83659468D01*
X121249891Y-83691940D01*
X121212730Y-83723672D01*
X121184923Y-83738834D01*
X121136151Y-83751886D01*
X121095041Y-83754466D01*
X121046132Y-83750070D01*
X121006381Y-83736881D01*
X120966636Y-83708230D01*
X120950938Y-83688520D01*
X120929370Y-83642233D01*
X120922606Y-83613538D01*
X120916507Y-83564896D01*
X120914790Y-83518772D01*
X120914790Y-83456978D01*
X120805369Y-83456978D01*
X120805369Y-83505094D01*
X120802790Y-83554706D01*
X120793720Y-83604169D01*
X120775984Y-83651243D01*
X120764092Y-83671668D01*
X120727628Y-83709621D01*
X120680515Y-83730057D01*
X120643192Y-83733950D01*
X120593604Y-83724260D01*
X120581643Y-83718074D01*
X120545067Y-83684288D01*
X120538412Y-83674110D01*
X120518811Y-83627444D01*
X120514965Y-83610851D01*
X120509014Y-83560455D01*
X120508370Y-83534647D01*
X120511255Y-83484570D01*
X120519911Y-83432157D01*
X120528886Y-83395917D01*
X120544844Y-83346356D01*
X120564842Y-83298757D01*
X120586528Y-83257188D01*
X120586528Y-83250349D01*
X120446332Y-83250349D01*
X120426517Y-83299309D01*
X120411932Y-83346501D01*
X120403101Y-83380530D01*
X120392669Y-83430862D01*
X120386100Y-83480193D01*
X120383337Y-83533299D01*
X120383318Y-83538067D01*
X120272207Y-83538067D01*
X120272207Y-82557676D01*
X120383318Y-82557676D01*
X120383348Y-82558409D01*
X120385531Y-82611226D01*
X120392172Y-82661968D01*
X120403239Y-82709900D01*
X120418733Y-82755024D01*
X120441030Y-82802240D01*
X120468080Y-82845244D01*
X120499883Y-82884037D01*
X120519605Y-82903768D01*
X120560057Y-82936621D01*
X120605300Y-82964836D01*
X120649539Y-82986025D01*
X120685202Y-82999511D01*
X120735714Y-83014151D01*
X120789555Y-83024607D01*
X120839395Y-83030326D01*
X120891783Y-83032842D01*
X120907219Y-83032973D01*
X120963425Y-83031100D01*
X121016794Y-83025483D01*
X121067324Y-83016121D01*
X121115016Y-83003015D01*
X121168499Y-82982344D01*
X121217896Y-82956280D01*
X121262586Y-82925758D01*
X121301953Y-82891525D01*
X121335996Y-82853584D01*
X121364716Y-82811933D01*
X121388112Y-82766572D01*
X121394727Y-82750628D01*
X121447255Y-82757108D01*
X121493307Y-82774205D01*
X121513429Y-82787753D01*
X121542314Y-82828639D01*
X121554198Y-82880800D01*
X121555683Y-82912805D01*
X121548826Y-82963252D01*
X121544448Y-82979728D01*
X121528467Y-83026841D01*
X121524420Y-83035171D01*
X121524420Y-83053733D01*
X121659975Y-83053733D01*
X121670874Y-83005061D01*
X121675851Y-82972156D01*
X121680049Y-82921323D01*
X121680736Y-82890091D01*
X121677580Y-82840082D01*
X121666246Y-82788424D01*
X121646668Y-82742629D01*
X121614790Y-82698116D01*
X121573194Y-82662567D01*
X121528662Y-82639791D01*
X121477016Y-82625320D01*
X121425990Y-82619469D01*
X121429654Y-82587474D01*
X121430631Y-82557676D01*
X121428433Y-82504920D01*
X121421838Y-82454606D01*
X121410847Y-82406734D01*
X121395460Y-82361305D01*
X121373184Y-82313795D01*
X121345924Y-82270458D01*
X121313679Y-82231294D01*
X121293611Y-82211340D01*
X121253571Y-82178822D01*
X121208740Y-82150787D01*
X121159118Y-82127233D01*
X121129480Y-82116085D01*
X121079135Y-82101553D01*
X121025310Y-82091172D01*
X120975358Y-82085495D01*
X120922741Y-82082998D01*
X120907219Y-82082868D01*
X120854685Y-82084446D01*
X120804583Y-82089179D01*
X120750300Y-82098453D01*
X120699192Y-82111848D01*
X120686912Y-82115841D01*
X120639818Y-82134220D01*
X120596236Y-82156385D01*
X120551403Y-82185846D01*
X120519605Y-82212072D01*
X120484945Y-82248325D01*
X120455154Y-82289215D01*
X120430231Y-82334741D01*
X120418489Y-82362038D01*
X120401487Y-82413753D01*
X120391046Y-82461895D01*
X120385001Y-82512083D01*
X120383318Y-82557676D01*
X120272207Y-82557676D01*
X120272207Y-81971757D01*
X121791847Y-81971757D01*
X121791847Y-84005772D01*
G37*
D10*
G36*
X123483527Y-77034264D02*
G01*
X123481794Y-77083953D01*
X123475486Y-77134575D01*
X123473025Y-77146860D01*
X123456696Y-77193847D01*
X123433702Y-77228437D01*
X123396970Y-77260818D01*
X123371908Y-77274110D01*
X123323802Y-77286550D01*
X123283248Y-77289009D01*
X123233605Y-77282277D01*
X123210708Y-77273378D01*
X123171783Y-77242638D01*
X123157219Y-77222331D01*
X123137006Y-77176500D01*
X123131329Y-77152233D01*
X123125404Y-77102061D01*
X123124002Y-77056734D01*
X123124002Y-76896755D01*
X123483527Y-76896755D01*
X123483527Y-77034264D01*
G37*
G36*
X124141742Y-79392409D02*
G01*
X122872207Y-79392409D01*
X122872207Y-78658967D01*
X122983318Y-78658967D01*
X122983318Y-79274459D01*
X123108370Y-79274459D01*
X123108370Y-78791591D01*
X123379480Y-78791591D01*
X123376081Y-78840422D01*
X123375572Y-78851919D01*
X123374119Y-78901321D01*
X123374106Y-78905653D01*
X123375490Y-78955551D01*
X123380207Y-79005810D01*
X123388272Y-79051221D01*
X123403171Y-79100331D01*
X123425246Y-79146054D01*
X123437854Y-79166016D01*
X123469304Y-79203728D01*
X123510274Y-79236677D01*
X123535307Y-79251012D01*
X123584262Y-79269468D01*
X123636621Y-79278902D01*
X123684783Y-79281298D01*
X123737414Y-79277623D01*
X123788327Y-79266598D01*
X123821315Y-79255164D01*
X123867339Y-79232885D01*
X123910688Y-79202702D01*
X123931224Y-79183845D01*
X123964037Y-79144015D01*
X123990667Y-79098895D01*
X124004986Y-79065876D01*
X124019586Y-79016319D01*
X124027601Y-78966860D01*
X124030606Y-78913203D01*
X124030631Y-78907607D01*
X124028938Y-78855843D01*
X124023857Y-78805273D01*
X124015390Y-78755895D01*
X124013290Y-78746162D01*
X124000502Y-78695622D01*
X123984576Y-78647004D01*
X123971280Y-78615004D01*
X123827421Y-78615004D01*
X123827421Y-78624529D01*
X123850445Y-78669523D01*
X123869196Y-78715475D01*
X123882864Y-78756420D01*
X123895796Y-78808128D01*
X123903360Y-78859143D01*
X123905579Y-78904920D01*
X123901719Y-78955735D01*
X123891901Y-78999198D01*
X123871578Y-79044968D01*
X123844030Y-79080775D01*
X123804888Y-79111283D01*
X123773443Y-79126204D01*
X123726002Y-79138401D01*
X123678189Y-79141835D01*
X123629523Y-79137256D01*
X123589040Y-79123517D01*
X123547586Y-79093694D01*
X123530910Y-79073203D01*
X123506455Y-79028140D01*
X123494274Y-78986253D01*
X123486560Y-78935713D01*
X123483622Y-78883701D01*
X123483527Y-78871947D01*
X123485537Y-78819835D01*
X123491568Y-78769499D01*
X123494030Y-78755443D01*
X123503700Y-78706388D01*
X123514790Y-78658967D01*
X122983318Y-78658967D01*
X122872207Y-78658967D01*
X122872207Y-78025890D01*
X122998949Y-78025890D01*
X122998949Y-78132380D01*
X123905579Y-78132380D01*
X123905579Y-78341207D01*
X124015000Y-78341207D01*
X124015000Y-77787509D01*
X123905579Y-77787509D01*
X123905579Y-78000489D01*
X123233422Y-78000489D01*
X123233422Y-77787509D01*
X123139633Y-77787509D01*
X123137392Y-77838076D01*
X123132550Y-77880077D01*
X123122495Y-77928205D01*
X123111789Y-77955060D01*
X123081427Y-77994993D01*
X123069047Y-78004885D01*
X123022268Y-78023142D01*
X122998949Y-78025890D01*
X122872207Y-78025890D01*
X122872207Y-77047453D01*
X122998949Y-77047453D01*
X122999126Y-77056734D01*
X122999896Y-77097206D01*
X123003168Y-77146732D01*
X123010181Y-77198166D01*
X123010917Y-77202059D01*
X123023587Y-77250210D01*
X123044263Y-77297467D01*
X123053415Y-77313189D01*
X123084578Y-77354404D01*
X123121706Y-77387557D01*
X123140854Y-77400140D01*
X123188196Y-77420381D01*
X123240197Y-77429907D01*
X123274211Y-77431403D01*
X123326693Y-77427922D01*
X123374717Y-77417481D01*
X123423416Y-77397414D01*
X123457393Y-77375715D01*
X123496005Y-77341088D01*
X123528860Y-77299852D01*
X123555957Y-77252010D01*
X123568524Y-77222575D01*
X124015000Y-77607258D01*
X124015000Y-77430670D01*
X123608579Y-77088486D01*
X123608579Y-76896755D01*
X124015000Y-76896755D01*
X124015000Y-76760956D01*
X122998949Y-76760956D01*
X122998949Y-77047453D01*
X122872207Y-77047453D01*
X122872207Y-76649845D01*
X124141742Y-76649845D01*
X124141742Y-79392409D01*
G37*
G36*
X169910726Y-83791742D02*
G01*
X167097332Y-83791742D01*
X167097332Y-83539947D01*
X167208443Y-83539947D01*
X167208443Y-83665000D01*
X167900871Y-83665000D01*
X167900871Y-83555579D01*
X168156838Y-83555579D01*
X168156838Y-83665000D01*
X168710536Y-83665000D01*
X168710536Y-83555579D01*
X168497556Y-83555579D01*
X168497556Y-82883422D01*
X168710536Y-82883422D01*
X168710536Y-82789633D01*
X168659969Y-82787392D01*
X168617968Y-82782550D01*
X168569840Y-82772495D01*
X168542986Y-82761789D01*
X168503052Y-82731427D01*
X168496283Y-82722955D01*
X168951115Y-82722955D01*
X168951115Y-82883422D01*
X168961374Y-82883422D01*
X169003551Y-82852923D01*
X169045576Y-82826880D01*
X169092672Y-82802911D01*
X169129168Y-82788168D01*
X169176807Y-82773764D01*
X169226301Y-82764074D01*
X169277649Y-82759098D01*
X169306977Y-82758370D01*
X169358557Y-82761227D01*
X169410678Y-82770861D01*
X169446928Y-82782550D01*
X169491568Y-82804463D01*
X169532429Y-82833933D01*
X169557570Y-82857777D01*
X169590188Y-82898672D01*
X169614959Y-82942677D01*
X169631576Y-82983318D01*
X169645486Y-83033082D01*
X169653601Y-83081786D01*
X169657542Y-83134199D01*
X169657954Y-83158684D01*
X169656138Y-83208891D01*
X169649751Y-83261032D01*
X169637262Y-83313572D01*
X169628889Y-83337714D01*
X169606777Y-83385835D01*
X169580739Y-83427434D01*
X169553663Y-83459591D01*
X169515309Y-83492690D01*
X169472421Y-83518713D01*
X169441311Y-83532131D01*
X169392104Y-83546420D01*
X169340835Y-83554113D01*
X169305512Y-83555579D01*
X169251268Y-83553106D01*
X169198994Y-83545687D01*
X169148691Y-83533322D01*
X169121597Y-83524316D01*
X169074106Y-83504257D01*
X169028354Y-83479253D01*
X168984341Y-83449303D01*
X168960641Y-83430526D01*
X168951115Y-83430526D01*
X168951115Y-83588551D01*
X168997648Y-83609188D01*
X169019503Y-83619326D01*
X169065108Y-83637702D01*
X169099615Y-83649368D01*
X169148920Y-83662694D01*
X169190473Y-83671350D01*
X169242070Y-83678311D01*
X169291324Y-83680595D01*
X169298673Y-83680631D01*
X169353093Y-83678708D01*
X169404980Y-83672937D01*
X169454332Y-83663320D01*
X169501150Y-83649856D01*
X169550403Y-83629665D01*
X169595947Y-83603986D01*
X169637781Y-83572821D01*
X169659420Y-83553136D01*
X169694234Y-83514103D01*
X169724489Y-83469545D01*
X169747555Y-83425299D01*
X169762490Y-83389249D01*
X169778732Y-83337424D01*
X169789137Y-83288796D01*
X169795990Y-83237106D01*
X169799289Y-83182354D01*
X169799615Y-83157951D01*
X169797909Y-83104610D01*
X169792790Y-83053793D01*
X169784258Y-83005501D01*
X169770328Y-82953401D01*
X169763956Y-82934713D01*
X169744050Y-82887407D01*
X169720236Y-82843916D01*
X169688775Y-82799551D01*
X169660885Y-82768384D01*
X169622058Y-82733782D01*
X169578943Y-82704164D01*
X169531538Y-82679531D01*
X169503348Y-82668000D01*
X169455813Y-82652827D01*
X169405773Y-82641988D01*
X169353231Y-82635485D01*
X169298184Y-82633318D01*
X169246636Y-82635250D01*
X169195183Y-82641046D01*
X169143825Y-82650706D01*
X169133565Y-82653101D01*
X169085954Y-82666625D01*
X169035445Y-82684941D01*
X168988115Y-82705243D01*
X168951115Y-82722955D01*
X168496283Y-82722955D01*
X168493160Y-82719047D01*
X168474903Y-82672268D01*
X168472155Y-82648949D01*
X168365665Y-82648949D01*
X168365665Y-83555579D01*
X168156838Y-83555579D01*
X167900871Y-83555579D01*
X167900871Y-83513813D01*
X167860303Y-83480173D01*
X167819659Y-83446571D01*
X167778936Y-83413008D01*
X167756279Y-83394378D01*
X167716268Y-83360777D01*
X167677840Y-83327291D01*
X167640997Y-83293921D01*
X167621213Y-83275432D01*
X167582030Y-83238128D01*
X167546915Y-83203304D01*
X167510144Y-83164790D01*
X167474646Y-83124372D01*
X167443837Y-83084133D01*
X167440718Y-83079549D01*
X167414958Y-83032914D01*
X167398738Y-82983989D01*
X167392060Y-82932775D01*
X167391869Y-82922257D01*
X167398074Y-82873317D01*
X167418997Y-82828947D01*
X167444381Y-82801845D01*
X167489639Y-82775353D01*
X167541444Y-82761809D01*
X167591171Y-82758370D01*
X167643667Y-82761555D01*
X167695129Y-82770147D01*
X167726482Y-82777665D01*
X167776117Y-82793326D01*
X167824944Y-82813778D01*
X167868631Y-82836528D01*
X167875470Y-82836528D01*
X167875470Y-82695600D01*
X167826510Y-82675878D01*
X167779317Y-82661497D01*
X167745288Y-82652857D01*
X167694932Y-82642553D01*
X167645531Y-82636065D01*
X167592290Y-82633337D01*
X167587508Y-82633318D01*
X167530919Y-82635928D01*
X167479121Y-82643759D01*
X167424746Y-82659494D01*
X167376893Y-82682334D01*
X167341067Y-82707568D01*
X167306235Y-82742576D01*
X167276903Y-82788769D01*
X167258745Y-82841556D01*
X167252023Y-82893154D01*
X167251674Y-82908824D01*
X167254947Y-82960741D01*
X167264768Y-83009331D01*
X167266572Y-83015558D01*
X167284769Y-83063613D01*
X167310048Y-83109103D01*
X167339235Y-83150502D01*
X167370812Y-83188648D01*
X167373062Y-83191168D01*
X167407470Y-83228114D01*
X167444778Y-83265434D01*
X167460501Y-83280561D01*
X167497565Y-83315580D01*
X167535240Y-83350048D01*
X167573525Y-83383968D01*
X167612420Y-83417337D01*
X167650965Y-83449822D01*
X167692758Y-83484907D01*
X167732890Y-83518446D01*
X167758722Y-83539947D01*
X167208443Y-83539947D01*
X167097332Y-83539947D01*
X167097332Y-82522207D01*
X169910726Y-82522207D01*
X169910726Y-83791742D01*
G37*
G36*
X129183527Y-77479274D02*
G01*
X129181794Y-77528963D01*
X129175486Y-77579585D01*
X129173025Y-77591870D01*
X129156696Y-77638857D01*
X129133702Y-77673447D01*
X129096970Y-77705828D01*
X129071908Y-77719120D01*
X129023802Y-77731560D01*
X128983248Y-77734019D01*
X128933605Y-77727287D01*
X128910708Y-77718388D01*
X128871783Y-77687648D01*
X128857219Y-77667341D01*
X128837006Y-77621510D01*
X128831329Y-77597243D01*
X128825404Y-77547071D01*
X128824002Y-77501744D01*
X128824002Y-77341765D01*
X129183527Y-77341765D01*
X129183527Y-77479274D01*
G37*
G36*
X129826111Y-78958389D02*
G01*
X128587838Y-78958389D01*
X128587838Y-78847278D01*
X128698949Y-78847278D01*
X128855265Y-78847278D01*
X129715000Y-78384438D01*
X129715000Y-78237404D01*
X128824002Y-78729797D01*
X128824002Y-78147278D01*
X128698949Y-78147278D01*
X128698949Y-78847278D01*
X128587838Y-78847278D01*
X128587838Y-77492463D01*
X128698949Y-77492463D01*
X128699126Y-77501744D01*
X128699896Y-77542216D01*
X128703168Y-77591742D01*
X128710181Y-77643176D01*
X128710917Y-77647069D01*
X128723587Y-77695220D01*
X128744263Y-77742477D01*
X128753415Y-77758199D01*
X128784578Y-77799414D01*
X128821706Y-77832567D01*
X128840854Y-77845150D01*
X128888196Y-77865391D01*
X128940197Y-77874917D01*
X128974211Y-77876413D01*
X129026693Y-77872932D01*
X129074717Y-77862491D01*
X129123416Y-77842424D01*
X129157393Y-77820725D01*
X129196005Y-77786098D01*
X129228860Y-77744862D01*
X129255957Y-77697020D01*
X129268524Y-77667585D01*
X129715000Y-78052268D01*
X129715000Y-77875680D01*
X129308579Y-77533496D01*
X129308579Y-77341765D01*
X129715000Y-77341765D01*
X129715000Y-77205966D01*
X128698949Y-77205966D01*
X128698949Y-77492463D01*
X128587838Y-77492463D01*
X128587838Y-77094855D01*
X129826111Y-77094855D01*
X129826111Y-78958389D01*
G37*
G36*
X165541506Y-87525673D02*
G01*
X165592883Y-87530556D01*
X165641493Y-87540107D01*
X165662452Y-87546510D01*
X165709457Y-87567508D01*
X165750249Y-87596252D01*
X165762348Y-87608059D01*
X165792833Y-87647486D01*
X165807044Y-87676447D01*
X165819218Y-87725028D01*
X165821210Y-87756558D01*
X165816361Y-87809231D01*
X165799598Y-87859826D01*
X165770861Y-87902072D01*
X165759905Y-87913118D01*
X165716366Y-87943257D01*
X165668249Y-87960838D01*
X165618373Y-87968876D01*
X165583806Y-87970271D01*
X165531807Y-87966624D01*
X165482684Y-87953527D01*
X165477316Y-87951220D01*
X165435523Y-87924345D01*
X165403799Y-87889182D01*
X165381470Y-87844778D01*
X165374979Y-87819085D01*
X165368892Y-87769721D01*
X165367896Y-87738729D01*
X165370560Y-87689241D01*
X165379329Y-87639746D01*
X165381817Y-87630285D01*
X165398021Y-87582700D01*
X165419245Y-87537126D01*
X165424560Y-87527214D01*
X165454113Y-87525016D01*
X165489773Y-87524283D01*
X165541506Y-87525673D01*
G37*
G36*
X165383527Y-86729273D02*
G01*
X165381794Y-86778962D01*
X165375486Y-86829584D01*
X165373025Y-86841869D01*
X165356696Y-86888856D01*
X165333702Y-86923446D01*
X165296970Y-86955827D01*
X165271908Y-86969119D01*
X165223802Y-86981559D01*
X165183248Y-86984018D01*
X165133605Y-86977286D01*
X165110708Y-86968387D01*
X165071783Y-86937647D01*
X165057219Y-86917340D01*
X165037006Y-86871509D01*
X165031329Y-86847242D01*
X165025404Y-86797070D01*
X165024002Y-86751743D01*
X165024002Y-86591764D01*
X165383527Y-86591764D01*
X165383527Y-86729273D01*
G37*
G36*
X166041742Y-88220845D02*
G01*
X164772207Y-88220845D01*
X164772207Y-87886496D01*
X164883318Y-87886496D01*
X164885049Y-87936010D01*
X164886981Y-87954395D01*
X164897881Y-88003068D01*
X164900170Y-88010082D01*
X165039633Y-88010082D01*
X165039633Y-88003244D01*
X165021543Y-87956773D01*
X165018384Y-87945114D01*
X165009778Y-87895903D01*
X165008370Y-87865735D01*
X165011418Y-87812509D01*
X165020563Y-87763474D01*
X165038937Y-87711561D01*
X165065610Y-87665353D01*
X165095076Y-87630285D01*
X165135932Y-87595334D01*
X165182632Y-87567420D01*
X165235175Y-87546541D01*
X165284863Y-87534245D01*
X165329549Y-87527947D01*
X165305724Y-87570938D01*
X165285262Y-87616968D01*
X165276549Y-87641520D01*
X165264847Y-87690025D01*
X165259467Y-87738729D01*
X165259340Y-87739879D01*
X165258475Y-87771213D01*
X165260450Y-87821619D01*
X165266995Y-87870131D01*
X165270443Y-87886007D01*
X165287029Y-87933255D01*
X165312194Y-87978322D01*
X165318803Y-87988101D01*
X165350114Y-88026194D01*
X165390197Y-88059654D01*
X165424316Y-88079203D01*
X165471235Y-88096585D01*
X165519550Y-88106126D01*
X165573254Y-88109704D01*
X165578921Y-88109734D01*
X165635164Y-88106119D01*
X165687388Y-88095274D01*
X165735594Y-88077199D01*
X165779781Y-88051894D01*
X165819949Y-88019359D01*
X165832445Y-88006907D01*
X165865813Y-87966799D01*
X165892277Y-87923411D01*
X165911838Y-87876742D01*
X165924494Y-87826793D01*
X165930248Y-87773565D01*
X165930631Y-87755093D01*
X165927918Y-87704823D01*
X165918770Y-87653669D01*
X165907672Y-87617828D01*
X165885310Y-87570000D01*
X165855530Y-87526927D01*
X165839284Y-87508652D01*
X165800620Y-87474358D01*
X165754849Y-87445359D01*
X165707577Y-87423787D01*
X165690540Y-87417549D01*
X165641783Y-87403551D01*
X165588325Y-87393552D01*
X165537692Y-87388084D01*
X165483459Y-87385678D01*
X165467302Y-87385553D01*
X165418092Y-87386575D01*
X165363393Y-87390350D01*
X165311617Y-87396907D01*
X165262762Y-87406245D01*
X165229654Y-87414618D01*
X165179325Y-87431441D01*
X165131896Y-87452598D01*
X165087367Y-87478091D01*
X165045739Y-87507919D01*
X165005384Y-87544636D01*
X164970323Y-87586916D01*
X164943601Y-87629170D01*
X164926304Y-87663746D01*
X164907498Y-87713480D01*
X164894064Y-87767183D01*
X164886718Y-87817429D01*
X164883486Y-87870713D01*
X164883318Y-87886496D01*
X164772207Y-87886496D01*
X164772207Y-86742462D01*
X164898949Y-86742462D01*
X164899126Y-86751743D01*
X164899896Y-86792215D01*
X164903168Y-86841741D01*
X164910181Y-86893175D01*
X164910917Y-86897068D01*
X164923587Y-86945219D01*
X164944263Y-86992476D01*
X164953415Y-87008198D01*
X164984578Y-87049413D01*
X165021706Y-87082566D01*
X165040854Y-87095149D01*
X165088196Y-87115390D01*
X165140197Y-87124916D01*
X165174211Y-87126412D01*
X165226693Y-87122931D01*
X165274717Y-87112490D01*
X165323416Y-87092423D01*
X165357393Y-87070724D01*
X165396005Y-87036097D01*
X165428860Y-86994861D01*
X165455957Y-86947019D01*
X165468524Y-86917584D01*
X165915000Y-87302267D01*
X165915000Y-87125679D01*
X165508579Y-86783495D01*
X165508579Y-86591764D01*
X165915000Y-86591764D01*
X165915000Y-86455965D01*
X164898949Y-86455965D01*
X164898949Y-86742462D01*
X164772207Y-86742462D01*
X164772207Y-86344854D01*
X166041742Y-86344854D01*
X166041742Y-88220845D01*
G37*
G36*
X116351334Y-89905101D02*
G01*
X116387478Y-89941246D01*
X116426190Y-90018669D01*
X116426190Y-90090300D01*
X116387478Y-90167723D01*
X116351334Y-90203868D01*
X116273911Y-90242580D01*
X116002381Y-90242580D01*
X116002381Y-89866390D01*
X116273911Y-89866390D01*
X116351334Y-89905101D01*
G37*
G36*
X116398953Y-89381292D02*
G01*
X116435097Y-89417437D01*
X116473809Y-89494860D01*
X116473809Y-89614110D01*
X116435097Y-89691533D01*
X116401562Y-89725069D01*
X116277601Y-89766390D01*
X116002381Y-89766390D01*
X116002381Y-89342580D01*
X116321530Y-89342580D01*
X116398953Y-89381292D01*
G37*
G36*
X117142857Y-90134466D02*
G01*
X116974133Y-89628295D01*
X117311581Y-89628295D01*
X117142857Y-90134466D01*
G37*
G36*
X119256349Y-90453691D02*
G01*
X115791270Y-90453691D01*
X115791270Y-89292580D01*
X115902381Y-89292580D01*
X115902381Y-90292580D01*
X115906187Y-90311714D01*
X115933247Y-90338774D01*
X115952381Y-90342580D01*
X116285714Y-90342580D01*
X116288170Y-90342091D01*
X116289259Y-90342454D01*
X116296986Y-90340337D01*
X116304848Y-90338774D01*
X116305659Y-90337962D01*
X116308075Y-90337301D01*
X116403312Y-90289683D01*
X116409645Y-90284767D01*
X116416307Y-90280316D01*
X116463926Y-90232698D01*
X116468380Y-90226031D01*
X116473292Y-90219703D01*
X116520911Y-90124465D01*
X116521572Y-90122049D01*
X116522384Y-90121238D01*
X116523947Y-90113376D01*
X116526064Y-90105649D01*
X116525701Y-90104560D01*
X116526190Y-90102104D01*
X116526190Y-90006866D01*
X116525701Y-90004409D01*
X116526064Y-90003321D01*
X116523947Y-89995593D01*
X116522384Y-89987732D01*
X116521572Y-89986920D01*
X116520911Y-89984505D01*
X116473292Y-89889267D01*
X116468380Y-89882938D01*
X116463926Y-89876272D01*
X116416307Y-89828654D01*
X116413221Y-89826591D01*
X116444382Y-89816205D01*
X116446557Y-89814965D01*
X116447705Y-89814965D01*
X116454369Y-89810511D01*
X116461330Y-89806544D01*
X116461843Y-89805517D01*
X116463926Y-89804126D01*
X116511545Y-89756508D01*
X116515999Y-89749841D01*
X116520911Y-89743513D01*
X116568530Y-89648275D01*
X116569191Y-89645859D01*
X116570003Y-89645048D01*
X116571566Y-89637186D01*
X116573683Y-89629459D01*
X116573320Y-89628370D01*
X116573809Y-89625914D01*
X116573809Y-89483057D01*
X116573320Y-89480600D01*
X116573683Y-89479512D01*
X116571566Y-89471784D01*
X116570003Y-89463923D01*
X116569191Y-89463111D01*
X116568530Y-89460696D01*
X116520911Y-89365458D01*
X116515999Y-89359129D01*
X116511545Y-89352463D01*
X116463926Y-89304845D01*
X116457266Y-89300394D01*
X116450932Y-89295479D01*
X116438046Y-89289036D01*
X116759650Y-89289036D01*
X116762090Y-89308391D01*
X117095423Y-90308391D01*
X117105084Y-90325339D01*
X117108425Y-90327009D01*
X117110097Y-90330353D01*
X117125139Y-90335366D01*
X117139313Y-90342454D01*
X117142856Y-90341272D01*
X117146401Y-90342454D01*
X117160580Y-90335364D01*
X117175617Y-90330352D01*
X117177287Y-90327011D01*
X117180630Y-90325340D01*
X117190291Y-90308391D01*
X117201939Y-90273446D01*
X117620473Y-90273446D01*
X117620473Y-90311714D01*
X117647533Y-90338774D01*
X117666667Y-90342580D01*
X118238095Y-90342580D01*
X118257229Y-90338774D01*
X118284289Y-90311714D01*
X118284289Y-90273446D01*
X118257229Y-90246386D01*
X118238095Y-90242580D01*
X118002381Y-90242580D01*
X118002381Y-89292580D01*
X117998575Y-89273446D01*
X118429997Y-89273446D01*
X118429997Y-89311714D01*
X118440836Y-89327935D01*
X119003917Y-89891017D01*
X119045238Y-90014979D01*
X119045238Y-90090300D01*
X119006526Y-90167723D01*
X118970382Y-90203868D01*
X118892959Y-90242580D01*
X118678471Y-90242580D01*
X118601047Y-90203868D01*
X118559165Y-90161987D01*
X118542944Y-90151148D01*
X118504676Y-90151148D01*
X118477616Y-90178208D01*
X118477616Y-90216476D01*
X118488455Y-90232697D01*
X118536073Y-90280316D01*
X118542739Y-90284770D01*
X118549068Y-90289682D01*
X118644306Y-90337301D01*
X118646721Y-90337962D01*
X118647533Y-90338774D01*
X118655394Y-90340337D01*
X118663122Y-90342454D01*
X118664210Y-90342091D01*
X118666667Y-90342580D01*
X118904762Y-90342580D01*
X118907218Y-90342091D01*
X118908307Y-90342454D01*
X118916034Y-90340337D01*
X118923896Y-90338774D01*
X118924707Y-90337962D01*
X118927123Y-90337301D01*
X119022360Y-90289683D01*
X119028693Y-90284767D01*
X119035355Y-90280316D01*
X119082974Y-90232698D01*
X119087428Y-90226031D01*
X119092340Y-90219703D01*
X119139959Y-90124465D01*
X119140620Y-90122049D01*
X119141432Y-90121238D01*
X119142995Y-90113376D01*
X119145112Y-90105649D01*
X119144749Y-90104560D01*
X119145238Y-90102104D01*
X119145238Y-90006866D01*
X119143674Y-89999004D01*
X119142672Y-89991054D01*
X119095053Y-89848198D01*
X119093813Y-89846022D01*
X119093813Y-89844875D01*
X119089362Y-89838214D01*
X119085392Y-89831249D01*
X119084364Y-89830735D01*
X119082974Y-89828654D01*
X118596901Y-89342580D01*
X119095238Y-89342580D01*
X119114372Y-89338774D01*
X119141432Y-89311714D01*
X119141432Y-89273446D01*
X119114372Y-89246386D01*
X119095238Y-89242580D01*
X118476191Y-89242580D01*
X118457057Y-89246386D01*
X118429997Y-89273446D01*
X117998575Y-89273446D01*
X117971515Y-89246386D01*
X117933247Y-89246386D01*
X117906187Y-89273446D01*
X117902381Y-89292580D01*
X117902381Y-90242580D01*
X117666667Y-90242580D01*
X117647533Y-90246386D01*
X117620473Y-90273446D01*
X117201939Y-90273446D01*
X117523624Y-89308392D01*
X117526064Y-89289036D01*
X117508950Y-89254808D01*
X117472646Y-89242706D01*
X117438417Y-89259821D01*
X117428756Y-89276769D01*
X117344914Y-89528295D01*
X116940800Y-89528295D01*
X116856958Y-89276769D01*
X116847297Y-89259820D01*
X116813068Y-89242706D01*
X116776764Y-89254807D01*
X116759650Y-89289036D01*
X116438046Y-89289036D01*
X116355694Y-89247859D01*
X116353278Y-89247197D01*
X116352467Y-89246386D01*
X116344605Y-89244822D01*
X116336878Y-89242706D01*
X116335789Y-89243068D01*
X116333333Y-89242580D01*
X115952381Y-89242580D01*
X115933247Y-89246386D01*
X115906187Y-89273446D01*
X115902381Y-89292580D01*
X115791270Y-89292580D01*
X115791270Y-89131469D01*
X119256349Y-89131469D01*
X119256349Y-90453691D01*
G37*
G36*
X117654947Y-94319051D02*
G01*
X117653846Y-94372291D01*
X117650542Y-94421550D01*
X117644288Y-94471615D01*
X117641025Y-94490266D01*
X117628487Y-94539226D01*
X117610349Y-94585359D01*
X117589002Y-94624843D01*
X117559992Y-94664694D01*
X117522229Y-94701903D01*
X117478647Y-94731670D01*
X117464438Y-94739149D01*
X117417834Y-94757567D01*
X117365124Y-94769958D01*
X117313146Y-94775911D01*
X117270997Y-94777251D01*
X117221685Y-94775241D01*
X117169650Y-94768020D01*
X117122225Y-94755549D01*
X117074382Y-94735241D01*
X117032024Y-94708483D01*
X116995075Y-94675195D01*
X116963537Y-94635376D01*
X116948353Y-94610433D01*
X116926142Y-94563939D01*
X116909701Y-94515316D01*
X116901946Y-94481717D01*
X116894576Y-94431861D01*
X116890531Y-94381028D01*
X116889052Y-94330792D01*
X116889002Y-94319051D01*
X116889002Y-94191312D01*
X117654947Y-94191312D01*
X117654947Y-94319051D01*
G37*
G36*
X117906742Y-97004482D02*
G01*
X116637207Y-97004482D01*
X116637207Y-96893371D01*
X116763949Y-96893371D01*
X116889002Y-96893371D01*
X116889002Y-96355304D01*
X117154738Y-96355304D01*
X117154738Y-96893371D01*
X117279790Y-96893371D01*
X117279790Y-96355304D01*
X117654947Y-96355304D01*
X117654947Y-96893371D01*
X117780000Y-96893371D01*
X117780000Y-96219505D01*
X116763949Y-96219505D01*
X116763949Y-96893371D01*
X116637207Y-96893371D01*
X116637207Y-95612073D01*
X116748318Y-95612073D01*
X116749960Y-95661429D01*
X116754887Y-95711403D01*
X116763098Y-95761996D01*
X116769078Y-95790370D01*
X116782918Y-95842717D01*
X116799080Y-95891096D01*
X116818875Y-95941215D01*
X116839176Y-95986497D01*
X116998422Y-95986497D01*
X116998422Y-95974041D01*
X116970716Y-95931314D01*
X116959099Y-95912247D01*
X116934172Y-95867099D01*
X116918311Y-95832624D01*
X116901670Y-95785412D01*
X116888754Y-95736311D01*
X116886315Y-95725157D01*
X116877934Y-95673679D01*
X116873989Y-95621438D01*
X116873370Y-95588870D01*
X116875964Y-95536896D01*
X116883746Y-95488439D01*
X116899931Y-95434936D01*
X116923588Y-95386498D01*
X116954714Y-95343127D01*
X116979616Y-95317028D01*
X117022094Y-95283079D01*
X117069844Y-95256154D01*
X117122867Y-95236253D01*
X117171080Y-95225034D01*
X117222954Y-95218693D01*
X117267090Y-95217132D01*
X117324778Y-95219678D01*
X117378315Y-95227317D01*
X117427703Y-95240048D01*
X117481490Y-95262047D01*
X117529300Y-95291379D01*
X117564577Y-95321424D01*
X117600601Y-95363278D01*
X117629172Y-95410439D01*
X117650289Y-95462906D01*
X117662194Y-95510683D01*
X117668922Y-95562144D01*
X117670579Y-95605967D01*
X117668861Y-95655243D01*
X117663709Y-95704519D01*
X117658367Y-95737370D01*
X117647077Y-95788051D01*
X117632304Y-95836591D01*
X117626371Y-95852408D01*
X117389211Y-95852408D01*
X117389211Y-95578367D01*
X117264159Y-95578367D01*
X117264159Y-95987230D01*
X117700621Y-95987230D01*
X117721398Y-95938870D01*
X117740591Y-95888037D01*
X117756322Y-95840776D01*
X117767299Y-95804048D01*
X117779694Y-95754863D01*
X117788548Y-95706473D01*
X117794275Y-95652982D01*
X117795631Y-95612073D01*
X117794077Y-95560767D01*
X117789413Y-95511354D01*
X117780277Y-95457201D01*
X117767080Y-95405521D01*
X117763147Y-95392987D01*
X117744859Y-95345009D01*
X117722480Y-95300724D01*
X117692414Y-95255320D01*
X117665450Y-95223238D01*
X117625884Y-95185946D01*
X117586336Y-95157080D01*
X117542666Y-95132244D01*
X117501074Y-95113818D01*
X117449646Y-95097041D01*
X117401215Y-95086294D01*
X117349582Y-95079216D01*
X117294746Y-95075808D01*
X117270265Y-95075471D01*
X117211349Y-95077708D01*
X117155623Y-95084417D01*
X117103088Y-95095599D01*
X117053743Y-95111253D01*
X117007589Y-95131380D01*
X116964625Y-95155980D01*
X116924852Y-95185053D01*
X116888269Y-95218598D01*
X116855468Y-95256108D01*
X116827040Y-95296954D01*
X116802986Y-95341135D01*
X116783306Y-95388652D01*
X116767998Y-95439504D01*
X116757065Y-95493692D01*
X116750504Y-95551215D01*
X116748318Y-95612073D01*
X116637207Y-95612073D01*
X116637207Y-94310991D01*
X116763949Y-94310991D01*
X116764062Y-94319051D01*
X116764705Y-94364973D01*
X116766972Y-94414627D01*
X116771527Y-94467086D01*
X116779251Y-94519828D01*
X116785443Y-94548884D01*
X116798808Y-94596454D01*
X116816649Y-94644234D01*
X116839911Y-94690621D01*
X116844549Y-94698360D01*
X116874935Y-94741886D01*
X116909458Y-94780994D01*
X116948118Y-94815684D01*
X116990916Y-94845956D01*
X117017229Y-94861270D01*
X117066281Y-94884016D01*
X117119190Y-94901175D01*
X117167610Y-94911436D01*
X117218864Y-94917592D01*
X117272951Y-94919644D01*
X117323973Y-94917506D01*
X117373175Y-94911092D01*
X117428276Y-94898204D01*
X117480899Y-94879496D01*
X117524033Y-94858828D01*
X117570886Y-94830304D01*
X117612924Y-94797947D01*
X117650147Y-94761756D01*
X117682554Y-94721731D01*
X117698911Y-94697139D01*
X117723440Y-94651754D01*
X117743294Y-94603220D01*
X117758474Y-94551538D01*
X117760949Y-94540824D01*
X117770158Y-94487999D01*
X117775814Y-94433777D01*
X117778809Y-94380723D01*
X117779925Y-94331080D01*
X117780000Y-94313678D01*
X117780000Y-94055513D01*
X116763949Y-94055513D01*
X116763949Y-94310991D01*
X116637207Y-94310991D01*
X116637207Y-93844243D01*
X116763949Y-93844243D01*
X116889002Y-93844243D01*
X116889002Y-93306176D01*
X117154738Y-93306176D01*
X117154738Y-93844243D01*
X117279790Y-93844243D01*
X117279790Y-93306176D01*
X117654947Y-93306176D01*
X117654947Y-93844243D01*
X117780000Y-93844243D01*
X117780000Y-93170377D01*
X116763949Y-93170377D01*
X116763949Y-93844243D01*
X116637207Y-93844243D01*
X116637207Y-93059266D01*
X117906742Y-93059266D01*
X117906742Y-97004482D01*
G37*
D11*
G36*
X154024211Y-83648709D02*
G01*
X153562348Y-83648709D01*
X154024211Y-83252303D01*
X154024211Y-83648709D01*
G37*
G36*
X153965380Y-82226741D02*
G01*
X154019117Y-82233378D01*
X154068430Y-82244439D01*
X154121764Y-82263553D01*
X154168728Y-82289038D01*
X154202997Y-82315143D01*
X154237859Y-82351379D01*
X154265508Y-82391942D01*
X154285944Y-82436833D01*
X154299167Y-82486052D01*
X154305178Y-82539598D01*
X154305579Y-82558409D01*
X154301972Y-82613381D01*
X154291153Y-82663990D01*
X154273121Y-82710238D01*
X154247876Y-82752124D01*
X154215419Y-82789648D01*
X154202997Y-82801186D01*
X154161343Y-82831898D01*
X154113318Y-82856255D01*
X154058921Y-82874259D01*
X154008724Y-82884408D01*
X153954102Y-82890144D01*
X153907219Y-82891556D01*
X153849590Y-82889374D01*
X153796231Y-82882826D01*
X153747142Y-82871914D01*
X153693870Y-82853058D01*
X153646747Y-82827916D01*
X153612173Y-82802163D01*
X153576896Y-82766431D01*
X153548918Y-82726097D01*
X153528239Y-82681160D01*
X153514858Y-82631621D01*
X153508776Y-82577479D01*
X153508370Y-82558409D01*
X153512019Y-82502243D01*
X153522967Y-82450801D01*
X153541214Y-82404081D01*
X153566759Y-82362083D01*
X153599603Y-82324809D01*
X153612173Y-82313433D01*
X153654173Y-82283220D01*
X153702322Y-82259257D01*
X153756618Y-82241546D01*
X153806561Y-82231561D01*
X153860774Y-82225918D01*
X153907219Y-82224529D01*
X153965380Y-82226741D01*
G37*
G36*
X154791847Y-84043386D02*
G01*
X153272207Y-84043386D01*
X153272207Y-83654082D01*
X153398949Y-83654082D01*
X153398949Y-83780600D01*
X154024211Y-83780600D01*
X154024211Y-83932275D01*
X154133632Y-83932275D01*
X154133632Y-83780600D01*
X154415000Y-83780600D01*
X154415000Y-83648709D01*
X154133632Y-83648709D01*
X154133632Y-83159002D01*
X153975607Y-83159002D01*
X153405207Y-83648709D01*
X153398949Y-83654082D01*
X153272207Y-83654082D01*
X153272207Y-82557676D01*
X153383318Y-82557676D01*
X153383348Y-82558409D01*
X153385531Y-82611226D01*
X153392172Y-82661968D01*
X153403239Y-82709900D01*
X153418733Y-82755024D01*
X153441030Y-82802240D01*
X153468080Y-82845244D01*
X153499883Y-82884037D01*
X153519605Y-82903768D01*
X153560057Y-82936621D01*
X153605300Y-82964836D01*
X153649539Y-82986025D01*
X153685202Y-82999511D01*
X153735714Y-83014151D01*
X153789555Y-83024607D01*
X153839395Y-83030326D01*
X153891783Y-83032842D01*
X153907219Y-83032973D01*
X153963425Y-83031100D01*
X154016794Y-83025483D01*
X154067324Y-83016121D01*
X154115016Y-83003015D01*
X154168499Y-82982344D01*
X154217896Y-82956280D01*
X154262586Y-82925758D01*
X154301953Y-82891525D01*
X154335996Y-82853584D01*
X154364716Y-82811933D01*
X154388112Y-82766572D01*
X154394727Y-82750628D01*
X154447255Y-82757108D01*
X154493307Y-82774205D01*
X154513429Y-82787753D01*
X154542314Y-82828639D01*
X154554198Y-82880800D01*
X154555683Y-82912805D01*
X154548826Y-82963252D01*
X154544448Y-82979728D01*
X154528467Y-83026841D01*
X154524420Y-83035171D01*
X154524420Y-83053733D01*
X154659975Y-83053733D01*
X154670874Y-83005061D01*
X154675851Y-82972156D01*
X154680049Y-82921323D01*
X154680736Y-82890091D01*
X154677580Y-82840082D01*
X154666246Y-82788424D01*
X154646668Y-82742629D01*
X154614790Y-82698116D01*
X154573194Y-82662567D01*
X154528662Y-82639791D01*
X154477016Y-82625320D01*
X154425990Y-82619469D01*
X154429654Y-82587474D01*
X154430631Y-82557676D01*
X154428433Y-82504920D01*
X154421838Y-82454606D01*
X154410847Y-82406734D01*
X154395460Y-82361305D01*
X154373184Y-82313795D01*
X154345924Y-82270458D01*
X154313679Y-82231294D01*
X154293611Y-82211340D01*
X154253571Y-82178822D01*
X154208740Y-82150787D01*
X154159118Y-82127233D01*
X154129480Y-82116085D01*
X154079135Y-82101553D01*
X154025310Y-82091172D01*
X153975358Y-82085495D01*
X153922741Y-82082998D01*
X153907219Y-82082868D01*
X153854685Y-82084446D01*
X153804583Y-82089179D01*
X153750300Y-82098453D01*
X153699192Y-82111848D01*
X153686912Y-82115841D01*
X153639818Y-82134220D01*
X153596236Y-82156385D01*
X153551403Y-82185846D01*
X153519605Y-82212072D01*
X153484945Y-82248325D01*
X153455154Y-82289215D01*
X153430231Y-82334741D01*
X153418489Y-82362038D01*
X153401487Y-82413753D01*
X153391046Y-82461895D01*
X153385001Y-82512083D01*
X153383318Y-82557676D01*
X153272207Y-82557676D01*
X153272207Y-81971757D01*
X154791847Y-81971757D01*
X154791847Y-84043386D01*
G37*
D10*
G36*
X161691914Y-83302119D02*
G01*
X159654877Y-85339156D01*
X158779286Y-84463565D01*
X158926950Y-84315901D01*
X159084084Y-84315901D01*
X159725168Y-84956985D01*
X159577505Y-85104648D01*
X159654877Y-85182021D01*
X160046401Y-84790497D01*
X159969029Y-84713125D01*
X159818429Y-84863724D01*
X159343143Y-84388438D01*
X159493742Y-84237838D01*
X159427423Y-84171519D01*
X159390083Y-84205691D01*
X159356959Y-84231966D01*
X159315818Y-84258888D01*
X159289259Y-84270307D01*
X159239552Y-84277075D01*
X159223803Y-84275315D01*
X159177816Y-84255148D01*
X159159384Y-84240602D01*
X159084084Y-84315901D01*
X158926950Y-84315901D01*
X159398782Y-83844069D01*
X159555917Y-83844069D01*
X160274373Y-84562525D01*
X160370570Y-84466328D01*
X160016868Y-84112627D01*
X160377823Y-83751671D01*
X160731525Y-84105373D01*
X160827549Y-84009348D01*
X160109093Y-83290892D01*
X160013069Y-83386917D01*
X160289398Y-83663246D01*
X159928443Y-84024201D01*
X159652114Y-83747872D01*
X159555917Y-83844069D01*
X159398782Y-83844069D01*
X160046256Y-83196595D01*
X160203390Y-83196595D01*
X160291816Y-83285020D01*
X160550184Y-83026653D01*
X161180214Y-83656683D01*
X161276411Y-83560486D01*
X160646381Y-82930456D01*
X160904749Y-82672088D01*
X160816323Y-82583662D01*
X160203390Y-83196595D01*
X160046256Y-83196595D01*
X160816323Y-82426528D01*
X161691914Y-83302119D01*
G37*
G36*
X166636775Y-76927211D02*
G01*
X166240369Y-76927211D01*
X166240369Y-76465348D01*
X166636775Y-76927211D01*
G37*
G36*
X167795688Y-77444742D02*
G01*
X165845692Y-77444742D01*
X165845692Y-76927211D01*
X165956803Y-76927211D01*
X165956803Y-77036632D01*
X166108478Y-77036632D01*
X166108478Y-77318000D01*
X166240369Y-77318000D01*
X166240369Y-77036632D01*
X166730076Y-77036632D01*
X166730076Y-76906695D01*
X166899580Y-76906695D01*
X166901107Y-76959894D01*
X166905686Y-77009582D01*
X166914488Y-77061284D01*
X166924005Y-77098425D01*
X166942299Y-77146868D01*
X166966652Y-77189921D01*
X167000437Y-77231053D01*
X167003872Y-77234468D01*
X167042417Y-77266638D01*
X167085175Y-77292284D01*
X167127703Y-77309939D01*
X167179002Y-77323428D01*
X167230445Y-77330832D01*
X167280660Y-77333538D01*
X167292323Y-77333631D01*
X167344502Y-77331641D01*
X167397901Y-77324762D01*
X167446483Y-77312970D01*
X167460118Y-77308474D01*
X167506494Y-77288379D01*
X167551030Y-77260072D01*
X167580285Y-77234468D01*
X167614737Y-77193470D01*
X167641858Y-77147047D01*
X167660153Y-77100135D01*
X167673033Y-77047451D01*
X167680546Y-76993999D01*
X167683981Y-76941685D01*
X167684577Y-76906695D01*
X167684577Y-76301949D01*
X167548534Y-76301949D01*
X167548534Y-76906939D01*
X167547206Y-76958815D01*
X167542214Y-77009704D01*
X167537298Y-77035411D01*
X167520828Y-77082823D01*
X167499197Y-77120651D01*
X167466081Y-77156916D01*
X167423519Y-77183735D01*
X167417131Y-77186597D01*
X167367636Y-77201624D01*
X167318887Y-77207806D01*
X167292323Y-77208579D01*
X167240425Y-77205522D01*
X167191102Y-77195311D01*
X167167515Y-77186841D01*
X167123708Y-77161349D01*
X167088918Y-77126090D01*
X167084961Y-77120651D01*
X167061017Y-77076807D01*
X167047103Y-77032968D01*
X167038863Y-76981455D01*
X167035904Y-76932672D01*
X167035624Y-76910358D01*
X167035624Y-76301949D01*
X166899580Y-76301949D01*
X166899580Y-76906695D01*
X166730076Y-76906695D01*
X166730076Y-76878607D01*
X166234996Y-76301949D01*
X166108478Y-76301949D01*
X166108478Y-76927211D01*
X165956803Y-76927211D01*
X165845692Y-76927211D01*
X165845692Y-76190838D01*
X167795688Y-76190838D01*
X167795688Y-77444742D01*
G37*
G36*
X164791393Y-82447712D02*
G01*
X164814290Y-82456611D01*
X164853215Y-82487351D01*
X164867779Y-82507658D01*
X164887992Y-82553489D01*
X164893669Y-82577756D01*
X164899594Y-82627928D01*
X164900996Y-82673255D01*
X164900996Y-82833234D01*
X164541471Y-82833234D01*
X164541471Y-82695725D01*
X164543204Y-82646036D01*
X164549512Y-82595414D01*
X164551973Y-82583129D01*
X164568302Y-82536142D01*
X164591296Y-82501552D01*
X164628028Y-82469171D01*
X164653090Y-82455879D01*
X164701196Y-82443439D01*
X164741750Y-82440980D01*
X164791393Y-82447712D01*
G37*
G36*
X165152791Y-83080144D02*
G01*
X163883256Y-83080144D01*
X163883256Y-82299319D01*
X164009999Y-82299319D01*
X164416419Y-82641503D01*
X164416419Y-82695725D01*
X164416419Y-82833234D01*
X164009999Y-82833234D01*
X164009999Y-82969033D01*
X165026049Y-82969033D01*
X165026049Y-82682536D01*
X165025102Y-82632783D01*
X165021830Y-82583257D01*
X165014817Y-82531823D01*
X165014081Y-82527930D01*
X165001411Y-82479779D01*
X164980735Y-82432522D01*
X164971583Y-82416800D01*
X164940420Y-82375585D01*
X164903292Y-82342432D01*
X164884144Y-82329849D01*
X164836802Y-82309608D01*
X164784801Y-82300082D01*
X164750787Y-82298586D01*
X164698305Y-82302067D01*
X164650281Y-82312508D01*
X164601582Y-82332575D01*
X164567605Y-82354274D01*
X164528993Y-82388901D01*
X164496138Y-82430137D01*
X164469041Y-82477979D01*
X164456474Y-82507414D01*
X164009999Y-82122731D01*
X164009999Y-82299319D01*
X163883256Y-82299319D01*
X163883256Y-81712403D01*
X163994367Y-81712403D01*
X163996060Y-81764167D01*
X164001141Y-81814737D01*
X164009608Y-81864115D01*
X164011708Y-81873848D01*
X164024496Y-81924388D01*
X164040422Y-81973006D01*
X164053718Y-82005006D01*
X164197577Y-82005006D01*
X164197577Y-81995481D01*
X164174553Y-81950487D01*
X164155802Y-81904535D01*
X164142134Y-81863590D01*
X164129202Y-81811882D01*
X164121638Y-81760866D01*
X164119419Y-81715090D01*
X164123279Y-81664275D01*
X164133097Y-81620812D01*
X164153420Y-81575042D01*
X164180968Y-81539235D01*
X164220110Y-81508727D01*
X164251555Y-81493806D01*
X164298996Y-81481609D01*
X164346809Y-81478174D01*
X164395475Y-81482754D01*
X164435958Y-81496493D01*
X164477412Y-81526316D01*
X164494088Y-81546807D01*
X164518543Y-81591869D01*
X164530724Y-81633757D01*
X164538438Y-81684297D01*
X164541376Y-81736309D01*
X164541471Y-81748063D01*
X164539461Y-81800175D01*
X164533430Y-81850511D01*
X164530968Y-81864567D01*
X164521298Y-81913622D01*
X164510208Y-81961043D01*
X165041680Y-81961043D01*
X165041680Y-81345551D01*
X164916628Y-81345551D01*
X164916628Y-81828419D01*
X164645518Y-81828419D01*
X164648917Y-81779588D01*
X164649426Y-81768091D01*
X164650879Y-81718689D01*
X164650892Y-81714357D01*
X164649508Y-81664459D01*
X164644791Y-81614200D01*
X164636726Y-81568789D01*
X164621827Y-81519679D01*
X164599752Y-81473956D01*
X164587144Y-81453994D01*
X164555694Y-81416282D01*
X164514724Y-81383333D01*
X164489691Y-81368998D01*
X164440736Y-81350542D01*
X164388377Y-81341107D01*
X164340215Y-81338712D01*
X164287584Y-81342387D01*
X164236671Y-81353412D01*
X164203683Y-81364846D01*
X164157659Y-81387125D01*
X164114310Y-81417308D01*
X164093774Y-81436165D01*
X164060961Y-81475995D01*
X164034331Y-81521115D01*
X164020012Y-81554134D01*
X164005412Y-81603690D01*
X163997397Y-81653150D01*
X163994392Y-81706807D01*
X163994367Y-81712403D01*
X163883256Y-81712403D01*
X163883256Y-81227601D01*
X165152791Y-81227601D01*
X165152791Y-83080144D01*
G37*
G36*
X137597963Y-83707217D02*
G01*
X137645514Y-83719978D01*
X137650643Y-83722226D01*
X137692537Y-83751146D01*
X137720740Y-83784752D01*
X137742821Y-83830069D01*
X137748584Y-83852652D01*
X137754461Y-83902302D01*
X137755423Y-83935206D01*
X137752364Y-83985674D01*
X137743187Y-84036786D01*
X137741501Y-84043650D01*
X137726721Y-84090426D01*
X137705595Y-84137639D01*
X137700712Y-84146720D01*
X137672869Y-84148430D01*
X137637698Y-84149407D01*
X137588467Y-84148033D01*
X137539178Y-84143203D01*
X137487698Y-84132577D01*
X137471368Y-84127425D01*
X137425003Y-84106864D01*
X137383025Y-84076428D01*
X137373915Y-84067097D01*
X137344268Y-84026886D01*
X137330929Y-83997488D01*
X137319594Y-83948907D01*
X137317740Y-83917376D01*
X137322492Y-83865019D01*
X137338921Y-83814549D01*
X137367086Y-83772188D01*
X137377823Y-83761061D01*
X137420146Y-83730793D01*
X137466394Y-83713137D01*
X137520369Y-83704561D01*
X137546839Y-83703664D01*
X137597963Y-83707217D01*
G37*
G36*
X137708528Y-82034264D02*
G01*
X137706795Y-82083953D01*
X137700487Y-82134575D01*
X137698026Y-82146860D01*
X137681697Y-82193847D01*
X137658703Y-82228437D01*
X137621971Y-82260818D01*
X137596909Y-82274110D01*
X137548803Y-82286550D01*
X137508249Y-82289009D01*
X137458606Y-82282277D01*
X137435709Y-82273378D01*
X137396784Y-82242638D01*
X137382220Y-82222331D01*
X137362007Y-82176500D01*
X137356330Y-82152233D01*
X137350405Y-82102061D01*
X137349003Y-82056734D01*
X137349003Y-81896755D01*
X137708528Y-81896755D01*
X137708528Y-82034264D01*
G37*
G36*
X138366743Y-84399248D02*
G01*
X137097208Y-84399248D01*
X137097208Y-83918598D01*
X137208319Y-83918598D01*
X137211003Y-83968317D01*
X137220053Y-84019528D01*
X137231033Y-84055862D01*
X137251229Y-84101074D01*
X137280240Y-84145014D01*
X137298933Y-84166504D01*
X137337191Y-84200364D01*
X137381746Y-84228977D01*
X137427230Y-84250242D01*
X137443525Y-84256385D01*
X137490847Y-84270277D01*
X137544641Y-84280199D01*
X137597021Y-84285625D01*
X137645862Y-84287858D01*
X137671647Y-84288137D01*
X137728276Y-84286676D01*
X137782544Y-84282293D01*
X137834451Y-84274989D01*
X137883997Y-84264762D01*
X137911250Y-84257607D01*
X137963014Y-84240387D01*
X138010840Y-84219260D01*
X138054727Y-84194226D01*
X138094676Y-84165283D01*
X138131068Y-84132035D01*
X138163064Y-84094819D01*
X138190663Y-84053633D01*
X138213867Y-84008479D01*
X138232139Y-83959401D01*
X138245191Y-83906202D01*
X138252328Y-83856272D01*
X138255469Y-83803186D01*
X138255632Y-83787439D01*
X138253487Y-83738197D01*
X138251480Y-83720028D01*
X138241408Y-83671728D01*
X138238779Y-83663852D01*
X138099317Y-83663852D01*
X138099317Y-83670691D01*
X138117407Y-83716138D01*
X138120566Y-83727111D01*
X138129171Y-83775845D01*
X138130580Y-83808200D01*
X138127446Y-83862777D01*
X138118043Y-83912751D01*
X138099151Y-83965237D01*
X138071728Y-84011459D01*
X138041431Y-84046092D01*
X137999096Y-84080341D01*
X137950309Y-84107648D01*
X137903358Y-84125528D01*
X137851666Y-84138308D01*
X137795234Y-84145988D01*
X137818415Y-84102888D01*
X137837975Y-84057911D01*
X137848723Y-84025576D01*
X137859743Y-83974412D01*
X137864450Y-83923302D01*
X137864843Y-83902722D01*
X137862868Y-83853457D01*
X137856323Y-83804731D01*
X137852876Y-83788416D01*
X137836489Y-83740452D01*
X137812286Y-83695493D01*
X137805981Y-83685834D01*
X137775341Y-83647741D01*
X137735992Y-83614281D01*
X137702422Y-83594732D01*
X137656324Y-83577349D01*
X137604338Y-83567183D01*
X137551968Y-83564201D01*
X137496816Y-83567825D01*
X137445666Y-83578695D01*
X137398516Y-83596813D01*
X137355368Y-83622178D01*
X137316222Y-83654790D01*
X137304062Y-83667272D01*
X137271524Y-83707512D01*
X137245718Y-83750929D01*
X137226645Y-83797523D01*
X137214303Y-83847294D01*
X137208693Y-83900242D01*
X137208344Y-83917376D01*
X137208319Y-83918598D01*
X137097208Y-83918598D01*
X137097208Y-83025890D01*
X137223950Y-83025890D01*
X137223950Y-83132380D01*
X138130580Y-83132380D01*
X138130580Y-83341207D01*
X138240001Y-83341207D01*
X138240001Y-82787509D01*
X138130580Y-82787509D01*
X138130580Y-83000489D01*
X137458423Y-83000489D01*
X137458423Y-82787509D01*
X137364634Y-82787509D01*
X137362393Y-82838076D01*
X137357551Y-82880077D01*
X137347496Y-82928205D01*
X137336790Y-82955060D01*
X137306428Y-82994993D01*
X137294048Y-83004885D01*
X137247269Y-83023142D01*
X137223950Y-83025890D01*
X137097208Y-83025890D01*
X137097208Y-82047453D01*
X137223950Y-82047453D01*
X137224127Y-82056734D01*
X137224897Y-82097206D01*
X137228169Y-82146732D01*
X137235182Y-82198166D01*
X137235918Y-82202059D01*
X137248588Y-82250210D01*
X137269264Y-82297467D01*
X137278416Y-82313189D01*
X137309579Y-82354404D01*
X137346707Y-82387557D01*
X137365855Y-82400140D01*
X137413197Y-82420381D01*
X137465198Y-82429907D01*
X137499212Y-82431403D01*
X137551694Y-82427922D01*
X137599718Y-82417481D01*
X137648417Y-82397414D01*
X137682394Y-82375715D01*
X137721006Y-82341088D01*
X137753861Y-82299852D01*
X137780958Y-82252010D01*
X137793525Y-82222575D01*
X138240001Y-82607258D01*
X138240001Y-82430670D01*
X137833580Y-82088486D01*
X137833580Y-81896755D01*
X138240001Y-81896755D01*
X138240001Y-81760956D01*
X137223950Y-81760956D01*
X137223950Y-82047453D01*
X137097208Y-82047453D01*
X137097208Y-81649845D01*
X138366743Y-81649845D01*
X138366743Y-84399248D01*
G37*
D11*
G36*
X136041506Y-83340154D02*
G01*
X136092883Y-83345037D01*
X136141493Y-83354588D01*
X136162452Y-83360991D01*
X136209457Y-83381989D01*
X136250249Y-83410733D01*
X136262348Y-83422540D01*
X136292833Y-83461967D01*
X136307044Y-83490928D01*
X136319218Y-83539509D01*
X136321210Y-83571040D01*
X136316361Y-83623712D01*
X136299598Y-83674307D01*
X136270861Y-83716553D01*
X136259905Y-83727599D01*
X136216366Y-83757738D01*
X136168249Y-83775320D01*
X136118373Y-83783357D01*
X136083806Y-83784752D01*
X136031807Y-83781106D01*
X135982684Y-83768008D01*
X135977316Y-83765701D01*
X135935523Y-83738826D01*
X135903799Y-83703663D01*
X135881470Y-83659260D01*
X135874979Y-83633566D01*
X135868892Y-83584202D01*
X135867896Y-83553210D01*
X135870560Y-83503722D01*
X135879329Y-83454227D01*
X135881817Y-83444766D01*
X135898021Y-83397182D01*
X135919245Y-83351607D01*
X135924560Y-83341696D01*
X135954113Y-83339497D01*
X135989773Y-83338765D01*
X136041506Y-83340154D01*
G37*
G36*
X135965380Y-82226741D02*
G01*
X136019117Y-82233378D01*
X136068430Y-82244439D01*
X136121764Y-82263553D01*
X136168728Y-82289038D01*
X136202997Y-82315143D01*
X136237859Y-82351379D01*
X136265508Y-82391942D01*
X136285944Y-82436833D01*
X136299167Y-82486052D01*
X136305178Y-82539598D01*
X136305579Y-82558409D01*
X136301972Y-82613381D01*
X136291153Y-82663990D01*
X136273121Y-82710238D01*
X136247876Y-82752124D01*
X136215419Y-82789648D01*
X136202997Y-82801186D01*
X136161343Y-82831898D01*
X136113318Y-82856255D01*
X136058921Y-82874259D01*
X136008724Y-82884408D01*
X135954102Y-82890144D01*
X135907219Y-82891556D01*
X135849590Y-82889374D01*
X135796231Y-82882826D01*
X135747142Y-82871914D01*
X135693870Y-82853058D01*
X135646747Y-82827916D01*
X135612173Y-82802163D01*
X135576896Y-82766431D01*
X135548918Y-82726097D01*
X135528239Y-82681160D01*
X135514858Y-82631621D01*
X135508776Y-82577479D01*
X135508370Y-82558409D01*
X135512019Y-82502243D01*
X135522967Y-82450801D01*
X135541214Y-82404081D01*
X135566759Y-82362083D01*
X135599603Y-82324809D01*
X135612173Y-82313433D01*
X135654173Y-82283220D01*
X135702322Y-82259257D01*
X135756618Y-82241546D01*
X135806561Y-82231561D01*
X135860774Y-82225918D01*
X135907219Y-82224529D01*
X135965380Y-82226741D01*
G37*
G36*
X136791847Y-84035326D02*
G01*
X135272207Y-84035326D01*
X135272207Y-83700977D01*
X135383318Y-83700977D01*
X135385049Y-83750491D01*
X135386981Y-83768876D01*
X135397881Y-83817549D01*
X135400170Y-83824564D01*
X135539633Y-83824564D01*
X135539633Y-83817725D01*
X135521543Y-83771254D01*
X135518384Y-83759595D01*
X135509778Y-83710384D01*
X135508370Y-83680216D01*
X135511418Y-83626990D01*
X135520563Y-83577955D01*
X135538937Y-83526043D01*
X135565610Y-83479834D01*
X135595076Y-83444766D01*
X135635932Y-83409816D01*
X135682632Y-83381901D01*
X135735175Y-83361022D01*
X135784863Y-83348726D01*
X135829549Y-83342428D01*
X135805724Y-83385419D01*
X135785262Y-83431449D01*
X135776549Y-83456001D01*
X135764847Y-83504506D01*
X135759467Y-83553210D01*
X135759340Y-83554360D01*
X135758475Y-83585694D01*
X135760450Y-83636100D01*
X135766995Y-83684613D01*
X135770443Y-83700488D01*
X135787029Y-83747736D01*
X135812194Y-83792803D01*
X135818803Y-83802582D01*
X135850114Y-83840675D01*
X135890197Y-83874135D01*
X135924316Y-83893684D01*
X135971235Y-83911066D01*
X136019550Y-83920607D01*
X136073254Y-83924185D01*
X136078921Y-83924215D01*
X136135164Y-83920600D01*
X136187388Y-83909755D01*
X136235594Y-83891680D01*
X136279781Y-83866375D01*
X136319949Y-83833840D01*
X136332445Y-83821389D01*
X136365813Y-83781280D01*
X136392277Y-83737892D01*
X136411838Y-83691223D01*
X136424494Y-83641275D01*
X136430248Y-83588046D01*
X136430631Y-83569574D01*
X136427918Y-83519304D01*
X136418770Y-83468150D01*
X136407672Y-83432310D01*
X136385310Y-83384481D01*
X136355530Y-83341408D01*
X136339284Y-83323133D01*
X136300620Y-83288839D01*
X136254849Y-83259840D01*
X136207577Y-83238268D01*
X136190540Y-83232031D01*
X136141783Y-83218032D01*
X136088325Y-83208034D01*
X136037692Y-83202566D01*
X135983459Y-83200160D01*
X135967302Y-83200035D01*
X135918092Y-83201057D01*
X135863393Y-83204832D01*
X135811617Y-83211388D01*
X135762762Y-83220726D01*
X135729654Y-83229100D01*
X135679325Y-83245922D01*
X135631896Y-83267079D01*
X135587367Y-83292572D01*
X135545739Y-83322400D01*
X135505384Y-83359117D01*
X135470323Y-83401398D01*
X135443601Y-83443652D01*
X135426304Y-83478227D01*
X135407498Y-83527961D01*
X135394064Y-83581664D01*
X135386718Y-83631910D01*
X135383486Y-83685195D01*
X135383318Y-83700977D01*
X135272207Y-83700977D01*
X135272207Y-82557676D01*
X135383318Y-82557676D01*
X135383348Y-82558409D01*
X135385531Y-82611226D01*
X135392172Y-82661968D01*
X135403239Y-82709900D01*
X135418733Y-82755024D01*
X135441030Y-82802240D01*
X135468080Y-82845244D01*
X135499883Y-82884037D01*
X135519605Y-82903768D01*
X135560057Y-82936621D01*
X135605300Y-82964836D01*
X135649539Y-82986025D01*
X135685202Y-82999511D01*
X135735714Y-83014151D01*
X135789555Y-83024607D01*
X135839395Y-83030326D01*
X135891783Y-83032842D01*
X135907219Y-83032973D01*
X135963425Y-83031100D01*
X136016794Y-83025483D01*
X136067324Y-83016121D01*
X136115016Y-83003015D01*
X136168499Y-82982344D01*
X136217896Y-82956280D01*
X136262586Y-82925758D01*
X136301953Y-82891525D01*
X136335996Y-82853584D01*
X136364716Y-82811933D01*
X136388112Y-82766572D01*
X136394727Y-82750628D01*
X136447255Y-82757108D01*
X136493307Y-82774205D01*
X136513429Y-82787753D01*
X136542314Y-82828639D01*
X136554198Y-82880800D01*
X136555683Y-82912805D01*
X136548826Y-82963252D01*
X136544448Y-82979728D01*
X136528467Y-83026841D01*
X136524420Y-83035171D01*
X136524420Y-83053733D01*
X136659975Y-83053733D01*
X136670874Y-83005061D01*
X136675851Y-82972156D01*
X136680049Y-82921323D01*
X136680736Y-82890091D01*
X136677580Y-82840082D01*
X136666246Y-82788424D01*
X136646668Y-82742629D01*
X136614790Y-82698116D01*
X136573194Y-82662567D01*
X136528662Y-82639791D01*
X136477016Y-82625320D01*
X136425990Y-82619469D01*
X136429654Y-82587474D01*
X136430631Y-82557676D01*
X136428433Y-82504920D01*
X136421838Y-82454606D01*
X136410847Y-82406734D01*
X136395460Y-82361305D01*
X136373184Y-82313795D01*
X136345924Y-82270458D01*
X136313679Y-82231294D01*
X136293611Y-82211340D01*
X136253571Y-82178822D01*
X136208740Y-82150787D01*
X136159118Y-82127233D01*
X136129480Y-82116085D01*
X136079135Y-82101553D01*
X136025310Y-82091172D01*
X135975358Y-82085495D01*
X135922741Y-82082998D01*
X135907219Y-82082868D01*
X135854685Y-82084446D01*
X135804583Y-82089179D01*
X135750300Y-82098453D01*
X135699192Y-82111848D01*
X135686912Y-82115841D01*
X135639818Y-82134220D01*
X135596236Y-82156385D01*
X135551403Y-82185846D01*
X135519605Y-82212072D01*
X135484945Y-82248325D01*
X135455154Y-82289215D01*
X135430231Y-82334741D01*
X135418489Y-82362038D01*
X135401487Y-82413753D01*
X135391046Y-82461895D01*
X135385001Y-82512083D01*
X135383318Y-82557676D01*
X135272207Y-82557676D01*
X135272207Y-81971757D01*
X136791847Y-81971757D01*
X136791847Y-84035326D01*
G37*
D10*
G36*
X117197131Y-85756487D02*
G01*
X117233275Y-85790456D01*
X117253593Y-85816728D01*
X117276365Y-85860153D01*
X117288626Y-85907632D01*
X117290962Y-85941536D01*
X117284736Y-85994072D01*
X117266061Y-86040550D01*
X117234934Y-86080969D01*
X117227214Y-86088326D01*
X117183880Y-86118851D01*
X117133868Y-86138071D01*
X117083146Y-86145702D01*
X117065037Y-86146211D01*
X117011759Y-86142309D01*
X116960039Y-86128818D01*
X116916190Y-86105691D01*
X116904570Y-86096874D01*
X116870362Y-86058597D01*
X116850353Y-86011604D01*
X116844486Y-85961319D01*
X116850604Y-85909846D01*
X116872330Y-85864355D01*
X116910079Y-85829955D01*
X116952564Y-85804660D01*
X116981018Y-85790838D01*
X117028570Y-85771947D01*
X117052092Y-85763971D01*
X117100004Y-85747910D01*
X117146317Y-85731814D01*
X117154186Y-85729044D01*
X117197131Y-85756487D01*
G37*
G36*
X117118001Y-85306115D02*
G01*
X117167114Y-85319779D01*
X117208896Y-85343141D01*
X117244635Y-85381038D01*
X117262155Y-85428448D01*
X117264095Y-85453539D01*
X117256237Y-85501977D01*
X117236251Y-85538535D01*
X117198671Y-85574286D01*
X117155715Y-85600520D01*
X117152232Y-85602282D01*
X117106800Y-85622653D01*
X117079203Y-85634278D01*
X117031942Y-85652352D01*
X116985903Y-85667007D01*
X116944157Y-85635706D01*
X116909873Y-85600638D01*
X116891869Y-85573706D01*
X116873111Y-85524866D01*
X116865965Y-85473374D01*
X116865735Y-85461599D01*
X116873703Y-85411166D01*
X116900320Y-85365911D01*
X116922399Y-85345583D01*
X116965050Y-85320831D01*
X117015090Y-85306354D01*
X117066991Y-85302108D01*
X117118001Y-85306115D01*
G37*
G36*
X119103244Y-85708528D02*
G01*
X118965735Y-85708528D01*
X118916046Y-85706795D01*
X118865424Y-85700487D01*
X118853139Y-85698026D01*
X118806152Y-85681697D01*
X118771562Y-85658703D01*
X118739181Y-85621971D01*
X118725889Y-85596909D01*
X118713449Y-85548803D01*
X118710990Y-85508249D01*
X118717722Y-85458606D01*
X118726621Y-85435709D01*
X118757361Y-85396784D01*
X118777668Y-85382220D01*
X118823499Y-85362007D01*
X118847766Y-85356330D01*
X118897938Y-85350405D01*
X118943265Y-85349003D01*
X119103244Y-85349003D01*
X119103244Y-85708528D01*
G37*
G36*
X119350154Y-86366743D02*
G01*
X116591714Y-86366743D01*
X116591714Y-85953504D01*
X116702825Y-85953504D01*
X116703532Y-85961319D01*
X116707781Y-86008259D01*
X116722647Y-86058831D01*
X116747424Y-86105218D01*
X116782112Y-86147421D01*
X116806384Y-86169659D01*
X116846999Y-86198876D01*
X116891358Y-86222049D01*
X116939460Y-86239176D01*
X116991306Y-86250259D01*
X117046896Y-86255296D01*
X117066258Y-86255632D01*
X117116585Y-86253581D01*
X117172615Y-86245704D01*
X117223889Y-86231919D01*
X117270406Y-86212227D01*
X117312166Y-86186628D01*
X117331262Y-86171613D01*
X117369615Y-86132503D01*
X117370891Y-86130580D01*
X117658792Y-86130580D01*
X117658792Y-86240001D01*
X118212490Y-86240001D01*
X118392741Y-86240001D01*
X118569329Y-86240001D01*
X118911513Y-85833580D01*
X119103244Y-85833580D01*
X119103244Y-86240001D01*
X119239043Y-86240001D01*
X119239043Y-85223950D01*
X118952546Y-85223950D01*
X118902793Y-85224897D01*
X118853267Y-85228169D01*
X118801833Y-85235182D01*
X118797940Y-85235918D01*
X118749789Y-85248588D01*
X118702532Y-85269264D01*
X118686810Y-85278416D01*
X118645595Y-85309579D01*
X118612442Y-85346707D01*
X118599859Y-85365855D01*
X118579618Y-85413197D01*
X118570092Y-85465198D01*
X118568596Y-85499212D01*
X118569195Y-85508249D01*
X118572077Y-85551694D01*
X118582518Y-85599718D01*
X118602585Y-85648417D01*
X118624284Y-85682394D01*
X118658911Y-85721006D01*
X118700147Y-85753861D01*
X118747989Y-85780958D01*
X118777424Y-85793525D01*
X118392741Y-86240001D01*
X118212490Y-86240001D01*
X118212490Y-86130580D01*
X117999510Y-86130580D01*
X117999510Y-85458423D01*
X118212490Y-85458423D01*
X118212490Y-85364634D01*
X118161923Y-85362393D01*
X118119922Y-85357551D01*
X118071794Y-85347496D01*
X118044939Y-85336790D01*
X118005006Y-85306428D01*
X117995114Y-85294048D01*
X117976857Y-85247269D01*
X117974109Y-85223950D01*
X117867619Y-85223950D01*
X117867619Y-86130580D01*
X117658792Y-86130580D01*
X117370891Y-86130580D01*
X117398548Y-86088906D01*
X117418061Y-86040820D01*
X117428154Y-85988247D01*
X117429692Y-85956190D01*
X117424874Y-85905663D01*
X117410419Y-85858188D01*
X117386329Y-85813766D01*
X117380355Y-85805248D01*
X117345407Y-85765707D01*
X117307183Y-85734810D01*
X117262546Y-85708356D01*
X117240648Y-85698026D01*
X117240648Y-85693873D01*
X117283684Y-85669056D01*
X117323526Y-85639985D01*
X117360254Y-85603023D01*
X117362769Y-85599840D01*
X117388229Y-85553974D01*
X117400211Y-85504194D01*
X117402092Y-85471857D01*
X117396169Y-85417787D01*
X117378401Y-85368420D01*
X117348786Y-85323754D01*
X117313156Y-85288528D01*
X117307326Y-85283790D01*
X117263400Y-85254383D01*
X117214541Y-85232198D01*
X117160751Y-85217237D01*
X117110719Y-85210161D01*
X117066258Y-85208319D01*
X117011003Y-85210852D01*
X116960093Y-85218451D01*
X116906189Y-85233720D01*
X116858199Y-85255884D01*
X116821771Y-85280370D01*
X116781807Y-85318732D01*
X116753261Y-85362009D01*
X116736134Y-85410201D01*
X116730608Y-85461599D01*
X116730424Y-85463308D01*
X116736504Y-85513924D01*
X116754742Y-85563921D01*
X116773655Y-85596909D01*
X116804634Y-85635029D01*
X116843532Y-85667568D01*
X116890348Y-85694525D01*
X116900662Y-85699247D01*
X116900662Y-85703399D01*
X116855385Y-85724740D01*
X116811237Y-85751594D01*
X116770612Y-85784968D01*
X116753628Y-85803050D01*
X116724704Y-85847496D01*
X116708828Y-85894512D01*
X116702875Y-85947826D01*
X116702825Y-85953504D01*
X116591714Y-85953504D01*
X116591714Y-85097208D01*
X119350154Y-85097208D01*
X119350154Y-86366743D01*
G37*
G36*
X146783541Y-83470501D02*
G01*
X146835546Y-83472165D01*
X146886895Y-83475418D01*
X146910028Y-83477600D01*
X146961274Y-83485683D01*
X147008397Y-83498574D01*
X147037523Y-83509840D01*
X147081684Y-83535267D01*
X147116603Y-83571499D01*
X147118368Y-83574076D01*
X147138353Y-83619012D01*
X147145776Y-83667682D01*
X147146211Y-83684473D01*
X147141858Y-83733236D01*
X147126015Y-83780484D01*
X147119833Y-83791452D01*
X147086433Y-83829309D01*
X147042809Y-83855928D01*
X147039477Y-83857397D01*
X146991642Y-83874464D01*
X146941834Y-83885638D01*
X146910273Y-83890126D01*
X146860780Y-83894634D01*
X146811220Y-83897263D01*
X146756907Y-83898541D01*
X146731243Y-83898674D01*
X146681402Y-83898140D01*
X146629382Y-83896262D01*
X146576612Y-83892588D01*
X146552213Y-83890126D01*
X146502564Y-83882315D01*
X146454656Y-83869384D01*
X146423008Y-83856665D01*
X146379696Y-83830361D01*
X146346036Y-83793785D01*
X146344362Y-83791207D01*
X146324395Y-83743763D01*
X146317844Y-83692532D01*
X146317740Y-83684473D01*
X146322133Y-83635593D01*
X146338122Y-83588410D01*
X146344362Y-83577495D01*
X146377579Y-83539637D01*
X146421142Y-83512131D01*
X146424474Y-83510572D01*
X146474175Y-83492908D01*
X146526153Y-83482306D01*
X146555388Y-83478577D01*
X146607442Y-83474069D01*
X146656901Y-83471439D01*
X146708833Y-83470162D01*
X146732708Y-83470028D01*
X146783541Y-83470501D01*
G37*
G36*
X146708528Y-81784264D02*
G01*
X146706795Y-81833953D01*
X146700487Y-81884575D01*
X146698026Y-81896860D01*
X146681697Y-81943847D01*
X146658703Y-81978437D01*
X146621971Y-82010818D01*
X146596909Y-82024110D01*
X146548803Y-82036550D01*
X146508249Y-82039009D01*
X146458606Y-82032277D01*
X146435709Y-82023378D01*
X146396784Y-81992638D01*
X146382220Y-81972331D01*
X146362007Y-81926500D01*
X146356330Y-81902233D01*
X146350405Y-81852061D01*
X146349003Y-81806734D01*
X146349003Y-81646755D01*
X146708528Y-81646755D01*
X146708528Y-81784264D01*
G37*
G36*
X147366743Y-84149248D02*
G01*
X146097208Y-84149248D01*
X146097208Y-83684473D01*
X146208319Y-83684473D01*
X146211497Y-83739526D01*
X146221032Y-83789736D01*
X146240864Y-83843598D01*
X146269850Y-83890486D01*
X146307989Y-83930403D01*
X146338500Y-83953140D01*
X146382349Y-83977627D01*
X146432686Y-83997963D01*
X146489511Y-84014149D01*
X146539642Y-84024109D01*
X146593925Y-84031414D01*
X146652360Y-84036062D01*
X146714947Y-84038054D01*
X146731243Y-84038137D01*
X146780807Y-84037379D01*
X146842946Y-84034011D01*
X146900574Y-84027949D01*
X146953691Y-84019193D01*
X147002297Y-84007742D01*
X147056712Y-83989639D01*
X147104078Y-83967327D01*
X147129114Y-83951919D01*
X147172111Y-83916247D01*
X147206211Y-83873895D01*
X147231416Y-83824862D01*
X147247725Y-83769149D01*
X147254520Y-83717619D01*
X147255632Y-83684473D01*
X147252501Y-83629345D01*
X147243110Y-83579058D01*
X147223575Y-83525105D01*
X147195025Y-83478124D01*
X147157458Y-83438116D01*
X147127405Y-83415318D01*
X147083894Y-83390902D01*
X147033657Y-83370624D01*
X146976694Y-83354485D01*
X146926281Y-83344553D01*
X146871563Y-83337269D01*
X146812540Y-83332635D01*
X146749213Y-83330648D01*
X146732708Y-83330565D01*
X146683613Y-83331319D01*
X146621993Y-83334668D01*
X146564762Y-83340696D01*
X146511920Y-83349402D01*
X146463466Y-83360788D01*
X146409071Y-83378788D01*
X146361533Y-83400974D01*
X146336302Y-83416295D01*
X146292808Y-83451918D01*
X146258312Y-83494307D01*
X146232816Y-83543463D01*
X146216318Y-83599385D01*
X146209444Y-83651156D01*
X146208319Y-83684473D01*
X146097208Y-83684473D01*
X146097208Y-82775890D01*
X146223950Y-82775890D01*
X146223950Y-82882380D01*
X147130580Y-82882380D01*
X147130580Y-83091207D01*
X147240001Y-83091207D01*
X147240001Y-82537509D01*
X147130580Y-82537509D01*
X147130580Y-82750489D01*
X146458423Y-82750489D01*
X146458423Y-82537509D01*
X146364634Y-82537509D01*
X146362393Y-82588076D01*
X146357551Y-82630077D01*
X146347496Y-82678205D01*
X146336790Y-82705060D01*
X146306428Y-82744993D01*
X146294048Y-82754885D01*
X146247269Y-82773142D01*
X146223950Y-82775890D01*
X146097208Y-82775890D01*
X146097208Y-81797453D01*
X146223950Y-81797453D01*
X146224127Y-81806734D01*
X146224897Y-81847206D01*
X146228169Y-81896732D01*
X146235182Y-81948166D01*
X146235918Y-81952059D01*
X146248588Y-82000210D01*
X146269264Y-82047467D01*
X146278416Y-82063189D01*
X146309579Y-82104404D01*
X146346707Y-82137557D01*
X146365855Y-82150140D01*
X146413197Y-82170381D01*
X146465198Y-82179907D01*
X146499212Y-82181403D01*
X146551694Y-82177922D01*
X146599718Y-82167481D01*
X146648417Y-82147414D01*
X146682394Y-82125715D01*
X146721006Y-82091088D01*
X146753861Y-82049852D01*
X146780958Y-82002010D01*
X146793525Y-81972575D01*
X147240001Y-82357258D01*
X147240001Y-82180670D01*
X146833580Y-81838486D01*
X146833580Y-81646755D01*
X147240001Y-81646755D01*
X147240001Y-81510956D01*
X146223950Y-81510956D01*
X146223950Y-81797453D01*
X146097208Y-81797453D01*
X146097208Y-81399845D01*
X147366743Y-81399845D01*
X147366743Y-84149248D01*
G37*
G36*
X125103244Y-85708528D02*
G01*
X124965735Y-85708528D01*
X124916046Y-85706795D01*
X124865424Y-85700487D01*
X124853139Y-85698026D01*
X124806152Y-85681697D01*
X124771562Y-85658703D01*
X124739181Y-85621971D01*
X124725889Y-85596909D01*
X124713449Y-85548803D01*
X124710990Y-85508249D01*
X124717722Y-85458606D01*
X124726621Y-85435709D01*
X124757361Y-85396784D01*
X124777668Y-85382220D01*
X124823499Y-85362007D01*
X124847766Y-85356330D01*
X124897938Y-85350405D01*
X124943265Y-85349003D01*
X125103244Y-85349003D01*
X125103244Y-85708528D01*
G37*
G36*
X125350154Y-86351112D02*
G01*
X122596599Y-86351112D01*
X122596599Y-85380266D01*
X122707710Y-85380266D01*
X123170550Y-86240001D01*
X123317584Y-86240001D01*
X123257115Y-86130580D01*
X123658792Y-86130580D01*
X123658792Y-86240001D01*
X124212490Y-86240001D01*
X124392741Y-86240001D01*
X124569329Y-86240001D01*
X124911513Y-85833580D01*
X125103244Y-85833580D01*
X125103244Y-86240001D01*
X125239043Y-86240001D01*
X125239043Y-85223950D01*
X124952546Y-85223950D01*
X124902793Y-85224897D01*
X124853267Y-85228169D01*
X124801833Y-85235182D01*
X124797940Y-85235918D01*
X124749789Y-85248588D01*
X124702532Y-85269264D01*
X124686810Y-85278416D01*
X124645595Y-85309579D01*
X124612442Y-85346707D01*
X124599859Y-85365855D01*
X124579618Y-85413197D01*
X124570092Y-85465198D01*
X124568596Y-85499212D01*
X124569195Y-85508249D01*
X124572077Y-85551694D01*
X124582518Y-85599718D01*
X124602585Y-85648417D01*
X124624284Y-85682394D01*
X124658911Y-85721006D01*
X124700147Y-85753861D01*
X124747989Y-85780958D01*
X124777424Y-85793525D01*
X124392741Y-86240001D01*
X124212490Y-86240001D01*
X124212490Y-86130580D01*
X123999510Y-86130580D01*
X123999510Y-85458423D01*
X124212490Y-85458423D01*
X124212490Y-85364634D01*
X124161923Y-85362393D01*
X124119922Y-85357551D01*
X124071794Y-85347496D01*
X124044939Y-85336790D01*
X124005006Y-85306428D01*
X123995114Y-85294048D01*
X123976857Y-85247269D01*
X123974109Y-85223950D01*
X123867619Y-85223950D01*
X123867619Y-86130580D01*
X123658792Y-86130580D01*
X123257115Y-86130580D01*
X122825191Y-85349003D01*
X123407710Y-85349003D01*
X123407710Y-85223950D01*
X122707710Y-85223950D01*
X122707710Y-85380266D01*
X122596599Y-85380266D01*
X122596599Y-85112839D01*
X125350154Y-85112839D01*
X125350154Y-86351112D01*
G37*
G36*
X141541394Y-78272712D02*
G01*
X141564291Y-78281611D01*
X141603216Y-78312351D01*
X141617780Y-78332658D01*
X141637993Y-78378489D01*
X141643670Y-78402756D01*
X141649595Y-78452928D01*
X141650997Y-78498255D01*
X141650997Y-78658234D01*
X141291472Y-78658234D01*
X141291472Y-78520725D01*
X141293205Y-78471036D01*
X141299513Y-78420414D01*
X141301974Y-78408129D01*
X141318303Y-78361142D01*
X141341297Y-78326552D01*
X141378029Y-78294171D01*
X141403091Y-78280879D01*
X141451197Y-78268439D01*
X141491751Y-78265980D01*
X141541394Y-78272712D01*
G37*
G36*
X141411533Y-77296977D02*
G01*
X141460822Y-77301807D01*
X141512302Y-77312433D01*
X141528632Y-77317585D01*
X141574997Y-77338146D01*
X141616975Y-77368582D01*
X141626085Y-77377913D01*
X141655732Y-77418124D01*
X141669071Y-77447522D01*
X141680406Y-77496103D01*
X141682260Y-77527634D01*
X141677508Y-77579991D01*
X141661079Y-77630461D01*
X141632914Y-77672822D01*
X141622177Y-77683949D01*
X141579854Y-77714217D01*
X141533606Y-77731873D01*
X141479631Y-77740449D01*
X141453161Y-77741346D01*
X141402037Y-77737793D01*
X141354486Y-77725031D01*
X141349357Y-77722784D01*
X141307463Y-77693864D01*
X141279260Y-77660257D01*
X141257179Y-77614941D01*
X141251416Y-77592358D01*
X141245539Y-77542708D01*
X141244577Y-77509804D01*
X141247636Y-77459336D01*
X141256813Y-77408224D01*
X141258499Y-77401360D01*
X141273279Y-77354584D01*
X141294405Y-77307371D01*
X141299288Y-77298290D01*
X141327131Y-77296580D01*
X141362302Y-77295603D01*
X141411533Y-77296977D01*
G37*
G36*
X141902792Y-78905144D02*
G01*
X140633257Y-78905144D01*
X140633257Y-78124319D01*
X140760000Y-78124319D01*
X141166420Y-78466503D01*
X141166420Y-78520725D01*
X141166420Y-78658234D01*
X140760000Y-78658234D01*
X140760000Y-78794033D01*
X141776050Y-78794033D01*
X141776050Y-78507536D01*
X141775103Y-78457783D01*
X141771831Y-78408257D01*
X141764818Y-78356823D01*
X141764082Y-78352930D01*
X141751412Y-78304779D01*
X141730736Y-78257522D01*
X141721584Y-78241800D01*
X141690421Y-78200585D01*
X141653293Y-78167432D01*
X141634145Y-78154849D01*
X141586803Y-78134608D01*
X141534802Y-78125082D01*
X141500788Y-78123586D01*
X141448306Y-78127067D01*
X141400282Y-78137508D01*
X141351583Y-78157575D01*
X141317606Y-78179274D01*
X141278994Y-78213901D01*
X141246139Y-78255137D01*
X141219042Y-78302979D01*
X141206475Y-78332414D01*
X140760000Y-77947731D01*
X140760000Y-78124319D01*
X140633257Y-78124319D01*
X140633257Y-77657571D01*
X140744368Y-77657571D01*
X140746513Y-77706812D01*
X140748520Y-77724982D01*
X140758592Y-77773282D01*
X140761221Y-77781158D01*
X140900683Y-77781158D01*
X140900683Y-77774319D01*
X140882593Y-77728872D01*
X140879434Y-77717899D01*
X140870829Y-77669165D01*
X140869420Y-77636810D01*
X140872554Y-77582233D01*
X140881957Y-77532259D01*
X140900849Y-77479773D01*
X140928272Y-77433551D01*
X140958569Y-77398918D01*
X141000904Y-77364669D01*
X141049691Y-77337362D01*
X141096642Y-77319481D01*
X141148334Y-77306702D01*
X141204766Y-77299022D01*
X141181585Y-77342122D01*
X141162025Y-77387099D01*
X141151277Y-77419434D01*
X141140257Y-77470598D01*
X141136646Y-77509804D01*
X141135550Y-77521708D01*
X141135157Y-77542288D01*
X141137132Y-77591553D01*
X141143677Y-77640279D01*
X141147124Y-77656594D01*
X141163511Y-77704558D01*
X141187714Y-77749517D01*
X141194019Y-77759176D01*
X141224659Y-77797269D01*
X141264008Y-77830729D01*
X141297578Y-77850278D01*
X141343676Y-77867660D01*
X141395662Y-77877827D01*
X141448032Y-77880809D01*
X141503184Y-77877185D01*
X141554334Y-77866314D01*
X141601484Y-77848197D01*
X141644632Y-77822832D01*
X141683778Y-77790219D01*
X141695938Y-77777738D01*
X141728476Y-77737498D01*
X141754282Y-77694081D01*
X141773355Y-77647487D01*
X141785697Y-77597716D01*
X141791307Y-77544768D01*
X141791681Y-77526412D01*
X141788997Y-77476693D01*
X141779947Y-77425482D01*
X141768967Y-77389148D01*
X141748771Y-77343936D01*
X141719760Y-77299996D01*
X141701067Y-77278506D01*
X141662809Y-77244646D01*
X141618254Y-77216033D01*
X141572770Y-77194768D01*
X141556475Y-77188625D01*
X141509153Y-77174733D01*
X141455359Y-77164811D01*
X141402979Y-77159385D01*
X141354138Y-77157152D01*
X141328353Y-77156873D01*
X141271724Y-77158334D01*
X141217456Y-77162717D01*
X141165549Y-77170021D01*
X141116003Y-77180248D01*
X141088750Y-77187403D01*
X141036986Y-77204622D01*
X140989160Y-77225749D01*
X140945273Y-77250784D01*
X140905324Y-77279727D01*
X140868932Y-77312975D01*
X140836936Y-77350191D01*
X140809337Y-77391377D01*
X140786133Y-77436531D01*
X140767861Y-77485609D01*
X140754809Y-77538808D01*
X140747672Y-77588738D01*
X140744531Y-77641824D01*
X140744368Y-77657571D01*
X140633257Y-77657571D01*
X140633257Y-77045762D01*
X141902792Y-77045762D01*
X141902792Y-78905144D01*
G37*
G36*
X151114406Y-85322133D02*
G01*
X151161589Y-85338122D01*
X151172504Y-85344362D01*
X151210362Y-85377579D01*
X151237868Y-85421142D01*
X151239427Y-85424474D01*
X151257091Y-85474175D01*
X151267693Y-85526153D01*
X151271422Y-85555388D01*
X151275930Y-85607442D01*
X151278560Y-85656901D01*
X151279837Y-85708833D01*
X151279971Y-85732708D01*
X151279498Y-85783541D01*
X151277834Y-85835546D01*
X151274581Y-85886895D01*
X151272399Y-85910028D01*
X151264316Y-85961274D01*
X151251425Y-86008397D01*
X151240159Y-86037523D01*
X151214732Y-86081684D01*
X151178500Y-86116603D01*
X151175923Y-86118368D01*
X151130987Y-86138353D01*
X151082317Y-86145776D01*
X151065526Y-86146211D01*
X151016763Y-86141858D01*
X150969515Y-86126015D01*
X150958547Y-86119833D01*
X150920690Y-86086433D01*
X150894071Y-86042809D01*
X150892602Y-86039477D01*
X150875535Y-85991642D01*
X150864361Y-85941834D01*
X150859873Y-85910273D01*
X150855365Y-85860780D01*
X150852736Y-85811220D01*
X150851458Y-85756907D01*
X150851325Y-85731243D01*
X150851859Y-85681402D01*
X150853737Y-85629382D01*
X150857411Y-85576612D01*
X150859873Y-85552213D01*
X150867684Y-85502564D01*
X150880615Y-85454656D01*
X150893334Y-85423008D01*
X150919638Y-85379696D01*
X150956214Y-85346036D01*
X150958792Y-85344362D01*
X151006236Y-85324395D01*
X151057467Y-85317844D01*
X151065526Y-85317740D01*
X151114406Y-85322133D01*
G37*
G36*
X153103244Y-85708528D02*
G01*
X152965735Y-85708528D01*
X152916046Y-85706795D01*
X152865424Y-85700487D01*
X152853139Y-85698026D01*
X152806152Y-85681697D01*
X152771562Y-85658703D01*
X152739181Y-85621971D01*
X152725889Y-85596909D01*
X152713449Y-85548803D01*
X152710990Y-85508249D01*
X152717722Y-85458606D01*
X152726621Y-85435709D01*
X152757361Y-85396784D01*
X152777668Y-85382220D01*
X152823499Y-85362007D01*
X152847766Y-85356330D01*
X152897938Y-85350405D01*
X152943265Y-85349003D01*
X153103244Y-85349003D01*
X153103244Y-85708528D01*
G37*
G36*
X153350154Y-86366743D02*
G01*
X150600751Y-86366743D01*
X150600751Y-85731243D01*
X150711862Y-85731243D01*
X150712620Y-85780807D01*
X150715988Y-85842946D01*
X150722050Y-85900574D01*
X150730806Y-85953691D01*
X150742257Y-86002297D01*
X150760360Y-86056712D01*
X150782672Y-86104078D01*
X150798080Y-86129114D01*
X150833752Y-86172111D01*
X150876104Y-86206211D01*
X150925137Y-86231416D01*
X150980850Y-86247725D01*
X151032380Y-86254520D01*
X151065526Y-86255632D01*
X151120654Y-86252501D01*
X151170941Y-86243110D01*
X151224894Y-86223575D01*
X151271875Y-86195025D01*
X151311883Y-86157458D01*
X151334681Y-86127405D01*
X151341671Y-86114948D01*
X151600418Y-86114948D01*
X151600418Y-86240001D01*
X152292846Y-86240001D01*
X152392741Y-86240001D01*
X152569329Y-86240001D01*
X152911513Y-85833580D01*
X153103244Y-85833580D01*
X153103244Y-86240001D01*
X153239043Y-86240001D01*
X153239043Y-85223950D01*
X152952546Y-85223950D01*
X152902793Y-85224897D01*
X152853267Y-85228169D01*
X152801833Y-85235182D01*
X152797940Y-85235918D01*
X152749789Y-85248588D01*
X152702532Y-85269264D01*
X152686810Y-85278416D01*
X152645595Y-85309579D01*
X152612442Y-85346707D01*
X152599859Y-85365855D01*
X152579618Y-85413197D01*
X152570092Y-85465198D01*
X152568596Y-85499212D01*
X152569195Y-85508249D01*
X152572077Y-85551694D01*
X152582518Y-85599718D01*
X152602585Y-85648417D01*
X152624284Y-85682394D01*
X152658911Y-85721006D01*
X152700147Y-85753861D01*
X152747989Y-85780958D01*
X152777424Y-85793525D01*
X152392741Y-86240001D01*
X152292846Y-86240001D01*
X152292846Y-86088814D01*
X152252278Y-86055174D01*
X152211633Y-86021572D01*
X152170911Y-85988009D01*
X152148254Y-85969379D01*
X152108243Y-85935778D01*
X152069815Y-85902292D01*
X152032972Y-85868922D01*
X152013188Y-85850433D01*
X151974005Y-85813129D01*
X151938889Y-85778305D01*
X151902118Y-85739791D01*
X151866621Y-85699373D01*
X151835812Y-85659134D01*
X151832692Y-85654550D01*
X151806932Y-85607915D01*
X151790713Y-85558990D01*
X151784035Y-85507776D01*
X151783844Y-85497258D01*
X151790049Y-85448318D01*
X151810972Y-85403948D01*
X151836356Y-85376846D01*
X151881614Y-85350354D01*
X151933419Y-85336810D01*
X151983146Y-85333371D01*
X152035642Y-85336556D01*
X152087104Y-85345148D01*
X152118457Y-85352666D01*
X152168092Y-85368327D01*
X152216919Y-85388779D01*
X152260606Y-85411529D01*
X152267445Y-85411529D01*
X152267445Y-85270601D01*
X152218485Y-85250879D01*
X152171292Y-85236498D01*
X152137263Y-85227858D01*
X152086907Y-85217554D01*
X152037505Y-85211066D01*
X151984265Y-85208338D01*
X151979482Y-85208319D01*
X151922893Y-85210929D01*
X151871096Y-85218760D01*
X151816721Y-85234495D01*
X151768868Y-85257335D01*
X151733041Y-85282569D01*
X151698210Y-85317577D01*
X151668878Y-85363770D01*
X151650720Y-85416557D01*
X151643998Y-85468155D01*
X151643648Y-85483825D01*
X151646922Y-85535742D01*
X151656743Y-85584332D01*
X151658547Y-85590559D01*
X151676743Y-85638614D01*
X151702023Y-85684104D01*
X151731210Y-85725503D01*
X151762787Y-85763649D01*
X151765037Y-85766169D01*
X151799445Y-85803115D01*
X151836753Y-85840435D01*
X151852476Y-85855562D01*
X151889540Y-85890581D01*
X151927214Y-85925049D01*
X151965500Y-85958969D01*
X152004395Y-85992338D01*
X152042940Y-86024823D01*
X152084733Y-86059908D01*
X152124865Y-86093447D01*
X152150697Y-86114948D01*
X151600418Y-86114948D01*
X151341671Y-86114948D01*
X151359097Y-86083894D01*
X151379375Y-86033657D01*
X151395514Y-85976694D01*
X151405446Y-85926281D01*
X151412730Y-85871563D01*
X151417364Y-85812540D01*
X151419351Y-85749213D01*
X151419434Y-85732708D01*
X151418680Y-85683613D01*
X151415331Y-85621993D01*
X151409303Y-85564762D01*
X151400597Y-85511920D01*
X151389211Y-85463466D01*
X151371211Y-85409071D01*
X151349025Y-85361533D01*
X151333704Y-85336302D01*
X151298081Y-85292808D01*
X151255692Y-85258312D01*
X151206536Y-85232816D01*
X151150614Y-85216318D01*
X151098843Y-85209444D01*
X151065526Y-85208319D01*
X151010473Y-85211497D01*
X150960263Y-85221032D01*
X150906401Y-85240864D01*
X150859513Y-85269850D01*
X150819596Y-85307989D01*
X150796859Y-85338500D01*
X150772372Y-85382349D01*
X150752036Y-85432686D01*
X150735850Y-85489511D01*
X150725890Y-85539642D01*
X150718585Y-85593925D01*
X150713937Y-85652360D01*
X150711945Y-85714947D01*
X150711862Y-85731243D01*
X150600751Y-85731243D01*
X150600751Y-85097208D01*
X153350154Y-85097208D01*
X153350154Y-86366743D01*
G37*
G36*
X135103244Y-85708528D02*
G01*
X134965735Y-85708528D01*
X134916046Y-85706795D01*
X134865424Y-85700487D01*
X134853139Y-85698026D01*
X134806152Y-85681697D01*
X134771562Y-85658703D01*
X134739181Y-85621971D01*
X134725889Y-85596909D01*
X134713449Y-85548803D01*
X134710990Y-85508249D01*
X134717722Y-85458606D01*
X134726621Y-85435709D01*
X134757361Y-85396784D01*
X134777668Y-85382220D01*
X134823499Y-85362007D01*
X134847766Y-85356330D01*
X134897938Y-85350405D01*
X134943265Y-85349003D01*
X135103244Y-85349003D01*
X135103244Y-85708528D01*
G37*
G36*
X135350154Y-86366743D02*
G01*
X132613696Y-86366743D01*
X132613696Y-85934697D01*
X132724807Y-85934697D01*
X132728379Y-85985106D01*
X132740311Y-86036073D01*
X132750208Y-86061947D01*
X132774273Y-86106362D01*
X132805190Y-86145940D01*
X132821771Y-86162576D01*
X132862850Y-86194793D01*
X132909149Y-86220003D01*
X132942916Y-86232917D01*
X132992388Y-86245850D01*
X133045093Y-86253414D01*
X133095812Y-86255632D01*
X133148696Y-86253700D01*
X133201103Y-86247904D01*
X133253034Y-86238244D01*
X133263362Y-86235848D01*
X133311944Y-86223126D01*
X133358772Y-86208305D01*
X133398673Y-86192617D01*
X133398673Y-86114948D01*
X133600418Y-86114948D01*
X133600418Y-86240001D01*
X134292846Y-86240001D01*
X134392741Y-86240001D01*
X134569329Y-86240001D01*
X134911513Y-85833580D01*
X135103244Y-85833580D01*
X135103244Y-86240001D01*
X135239043Y-86240001D01*
X135239043Y-85223950D01*
X134952546Y-85223950D01*
X134902793Y-85224897D01*
X134853267Y-85228169D01*
X134801833Y-85235182D01*
X134797940Y-85235918D01*
X134749789Y-85248588D01*
X134702532Y-85269264D01*
X134686810Y-85278416D01*
X134645595Y-85309579D01*
X134612442Y-85346707D01*
X134599859Y-85365855D01*
X134579618Y-85413197D01*
X134570092Y-85465198D01*
X134568596Y-85499212D01*
X134569195Y-85508249D01*
X134572077Y-85551694D01*
X134582518Y-85599718D01*
X134602585Y-85648417D01*
X134624284Y-85682394D01*
X134658911Y-85721006D01*
X134700147Y-85753861D01*
X134747989Y-85780958D01*
X134777424Y-85793525D01*
X134392741Y-86240001D01*
X134292846Y-86240001D01*
X134292846Y-86088814D01*
X134252278Y-86055174D01*
X134211633Y-86021572D01*
X134170911Y-85988009D01*
X134148254Y-85969379D01*
X134108243Y-85935778D01*
X134069815Y-85902292D01*
X134032972Y-85868922D01*
X134013188Y-85850433D01*
X133974005Y-85813129D01*
X133938889Y-85778305D01*
X133902118Y-85739791D01*
X133866621Y-85699373D01*
X133835812Y-85659134D01*
X133832692Y-85654550D01*
X133806932Y-85607915D01*
X133790713Y-85558990D01*
X133784035Y-85507776D01*
X133783844Y-85497258D01*
X133790049Y-85448318D01*
X133810972Y-85403948D01*
X133836356Y-85376846D01*
X133881614Y-85350354D01*
X133933419Y-85336810D01*
X133983146Y-85333371D01*
X134035642Y-85336556D01*
X134087104Y-85345148D01*
X134118457Y-85352666D01*
X134168092Y-85368327D01*
X134216919Y-85388779D01*
X134260606Y-85411529D01*
X134267445Y-85411529D01*
X134267445Y-85270601D01*
X134218485Y-85250879D01*
X134171292Y-85236498D01*
X134137263Y-85227858D01*
X134086907Y-85217554D01*
X134037505Y-85211066D01*
X133984265Y-85208338D01*
X133979482Y-85208319D01*
X133922893Y-85210929D01*
X133871096Y-85218760D01*
X133816721Y-85234495D01*
X133768868Y-85257335D01*
X133733041Y-85282569D01*
X133698210Y-85317577D01*
X133668878Y-85363770D01*
X133650720Y-85416557D01*
X133643998Y-85468155D01*
X133643648Y-85483825D01*
X133646922Y-85535742D01*
X133656743Y-85584332D01*
X133658547Y-85590559D01*
X133676743Y-85638614D01*
X133702023Y-85684104D01*
X133731210Y-85725503D01*
X133762787Y-85763649D01*
X133765037Y-85766169D01*
X133799445Y-85803115D01*
X133836753Y-85840435D01*
X133852476Y-85855562D01*
X133889540Y-85890581D01*
X133927214Y-85925049D01*
X133965500Y-85958969D01*
X134004395Y-85992338D01*
X134042940Y-86024823D01*
X134084733Y-86059908D01*
X134124865Y-86093447D01*
X134150697Y-86114948D01*
X133600418Y-86114948D01*
X133398673Y-86114948D01*
X133398673Y-86052422D01*
X133388415Y-86052422D01*
X133341749Y-86076087D01*
X133293903Y-86094943D01*
X133251150Y-86108354D01*
X133202240Y-86120074D01*
X133149705Y-86127953D01*
X133098498Y-86130580D01*
X133048163Y-86126175D01*
X133006663Y-86116658D01*
X132960000Y-86097815D01*
X132927528Y-86074892D01*
X132895796Y-86037731D01*
X132880634Y-86009924D01*
X132867582Y-85961152D01*
X132865002Y-85920042D01*
X132869399Y-85871133D01*
X132882588Y-85831382D01*
X132911239Y-85791637D01*
X132930948Y-85775939D01*
X132977235Y-85754371D01*
X133005930Y-85747607D01*
X133054572Y-85741508D01*
X133100697Y-85739791D01*
X133162490Y-85739791D01*
X133162490Y-85630370D01*
X133114374Y-85630370D01*
X133064762Y-85627791D01*
X133015299Y-85618721D01*
X132968225Y-85600985D01*
X132947801Y-85589093D01*
X132909848Y-85552629D01*
X132889411Y-85505516D01*
X132885519Y-85468193D01*
X132895209Y-85418605D01*
X132901394Y-85406644D01*
X132935180Y-85370068D01*
X132945358Y-85363413D01*
X132992024Y-85343812D01*
X133008617Y-85339966D01*
X133059013Y-85334015D01*
X133084821Y-85333371D01*
X133134898Y-85336256D01*
X133187311Y-85344912D01*
X133223551Y-85353887D01*
X133273113Y-85369845D01*
X133320712Y-85389843D01*
X133362281Y-85411529D01*
X133369120Y-85411529D01*
X133369120Y-85271333D01*
X133320159Y-85251518D01*
X133272967Y-85236933D01*
X133238938Y-85228102D01*
X133188606Y-85217670D01*
X133139276Y-85211101D01*
X133086169Y-85208338D01*
X133081401Y-85208319D01*
X133031987Y-85209906D01*
X132982951Y-85215258D01*
X132949510Y-85221752D01*
X132901652Y-85236545D01*
X132855148Y-85259139D01*
X132846440Y-85264495D01*
X132807684Y-85295276D01*
X132776433Y-85333962D01*
X132771457Y-85342408D01*
X132753225Y-85388433D01*
X132746279Y-85437586D01*
X132746056Y-85448898D01*
X132751924Y-85498748D01*
X132769526Y-85544496D01*
X132798864Y-85586141D01*
X132806140Y-85593978D01*
X132845815Y-85628139D01*
X132889736Y-85653379D01*
X132937902Y-85669698D01*
X132948045Y-85671892D01*
X132948045Y-85681173D01*
X132900666Y-85693380D01*
X132872574Y-85703887D01*
X132828662Y-85726101D01*
X132800278Y-85747118D01*
X132766893Y-85784805D01*
X132746056Y-85820636D01*
X132730804Y-85867715D01*
X132725139Y-85917634D01*
X132724807Y-85934697D01*
X132613696Y-85934697D01*
X132613696Y-85097208D01*
X135350154Y-85097208D01*
X135350154Y-86366743D01*
G37*
D11*
G36*
X144965380Y-82226741D02*
G01*
X145019117Y-82233378D01*
X145068430Y-82244439D01*
X145121764Y-82263553D01*
X145168728Y-82289038D01*
X145202997Y-82315143D01*
X145237859Y-82351379D01*
X145265508Y-82391942D01*
X145285944Y-82436833D01*
X145299167Y-82486052D01*
X145305178Y-82539598D01*
X145305579Y-82558409D01*
X145301972Y-82613381D01*
X145291153Y-82663990D01*
X145273121Y-82710238D01*
X145247876Y-82752124D01*
X145215419Y-82789648D01*
X145202997Y-82801186D01*
X145161343Y-82831898D01*
X145113318Y-82856255D01*
X145058921Y-82874259D01*
X145008724Y-82884408D01*
X144954102Y-82890144D01*
X144907219Y-82891556D01*
X144849590Y-82889374D01*
X144796231Y-82882826D01*
X144747142Y-82871914D01*
X144693870Y-82853058D01*
X144646747Y-82827916D01*
X144612173Y-82802163D01*
X144576896Y-82766431D01*
X144548918Y-82726097D01*
X144528239Y-82681160D01*
X144514858Y-82631621D01*
X144508776Y-82577479D01*
X144508370Y-82558409D01*
X144512019Y-82502243D01*
X144522967Y-82450801D01*
X144541214Y-82404081D01*
X144566759Y-82362083D01*
X144599603Y-82324809D01*
X144612173Y-82313433D01*
X144654173Y-82283220D01*
X144702322Y-82259257D01*
X144756618Y-82241546D01*
X144806561Y-82231561D01*
X144860774Y-82225918D01*
X144907219Y-82224529D01*
X144965380Y-82226741D01*
G37*
G36*
X145791847Y-84011878D02*
G01*
X144272207Y-84011878D01*
X144272207Y-83278437D01*
X144383318Y-83278437D01*
X144383318Y-83893929D01*
X144508370Y-83893929D01*
X144508370Y-83411061D01*
X144779480Y-83411061D01*
X144776081Y-83459891D01*
X144775572Y-83471389D01*
X144774119Y-83520790D01*
X144774106Y-83525122D01*
X144775490Y-83575020D01*
X144780207Y-83625280D01*
X144788272Y-83670691D01*
X144803171Y-83719800D01*
X144825246Y-83765524D01*
X144837854Y-83785485D01*
X144869304Y-83823197D01*
X144910274Y-83856146D01*
X144935307Y-83870481D01*
X144984262Y-83888937D01*
X145036621Y-83898372D01*
X145084783Y-83900767D01*
X145137414Y-83897092D01*
X145188327Y-83886067D01*
X145221315Y-83874633D01*
X145267339Y-83852354D01*
X145310688Y-83822171D01*
X145331224Y-83803315D01*
X145364037Y-83763484D01*
X145390667Y-83718364D01*
X145404986Y-83685345D01*
X145419586Y-83635789D01*
X145427601Y-83586330D01*
X145430606Y-83532672D01*
X145430631Y-83527076D01*
X145428938Y-83475313D01*
X145423857Y-83424742D01*
X145415390Y-83375364D01*
X145413290Y-83365631D01*
X145400502Y-83315091D01*
X145384576Y-83266473D01*
X145371280Y-83234473D01*
X145227421Y-83234473D01*
X145227421Y-83243998D01*
X145250445Y-83288993D01*
X145269196Y-83334944D01*
X145282864Y-83375890D01*
X145295796Y-83427598D01*
X145303360Y-83478613D01*
X145305579Y-83524389D01*
X145301719Y-83575204D01*
X145291901Y-83618667D01*
X145271578Y-83664438D01*
X145244030Y-83700244D01*
X145204888Y-83730752D01*
X145173443Y-83745673D01*
X145126002Y-83757870D01*
X145078189Y-83761305D01*
X145029523Y-83756725D01*
X144989040Y-83742987D01*
X144947586Y-83713164D01*
X144930910Y-83692673D01*
X144906455Y-83647610D01*
X144894274Y-83605722D01*
X144886560Y-83555182D01*
X144883622Y-83503170D01*
X144883527Y-83491416D01*
X144885537Y-83439304D01*
X144891568Y-83388968D01*
X144894030Y-83374913D01*
X144903700Y-83325858D01*
X144914790Y-83278437D01*
X144383318Y-83278437D01*
X144272207Y-83278437D01*
X144272207Y-82557676D01*
X144383318Y-82557676D01*
X144383348Y-82558409D01*
X144385531Y-82611226D01*
X144392172Y-82661968D01*
X144403239Y-82709900D01*
X144418733Y-82755024D01*
X144441030Y-82802240D01*
X144468080Y-82845244D01*
X144499883Y-82884037D01*
X144519605Y-82903768D01*
X144560057Y-82936621D01*
X144605300Y-82964836D01*
X144649539Y-82986025D01*
X144685202Y-82999511D01*
X144735714Y-83014151D01*
X144789555Y-83024607D01*
X144839395Y-83030326D01*
X144891783Y-83032842D01*
X144907219Y-83032973D01*
X144963425Y-83031100D01*
X145016794Y-83025483D01*
X145067324Y-83016121D01*
X145115016Y-83003015D01*
X145168499Y-82982344D01*
X145217896Y-82956280D01*
X145262586Y-82925758D01*
X145301953Y-82891525D01*
X145335996Y-82853584D01*
X145364716Y-82811933D01*
X145388112Y-82766572D01*
X145394727Y-82750628D01*
X145447255Y-82757108D01*
X145493307Y-82774205D01*
X145513429Y-82787753D01*
X145542314Y-82828639D01*
X145554198Y-82880800D01*
X145555683Y-82912805D01*
X145548826Y-82963252D01*
X145544448Y-82979728D01*
X145528467Y-83026841D01*
X145524420Y-83035171D01*
X145524420Y-83053733D01*
X145659975Y-83053733D01*
X145670874Y-83005061D01*
X145675851Y-82972156D01*
X145680049Y-82921323D01*
X145680736Y-82890091D01*
X145677580Y-82840082D01*
X145666246Y-82788424D01*
X145646668Y-82742629D01*
X145614790Y-82698116D01*
X145573194Y-82662567D01*
X145528662Y-82639791D01*
X145477016Y-82625320D01*
X145425990Y-82619469D01*
X145429654Y-82587474D01*
X145430631Y-82557676D01*
X145428433Y-82504920D01*
X145421838Y-82454606D01*
X145410847Y-82406734D01*
X145395460Y-82361305D01*
X145373184Y-82313795D01*
X145345924Y-82270458D01*
X145313679Y-82231294D01*
X145293611Y-82211340D01*
X145253571Y-82178822D01*
X145208740Y-82150787D01*
X145159118Y-82127233D01*
X145129480Y-82116085D01*
X145079135Y-82101553D01*
X145025310Y-82091172D01*
X144975358Y-82085495D01*
X144922741Y-82082998D01*
X144907219Y-82082868D01*
X144854685Y-82084446D01*
X144804583Y-82089179D01*
X144750300Y-82098453D01*
X144699192Y-82111848D01*
X144686912Y-82115841D01*
X144639818Y-82134220D01*
X144596236Y-82156385D01*
X144551403Y-82185846D01*
X144519605Y-82212072D01*
X144484945Y-82248325D01*
X144455154Y-82289215D01*
X144430231Y-82334741D01*
X144418489Y-82362038D01*
X144401487Y-82413753D01*
X144391046Y-82461895D01*
X144385001Y-82512083D01*
X144383318Y-82557676D01*
X144272207Y-82557676D01*
X144272207Y-81971757D01*
X145791847Y-81971757D01*
X145791847Y-84011878D01*
G37*
D10*
G36*
X126541394Y-79717722D02*
G01*
X126564291Y-79726621D01*
X126603216Y-79757361D01*
X126617780Y-79777668D01*
X126637993Y-79823499D01*
X126643670Y-79847766D01*
X126649595Y-79897938D01*
X126650997Y-79943265D01*
X126650997Y-80103244D01*
X126291472Y-80103244D01*
X126291472Y-79965735D01*
X126293205Y-79916046D01*
X126299513Y-79865424D01*
X126301974Y-79853139D01*
X126318303Y-79806152D01*
X126341297Y-79771562D01*
X126378029Y-79739181D01*
X126403091Y-79725889D01*
X126451197Y-79713449D01*
X126491751Y-79710990D01*
X126541394Y-79717722D01*
G37*
G36*
X126143192Y-77838363D02*
G01*
X126192315Y-77851460D01*
X126197683Y-77853767D01*
X126239476Y-77880642D01*
X126271200Y-77915805D01*
X126293529Y-77960209D01*
X126300020Y-77985903D01*
X126306107Y-78035266D01*
X126307103Y-78066258D01*
X126304439Y-78115746D01*
X126295670Y-78165241D01*
X126293182Y-78174702D01*
X126276978Y-78222287D01*
X126255754Y-78267861D01*
X126250439Y-78277773D01*
X126220886Y-78279971D01*
X126185226Y-78280704D01*
X126133493Y-78279314D01*
X126082116Y-78274431D01*
X126033506Y-78264881D01*
X126012547Y-78258478D01*
X125965542Y-78237479D01*
X125924750Y-78208735D01*
X125912651Y-78196928D01*
X125882166Y-78157501D01*
X125867955Y-78128540D01*
X125855781Y-78079959D01*
X125853789Y-78048429D01*
X125858638Y-77995756D01*
X125875401Y-77945161D01*
X125904138Y-77902915D01*
X125915094Y-77891869D01*
X125958633Y-77861730D01*
X126006750Y-77844149D01*
X126056626Y-77836112D01*
X126091193Y-77834716D01*
X126143192Y-77838363D01*
G37*
G36*
X126902792Y-80350154D02*
G01*
X125633257Y-80350154D01*
X125633257Y-79569329D01*
X125760000Y-79569329D01*
X126166420Y-79911513D01*
X126166420Y-79965735D01*
X126166420Y-80103244D01*
X125760000Y-80103244D01*
X125760000Y-80239043D01*
X126776050Y-80239043D01*
X126776050Y-79952546D01*
X126775103Y-79902793D01*
X126771831Y-79853267D01*
X126764818Y-79801833D01*
X126764082Y-79797940D01*
X126751412Y-79749789D01*
X126730736Y-79702532D01*
X126721584Y-79686810D01*
X126690421Y-79645595D01*
X126653293Y-79612442D01*
X126634145Y-79599859D01*
X126586803Y-79579618D01*
X126534802Y-79570092D01*
X126500788Y-79568596D01*
X126448306Y-79572077D01*
X126400282Y-79582518D01*
X126351583Y-79602585D01*
X126317606Y-79624284D01*
X126278994Y-79658911D01*
X126246139Y-79700147D01*
X126219042Y-79747989D01*
X126206475Y-79777424D01*
X125760000Y-79392741D01*
X125760000Y-79569329D01*
X125633257Y-79569329D01*
X125633257Y-79212490D01*
X125760000Y-79212490D01*
X125869420Y-79212490D01*
X125869420Y-78999510D01*
X126541577Y-78999510D01*
X126541577Y-79212490D01*
X126635366Y-79212490D01*
X126637607Y-79161923D01*
X126642449Y-79119922D01*
X126652504Y-79071794D01*
X126663210Y-79044939D01*
X126693572Y-79005006D01*
X126705952Y-78995114D01*
X126752731Y-78976857D01*
X126776050Y-78974109D01*
X126776050Y-78867619D01*
X125869420Y-78867619D01*
X125869420Y-78658792D01*
X125760000Y-78658792D01*
X125760000Y-79212490D01*
X125633257Y-79212490D01*
X125633257Y-78049894D01*
X125744368Y-78049894D01*
X125747081Y-78100164D01*
X125756229Y-78151318D01*
X125767327Y-78187159D01*
X125789689Y-78234988D01*
X125819469Y-78278060D01*
X125835715Y-78296335D01*
X125874379Y-78330629D01*
X125920150Y-78359628D01*
X125967422Y-78381200D01*
X125984459Y-78387438D01*
X126033216Y-78401436D01*
X126086674Y-78411435D01*
X126137307Y-78416903D01*
X126191540Y-78419309D01*
X126207697Y-78419434D01*
X126256907Y-78418412D01*
X126311606Y-78414637D01*
X126363382Y-78408080D01*
X126412237Y-78398742D01*
X126445345Y-78390369D01*
X126495674Y-78373546D01*
X126543103Y-78352389D01*
X126587632Y-78326896D01*
X126629260Y-78297068D01*
X126669615Y-78260351D01*
X126704676Y-78218071D01*
X126731398Y-78175817D01*
X126748695Y-78141241D01*
X126767501Y-78091507D01*
X126780935Y-78037804D01*
X126788281Y-77987558D01*
X126791513Y-77934274D01*
X126791681Y-77918491D01*
X126789950Y-77868977D01*
X126788018Y-77850592D01*
X126777118Y-77801919D01*
X126774829Y-77794905D01*
X126635366Y-77794905D01*
X126635366Y-77801743D01*
X126653456Y-77848214D01*
X126656615Y-77859873D01*
X126665221Y-77909084D01*
X126666629Y-77939252D01*
X126663581Y-77992478D01*
X126654436Y-78041514D01*
X126636062Y-78093426D01*
X126609389Y-78139634D01*
X126579923Y-78174702D01*
X126539067Y-78209653D01*
X126492367Y-78237567D01*
X126439824Y-78258446D01*
X126390136Y-78270742D01*
X126345450Y-78277040D01*
X126369275Y-78234049D01*
X126389737Y-78188019D01*
X126398450Y-78163467D01*
X126410152Y-78114962D01*
X126415659Y-78065108D01*
X126416524Y-78033774D01*
X126414549Y-77983368D01*
X126408004Y-77934856D01*
X126404556Y-77918980D01*
X126387970Y-77871732D01*
X126362805Y-77826665D01*
X126356196Y-77816886D01*
X126324885Y-77778793D01*
X126284802Y-77745334D01*
X126250683Y-77725784D01*
X126203764Y-77708402D01*
X126155449Y-77698861D01*
X126101745Y-77695283D01*
X126096078Y-77695254D01*
X126039835Y-77698869D01*
X125987611Y-77709713D01*
X125939405Y-77727788D01*
X125895218Y-77753093D01*
X125855050Y-77785628D01*
X125842554Y-77798080D01*
X125809186Y-77838188D01*
X125782722Y-77881576D01*
X125763161Y-77928245D01*
X125750505Y-77978194D01*
X125744751Y-78031422D01*
X125744398Y-78048429D01*
X125744368Y-78049894D01*
X125633257Y-78049894D01*
X125633257Y-77584143D01*
X126902792Y-77584143D01*
X126902792Y-80350154D01*
G37*
G36*
X128708528Y-82034264D02*
G01*
X128706795Y-82083953D01*
X128700487Y-82134575D01*
X128698026Y-82146860D01*
X128681697Y-82193847D01*
X128658703Y-82228437D01*
X128621971Y-82260818D01*
X128596909Y-82274110D01*
X128548803Y-82286550D01*
X128508249Y-82289009D01*
X128458606Y-82282277D01*
X128435709Y-82273378D01*
X128396784Y-82242638D01*
X128382220Y-82222331D01*
X128362007Y-82176500D01*
X128356330Y-82152233D01*
X128350405Y-82102061D01*
X128349003Y-82056734D01*
X128349003Y-81896755D01*
X128708528Y-81896755D01*
X128708528Y-82034264D01*
G37*
G36*
X129351112Y-84342339D02*
G01*
X128097208Y-84342339D01*
X128097208Y-83915911D01*
X128223950Y-83915911D01*
X128223950Y-84022401D01*
X129130580Y-84022401D01*
X129130580Y-84231228D01*
X129240001Y-84231228D01*
X129240001Y-83677530D01*
X129130580Y-83677530D01*
X129130580Y-83890510D01*
X128458423Y-83890510D01*
X128458423Y-83677530D01*
X128364634Y-83677530D01*
X128362393Y-83728097D01*
X128357551Y-83770098D01*
X128347496Y-83818226D01*
X128336790Y-83845080D01*
X128306428Y-83885014D01*
X128294048Y-83894906D01*
X128247269Y-83913163D01*
X128223950Y-83915911D01*
X128097208Y-83915911D01*
X128097208Y-83020517D01*
X128208319Y-83020517D01*
X128210929Y-83077106D01*
X128218760Y-83128903D01*
X128234495Y-83183278D01*
X128257335Y-83231131D01*
X128282569Y-83266958D01*
X128317577Y-83301789D01*
X128363770Y-83331121D01*
X128416557Y-83349279D01*
X128468155Y-83356001D01*
X128483825Y-83356351D01*
X128535742Y-83353077D01*
X128584332Y-83343256D01*
X128590559Y-83341452D01*
X128638614Y-83323256D01*
X128684104Y-83297976D01*
X128725503Y-83268789D01*
X128763649Y-83237212D01*
X128766169Y-83234962D01*
X128803115Y-83200554D01*
X128840435Y-83163246D01*
X128855562Y-83147523D01*
X128890581Y-83110459D01*
X128925049Y-83072785D01*
X128958969Y-83034499D01*
X128992338Y-82995604D01*
X129024823Y-82957059D01*
X129059908Y-82915266D01*
X129093447Y-82875134D01*
X129114948Y-82849302D01*
X129114948Y-83399581D01*
X129240001Y-83399581D01*
X129240001Y-82707153D01*
X129088814Y-82707153D01*
X129055174Y-82747721D01*
X129021572Y-82788366D01*
X128988009Y-82829088D01*
X128969379Y-82851745D01*
X128935778Y-82891756D01*
X128902292Y-82930184D01*
X128868922Y-82967027D01*
X128850433Y-82986811D01*
X128813129Y-83025994D01*
X128778305Y-83061110D01*
X128739791Y-83097881D01*
X128699373Y-83133378D01*
X128659134Y-83164187D01*
X128654550Y-83167307D01*
X128607915Y-83193067D01*
X128558990Y-83209286D01*
X128507776Y-83215964D01*
X128497258Y-83216155D01*
X128448318Y-83209950D01*
X128403948Y-83189027D01*
X128376846Y-83163643D01*
X128350354Y-83118385D01*
X128336810Y-83066580D01*
X128333371Y-83016853D01*
X128336556Y-82964357D01*
X128345148Y-82912895D01*
X128352666Y-82881542D01*
X128368327Y-82831907D01*
X128388779Y-82783080D01*
X128411529Y-82739393D01*
X128411529Y-82732554D01*
X128270601Y-82732554D01*
X128250879Y-82781514D01*
X128236498Y-82828707D01*
X128227858Y-82862736D01*
X128217554Y-82913092D01*
X128211066Y-82962494D01*
X128208338Y-83015734D01*
X128208319Y-83020517D01*
X128097208Y-83020517D01*
X128097208Y-82047453D01*
X128223950Y-82047453D01*
X128224127Y-82056734D01*
X128224897Y-82097206D01*
X128228169Y-82146732D01*
X128235182Y-82198166D01*
X128235918Y-82202059D01*
X128248588Y-82250210D01*
X128269264Y-82297467D01*
X128278416Y-82313189D01*
X128309579Y-82354404D01*
X128346707Y-82387557D01*
X128365855Y-82400140D01*
X128413197Y-82420381D01*
X128465198Y-82429907D01*
X128499212Y-82431403D01*
X128551694Y-82427922D01*
X128599718Y-82417481D01*
X128648417Y-82397414D01*
X128682394Y-82375715D01*
X128721006Y-82341088D01*
X128753861Y-82299852D01*
X128780958Y-82252010D01*
X128793525Y-82222575D01*
X129240001Y-82607258D01*
X129240001Y-82430670D01*
X128833580Y-82088486D01*
X128833580Y-81896755D01*
X129240001Y-81896755D01*
X129240001Y-81760956D01*
X128223950Y-81760956D01*
X128223950Y-82047453D01*
X128097208Y-82047453D01*
X128097208Y-81649845D01*
X129351112Y-81649845D01*
X129351112Y-84342339D01*
G37*
G36*
X174291742Y-83344293D02*
G01*
X173022207Y-83344293D01*
X173022207Y-82917865D01*
X173148949Y-82917865D01*
X173148949Y-83024355D01*
X174055579Y-83024355D01*
X174055579Y-83233182D01*
X174165000Y-83233182D01*
X174165000Y-82679484D01*
X174055579Y-82679484D01*
X174055579Y-82892463D01*
X173383422Y-82892463D01*
X173383422Y-82679484D01*
X173289633Y-82679484D01*
X173287392Y-82730051D01*
X173282550Y-82772052D01*
X173272495Y-82820180D01*
X173261789Y-82847034D01*
X173231427Y-82886968D01*
X173219047Y-82896860D01*
X173172268Y-82915117D01*
X173148949Y-82917865D01*
X173022207Y-82917865D01*
X173022207Y-82027844D01*
X173148949Y-82027844D01*
X173148949Y-82134334D01*
X174055579Y-82134334D01*
X174055579Y-82343161D01*
X174165000Y-82343161D01*
X174165000Y-81789463D01*
X174055579Y-81789463D01*
X174055579Y-82002443D01*
X173383422Y-82002443D01*
X173383422Y-81789463D01*
X173289633Y-81789463D01*
X173287392Y-81840030D01*
X173282550Y-81882031D01*
X173272495Y-81930159D01*
X173261789Y-81957013D01*
X173231427Y-81996947D01*
X173219047Y-82006839D01*
X173172268Y-82025096D01*
X173148949Y-82027844D01*
X173022207Y-82027844D01*
X173022207Y-81201815D01*
X173133318Y-81201815D01*
X173135250Y-81253363D01*
X173141046Y-81304816D01*
X173150706Y-81356174D01*
X173153101Y-81366434D01*
X173166625Y-81414045D01*
X173184941Y-81464554D01*
X173205243Y-81511884D01*
X173222955Y-81548884D01*
X173383422Y-81548884D01*
X173383422Y-81538625D01*
X173352923Y-81496448D01*
X173326880Y-81454423D01*
X173302911Y-81407327D01*
X173288168Y-81370831D01*
X173273764Y-81323192D01*
X173264074Y-81273698D01*
X173259098Y-81222350D01*
X173258370Y-81193022D01*
X173261227Y-81141442D01*
X173270861Y-81089321D01*
X173282550Y-81053071D01*
X173304463Y-81008431D01*
X173333933Y-80967570D01*
X173357777Y-80942429D01*
X173398672Y-80909811D01*
X173442677Y-80885040D01*
X173483318Y-80868423D01*
X173533082Y-80854513D01*
X173581786Y-80846398D01*
X173634199Y-80842457D01*
X173658684Y-80842045D01*
X173708891Y-80843861D01*
X173761032Y-80850248D01*
X173813572Y-80862737D01*
X173837714Y-80871110D01*
X173885835Y-80893222D01*
X173927434Y-80919260D01*
X173959591Y-80946336D01*
X173992690Y-80984690D01*
X174018713Y-81027578D01*
X174032131Y-81058688D01*
X174046420Y-81107895D01*
X174054113Y-81159164D01*
X174055579Y-81194487D01*
X174053106Y-81248731D01*
X174045687Y-81301005D01*
X174033322Y-81351308D01*
X174024316Y-81378402D01*
X174004257Y-81425893D01*
X173979253Y-81471645D01*
X173949303Y-81515658D01*
X173930526Y-81539358D01*
X173930526Y-81548884D01*
X174088551Y-81548884D01*
X174109188Y-81502351D01*
X174119326Y-81480496D01*
X174137702Y-81434891D01*
X174149368Y-81400384D01*
X174162694Y-81351079D01*
X174171350Y-81309526D01*
X174178311Y-81257929D01*
X174180595Y-81208675D01*
X174180631Y-81201326D01*
X174178708Y-81146906D01*
X174172937Y-81095019D01*
X174163320Y-81045667D01*
X174149856Y-80998849D01*
X174129665Y-80949596D01*
X174103986Y-80904052D01*
X174072821Y-80862218D01*
X174053136Y-80840579D01*
X174014103Y-80805765D01*
X173969545Y-80775510D01*
X173925299Y-80752444D01*
X173889249Y-80737509D01*
X173837424Y-80721267D01*
X173788796Y-80710862D01*
X173737106Y-80704009D01*
X173682354Y-80700710D01*
X173657951Y-80700384D01*
X173604610Y-80702090D01*
X173553793Y-80707209D01*
X173505501Y-80715741D01*
X173453401Y-80729671D01*
X173434713Y-80736043D01*
X173387407Y-80755949D01*
X173343916Y-80779763D01*
X173299551Y-80811224D01*
X173268384Y-80839114D01*
X173233782Y-80877941D01*
X173204164Y-80921056D01*
X173179531Y-80968461D01*
X173168000Y-80996651D01*
X173152827Y-81044186D01*
X173141988Y-81094226D01*
X173135485Y-81146768D01*
X173133318Y-81201815D01*
X173022207Y-81201815D01*
X173022207Y-80589273D01*
X174291742Y-80589273D01*
X174291742Y-83344293D01*
G37*
G36*
X135541393Y-78272712D02*
G01*
X135564290Y-78281611D01*
X135603215Y-78312351D01*
X135617779Y-78332658D01*
X135637992Y-78378489D01*
X135643669Y-78402756D01*
X135649594Y-78452928D01*
X135650996Y-78498255D01*
X135650996Y-78658234D01*
X135291471Y-78658234D01*
X135291471Y-78520725D01*
X135293204Y-78471036D01*
X135299512Y-78420414D01*
X135301973Y-78408129D01*
X135318302Y-78361142D01*
X135341296Y-78326552D01*
X135378028Y-78294171D01*
X135403090Y-78280879D01*
X135451196Y-78268439D01*
X135491750Y-78265980D01*
X135541393Y-78272712D01*
G37*
G36*
X135090153Y-77295615D02*
G01*
X135135644Y-77317341D01*
X135170044Y-77355090D01*
X135195339Y-77397575D01*
X135209161Y-77426029D01*
X135211101Y-77430913D01*
X135228052Y-77473581D01*
X135236028Y-77497103D01*
X135252089Y-77545015D01*
X135268185Y-77591328D01*
X135270955Y-77599197D01*
X135243512Y-77642142D01*
X135209543Y-77678286D01*
X135183271Y-77698604D01*
X135139846Y-77721375D01*
X135092367Y-77733637D01*
X135058463Y-77735973D01*
X135005927Y-77729747D01*
X134959449Y-77711071D01*
X134919030Y-77679945D01*
X134911673Y-77672225D01*
X134881148Y-77628891D01*
X134861928Y-77578879D01*
X134854297Y-77528157D01*
X134853788Y-77510048D01*
X134857690Y-77456770D01*
X134871181Y-77405050D01*
X134894308Y-77361200D01*
X134903125Y-77349581D01*
X134941402Y-77315373D01*
X134988395Y-77295364D01*
X135038680Y-77289497D01*
X135090153Y-77295615D01*
G37*
G36*
X135588833Y-77318714D02*
G01*
X135634088Y-77345331D01*
X135654416Y-77367410D01*
X135679168Y-77410061D01*
X135693645Y-77460100D01*
X135697891Y-77512002D01*
X135693884Y-77563012D01*
X135680220Y-77612125D01*
X135656858Y-77653907D01*
X135618961Y-77689646D01*
X135571551Y-77707165D01*
X135546460Y-77709106D01*
X135498022Y-77701248D01*
X135461464Y-77681262D01*
X135425713Y-77643682D01*
X135399479Y-77600726D01*
X135397717Y-77597243D01*
X135377346Y-77551811D01*
X135365721Y-77524214D01*
X135347647Y-77476953D01*
X135332992Y-77430913D01*
X135364293Y-77389168D01*
X135399361Y-77354884D01*
X135426293Y-77336880D01*
X135475133Y-77318122D01*
X135526625Y-77310976D01*
X135538400Y-77310746D01*
X135588833Y-77318714D01*
G37*
G36*
X135902791Y-78905144D02*
G01*
X134633256Y-78905144D01*
X134633256Y-78124319D01*
X134759999Y-78124319D01*
X135166419Y-78466503D01*
X135166419Y-78520725D01*
X135166419Y-78658234D01*
X134759999Y-78658234D01*
X134759999Y-78794033D01*
X135776049Y-78794033D01*
X135776049Y-78507536D01*
X135775102Y-78457783D01*
X135771830Y-78408257D01*
X135764817Y-78356823D01*
X135764081Y-78352930D01*
X135751411Y-78304779D01*
X135730735Y-78257522D01*
X135721583Y-78241800D01*
X135690420Y-78200585D01*
X135653292Y-78167432D01*
X135634144Y-78154849D01*
X135586802Y-78134608D01*
X135534801Y-78125082D01*
X135500787Y-78123586D01*
X135448305Y-78127067D01*
X135400281Y-78137508D01*
X135351582Y-78157575D01*
X135317605Y-78179274D01*
X135278993Y-78213901D01*
X135246138Y-78255137D01*
X135219041Y-78302979D01*
X135206474Y-78332414D01*
X134759999Y-77947731D01*
X134759999Y-78124319D01*
X134633256Y-78124319D01*
X134633256Y-77511269D01*
X134744367Y-77511269D01*
X134746418Y-77561596D01*
X134754295Y-77617626D01*
X134768080Y-77668900D01*
X134787772Y-77715417D01*
X134813371Y-77757177D01*
X134828386Y-77776273D01*
X134867496Y-77814626D01*
X134911093Y-77843559D01*
X134959179Y-77863072D01*
X135011752Y-77873165D01*
X135043809Y-77874703D01*
X135094336Y-77869885D01*
X135141811Y-77855430D01*
X135186233Y-77831340D01*
X135194751Y-77825366D01*
X135234292Y-77790418D01*
X135265189Y-77752194D01*
X135291643Y-77707557D01*
X135301973Y-77685659D01*
X135306126Y-77685659D01*
X135330943Y-77728695D01*
X135360014Y-77768537D01*
X135396976Y-77805265D01*
X135400159Y-77807780D01*
X135446025Y-77833240D01*
X135495805Y-77845222D01*
X135528142Y-77847103D01*
X135582212Y-77841180D01*
X135631579Y-77823412D01*
X135676245Y-77793797D01*
X135711471Y-77758167D01*
X135716209Y-77752337D01*
X135745616Y-77708411D01*
X135767801Y-77659552D01*
X135782762Y-77605762D01*
X135789838Y-77555730D01*
X135791680Y-77511269D01*
X135789147Y-77456014D01*
X135781548Y-77405104D01*
X135766279Y-77351200D01*
X135744115Y-77303210D01*
X135719629Y-77266782D01*
X135681267Y-77226818D01*
X135637990Y-77198272D01*
X135589798Y-77181145D01*
X135536691Y-77175435D01*
X135486075Y-77181515D01*
X135436078Y-77199753D01*
X135403090Y-77218666D01*
X135364970Y-77249645D01*
X135332431Y-77288543D01*
X135305474Y-77335359D01*
X135300752Y-77345673D01*
X135296600Y-77345673D01*
X135275259Y-77300396D01*
X135248405Y-77256248D01*
X135215031Y-77215623D01*
X135196949Y-77198638D01*
X135152503Y-77169715D01*
X135105487Y-77153839D01*
X135052173Y-77147886D01*
X135046495Y-77147836D01*
X134991740Y-77152791D01*
X134941168Y-77167658D01*
X134894781Y-77192435D01*
X134852578Y-77227123D01*
X134830340Y-77251395D01*
X134801123Y-77292010D01*
X134777950Y-77336369D01*
X134760823Y-77384471D01*
X134749740Y-77436317D01*
X134744703Y-77491907D01*
X134744388Y-77510048D01*
X134744367Y-77511269D01*
X134633256Y-77511269D01*
X134633256Y-77036725D01*
X135902791Y-77036725D01*
X135902791Y-78905144D01*
G37*
D12*
%TO.C,J1*%
X144881000Y-98326000D02*
G75*
G02*
X144119000Y-98326000I-381000J0D01*
G01*
X144119000Y-98326000D02*
G75*
G02*
X144881000Y-98326000I381000J0D01*
G01*
D10*
%TO.C,BAT1*%
X183000000Y-91500000D02*
X183000000Y-98500000D01*
X185400000Y-101000000D02*
X170900000Y-101000000D01*
X170900000Y-89000000D01*
X185400000Y-89000000D01*
X185400000Y-101000000D01*
%TO.C,C13*%
X160659099Y-82219759D02*
X161719759Y-81159099D01*
X160659099Y-82219759D02*
G75*
G02*
X160446967Y-82219759I-106066J106066D01*
G01*
X161719759Y-80946967D02*
G75*
G02*
X161719759Y-81159099I-106066J-106066D01*
G01*
%TO.C,Q2*%
X123112500Y-81250000D02*
X124887500Y-81250000D01*
X123112500Y-84750000D02*
X124887500Y-84750000D01*
X122862500Y-81500000D02*
G75*
G02*
X123112500Y-81250000I250000J0D01*
G01*
X123112500Y-84750000D02*
G75*
G02*
X122862500Y-84500000I0J250000D01*
G01*
X125137500Y-84500000D02*
G75*
G02*
X124887500Y-84750000I-249999J-1D01*
G01*
X124887500Y-81250000D02*
X124887500Y-81250000D01*
G75*
G02*
X125137500Y-81500000I0J-250000D01*
G01*
X124887500Y-81500000D01*
X124887500Y-81250000D01*
%TO.C,R22*%
X144575000Y-86974999D02*
X145925000Y-86974999D01*
X144575000Y-86974999D02*
G75*
G02*
X144425001Y-86824999I0J149999D01*
G01*
X146075000Y-86824999D02*
G75*
G02*
X145925000Y-86974999I-150000J0D01*
G01*
%TO.C,Q3*%
X117112500Y-81250000D02*
X118887500Y-81250000D01*
X117112500Y-84750000D02*
X118887500Y-84750000D01*
X116862500Y-81500000D02*
G75*
G02*
X117112500Y-81250000I250000J0D01*
G01*
X117112500Y-84750000D02*
G75*
G02*
X116862500Y-84500000I0J250000D01*
G01*
X119137500Y-84500000D02*
G75*
G02*
X118887500Y-84750000I-249999J-1D01*
G01*
X118887500Y-81250000D02*
X118887500Y-81250000D01*
G75*
G02*
X119137500Y-81500000I0J-250000D01*
G01*
X118887500Y-81500000D01*
X118887500Y-81250000D01*
%TO.C,R15*%
X122725000Y-78675000D02*
X122725000Y-77325000D01*
X122575000Y-77175000D02*
G75*
G02*
X122725000Y-77325000I0J-150000D01*
G01*
X122725000Y-78675000D02*
G75*
G02*
X122575000Y-78825000I-150000J0D01*
G01*
%TO.C,C12*%
X167850001Y-82250000D02*
X169149999Y-82250000D01*
X167850001Y-82250000D02*
G75*
G02*
X167700000Y-82100000I-1J150000D01*
G01*
X169299999Y-82100000D02*
G75*
G02*
X169149999Y-82250000I-150000J0D01*
G01*
%TO.C,R7*%
X127275001Y-77325000D02*
X127275001Y-78675000D01*
X127275001Y-77325000D02*
G75*
G02*
X127425001Y-77175001I149999J0D01*
G01*
X127425001Y-78825000D02*
G75*
G02*
X127275001Y-78675000I0J150000D01*
G01*
%TO.C,R6*%
X165239949Y-84714645D02*
X164285355Y-83760051D01*
X164073223Y-83760051D02*
G75*
G02*
X164285355Y-83760051I106066J-106066D01*
G01*
X165239949Y-84714645D02*
G75*
G02*
X165239949Y-84926777I-106066J-106066D01*
G01*
%TO.C,BAT2*%
X117950000Y-98500000D02*
X117950000Y-91500000D01*
X115550000Y-89000000D02*
X130050000Y-89000000D01*
X130050000Y-101000000D01*
X115550000Y-101000000D01*
X115550000Y-89000000D01*
%TO.C,Q4*%
X151887500Y-81250000D02*
X150112500Y-81250000D01*
X151887500Y-84750000D02*
X150112500Y-84750000D01*
X149862500Y-81500000D02*
G75*
G02*
X150112500Y-81250000I249999J1D01*
G01*
X151887500Y-81250000D02*
G75*
G02*
X152137500Y-81500000I0J-250000D01*
G01*
X152137500Y-84500000D02*
G75*
G02*
X151887500Y-84750000I-250000J0D01*
G01*
X150112500Y-84750000D02*
X150112500Y-84750000D01*
G75*
G02*
X149862500Y-84500000I0J250000D01*
G01*
X150112500Y-84500000D01*
X150112500Y-84750000D01*
%TO.C,TH1*%
X161285355Y-85739949D02*
X162239949Y-84785355D01*
X161285355Y-85739949D02*
G75*
G02*
X161073223Y-85739949I-106066J106066D01*
G01*
X162239949Y-84573223D02*
G75*
G02*
X162239949Y-84785355I-106066J-106066D01*
G01*
%TO.C,U4*%
X164700000Y-80350000D02*
X164700000Y-80250000D01*
X164850000Y-80500000D02*
X168850000Y-80500000D01*
X169000000Y-80350000D02*
X169000000Y-80250000D01*
X164850000Y-80500000D02*
G75*
G02*
X164700000Y-80350000I0J150000D01*
G01*
X169000000Y-80350000D02*
G75*
G02*
X168850000Y-80500000I-150000J0D01*
G01*
D13*
X169125000Y-77550000D02*
G75*
G02*
X168875000Y-77550000I-125000J0D01*
G01*
X168875000Y-77550000D02*
G75*
G02*
X169125000Y-77550000I125000J0D01*
G01*
D10*
%TO.C,R5*%
X162525001Y-81000000D02*
X162525001Y-82350000D01*
X162525001Y-81000000D02*
G75*
G02*
X162675001Y-80850001I149999J0D01*
G01*
X162675001Y-82500000D02*
G75*
G02*
X162525001Y-82350000I0J150000D01*
G01*
%TO.C,R19*%
X139724999Y-83675000D02*
X139724999Y-82325000D01*
X139574999Y-82175000D02*
G75*
G02*
X139724999Y-82325000I0J-150000D01*
G01*
X139724999Y-83675000D02*
G75*
G02*
X139574999Y-83824999I-149999J0D01*
G01*
%TO.C,Q6*%
X133887500Y-81250000D02*
X132112500Y-81250000D01*
X133887500Y-84750000D02*
X132112500Y-84750000D01*
X131862500Y-81500000D02*
G75*
G02*
X132112500Y-81250000I249999J1D01*
G01*
X133887500Y-81250000D02*
G75*
G02*
X134137500Y-81500000I0J-250000D01*
G01*
X134137500Y-84500000D02*
G75*
G02*
X133887500Y-84750000I-250000J0D01*
G01*
X132112500Y-84750000D02*
X132112500Y-84750000D01*
G75*
G02*
X131862500Y-84500000I0J250000D01*
G01*
X132112500Y-84500000D01*
X132112500Y-84750000D01*
%TO.C,R18*%
X117325000Y-87724999D02*
X118675000Y-87724999D01*
X117325000Y-87724999D02*
G75*
G02*
X117175001Y-87574999I0J149999D01*
G01*
X118825000Y-87574999D02*
G75*
G02*
X118675000Y-87724999I-150000J0D01*
G01*
%TO.C,R10*%
X148724999Y-83675000D02*
X148724999Y-82325000D01*
X148574999Y-82175000D02*
G75*
G02*
X148724999Y-82325000I0J-150000D01*
G01*
X148724999Y-83675000D02*
G75*
G02*
X148574999Y-83824999I-149999J0D01*
G01*
%TO.C,R17*%
X123325000Y-87724999D02*
X124675000Y-87724999D01*
X123325000Y-87724999D02*
G75*
G02*
X123175001Y-87574999I0J149999D01*
G01*
X124825000Y-87574999D02*
G75*
G02*
X124675000Y-87724999I-150000J0D01*
G01*
%TO.C,R9*%
X139275000Y-77325000D02*
X139275000Y-78675000D01*
X139275000Y-77325000D02*
G75*
G02*
X139425000Y-77175000I150000J0D01*
G01*
X139425000Y-78825000D02*
G75*
G02*
X139275000Y-78675000I0J150000D01*
G01*
%TO.C,R20*%
X151325000Y-87724999D02*
X152675000Y-87724999D01*
X151325000Y-87724999D02*
G75*
G02*
X151175001Y-87574999I0J149999D01*
G01*
X152825000Y-87574999D02*
G75*
G02*
X152675000Y-87724999I-150000J0D01*
G01*
%TO.C,R23*%
X133325000Y-87724999D02*
X134675000Y-87724999D01*
X133325000Y-87724999D02*
G75*
G02*
X133175001Y-87574999I0J149999D01*
G01*
X134825000Y-87574999D02*
G75*
G02*
X134675000Y-87724999I-150000J0D01*
G01*
%TO.C,Q5*%
X142887500Y-81250000D02*
X141112500Y-81250000D01*
X142887500Y-84750000D02*
X141112500Y-84750000D01*
X140862500Y-81500000D02*
G75*
G02*
X141112500Y-81250000I249999J1D01*
G01*
X142887500Y-81250000D02*
G75*
G02*
X143137500Y-81500000I0J-250000D01*
G01*
X143137500Y-84500000D02*
G75*
G02*
X142887500Y-84750000I-250000J0D01*
G01*
X141112500Y-84750000D02*
X141112500Y-84750000D01*
G75*
G02*
X140862500Y-84500000I0J250000D01*
G01*
X141112500Y-84500000D01*
X141112500Y-84750000D01*
%TO.C,R16*%
X124275000Y-77325000D02*
X124275000Y-78675000D01*
X124275000Y-77325000D02*
G75*
G02*
X124425000Y-77175000I150000J0D01*
G01*
X124425000Y-78825000D02*
G75*
G02*
X124275000Y-78675000I0J150000D01*
G01*
%TO.C,R21*%
X130724999Y-83675000D02*
X130724999Y-82325000D01*
X130574999Y-82175000D02*
G75*
G02*
X130724999Y-82325000I0J-150000D01*
G01*
X130724999Y-83675000D02*
G75*
G02*
X130574999Y-83824999I-149999J0D01*
G01*
%TO.C,C11*%
X172900000Y-83350000D02*
X172900000Y-80650000D01*
X172750000Y-80500000D02*
G75*
G02*
X172900000Y-80650000I0J-150000D01*
G01*
X172900000Y-83350000D02*
G75*
G02*
X172750000Y-83500000I-150000J0D01*
G01*
%TO.C,R8*%
X133275001Y-77325000D02*
X133275001Y-78675000D01*
X133275001Y-77325000D02*
G75*
G02*
X133425001Y-77175001I149999J0D01*
G01*
X133425001Y-78825000D02*
G75*
G02*
X133275001Y-78675000I0J150000D01*
G01*
%TD*%
M02*
