M48
; DRILL file {KiCad 8.0.8} date 2025-01-25T09:27:54-0500
; FORMAT={-:-/ absolute / inch / decimal}
; #@! TF.CreationDate,2025-01-25T09:27:54-05:00
; #@! TF.GenerationSoftware,Kicad,Pcbnew,8.0.8
; #@! TF.FileFunction,Plated,1,2,PTH
FMAT,2
INCH
; #@! TA.AperFunction,Plated,PTH,ViaDrill
T1C0.0118
; #@! TA.AperFunction,Plated,PTH,ComponentDrill
T2C0.0157
; #@! TA.AperFunction,Plated,PTH,ComponentDrill
T3C0.0197
; #@! TA.AperFunction,Plated,PTH,ComponentDrill
T4C0.0276
; #@! TA.AperFunction,Plated,PTH,ComponentDrill
T5C0.0280
; #@! TA.AperFunction,Plated,PTH,ComponentDrill
T6C0.0315
; #@! TA.AperFunction,Plated,PTH,ComponentDrill
T7C0.0394
; #@! TA.AperFunction,Plated,PTH,ComponentDrill
T8C0.0728
%
G90
G05
T1
X3.4803Y-3.5335
X3.4803Y-3.9469
X3.5354Y-3.4803
X3.5354Y-4.0
X3.5433Y-3.5925
X3.5433Y-3.815
X3.5433Y-3.8898
X3.5906Y-3.5433
X3.5906Y-3.937
X3.8898Y-3.5433
X3.8898Y-3.937
X3.937Y-3.5906
X3.937Y-3.8898
X3.9469Y-3.4803
X3.9469Y-4.0
X4.0Y-3.5335
X4.0Y-3.9469
X4.6457Y-4.065
X4.6654Y-3.6909
X4.7537Y-3.0484
X4.8425Y-3.4646
X4.872Y-3.5335
X4.8917Y-3.8681
X4.9114Y-3.7205
X4.9213Y-3.9173
X4.9266Y-3.0679
X4.9783Y-3.6142
X4.9902Y-3.0413
X5.0197Y-3.563
X5.1181Y-3.2677
X5.1476Y-3.0512
X5.1609Y-3.1673
X5.1772Y-3.3661
X5.1969Y-3.5531
X5.2264Y-3.0413
X5.2362Y-3.5531
X5.3642Y-3.7697
X5.3839Y-3.0512
X5.4626Y-3.0413
X5.4724Y-3.2677
X5.5906Y-4.1831
X5.6299Y-3.0512
X5.8268Y-3.3366
X6.3543Y-3.2382
X6.3681Y-3.6516
X6.4222Y-3.1299
X6.437Y-4.4567
X6.4961Y-4.1929
X6.524Y-3.3251
X6.624Y-4.4193
X6.6732Y-3.3366
X6.7126Y-4.4646
X6.7618Y-3.2087
X6.7618Y-3.3366
T2
X7.0217Y-3.0719
X7.0217Y-3.1053
X7.0217Y-3.1388
X7.0217Y-3.1722
X7.0217Y-3.2057
X7.0217Y-3.2392
X7.0217Y-3.2726
X7.0217Y-3.3061
X7.0748Y-3.0719
X7.0748Y-3.1053
X7.0748Y-3.1388
X7.0748Y-3.1722
X7.0748Y-3.2057
X7.0748Y-3.2392
X7.0748Y-3.2726
X7.0748Y-3.3061
T5
X5.639Y-3.4811
X5.639Y-3.5311
X5.639Y-3.5811
X5.639Y-3.6311
X5.639Y-3.6811
X5.689Y-3.4811
X5.689Y-3.5311
X5.689Y-3.5811
X5.689Y-3.6311
X5.689Y-3.6811
T6
X6.3642Y-4.0157
X6.4429Y-4.0157
X6.5217Y-4.0157
X6.6004Y-4.0157
T7
X5.0689Y-4.2126
X5.3248Y-4.2126
T8
X6.3386Y-3.0407
X6.4136Y-3.4159
X6.5986Y-3.4159
X6.7837Y-3.4159
X6.8587Y-3.0407
X6.8596Y-3.9882
X6.8596Y-4.1732
X6.8596Y-4.3583
X7.2348Y-3.9132
X7.2348Y-4.4333
T3
G00X4.7224Y-3.7146
M15
G01X4.7224Y-3.7657
M16
G05
G00X5.0217Y-3.6142
M15
G01X5.0217Y-3.6654
M16
G05
G00X5.0217Y-3.815
M15
G01X5.0217Y-3.8661
M16
G05
G00X6.8268Y-3.6654
M15
G01X6.8268Y-3.6142
M16
G05
G00X6.8268Y-3.8661
M15
G01X6.8268Y-3.815
M16
G05
G00X7.126Y-3.7657
M15
G01X7.126Y-3.7146
M16
G05
T4
G00X7.0157Y-3.0189
M15
G01X7.0669Y-3.0189
M16
G05
G00X7.0157Y-3.3591
M15
G01X7.0669Y-3.3591
M16
G05
G00X7.187Y-3.0189
M15
G01X7.2224Y-3.0189
M16
G05
G00X7.187Y-3.3591
M15
G01X7.2224Y-3.3591
M16
G05
M30
