%TF.GenerationSoftware,KiCad,Pcbnew,8.0.8*%
%TF.CreationDate,2025-01-25T09:27:46-05:00*%
%TF.ProjectId,GF24,47463234-2e6b-4696-9361-645f70636258,rev?*%
%TF.SameCoordinates,Original*%
%TF.FileFunction,Legend,Top*%
%TF.FilePolarity,Positive*%
%FSLAX46Y46*%
G04 Gerber Fmt 4.6, Leading zero omitted, Abs format (unit mm)*
G04 Created by KiCad (PCBNEW 8.0.8) date 2025-01-25 09:27:46*
%MOMM*%
%LPD*%
G01*
G04 APERTURE LIST*
%ADD10C,0.100000*%
%ADD11C,0.150000*%
%ADD12C,0.249999*%
%ADD13C,0.250000*%
%ADD14C,0.120000*%
%ADD15C,0.152400*%
%ADD16C,0.508000*%
G04 APERTURE END LIST*
D10*
X115000000Y-75250000D02*
X115000000Y-114750000D01*
X147000000Y-75250000D02*
X159000000Y-75250000D01*
X159000000Y-95000000D01*
X147000000Y-95000000D01*
X147000000Y-75250000D01*
G36*
X126441743Y-95965716D02*
G01*
X125172208Y-95965716D01*
X125172208Y-95353174D01*
X125283319Y-95353174D01*
X125285486Y-95408221D01*
X125291989Y-95460763D01*
X125302828Y-95510803D01*
X125318001Y-95558338D01*
X125329532Y-95586528D01*
X125354165Y-95633933D01*
X125383783Y-95677048D01*
X125418385Y-95715875D01*
X125449552Y-95743765D01*
X125493917Y-95775226D01*
X125537408Y-95799040D01*
X125584714Y-95818946D01*
X125603402Y-95825318D01*
X125655502Y-95839248D01*
X125703794Y-95847780D01*
X125754611Y-95852899D01*
X125807952Y-95854605D01*
X125832355Y-95854279D01*
X125887107Y-95850980D01*
X125938797Y-95844127D01*
X125987425Y-95833722D01*
X126039250Y-95817480D01*
X126075300Y-95802545D01*
X126119546Y-95779479D01*
X126164104Y-95749224D01*
X126203137Y-95714410D01*
X126222822Y-95692771D01*
X126253987Y-95650937D01*
X126279666Y-95605393D01*
X126299857Y-95556140D01*
X126313321Y-95509322D01*
X126322938Y-95459970D01*
X126328709Y-95408083D01*
X126330632Y-95353663D01*
X126330596Y-95346314D01*
X126328312Y-95297060D01*
X126321351Y-95245463D01*
X126312695Y-95203910D01*
X126299369Y-95154605D01*
X126287703Y-95120098D01*
X126269327Y-95074493D01*
X126259189Y-95052638D01*
X126238552Y-95006105D01*
X126080527Y-95006105D01*
X126080527Y-95015631D01*
X126099304Y-95039331D01*
X126129254Y-95083344D01*
X126154258Y-95129096D01*
X126174317Y-95176587D01*
X126183323Y-95203681D01*
X126195688Y-95253984D01*
X126203107Y-95306258D01*
X126205580Y-95360502D01*
X126204114Y-95395825D01*
X126196421Y-95447094D01*
X126182132Y-95496301D01*
X126168714Y-95527411D01*
X126142691Y-95570299D01*
X126109592Y-95608653D01*
X126077435Y-95635729D01*
X126035836Y-95661767D01*
X125987715Y-95683879D01*
X125963573Y-95692252D01*
X125911033Y-95704741D01*
X125858892Y-95711128D01*
X125808685Y-95712944D01*
X125784200Y-95712532D01*
X125731787Y-95708591D01*
X125683083Y-95700476D01*
X125633319Y-95686566D01*
X125592678Y-95669949D01*
X125548673Y-95645178D01*
X125507778Y-95612560D01*
X125483934Y-95587419D01*
X125454464Y-95546558D01*
X125432551Y-95501918D01*
X125420862Y-95465668D01*
X125411228Y-95413547D01*
X125408371Y-95361967D01*
X125409099Y-95332639D01*
X125414075Y-95281291D01*
X125423765Y-95231797D01*
X125438169Y-95184158D01*
X125452912Y-95147662D01*
X125476881Y-95100566D01*
X125502924Y-95058541D01*
X125533423Y-95016364D01*
X125533423Y-95006105D01*
X125372956Y-95006105D01*
X125355244Y-95043105D01*
X125334942Y-95090435D01*
X125316626Y-95140944D01*
X125303102Y-95188555D01*
X125300707Y-95198815D01*
X125291047Y-95250173D01*
X125285251Y-95301626D01*
X125283319Y-95353174D01*
X125172208Y-95353174D01*
X125172208Y-94524459D01*
X125283319Y-94524459D01*
X125283338Y-94529226D01*
X125286101Y-94582333D01*
X125292670Y-94631663D01*
X125303102Y-94681995D01*
X125311933Y-94716024D01*
X125326518Y-94763216D01*
X125346333Y-94812177D01*
X125486529Y-94812177D01*
X125486529Y-94805338D01*
X125464843Y-94763769D01*
X125444845Y-94716170D01*
X125428887Y-94666608D01*
X125419912Y-94630368D01*
X125411256Y-94577955D01*
X125408371Y-94527878D01*
X125409015Y-94502070D01*
X125414966Y-94451674D01*
X125418812Y-94435081D01*
X125438413Y-94388415D01*
X125445068Y-94378237D01*
X125481644Y-94344452D01*
X125493605Y-94338266D01*
X125543193Y-94328576D01*
X125580516Y-94332468D01*
X125627629Y-94352905D01*
X125664093Y-94390858D01*
X125675985Y-94411282D01*
X125693721Y-94458356D01*
X125702791Y-94507819D01*
X125705370Y-94557431D01*
X125705370Y-94605547D01*
X125814791Y-94605547D01*
X125814791Y-94543754D01*
X125816508Y-94497629D01*
X125822607Y-94448987D01*
X125829371Y-94420292D01*
X125850939Y-94374005D01*
X125866637Y-94354296D01*
X125906382Y-94325645D01*
X125946133Y-94312456D01*
X125995042Y-94308059D01*
X126036152Y-94310639D01*
X126084924Y-94323691D01*
X126112731Y-94338854D01*
X126149892Y-94370586D01*
X126172815Y-94403057D01*
X126191658Y-94449720D01*
X126201175Y-94491220D01*
X126205580Y-94541556D01*
X126202953Y-94592762D01*
X126195074Y-94645297D01*
X126183354Y-94694207D01*
X126169943Y-94736960D01*
X126151087Y-94784806D01*
X126127422Y-94831472D01*
X126127422Y-94841730D01*
X126267617Y-94841730D01*
X126283305Y-94801829D01*
X126298126Y-94755001D01*
X126310848Y-94706419D01*
X126313244Y-94696091D01*
X126322904Y-94644160D01*
X126328700Y-94591753D01*
X126330632Y-94538869D01*
X126328414Y-94488150D01*
X126320850Y-94435445D01*
X126307917Y-94385973D01*
X126295003Y-94352206D01*
X126269793Y-94305907D01*
X126237576Y-94264828D01*
X126220940Y-94248248D01*
X126181362Y-94217330D01*
X126136947Y-94193265D01*
X126111073Y-94183368D01*
X126060106Y-94171436D01*
X126009697Y-94167864D01*
X125992634Y-94168196D01*
X125942715Y-94173861D01*
X125895636Y-94189113D01*
X125859805Y-94209950D01*
X125822118Y-94243335D01*
X125801101Y-94271719D01*
X125778887Y-94315631D01*
X125768380Y-94343723D01*
X125756173Y-94391102D01*
X125746892Y-94391102D01*
X125744698Y-94380959D01*
X125728379Y-94332793D01*
X125703139Y-94288872D01*
X125668978Y-94249197D01*
X125661141Y-94241921D01*
X125619496Y-94212583D01*
X125573748Y-94194981D01*
X125523898Y-94189113D01*
X125512586Y-94189336D01*
X125463433Y-94196282D01*
X125417408Y-94214514D01*
X125408962Y-94219490D01*
X125370276Y-94250741D01*
X125339495Y-94289497D01*
X125334139Y-94298205D01*
X125311545Y-94344709D01*
X125296752Y-94392567D01*
X125290258Y-94426008D01*
X125284906Y-94475044D01*
X125283319Y-94524459D01*
X125172208Y-94524459D01*
X125172208Y-94056753D01*
X126441743Y-94056753D01*
X126441743Y-95965716D01*
G37*
G36*
X122352061Y-97775405D02*
G01*
X122402233Y-97781330D01*
X122426500Y-97787007D01*
X122472331Y-97807220D01*
X122492638Y-97821784D01*
X122523378Y-97860709D01*
X122532277Y-97883606D01*
X122539009Y-97933249D01*
X122536550Y-97973803D01*
X122524110Y-98021909D01*
X122510818Y-98046971D01*
X122478437Y-98083703D01*
X122443847Y-98106697D01*
X122396860Y-98123026D01*
X122384575Y-98125487D01*
X122333953Y-98131795D01*
X122284264Y-98133528D01*
X122146755Y-98133528D01*
X122146755Y-97774003D01*
X122306734Y-97774003D01*
X122352061Y-97775405D01*
G37*
G36*
X124592339Y-98776112D02*
G01*
X121899845Y-98776112D01*
X121899845Y-98133528D01*
X122010956Y-98133528D01*
X122010956Y-98665001D01*
X122146755Y-98665001D01*
X122146755Y-98258580D01*
X122338486Y-98258580D01*
X122680670Y-98665001D01*
X122857258Y-98665001D01*
X122472575Y-98218525D01*
X122502010Y-98205958D01*
X122549852Y-98178861D01*
X122591088Y-98146006D01*
X122625715Y-98107394D01*
X122647414Y-98073417D01*
X122667481Y-98024718D01*
X122677922Y-97976694D01*
X122681403Y-97924212D01*
X122679907Y-97890198D01*
X122670381Y-97838197D01*
X122650140Y-97790855D01*
X122649338Y-97789634D01*
X123037509Y-97789634D01*
X123037509Y-97883423D01*
X123250489Y-97883423D01*
X123250489Y-98555580D01*
X123037509Y-98555580D01*
X123037509Y-98665001D01*
X123591207Y-98665001D01*
X123591207Y-98555580D01*
X123382380Y-98555580D01*
X123382380Y-97789634D01*
X123927530Y-97789634D01*
X123927530Y-97883423D01*
X124140510Y-97883423D01*
X124140510Y-98555580D01*
X123927530Y-98555580D01*
X123927530Y-98665001D01*
X124481228Y-98665001D01*
X124481228Y-98555580D01*
X124272401Y-98555580D01*
X124272401Y-97648950D01*
X124165911Y-97648950D01*
X124163163Y-97672269D01*
X124144906Y-97719048D01*
X124135014Y-97731428D01*
X124095080Y-97761790D01*
X124068226Y-97772496D01*
X124020098Y-97782551D01*
X123978097Y-97787393D01*
X123927530Y-97789634D01*
X123382380Y-97789634D01*
X123382380Y-97648950D01*
X123275890Y-97648950D01*
X123273142Y-97672269D01*
X123254885Y-97719048D01*
X123244993Y-97731428D01*
X123205060Y-97761790D01*
X123178205Y-97772496D01*
X123130077Y-97782551D01*
X123088076Y-97787393D01*
X123037509Y-97789634D01*
X122649338Y-97789634D01*
X122637557Y-97771707D01*
X122604404Y-97734579D01*
X122563189Y-97703416D01*
X122547467Y-97694264D01*
X122500210Y-97673588D01*
X122452059Y-97660918D01*
X122448166Y-97660182D01*
X122396732Y-97653169D01*
X122347206Y-97649897D01*
X122297453Y-97648950D01*
X122010956Y-97648950D01*
X122010956Y-98133528D01*
X121899845Y-98133528D01*
X121899845Y-97537839D01*
X124592339Y-97537839D01*
X124592339Y-98776112D01*
G37*
G36*
X124521676Y-92618892D02*
G01*
X124571039Y-92624979D01*
X124596733Y-92631470D01*
X124641137Y-92653799D01*
X124676300Y-92685523D01*
X124703175Y-92727316D01*
X124705482Y-92732684D01*
X124718579Y-92781807D01*
X124722226Y-92833806D01*
X124720830Y-92868373D01*
X124712793Y-92918249D01*
X124695212Y-92966366D01*
X124665073Y-93009905D01*
X124654027Y-93020861D01*
X124611781Y-93049598D01*
X124561186Y-93066361D01*
X124508513Y-93071210D01*
X124476983Y-93069218D01*
X124428402Y-93057044D01*
X124399441Y-93042833D01*
X124360014Y-93012348D01*
X124348207Y-93000249D01*
X124319463Y-92959457D01*
X124298464Y-92912452D01*
X124292061Y-92891493D01*
X124282511Y-92842883D01*
X124277627Y-92791506D01*
X124276238Y-92739773D01*
X124276971Y-92704113D01*
X124279169Y-92674560D01*
X124289081Y-92669245D01*
X124334655Y-92648021D01*
X124382240Y-92631817D01*
X124391701Y-92629329D01*
X124441196Y-92620560D01*
X124490684Y-92617896D01*
X124521676Y-92618892D01*
G37*
G36*
X124972799Y-93291742D02*
G01*
X123034283Y-93291742D01*
X123034283Y-92657951D01*
X123145394Y-92657951D01*
X123145720Y-92682354D01*
X123149019Y-92737106D01*
X123155872Y-92788796D01*
X123166277Y-92837424D01*
X123182519Y-92889249D01*
X123197454Y-92925299D01*
X123220520Y-92969545D01*
X123250775Y-93014103D01*
X123285589Y-93053136D01*
X123307228Y-93072821D01*
X123349062Y-93103986D01*
X123394606Y-93129665D01*
X123443859Y-93149856D01*
X123490677Y-93163320D01*
X123540029Y-93172937D01*
X123591916Y-93178708D01*
X123646336Y-93180631D01*
X123653685Y-93180595D01*
X123702939Y-93178311D01*
X123754536Y-93171350D01*
X123796089Y-93162694D01*
X123845394Y-93149368D01*
X123879901Y-93137702D01*
X123925506Y-93119326D01*
X123947361Y-93109188D01*
X123993894Y-93088551D01*
X123993894Y-92930526D01*
X123984368Y-92930526D01*
X123960668Y-92949303D01*
X123916655Y-92979253D01*
X123870903Y-93004257D01*
X123823412Y-93024316D01*
X123796318Y-93033322D01*
X123746015Y-93045687D01*
X123693741Y-93053106D01*
X123639497Y-93055579D01*
X123604174Y-93054113D01*
X123552905Y-93046420D01*
X123503698Y-93032131D01*
X123472588Y-93018713D01*
X123429700Y-92992690D01*
X123391346Y-92959591D01*
X123364270Y-92927434D01*
X123338232Y-92885835D01*
X123316120Y-92837714D01*
X123307747Y-92813572D01*
X123295258Y-92761032D01*
X123289901Y-92717302D01*
X124137508Y-92717302D01*
X124137633Y-92733459D01*
X124137913Y-92739773D01*
X124140039Y-92787692D01*
X124145507Y-92838325D01*
X124155506Y-92891783D01*
X124169504Y-92940540D01*
X124175742Y-92957577D01*
X124197314Y-93004849D01*
X124226313Y-93050620D01*
X124260607Y-93089284D01*
X124278882Y-93105530D01*
X124321954Y-93135310D01*
X124369783Y-93157672D01*
X124405624Y-93168770D01*
X124456778Y-93177918D01*
X124507048Y-93180631D01*
X124525520Y-93180248D01*
X124578748Y-93174494D01*
X124628697Y-93161838D01*
X124675365Y-93142277D01*
X124718754Y-93115813D01*
X124758862Y-93082445D01*
X124771314Y-93069949D01*
X124803849Y-93029781D01*
X124829154Y-92985594D01*
X124847228Y-92937388D01*
X124858073Y-92885164D01*
X124861688Y-92828921D01*
X124861659Y-92823254D01*
X124858081Y-92769550D01*
X124848540Y-92721235D01*
X124831158Y-92674316D01*
X124811608Y-92640197D01*
X124778149Y-92600114D01*
X124740055Y-92568803D01*
X124730277Y-92562194D01*
X124685210Y-92537029D01*
X124637962Y-92520443D01*
X124622086Y-92516995D01*
X124573573Y-92510450D01*
X124523168Y-92508475D01*
X124491834Y-92509340D01*
X124441980Y-92514847D01*
X124393475Y-92526549D01*
X124368923Y-92535262D01*
X124322893Y-92555724D01*
X124279902Y-92579549D01*
X124286200Y-92534863D01*
X124298496Y-92485175D01*
X124319375Y-92432632D01*
X124347289Y-92385932D01*
X124382240Y-92345076D01*
X124417308Y-92315610D01*
X124463516Y-92288937D01*
X124515428Y-92270563D01*
X124564464Y-92261418D01*
X124617690Y-92258370D01*
X124647858Y-92259778D01*
X124697069Y-92268384D01*
X124708728Y-92271543D01*
X124755199Y-92289633D01*
X124762037Y-92289633D01*
X124762037Y-92150170D01*
X124755023Y-92147881D01*
X124706350Y-92136981D01*
X124687965Y-92135049D01*
X124638450Y-92133318D01*
X124622668Y-92133486D01*
X124569384Y-92136718D01*
X124519138Y-92144064D01*
X124465435Y-92157498D01*
X124415701Y-92176304D01*
X124381125Y-92193601D01*
X124338871Y-92220323D01*
X124296591Y-92255384D01*
X124259874Y-92295739D01*
X124230046Y-92337367D01*
X124204553Y-92381896D01*
X124183396Y-92429325D01*
X124166573Y-92479654D01*
X124158200Y-92512762D01*
X124148862Y-92561617D01*
X124142305Y-92613393D01*
X124138530Y-92668092D01*
X124137508Y-92717302D01*
X123289901Y-92717302D01*
X123288871Y-92708891D01*
X123287055Y-92658684D01*
X123287467Y-92634199D01*
X123291408Y-92581786D01*
X123299523Y-92533082D01*
X123313433Y-92483318D01*
X123330050Y-92442677D01*
X123354821Y-92398672D01*
X123387439Y-92357777D01*
X123412580Y-92333933D01*
X123453441Y-92304463D01*
X123498081Y-92282550D01*
X123534331Y-92270861D01*
X123586452Y-92261227D01*
X123638032Y-92258370D01*
X123667360Y-92259098D01*
X123718708Y-92264074D01*
X123768202Y-92273764D01*
X123815841Y-92288168D01*
X123852337Y-92302911D01*
X123899433Y-92326880D01*
X123941458Y-92352923D01*
X123983635Y-92383422D01*
X123993894Y-92383422D01*
X123993894Y-92222955D01*
X123956894Y-92205243D01*
X123909564Y-92184941D01*
X123859055Y-92166625D01*
X123811444Y-92153101D01*
X123801184Y-92150706D01*
X123749826Y-92141046D01*
X123698373Y-92135250D01*
X123646825Y-92133318D01*
X123591778Y-92135485D01*
X123539236Y-92141988D01*
X123489196Y-92152827D01*
X123441661Y-92168000D01*
X123413471Y-92179531D01*
X123366066Y-92204164D01*
X123322951Y-92233782D01*
X123284124Y-92268384D01*
X123256234Y-92299551D01*
X123224773Y-92343916D01*
X123200959Y-92387407D01*
X123181053Y-92434713D01*
X123174681Y-92453401D01*
X123160751Y-92505501D01*
X123152219Y-92553793D01*
X123147100Y-92604610D01*
X123145394Y-92657951D01*
X123034283Y-92657951D01*
X123034283Y-92022207D01*
X124972799Y-92022207D01*
X124972799Y-93291742D01*
G37*
G36*
X172017368Y-112768316D02*
G01*
X172064847Y-112780577D01*
X172108272Y-112803349D01*
X172134544Y-112823667D01*
X172168513Y-112859811D01*
X172195956Y-112902756D01*
X172193186Y-112910625D01*
X172177090Y-112956938D01*
X172161029Y-113004850D01*
X172153053Y-113028372D01*
X172136103Y-113071039D01*
X172134162Y-113075924D01*
X172120340Y-113104378D01*
X172095045Y-113146863D01*
X172060645Y-113184612D01*
X172015154Y-113206338D01*
X171963681Y-113212456D01*
X171913396Y-113206588D01*
X171866403Y-113186580D01*
X171828126Y-113152372D01*
X171819309Y-113140752D01*
X171796182Y-113096903D01*
X171782691Y-113045183D01*
X171778789Y-112991905D01*
X171779298Y-112973795D01*
X171786929Y-112923074D01*
X171806149Y-112873062D01*
X171836674Y-112829728D01*
X171844031Y-112822008D01*
X171884450Y-112790881D01*
X171930928Y-112772205D01*
X171983464Y-112765980D01*
X172017368Y-112768316D01*
G37*
G36*
X172496552Y-112794787D02*
G01*
X172543962Y-112812307D01*
X172581859Y-112848046D01*
X172605221Y-112889828D01*
X172618885Y-112938941D01*
X172622892Y-112989951D01*
X172618646Y-113041852D01*
X172604169Y-113091892D01*
X172579417Y-113134543D01*
X172559089Y-113156622D01*
X172513834Y-113183238D01*
X172463401Y-113191207D01*
X172451626Y-113190977D01*
X172400134Y-113183831D01*
X172351294Y-113165073D01*
X172324362Y-113147069D01*
X172289294Y-113112785D01*
X172257993Y-113071039D01*
X172272648Y-113025000D01*
X172290722Y-112977739D01*
X172302347Y-112950142D01*
X172322718Y-112904710D01*
X172324480Y-112901227D01*
X172350714Y-112858271D01*
X172386465Y-112820691D01*
X172423023Y-112800705D01*
X172471461Y-112792847D01*
X172496552Y-112794787D01*
G37*
G36*
X172827792Y-113465228D02*
G01*
X171558257Y-113465228D01*
X171558257Y-112990684D01*
X171669368Y-112990684D01*
X171669389Y-112991905D01*
X171669704Y-113010046D01*
X171674741Y-113065636D01*
X171685824Y-113117482D01*
X171702951Y-113165584D01*
X171726124Y-113209943D01*
X171755341Y-113250558D01*
X171777579Y-113274830D01*
X171819782Y-113309518D01*
X171866169Y-113334295D01*
X171916741Y-113349161D01*
X171971496Y-113354117D01*
X171977174Y-113354067D01*
X172030488Y-113348114D01*
X172077504Y-113332238D01*
X172121950Y-113303314D01*
X172140032Y-113286329D01*
X172173406Y-113245705D01*
X172200260Y-113201557D01*
X172221601Y-113156280D01*
X172225753Y-113156280D01*
X172230475Y-113166594D01*
X172257432Y-113213410D01*
X172289971Y-113252308D01*
X172328091Y-113283286D01*
X172361079Y-113302200D01*
X172411076Y-113320438D01*
X172461692Y-113326517D01*
X172514799Y-113320808D01*
X172562991Y-113303681D01*
X172606268Y-113275135D01*
X172644630Y-113235171D01*
X172669116Y-113198743D01*
X172691280Y-113150753D01*
X172706549Y-113096849D01*
X172714148Y-113045939D01*
X172716681Y-112990684D01*
X172714839Y-112946223D01*
X172707763Y-112896191D01*
X172692802Y-112842400D01*
X172670617Y-112793542D01*
X172641210Y-112749616D01*
X172636472Y-112743786D01*
X172601246Y-112708156D01*
X172556580Y-112678541D01*
X172507213Y-112660773D01*
X172453143Y-112654850D01*
X172420806Y-112656731D01*
X172371026Y-112668713D01*
X172325160Y-112694173D01*
X172321977Y-112696688D01*
X172285015Y-112733416D01*
X172255944Y-112773258D01*
X172231127Y-112816294D01*
X172226974Y-112816294D01*
X172216644Y-112794396D01*
X172190190Y-112749758D01*
X172159293Y-112711535D01*
X172119752Y-112676587D01*
X172111234Y-112670613D01*
X172066812Y-112646522D01*
X172019337Y-112632068D01*
X171968810Y-112627250D01*
X171936753Y-112628788D01*
X171884180Y-112638881D01*
X171836094Y-112658394D01*
X171792497Y-112687327D01*
X171753387Y-112725680D01*
X171738372Y-112744776D01*
X171712773Y-112786536D01*
X171693081Y-112833053D01*
X171679296Y-112884327D01*
X171671419Y-112940357D01*
X171669368Y-112990684D01*
X171558257Y-112990684D01*
X171558257Y-112146336D01*
X171669368Y-112146336D01*
X171669404Y-112153685D01*
X171671688Y-112202939D01*
X171678649Y-112254536D01*
X171687305Y-112296089D01*
X171700631Y-112345394D01*
X171712297Y-112379901D01*
X171730673Y-112425506D01*
X171740811Y-112447361D01*
X171761448Y-112493894D01*
X171919473Y-112493894D01*
X171919473Y-112484368D01*
X171900696Y-112460668D01*
X171870746Y-112416655D01*
X171845742Y-112370903D01*
X171825683Y-112323412D01*
X171816677Y-112296318D01*
X171804312Y-112246015D01*
X171796893Y-112193741D01*
X171794420Y-112139497D01*
X171795886Y-112104174D01*
X171803579Y-112052905D01*
X171817868Y-112003698D01*
X171831286Y-111972588D01*
X171857309Y-111929700D01*
X171890408Y-111891346D01*
X171922565Y-111864270D01*
X171964164Y-111838232D01*
X172012285Y-111816120D01*
X172036427Y-111807747D01*
X172088967Y-111795258D01*
X172141108Y-111788871D01*
X172191315Y-111787055D01*
X172215800Y-111787467D01*
X172268213Y-111791408D01*
X172316917Y-111799523D01*
X172366681Y-111813433D01*
X172407322Y-111830050D01*
X172451327Y-111854821D01*
X172492222Y-111887439D01*
X172516066Y-111912580D01*
X172545536Y-111953441D01*
X172567449Y-111998081D01*
X172579138Y-112034331D01*
X172588772Y-112086452D01*
X172591629Y-112138032D01*
X172590901Y-112167360D01*
X172585925Y-112218708D01*
X172576235Y-112268202D01*
X172561831Y-112315841D01*
X172547088Y-112352337D01*
X172523119Y-112399433D01*
X172497076Y-112441458D01*
X172466577Y-112483635D01*
X172466577Y-112493894D01*
X172627044Y-112493894D01*
X172644756Y-112456894D01*
X172665058Y-112409564D01*
X172683374Y-112359055D01*
X172696898Y-112311444D01*
X172699293Y-112301184D01*
X172708953Y-112249826D01*
X172714749Y-112198373D01*
X172716681Y-112146825D01*
X172714514Y-112091778D01*
X172708011Y-112039236D01*
X172697172Y-111989196D01*
X172681999Y-111941661D01*
X172670468Y-111913471D01*
X172645835Y-111866066D01*
X172616217Y-111822951D01*
X172581615Y-111784124D01*
X172550448Y-111756234D01*
X172506083Y-111724773D01*
X172462592Y-111700959D01*
X172415286Y-111681053D01*
X172396598Y-111674681D01*
X172344498Y-111660751D01*
X172296206Y-111652219D01*
X172245389Y-111647100D01*
X172192048Y-111645394D01*
X172167645Y-111645720D01*
X172112893Y-111649019D01*
X172061203Y-111655872D01*
X172012575Y-111666277D01*
X171960750Y-111682519D01*
X171924700Y-111697454D01*
X171880454Y-111720520D01*
X171835896Y-111750775D01*
X171796863Y-111785589D01*
X171777178Y-111807228D01*
X171746013Y-111849062D01*
X171720334Y-111894606D01*
X171700143Y-111943859D01*
X171686679Y-111990677D01*
X171677062Y-112040029D01*
X171671291Y-112091916D01*
X171669368Y-112146336D01*
X171558257Y-112146336D01*
X171558257Y-111534283D01*
X172827792Y-111534283D01*
X172827792Y-113465228D01*
G37*
G36*
X172272651Y-107268109D02*
G01*
X171810788Y-107268109D01*
X171810788Y-106871702D01*
X172272651Y-107268109D01*
G37*
G36*
X172562792Y-107662785D02*
G01*
X171293257Y-107662785D01*
X171293257Y-107268109D01*
X171420000Y-107268109D01*
X171420000Y-107400000D01*
X171701367Y-107400000D01*
X171701367Y-107551674D01*
X171810788Y-107551674D01*
X171810788Y-107400000D01*
X172436050Y-107400000D01*
X172436050Y-107273482D01*
X171859392Y-106778402D01*
X171701367Y-106778402D01*
X171701367Y-107268109D01*
X171420000Y-107268109D01*
X171293257Y-107268109D01*
X171293257Y-105674912D01*
X171420000Y-105674912D01*
X171420000Y-105824633D01*
X172263370Y-106034926D01*
X171420000Y-106249860D01*
X171420000Y-106403245D01*
X172436050Y-106668981D01*
X172436050Y-106535624D01*
X171583154Y-106322156D01*
X172436050Y-106108444D01*
X172436050Y-105970446D01*
X171591214Y-105758688D01*
X172436050Y-105543754D01*
X172436050Y-105404291D01*
X171420000Y-105674912D01*
X171293257Y-105674912D01*
X171293257Y-104855233D01*
X171404368Y-104855233D01*
X171404750Y-104880532D01*
X171408399Y-104934020D01*
X171415912Y-104982756D01*
X171428792Y-105031333D01*
X171444038Y-105071100D01*
X171466764Y-105115768D01*
X171496692Y-105159560D01*
X171512331Y-105177555D01*
X171550458Y-105211182D01*
X171594389Y-105237474D01*
X171612438Y-105245495D01*
X171659699Y-105259988D01*
X171711137Y-105265317D01*
X171737553Y-105264417D01*
X171791465Y-105255804D01*
X171837725Y-105238073D01*
X171880153Y-105207676D01*
X171908424Y-105175329D01*
X171935704Y-105130509D01*
X171955930Y-105083175D01*
X171970523Y-105035973D01*
X171979305Y-104998302D01*
X171989655Y-104946736D01*
X171998122Y-104898464D01*
X172002295Y-104874031D01*
X172011483Y-104822785D01*
X172021325Y-104773412D01*
X172027690Y-104748684D01*
X172046323Y-104699310D01*
X172076280Y-104657397D01*
X172080903Y-104653404D01*
X172125447Y-104630735D01*
X172175443Y-104624424D01*
X172207255Y-104628561D01*
X172252439Y-104652930D01*
X172284375Y-104690614D01*
X172296548Y-104712418D01*
X172314704Y-104762287D01*
X172323988Y-104814308D01*
X172326629Y-104866224D01*
X172324675Y-104915760D01*
X172318813Y-104964715D01*
X172309043Y-105013091D01*
X172295366Y-105060886D01*
X172291426Y-105072649D01*
X172272136Y-105122016D01*
X172247711Y-105170025D01*
X172217208Y-105214515D01*
X172217208Y-105224040D01*
X172379630Y-105224040D01*
X172385268Y-105210852D01*
X172402823Y-105164255D01*
X172418470Y-105113603D01*
X172430921Y-105064550D01*
X172439010Y-105024362D01*
X172446491Y-104970150D01*
X172450384Y-104919561D01*
X172451681Y-104866713D01*
X172450969Y-104835945D01*
X172446613Y-104786937D01*
X172436160Y-104731874D01*
X172420006Y-104680898D01*
X172398150Y-104634009D01*
X172370593Y-104591207D01*
X172349603Y-104565790D01*
X172309418Y-104529466D01*
X172264839Y-104503520D01*
X172215866Y-104487952D01*
X172162498Y-104482763D01*
X172122475Y-104485064D01*
X172073680Y-104495292D01*
X172025026Y-104516578D01*
X171982979Y-104548220D01*
X171970419Y-104561157D01*
X171940389Y-104601702D01*
X171915396Y-104651039D01*
X171897659Y-104701422D01*
X171885526Y-104749965D01*
X171879776Y-104779107D01*
X171871006Y-104827432D01*
X171863056Y-104877460D01*
X171861367Y-104888650D01*
X171852404Y-104938886D01*
X171840830Y-104989079D01*
X171837362Y-105001505D01*
X171819459Y-105048307D01*
X171791004Y-105090195D01*
X171784740Y-105096175D01*
X171740814Y-105118134D01*
X171692086Y-105123656D01*
X171652796Y-105118092D01*
X171607681Y-105093363D01*
X171573628Y-105053314D01*
X171554287Y-105014632D01*
X171539134Y-104962722D01*
X171531536Y-104909118D01*
X171529420Y-104856455D01*
X171530975Y-104816844D01*
X171537541Y-104764131D01*
X171547693Y-104715588D01*
X171561905Y-104665457D01*
X171579872Y-104616150D01*
X171601289Y-104569836D01*
X171626156Y-104526513D01*
X171654473Y-104486183D01*
X171654473Y-104476657D01*
X171485457Y-104476657D01*
X171473346Y-104505125D01*
X171453981Y-104555978D01*
X171437746Y-104606328D01*
X171424640Y-104656176D01*
X171416741Y-104695921D01*
X171409436Y-104750148D01*
X171405635Y-104801302D01*
X171404368Y-104855233D01*
X171293257Y-104855233D01*
X171293257Y-104365546D01*
X172562792Y-104365546D01*
X172562792Y-107662785D01*
G37*
G36*
X160081906Y-93849504D02*
G01*
X160136219Y-93850782D01*
X160185779Y-93853411D01*
X160235272Y-93857919D01*
X160266833Y-93862407D01*
X160316641Y-93873581D01*
X160364476Y-93890648D01*
X160367808Y-93892117D01*
X160411432Y-93918736D01*
X160444832Y-93956593D01*
X160451014Y-93967561D01*
X160466857Y-94014810D01*
X160471210Y-94063572D01*
X160470775Y-94080363D01*
X160463352Y-94129033D01*
X160443367Y-94173970D01*
X160441602Y-94176546D01*
X160406683Y-94212778D01*
X160362522Y-94238205D01*
X160333396Y-94249471D01*
X160286273Y-94262363D01*
X160235027Y-94270445D01*
X160211894Y-94272627D01*
X160160545Y-94275880D01*
X160108540Y-94277544D01*
X160057707Y-94278017D01*
X160033832Y-94277883D01*
X159981900Y-94276606D01*
X159932441Y-94273977D01*
X159880387Y-94269469D01*
X159851152Y-94265739D01*
X159799174Y-94255137D01*
X159749473Y-94237473D01*
X159746141Y-94235914D01*
X159702578Y-94208408D01*
X159669361Y-94170550D01*
X159663121Y-94159636D01*
X159647132Y-94112452D01*
X159642739Y-94063572D01*
X159642843Y-94055513D01*
X159649394Y-94004282D01*
X159669361Y-93956838D01*
X159671035Y-93954260D01*
X159704695Y-93917684D01*
X159748007Y-93891381D01*
X159779655Y-93878662D01*
X159827563Y-93865730D01*
X159877212Y-93857919D01*
X159901611Y-93855457D01*
X159954381Y-93851783D01*
X160006401Y-93849905D01*
X160056242Y-93849371D01*
X160081906Y-93849504D01*
G37*
G36*
X160691742Y-96410726D02*
G01*
X159422207Y-96410726D01*
X159422207Y-95798184D01*
X159533318Y-95798184D01*
X159535485Y-95853231D01*
X159541988Y-95905773D01*
X159552827Y-95955813D01*
X159568000Y-96003348D01*
X159579531Y-96031538D01*
X159604164Y-96078943D01*
X159633782Y-96122058D01*
X159668384Y-96160885D01*
X159699551Y-96188775D01*
X159743916Y-96220236D01*
X159787407Y-96244050D01*
X159834713Y-96263956D01*
X159853401Y-96270328D01*
X159905501Y-96284258D01*
X159953793Y-96292790D01*
X160004610Y-96297909D01*
X160057951Y-96299615D01*
X160082354Y-96299289D01*
X160137106Y-96295990D01*
X160188796Y-96289137D01*
X160237424Y-96278732D01*
X160289249Y-96262490D01*
X160325299Y-96247555D01*
X160369545Y-96224489D01*
X160414103Y-96194234D01*
X160453136Y-96159420D01*
X160472821Y-96137781D01*
X160503986Y-96095947D01*
X160529665Y-96050403D01*
X160549856Y-96001150D01*
X160563320Y-95954332D01*
X160572937Y-95904980D01*
X160578708Y-95853093D01*
X160580631Y-95798673D01*
X160580595Y-95791324D01*
X160578311Y-95742070D01*
X160571350Y-95690473D01*
X160562694Y-95648920D01*
X160549368Y-95599615D01*
X160537702Y-95565108D01*
X160519326Y-95519503D01*
X160509188Y-95497648D01*
X160488551Y-95451115D01*
X160330526Y-95451115D01*
X160330526Y-95460641D01*
X160349303Y-95484341D01*
X160379253Y-95528354D01*
X160404257Y-95574106D01*
X160424316Y-95621597D01*
X160433322Y-95648691D01*
X160445687Y-95698994D01*
X160453106Y-95751268D01*
X160455579Y-95805512D01*
X160454113Y-95840835D01*
X160446420Y-95892104D01*
X160432131Y-95941311D01*
X160418713Y-95972421D01*
X160392690Y-96015309D01*
X160359591Y-96053663D01*
X160327434Y-96080739D01*
X160285835Y-96106777D01*
X160237714Y-96128889D01*
X160213572Y-96137262D01*
X160161032Y-96149751D01*
X160108891Y-96156138D01*
X160058684Y-96157954D01*
X160034199Y-96157542D01*
X159981786Y-96153601D01*
X159933082Y-96145486D01*
X159883318Y-96131576D01*
X159842677Y-96114959D01*
X159798672Y-96090188D01*
X159757777Y-96057570D01*
X159733933Y-96032429D01*
X159704463Y-95991568D01*
X159682550Y-95946928D01*
X159670861Y-95910678D01*
X159661227Y-95858557D01*
X159658370Y-95806977D01*
X159659098Y-95777649D01*
X159664074Y-95726301D01*
X159673764Y-95676807D01*
X159688168Y-95629168D01*
X159702911Y-95592672D01*
X159726880Y-95545576D01*
X159752923Y-95503551D01*
X159783422Y-95461374D01*
X159783422Y-95451115D01*
X159622955Y-95451115D01*
X159605243Y-95488115D01*
X159584941Y-95535445D01*
X159566625Y-95585954D01*
X159553101Y-95633565D01*
X159550706Y-95643825D01*
X159541046Y-95695183D01*
X159535250Y-95746636D01*
X159533318Y-95798184D01*
X159422207Y-95798184D01*
X159422207Y-94865665D01*
X159548949Y-94865665D01*
X159548949Y-94972155D01*
X159572268Y-94974903D01*
X159619047Y-94993160D01*
X159631427Y-95003052D01*
X159661789Y-95042986D01*
X159672495Y-95069840D01*
X159682550Y-95117968D01*
X159687392Y-95159969D01*
X159689633Y-95210536D01*
X159783422Y-95210536D01*
X159783422Y-94997556D01*
X160455579Y-94997556D01*
X160455579Y-95210536D01*
X160565000Y-95210536D01*
X160565000Y-94656838D01*
X160455579Y-94656838D01*
X160455579Y-94865665D01*
X159548949Y-94865665D01*
X159422207Y-94865665D01*
X159422207Y-94063572D01*
X159533318Y-94063572D01*
X159534443Y-94096889D01*
X159541317Y-94148660D01*
X159557815Y-94204582D01*
X159583311Y-94253738D01*
X159617807Y-94296127D01*
X159661301Y-94331750D01*
X159686532Y-94347071D01*
X159734070Y-94369257D01*
X159788465Y-94387257D01*
X159836919Y-94398643D01*
X159889761Y-94407350D01*
X159946992Y-94413377D01*
X160008612Y-94416726D01*
X160057707Y-94417480D01*
X160074212Y-94417397D01*
X160137539Y-94415411D01*
X160196562Y-94410776D01*
X160251280Y-94403492D01*
X160301693Y-94393560D01*
X160358656Y-94377421D01*
X160408893Y-94357143D01*
X160452404Y-94332727D01*
X160482457Y-94309929D01*
X160520024Y-94269921D01*
X160548574Y-94222940D01*
X160568109Y-94168987D01*
X160577500Y-94118701D01*
X160580631Y-94063572D01*
X160579519Y-94030427D01*
X160572724Y-93978896D01*
X160556415Y-93923183D01*
X160531210Y-93874150D01*
X160497110Y-93831798D01*
X160454113Y-93796126D01*
X160429077Y-93780718D01*
X160381711Y-93758406D01*
X160327296Y-93740303D01*
X160278690Y-93728852D01*
X160225573Y-93720096D01*
X160167945Y-93714034D01*
X160105806Y-93710666D01*
X160056242Y-93709908D01*
X160039946Y-93709991D01*
X159977359Y-93711983D01*
X159918924Y-93716632D01*
X159864641Y-93723936D01*
X159814510Y-93733896D01*
X159757685Y-93750082D01*
X159707348Y-93770418D01*
X159663499Y-93794905D01*
X159632988Y-93817642D01*
X159594849Y-93857559D01*
X159565863Y-93904448D01*
X159546031Y-93958309D01*
X159536496Y-94008519D01*
X159533318Y-94063572D01*
X159422207Y-94063572D01*
X159422207Y-93598797D01*
X160691742Y-93598797D01*
X160691742Y-96410726D01*
G37*
G36*
X139548802Y-102768439D02*
G01*
X139596908Y-102780879D01*
X139621970Y-102794171D01*
X139658702Y-102826552D01*
X139681696Y-102861142D01*
X139698025Y-102908129D01*
X139700486Y-102920414D01*
X139706794Y-102971036D01*
X139708527Y-103020725D01*
X139708527Y-103158234D01*
X139349002Y-103158234D01*
X139349002Y-102998255D01*
X139350404Y-102952928D01*
X139356329Y-102902756D01*
X139362006Y-102878489D01*
X139382219Y-102832658D01*
X139396783Y-102812351D01*
X139435708Y-102781611D01*
X139458605Y-102772712D01*
X139508248Y-102765980D01*
X139548802Y-102768439D01*
G37*
G36*
X140351111Y-103405144D02*
G01*
X139097207Y-103405144D01*
X139097207Y-103007536D01*
X139223949Y-103007536D01*
X139223949Y-103294033D01*
X140240000Y-103294033D01*
X140240000Y-103158234D01*
X139833579Y-103158234D01*
X139833579Y-102966503D01*
X140240000Y-102624319D01*
X140240000Y-102447731D01*
X139793524Y-102832414D01*
X139780957Y-102802979D01*
X139753860Y-102755137D01*
X139721005Y-102713901D01*
X139682393Y-102679274D01*
X139648416Y-102657575D01*
X139599717Y-102637508D01*
X139551693Y-102627067D01*
X139499211Y-102623586D01*
X139465197Y-102625082D01*
X139413196Y-102634608D01*
X139365854Y-102654849D01*
X139346706Y-102667432D01*
X139309578Y-102700585D01*
X139278415Y-102741800D01*
X139269263Y-102757522D01*
X139248587Y-102804779D01*
X139235917Y-102852930D01*
X139235181Y-102856823D01*
X139228168Y-102908257D01*
X139224896Y-102957783D01*
X139224126Y-102998255D01*
X139223949Y-103007536D01*
X139097207Y-103007536D01*
X139097207Y-102034472D01*
X139208318Y-102034472D01*
X139208337Y-102039255D01*
X139211065Y-102092495D01*
X139217553Y-102141897D01*
X139227857Y-102192253D01*
X139236497Y-102226282D01*
X139250878Y-102273475D01*
X139270600Y-102322435D01*
X139411528Y-102322435D01*
X139411528Y-102315596D01*
X139388778Y-102271909D01*
X139368326Y-102223082D01*
X139352665Y-102173447D01*
X139345147Y-102142094D01*
X139336555Y-102090632D01*
X139333370Y-102038136D01*
X139336809Y-101988409D01*
X139350353Y-101936604D01*
X139376845Y-101891346D01*
X139403947Y-101865962D01*
X139448317Y-101845039D01*
X139497257Y-101838834D01*
X139507775Y-101839025D01*
X139558989Y-101845703D01*
X139607914Y-101861922D01*
X139654549Y-101887682D01*
X139659133Y-101890802D01*
X139699372Y-101921611D01*
X139739790Y-101957108D01*
X139778304Y-101993879D01*
X139813128Y-102028995D01*
X139850432Y-102068178D01*
X139868921Y-102087962D01*
X139902291Y-102124805D01*
X139935777Y-102163233D01*
X139969378Y-102203244D01*
X139988008Y-102225901D01*
X140021571Y-102266623D01*
X140055173Y-102307268D01*
X140088813Y-102347836D01*
X140240000Y-102347836D01*
X140240000Y-101655408D01*
X140114947Y-101655408D01*
X140114947Y-102205687D01*
X140093446Y-102179855D01*
X140059907Y-102139723D01*
X140024822Y-102097930D01*
X139992337Y-102059385D01*
X139958968Y-102020490D01*
X139925048Y-101982204D01*
X139890580Y-101944530D01*
X139855561Y-101907466D01*
X139840434Y-101891743D01*
X139803114Y-101854435D01*
X139766168Y-101820027D01*
X139763648Y-101817777D01*
X139725502Y-101786200D01*
X139684103Y-101757013D01*
X139638613Y-101731733D01*
X139590558Y-101713537D01*
X139584331Y-101711733D01*
X139535741Y-101701912D01*
X139483824Y-101698638D01*
X139468154Y-101698988D01*
X139416556Y-101705710D01*
X139363769Y-101723868D01*
X139317576Y-101753200D01*
X139282568Y-101788031D01*
X139257334Y-101823858D01*
X139234494Y-101871711D01*
X139218759Y-101926086D01*
X139210928Y-101977883D01*
X139208318Y-102034472D01*
X139097207Y-102034472D01*
X139097207Y-101544297D01*
X140351111Y-101544297D01*
X140351111Y-103405144D01*
G37*
G36*
X123919592Y-100996429D02*
G01*
X123950651Y-101029472D01*
X123981938Y-101069138D01*
X123995084Y-101090311D01*
X124013198Y-101137011D01*
X124017259Y-101161669D01*
X124011471Y-101210930D01*
X124001573Y-101233413D01*
X123971231Y-101273276D01*
X123940816Y-101300214D01*
X123898003Y-101325433D01*
X123870883Y-101333756D01*
X123822013Y-101336832D01*
X123781295Y-101328633D01*
X123736524Y-101306954D01*
X123726096Y-101300008D01*
X123685841Y-101268673D01*
X123649480Y-101234763D01*
X123552246Y-101137530D01*
X123806469Y-100883307D01*
X123919592Y-100996429D01*
G37*
G36*
X125755081Y-102475826D02*
G01*
X124868437Y-103362470D01*
X124221682Y-102715715D01*
X124378816Y-102715715D01*
X124868437Y-103205336D01*
X124956863Y-103116910D01*
X124567756Y-102727804D01*
X124601226Y-102730866D01*
X124653319Y-102735528D01*
X124707680Y-102740272D01*
X124757905Y-102744557D01*
X124809005Y-102748464D01*
X124860061Y-102751551D01*
X124911074Y-102753818D01*
X124962044Y-102755265D01*
X124983858Y-102755686D01*
X125036628Y-102755677D01*
X125087083Y-102753883D01*
X125090456Y-102753692D01*
X125139758Y-102749047D01*
X125189670Y-102740412D01*
X125239711Y-102726120D01*
X125286558Y-102705007D01*
X125292237Y-102701880D01*
X125333540Y-102674466D01*
X125372565Y-102640070D01*
X125383399Y-102628743D01*
X125415131Y-102587504D01*
X125439617Y-102537339D01*
X125451539Y-102483935D01*
X125451665Y-102434550D01*
X125444174Y-102391374D01*
X125426487Y-102341386D01*
X125399165Y-102291811D01*
X125368076Y-102249647D01*
X125329907Y-102207787D01*
X125326512Y-102204419D01*
X125286936Y-102168702D01*
X125247416Y-102138357D01*
X125204523Y-102110036D01*
X125174351Y-102092083D01*
X125130812Y-102068882D01*
X125082247Y-102048207D01*
X124982596Y-102147858D01*
X124987431Y-102152694D01*
X125034409Y-102167499D01*
X125083397Y-102187563D01*
X125129568Y-102211587D01*
X125157054Y-102228440D01*
X125199519Y-102258754D01*
X125238891Y-102293622D01*
X125271622Y-102331216D01*
X125298677Y-102377425D01*
X125311946Y-102428160D01*
X125310731Y-102465273D01*
X125294151Y-102511442D01*
X125263933Y-102550435D01*
X125256361Y-102557738D01*
X125215425Y-102589230D01*
X125169361Y-102612356D01*
X125118170Y-102627117D01*
X125112723Y-102628152D01*
X125062485Y-102634820D01*
X125008804Y-102638300D01*
X124955569Y-102639532D01*
X124906115Y-102639325D01*
X124852030Y-102637997D01*
X124824967Y-102637082D01*
X124775319Y-102634626D01*
X124724469Y-102631131D01*
X124672416Y-102626599D01*
X124643222Y-102623751D01*
X124590695Y-102618689D01*
X124538194Y-102613708D01*
X124485721Y-102608810D01*
X124378816Y-102715715D01*
X124221682Y-102715715D01*
X123649162Y-102143195D01*
X123806297Y-102143195D01*
X124197821Y-102534719D01*
X124275193Y-102457347D01*
X124127529Y-102309684D01*
X124768613Y-101668600D01*
X124693314Y-101593300D01*
X124674881Y-101607846D01*
X124628894Y-101628014D01*
X124613146Y-101629773D01*
X124563439Y-101623005D01*
X124536880Y-101611587D01*
X124495738Y-101584665D01*
X124462615Y-101558389D01*
X124425274Y-101524218D01*
X124358955Y-101590537D01*
X124509555Y-101741136D01*
X124034268Y-102216423D01*
X123883669Y-102065823D01*
X123806297Y-102143195D01*
X123649162Y-102143195D01*
X122923280Y-101417313D01*
X123080414Y-101417313D01*
X123176439Y-101513337D01*
X123463821Y-101225955D01*
X123599395Y-101361529D01*
X123553974Y-101890872D01*
X123678840Y-102015738D01*
X123722534Y-101428021D01*
X123752233Y-101439948D01*
X123805224Y-101454617D01*
X123857614Y-101460543D01*
X123909402Y-101457726D01*
X123948770Y-101449044D01*
X123997396Y-101428798D01*
X124038737Y-101402223D01*
X124078308Y-101367574D01*
X124101302Y-101342465D01*
X124131336Y-101298959D01*
X124150499Y-101251170D01*
X124155142Y-101228733D01*
X124157953Y-101179037D01*
X124150845Y-101127858D01*
X124146199Y-101110270D01*
X124127404Y-101062233D01*
X124102314Y-101019226D01*
X124100083Y-101015953D01*
X124068672Y-100974625D01*
X124035966Y-100937291D01*
X124001454Y-100901441D01*
X123798870Y-100698857D01*
X123360197Y-101137530D01*
X123080414Y-101417313D01*
X122923280Y-101417313D01*
X123809924Y-100530669D01*
X125755081Y-102475826D01*
G37*
G36*
X162441742Y-109810726D02*
G01*
X161172207Y-109810726D01*
X161172207Y-109198184D01*
X161283318Y-109198184D01*
X161285485Y-109253231D01*
X161291988Y-109305773D01*
X161302827Y-109355813D01*
X161318000Y-109403348D01*
X161329531Y-109431538D01*
X161354164Y-109478943D01*
X161383782Y-109522058D01*
X161418384Y-109560885D01*
X161449551Y-109588775D01*
X161493916Y-109620236D01*
X161537407Y-109644050D01*
X161584713Y-109663956D01*
X161603401Y-109670328D01*
X161655501Y-109684258D01*
X161703793Y-109692790D01*
X161754610Y-109697909D01*
X161807951Y-109699615D01*
X161832354Y-109699289D01*
X161887106Y-109695990D01*
X161938796Y-109689137D01*
X161987424Y-109678732D01*
X162039249Y-109662490D01*
X162075299Y-109647555D01*
X162119545Y-109624489D01*
X162164103Y-109594234D01*
X162203136Y-109559420D01*
X162222821Y-109537781D01*
X162253986Y-109495947D01*
X162279665Y-109450403D01*
X162299856Y-109401150D01*
X162313320Y-109354332D01*
X162322937Y-109304980D01*
X162328708Y-109253093D01*
X162330631Y-109198673D01*
X162330595Y-109191324D01*
X162328311Y-109142070D01*
X162321350Y-109090473D01*
X162312694Y-109048920D01*
X162299368Y-108999615D01*
X162287702Y-108965108D01*
X162269326Y-108919503D01*
X162259188Y-108897648D01*
X162238551Y-108851115D01*
X162080526Y-108851115D01*
X162080526Y-108860641D01*
X162099303Y-108884341D01*
X162129253Y-108928354D01*
X162154257Y-108974106D01*
X162174316Y-109021597D01*
X162183322Y-109048691D01*
X162195687Y-109098994D01*
X162203106Y-109151268D01*
X162205579Y-109205512D01*
X162204113Y-109240835D01*
X162196420Y-109292104D01*
X162182131Y-109341311D01*
X162168713Y-109372421D01*
X162142690Y-109415309D01*
X162109591Y-109453663D01*
X162077434Y-109480739D01*
X162035835Y-109506777D01*
X161987714Y-109528889D01*
X161963572Y-109537262D01*
X161911032Y-109549751D01*
X161858891Y-109556138D01*
X161808684Y-109557954D01*
X161784199Y-109557542D01*
X161731786Y-109553601D01*
X161683082Y-109545486D01*
X161633318Y-109531576D01*
X161592677Y-109514959D01*
X161548672Y-109490188D01*
X161507777Y-109457570D01*
X161483933Y-109432429D01*
X161454463Y-109391568D01*
X161432550Y-109346928D01*
X161420861Y-109310678D01*
X161411227Y-109258557D01*
X161408370Y-109206977D01*
X161409098Y-109177649D01*
X161414074Y-109126301D01*
X161423764Y-109076807D01*
X161438168Y-109029168D01*
X161452911Y-108992672D01*
X161476880Y-108945576D01*
X161502923Y-108903551D01*
X161533422Y-108861374D01*
X161533422Y-108851115D01*
X161372955Y-108851115D01*
X161355243Y-108888115D01*
X161334941Y-108935445D01*
X161316625Y-108985954D01*
X161303101Y-109033565D01*
X161300706Y-109043825D01*
X161291046Y-109095183D01*
X161285250Y-109146636D01*
X161283318Y-109198184D01*
X161172207Y-109198184D01*
X161172207Y-108265665D01*
X161298949Y-108265665D01*
X161298949Y-108372155D01*
X161322268Y-108374903D01*
X161369047Y-108393160D01*
X161381427Y-108403052D01*
X161411789Y-108442986D01*
X161422495Y-108469840D01*
X161432550Y-108517968D01*
X161437392Y-108559969D01*
X161439633Y-108610536D01*
X161533422Y-108610536D01*
X161533422Y-108397556D01*
X162205579Y-108397556D01*
X162205579Y-108610536D01*
X162315000Y-108610536D01*
X162315000Y-108056838D01*
X162205579Y-108056838D01*
X162205579Y-108265665D01*
X161298949Y-108265665D01*
X161172207Y-108265665D01*
X161172207Y-107123586D01*
X161283318Y-107123586D01*
X161283318Y-107739078D01*
X161814790Y-107739078D01*
X161803700Y-107691657D01*
X161794030Y-107642602D01*
X161791568Y-107628546D01*
X161785537Y-107578210D01*
X161783527Y-107526098D01*
X161783622Y-107514344D01*
X161786560Y-107462332D01*
X161794274Y-107411792D01*
X161806455Y-107369905D01*
X161830910Y-107324842D01*
X161847586Y-107304351D01*
X161889040Y-107274528D01*
X161929523Y-107260789D01*
X161978189Y-107256210D01*
X162026002Y-107259644D01*
X162073443Y-107271841D01*
X162104888Y-107286762D01*
X162144030Y-107317270D01*
X162171578Y-107353077D01*
X162191901Y-107398847D01*
X162201719Y-107442310D01*
X162205579Y-107493125D01*
X162203360Y-107538902D01*
X162195796Y-107589917D01*
X162182864Y-107641625D01*
X162169196Y-107682570D01*
X162150445Y-107728522D01*
X162127421Y-107773516D01*
X162127421Y-107783041D01*
X162271280Y-107783041D01*
X162284576Y-107751041D01*
X162300502Y-107702423D01*
X162313290Y-107651883D01*
X162315390Y-107642151D01*
X162323857Y-107592772D01*
X162328938Y-107542202D01*
X162330631Y-107490439D01*
X162330606Y-107484842D01*
X162327601Y-107431185D01*
X162319586Y-107381726D01*
X162304986Y-107332169D01*
X162290667Y-107299151D01*
X162264037Y-107254031D01*
X162231224Y-107214200D01*
X162210688Y-107195343D01*
X162167339Y-107165160D01*
X162121315Y-107142881D01*
X162088327Y-107131447D01*
X162037414Y-107120422D01*
X161984783Y-107116747D01*
X161936621Y-107119143D01*
X161884262Y-107128577D01*
X161835307Y-107147033D01*
X161810274Y-107161368D01*
X161769304Y-107194317D01*
X161737854Y-107232030D01*
X161725246Y-107251991D01*
X161703171Y-107297714D01*
X161688272Y-107346824D01*
X161680207Y-107392235D01*
X161675490Y-107442494D01*
X161674106Y-107492392D01*
X161674119Y-107496724D01*
X161675572Y-107546126D01*
X161676081Y-107557623D01*
X161679480Y-107606454D01*
X161408370Y-107606454D01*
X161408370Y-107123586D01*
X161283318Y-107123586D01*
X161172207Y-107123586D01*
X161172207Y-107005636D01*
X162441742Y-107005636D01*
X162441742Y-109810726D01*
G37*
G36*
X164065770Y-95612650D02*
G01*
X164065770Y-95150787D01*
X164462177Y-95150787D01*
X164065770Y-95612650D01*
G37*
G36*
X165308234Y-95650996D02*
G01*
X165148255Y-95650996D01*
X165102928Y-95649594D01*
X165052756Y-95643669D01*
X165028489Y-95637992D01*
X164982658Y-95617779D01*
X164962351Y-95603215D01*
X164931611Y-95564290D01*
X164922712Y-95541393D01*
X164915980Y-95491750D01*
X164918439Y-95451196D01*
X164930879Y-95403090D01*
X164944171Y-95378028D01*
X164976552Y-95341296D01*
X165011142Y-95318302D01*
X165058129Y-95301973D01*
X165070414Y-95299512D01*
X165121036Y-95293204D01*
X165170725Y-95291471D01*
X165308234Y-95291471D01*
X165308234Y-95650996D01*
G37*
G36*
X165555144Y-95887160D02*
G01*
X163671093Y-95887160D01*
X163671093Y-95041366D01*
X163782204Y-95041366D01*
X163782204Y-95150787D01*
X163933879Y-95150787D01*
X163933879Y-95612650D01*
X163933879Y-95776049D01*
X164060397Y-95776049D01*
X164555477Y-95199391D01*
X164555477Y-95041366D01*
X164065770Y-95041366D01*
X164065770Y-94759999D01*
X164597731Y-94759999D01*
X164982414Y-95206474D01*
X164952979Y-95219041D01*
X164905137Y-95246138D01*
X164863901Y-95278993D01*
X164829274Y-95317605D01*
X164807575Y-95351582D01*
X164787508Y-95400281D01*
X164777067Y-95448305D01*
X164774185Y-95491750D01*
X164773586Y-95500787D01*
X164775082Y-95534801D01*
X164784608Y-95586802D01*
X164804849Y-95634144D01*
X164817432Y-95653292D01*
X164850585Y-95690420D01*
X164891800Y-95721583D01*
X164907522Y-95730735D01*
X164954779Y-95751411D01*
X165002930Y-95764081D01*
X165006823Y-95764817D01*
X165058257Y-95771830D01*
X165107783Y-95775102D01*
X165157536Y-95776049D01*
X165444033Y-95776049D01*
X165444033Y-94759999D01*
X165308234Y-94759999D01*
X165308234Y-95166419D01*
X165116503Y-95166419D01*
X164774319Y-94759999D01*
X164597731Y-94759999D01*
X164065770Y-94759999D01*
X163933879Y-94759999D01*
X163933879Y-95041366D01*
X163782204Y-95041366D01*
X163671093Y-95041366D01*
X163671093Y-94648888D01*
X165555144Y-94648888D01*
X165555144Y-95887160D01*
G37*
G36*
X122287651Y-92586182D02*
G01*
X121825788Y-92586182D01*
X121825788Y-92189776D01*
X122287651Y-92586182D01*
G37*
G36*
X122577792Y-92980859D02*
G01*
X121308257Y-92980859D01*
X121308257Y-92586182D01*
X121435000Y-92586182D01*
X121435000Y-92718074D01*
X121716367Y-92718074D01*
X121716367Y-92869748D01*
X121825788Y-92869748D01*
X121825788Y-92718074D01*
X122451050Y-92718074D01*
X122451050Y-92591556D01*
X121874392Y-92096476D01*
X121716367Y-92096476D01*
X121716367Y-92586182D01*
X121435000Y-92586182D01*
X121308257Y-92586182D01*
X121308257Y-91646336D01*
X121419368Y-91646336D01*
X121419404Y-91653685D01*
X121421688Y-91702939D01*
X121428649Y-91754536D01*
X121437305Y-91796089D01*
X121450631Y-91845394D01*
X121462297Y-91879901D01*
X121480673Y-91925506D01*
X121490811Y-91947361D01*
X121511448Y-91993894D01*
X121669473Y-91993894D01*
X121669473Y-91984368D01*
X121650696Y-91960668D01*
X121620746Y-91916655D01*
X121595742Y-91870903D01*
X121575683Y-91823412D01*
X121566677Y-91796318D01*
X121554312Y-91746015D01*
X121546893Y-91693741D01*
X121544420Y-91639497D01*
X121545886Y-91604174D01*
X121553579Y-91552905D01*
X121567868Y-91503698D01*
X121581286Y-91472588D01*
X121607309Y-91429700D01*
X121640408Y-91391346D01*
X121672565Y-91364270D01*
X121714164Y-91338232D01*
X121762285Y-91316120D01*
X121786427Y-91307747D01*
X121838967Y-91295258D01*
X121891108Y-91288871D01*
X121941315Y-91287055D01*
X121965800Y-91287467D01*
X122018213Y-91291408D01*
X122066917Y-91299523D01*
X122116681Y-91313433D01*
X122157322Y-91330050D01*
X122201327Y-91354821D01*
X122242222Y-91387439D01*
X122266066Y-91412580D01*
X122295536Y-91453441D01*
X122317449Y-91498081D01*
X122329138Y-91534331D01*
X122338772Y-91586452D01*
X122341629Y-91638032D01*
X122340901Y-91667360D01*
X122335925Y-91718708D01*
X122326235Y-91768202D01*
X122311831Y-91815841D01*
X122297088Y-91852337D01*
X122273119Y-91899433D01*
X122247076Y-91941458D01*
X122216577Y-91983635D01*
X122216577Y-91993894D01*
X122377044Y-91993894D01*
X122394756Y-91956894D01*
X122415058Y-91909564D01*
X122433374Y-91859055D01*
X122446898Y-91811444D01*
X122449293Y-91801184D01*
X122458953Y-91749826D01*
X122464749Y-91698373D01*
X122466681Y-91646825D01*
X122464514Y-91591778D01*
X122458011Y-91539236D01*
X122447172Y-91489196D01*
X122431999Y-91441661D01*
X122420468Y-91413471D01*
X122395835Y-91366066D01*
X122366217Y-91322951D01*
X122331615Y-91284124D01*
X122300448Y-91256234D01*
X122256083Y-91224773D01*
X122212592Y-91200959D01*
X122165286Y-91181053D01*
X122146598Y-91174681D01*
X122094498Y-91160751D01*
X122046206Y-91152219D01*
X121995389Y-91147100D01*
X121942048Y-91145394D01*
X121917645Y-91145720D01*
X121862893Y-91149019D01*
X121811203Y-91155872D01*
X121762575Y-91166277D01*
X121710750Y-91182519D01*
X121674700Y-91197454D01*
X121630454Y-91220520D01*
X121585896Y-91250775D01*
X121546863Y-91285589D01*
X121527178Y-91307228D01*
X121496013Y-91349062D01*
X121470334Y-91394606D01*
X121450143Y-91443859D01*
X121436679Y-91490677D01*
X121427062Y-91540029D01*
X121421291Y-91591916D01*
X121419368Y-91646336D01*
X121308257Y-91646336D01*
X121308257Y-91034283D01*
X122577792Y-91034283D01*
X122577792Y-92980859D01*
G37*
G36*
X169236278Y-89706742D02*
G01*
X165970546Y-89706742D01*
X165970546Y-89345526D01*
X166081657Y-89345526D01*
X166081657Y-89514542D01*
X166110125Y-89526653D01*
X166160978Y-89546018D01*
X166211328Y-89562253D01*
X166261176Y-89575359D01*
X166300921Y-89583258D01*
X166355148Y-89590563D01*
X166406302Y-89594364D01*
X166460233Y-89595631D01*
X166485532Y-89595249D01*
X166539020Y-89591600D01*
X166587756Y-89584087D01*
X166636333Y-89571207D01*
X166676100Y-89555961D01*
X166720768Y-89533235D01*
X166764560Y-89503307D01*
X166782555Y-89487668D01*
X166816182Y-89449541D01*
X166842474Y-89405610D01*
X166850495Y-89387561D01*
X166864988Y-89340300D01*
X166870317Y-89288862D01*
X166869417Y-89262446D01*
X166860804Y-89208534D01*
X166843073Y-89162274D01*
X166812676Y-89119846D01*
X166780329Y-89091575D01*
X166735509Y-89064295D01*
X166688175Y-89044069D01*
X166640973Y-89029476D01*
X166603302Y-89020694D01*
X166551736Y-89010344D01*
X166503464Y-89001877D01*
X166479031Y-88997704D01*
X166427785Y-88988516D01*
X166378412Y-88978674D01*
X166353684Y-88972309D01*
X166304310Y-88953676D01*
X166262397Y-88923719D01*
X166258404Y-88919096D01*
X166235735Y-88874552D01*
X166229424Y-88824556D01*
X166233561Y-88792744D01*
X166257930Y-88747560D01*
X166295614Y-88715624D01*
X166317418Y-88703451D01*
X166367287Y-88685295D01*
X166419308Y-88676011D01*
X166471224Y-88673370D01*
X166520760Y-88675324D01*
X166569715Y-88681186D01*
X166618091Y-88690956D01*
X166665886Y-88704633D01*
X166677649Y-88708573D01*
X166727016Y-88727863D01*
X166775025Y-88752288D01*
X166819515Y-88782791D01*
X166829040Y-88782791D01*
X166829040Y-88620369D01*
X166815852Y-88614731D01*
X166769255Y-88597176D01*
X166718603Y-88581529D01*
X166669550Y-88569078D01*
X166644068Y-88563949D01*
X167009291Y-88563949D01*
X167279912Y-89580000D01*
X167429633Y-89580000D01*
X167639926Y-88736629D01*
X167854860Y-89580000D01*
X168008245Y-89580000D01*
X168057304Y-89392421D01*
X168458873Y-89392421D01*
X168458873Y-89536280D01*
X168490873Y-89549576D01*
X168539491Y-89565502D01*
X168590031Y-89578290D01*
X168599764Y-89580390D01*
X168649142Y-89588857D01*
X168699712Y-89593938D01*
X168751476Y-89595631D01*
X168757072Y-89595606D01*
X168810729Y-89592601D01*
X168860188Y-89584586D01*
X168909745Y-89569986D01*
X168942764Y-89555667D01*
X168987884Y-89529037D01*
X169027714Y-89496224D01*
X169046571Y-89475688D01*
X169076754Y-89432339D01*
X169099033Y-89386315D01*
X169110467Y-89353327D01*
X169121492Y-89302414D01*
X169125167Y-89249783D01*
X169122771Y-89201621D01*
X169113337Y-89149262D01*
X169094881Y-89100307D01*
X169080546Y-89075274D01*
X169047597Y-89034304D01*
X169009885Y-89002854D01*
X168989923Y-88990246D01*
X168944200Y-88968171D01*
X168895090Y-88953272D01*
X168849679Y-88945207D01*
X168799420Y-88940490D01*
X168749522Y-88939106D01*
X168745190Y-88939119D01*
X168695788Y-88940572D01*
X168684291Y-88941081D01*
X168635460Y-88944480D01*
X168635460Y-88673370D01*
X169118328Y-88673370D01*
X169118328Y-88548318D01*
X168502836Y-88548318D01*
X168502836Y-89079790D01*
X168550257Y-89068700D01*
X168599312Y-89059030D01*
X168613368Y-89056568D01*
X168663704Y-89050537D01*
X168715816Y-89048527D01*
X168727570Y-89048622D01*
X168779582Y-89051560D01*
X168830122Y-89059274D01*
X168872009Y-89071455D01*
X168917072Y-89095910D01*
X168937563Y-89112586D01*
X168967386Y-89154040D01*
X168981125Y-89194523D01*
X168985705Y-89243189D01*
X168982270Y-89291002D01*
X168970073Y-89338443D01*
X168955152Y-89369888D01*
X168924644Y-89409030D01*
X168888837Y-89436578D01*
X168843067Y-89456901D01*
X168799604Y-89466719D01*
X168748789Y-89470579D01*
X168703012Y-89468360D01*
X168651997Y-89460796D01*
X168600289Y-89447864D01*
X168559344Y-89434196D01*
X168513392Y-89415445D01*
X168468398Y-89392421D01*
X168458873Y-89392421D01*
X168057304Y-89392421D01*
X168273981Y-88563949D01*
X168140624Y-88563949D01*
X167927156Y-89416845D01*
X167713444Y-88563949D01*
X167575446Y-88563949D01*
X167363688Y-89408785D01*
X167148754Y-88563949D01*
X167009291Y-88563949D01*
X166644068Y-88563949D01*
X166629362Y-88560989D01*
X166575150Y-88553508D01*
X166524561Y-88549615D01*
X166471713Y-88548318D01*
X166440945Y-88549030D01*
X166391937Y-88553386D01*
X166336874Y-88563839D01*
X166285898Y-88579993D01*
X166239009Y-88601849D01*
X166196207Y-88629406D01*
X166170790Y-88650396D01*
X166134466Y-88690581D01*
X166108520Y-88735160D01*
X166092952Y-88784133D01*
X166087763Y-88837501D01*
X166090064Y-88877524D01*
X166100292Y-88926319D01*
X166121578Y-88974973D01*
X166153220Y-89017020D01*
X166166157Y-89029580D01*
X166206702Y-89059610D01*
X166256039Y-89084603D01*
X166306422Y-89102340D01*
X166354965Y-89114473D01*
X166384107Y-89120223D01*
X166432432Y-89128993D01*
X166482460Y-89136943D01*
X166493650Y-89138632D01*
X166543886Y-89147595D01*
X166594079Y-89159169D01*
X166606505Y-89162637D01*
X166653307Y-89180540D01*
X166695195Y-89208995D01*
X166701175Y-89215259D01*
X166723134Y-89259185D01*
X166728656Y-89307913D01*
X166723092Y-89347203D01*
X166698363Y-89392318D01*
X166658314Y-89426371D01*
X166619632Y-89445712D01*
X166567722Y-89460865D01*
X166514118Y-89468463D01*
X166461455Y-89470579D01*
X166421844Y-89469024D01*
X166369131Y-89462458D01*
X166320588Y-89452306D01*
X166270457Y-89438094D01*
X166221150Y-89420127D01*
X166174836Y-89398710D01*
X166131513Y-89373843D01*
X166091183Y-89345526D01*
X166081657Y-89345526D01*
X165970546Y-89345526D01*
X165970546Y-88437207D01*
X169236278Y-88437207D01*
X169236278Y-89706742D01*
G37*
G36*
X128428489Y-77124052D02*
G01*
X128478725Y-77125531D01*
X128529558Y-77129576D01*
X128579414Y-77136946D01*
X128613013Y-77144701D01*
X128661636Y-77161142D01*
X128708130Y-77183353D01*
X128733073Y-77198537D01*
X128772892Y-77230075D01*
X128806180Y-77267024D01*
X128832938Y-77309382D01*
X128853246Y-77357225D01*
X128865717Y-77404650D01*
X128872938Y-77456685D01*
X128874948Y-77505997D01*
X128873608Y-77548146D01*
X128867655Y-77600124D01*
X128855264Y-77652834D01*
X128836846Y-77699438D01*
X128829367Y-77713647D01*
X128799600Y-77757229D01*
X128762391Y-77794992D01*
X128722540Y-77824002D01*
X128683056Y-77845349D01*
X128636923Y-77863487D01*
X128587962Y-77876025D01*
X128569312Y-77879288D01*
X128519247Y-77885542D01*
X128469988Y-77888846D01*
X128416748Y-77889947D01*
X128289009Y-77889947D01*
X128289009Y-77124002D01*
X128416748Y-77124002D01*
X128428489Y-77124052D01*
G37*
G36*
X130008459Y-78126111D02*
G01*
X128042099Y-78126111D01*
X128042099Y-77889947D01*
X128153210Y-77889947D01*
X128153210Y-78015000D01*
X128411375Y-78015000D01*
X128428777Y-78014925D01*
X128478420Y-78013809D01*
X128531474Y-78010814D01*
X128585696Y-78005158D01*
X128638521Y-77995949D01*
X128649235Y-77993474D01*
X128700917Y-77978294D01*
X128749451Y-77958440D01*
X128794836Y-77933911D01*
X128819428Y-77917554D01*
X128859453Y-77885147D01*
X128880196Y-77863813D01*
X129204920Y-77863813D01*
X129204920Y-78015000D01*
X129897348Y-78015000D01*
X129897348Y-77889947D01*
X129347069Y-77889947D01*
X129372901Y-77868446D01*
X129413033Y-77834907D01*
X129454826Y-77799822D01*
X129493371Y-77767337D01*
X129532266Y-77733968D01*
X129570551Y-77700048D01*
X129608226Y-77665580D01*
X129645290Y-77630561D01*
X129661013Y-77615434D01*
X129698321Y-77578114D01*
X129732729Y-77541168D01*
X129734979Y-77538648D01*
X129766556Y-77500502D01*
X129795743Y-77459103D01*
X129821023Y-77413613D01*
X129839219Y-77365558D01*
X129841023Y-77359331D01*
X129850844Y-77310741D01*
X129854117Y-77258824D01*
X129853768Y-77243154D01*
X129847046Y-77191556D01*
X129828888Y-77138769D01*
X129799556Y-77092576D01*
X129764725Y-77057568D01*
X129728898Y-77032334D01*
X129681045Y-77009494D01*
X129626670Y-76993759D01*
X129574872Y-76985928D01*
X129518283Y-76983318D01*
X129513501Y-76983337D01*
X129460261Y-76986065D01*
X129410859Y-76992553D01*
X129360503Y-77002857D01*
X129326474Y-77011497D01*
X129279281Y-77025878D01*
X129230321Y-77045600D01*
X129230321Y-77186528D01*
X129237160Y-77186528D01*
X129280847Y-77163778D01*
X129329674Y-77143326D01*
X129379309Y-77127665D01*
X129410662Y-77120147D01*
X129462124Y-77111555D01*
X129514620Y-77108370D01*
X129564347Y-77111809D01*
X129616152Y-77125353D01*
X129661410Y-77151845D01*
X129686794Y-77178947D01*
X129707717Y-77223317D01*
X129713922Y-77272257D01*
X129713731Y-77282775D01*
X129707053Y-77333989D01*
X129690833Y-77382914D01*
X129665073Y-77429549D01*
X129661954Y-77434133D01*
X129631145Y-77474372D01*
X129595647Y-77514790D01*
X129558876Y-77553304D01*
X129523761Y-77588128D01*
X129484578Y-77625432D01*
X129464794Y-77643921D01*
X129427951Y-77677291D01*
X129389523Y-77710777D01*
X129349512Y-77744378D01*
X129326855Y-77763008D01*
X129286133Y-77796571D01*
X129245488Y-77830173D01*
X129204920Y-77863813D01*
X128880196Y-77863813D01*
X128895644Y-77847924D01*
X128928001Y-77805886D01*
X128956525Y-77759033D01*
X128977193Y-77715899D01*
X128995901Y-77663276D01*
X129008789Y-77608175D01*
X129015203Y-77558973D01*
X129017341Y-77507951D01*
X129015289Y-77453864D01*
X129009133Y-77402610D01*
X128998872Y-77354190D01*
X128981713Y-77301281D01*
X128958967Y-77252229D01*
X128943653Y-77225916D01*
X128913381Y-77183118D01*
X128878691Y-77144458D01*
X128839583Y-77109935D01*
X128796057Y-77079549D01*
X128788318Y-77074911D01*
X128741931Y-77051649D01*
X128694151Y-77033808D01*
X128646581Y-77020443D01*
X128617524Y-77014251D01*
X128564783Y-77006527D01*
X128512324Y-77001972D01*
X128462670Y-76999705D01*
X128408688Y-76998949D01*
X128153210Y-76998949D01*
X128153210Y-77889947D01*
X128042099Y-77889947D01*
X128042099Y-76872207D01*
X130008459Y-76872207D01*
X130008459Y-78126111D01*
G37*
D11*
G36*
X176518373Y-80255721D02*
G01*
X176568249Y-80263758D01*
X176616366Y-80281339D01*
X176659905Y-80311478D01*
X176670861Y-80322524D01*
X176699598Y-80364771D01*
X176716361Y-80415365D01*
X176721210Y-80468038D01*
X176719218Y-80499568D01*
X176707044Y-80548150D01*
X176692833Y-80577111D01*
X176662348Y-80616538D01*
X176650249Y-80628344D01*
X176609457Y-80657089D01*
X176562452Y-80678087D01*
X176541493Y-80684490D01*
X176492883Y-80694040D01*
X176441506Y-80698924D01*
X176389773Y-80700313D01*
X176354113Y-80699580D01*
X176324560Y-80697382D01*
X176319245Y-80687470D01*
X176298021Y-80641896D01*
X176281817Y-80594312D01*
X176279329Y-80584851D01*
X176270560Y-80535356D01*
X176267896Y-80485868D01*
X176268892Y-80454876D01*
X176274979Y-80405512D01*
X176281470Y-80379818D01*
X176303799Y-80335414D01*
X176335523Y-80300252D01*
X176377316Y-80273377D01*
X176382684Y-80271070D01*
X176431807Y-80257972D01*
X176483806Y-80254326D01*
X176518373Y-80255721D01*
G37*
G36*
X176941742Y-81945688D02*
G01*
X175672207Y-81945688D01*
X175672207Y-81185624D01*
X175798949Y-81185624D01*
X176407358Y-81185624D01*
X176429672Y-81185904D01*
X176478455Y-81188863D01*
X176529968Y-81197103D01*
X176573807Y-81211017D01*
X176617651Y-81234961D01*
X176623090Y-81238918D01*
X176658349Y-81273708D01*
X176683841Y-81317515D01*
X176692311Y-81341102D01*
X176702522Y-81390425D01*
X176705579Y-81442323D01*
X176704806Y-81468887D01*
X176698624Y-81517636D01*
X176683597Y-81567131D01*
X176680735Y-81573519D01*
X176653916Y-81616081D01*
X176617651Y-81649197D01*
X176579823Y-81670828D01*
X176532411Y-81687298D01*
X176506704Y-81692214D01*
X176455815Y-81697206D01*
X176403939Y-81698534D01*
X175798949Y-81698534D01*
X175798949Y-81834577D01*
X176403695Y-81834577D01*
X176438685Y-81833981D01*
X176490999Y-81830546D01*
X176544451Y-81823033D01*
X176597135Y-81810153D01*
X176644047Y-81791858D01*
X176690470Y-81764737D01*
X176731468Y-81730285D01*
X176757072Y-81701030D01*
X176785379Y-81656494D01*
X176805474Y-81610118D01*
X176809970Y-81596483D01*
X176821762Y-81547901D01*
X176828641Y-81494502D01*
X176830631Y-81442323D01*
X176830538Y-81430660D01*
X176827832Y-81380445D01*
X176820428Y-81329002D01*
X176806939Y-81277703D01*
X176789284Y-81235175D01*
X176763638Y-81192417D01*
X176731468Y-81153872D01*
X176728053Y-81150437D01*
X176686921Y-81116652D01*
X176643868Y-81092299D01*
X176595425Y-81074005D01*
X176558284Y-81064488D01*
X176506582Y-81055686D01*
X176456894Y-81051107D01*
X176403695Y-81049580D01*
X175798949Y-81049580D01*
X175798949Y-81185624D01*
X175672207Y-81185624D01*
X175672207Y-80338101D01*
X175783318Y-80338101D01*
X175783486Y-80353883D01*
X175786718Y-80407168D01*
X175794064Y-80457414D01*
X175807498Y-80511116D01*
X175826304Y-80560850D01*
X175843601Y-80595426D01*
X175870323Y-80637680D01*
X175905384Y-80679961D01*
X175945739Y-80716677D01*
X175987367Y-80746505D01*
X176031896Y-80771998D01*
X176079325Y-80793156D01*
X176129654Y-80809978D01*
X176162762Y-80818351D01*
X176211617Y-80827690D01*
X176263393Y-80834246D01*
X176318092Y-80838021D01*
X176367302Y-80839043D01*
X176383459Y-80838918D01*
X176437692Y-80836512D01*
X176488325Y-80831044D01*
X176541783Y-80821045D01*
X176590540Y-80807047D01*
X176607577Y-80800810D01*
X176654849Y-80779238D01*
X176700620Y-80750239D01*
X176739284Y-80715945D01*
X176755530Y-80697669D01*
X176785310Y-80654597D01*
X176807672Y-80606768D01*
X176818770Y-80570927D01*
X176827918Y-80519774D01*
X176830631Y-80469504D01*
X176830248Y-80451032D01*
X176824494Y-80397803D01*
X176811838Y-80347854D01*
X176792277Y-80301186D01*
X176765813Y-80257797D01*
X176732445Y-80217689D01*
X176719949Y-80205238D01*
X176679781Y-80172703D01*
X176635594Y-80147398D01*
X176587388Y-80129323D01*
X176535164Y-80118478D01*
X176478921Y-80114863D01*
X176473254Y-80114893D01*
X176419550Y-80118471D01*
X176371235Y-80128011D01*
X176324316Y-80145393D01*
X176290197Y-80164943D01*
X176250114Y-80198402D01*
X176218803Y-80236496D01*
X176212194Y-80246275D01*
X176187029Y-80291341D01*
X176170443Y-80338589D01*
X176166995Y-80354465D01*
X176160450Y-80402978D01*
X176158475Y-80453384D01*
X176159340Y-80484717D01*
X176159467Y-80485868D01*
X176164847Y-80534572D01*
X176176549Y-80583076D01*
X176185262Y-80607628D01*
X176205724Y-80653659D01*
X176229549Y-80696649D01*
X176184863Y-80690351D01*
X176135175Y-80678055D01*
X176082632Y-80657177D01*
X176035932Y-80629262D01*
X175995076Y-80594312D01*
X175965610Y-80559244D01*
X175938937Y-80513035D01*
X175920563Y-80461123D01*
X175911418Y-80412087D01*
X175908370Y-80358862D01*
X175909778Y-80328694D01*
X175918384Y-80279483D01*
X175921543Y-80267824D01*
X175939633Y-80221353D01*
X175939633Y-80214514D01*
X175800170Y-80214514D01*
X175797881Y-80221528D01*
X175786981Y-80270201D01*
X175785049Y-80288586D01*
X175783318Y-80338101D01*
X175672207Y-80338101D01*
X175672207Y-80003752D01*
X176941742Y-80003752D01*
X176941742Y-81945688D01*
G37*
D10*
G36*
X120791742Y-90384453D02*
G01*
X119522207Y-90384453D01*
X119522207Y-89883286D01*
X119633318Y-89883286D01*
X119634030Y-89914054D01*
X119638386Y-89963062D01*
X119648839Y-90018125D01*
X119664993Y-90069101D01*
X119686849Y-90115990D01*
X119714406Y-90158792D01*
X119735396Y-90184209D01*
X119775581Y-90220533D01*
X119820160Y-90246479D01*
X119869133Y-90262047D01*
X119922501Y-90267236D01*
X119962524Y-90264935D01*
X120011319Y-90254707D01*
X120059973Y-90233421D01*
X120102020Y-90201779D01*
X120114580Y-90188842D01*
X120144610Y-90148297D01*
X120169603Y-90098960D01*
X120187340Y-90048577D01*
X120199473Y-90000034D01*
X120205223Y-89970892D01*
X120213993Y-89922567D01*
X120221943Y-89872539D01*
X120223632Y-89861349D01*
X120232595Y-89811113D01*
X120244169Y-89760920D01*
X120247637Y-89748494D01*
X120265540Y-89701692D01*
X120293995Y-89659804D01*
X120300259Y-89653824D01*
X120344185Y-89631865D01*
X120392913Y-89626343D01*
X120432203Y-89631907D01*
X120477318Y-89656636D01*
X120511371Y-89696685D01*
X120530712Y-89735367D01*
X120545865Y-89787277D01*
X120553463Y-89840881D01*
X120555579Y-89893544D01*
X120554024Y-89933155D01*
X120547458Y-89985868D01*
X120537306Y-90034411D01*
X120523094Y-90084542D01*
X120505127Y-90133849D01*
X120483710Y-90180163D01*
X120458843Y-90223486D01*
X120430526Y-90263816D01*
X120430526Y-90273342D01*
X120599542Y-90273342D01*
X120611653Y-90244874D01*
X120631018Y-90194021D01*
X120647253Y-90143671D01*
X120660359Y-90093823D01*
X120668258Y-90054078D01*
X120675563Y-89999851D01*
X120679364Y-89948697D01*
X120680631Y-89894766D01*
X120680249Y-89869467D01*
X120676600Y-89815979D01*
X120669087Y-89767243D01*
X120656207Y-89718666D01*
X120640961Y-89678899D01*
X120618235Y-89634231D01*
X120588307Y-89590439D01*
X120572668Y-89572444D01*
X120534541Y-89538817D01*
X120490610Y-89512525D01*
X120472561Y-89504504D01*
X120425300Y-89490011D01*
X120373862Y-89484682D01*
X120347446Y-89485582D01*
X120293534Y-89494195D01*
X120247274Y-89511926D01*
X120204846Y-89542323D01*
X120176575Y-89574670D01*
X120149295Y-89619490D01*
X120129069Y-89666824D01*
X120114476Y-89714026D01*
X120105694Y-89751697D01*
X120095344Y-89803263D01*
X120086877Y-89851535D01*
X120082704Y-89875968D01*
X120073516Y-89927214D01*
X120063674Y-89976587D01*
X120057309Y-90001315D01*
X120038676Y-90050689D01*
X120008719Y-90092602D01*
X120004096Y-90096595D01*
X119959552Y-90119264D01*
X119909556Y-90125575D01*
X119877744Y-90121438D01*
X119832560Y-90097069D01*
X119800624Y-90059385D01*
X119788451Y-90037581D01*
X119770295Y-89987712D01*
X119761011Y-89935691D01*
X119758370Y-89883775D01*
X119760324Y-89834239D01*
X119766186Y-89785284D01*
X119775956Y-89736908D01*
X119789633Y-89689113D01*
X119793573Y-89677350D01*
X119812863Y-89627983D01*
X119837288Y-89579974D01*
X119867791Y-89535484D01*
X119867791Y-89525959D01*
X119705369Y-89525959D01*
X119699731Y-89539147D01*
X119682176Y-89585744D01*
X119666529Y-89636396D01*
X119654078Y-89685449D01*
X119645989Y-89725637D01*
X119638508Y-89779849D01*
X119634615Y-89830438D01*
X119633318Y-89883286D01*
X119522207Y-89883286D01*
X119522207Y-88214375D01*
X119648949Y-88214375D01*
X120501845Y-88427843D01*
X119648949Y-88641555D01*
X119648949Y-88779553D01*
X120493785Y-88991311D01*
X119648949Y-89206245D01*
X119648949Y-89345708D01*
X120665000Y-89075087D01*
X120665000Y-88925366D01*
X119821629Y-88715073D01*
X120665000Y-88500139D01*
X120665000Y-88346754D01*
X119648949Y-88081018D01*
X119648949Y-88214375D01*
X119522207Y-88214375D01*
X119522207Y-87488729D01*
X119648949Y-87488729D01*
X119648949Y-87595219D01*
X119672268Y-87597967D01*
X119719047Y-87616224D01*
X119731427Y-87626116D01*
X119761789Y-87666050D01*
X119772495Y-87692904D01*
X119782550Y-87741032D01*
X119787392Y-87783033D01*
X119789633Y-87833600D01*
X119883422Y-87833600D01*
X119883422Y-87620620D01*
X120555579Y-87620620D01*
X120555579Y-87833600D01*
X120665000Y-87833600D01*
X120665000Y-87279902D01*
X120555579Y-87279902D01*
X120555579Y-87488729D01*
X119648949Y-87488729D01*
X119522207Y-87488729D01*
X119522207Y-87168791D01*
X120791742Y-87168791D01*
X120791742Y-90384453D01*
G37*
G36*
X161754630Y-112561504D02*
G01*
X161808605Y-112570080D01*
X161854853Y-112587736D01*
X161897176Y-112618004D01*
X161907913Y-112629131D01*
X161936078Y-112671492D01*
X161952507Y-112721962D01*
X161957259Y-112774319D01*
X161955405Y-112805849D01*
X161944070Y-112854431D01*
X161930731Y-112883829D01*
X161901084Y-112924040D01*
X161891974Y-112933371D01*
X161849996Y-112963807D01*
X161803631Y-112984368D01*
X161787301Y-112989520D01*
X161735821Y-113000146D01*
X161686532Y-113004976D01*
X161637301Y-113006350D01*
X161602130Y-113005373D01*
X161574287Y-113003663D01*
X161569404Y-112994581D01*
X161548278Y-112947369D01*
X161533498Y-112900593D01*
X161531812Y-112893729D01*
X161522635Y-112842617D01*
X161519576Y-112792149D01*
X161520538Y-112759245D01*
X161526415Y-112709595D01*
X161532178Y-112687012D01*
X161554259Y-112641695D01*
X161582462Y-112608089D01*
X161624356Y-112579169D01*
X161629485Y-112576921D01*
X161677036Y-112564160D01*
X161728160Y-112560607D01*
X161754630Y-112561504D01*
G37*
G36*
X162177791Y-113256191D02*
G01*
X160908256Y-113256191D01*
X160908256Y-112644382D01*
X161019367Y-112644382D01*
X161019530Y-112660129D01*
X161022671Y-112713215D01*
X161029808Y-112763145D01*
X161042860Y-112816344D01*
X161061132Y-112865422D01*
X161084336Y-112910576D01*
X161111935Y-112951762D01*
X161143931Y-112988978D01*
X161180323Y-113022226D01*
X161220272Y-113051169D01*
X161264159Y-113076203D01*
X161311985Y-113097330D01*
X161363749Y-113114550D01*
X161391002Y-113121705D01*
X161440548Y-113131932D01*
X161492455Y-113139236D01*
X161546723Y-113143619D01*
X161603352Y-113145080D01*
X161629137Y-113144801D01*
X161677978Y-113142568D01*
X161730358Y-113137142D01*
X161784152Y-113127220D01*
X161831474Y-113113328D01*
X161847769Y-113107185D01*
X161893253Y-113085920D01*
X161937808Y-113057307D01*
X161976066Y-113023447D01*
X161994759Y-113001957D01*
X162023770Y-112958017D01*
X162043966Y-112912805D01*
X162054946Y-112876471D01*
X162063996Y-112825260D01*
X162066680Y-112775540D01*
X162066306Y-112757185D01*
X162060696Y-112704237D01*
X162048354Y-112654466D01*
X162029281Y-112607872D01*
X162003475Y-112564455D01*
X161970937Y-112524215D01*
X161958777Y-112511733D01*
X161919631Y-112479121D01*
X161876483Y-112453756D01*
X161829333Y-112435638D01*
X161778183Y-112424768D01*
X161723031Y-112421144D01*
X161670661Y-112424126D01*
X161618675Y-112434292D01*
X161572577Y-112451674D01*
X161539007Y-112471224D01*
X161499658Y-112504684D01*
X161469018Y-112542777D01*
X161462713Y-112552436D01*
X161438510Y-112597395D01*
X161422123Y-112645359D01*
X161418676Y-112661674D01*
X161412131Y-112710400D01*
X161410156Y-112759665D01*
X161410549Y-112780245D01*
X161411645Y-112792149D01*
X161415256Y-112831355D01*
X161426276Y-112882519D01*
X161437024Y-112914854D01*
X161456584Y-112959831D01*
X161479765Y-113002931D01*
X161423333Y-112995251D01*
X161371641Y-112982471D01*
X161324690Y-112964591D01*
X161275903Y-112937284D01*
X161233568Y-112903035D01*
X161203271Y-112868402D01*
X161175848Y-112822180D01*
X161156956Y-112769694D01*
X161147553Y-112719720D01*
X161144419Y-112665143D01*
X161145828Y-112632788D01*
X161154433Y-112584054D01*
X161157592Y-112573081D01*
X161175682Y-112527634D01*
X161175682Y-112520795D01*
X161036220Y-112520795D01*
X161033591Y-112528671D01*
X161023519Y-112576971D01*
X161021512Y-112595140D01*
X161019367Y-112644382D01*
X160908256Y-112644382D01*
X160908256Y-111946336D01*
X161019367Y-111946336D01*
X161019403Y-111953685D01*
X161021687Y-112002939D01*
X161028648Y-112054536D01*
X161037304Y-112096089D01*
X161050630Y-112145394D01*
X161062296Y-112179901D01*
X161080672Y-112225506D01*
X161090810Y-112247361D01*
X161111447Y-112293894D01*
X161269472Y-112293894D01*
X161269472Y-112284368D01*
X161250695Y-112260668D01*
X161220745Y-112216655D01*
X161195741Y-112170903D01*
X161175682Y-112123412D01*
X161166676Y-112096318D01*
X161154311Y-112046015D01*
X161146892Y-111993741D01*
X161144419Y-111939497D01*
X161145885Y-111904174D01*
X161153578Y-111852905D01*
X161167867Y-111803698D01*
X161181285Y-111772588D01*
X161207308Y-111729700D01*
X161240407Y-111691346D01*
X161272564Y-111664270D01*
X161314163Y-111638232D01*
X161362284Y-111616120D01*
X161386426Y-111607747D01*
X161438966Y-111595258D01*
X161491107Y-111588871D01*
X161541314Y-111587055D01*
X161565799Y-111587467D01*
X161618212Y-111591408D01*
X161666916Y-111599523D01*
X161716680Y-111613433D01*
X161757321Y-111630050D01*
X161801326Y-111654821D01*
X161842221Y-111687439D01*
X161866065Y-111712580D01*
X161895535Y-111753441D01*
X161917448Y-111798081D01*
X161929137Y-111834331D01*
X161938771Y-111886452D01*
X161941628Y-111938032D01*
X161940900Y-111967360D01*
X161935924Y-112018708D01*
X161926234Y-112068202D01*
X161911830Y-112115841D01*
X161897087Y-112152337D01*
X161873118Y-112199433D01*
X161847075Y-112241458D01*
X161816576Y-112283635D01*
X161816576Y-112293894D01*
X161977043Y-112293894D01*
X161994755Y-112256894D01*
X162015057Y-112209564D01*
X162033373Y-112159055D01*
X162046897Y-112111444D01*
X162049292Y-112101184D01*
X162058952Y-112049826D01*
X162064748Y-111998373D01*
X162066680Y-111946825D01*
X162064513Y-111891778D01*
X162058010Y-111839236D01*
X162047171Y-111789196D01*
X162031998Y-111741661D01*
X162020467Y-111713471D01*
X161995834Y-111666066D01*
X161966216Y-111622951D01*
X161931614Y-111584124D01*
X161900447Y-111556234D01*
X161856082Y-111524773D01*
X161812591Y-111500959D01*
X161765285Y-111481053D01*
X161746597Y-111474681D01*
X161694497Y-111460751D01*
X161646205Y-111452219D01*
X161595388Y-111447100D01*
X161542047Y-111445394D01*
X161517644Y-111445720D01*
X161462892Y-111449019D01*
X161411202Y-111455872D01*
X161362574Y-111466277D01*
X161310749Y-111482519D01*
X161274699Y-111497454D01*
X161230453Y-111520520D01*
X161185895Y-111550775D01*
X161146862Y-111585589D01*
X161127177Y-111607228D01*
X161096012Y-111649062D01*
X161070333Y-111694606D01*
X161050142Y-111743859D01*
X161036678Y-111790677D01*
X161027061Y-111840029D01*
X161021290Y-111891916D01*
X161019367Y-111946336D01*
X160908256Y-111946336D01*
X160908256Y-111334283D01*
X162177791Y-111334283D01*
X162177791Y-113256191D01*
G37*
G36*
X122428489Y-77324052D02*
G01*
X122478725Y-77325531D01*
X122529558Y-77329576D01*
X122579414Y-77336946D01*
X122613013Y-77344701D01*
X122661636Y-77361142D01*
X122708130Y-77383353D01*
X122733073Y-77398537D01*
X122772892Y-77430075D01*
X122806180Y-77467024D01*
X122832938Y-77509382D01*
X122853246Y-77557225D01*
X122865717Y-77604650D01*
X122872938Y-77656685D01*
X122874948Y-77705997D01*
X122873608Y-77748146D01*
X122867655Y-77800124D01*
X122855264Y-77852834D01*
X122836846Y-77899438D01*
X122829367Y-77913647D01*
X122799600Y-77957229D01*
X122762391Y-77994992D01*
X122722540Y-78024002D01*
X122683056Y-78045349D01*
X122636923Y-78063487D01*
X122587962Y-78076025D01*
X122569312Y-78079288D01*
X122519247Y-78085542D01*
X122469988Y-78088846D01*
X122416748Y-78089947D01*
X122289009Y-78089947D01*
X122289009Y-77324002D01*
X122416748Y-77324002D01*
X122428489Y-77324052D01*
G37*
G36*
X124000155Y-78341742D02*
G01*
X122042099Y-78341742D01*
X122042099Y-78089947D01*
X122153210Y-78089947D01*
X122153210Y-78215000D01*
X122411375Y-78215000D01*
X122428777Y-78214925D01*
X122478420Y-78213809D01*
X122531474Y-78210814D01*
X122585696Y-78205158D01*
X122638521Y-78195949D01*
X122649235Y-78193474D01*
X122700917Y-78178294D01*
X122749451Y-78158440D01*
X122794836Y-78133911D01*
X122819428Y-78117554D01*
X122859453Y-78085147D01*
X122895644Y-78047924D01*
X122911425Y-78027421D01*
X123222750Y-78027421D01*
X123222750Y-78171280D01*
X123254750Y-78184576D01*
X123303368Y-78200502D01*
X123353908Y-78213290D01*
X123363641Y-78215390D01*
X123413019Y-78223857D01*
X123463589Y-78228938D01*
X123515353Y-78230631D01*
X123520949Y-78230606D01*
X123574606Y-78227601D01*
X123624065Y-78219586D01*
X123673622Y-78204986D01*
X123706641Y-78190667D01*
X123751761Y-78164037D01*
X123791591Y-78131224D01*
X123810448Y-78110688D01*
X123840631Y-78067339D01*
X123862910Y-78021315D01*
X123874344Y-77988327D01*
X123885369Y-77937414D01*
X123889044Y-77884783D01*
X123886648Y-77836621D01*
X123877214Y-77784262D01*
X123858758Y-77735307D01*
X123844423Y-77710274D01*
X123811474Y-77669304D01*
X123773762Y-77637854D01*
X123753800Y-77625246D01*
X123708077Y-77603171D01*
X123658967Y-77588272D01*
X123613556Y-77580207D01*
X123563297Y-77575490D01*
X123513399Y-77574106D01*
X123509067Y-77574119D01*
X123459665Y-77575572D01*
X123448168Y-77576081D01*
X123399337Y-77579480D01*
X123399337Y-77308370D01*
X123882205Y-77308370D01*
X123882205Y-77183318D01*
X123266713Y-77183318D01*
X123266713Y-77714790D01*
X123314134Y-77703700D01*
X123363189Y-77694030D01*
X123377245Y-77691568D01*
X123427581Y-77685537D01*
X123479693Y-77683527D01*
X123491447Y-77683622D01*
X123543459Y-77686560D01*
X123593999Y-77694274D01*
X123635886Y-77706455D01*
X123680949Y-77730910D01*
X123701440Y-77747586D01*
X123731263Y-77789040D01*
X123745002Y-77829523D01*
X123749581Y-77878189D01*
X123746147Y-77926002D01*
X123733950Y-77973443D01*
X123719029Y-78004888D01*
X123688521Y-78044030D01*
X123652714Y-78071578D01*
X123606944Y-78091901D01*
X123563481Y-78101719D01*
X123512666Y-78105579D01*
X123466889Y-78103360D01*
X123415874Y-78095796D01*
X123364166Y-78082864D01*
X123323221Y-78069196D01*
X123277269Y-78050445D01*
X123232275Y-78027421D01*
X123222750Y-78027421D01*
X122911425Y-78027421D01*
X122928001Y-78005886D01*
X122956525Y-77959033D01*
X122977193Y-77915899D01*
X122995901Y-77863276D01*
X123008789Y-77808175D01*
X123015203Y-77758973D01*
X123017341Y-77707951D01*
X123015289Y-77653864D01*
X123009133Y-77602610D01*
X122998872Y-77554190D01*
X122981713Y-77501281D01*
X122958967Y-77452229D01*
X122943653Y-77425916D01*
X122913381Y-77383118D01*
X122878691Y-77344458D01*
X122839583Y-77309935D01*
X122796057Y-77279549D01*
X122788318Y-77274911D01*
X122741931Y-77251649D01*
X122694151Y-77233808D01*
X122646581Y-77220443D01*
X122617524Y-77214251D01*
X122564783Y-77206527D01*
X122512324Y-77201972D01*
X122462670Y-77199705D01*
X122408688Y-77198949D01*
X122153210Y-77198949D01*
X122153210Y-78089947D01*
X122042099Y-78089947D01*
X122042099Y-77072207D01*
X124000155Y-77072207D01*
X124000155Y-78341742D01*
G37*
G36*
X167416694Y-111341742D02*
G01*
X165504311Y-111341742D01*
X165504311Y-110803695D01*
X165615422Y-110803695D01*
X165616018Y-110838685D01*
X165619453Y-110890999D01*
X165626966Y-110944451D01*
X165639846Y-110997135D01*
X165658141Y-111044047D01*
X165685262Y-111090470D01*
X165719714Y-111131468D01*
X165748969Y-111157072D01*
X165793505Y-111185379D01*
X165839881Y-111205474D01*
X165853516Y-111209970D01*
X165902098Y-111221762D01*
X165955497Y-111228641D01*
X166007676Y-111230631D01*
X166019339Y-111230538D01*
X166069554Y-111227832D01*
X166120997Y-111220428D01*
X166172296Y-111206939D01*
X166214824Y-111189284D01*
X166257582Y-111163638D01*
X166296127Y-111131468D01*
X166299562Y-111128053D01*
X166333347Y-111086921D01*
X166357700Y-111043868D01*
X166363911Y-111027421D01*
X166631717Y-111027421D01*
X166631717Y-111167616D01*
X166671618Y-111183304D01*
X166718446Y-111198125D01*
X166767027Y-111210847D01*
X166777356Y-111213243D01*
X166829286Y-111222903D01*
X166881693Y-111228699D01*
X166934578Y-111230631D01*
X166985296Y-111228413D01*
X167038001Y-111220849D01*
X167087474Y-111207916D01*
X167121240Y-111195002D01*
X167167540Y-111169792D01*
X167208618Y-111137575D01*
X167225199Y-111120939D01*
X167256117Y-111081361D01*
X167280181Y-111036946D01*
X167290079Y-111011072D01*
X167302011Y-110960105D01*
X167305583Y-110909696D01*
X167305251Y-110892633D01*
X167299586Y-110842714D01*
X167284334Y-110795635D01*
X167263497Y-110759804D01*
X167230112Y-110722117D01*
X167201728Y-110701100D01*
X167157816Y-110678886D01*
X167129724Y-110668379D01*
X167082345Y-110656172D01*
X167082345Y-110646891D01*
X167092487Y-110644697D01*
X167140654Y-110628378D01*
X167184575Y-110603138D01*
X167224250Y-110568977D01*
X167231526Y-110561140D01*
X167260863Y-110519495D01*
X167278466Y-110473747D01*
X167284334Y-110423897D01*
X167284110Y-110412585D01*
X167277165Y-110363432D01*
X167258932Y-110317407D01*
X167253957Y-110308961D01*
X167222705Y-110270275D01*
X167183950Y-110239494D01*
X167175241Y-110234138D01*
X167128737Y-110211544D01*
X167080879Y-110196751D01*
X167047438Y-110190257D01*
X166998403Y-110184905D01*
X166948988Y-110183318D01*
X166944220Y-110183337D01*
X166891114Y-110186100D01*
X166841784Y-110192669D01*
X166791451Y-110203101D01*
X166757423Y-110211932D01*
X166710230Y-110226517D01*
X166661270Y-110246332D01*
X166661270Y-110386528D01*
X166668109Y-110386528D01*
X166709678Y-110364842D01*
X166757277Y-110344844D01*
X166806839Y-110328886D01*
X166843078Y-110319911D01*
X166895491Y-110311255D01*
X166945569Y-110308370D01*
X166971376Y-110309014D01*
X167021772Y-110314965D01*
X167038366Y-110318811D01*
X167085031Y-110338412D01*
X167095209Y-110345067D01*
X167128995Y-110381643D01*
X167135181Y-110393604D01*
X167144871Y-110443192D01*
X167140978Y-110480515D01*
X167120542Y-110527628D01*
X167082589Y-110564092D01*
X167062165Y-110575984D01*
X167015091Y-110593720D01*
X166965627Y-110602790D01*
X166916015Y-110605369D01*
X166867899Y-110605369D01*
X166867899Y-110714790D01*
X166929693Y-110714790D01*
X166975818Y-110716507D01*
X167024459Y-110722606D01*
X167053155Y-110729370D01*
X167099442Y-110750938D01*
X167119151Y-110766636D01*
X167147802Y-110806381D01*
X167160991Y-110846132D01*
X167165387Y-110895041D01*
X167162807Y-110936151D01*
X167149756Y-110984923D01*
X167134593Y-111012730D01*
X167102861Y-111049891D01*
X167070389Y-111072814D01*
X167023726Y-111091657D01*
X166982226Y-111101174D01*
X166931891Y-111105579D01*
X166880684Y-111102952D01*
X166828150Y-111095073D01*
X166779239Y-111083353D01*
X166736486Y-111069942D01*
X166688641Y-111051086D01*
X166641975Y-111027421D01*
X166631717Y-111027421D01*
X166363911Y-111027421D01*
X166375994Y-110995425D01*
X166385511Y-110958284D01*
X166394313Y-110906582D01*
X166398892Y-110856894D01*
X166400419Y-110803695D01*
X166400419Y-110198949D01*
X166264375Y-110198949D01*
X166264375Y-110807358D01*
X166264095Y-110829672D01*
X166261136Y-110878455D01*
X166252896Y-110929968D01*
X166238982Y-110973807D01*
X166215038Y-111017651D01*
X166211081Y-111023090D01*
X166176291Y-111058349D01*
X166132484Y-111083841D01*
X166108897Y-111092311D01*
X166059574Y-111102522D01*
X166007676Y-111105579D01*
X165981112Y-111104806D01*
X165932363Y-111098624D01*
X165882868Y-111083597D01*
X165876480Y-111080735D01*
X165833918Y-111053916D01*
X165800802Y-111017651D01*
X165779171Y-110979823D01*
X165762701Y-110932411D01*
X165757785Y-110906704D01*
X165752793Y-110855815D01*
X165751465Y-110803939D01*
X165751465Y-110198949D01*
X165615422Y-110198949D01*
X165615422Y-110803695D01*
X165504311Y-110803695D01*
X165504311Y-110072207D01*
X167416694Y-110072207D01*
X167416694Y-111341742D01*
G37*
G36*
X95981104Y-86941742D02*
G01*
X94054311Y-86941742D01*
X94054311Y-86403695D01*
X94165422Y-86403695D01*
X94166018Y-86438685D01*
X94169453Y-86490999D01*
X94176966Y-86544451D01*
X94189846Y-86597135D01*
X94208141Y-86644047D01*
X94235262Y-86690470D01*
X94269714Y-86731468D01*
X94298969Y-86757072D01*
X94343505Y-86785379D01*
X94389881Y-86805474D01*
X94403516Y-86809970D01*
X94452098Y-86821762D01*
X94505497Y-86828641D01*
X94557676Y-86830631D01*
X94569339Y-86830538D01*
X94619554Y-86827832D01*
X94670997Y-86820428D01*
X94722296Y-86806939D01*
X94764824Y-86789284D01*
X94807582Y-86763638D01*
X94846127Y-86731468D01*
X94849562Y-86728053D01*
X94883347Y-86686921D01*
X94896418Y-86663813D01*
X95177565Y-86663813D01*
X95177565Y-86815000D01*
X95869993Y-86815000D01*
X95869993Y-86689947D01*
X95319714Y-86689947D01*
X95345545Y-86668446D01*
X95385677Y-86634907D01*
X95427471Y-86599822D01*
X95466015Y-86567337D01*
X95504911Y-86533968D01*
X95543196Y-86500048D01*
X95580871Y-86465580D01*
X95617934Y-86430561D01*
X95633658Y-86415434D01*
X95670966Y-86378114D01*
X95705373Y-86341168D01*
X95707624Y-86338648D01*
X95739201Y-86300502D01*
X95768388Y-86259103D01*
X95793667Y-86213613D01*
X95811863Y-86165558D01*
X95813667Y-86159331D01*
X95823488Y-86110741D01*
X95826762Y-86058824D01*
X95826413Y-86043154D01*
X95819691Y-85991556D01*
X95801533Y-85938769D01*
X95772201Y-85892576D01*
X95737369Y-85857568D01*
X95701543Y-85832334D01*
X95653689Y-85809494D01*
X95599315Y-85793759D01*
X95547517Y-85785928D01*
X95490928Y-85783318D01*
X95486145Y-85783337D01*
X95432905Y-85786065D01*
X95383503Y-85792553D01*
X95333147Y-85802857D01*
X95299119Y-85811497D01*
X95251926Y-85825878D01*
X95202966Y-85845600D01*
X95202966Y-85986528D01*
X95209805Y-85986528D01*
X95253492Y-85963778D01*
X95302319Y-85943326D01*
X95351954Y-85927665D01*
X95383306Y-85920147D01*
X95434769Y-85911555D01*
X95487264Y-85908370D01*
X95536992Y-85911809D01*
X95588797Y-85925353D01*
X95634054Y-85951845D01*
X95659439Y-85978947D01*
X95680362Y-86023317D01*
X95686567Y-86072257D01*
X95686376Y-86082775D01*
X95679697Y-86133989D01*
X95663478Y-86182914D01*
X95637718Y-86229549D01*
X95634599Y-86234133D01*
X95603790Y-86274372D01*
X95568292Y-86314790D01*
X95531521Y-86353304D01*
X95496405Y-86388128D01*
X95457223Y-86425432D01*
X95437439Y-86443921D01*
X95400595Y-86477291D01*
X95362168Y-86510777D01*
X95322156Y-86544378D01*
X95299499Y-86563008D01*
X95258777Y-86596571D01*
X95218132Y-86630173D01*
X95177565Y-86663813D01*
X94896418Y-86663813D01*
X94907700Y-86643868D01*
X94925994Y-86595425D01*
X94935511Y-86558284D01*
X94944313Y-86506582D01*
X94948892Y-86456894D01*
X94950419Y-86403695D01*
X94950419Y-85798949D01*
X94814375Y-85798949D01*
X94814375Y-86407358D01*
X94814095Y-86429672D01*
X94811136Y-86478455D01*
X94802896Y-86529968D01*
X94788982Y-86573807D01*
X94765038Y-86617651D01*
X94761081Y-86623090D01*
X94726291Y-86658349D01*
X94682484Y-86683841D01*
X94658897Y-86692311D01*
X94609574Y-86702522D01*
X94557676Y-86705579D01*
X94531112Y-86704806D01*
X94482363Y-86698624D01*
X94432868Y-86683597D01*
X94426480Y-86680735D01*
X94383918Y-86653916D01*
X94350802Y-86617651D01*
X94329171Y-86579823D01*
X94312701Y-86532411D01*
X94307785Y-86506704D01*
X94302793Y-86455815D01*
X94301465Y-86403939D01*
X94301465Y-85798949D01*
X94165422Y-85798949D01*
X94165422Y-86403695D01*
X94054311Y-86403695D01*
X94054311Y-85672207D01*
X95981104Y-85672207D01*
X95981104Y-86941742D01*
G37*
G36*
X136400997Y-85501744D02*
G01*
X136399595Y-85547071D01*
X136393670Y-85597243D01*
X136387993Y-85621510D01*
X136367780Y-85667341D01*
X136353216Y-85687648D01*
X136314291Y-85718388D01*
X136291394Y-85727287D01*
X136241751Y-85734019D01*
X136201197Y-85731560D01*
X136153091Y-85719120D01*
X136128029Y-85705828D01*
X136091297Y-85673447D01*
X136068303Y-85638857D01*
X136051974Y-85591870D01*
X136049513Y-85579585D01*
X136043205Y-85528963D01*
X136041472Y-85479274D01*
X136041472Y-85341765D01*
X136400997Y-85341765D01*
X136400997Y-85501744D01*
G37*
G36*
X136637161Y-86897328D02*
G01*
X135398889Y-86897328D01*
X135398889Y-86786217D01*
X135510000Y-86786217D01*
X135619420Y-86786217D01*
X135619420Y-86577390D01*
X136526050Y-86577390D01*
X136526050Y-86470900D01*
X136502731Y-86468152D01*
X136455952Y-86449895D01*
X136443572Y-86440003D01*
X136413210Y-86400070D01*
X136402504Y-86373215D01*
X136392449Y-86325087D01*
X136387607Y-86283086D01*
X136385366Y-86232519D01*
X136291577Y-86232519D01*
X136291577Y-86445499D01*
X135619420Y-86445499D01*
X135619420Y-86232519D01*
X135510000Y-86232519D01*
X135510000Y-86786217D01*
X135398889Y-86786217D01*
X135398889Y-85341765D01*
X135510000Y-85341765D01*
X135916420Y-85341765D01*
X135916420Y-85479274D01*
X135916420Y-85533496D01*
X135510000Y-85875680D01*
X135510000Y-86052268D01*
X135956475Y-85667585D01*
X135969042Y-85697020D01*
X135996139Y-85744862D01*
X136028994Y-85786098D01*
X136067606Y-85820725D01*
X136101583Y-85842424D01*
X136150282Y-85862491D01*
X136198306Y-85872932D01*
X136250788Y-85876413D01*
X136284802Y-85874917D01*
X136336803Y-85865391D01*
X136384145Y-85845150D01*
X136403293Y-85832567D01*
X136440421Y-85799414D01*
X136471584Y-85758199D01*
X136480736Y-85742477D01*
X136501412Y-85695220D01*
X136514082Y-85647069D01*
X136514818Y-85643176D01*
X136521831Y-85591742D01*
X136525103Y-85542216D01*
X136526050Y-85492463D01*
X136526050Y-85205966D01*
X135510000Y-85205966D01*
X135510000Y-85341765D01*
X135398889Y-85341765D01*
X135398889Y-85094855D01*
X136637161Y-85094855D01*
X136637161Y-86897328D01*
G37*
G36*
X140428489Y-77124052D02*
G01*
X140478725Y-77125531D01*
X140529558Y-77129576D01*
X140579414Y-77136946D01*
X140613013Y-77144701D01*
X140661636Y-77161142D01*
X140708130Y-77183353D01*
X140733073Y-77198537D01*
X140772892Y-77230075D01*
X140806180Y-77267024D01*
X140832938Y-77309382D01*
X140853246Y-77357225D01*
X140865717Y-77404650D01*
X140872938Y-77456685D01*
X140874948Y-77505997D01*
X140873608Y-77548146D01*
X140867655Y-77600124D01*
X140855264Y-77652834D01*
X140836846Y-77699438D01*
X140829367Y-77713647D01*
X140799600Y-77757229D01*
X140762391Y-77794992D01*
X140722540Y-77824002D01*
X140683056Y-77845349D01*
X140636923Y-77863487D01*
X140587962Y-77876025D01*
X140569312Y-77879288D01*
X140519247Y-77885542D01*
X140469988Y-77888846D01*
X140416748Y-77889947D01*
X140289009Y-77889947D01*
X140289009Y-77124002D01*
X140416748Y-77124002D01*
X140428489Y-77124052D01*
G37*
G36*
X141636986Y-77624211D02*
G01*
X141240579Y-77624211D01*
X141636986Y-77162348D01*
X141636986Y-77624211D01*
G37*
G36*
X142031662Y-78126111D02*
G01*
X140042099Y-78126111D01*
X140042099Y-77889947D01*
X140153210Y-77889947D01*
X140153210Y-78015000D01*
X140411375Y-78015000D01*
X140428777Y-78014925D01*
X140478420Y-78013809D01*
X140531474Y-78010814D01*
X140585696Y-78005158D01*
X140638521Y-77995949D01*
X140649235Y-77993474D01*
X140700917Y-77978294D01*
X140749451Y-77958440D01*
X140794836Y-77933911D01*
X140819428Y-77917554D01*
X140859453Y-77885147D01*
X140895644Y-77847924D01*
X140928001Y-77805886D01*
X140956525Y-77759033D01*
X140977193Y-77715899D01*
X140995901Y-77663276D01*
X141008789Y-77608175D01*
X141013035Y-77575607D01*
X141147279Y-77575607D01*
X141147279Y-77624211D01*
X141147279Y-77733632D01*
X141636986Y-77733632D01*
X141636986Y-78015000D01*
X141768877Y-78015000D01*
X141768877Y-77733632D01*
X141920551Y-77733632D01*
X141920551Y-77624211D01*
X141768877Y-77624211D01*
X141768877Y-76998949D01*
X141642359Y-76998949D01*
X141147279Y-77575607D01*
X141013035Y-77575607D01*
X141015203Y-77558973D01*
X141017341Y-77507951D01*
X141015289Y-77453864D01*
X141009133Y-77402610D01*
X140998872Y-77354190D01*
X140981713Y-77301281D01*
X140958967Y-77252229D01*
X140943653Y-77225916D01*
X140913381Y-77183118D01*
X140878691Y-77144458D01*
X140839583Y-77109935D01*
X140796057Y-77079549D01*
X140788318Y-77074911D01*
X140741931Y-77051649D01*
X140694151Y-77033808D01*
X140646581Y-77020443D01*
X140617524Y-77014251D01*
X140564783Y-77006527D01*
X140512324Y-77001972D01*
X140462670Y-76999705D01*
X140408688Y-76998949D01*
X140153210Y-76998949D01*
X140153210Y-77889947D01*
X140042099Y-77889947D01*
X140042099Y-76887838D01*
X142031662Y-76887838D01*
X142031662Y-78126111D01*
G37*
D11*
G36*
X139922730Y-89041742D02*
G01*
X138054311Y-89041742D01*
X138054311Y-88503695D01*
X138165422Y-88503695D01*
X138166018Y-88538685D01*
X138169453Y-88590999D01*
X138176966Y-88644451D01*
X138189846Y-88697135D01*
X138208141Y-88744047D01*
X138235262Y-88790470D01*
X138269714Y-88831468D01*
X138298969Y-88857072D01*
X138343505Y-88885379D01*
X138389881Y-88905474D01*
X138403516Y-88909970D01*
X138452098Y-88921762D01*
X138505497Y-88928641D01*
X138557676Y-88930631D01*
X138569339Y-88930538D01*
X138619554Y-88927832D01*
X138670997Y-88920428D01*
X138722296Y-88906939D01*
X138764824Y-88889284D01*
X138807582Y-88863638D01*
X138846127Y-88831468D01*
X138849562Y-88828053D01*
X138883347Y-88786921D01*
X138907700Y-88743868D01*
X138925994Y-88695425D01*
X138935511Y-88658284D01*
X138944313Y-88606582D01*
X138948892Y-88556894D01*
X138950419Y-88503695D01*
X138950419Y-88039633D01*
X139257920Y-88039633D01*
X139257920Y-88133422D01*
X139470900Y-88133422D01*
X139470900Y-88805579D01*
X139257920Y-88805579D01*
X139257920Y-88915000D01*
X139811619Y-88915000D01*
X139811619Y-88805579D01*
X139602791Y-88805579D01*
X139602791Y-87898949D01*
X139496301Y-87898949D01*
X139493554Y-87922268D01*
X139475297Y-87969047D01*
X139465405Y-87981427D01*
X139425471Y-88011789D01*
X139398617Y-88022495D01*
X139350488Y-88032550D01*
X139308487Y-88037392D01*
X139257920Y-88039633D01*
X138950419Y-88039633D01*
X138950419Y-87898949D01*
X138814375Y-87898949D01*
X138814375Y-88507358D01*
X138814095Y-88529672D01*
X138811136Y-88578455D01*
X138802896Y-88629968D01*
X138788982Y-88673807D01*
X138765038Y-88717651D01*
X138761081Y-88723090D01*
X138726291Y-88758349D01*
X138682484Y-88783841D01*
X138658897Y-88792311D01*
X138609574Y-88802522D01*
X138557676Y-88805579D01*
X138531112Y-88804806D01*
X138482363Y-88798624D01*
X138432868Y-88783597D01*
X138426480Y-88780735D01*
X138383918Y-88753916D01*
X138350802Y-88717651D01*
X138329171Y-88679823D01*
X138312701Y-88632411D01*
X138307785Y-88606704D01*
X138302793Y-88555815D01*
X138301465Y-88503939D01*
X138301465Y-87898949D01*
X138165422Y-87898949D01*
X138165422Y-88503695D01*
X138054311Y-88503695D01*
X138054311Y-87787838D01*
X139922730Y-87787838D01*
X139922730Y-89041742D01*
G37*
G36*
X163915317Y-97223862D02*
G01*
X163909988Y-97275300D01*
X163895495Y-97322561D01*
X163887474Y-97340610D01*
X163861182Y-97384541D01*
X163827555Y-97422668D01*
X163809560Y-97438307D01*
X163765768Y-97468235D01*
X163721100Y-97490961D01*
X163681333Y-97506207D01*
X163632756Y-97519087D01*
X163584020Y-97526600D01*
X163530532Y-97530249D01*
X163505233Y-97530631D01*
X163451302Y-97529364D01*
X163400148Y-97525563D01*
X163345921Y-97518258D01*
X163306176Y-97510359D01*
X163256328Y-97497253D01*
X163205978Y-97481018D01*
X163155125Y-97461653D01*
X163126657Y-97449542D01*
X163126657Y-97280526D01*
X163136183Y-97280526D01*
X163176513Y-97308843D01*
X163219836Y-97333710D01*
X163266150Y-97355127D01*
X163315457Y-97373094D01*
X163365588Y-97387306D01*
X163414131Y-97397458D01*
X163466844Y-97404024D01*
X163506455Y-97405579D01*
X163559118Y-97403463D01*
X163612722Y-97395865D01*
X163664632Y-97380712D01*
X163703314Y-97361371D01*
X163743363Y-97327318D01*
X163768092Y-97282203D01*
X163773656Y-97242913D01*
X163768134Y-97194185D01*
X163746175Y-97150259D01*
X163740195Y-97143995D01*
X163698307Y-97115540D01*
X163651505Y-97097637D01*
X163639079Y-97094169D01*
X163588886Y-97082595D01*
X163538650Y-97073632D01*
X163527460Y-97071943D01*
X163477432Y-97063993D01*
X163429107Y-97055223D01*
X163399965Y-97049473D01*
X163351422Y-97037340D01*
X163301039Y-97019603D01*
X163251702Y-96994610D01*
X163211157Y-96964580D01*
X163198220Y-96952020D01*
X163166578Y-96909973D01*
X163145292Y-96861319D01*
X163135064Y-96812524D01*
X163132763Y-96772501D01*
X163137952Y-96719133D01*
X163153520Y-96670160D01*
X163179466Y-96625581D01*
X163215790Y-96585396D01*
X163241207Y-96564406D01*
X163284009Y-96536849D01*
X163330898Y-96514993D01*
X163381874Y-96498839D01*
X163436937Y-96488386D01*
X163485945Y-96484030D01*
X163516713Y-96483318D01*
X163569561Y-96484615D01*
X163620150Y-96488508D01*
X163674362Y-96495989D01*
X163714550Y-96504078D01*
X163763603Y-96516529D01*
X163814255Y-96532176D01*
X163860852Y-96549731D01*
X163874040Y-96555369D01*
X163874040Y-96717791D01*
X163864515Y-96717791D01*
X163820025Y-96687288D01*
X163772016Y-96662863D01*
X163722649Y-96643573D01*
X163710886Y-96639633D01*
X163663091Y-96625956D01*
X163614715Y-96616186D01*
X163565760Y-96610324D01*
X163516224Y-96608370D01*
X163464308Y-96611011D01*
X163412287Y-96620295D01*
X163362418Y-96638451D01*
X163340614Y-96650624D01*
X163302930Y-96682560D01*
X163278561Y-96727744D01*
X163274424Y-96759556D01*
X163280735Y-96809552D01*
X163303404Y-96854096D01*
X163307397Y-96858719D01*
X163349310Y-96888676D01*
X163398684Y-96907309D01*
X163423412Y-96913674D01*
X163472785Y-96923516D01*
X163524031Y-96932704D01*
X163548464Y-96936877D01*
X163596736Y-96945344D01*
X163648302Y-96955694D01*
X163685973Y-96964476D01*
X163733175Y-96979069D01*
X163780509Y-96999295D01*
X163825329Y-97026575D01*
X163857676Y-97054846D01*
X163888073Y-97097274D01*
X163905804Y-97143534D01*
X163914417Y-97197446D01*
X163915317Y-97223862D01*
G37*
G36*
X165318981Y-96498949D02*
G01*
X165053245Y-97515000D01*
X164899860Y-97515000D01*
X164684926Y-96671629D01*
X164474633Y-97515000D01*
X164324912Y-97515000D01*
X164054291Y-96498949D01*
X164193754Y-96498949D01*
X164408688Y-97343785D01*
X164620446Y-96498949D01*
X164758444Y-96498949D01*
X164972156Y-97351845D01*
X165185624Y-96498949D01*
X165318981Y-96498949D01*
G37*
G36*
X166088590Y-97022117D02*
G01*
X166121975Y-97059804D01*
X166142812Y-97095635D01*
X166158064Y-97142714D01*
X166163729Y-97192633D01*
X166164061Y-97209696D01*
X166160489Y-97260105D01*
X166148557Y-97311072D01*
X166138660Y-97336946D01*
X166114595Y-97381361D01*
X166083678Y-97420939D01*
X166067097Y-97437575D01*
X166026018Y-97469792D01*
X165979719Y-97495002D01*
X165945952Y-97507916D01*
X165896480Y-97520849D01*
X165843775Y-97528413D01*
X165793056Y-97530631D01*
X165740172Y-97528699D01*
X165687765Y-97522903D01*
X165635834Y-97513243D01*
X165625506Y-97510847D01*
X165576924Y-97498125D01*
X165530096Y-97483304D01*
X165490195Y-97467616D01*
X165490195Y-97327421D01*
X165500453Y-97327421D01*
X165547119Y-97351086D01*
X165594965Y-97369942D01*
X165637718Y-97383353D01*
X165686628Y-97395073D01*
X165739163Y-97402952D01*
X165790370Y-97405579D01*
X165840705Y-97401174D01*
X165882205Y-97391657D01*
X165928868Y-97372814D01*
X165961340Y-97349891D01*
X165993072Y-97312730D01*
X166008234Y-97284923D01*
X166021286Y-97236151D01*
X166023866Y-97195041D01*
X166019469Y-97146132D01*
X166006280Y-97106381D01*
X165977629Y-97066636D01*
X165957920Y-97050938D01*
X165911633Y-97029370D01*
X165882938Y-97022606D01*
X165834296Y-97016507D01*
X165788171Y-97014790D01*
X165726378Y-97014790D01*
X165726378Y-96905369D01*
X165774494Y-96905369D01*
X165824106Y-96902790D01*
X165873569Y-96893720D01*
X165920643Y-96875984D01*
X165941067Y-96864092D01*
X165979020Y-96827628D01*
X165999457Y-96780515D01*
X166003349Y-96743192D01*
X165993659Y-96693604D01*
X165987474Y-96681643D01*
X165953688Y-96645067D01*
X165943510Y-96638412D01*
X165896844Y-96618811D01*
X165880251Y-96614965D01*
X165829855Y-96609014D01*
X165804047Y-96608370D01*
X165753970Y-96611255D01*
X165701557Y-96619911D01*
X165665317Y-96628886D01*
X165615755Y-96644844D01*
X165568156Y-96664842D01*
X165526587Y-96686528D01*
X165519748Y-96686528D01*
X165519748Y-96546332D01*
X165568709Y-96526517D01*
X165615901Y-96511932D01*
X165649930Y-96503101D01*
X165700262Y-96492669D01*
X165749592Y-96486100D01*
X165802699Y-96483337D01*
X165807467Y-96483318D01*
X165856881Y-96484905D01*
X165905917Y-96490257D01*
X165939358Y-96496751D01*
X165987216Y-96511544D01*
X166033720Y-96534138D01*
X166042428Y-96539494D01*
X166081184Y-96570275D01*
X166112435Y-96608961D01*
X166117411Y-96617407D01*
X166135643Y-96663432D01*
X166142589Y-96712585D01*
X166142812Y-96723897D01*
X166136944Y-96773747D01*
X166119342Y-96819495D01*
X166090004Y-96861140D01*
X166082728Y-96868977D01*
X166043053Y-96903138D01*
X165999132Y-96928378D01*
X165950966Y-96944697D01*
X165940823Y-96946891D01*
X165940823Y-96956172D01*
X165988202Y-96968379D01*
X166016294Y-96978886D01*
X166060206Y-97001100D01*
X166088590Y-97022117D01*
G37*
D10*
G36*
X126449352Y-86541742D02*
G01*
X124534283Y-86541742D01*
X124534283Y-85907951D01*
X124645394Y-85907951D01*
X124645720Y-85932354D01*
X124649019Y-85987106D01*
X124655872Y-86038796D01*
X124666277Y-86087424D01*
X124682519Y-86139249D01*
X124697454Y-86175299D01*
X124720520Y-86219545D01*
X124750775Y-86264103D01*
X124785589Y-86303136D01*
X124807228Y-86322821D01*
X124849062Y-86353986D01*
X124894606Y-86379665D01*
X124943859Y-86399856D01*
X124990677Y-86413320D01*
X125040029Y-86422937D01*
X125091916Y-86428708D01*
X125146336Y-86430631D01*
X125153685Y-86430595D01*
X125202939Y-86428311D01*
X125254536Y-86421350D01*
X125296089Y-86412694D01*
X125345394Y-86399368D01*
X125379901Y-86387702D01*
X125425506Y-86369326D01*
X125447361Y-86359188D01*
X125493894Y-86338551D01*
X125493894Y-86227421D01*
X125671947Y-86227421D01*
X125671947Y-86371280D01*
X125703947Y-86384576D01*
X125752565Y-86400502D01*
X125803105Y-86413290D01*
X125812838Y-86415390D01*
X125862216Y-86423857D01*
X125912786Y-86428938D01*
X125964550Y-86430631D01*
X125970146Y-86430606D01*
X126023803Y-86427601D01*
X126073262Y-86419586D01*
X126122819Y-86404986D01*
X126155838Y-86390667D01*
X126200958Y-86364037D01*
X126240788Y-86331224D01*
X126259645Y-86310688D01*
X126289828Y-86267339D01*
X126312107Y-86221315D01*
X126323541Y-86188327D01*
X126334566Y-86137414D01*
X126338241Y-86084783D01*
X126335845Y-86036621D01*
X126326411Y-85984262D01*
X126307955Y-85935307D01*
X126293620Y-85910274D01*
X126260671Y-85869304D01*
X126222958Y-85837854D01*
X126202997Y-85825246D01*
X126157274Y-85803171D01*
X126108164Y-85788272D01*
X126062753Y-85780207D01*
X126012494Y-85775490D01*
X125962596Y-85774106D01*
X125958264Y-85774119D01*
X125908862Y-85775572D01*
X125897365Y-85776081D01*
X125848534Y-85779480D01*
X125848534Y-85508370D01*
X126331402Y-85508370D01*
X126331402Y-85383318D01*
X125715910Y-85383318D01*
X125715910Y-85914790D01*
X125763331Y-85903700D01*
X125812386Y-85894030D01*
X125826442Y-85891568D01*
X125876778Y-85885537D01*
X125928890Y-85883527D01*
X125940644Y-85883622D01*
X125992656Y-85886560D01*
X126043196Y-85894274D01*
X126085083Y-85906455D01*
X126130146Y-85930910D01*
X126150637Y-85947586D01*
X126180460Y-85989040D01*
X126194199Y-86029523D01*
X126198778Y-86078189D01*
X126195344Y-86126002D01*
X126183147Y-86173443D01*
X126168226Y-86204888D01*
X126137718Y-86244030D01*
X126101911Y-86271578D01*
X126056141Y-86291901D01*
X126012678Y-86301719D01*
X125961863Y-86305579D01*
X125916086Y-86303360D01*
X125865071Y-86295796D01*
X125813363Y-86282864D01*
X125772418Y-86269196D01*
X125726466Y-86250445D01*
X125681472Y-86227421D01*
X125671947Y-86227421D01*
X125493894Y-86227421D01*
X125493894Y-86180526D01*
X125484368Y-86180526D01*
X125460668Y-86199303D01*
X125416655Y-86229253D01*
X125370903Y-86254257D01*
X125323412Y-86274316D01*
X125296318Y-86283322D01*
X125246015Y-86295687D01*
X125193741Y-86303106D01*
X125139497Y-86305579D01*
X125104174Y-86304113D01*
X125052905Y-86296420D01*
X125003698Y-86282131D01*
X124972588Y-86268713D01*
X124929700Y-86242690D01*
X124891346Y-86209591D01*
X124864270Y-86177434D01*
X124838232Y-86135835D01*
X124816120Y-86087714D01*
X124807747Y-86063572D01*
X124795258Y-86011032D01*
X124788871Y-85958891D01*
X124787055Y-85908684D01*
X124787467Y-85884199D01*
X124791408Y-85831786D01*
X124799523Y-85783082D01*
X124813433Y-85733318D01*
X124830050Y-85692677D01*
X124854821Y-85648672D01*
X124887439Y-85607777D01*
X124912580Y-85583933D01*
X124953441Y-85554463D01*
X124998081Y-85532550D01*
X125034331Y-85520861D01*
X125086452Y-85511227D01*
X125138032Y-85508370D01*
X125167360Y-85509098D01*
X125218708Y-85514074D01*
X125268202Y-85523764D01*
X125315841Y-85538168D01*
X125352337Y-85552911D01*
X125399433Y-85576880D01*
X125441458Y-85602923D01*
X125483635Y-85633422D01*
X125493894Y-85633422D01*
X125493894Y-85472955D01*
X125456894Y-85455243D01*
X125409564Y-85434941D01*
X125359055Y-85416625D01*
X125311444Y-85403101D01*
X125301184Y-85400706D01*
X125249826Y-85391046D01*
X125198373Y-85385250D01*
X125146825Y-85383318D01*
X125091778Y-85385485D01*
X125039236Y-85391988D01*
X124989196Y-85402827D01*
X124941661Y-85418000D01*
X124913471Y-85429531D01*
X124866066Y-85454164D01*
X124822951Y-85483782D01*
X124784124Y-85518384D01*
X124756234Y-85549551D01*
X124724773Y-85593916D01*
X124700959Y-85637407D01*
X124681053Y-85684713D01*
X124674681Y-85703401D01*
X124660751Y-85755501D01*
X124652219Y-85803793D01*
X124647100Y-85854610D01*
X124645394Y-85907951D01*
X124534283Y-85907951D01*
X124534283Y-85272207D01*
X126449352Y-85272207D01*
X126449352Y-86541742D01*
G37*
G36*
X168198803Y-96268439D02*
G01*
X168246909Y-96280879D01*
X168271971Y-96294171D01*
X168308703Y-96326552D01*
X168331697Y-96361142D01*
X168348026Y-96408129D01*
X168350487Y-96420414D01*
X168356795Y-96471036D01*
X168358528Y-96520725D01*
X168358528Y-96658234D01*
X167999003Y-96658234D01*
X167999003Y-96498255D01*
X168000405Y-96452928D01*
X168006330Y-96402756D01*
X168012007Y-96378489D01*
X168032220Y-96332658D01*
X168046784Y-96312351D01*
X168085709Y-96281611D01*
X168108606Y-96272712D01*
X168158249Y-96265980D01*
X168198803Y-96268439D01*
G37*
G36*
X169016743Y-96905144D02*
G01*
X167747208Y-96905144D01*
X167747208Y-96507536D01*
X167873950Y-96507536D01*
X167873950Y-96794033D01*
X168890001Y-96794033D01*
X168890001Y-96658234D01*
X168483580Y-96658234D01*
X168483580Y-96466503D01*
X168890001Y-96124319D01*
X168890001Y-95947731D01*
X168443525Y-96332414D01*
X168430958Y-96302979D01*
X168403861Y-96255137D01*
X168371006Y-96213901D01*
X168332394Y-96179274D01*
X168298417Y-96157575D01*
X168249718Y-96137508D01*
X168201694Y-96127067D01*
X168149212Y-96123586D01*
X168115198Y-96125082D01*
X168063197Y-96134608D01*
X168015855Y-96154849D01*
X167996707Y-96167432D01*
X167959579Y-96200585D01*
X167928416Y-96241800D01*
X167919264Y-96257522D01*
X167898588Y-96304779D01*
X167885918Y-96352930D01*
X167885182Y-96356823D01*
X167878169Y-96408257D01*
X167874897Y-96457783D01*
X167874127Y-96498255D01*
X167873950Y-96507536D01*
X167747208Y-96507536D01*
X167747208Y-95526412D01*
X167858319Y-95526412D01*
X167858338Y-95531180D01*
X167861101Y-95584287D01*
X167867670Y-95633617D01*
X167878102Y-95683949D01*
X167886933Y-95717978D01*
X167901518Y-95765170D01*
X167921333Y-95814130D01*
X168061529Y-95814130D01*
X168061529Y-95807292D01*
X168039843Y-95765723D01*
X168019845Y-95718123D01*
X168003887Y-95668562D01*
X167994912Y-95632322D01*
X167986256Y-95579909D01*
X167983371Y-95529832D01*
X167984015Y-95504024D01*
X167989966Y-95453628D01*
X167993812Y-95437035D01*
X168013413Y-95390369D01*
X168020068Y-95380191D01*
X168056644Y-95346405D01*
X168068605Y-95340219D01*
X168118193Y-95330530D01*
X168155516Y-95334422D01*
X168202629Y-95354859D01*
X168239093Y-95392812D01*
X168250985Y-95413236D01*
X168268721Y-95460310D01*
X168277791Y-95509773D01*
X168280370Y-95559385D01*
X168280370Y-95607501D01*
X168389791Y-95607501D01*
X168389791Y-95545708D01*
X168391508Y-95499583D01*
X168397607Y-95450941D01*
X168404371Y-95422246D01*
X168425939Y-95375959D01*
X168441637Y-95356250D01*
X168481382Y-95327599D01*
X168521133Y-95314410D01*
X168570042Y-95310013D01*
X168611152Y-95312593D01*
X168659924Y-95325645D01*
X168687731Y-95340807D01*
X168724892Y-95372539D01*
X168747815Y-95405011D01*
X168766658Y-95451674D01*
X168776175Y-95493174D01*
X168780580Y-95543509D01*
X168777953Y-95594716D01*
X168770074Y-95647251D01*
X168758354Y-95696161D01*
X168744943Y-95738914D01*
X168726087Y-95786760D01*
X168702422Y-95833426D01*
X168702422Y-95843684D01*
X168842617Y-95843684D01*
X168858305Y-95803783D01*
X168873126Y-95756955D01*
X168885848Y-95708373D01*
X168888244Y-95698045D01*
X168897904Y-95646114D01*
X168903700Y-95593707D01*
X168905632Y-95540823D01*
X168903414Y-95490104D01*
X168895850Y-95437399D01*
X168882917Y-95387927D01*
X168870003Y-95354160D01*
X168844793Y-95307861D01*
X168812576Y-95266782D01*
X168795940Y-95250201D01*
X168756362Y-95219284D01*
X168711947Y-95195219D01*
X168686073Y-95185322D01*
X168635106Y-95173390D01*
X168584697Y-95169818D01*
X168567634Y-95170150D01*
X168517715Y-95175815D01*
X168470636Y-95191067D01*
X168434805Y-95211904D01*
X168397118Y-95245289D01*
X168376101Y-95273673D01*
X168353887Y-95317585D01*
X168343380Y-95345677D01*
X168331173Y-95393056D01*
X168321892Y-95393056D01*
X168319698Y-95382913D01*
X168303379Y-95334747D01*
X168278139Y-95290826D01*
X168243978Y-95251151D01*
X168236141Y-95243875D01*
X168194496Y-95214537D01*
X168148748Y-95196935D01*
X168098898Y-95191067D01*
X168087586Y-95191290D01*
X168038433Y-95198236D01*
X167992408Y-95216468D01*
X167983962Y-95221443D01*
X167945276Y-95252695D01*
X167914495Y-95291451D01*
X167909139Y-95300159D01*
X167886545Y-95346663D01*
X167871752Y-95394521D01*
X167865258Y-95427962D01*
X167859906Y-95476998D01*
X167858319Y-95526412D01*
X167747208Y-95526412D01*
X167747208Y-95058707D01*
X169016743Y-95058707D01*
X169016743Y-96905144D01*
G37*
D11*
G36*
X143577479Y-106758776D02*
G01*
X143631621Y-106764858D01*
X143681160Y-106778239D01*
X143726097Y-106798918D01*
X143766431Y-106826896D01*
X143802163Y-106862173D01*
X143827916Y-106896747D01*
X143853058Y-106943870D01*
X143871914Y-106997142D01*
X143882826Y-107046231D01*
X143889374Y-107099590D01*
X143891556Y-107157219D01*
X143890144Y-107204102D01*
X143884408Y-107258724D01*
X143874259Y-107308921D01*
X143856255Y-107363318D01*
X143831898Y-107411343D01*
X143801186Y-107452997D01*
X143789648Y-107465419D01*
X143752124Y-107497876D01*
X143710238Y-107523121D01*
X143663990Y-107541153D01*
X143613381Y-107551972D01*
X143558409Y-107555579D01*
X143539598Y-107555178D01*
X143486052Y-107549167D01*
X143436833Y-107535944D01*
X143391942Y-107515508D01*
X143351379Y-107487859D01*
X143315143Y-107452997D01*
X143289038Y-107418728D01*
X143263553Y-107371764D01*
X143244439Y-107318430D01*
X143233378Y-107269117D01*
X143226741Y-107215380D01*
X143224529Y-107157219D01*
X143225918Y-107110774D01*
X143231561Y-107056561D01*
X143241546Y-107006618D01*
X143259257Y-106952322D01*
X143283220Y-106904173D01*
X143313433Y-106862173D01*
X143324809Y-106849603D01*
X143362083Y-106816759D01*
X143404081Y-106791214D01*
X143450801Y-106772967D01*
X143502243Y-106762019D01*
X143558409Y-106758370D01*
X143577479Y-106758776D01*
G37*
G36*
X144961809Y-108041847D02*
G01*
X142971757Y-108041847D01*
X142971757Y-107157219D01*
X143082868Y-107157219D01*
X143082998Y-107172741D01*
X143085495Y-107225358D01*
X143091172Y-107275310D01*
X143101553Y-107329135D01*
X143116085Y-107379480D01*
X143127233Y-107409118D01*
X143150787Y-107458740D01*
X143178822Y-107503571D01*
X143211340Y-107543611D01*
X143231294Y-107563679D01*
X143270458Y-107595924D01*
X143313795Y-107623184D01*
X143361305Y-107645460D01*
X143406734Y-107660847D01*
X143454606Y-107671838D01*
X143504920Y-107678433D01*
X143557676Y-107680631D01*
X143587474Y-107679654D01*
X143619469Y-107675990D01*
X143625320Y-107727016D01*
X143639791Y-107778662D01*
X143662567Y-107823194D01*
X143698116Y-107864790D01*
X143742629Y-107896668D01*
X143788424Y-107916246D01*
X143840082Y-107927580D01*
X143890091Y-107930736D01*
X143921323Y-107930049D01*
X143972156Y-107925851D01*
X144005061Y-107920874D01*
X144053733Y-107909975D01*
X144053733Y-107774420D01*
X144035171Y-107774420D01*
X144026841Y-107778467D01*
X143979728Y-107794448D01*
X143963252Y-107798826D01*
X143912805Y-107805683D01*
X143880800Y-107804198D01*
X143828639Y-107792314D01*
X143787753Y-107763429D01*
X143774205Y-107743307D01*
X143757108Y-107697255D01*
X143750628Y-107644727D01*
X143766572Y-107638112D01*
X143811933Y-107614716D01*
X143853584Y-107585996D01*
X143891525Y-107551953D01*
X143925758Y-107512586D01*
X143956280Y-107467896D01*
X143982344Y-107418499D01*
X144003015Y-107365016D01*
X144016121Y-107317324D01*
X144025483Y-107266794D01*
X144031100Y-107213425D01*
X144032973Y-107157219D01*
X144032842Y-107141783D01*
X144030326Y-107089395D01*
X144024607Y-107039555D01*
X144014151Y-106985714D01*
X143999511Y-106935202D01*
X143986025Y-106899539D01*
X143964836Y-106855300D01*
X143936621Y-106810057D01*
X143920034Y-106789633D01*
X144296999Y-106789633D01*
X144296999Y-106883422D01*
X144509979Y-106883422D01*
X144509979Y-107555579D01*
X144296999Y-107555579D01*
X144296999Y-107665000D01*
X144850698Y-107665000D01*
X144850698Y-107555579D01*
X144641870Y-107555579D01*
X144641870Y-106648949D01*
X144535380Y-106648949D01*
X144532632Y-106672268D01*
X144514375Y-106719047D01*
X144504483Y-106731427D01*
X144464550Y-106761789D01*
X144437695Y-106772495D01*
X144389567Y-106782550D01*
X144347566Y-106787392D01*
X144296999Y-106789633D01*
X143920034Y-106789633D01*
X143903768Y-106769605D01*
X143884037Y-106749883D01*
X143845244Y-106718080D01*
X143802240Y-106691030D01*
X143755024Y-106668733D01*
X143709900Y-106653239D01*
X143661968Y-106642172D01*
X143611226Y-106635531D01*
X143557676Y-106633318D01*
X143512083Y-106635001D01*
X143461895Y-106641046D01*
X143413753Y-106651487D01*
X143362038Y-106668489D01*
X143334741Y-106680231D01*
X143289215Y-106705154D01*
X143248325Y-106734945D01*
X143212072Y-106769605D01*
X143185846Y-106801403D01*
X143156385Y-106846236D01*
X143134220Y-106889818D01*
X143115841Y-106936912D01*
X143111848Y-106949192D01*
X143098453Y-107000300D01*
X143089179Y-107054583D01*
X143084446Y-107104685D01*
X143082868Y-107157219D01*
X142971757Y-107157219D01*
X142971757Y-106522207D01*
X144961809Y-106522207D01*
X144961809Y-108041847D01*
G37*
D10*
G36*
X169862650Y-109429240D02*
G01*
X169400787Y-109429240D01*
X169400787Y-109032833D01*
X169862650Y-109429240D01*
G37*
G36*
X169900996Y-107456734D02*
G01*
X169899594Y-107502061D01*
X169893669Y-107552233D01*
X169887992Y-107576500D01*
X169867779Y-107622331D01*
X169853215Y-107642638D01*
X169814290Y-107673378D01*
X169791393Y-107682277D01*
X169741750Y-107689009D01*
X169701196Y-107686550D01*
X169653090Y-107674110D01*
X169628028Y-107660818D01*
X169591296Y-107628437D01*
X169568302Y-107593847D01*
X169551973Y-107546860D01*
X169549512Y-107534575D01*
X169543204Y-107483953D01*
X169541471Y-107434264D01*
X169541471Y-107296755D01*
X169900996Y-107296755D01*
X169900996Y-107456734D01*
G37*
G36*
X170137160Y-109823916D02*
G01*
X168898888Y-109823916D01*
X168898888Y-109429240D01*
X169009999Y-109429240D01*
X169009999Y-109561131D01*
X169291366Y-109561131D01*
X169291366Y-109712805D01*
X169400787Y-109712805D01*
X169400787Y-109561131D01*
X170026049Y-109561131D01*
X170026049Y-109434613D01*
X169449391Y-108939533D01*
X169291366Y-108939533D01*
X169291366Y-109429240D01*
X169009999Y-109429240D01*
X168898888Y-109429240D01*
X168898888Y-108741207D01*
X169009999Y-108741207D01*
X169119419Y-108741207D01*
X169119419Y-108532380D01*
X170026049Y-108532380D01*
X170026049Y-108425890D01*
X170002730Y-108423142D01*
X169955951Y-108404885D01*
X169943571Y-108394993D01*
X169913209Y-108355060D01*
X169902503Y-108328205D01*
X169892448Y-108280077D01*
X169887606Y-108238076D01*
X169885365Y-108187509D01*
X169791576Y-108187509D01*
X169791576Y-108400489D01*
X169119419Y-108400489D01*
X169119419Y-108187509D01*
X169009999Y-108187509D01*
X169009999Y-108741207D01*
X168898888Y-108741207D01*
X168898888Y-107296755D01*
X169009999Y-107296755D01*
X169416419Y-107296755D01*
X169416419Y-107434264D01*
X169416419Y-107488486D01*
X169009999Y-107830670D01*
X169009999Y-108007258D01*
X169456474Y-107622575D01*
X169469041Y-107652010D01*
X169496138Y-107699852D01*
X169528993Y-107741088D01*
X169567605Y-107775715D01*
X169601582Y-107797414D01*
X169650281Y-107817481D01*
X169698305Y-107827922D01*
X169750787Y-107831403D01*
X169784801Y-107829907D01*
X169836802Y-107820381D01*
X169884144Y-107800140D01*
X169903292Y-107787557D01*
X169940420Y-107754404D01*
X169971583Y-107713189D01*
X169980735Y-107697467D01*
X170001411Y-107650210D01*
X170014081Y-107602059D01*
X170014817Y-107598166D01*
X170021830Y-107546732D01*
X170025102Y-107497206D01*
X170026049Y-107447453D01*
X170026049Y-107160956D01*
X169009999Y-107160956D01*
X169009999Y-107296755D01*
X168898888Y-107296755D01*
X168898888Y-107049845D01*
X170137160Y-107049845D01*
X170137160Y-109823916D01*
G37*
G36*
X116687651Y-104781193D02*
G01*
X116225788Y-104781193D01*
X116225788Y-104384787D01*
X116687651Y-104781193D01*
G37*
G36*
X116977792Y-105175870D02*
G01*
X115708257Y-105175870D01*
X115708257Y-104781193D01*
X115835000Y-104781193D01*
X115835000Y-104913085D01*
X116116367Y-104913085D01*
X116116367Y-105064759D01*
X116225788Y-105064759D01*
X116225788Y-104913085D01*
X116851050Y-104913085D01*
X116851050Y-104786567D01*
X116274392Y-104291487D01*
X116116367Y-104291487D01*
X116116367Y-104781193D01*
X115835000Y-104781193D01*
X115708257Y-104781193D01*
X115708257Y-104093161D01*
X115835000Y-104093161D01*
X115944420Y-104093161D01*
X115944420Y-103884334D01*
X116851050Y-103884334D01*
X116851050Y-103777844D01*
X116827731Y-103775096D01*
X116780952Y-103756839D01*
X116768572Y-103746947D01*
X116738210Y-103707013D01*
X116727504Y-103680159D01*
X116717449Y-103632031D01*
X116712607Y-103590030D01*
X116710366Y-103539463D01*
X116616577Y-103539463D01*
X116616577Y-103752443D01*
X115944420Y-103752443D01*
X115944420Y-103539463D01*
X115835000Y-103539463D01*
X115835000Y-104093161D01*
X115708257Y-104093161D01*
X115708257Y-102951326D01*
X115819368Y-102951326D01*
X115819404Y-102958675D01*
X115821688Y-103007929D01*
X115828649Y-103059526D01*
X115837305Y-103101079D01*
X115850631Y-103150384D01*
X115862297Y-103184891D01*
X115880673Y-103230496D01*
X115890811Y-103252351D01*
X115911448Y-103298884D01*
X116069473Y-103298884D01*
X116069473Y-103289358D01*
X116050696Y-103265658D01*
X116020746Y-103221645D01*
X115995742Y-103175893D01*
X115975683Y-103128402D01*
X115966677Y-103101308D01*
X115954312Y-103051005D01*
X115946893Y-102998731D01*
X115944420Y-102944487D01*
X115945886Y-102909164D01*
X115953579Y-102857895D01*
X115967868Y-102808688D01*
X115981286Y-102777578D01*
X116007309Y-102734690D01*
X116040408Y-102696336D01*
X116072565Y-102669260D01*
X116114164Y-102643222D01*
X116162285Y-102621110D01*
X116186427Y-102612737D01*
X116238967Y-102600248D01*
X116291108Y-102593861D01*
X116341315Y-102592045D01*
X116365800Y-102592457D01*
X116418213Y-102596398D01*
X116466917Y-102604513D01*
X116516681Y-102618423D01*
X116557322Y-102635040D01*
X116601327Y-102659811D01*
X116642222Y-102692429D01*
X116666066Y-102717570D01*
X116695536Y-102758431D01*
X116717449Y-102803071D01*
X116729138Y-102839321D01*
X116738772Y-102891442D01*
X116741629Y-102943022D01*
X116740901Y-102972350D01*
X116735925Y-103023698D01*
X116726235Y-103073192D01*
X116711831Y-103120831D01*
X116697088Y-103157327D01*
X116673119Y-103204423D01*
X116647076Y-103246448D01*
X116616577Y-103288625D01*
X116616577Y-103298884D01*
X116777044Y-103298884D01*
X116794756Y-103261884D01*
X116815058Y-103214554D01*
X116833374Y-103164045D01*
X116846898Y-103116434D01*
X116849293Y-103106174D01*
X116858953Y-103054816D01*
X116864749Y-103003363D01*
X116866681Y-102951815D01*
X116864514Y-102896768D01*
X116858011Y-102844226D01*
X116847172Y-102794186D01*
X116831999Y-102746651D01*
X116820468Y-102718461D01*
X116795835Y-102671056D01*
X116766217Y-102627941D01*
X116731615Y-102589114D01*
X116700448Y-102561224D01*
X116656083Y-102529763D01*
X116612592Y-102505949D01*
X116565286Y-102486043D01*
X116546598Y-102479671D01*
X116494498Y-102465741D01*
X116446206Y-102457209D01*
X116395389Y-102452090D01*
X116342048Y-102450384D01*
X116317645Y-102450710D01*
X116262893Y-102454009D01*
X116211203Y-102460862D01*
X116162575Y-102471267D01*
X116110750Y-102487509D01*
X116074700Y-102502444D01*
X116030454Y-102525510D01*
X115985896Y-102555765D01*
X115946863Y-102590579D01*
X115927178Y-102612218D01*
X115896013Y-102654052D01*
X115870334Y-102699596D01*
X115850143Y-102748849D01*
X115836679Y-102795667D01*
X115827062Y-102845019D01*
X115821291Y-102896906D01*
X115819368Y-102951326D01*
X115708257Y-102951326D01*
X115708257Y-102339273D01*
X116977792Y-102339273D01*
X116977792Y-105175870D01*
G37*
G36*
X140634453Y-81727792D02*
G01*
X137360417Y-81727792D01*
X137360417Y-80710052D01*
X137471528Y-80710052D01*
X138021807Y-80710052D01*
X137995975Y-80731553D01*
X137955843Y-80765092D01*
X137914050Y-80800177D01*
X137875505Y-80832662D01*
X137836610Y-80866031D01*
X137798325Y-80899951D01*
X137760650Y-80934419D01*
X137723586Y-80969438D01*
X137707863Y-80984565D01*
X137670555Y-81021885D01*
X137636147Y-81058831D01*
X137633897Y-81061351D01*
X137602320Y-81099497D01*
X137573133Y-81140896D01*
X137547853Y-81186386D01*
X137529657Y-81234441D01*
X137527853Y-81240668D01*
X137518032Y-81289258D01*
X137514759Y-81341175D01*
X137515108Y-81356845D01*
X137521830Y-81408443D01*
X137539988Y-81461230D01*
X137569320Y-81507423D01*
X137604151Y-81542431D01*
X137639978Y-81567665D01*
X137687831Y-81590505D01*
X137742206Y-81606240D01*
X137794004Y-81614071D01*
X137850592Y-81616681D01*
X137855375Y-81616662D01*
X137908615Y-81613934D01*
X137958017Y-81607446D01*
X137989274Y-81601050D01*
X138331018Y-81601050D01*
X138464375Y-81601050D01*
X138677843Y-80748154D01*
X138891555Y-81601050D01*
X139029553Y-81601050D01*
X139241311Y-80756214D01*
X139456245Y-81601050D01*
X139595708Y-81601050D01*
X139402630Y-80876137D01*
X139734682Y-80876137D01*
X139735582Y-80902553D01*
X139744195Y-80956465D01*
X139761926Y-81002725D01*
X139792323Y-81045153D01*
X139824670Y-81073424D01*
X139869490Y-81100704D01*
X139916824Y-81120930D01*
X139964026Y-81135523D01*
X140001697Y-81144305D01*
X140053263Y-81154655D01*
X140101535Y-81163122D01*
X140125968Y-81167295D01*
X140177214Y-81176483D01*
X140226587Y-81186325D01*
X140251315Y-81192690D01*
X140300689Y-81211323D01*
X140342602Y-81241280D01*
X140346595Y-81245903D01*
X140369264Y-81290447D01*
X140375575Y-81340443D01*
X140371438Y-81372255D01*
X140347069Y-81417439D01*
X140309385Y-81449375D01*
X140287581Y-81461548D01*
X140237712Y-81479704D01*
X140185691Y-81488988D01*
X140133775Y-81491629D01*
X140084239Y-81489675D01*
X140035284Y-81483813D01*
X139986908Y-81474043D01*
X139939113Y-81460366D01*
X139927350Y-81456426D01*
X139877983Y-81437136D01*
X139829974Y-81412711D01*
X139785484Y-81382208D01*
X139775959Y-81382208D01*
X139775959Y-81544630D01*
X139789147Y-81550268D01*
X139835744Y-81567823D01*
X139886396Y-81583470D01*
X139935449Y-81595921D01*
X139975637Y-81604010D01*
X140029849Y-81611491D01*
X140080438Y-81615384D01*
X140133286Y-81616681D01*
X140164054Y-81615969D01*
X140213062Y-81611613D01*
X140268125Y-81601160D01*
X140319101Y-81585006D01*
X140365990Y-81563150D01*
X140408792Y-81535593D01*
X140434209Y-81514603D01*
X140470533Y-81474418D01*
X140496479Y-81429839D01*
X140512047Y-81380866D01*
X140517236Y-81327498D01*
X140514935Y-81287475D01*
X140504707Y-81238680D01*
X140483421Y-81190026D01*
X140451779Y-81147979D01*
X140438842Y-81135419D01*
X140398297Y-81105389D01*
X140348960Y-81080396D01*
X140298577Y-81062659D01*
X140250034Y-81050526D01*
X140220892Y-81044776D01*
X140172567Y-81036006D01*
X140122539Y-81028056D01*
X140111349Y-81026367D01*
X140061113Y-81017404D01*
X140010920Y-81005830D01*
X139998494Y-81002362D01*
X139951692Y-80984459D01*
X139909804Y-80956004D01*
X139903824Y-80949740D01*
X139881865Y-80905814D01*
X139876343Y-80857086D01*
X139881907Y-80817796D01*
X139906636Y-80772681D01*
X139946685Y-80738628D01*
X139985367Y-80719287D01*
X140037277Y-80704134D01*
X140090881Y-80696536D01*
X140143544Y-80694420D01*
X140183155Y-80695975D01*
X140235868Y-80702541D01*
X140284411Y-80712693D01*
X140334542Y-80726905D01*
X140383849Y-80744872D01*
X140430163Y-80766289D01*
X140473486Y-80791156D01*
X140513816Y-80819473D01*
X140523342Y-80819473D01*
X140523342Y-80650457D01*
X140494874Y-80638346D01*
X140444021Y-80618981D01*
X140393671Y-80602746D01*
X140343823Y-80589640D01*
X140304078Y-80581741D01*
X140249851Y-80574436D01*
X140198697Y-80570635D01*
X140144766Y-80569368D01*
X140119467Y-80569750D01*
X140065979Y-80573399D01*
X140017243Y-80580912D01*
X139968666Y-80593792D01*
X139928899Y-80609038D01*
X139884231Y-80631764D01*
X139840439Y-80661692D01*
X139822444Y-80677331D01*
X139788817Y-80715458D01*
X139762525Y-80759389D01*
X139754504Y-80777438D01*
X139740011Y-80824699D01*
X139734682Y-80876137D01*
X139402630Y-80876137D01*
X139325087Y-80585000D01*
X139175366Y-80585000D01*
X138965073Y-81428370D01*
X138750139Y-80585000D01*
X138596754Y-80585000D01*
X138331018Y-81601050D01*
X137989274Y-81601050D01*
X138008373Y-81597142D01*
X138042402Y-81588502D01*
X138089595Y-81574121D01*
X138138555Y-81554399D01*
X138138555Y-81413471D01*
X138131716Y-81413471D01*
X138088029Y-81436221D01*
X138039202Y-81456673D01*
X137989567Y-81472334D01*
X137958214Y-81479852D01*
X137906752Y-81488444D01*
X137854256Y-81491629D01*
X137804529Y-81488190D01*
X137752724Y-81474646D01*
X137707466Y-81448154D01*
X137682082Y-81421052D01*
X137661159Y-81376682D01*
X137654954Y-81327742D01*
X137655145Y-81317224D01*
X137661823Y-81266010D01*
X137678043Y-81217085D01*
X137703803Y-81170450D01*
X137706922Y-81165866D01*
X137737731Y-81125627D01*
X137773229Y-81085209D01*
X137809999Y-81046695D01*
X137845115Y-81011871D01*
X137884298Y-80974567D01*
X137904082Y-80956078D01*
X137940925Y-80922708D01*
X137979353Y-80889222D01*
X138019364Y-80855621D01*
X138042021Y-80836991D01*
X138082743Y-80803428D01*
X138123388Y-80769826D01*
X138163956Y-80736186D01*
X138163956Y-80585000D01*
X137471528Y-80585000D01*
X137471528Y-80710052D01*
X137360417Y-80710052D01*
X137360417Y-80458257D01*
X140634453Y-80458257D01*
X140634453Y-81727792D01*
G37*
G36*
X167150996Y-107456734D02*
G01*
X167149594Y-107502061D01*
X167143669Y-107552233D01*
X167137992Y-107576500D01*
X167117779Y-107622331D01*
X167103215Y-107642638D01*
X167064290Y-107673378D01*
X167041393Y-107682277D01*
X166991750Y-107689009D01*
X166951196Y-107686550D01*
X166903090Y-107674110D01*
X166878028Y-107660818D01*
X166841296Y-107628437D01*
X166818302Y-107593847D01*
X166801973Y-107546860D01*
X166799512Y-107534575D01*
X166793204Y-107483953D01*
X166791471Y-107434264D01*
X166791471Y-107296755D01*
X167150996Y-107296755D01*
X167150996Y-107456734D01*
G37*
G36*
X167402791Y-109786303D02*
G01*
X166133256Y-109786303D01*
X166133256Y-109304187D01*
X166244367Y-109304187D01*
X166246585Y-109354906D01*
X166254149Y-109407611D01*
X166267082Y-109457083D01*
X166279996Y-109490850D01*
X166305206Y-109537149D01*
X166337423Y-109578228D01*
X166354059Y-109594809D01*
X166393637Y-109625726D01*
X166438052Y-109649791D01*
X166463926Y-109659688D01*
X166514893Y-109671620D01*
X166565302Y-109675192D01*
X166582365Y-109674860D01*
X166632284Y-109669195D01*
X166679363Y-109653943D01*
X166715194Y-109633106D01*
X166752881Y-109599721D01*
X166773898Y-109571337D01*
X166796112Y-109527425D01*
X166806619Y-109499333D01*
X166818826Y-109451954D01*
X166828107Y-109451954D01*
X166830301Y-109462097D01*
X166846620Y-109510263D01*
X166871860Y-109554184D01*
X166906021Y-109593859D01*
X166913858Y-109601135D01*
X166955503Y-109630473D01*
X167001251Y-109648075D01*
X167051101Y-109653943D01*
X167062413Y-109653720D01*
X167111566Y-109646774D01*
X167157591Y-109628542D01*
X167166037Y-109623566D01*
X167204723Y-109592315D01*
X167235504Y-109553559D01*
X167240860Y-109544851D01*
X167263454Y-109498347D01*
X167278247Y-109450489D01*
X167284741Y-109417048D01*
X167290093Y-109368012D01*
X167291680Y-109318598D01*
X167291661Y-109313830D01*
X167288898Y-109260723D01*
X167282329Y-109211393D01*
X167271897Y-109161061D01*
X167263066Y-109127032D01*
X167248481Y-109079840D01*
X167228666Y-109030879D01*
X167088470Y-109030879D01*
X167088470Y-109037718D01*
X167110156Y-109079287D01*
X167130154Y-109126886D01*
X167146112Y-109176448D01*
X167155087Y-109212688D01*
X167163743Y-109265101D01*
X167166628Y-109315178D01*
X167165984Y-109340986D01*
X167160033Y-109391382D01*
X167156187Y-109407975D01*
X167136586Y-109454641D01*
X167129931Y-109464819D01*
X167093355Y-109498605D01*
X167081394Y-109504790D01*
X167031806Y-109514480D01*
X166994483Y-109510588D01*
X166947370Y-109490151D01*
X166910906Y-109452198D01*
X166899014Y-109431774D01*
X166881278Y-109384700D01*
X166872208Y-109335237D01*
X166869629Y-109285625D01*
X166869629Y-109237509D01*
X166760208Y-109237509D01*
X166760208Y-109299302D01*
X166758491Y-109345427D01*
X166752392Y-109394069D01*
X166745628Y-109422764D01*
X166724060Y-109469051D01*
X166708362Y-109488760D01*
X166668617Y-109517411D01*
X166628866Y-109530600D01*
X166579957Y-109534997D01*
X166538847Y-109532417D01*
X166490075Y-109519365D01*
X166462268Y-109504203D01*
X166425107Y-109472471D01*
X166402184Y-109439999D01*
X166383341Y-109393336D01*
X166373824Y-109351836D01*
X166369419Y-109301501D01*
X166372046Y-109250294D01*
X166379925Y-109197759D01*
X166391645Y-109148849D01*
X166405056Y-109106096D01*
X166423912Y-109058250D01*
X166447577Y-109011584D01*
X166447577Y-109001326D01*
X166307382Y-109001326D01*
X166291694Y-109041227D01*
X166276873Y-109088055D01*
X166264151Y-109136637D01*
X166261755Y-109146965D01*
X166252095Y-109198896D01*
X166246299Y-109251303D01*
X166244367Y-109304187D01*
X166133256Y-109304187D01*
X166133256Y-108741207D01*
X166259999Y-108741207D01*
X166369419Y-108741207D01*
X166369419Y-108532380D01*
X167276049Y-108532380D01*
X167276049Y-108425890D01*
X167252730Y-108423142D01*
X167205951Y-108404885D01*
X167193571Y-108394993D01*
X167163209Y-108355060D01*
X167152503Y-108328205D01*
X167142448Y-108280077D01*
X167137606Y-108238076D01*
X167135365Y-108187509D01*
X167041576Y-108187509D01*
X167041576Y-108400489D01*
X166369419Y-108400489D01*
X166369419Y-108187509D01*
X166259999Y-108187509D01*
X166259999Y-108741207D01*
X166133256Y-108741207D01*
X166133256Y-107296755D01*
X166259999Y-107296755D01*
X166666419Y-107296755D01*
X166666419Y-107434264D01*
X166666419Y-107488486D01*
X166259999Y-107830670D01*
X166259999Y-108007258D01*
X166706474Y-107622575D01*
X166719041Y-107652010D01*
X166746138Y-107699852D01*
X166778993Y-107741088D01*
X166817605Y-107775715D01*
X166851582Y-107797414D01*
X166900281Y-107817481D01*
X166948305Y-107827922D01*
X167000787Y-107831403D01*
X167034801Y-107829907D01*
X167086802Y-107820381D01*
X167134144Y-107800140D01*
X167153292Y-107787557D01*
X167190420Y-107754404D01*
X167221583Y-107713189D01*
X167230735Y-107697467D01*
X167251411Y-107650210D01*
X167264081Y-107602059D01*
X167264817Y-107598166D01*
X167271830Y-107546732D01*
X167275102Y-107497206D01*
X167276049Y-107447453D01*
X167276049Y-107160956D01*
X166259999Y-107160956D01*
X166259999Y-107296755D01*
X166133256Y-107296755D01*
X166133256Y-107049845D01*
X167402791Y-107049845D01*
X167402791Y-109786303D01*
G37*
G36*
X141627499Y-111901601D02*
G01*
X141676372Y-111912632D01*
X141724561Y-111932102D01*
X141766914Y-111956818D01*
X141808814Y-111988507D01*
X141845105Y-112021955D01*
X141873962Y-112052706D01*
X141906506Y-112093670D01*
X141935016Y-112139702D01*
X141954946Y-112185680D01*
X141959705Y-112201016D01*
X141969474Y-112252882D01*
X141969865Y-112305894D01*
X141962200Y-112354586D01*
X141949375Y-112397601D01*
X141929579Y-112443047D01*
X141903825Y-112486533D01*
X141892945Y-112502028D01*
X141861966Y-112541852D01*
X141829470Y-112579020D01*
X141792603Y-112617444D01*
X141702277Y-112707769D01*
X141160672Y-112166164D01*
X141250997Y-112075839D01*
X141259335Y-112067573D01*
X141295903Y-112033096D01*
X141334708Y-112000012D01*
X141375173Y-111969970D01*
X141404414Y-111951696D01*
X141450421Y-111928939D01*
X141499003Y-111911769D01*
X141527377Y-111904868D01*
X141577834Y-111899013D01*
X141627499Y-111901601D01*
G37*
G36*
X143043829Y-111700204D02*
G01*
X141694679Y-113049354D01*
X140819088Y-112173763D01*
X140976222Y-112173763D01*
X141694678Y-112892219D01*
X141877228Y-112709669D01*
X141889481Y-112697311D01*
X141923794Y-112661420D01*
X141959191Y-112621787D01*
X141993533Y-112579447D01*
X142024374Y-112535582D01*
X142030200Y-112526256D01*
X142056011Y-112478978D01*
X142076291Y-112430620D01*
X142091038Y-112381183D01*
X142096862Y-112352228D01*
X142102247Y-112301011D01*
X142101518Y-112249099D01*
X142094673Y-112196494D01*
X142081712Y-112143194D01*
X142065826Y-112098080D01*
X142041845Y-112047641D01*
X142011996Y-111999565D01*
X141981740Y-111960239D01*
X141947174Y-111922649D01*
X141907478Y-111885855D01*
X141866882Y-111853966D01*
X141825388Y-111826984D01*
X141775843Y-111801704D01*
X141725075Y-111783103D01*
X141695639Y-111775326D01*
X141643971Y-111766469D01*
X141592105Y-111763661D01*
X141540040Y-111766903D01*
X141487777Y-111776195D01*
X141479024Y-111778387D01*
X141429775Y-111794739D01*
X141383374Y-111815909D01*
X141340286Y-111840096D01*
X141315362Y-111856263D01*
X141272606Y-111888095D01*
X141232291Y-111921969D01*
X141195578Y-111955477D01*
X141156873Y-111993113D01*
X140983821Y-112166164D01*
X140976222Y-112173763D01*
X140819088Y-112173763D01*
X141520100Y-111472751D01*
X141876192Y-111472751D01*
X141942511Y-111539070D01*
X142093111Y-111388470D01*
X142568397Y-111863756D01*
X142417797Y-112014356D01*
X142495170Y-112091728D01*
X142886694Y-111700204D01*
X142809321Y-111622832D01*
X142661658Y-111770495D01*
X142020574Y-111129411D01*
X141945274Y-111204711D01*
X141959821Y-111223143D01*
X141979988Y-111269130D01*
X141981748Y-111284879D01*
X141974980Y-111334586D01*
X141963561Y-111361145D01*
X141936639Y-111402287D01*
X141910364Y-111435410D01*
X141876192Y-111472751D01*
X141520100Y-111472751D01*
X142168238Y-110824613D01*
X143043829Y-111700204D01*
G37*
D11*
G36*
X140941742Y-91803838D02*
G01*
X139687838Y-91803838D01*
X139687838Y-91563034D01*
X139798949Y-91563034D01*
X139908370Y-91563034D01*
X139908370Y-91346635D01*
X140494553Y-91346635D01*
X140534211Y-91347482D01*
X140584923Y-91351764D01*
X140605939Y-91355712D01*
X140650868Y-91375456D01*
X140666162Y-91388532D01*
X140691413Y-91430899D01*
X140692284Y-91433260D01*
X140702867Y-91481054D01*
X140705579Y-91531283D01*
X140703845Y-91566086D01*
X140695076Y-91615791D01*
X140689089Y-91637966D01*
X140674316Y-91685156D01*
X140674316Y-91692727D01*
X140809382Y-91692727D01*
X140817503Y-91651145D01*
X140824281Y-91600648D01*
X140828150Y-91562523D01*
X140830631Y-91512720D01*
X140829996Y-91487338D01*
X140823571Y-91431934D01*
X140810227Y-91381884D01*
X140789965Y-91337186D01*
X140758335Y-91292658D01*
X140749028Y-91282720D01*
X140707011Y-91249381D01*
X140657330Y-91226300D01*
X140607574Y-91214519D01*
X140551950Y-91210592D01*
X139798949Y-91210592D01*
X139798949Y-91563034D01*
X139687838Y-91563034D01*
X139687838Y-90551136D01*
X139798949Y-90551136D01*
X139798949Y-90657626D01*
X139822268Y-90660374D01*
X139869047Y-90678631D01*
X139881427Y-90688523D01*
X139911789Y-90728457D01*
X139922495Y-90755311D01*
X139932550Y-90803439D01*
X139937392Y-90845440D01*
X139939633Y-90896007D01*
X140033422Y-90896007D01*
X140033422Y-90683027D01*
X140705579Y-90683027D01*
X140705579Y-90896007D01*
X140815000Y-90896007D01*
X140815000Y-90342309D01*
X140705579Y-90342309D01*
X140705579Y-90551136D01*
X139798949Y-90551136D01*
X139687838Y-90551136D01*
X139687838Y-90231198D01*
X140941742Y-90231198D01*
X140941742Y-91803838D01*
G37*
D10*
G36*
X125098360Y-91091210D02*
G01*
X124222768Y-91966802D01*
X123674110Y-91418143D01*
X123831244Y-91418143D01*
X124222768Y-91809667D01*
X124300140Y-91732294D01*
X124152477Y-91584631D01*
X124793561Y-90943547D01*
X124718261Y-90868247D01*
X124699829Y-90882794D01*
X124653842Y-90902961D01*
X124638093Y-90904721D01*
X124588386Y-90897953D01*
X124561827Y-90886534D01*
X124520685Y-90859612D01*
X124487562Y-90833337D01*
X124450222Y-90799165D01*
X124383902Y-90865484D01*
X124534502Y-91016084D01*
X124059216Y-91491370D01*
X123908616Y-91340770D01*
X123831244Y-91418143D01*
X123674110Y-91418143D01*
X123188806Y-90932839D01*
X123345941Y-90932839D01*
X123442138Y-91029037D01*
X123757153Y-90714021D01*
X124415162Y-90565149D01*
X124312748Y-90462734D01*
X123791694Y-90584492D01*
X123915352Y-90065338D01*
X123808965Y-89958952D01*
X123650939Y-90627841D01*
X123345941Y-90932839D01*
X123188806Y-90932839D01*
X122933375Y-90677408D01*
X123808966Y-89801817D01*
X125098360Y-91091210D01*
G37*
G36*
X138715716Y-102227792D02*
G01*
X136850717Y-102227792D01*
X136850717Y-101194420D01*
X136961828Y-101194420D01*
X137170655Y-101194420D01*
X137170655Y-102101050D01*
X137277145Y-102101050D01*
X137279893Y-102077731D01*
X137298150Y-102030952D01*
X137308042Y-102018572D01*
X137347976Y-101988210D01*
X137374830Y-101977504D01*
X137422958Y-101967449D01*
X137464959Y-101962607D01*
X137515526Y-101960366D01*
X137515526Y-101866577D01*
X137302546Y-101866577D01*
X137302546Y-101194420D01*
X137515526Y-101194420D01*
X137515526Y-101161448D01*
X137756105Y-101161448D01*
X137756105Y-101319473D01*
X137765631Y-101319473D01*
X137789331Y-101300696D01*
X137833344Y-101270746D01*
X137879096Y-101245742D01*
X137926587Y-101225683D01*
X137953681Y-101216677D01*
X138003984Y-101204312D01*
X138056258Y-101196893D01*
X138110502Y-101194420D01*
X138145825Y-101195886D01*
X138197094Y-101203579D01*
X138246301Y-101217868D01*
X138277411Y-101231286D01*
X138320299Y-101257309D01*
X138358653Y-101290408D01*
X138385729Y-101322565D01*
X138411767Y-101364164D01*
X138433879Y-101412285D01*
X138442252Y-101436427D01*
X138454741Y-101488967D01*
X138461128Y-101541108D01*
X138462944Y-101591315D01*
X138462532Y-101615800D01*
X138458591Y-101668213D01*
X138450476Y-101716917D01*
X138436566Y-101766681D01*
X138419949Y-101807322D01*
X138395178Y-101851327D01*
X138362560Y-101892222D01*
X138337419Y-101916066D01*
X138296558Y-101945536D01*
X138251918Y-101967449D01*
X138215668Y-101979138D01*
X138163547Y-101988772D01*
X138111967Y-101991629D01*
X138082639Y-101990901D01*
X138031291Y-101985925D01*
X137981797Y-101976235D01*
X137934158Y-101961831D01*
X137897662Y-101947088D01*
X137850566Y-101923119D01*
X137808541Y-101897076D01*
X137766364Y-101866577D01*
X137756105Y-101866577D01*
X137756105Y-102027044D01*
X137793105Y-102044756D01*
X137840435Y-102065058D01*
X137890944Y-102083374D01*
X137938555Y-102096898D01*
X137948815Y-102099293D01*
X138000173Y-102108953D01*
X138051626Y-102114749D01*
X138103174Y-102116681D01*
X138158221Y-102114514D01*
X138210763Y-102108011D01*
X138260803Y-102097172D01*
X138308338Y-102081999D01*
X138336528Y-102070468D01*
X138383933Y-102045835D01*
X138427048Y-102016217D01*
X138465875Y-101981615D01*
X138493765Y-101950448D01*
X138525226Y-101906083D01*
X138549040Y-101862592D01*
X138568946Y-101815286D01*
X138575318Y-101796598D01*
X138589248Y-101744498D01*
X138597780Y-101696206D01*
X138602899Y-101645389D01*
X138604605Y-101592048D01*
X138604279Y-101567645D01*
X138600980Y-101512893D01*
X138594127Y-101461203D01*
X138583722Y-101412575D01*
X138567480Y-101360750D01*
X138552545Y-101324700D01*
X138529479Y-101280454D01*
X138499224Y-101235896D01*
X138464410Y-101196863D01*
X138442771Y-101177178D01*
X138400937Y-101146013D01*
X138355393Y-101120334D01*
X138306140Y-101100143D01*
X138259322Y-101086679D01*
X138209970Y-101077062D01*
X138158083Y-101071291D01*
X138103663Y-101069368D01*
X138096314Y-101069404D01*
X138047060Y-101071688D01*
X137995463Y-101078649D01*
X137953910Y-101087305D01*
X137904605Y-101100631D01*
X137870098Y-101112297D01*
X137824493Y-101130673D01*
X137802638Y-101140811D01*
X137756105Y-101161448D01*
X137515526Y-101161448D01*
X137515526Y-101085000D01*
X136961828Y-101085000D01*
X136961828Y-101194420D01*
X136850717Y-101194420D01*
X136850717Y-100958257D01*
X138715716Y-100958257D01*
X138715716Y-102227792D01*
G37*
G36*
X131095572Y-99430465D02*
G01*
X131145395Y-99431643D01*
X131197418Y-99435307D01*
X131230780Y-99440550D01*
X131277530Y-99456311D01*
X131312221Y-99477651D01*
X131344941Y-99514930D01*
X131359425Y-99558085D01*
X131363504Y-99607498D01*
X131360996Y-99643321D01*
X131345674Y-99691273D01*
X131327761Y-99716498D01*
X131289254Y-99749159D01*
X131244728Y-99769745D01*
X131195709Y-99781154D01*
X131152746Y-99786160D01*
X131102105Y-99789088D01*
X131049407Y-99789947D01*
X130869400Y-99789947D01*
X130869400Y-99430422D01*
X131083113Y-99430422D01*
X131095572Y-99430465D01*
G37*
G36*
X131044115Y-99024040D02*
G01*
X131093982Y-99025101D01*
X131145395Y-99028398D01*
X131175486Y-99032840D01*
X131223797Y-99050136D01*
X131228836Y-99053054D01*
X131263608Y-99089459D01*
X131268462Y-99100575D01*
X131276065Y-99149054D01*
X131274753Y-99174494D01*
X131262631Y-99222571D01*
X131253587Y-99239130D01*
X131216958Y-99273374D01*
X131194129Y-99285248D01*
X131146860Y-99299263D01*
X131096199Y-99304201D01*
X131045255Y-99305369D01*
X130869400Y-99305369D01*
X130869400Y-99024002D01*
X131031577Y-99024002D01*
X131044115Y-99024040D01*
G37*
G36*
X133369695Y-100026111D02*
G01*
X130622490Y-100026111D01*
X130622490Y-99305369D01*
X130733601Y-99305369D01*
X130733601Y-99789947D01*
X130733601Y-99915000D01*
X131096302Y-99915000D01*
X131115938Y-99914832D01*
X131170880Y-99912320D01*
X131219871Y-99906795D01*
X131271668Y-99895949D01*
X131309641Y-99883165D01*
X131357445Y-99859689D01*
X131398430Y-99831713D01*
X131416044Y-99816895D01*
X131440325Y-99789947D01*
X131641940Y-99789947D01*
X131641940Y-99915000D01*
X132440370Y-99915000D01*
X132440370Y-99789947D01*
X131791905Y-99789947D01*
X132412302Y-99039633D01*
X132704885Y-99039633D01*
X132704885Y-99133422D01*
X132917865Y-99133422D01*
X132917865Y-99805579D01*
X132704885Y-99805579D01*
X132704885Y-99915000D01*
X133258584Y-99915000D01*
X133258584Y-99805579D01*
X133049756Y-99805579D01*
X133049756Y-98898949D01*
X132943266Y-98898949D01*
X132940519Y-98922268D01*
X132922261Y-98969047D01*
X132912370Y-98981427D01*
X132872436Y-99011789D01*
X132845582Y-99022495D01*
X132797453Y-99032550D01*
X132755452Y-99037392D01*
X132704885Y-99039633D01*
X132412302Y-99039633D01*
X132425227Y-99024002D01*
X132425227Y-98898949D01*
X131665388Y-98898949D01*
X131665388Y-99024002D01*
X132269156Y-99024002D01*
X131641940Y-99789947D01*
X131440325Y-99789947D01*
X131449377Y-99779900D01*
X131476099Y-99736214D01*
X131490031Y-99702125D01*
X131501515Y-99652345D01*
X131504920Y-99602369D01*
X131503459Y-99570214D01*
X131493466Y-99516844D01*
X131474007Y-99469269D01*
X131445081Y-99427491D01*
X131421178Y-99403170D01*
X131379496Y-99373033D01*
X131330821Y-99350508D01*
X131281682Y-99336877D01*
X131281682Y-99331503D01*
X131307536Y-99315962D01*
X131346365Y-99285623D01*
X131380601Y-99247484D01*
X131395066Y-99224348D01*
X131412505Y-99175986D01*
X131417725Y-99125118D01*
X131417502Y-99113324D01*
X131410557Y-99062487D01*
X131392324Y-99015697D01*
X131387289Y-99007280D01*
X131353933Y-98969570D01*
X131310503Y-98940959D01*
X131297726Y-98934822D01*
X131251804Y-98917672D01*
X131204013Y-98907254D01*
X131189267Y-98905307D01*
X131139584Y-98901293D01*
X131088975Y-98899468D01*
X131036462Y-98898949D01*
X130733601Y-98898949D01*
X130733601Y-99305369D01*
X130622490Y-99305369D01*
X130622490Y-98787838D01*
X133369695Y-98787838D01*
X133369695Y-100026111D01*
G37*
G36*
X134428489Y-77124052D02*
G01*
X134478725Y-77125531D01*
X134529558Y-77129576D01*
X134579414Y-77136946D01*
X134613013Y-77144701D01*
X134661636Y-77161142D01*
X134708130Y-77183353D01*
X134733073Y-77198537D01*
X134772892Y-77230075D01*
X134806180Y-77267024D01*
X134832938Y-77309382D01*
X134853246Y-77357225D01*
X134865717Y-77404650D01*
X134872938Y-77456685D01*
X134874948Y-77505997D01*
X134873608Y-77548146D01*
X134867655Y-77600124D01*
X134855264Y-77652834D01*
X134836846Y-77699438D01*
X134829367Y-77713647D01*
X134799600Y-77757229D01*
X134762391Y-77794992D01*
X134722540Y-77824002D01*
X134683056Y-77845349D01*
X134636923Y-77863487D01*
X134587962Y-77876025D01*
X134569312Y-77879288D01*
X134519247Y-77885542D01*
X134469988Y-77888846D01*
X134416748Y-77889947D01*
X134289009Y-77889947D01*
X134289009Y-77124002D01*
X134416748Y-77124002D01*
X134428489Y-77124052D01*
G37*
G36*
X135994049Y-78141742D02*
G01*
X134042099Y-78141742D01*
X134042099Y-77889947D01*
X134153210Y-77889947D01*
X134153210Y-78015000D01*
X134411375Y-78015000D01*
X134428777Y-78014925D01*
X134478420Y-78013809D01*
X134531474Y-78010814D01*
X134585696Y-78005158D01*
X134638521Y-77995949D01*
X134649235Y-77993474D01*
X134700917Y-77978294D01*
X134749451Y-77958440D01*
X134794836Y-77933911D01*
X134819428Y-77917554D01*
X134859453Y-77885147D01*
X134895644Y-77847924D01*
X134911425Y-77827421D01*
X135209072Y-77827421D01*
X135209072Y-77967616D01*
X135248973Y-77983304D01*
X135295801Y-77998125D01*
X135344383Y-78010847D01*
X135354711Y-78013243D01*
X135406642Y-78022903D01*
X135459049Y-78028699D01*
X135511933Y-78030631D01*
X135562652Y-78028413D01*
X135615357Y-78020849D01*
X135664829Y-78007916D01*
X135698596Y-77995002D01*
X135744895Y-77969792D01*
X135785974Y-77937575D01*
X135802555Y-77920939D01*
X135833472Y-77881361D01*
X135857537Y-77836946D01*
X135867434Y-77811072D01*
X135879366Y-77760105D01*
X135882938Y-77709696D01*
X135882606Y-77692633D01*
X135876941Y-77642714D01*
X135861689Y-77595635D01*
X135840852Y-77559804D01*
X135807467Y-77522117D01*
X135779083Y-77501100D01*
X135735171Y-77478886D01*
X135707079Y-77468379D01*
X135659700Y-77456172D01*
X135659700Y-77446891D01*
X135669843Y-77444697D01*
X135718009Y-77428378D01*
X135761930Y-77403138D01*
X135801605Y-77368977D01*
X135808881Y-77361140D01*
X135838219Y-77319495D01*
X135855821Y-77273747D01*
X135861689Y-77223897D01*
X135861466Y-77212585D01*
X135854520Y-77163432D01*
X135836288Y-77117407D01*
X135831312Y-77108961D01*
X135800061Y-77070275D01*
X135761305Y-77039494D01*
X135752597Y-77034138D01*
X135706093Y-77011544D01*
X135658235Y-76996751D01*
X135624794Y-76990257D01*
X135575758Y-76984905D01*
X135526344Y-76983318D01*
X135521576Y-76983337D01*
X135468469Y-76986100D01*
X135419139Y-76992669D01*
X135368807Y-77003101D01*
X135334778Y-77011932D01*
X135287586Y-77026517D01*
X135238625Y-77046332D01*
X135238625Y-77186528D01*
X135245464Y-77186528D01*
X135287033Y-77164842D01*
X135334632Y-77144844D01*
X135384194Y-77128886D01*
X135420434Y-77119911D01*
X135472847Y-77111255D01*
X135522924Y-77108370D01*
X135548732Y-77109014D01*
X135599128Y-77114965D01*
X135615721Y-77118811D01*
X135662387Y-77138412D01*
X135672565Y-77145067D01*
X135706350Y-77181643D01*
X135712536Y-77193604D01*
X135722226Y-77243192D01*
X135718334Y-77280515D01*
X135697897Y-77327628D01*
X135659944Y-77364092D01*
X135639520Y-77375984D01*
X135592446Y-77393720D01*
X135542983Y-77402790D01*
X135493371Y-77405369D01*
X135445255Y-77405369D01*
X135445255Y-77514790D01*
X135507048Y-77514790D01*
X135553173Y-77516507D01*
X135601815Y-77522606D01*
X135630510Y-77529370D01*
X135676797Y-77550938D01*
X135696506Y-77566636D01*
X135725157Y-77606381D01*
X135738346Y-77646132D01*
X135742743Y-77695041D01*
X135740163Y-77736151D01*
X135727111Y-77784923D01*
X135711949Y-77812730D01*
X135680217Y-77849891D01*
X135647745Y-77872814D01*
X135601082Y-77891657D01*
X135559582Y-77901174D01*
X135509247Y-77905579D01*
X135458040Y-77902952D01*
X135405505Y-77895073D01*
X135356595Y-77883353D01*
X135313842Y-77869942D01*
X135265996Y-77851086D01*
X135219330Y-77827421D01*
X135209072Y-77827421D01*
X134911425Y-77827421D01*
X134928001Y-77805886D01*
X134956525Y-77759033D01*
X134977193Y-77715899D01*
X134995901Y-77663276D01*
X135008789Y-77608175D01*
X135015203Y-77558973D01*
X135017341Y-77507951D01*
X135015289Y-77453864D01*
X135009133Y-77402610D01*
X134998872Y-77354190D01*
X134981713Y-77301281D01*
X134958967Y-77252229D01*
X134943653Y-77225916D01*
X134913381Y-77183118D01*
X134878691Y-77144458D01*
X134839583Y-77109935D01*
X134796057Y-77079549D01*
X134788318Y-77074911D01*
X134741931Y-77051649D01*
X134694151Y-77033808D01*
X134646581Y-77020443D01*
X134617524Y-77014251D01*
X134564783Y-77006527D01*
X134512324Y-77001972D01*
X134462670Y-76999705D01*
X134408688Y-76998949D01*
X134153210Y-76998949D01*
X134153210Y-77889947D01*
X134042099Y-77889947D01*
X134042099Y-76872207D01*
X135994049Y-76872207D01*
X135994049Y-78141742D01*
G37*
G36*
X119828482Y-100114255D02*
G01*
X118471904Y-101470833D01*
X117585260Y-100584188D01*
X117742396Y-100584188D01*
X118170015Y-101011808D01*
X118195179Y-101036128D01*
X118234599Y-101070691D01*
X118277708Y-101103174D01*
X118324069Y-101131320D01*
X118370176Y-101151556D01*
X118422180Y-101165205D01*
X118475532Y-101169833D01*
X118514322Y-101167251D01*
X118565830Y-101155776D01*
X118612833Y-101137192D01*
X118625653Y-101130730D01*
X118668344Y-101104716D01*
X118710967Y-101071821D01*
X118749270Y-101036332D01*
X118757451Y-101028020D01*
X118791045Y-100990598D01*
X118822186Y-100948987D01*
X118848921Y-100903176D01*
X118866509Y-100860620D01*
X118878609Y-100812250D01*
X118883117Y-100762248D01*
X118883131Y-100757404D01*
X118877936Y-100704429D01*
X118864713Y-100656766D01*
X118843395Y-100609576D01*
X118823862Y-100576584D01*
X118793526Y-100533801D01*
X118761629Y-100495428D01*
X118725091Y-100456731D01*
X118297472Y-100029112D01*
X118201275Y-100125309D01*
X118631485Y-100555519D01*
X118647065Y-100571495D01*
X118679467Y-100608083D01*
X118710066Y-100650334D01*
X118731226Y-100691172D01*
X118745298Y-100739105D01*
X118746346Y-100745750D01*
X118746677Y-100795282D01*
X118733727Y-100844283D01*
X118723037Y-100866951D01*
X118695381Y-100909048D01*
X118660845Y-100947906D01*
X118641515Y-100966144D01*
X118602672Y-100996243D01*
X118557049Y-101020616D01*
X118550507Y-101023109D01*
X118501448Y-101034240D01*
X118452389Y-101032014D01*
X118410345Y-101020561D01*
X118365173Y-100998682D01*
X118343520Y-100983980D01*
X118304005Y-100951526D01*
X118266385Y-100915783D01*
X117838593Y-100487991D01*
X117742396Y-100584188D01*
X117585260Y-100584188D01*
X117574207Y-100573135D01*
X118333594Y-99813748D01*
X118490730Y-99813748D01*
X118866537Y-100189555D01*
X118892227Y-100148182D01*
X118920076Y-100106657D01*
X118928274Y-100094977D01*
X118959603Y-100055120D01*
X118995030Y-100016850D01*
X119003408Y-100008605D01*
X119042264Y-99973905D01*
X119083456Y-99943622D01*
X119121689Y-99922617D01*
X119170845Y-99908045D01*
X119197126Y-99905347D01*
X119247526Y-99913572D01*
X119285867Y-99932483D01*
X119323517Y-99963656D01*
X119354897Y-99999894D01*
X119379819Y-100042065D01*
X119391503Y-100074850D01*
X119397608Y-100124100D01*
X119391769Y-100168899D01*
X119373774Y-100215634D01*
X119349983Y-100253309D01*
X119316781Y-100291970D01*
X119282844Y-100322770D01*
X119241422Y-100353495D01*
X119195715Y-100380913D01*
X119157097Y-100400202D01*
X119111345Y-100419435D01*
X119063249Y-100434970D01*
X119056514Y-100441706D01*
X119158237Y-100543430D01*
X119190267Y-100530204D01*
X119235906Y-100507087D01*
X119280686Y-100480392D01*
X119289053Y-100474995D01*
X119329956Y-100446067D01*
X119369307Y-100413900D01*
X119407106Y-100378496D01*
X119411046Y-100374520D01*
X119446862Y-100334454D01*
X119476168Y-100293814D01*
X119500886Y-100248448D01*
X119514108Y-100214976D01*
X119527183Y-100164241D01*
X119532145Y-100112874D01*
X119530958Y-100085019D01*
X119521648Y-100033025D01*
X119504858Y-99984726D01*
X119489617Y-99953315D01*
X119461412Y-99909518D01*
X119426795Y-99869704D01*
X119391045Y-99837342D01*
X119347350Y-99806991D01*
X119299683Y-99785424D01*
X119271846Y-99777860D01*
X119219578Y-99772188D01*
X119170672Y-99776616D01*
X119147642Y-99781815D01*
X119099702Y-99798538D01*
X119054441Y-99822728D01*
X119016628Y-99849136D01*
X118977753Y-99881339D01*
X118941492Y-99915644D01*
X118938438Y-99918716D01*
X118904533Y-99954676D01*
X118896763Y-99963166D01*
X118864638Y-100000097D01*
X118672934Y-99808394D01*
X119014374Y-99466954D01*
X118925948Y-99378529D01*
X118490730Y-99813748D01*
X118333594Y-99813748D01*
X118930784Y-99216558D01*
X119828482Y-100114255D01*
G37*
G36*
X132287656Y-84791742D02*
G01*
X130364283Y-84791742D01*
X130364283Y-84157951D01*
X130475394Y-84157951D01*
X130475720Y-84182354D01*
X130479019Y-84237106D01*
X130485872Y-84288796D01*
X130496277Y-84337424D01*
X130512519Y-84389249D01*
X130527454Y-84425299D01*
X130550520Y-84469545D01*
X130580775Y-84514103D01*
X130615589Y-84553136D01*
X130637228Y-84572821D01*
X130679062Y-84603986D01*
X130724606Y-84629665D01*
X130773859Y-84649856D01*
X130820677Y-84663320D01*
X130870029Y-84672937D01*
X130921916Y-84678708D01*
X130976336Y-84680631D01*
X130983685Y-84680595D01*
X131032939Y-84678311D01*
X131084536Y-84671350D01*
X131126089Y-84662694D01*
X131175394Y-84649368D01*
X131209901Y-84637702D01*
X131255506Y-84619326D01*
X131277361Y-84609188D01*
X131323894Y-84588551D01*
X131323894Y-84513813D01*
X131484117Y-84513813D01*
X131484117Y-84665000D01*
X132176545Y-84665000D01*
X132176545Y-84539947D01*
X131626266Y-84539947D01*
X131652098Y-84518446D01*
X131692230Y-84484907D01*
X131734023Y-84449822D01*
X131772568Y-84417337D01*
X131811463Y-84383968D01*
X131849748Y-84350048D01*
X131887423Y-84315580D01*
X131924487Y-84280561D01*
X131940210Y-84265434D01*
X131977518Y-84228114D01*
X132011926Y-84191168D01*
X132014176Y-84188648D01*
X132045753Y-84150502D01*
X132074940Y-84109103D01*
X132100219Y-84063613D01*
X132118416Y-84015558D01*
X132120220Y-84009331D01*
X132130041Y-83960741D01*
X132133314Y-83908824D01*
X132132965Y-83893154D01*
X132126243Y-83841556D01*
X132108085Y-83788769D01*
X132078753Y-83742576D01*
X132043922Y-83707568D01*
X132008095Y-83682334D01*
X131960242Y-83659494D01*
X131905867Y-83643759D01*
X131854069Y-83635928D01*
X131797480Y-83633318D01*
X131792698Y-83633337D01*
X131739458Y-83636065D01*
X131690056Y-83642553D01*
X131639700Y-83652857D01*
X131605671Y-83661497D01*
X131558478Y-83675878D01*
X131509518Y-83695600D01*
X131509518Y-83836528D01*
X131516357Y-83836528D01*
X131560044Y-83813778D01*
X131608871Y-83793326D01*
X131658506Y-83777665D01*
X131689859Y-83770147D01*
X131741321Y-83761555D01*
X131793817Y-83758370D01*
X131843544Y-83761809D01*
X131895349Y-83775353D01*
X131940607Y-83801845D01*
X131965991Y-83828947D01*
X131986914Y-83873317D01*
X131993119Y-83922257D01*
X131992928Y-83932775D01*
X131986250Y-83983989D01*
X131970030Y-84032914D01*
X131944270Y-84079549D01*
X131941151Y-84084133D01*
X131910342Y-84124372D01*
X131874844Y-84164790D01*
X131838073Y-84203304D01*
X131802958Y-84238128D01*
X131763775Y-84275432D01*
X131743991Y-84293921D01*
X131707148Y-84327291D01*
X131668720Y-84360777D01*
X131628709Y-84394378D01*
X131606052Y-84413008D01*
X131565330Y-84446571D01*
X131524685Y-84480173D01*
X131484117Y-84513813D01*
X131323894Y-84513813D01*
X131323894Y-84430526D01*
X131314368Y-84430526D01*
X131290668Y-84449303D01*
X131246655Y-84479253D01*
X131200903Y-84504257D01*
X131153412Y-84524316D01*
X131126318Y-84533322D01*
X131076015Y-84545687D01*
X131023741Y-84553106D01*
X130969497Y-84555579D01*
X130934174Y-84554113D01*
X130882905Y-84546420D01*
X130833698Y-84532131D01*
X130802588Y-84518713D01*
X130759700Y-84492690D01*
X130721346Y-84459591D01*
X130694270Y-84427434D01*
X130668232Y-84385835D01*
X130646120Y-84337714D01*
X130637747Y-84313572D01*
X130625258Y-84261032D01*
X130618871Y-84208891D01*
X130617055Y-84158684D01*
X130617467Y-84134199D01*
X130621408Y-84081786D01*
X130629523Y-84033082D01*
X130643433Y-83983318D01*
X130660050Y-83942677D01*
X130684821Y-83898672D01*
X130717439Y-83857777D01*
X130742580Y-83833933D01*
X130783441Y-83804463D01*
X130828081Y-83782550D01*
X130864331Y-83770861D01*
X130916452Y-83761227D01*
X130968032Y-83758370D01*
X130997360Y-83759098D01*
X131048708Y-83764074D01*
X131098202Y-83773764D01*
X131145841Y-83788168D01*
X131182337Y-83802911D01*
X131229433Y-83826880D01*
X131271458Y-83852923D01*
X131313635Y-83883422D01*
X131323894Y-83883422D01*
X131323894Y-83722955D01*
X131286894Y-83705243D01*
X131239564Y-83684941D01*
X131189055Y-83666625D01*
X131141444Y-83653101D01*
X131131184Y-83650706D01*
X131079826Y-83641046D01*
X131028373Y-83635250D01*
X130976825Y-83633318D01*
X130921778Y-83635485D01*
X130869236Y-83641988D01*
X130819196Y-83652827D01*
X130771661Y-83668000D01*
X130743471Y-83679531D01*
X130696066Y-83704164D01*
X130652951Y-83733782D01*
X130614124Y-83768384D01*
X130586234Y-83799551D01*
X130554773Y-83843916D01*
X130530959Y-83887407D01*
X130511053Y-83934713D01*
X130504681Y-83953401D01*
X130490751Y-84005501D01*
X130482219Y-84053793D01*
X130477100Y-84104610D01*
X130475394Y-84157951D01*
X130364283Y-84157951D01*
X130364283Y-83522207D01*
X132287656Y-83522207D01*
X132287656Y-84791742D01*
G37*
%TO.C,C3*%
X127560000Y-95300000D02*
X127560000Y-94700000D01*
X127410000Y-94550000D02*
G75*
G02*
X127560000Y-94700000I0J-150000D01*
G01*
X127560000Y-95300000D02*
G75*
G02*
X127410000Y-95450000I-150000J0D01*
G01*
%TO.C,R11*%
X122575000Y-100224999D02*
X123925000Y-100224999D01*
X122575000Y-100224999D02*
G75*
G02*
X122425000Y-100074999I0J150000D01*
G01*
X124075000Y-100074999D02*
G75*
G02*
X123925000Y-100225000I-150000J-1D01*
G01*
%TO.C,C6*%
X125700000Y-93060000D02*
X126300000Y-93060000D01*
X125700000Y-93060000D02*
G75*
G02*
X125550000Y-92910000I0J150000D01*
G01*
X126450000Y-92910000D02*
G75*
G02*
X126300000Y-93060000I-150000J0D01*
G01*
%TO.C,C8*%
X169525000Y-111750000D02*
X169525000Y-113250000D01*
X169525000Y-111750000D02*
G75*
G02*
X169675000Y-111600000I150000J0D01*
G01*
X169675000Y-113400000D02*
G75*
G02*
X169525000Y-113250000I0J150000D01*
G01*
%TO.C,SW4*%
X174235000Y-104400000D02*
X174235000Y-102900000D01*
X174235000Y-109100000D02*
X174235000Y-107600000D01*
X174540000Y-99395000D02*
X182165000Y-99395000D01*
X174540000Y-112605000D02*
X182165000Y-112605000D01*
X174235000Y-99700000D02*
G75*
G02*
X174540000Y-99395000I305000J0D01*
G01*
X174540000Y-112605000D02*
G75*
G02*
X174235000Y-112300000I-1J304999D01*
G01*
%TO.C,C10*%
X162725000Y-95750000D02*
X162725000Y-94250000D01*
X162575000Y-94100000D02*
G75*
G02*
X162725000Y-94250000I0J-150000D01*
G01*
X162725000Y-95750000D02*
G75*
G02*
X162575000Y-95900000I-150000J0D01*
G01*
%TO.C,R2*%
X141725000Y-103175000D02*
X141725000Y-101825000D01*
X141575000Y-101675000D02*
G75*
G02*
X141725000Y-101825000I0J-150000D01*
G01*
X141725000Y-103175000D02*
G75*
G02*
X141575000Y-103325000I-150000J0D01*
G01*
%TO.C,R12*%
X122010051Y-102535355D02*
X122964645Y-103489949D01*
X122010051Y-102535355D02*
G75*
G02*
X122010051Y-102323223I106066J106066D01*
G01*
X123176777Y-103489949D02*
G75*
G02*
X122964645Y-103489949I-106066J106066D01*
G01*
%TO.C,C15*%
X164475000Y-109150000D02*
X164475000Y-107650000D01*
X164325000Y-107500000D02*
G75*
G02*
X164475000Y-107650000I0J-150000D01*
G01*
X164475000Y-109150000D02*
G75*
G02*
X164325000Y-109300000I-150000J0D01*
G01*
%TO.C,R4*%
X165325000Y-93275001D02*
X163975000Y-93275001D01*
X163825000Y-93425001D02*
G75*
G02*
X163975000Y-93275000I150000J1D01*
G01*
X165325000Y-93275001D02*
G75*
G02*
X165475000Y-93425001I0J-150000D01*
G01*
%TO.C,C4*%
X119750000Y-91350000D02*
X119750000Y-92650000D01*
X119750000Y-91350000D02*
G75*
G02*
X119900000Y-91200000I150000J0D01*
G01*
X119900000Y-92800000D02*
G75*
G02*
X119750000Y-92650000I0J150000D01*
G01*
%TO.C,SW5*%
X161000000Y-86460000D02*
X161000000Y-78835000D01*
X166005000Y-86765000D02*
X164505000Y-86765000D01*
X170705000Y-86765000D02*
X169205000Y-86765000D01*
X174210000Y-86460000D02*
X174210000Y-78835000D01*
X161305000Y-86765000D02*
G75*
G02*
X161000000Y-86460000I0J305000D01*
G01*
X174210000Y-86460000D02*
G75*
G02*
X173905000Y-86765000I-304999J-1D01*
G01*
%TO.C,D2*%
X127650000Y-76750000D02*
X130350000Y-76750000D01*
X127650000Y-76750000D02*
G75*
G02*
X127500000Y-76600000I0J150000D01*
G01*
X130500000Y-76600000D02*
G75*
G02*
X130350000Y-76750000I-150000J0D01*
G01*
D12*
X126324999Y-76000000D02*
G75*
G02*
X126075001Y-76000000I-124999J0D01*
G01*
X126075001Y-76000000D02*
G75*
G02*
X126324999Y-76000000I124999J0D01*
G01*
D11*
%TO.C,U6*%
X176050000Y-83975000D02*
X176750000Y-84375000D01*
X176750000Y-83575000D02*
X176050000Y-83975000D01*
X176750000Y-84375000D02*
X176750000Y-83575000D01*
X177280000Y-77600000D02*
X177280000Y-84400000D01*
X180750000Y-85625000D02*
X181550000Y-85625000D01*
X181550000Y-76375000D02*
X180750000Y-76375000D01*
X185775000Y-76375000D02*
X184700000Y-76375000D01*
X185775000Y-85625000D02*
X184700000Y-85625000D01*
D10*
%TO.C,SW1*%
X119425000Y-92350000D02*
X119425000Y-88150000D01*
X119275000Y-88000000D02*
G75*
G02*
X119425000Y-88150000I0J-150000D01*
G01*
X119425000Y-92350000D02*
G75*
G02*
X119275000Y-92500000I-150000J0D01*
G01*
%TO.C,C9*%
X162475000Y-111550000D02*
X162475000Y-113050000D01*
X162475000Y-111550000D02*
G75*
G02*
X162625000Y-111400000I150000J0D01*
G01*
X162625000Y-113200000D02*
G75*
G02*
X162475000Y-113050000I0J150000D01*
G01*
%TO.C,D5*%
X121650000Y-76700000D02*
X122300000Y-76700000D01*
X124350000Y-76700000D02*
X123700000Y-76700000D01*
X121650000Y-76700000D02*
G75*
G02*
X121500000Y-76550000I0J150000D01*
G01*
X124500000Y-76550000D02*
G75*
G02*
X124350000Y-76700000I-150000J0D01*
G01*
D13*
X120725000Y-76000000D02*
G75*
G02*
X120475000Y-76000000I-125000J0D01*
G01*
X120475000Y-76000000D02*
G75*
G02*
X120725000Y-76000000I125000J0D01*
G01*
D10*
%TO.C,U3*%
X165650000Y-113350001D02*
X167250000Y-113350001D01*
X165650000Y-113350001D02*
G75*
G02*
X165500000Y-113200001I0J150000D01*
G01*
X167400000Y-113200001D02*
G75*
G02*
X167250000Y-113350000I-150000J1D01*
G01*
D13*
X165075000Y-111650000D02*
G75*
G02*
X164825000Y-111650000I-125000J0D01*
G01*
X164825000Y-111650000D02*
G75*
G02*
X165075000Y-111650000I125000J0D01*
G01*
D14*
%TO.C,U2*%
X87140000Y-87140000D02*
X87140000Y-90850000D01*
X87140000Y-87140000D02*
X102860000Y-87140000D01*
X87140000Y-91550000D02*
X87140000Y-102860000D01*
X87140000Y-102860000D02*
X102860000Y-102860000D01*
X102860000Y-87140000D02*
X102860000Y-102860000D01*
X87140000Y-91200000D02*
X86810000Y-91440000D01*
X86810000Y-90960000D01*
X87140000Y-91200000D01*
G36*
X87140000Y-91200000D02*
G01*
X86810000Y-91440000D01*
X86810000Y-90960000D01*
X87140000Y-91200000D01*
G37*
D10*
%TO.C,R1*%
X134025000Y-85325000D02*
X134025000Y-86675000D01*
X134025000Y-85325000D02*
G75*
G02*
X134175000Y-85175000I150000J0D01*
G01*
X134175000Y-86825000D02*
G75*
G02*
X134025000Y-86675000I0J150000D01*
G01*
%TO.C,D4*%
X139650000Y-76750000D02*
X142350000Y-76750000D01*
X139650000Y-76750000D02*
G75*
G02*
X139500000Y-76600000I0J150000D01*
G01*
X142500000Y-76600000D02*
G75*
G02*
X142350000Y-76750000I-150000J0D01*
G01*
D12*
X138324999Y-76000000D02*
G75*
G02*
X138075001Y-76000000I-124999J0D01*
G01*
X138075001Y-76000000D02*
G75*
G02*
X138324999Y-76000000I124999J0D01*
G01*
D10*
%TO.C,U1*%
X129837500Y-90000000D02*
X130500000Y-90000000D01*
X130500000Y-90000000D02*
X131000000Y-89500000D01*
X131000000Y-89500000D02*
X131000000Y-88837500D01*
X129837500Y-90000000D02*
G75*
G02*
X131000000Y-88837500I1162499J1D01*
G01*
X131000000Y-97162500D02*
G75*
G02*
X129837500Y-96000000I-1J1162499D01*
G01*
X137000000Y-88837500D02*
G75*
G02*
X138162500Y-90000000I0J-1162500D01*
G01*
X138162500Y-96000000D02*
G75*
G02*
X137000000Y-97162500I-1162500J0D01*
G01*
D14*
%TO.C,SW3*%
X158240000Y-103000000D02*
X158240000Y-105410000D01*
X158240000Y-105410000D02*
X160650000Y-105410000D01*
X158540000Y-99090000D02*
X158540000Y-105110000D01*
X158540000Y-105110000D02*
X164650000Y-105110000D01*
X161150000Y-98190000D02*
X161150000Y-99090000D01*
X161150000Y-99090000D02*
X158540000Y-99090000D01*
X164650000Y-98190000D02*
X161150000Y-98190000D01*
X164650000Y-98190000D02*
X168150000Y-98190000D01*
X168150000Y-98190000D02*
X168150000Y-99090000D01*
X168150000Y-99090000D02*
X170760000Y-99090000D01*
X170760000Y-99090000D02*
X170760000Y-105110000D01*
X170760000Y-105110000D02*
X164650000Y-105110000D01*
D10*
%TO.C,C5*%
X125800000Y-86940000D02*
X125200000Y-86940000D01*
X125050000Y-87090000D02*
G75*
G02*
X125200000Y-86940000I150000J0D01*
G01*
X125800000Y-86940000D02*
G75*
G02*
X125950000Y-87090000I0J-150000D01*
G01*
%TO.C,R3*%
X170374999Y-96675000D02*
X170374999Y-95325000D01*
X170224999Y-95175000D02*
G75*
G02*
X170375000Y-95325000I1J-150000D01*
G01*
X170374999Y-96675000D02*
G75*
G02*
X170224999Y-96825000I-150000J0D01*
G01*
%TO.C,Q1*%
X141637500Y-104500000D02*
X139862500Y-104500000D01*
X141637500Y-108000000D02*
X139862500Y-108000000D01*
X139612500Y-104750000D02*
G75*
G02*
X139862500Y-104500000I250000J0D01*
G01*
X139862500Y-108000000D02*
G75*
G02*
X139612500Y-107750000I0J250000D01*
G01*
X141637500Y-104500000D02*
G75*
G02*
X141887500Y-104750000I1J-249999D01*
G01*
X141887500Y-107750000D02*
X141887500Y-107750000D01*
G75*
G02*
X141637500Y-108000000I-250000J0D01*
G01*
X141637500Y-107750000D01*
X141887500Y-107750000D01*
%TO.C,R14*%
X167525001Y-107725000D02*
X167525001Y-109075000D01*
X167525001Y-107725000D02*
G75*
G02*
X167675001Y-107575000I150000J0D01*
G01*
X167675001Y-109225000D02*
G75*
G02*
X167525000Y-109075000I-1J150000D01*
G01*
%TO.C,C14*%
X115838478Y-99900431D02*
X115838478Y-101200431D01*
X115838478Y-99900431D02*
G75*
G02*
X115988478Y-99750431I150000J0D01*
G01*
X115988478Y-101350431D02*
G75*
G02*
X115838478Y-101200431I0J150000D01*
G01*
%TO.C,SW2*%
X136350000Y-80050000D02*
X133150000Y-80050000D01*
X133000000Y-80200000D02*
G75*
G02*
X133150000Y-80050000I150000J0D01*
G01*
X136350000Y-80050000D02*
G75*
G02*
X136500000Y-80200000I0J-150000D01*
G01*
%TO.C,R13*%
X164775001Y-107725000D02*
X164775001Y-109075000D01*
X164775001Y-107725000D02*
G75*
G02*
X164925001Y-107575000I150000J0D01*
G01*
X164925001Y-109225000D02*
G75*
G02*
X164775000Y-109075000I-1J150000D01*
G01*
%TO.C,D1*%
X140308058Y-112408165D02*
X142408165Y-110308058D01*
X140308058Y-112408165D02*
G75*
G02*
X140095926Y-112408165I-106066J106066D01*
G01*
X142408165Y-110095926D02*
G75*
G02*
X142408165Y-110308058I-106066J-106066D01*
G01*
D12*
X139185014Y-112439985D02*
G75*
G02*
X138935016Y-112439985I-124999J0D01*
G01*
X138935016Y-112439985D02*
G75*
G02*
X139185014Y-112439985I124999J0D01*
G01*
D15*
%TO.C,J1*%
X141236100Y-84229000D02*
X141236100Y-97691000D01*
X141236100Y-97691000D02*
X146493900Y-97691000D01*
X146493900Y-84229000D02*
X141236100Y-84229000D01*
X146493900Y-97691000D02*
X146493900Y-84229000D01*
D16*
X144881000Y-98326000D02*
G75*
G02*
X144119000Y-98326000I-381000J0D01*
G01*
X144119000Y-98326000D02*
G75*
G02*
X144881000Y-98326000I381000J0D01*
G01*
D10*
%TO.C,Y1*%
X125308058Y-88815596D02*
X124565596Y-89558058D01*
X124565596Y-89770190D02*
G75*
G02*
X124565596Y-89558058I106066J106066D01*
G01*
X125308058Y-88815596D02*
G75*
G02*
X125520190Y-88815596I106066J-106066D01*
G01*
D13*
X126493718Y-88638819D02*
G75*
G02*
X126243718Y-88638819I-125000J0D01*
G01*
X126243718Y-88638819D02*
G75*
G02*
X126493718Y-88638819I125000J0D01*
G01*
D10*
%TO.C,C1*%
X139100000Y-98600000D02*
X136400000Y-98600000D01*
X136250000Y-98750000D02*
G75*
G02*
X136400000Y-98600000I150000J0D01*
G01*
X139100000Y-98600000D02*
G75*
G02*
X139250000Y-98750000I0J-150000D01*
G01*
%TO.C,BZ1*%
X126000000Y-107000000D02*
X127000000Y-107000000D01*
X126500000Y-106500000D02*
X126500000Y-107500000D01*
X137000000Y-107000000D02*
X138000000Y-107000000D01*
X138500000Y-107000000D02*
G75*
G02*
X125500000Y-107000000I-6500000J0D01*
G01*
X125500000Y-107000000D02*
G75*
G02*
X138500000Y-107000000I6500000J0D01*
G01*
%TO.C,D3*%
X133650000Y-76750000D02*
X136350000Y-76750000D01*
X133650000Y-76750000D02*
G75*
G02*
X133500000Y-76600000I0J150000D01*
G01*
X136500000Y-76600000D02*
G75*
G02*
X136350000Y-76750000I-150000J0D01*
G01*
D12*
X132324999Y-76000000D02*
G75*
G02*
X132075001Y-76000000I-124999J0D01*
G01*
X132075001Y-76000000D02*
G75*
G02*
X132324999Y-76000000I124999J0D01*
G01*
D10*
%TO.C,U5*%
X119888909Y-103176777D02*
X121515255Y-101550431D01*
X119888909Y-103176777D02*
G75*
G02*
X119676777Y-103176777I-106066J106066D01*
G01*
X121515255Y-101338299D02*
G75*
G02*
X121515255Y-101550431I-106066J-106066D01*
G01*
D13*
X118140076Y-102363604D02*
G75*
G02*
X117890076Y-102363604I-125000J0D01*
G01*
X117890076Y-102363604D02*
G75*
G02*
X118140076Y-102363604I125000J0D01*
G01*
D10*
%TO.C,C2*%
X129980000Y-87150000D02*
X132680000Y-87150000D01*
X129980000Y-87150000D02*
G75*
G02*
X129830000Y-87000000I0J150000D01*
G01*
X132830000Y-87000000D02*
G75*
G02*
X132680000Y-87150000I-150000J0D01*
G01*
%TD*%
M02*
