%TF.GenerationSoftware,KiCad,Pcbnew,8.0.8*%
%TF.CreationDate,2025-01-25T09:27:46-05:00*%
%TF.ProjectId,GF24,47463234-2e6b-4696-9361-645f70636258,rev?*%
%TF.SameCoordinates,Original*%
%TF.FileFunction,Paste,Bot*%
%TF.FilePolarity,Positive*%
%FSLAX46Y46*%
G04 Gerber Fmt 4.6, Leading zero omitted, Abs format (unit mm)*
G04 Created by KiCad (PCBNEW 8.0.8) date 2025-01-25 09:27:46*
%MOMM*%
%LPD*%
G01*
G04 APERTURE LIST*
G04 Aperture macros list*
%AMRoundRect*
0 Rectangle with rounded corners*
0 $1 Rounding radius*
0 $2 $3 $4 $5 $6 $7 $8 $9 X,Y pos of 4 corners*
0 Add a 4 corners polygon primitive as box body*
4,1,4,$2,$3,$4,$5,$6,$7,$8,$9,$2,$3,0*
0 Add four circle primitives for the rounded corners*
1,1,$1+$1,$2,$3*
1,1,$1+$1,$4,$5*
1,1,$1+$1,$6,$7*
1,1,$1+$1,$8,$9*
0 Add four rect primitives between the rounded corners*
20,1,$1+$1,$2,$3,$4,$5,0*
20,1,$1+$1,$4,$5,$6,$7,0*
20,1,$1+$1,$6,$7,$8,$9,0*
20,1,$1+$1,$8,$9,$2,$3,0*%
G04 Aperture macros list end*
%ADD10RoundRect,0.287500X-0.106066X0.512652X-0.512652X0.106066X0.106066X-0.512652X0.512652X-0.106066X0*%
%ADD11RoundRect,0.150000X0.512500X0.150000X-0.512500X0.150000X-0.512500X-0.150000X0.512500X-0.150000X0*%
%ADD12RoundRect,0.200000X0.200000X0.275000X-0.200000X0.275000X-0.200000X-0.275000X0.200000X-0.275000X0*%
%ADD13RoundRect,0.200000X-0.275000X0.200000X-0.275000X-0.200000X0.275000X-0.200000X0.275000X0.200000X0*%
%ADD14RoundRect,0.237500X0.237500X0.262500X-0.237500X0.262500X-0.237500X-0.262500X0.237500X-0.262500X0*%
%ADD15RoundRect,0.200000X0.275000X-0.200000X0.275000X0.200000X-0.275000X0.200000X-0.275000X-0.200000X0*%
%ADD16RoundRect,0.200000X-0.335876X-0.053033X-0.053033X-0.335876X0.335876X0.053033X0.053033X0.335876X0*%
%ADD17RoundRect,0.150000X-0.512500X-0.150000X0.512500X-0.150000X0.512500X0.150000X-0.512500X0.150000X0*%
%ADD18RoundRect,0.200000X-0.053033X0.335876X-0.335876X0.053033X0.053033X-0.335876X0.335876X-0.053033X0*%
%ADD19RoundRect,0.075000X0.650000X0.075000X-0.650000X0.075000X-0.650000X-0.075000X0.650000X-0.075000X0*%
%ADD20RoundRect,0.287500X-0.612500X0.287500X-0.612500X-0.287500X0.612500X-0.287500X0.612500X0.287500X0*%
G04 APERTURE END LIST*
D10*
%TO.C,C13*%
X161136396Y-80363604D03*
X159863604Y-81636396D03*
%TD*%
D11*
%TO.C,Q2*%
X125137500Y-82050001D03*
X125137500Y-83949999D03*
X122862500Y-83000000D03*
%TD*%
D12*
%TO.C,R22*%
X146075000Y-86250000D03*
X144425000Y-86250000D03*
%TD*%
D11*
%TO.C,Q3*%
X119137500Y-82050000D03*
X119137500Y-83950000D03*
X116862500Y-83000000D03*
%TD*%
D13*
%TO.C,R15*%
X122000000Y-77175000D03*
X122000000Y-78825000D03*
%TD*%
D14*
%TO.C,C12*%
X169299999Y-81500000D03*
X167700001Y-81500000D03*
%TD*%
D15*
%TO.C,R7*%
X128000000Y-78825000D03*
X128000000Y-77175000D03*
%TD*%
D16*
%TO.C,R6*%
X163666637Y-84166637D03*
X164833363Y-85333363D03*
%TD*%
D17*
%TO.C,Q4*%
X149862500Y-83949999D03*
X149862500Y-82050001D03*
X152137500Y-83000000D03*
%TD*%
D18*
%TO.C,TH1*%
X161833363Y-84166637D03*
X160666637Y-85333363D03*
%TD*%
D19*
%TO.C,U4*%
X169000000Y-78000000D03*
X169000000Y-78500000D03*
X169000000Y-79000000D03*
X169000000Y-79500000D03*
X169000000Y-80000000D03*
X164700000Y-80000000D03*
X164700000Y-79500000D03*
X164700000Y-79000000D03*
X164700000Y-78500000D03*
X164700000Y-78000000D03*
%TD*%
D15*
%TO.C,R5*%
X163250000Y-82500000D03*
X163250000Y-80850000D03*
%TD*%
D13*
%TO.C,R19*%
X139000000Y-82175000D03*
X139000000Y-83825000D03*
%TD*%
D17*
%TO.C,Q6*%
X131862500Y-83949999D03*
X131862500Y-82050001D03*
X134137500Y-83000000D03*
%TD*%
D12*
%TO.C,R18*%
X118825000Y-87000000D03*
X117175000Y-87000000D03*
%TD*%
D13*
%TO.C,R10*%
X148000000Y-82175000D03*
X148000000Y-83825000D03*
%TD*%
D12*
%TO.C,R17*%
X124825000Y-87000000D03*
X123175000Y-87000000D03*
%TD*%
D15*
%TO.C,R9*%
X140000000Y-78825000D03*
X140000000Y-77175000D03*
%TD*%
D12*
%TO.C,R20*%
X152825000Y-87000000D03*
X151175000Y-87000000D03*
%TD*%
%TO.C,R23*%
X134825000Y-87000000D03*
X133175000Y-87000000D03*
%TD*%
D17*
%TO.C,Q5*%
X140862500Y-83949999D03*
X140862500Y-82050001D03*
X143137500Y-83000000D03*
%TD*%
D15*
%TO.C,R16*%
X125000000Y-78825000D03*
X125000000Y-77175000D03*
%TD*%
D13*
%TO.C,R21*%
X130000000Y-82175000D03*
X130000000Y-83825000D03*
%TD*%
D20*
%TO.C,C11*%
X171750000Y-80500000D03*
X171750000Y-83500000D03*
%TD*%
D15*
%TO.C,R8*%
X134000000Y-78825000D03*
X134000000Y-77175000D03*
%TD*%
M02*
