%TF.GenerationSoftware,KiCad,Pcbnew,8.0.8*%
%TF.CreationDate,2025-01-25T09:27:46-05:00*%
%TF.ProjectId,GF24,47463234-2e6b-4696-9361-645f70636258,rev?*%
%TF.SameCoordinates,Original*%
%TF.FileFunction,Soldermask,Top*%
%TF.FilePolarity,Negative*%
%FSLAX46Y46*%
G04 Gerber Fmt 4.6, Leading zero omitted, Abs format (unit mm)*
G04 Created by KiCad (PCBNEW 8.0.8) date 2025-01-25 09:27:47*
%MOMM*%
%LPD*%
G01*
G04 APERTURE LIST*
G04 Aperture macros list*
%AMRoundRect*
0 Rectangle with rounded corners*
0 $1 Rounding radius*
0 $2 $3 $4 $5 $6 $7 $8 $9 X,Y pos of 4 corners*
0 Add a 4 corners polygon primitive as box body*
4,1,4,$2,$3,$4,$5,$6,$7,$8,$9,$2,$3,0*
0 Add four circle primitives for the rounded corners*
1,1,$1+$1,$2,$3*
1,1,$1+$1,$4,$5*
1,1,$1+$1,$6,$7*
1,1,$1+$1,$8,$9*
0 Add four rect primitives between the rounded corners*
20,1,$1+$1,$2,$3,$4,$5,0*
20,1,$1+$1,$4,$5,$6,$7,0*
20,1,$1+$1,$6,$7,$8,$9,0*
20,1,$1+$1,$8,$9,$2,$3,0*%
G04 Aperture macros list end*
%ADD10RoundRect,0.155000X0.155000X-0.155000X0.155000X0.155000X-0.155000X0.155000X-0.155000X-0.155000X0*%
%ADD11RoundRect,0.200000X-0.200000X-0.275000X0.200000X-0.275000X0.200000X0.275000X-0.200000X0.275000X0*%
%ADD12RoundRect,0.155000X-0.155000X-0.155000X0.155000X-0.155000X0.155000X0.155000X-0.155000X0.155000X0*%
%ADD13RoundRect,0.287500X-0.437500X0.287500X-0.437500X-0.287500X0.437500X-0.287500X0.437500X0.287500X0*%
%ADD14C,3.000000*%
%ADD15RoundRect,0.287500X0.437500X-0.287500X0.437500X0.287500X-0.437500X0.287500X-0.437500X-0.287500X0*%
%ADD16RoundRect,0.200000X0.275000X-0.200000X0.275000X0.200000X-0.275000X0.200000X-0.275000X-0.200000X0*%
%ADD17RoundRect,0.200000X-0.335876X-0.053033X-0.053033X-0.335876X0.335876X0.053033X0.053033X0.335876X0*%
%ADD18RoundRect,0.200000X0.200000X0.275000X-0.200000X0.275000X-0.200000X-0.275000X0.200000X-0.275000X0*%
%ADD19RoundRect,0.237500X-0.262500X0.237500X-0.262500X-0.237500X0.262500X-0.237500X0.262500X0.237500X0*%
%ADD20RoundRect,0.250000X-0.750000X-0.250000X0.750000X-0.250000X0.750000X0.250000X-0.750000X0.250000X0*%
%ADD21O,2.652400X1.452400*%
%ADD22O,3.352400X1.452400*%
%ADD23RoundRect,0.175000X0.175000X-0.325000X0.175000X0.325000X-0.175000X0.325000X-0.175000X-0.325000X0*%
%ADD24RoundRect,0.225000X-0.375000X-0.225000X0.375000X-0.225000X0.375000X0.225000X-0.375000X0.225000X0*%
%ADD25RoundRect,0.225000X-0.275000X-0.225000X0.275000X-0.225000X0.275000X0.225000X-0.275000X0.225000X0*%
%ADD26RoundRect,0.075000X-0.175000X-0.075000X0.175000X-0.075000X0.175000X0.075000X-0.175000X0.075000X0*%
%ADD27RoundRect,0.225000X-0.225000X-0.575000X0.225000X-0.575000X0.225000X0.575000X-0.225000X0.575000X0*%
%ADD28R,1.800000X1.500000*%
%ADD29R,1.500000X1.800000*%
%ADD30RoundRect,0.200000X-0.275000X0.200000X-0.275000X-0.200000X0.275000X-0.200000X0.275000X0.200000X0*%
%ADD31RoundRect,0.075000X-0.662500X-0.075000X0.662500X-0.075000X0.662500X0.075000X-0.662500X0.075000X0*%
%ADD32RoundRect,0.075000X-0.075000X-0.662500X0.075000X-0.662500X0.075000X0.662500X-0.075000X0.662500X0*%
%ADD33C,1.300000*%
%ADD34RoundRect,0.250000X-0.350000X-0.650000X0.350000X-0.650000X0.350000X0.650000X-0.350000X0.650000X0*%
%ADD35O,1.200000X1.800000*%
%ADD36RoundRect,0.155000X0.155000X0.155000X-0.155000X0.155000X-0.155000X-0.155000X0.155000X-0.155000X0*%
%ADD37RoundRect,0.150000X0.512500X0.150000X-0.512500X0.150000X-0.512500X-0.150000X0.512500X-0.150000X0*%
%ADD38RoundRect,0.250000X0.250000X0.550000X-0.250000X0.550000X-0.250000X-0.550000X0.250000X-0.550000X0*%
%ADD39RoundRect,0.227500X0.109602X-0.431335X0.431335X-0.109602X-0.109602X0.431335X-0.431335X0.109602X0*%
%ADD40C,1.168400*%
%ADD41RoundRect,0.187500X0.035355X0.300520X-0.300520X-0.035355X-0.035355X-0.300520X0.300520X0.035355X0*%
%ADD42RoundRect,0.287500X0.287500X0.612500X-0.287500X0.612500X-0.287500X-0.612500X0.287500X-0.612500X0*%
%ADD43C,2.500000*%
%ADD44RoundRect,0.075000X-0.106066X-0.212132X0.212132X0.106066X0.106066X0.212132X-0.212132X-0.106066X0*%
%ADD45RoundRect,0.300000X0.070711X-0.494975X0.494975X-0.070711X-0.070711X0.494975X-0.494975X0.070711X0*%
%ADD46RoundRect,0.287500X-0.287500X-0.612500X0.287500X-0.612500X0.287500X0.612500X-0.287500X0.612500X0*%
%ADD47O,1.000000X2.200000*%
G04 APERTURE END LIST*
D10*
%TO.C,C3*%
X127000000Y-95450000D03*
X127000000Y-94550000D03*
%TD*%
D11*
%TO.C,R11*%
X122425000Y-99500000D03*
X124075000Y-99500000D03*
%TD*%
D12*
%TO.C,C6*%
X125550000Y-92500000D03*
X126450000Y-92500000D03*
%TD*%
D13*
%TO.C,C8*%
X170500000Y-111600000D03*
X170500000Y-113400000D03*
%TD*%
D14*
%TO.C,SW4*%
X174235000Y-101300000D03*
X174235000Y-106000000D03*
X174235000Y-110700000D03*
X183765000Y-112605000D03*
X183765000Y-99395000D03*
%TD*%
D15*
%TO.C,C10*%
X161750000Y-95900000D03*
X161750000Y-94100000D03*
%TD*%
D16*
%TO.C,R2*%
X141000000Y-103325000D03*
X141000000Y-101675000D03*
%TD*%
D17*
%TO.C,R12*%
X122416637Y-101916637D03*
X123583363Y-103083363D03*
%TD*%
D15*
%TO.C,C15*%
X163500000Y-109300000D03*
X163500000Y-107500000D03*
%TD*%
D18*
%TO.C,R4*%
X165475000Y-94000000D03*
X163825000Y-94000000D03*
%TD*%
D19*
%TO.C,C4*%
X120500000Y-91200000D03*
X120500000Y-92800000D03*
%TD*%
D14*
%TO.C,SW5*%
X162905000Y-86765000D03*
X167605000Y-86765000D03*
X172305000Y-86765000D03*
X174210000Y-77235000D03*
X161000000Y-77235000D03*
%TD*%
D20*
%TO.C,D2*%
X127500000Y-76000000D03*
X130500000Y-76000000D03*
%TD*%
D21*
%TO.C,U6*%
X183000000Y-85320000D03*
X183000000Y-76680000D03*
D22*
X178850000Y-85320000D03*
X178850000Y-76680000D03*
%TD*%
D23*
%TO.C,SW1*%
X116675000Y-92500000D03*
X116675000Y-88000000D03*
X118825000Y-92500000D03*
X118825000Y-88000000D03*
%TD*%
D13*
%TO.C,C9*%
X163450000Y-111400000D03*
X163450000Y-113200000D03*
%TD*%
D24*
%TO.C,D5*%
X121500000Y-76000000D03*
D25*
X123000000Y-76450000D03*
D24*
X124500000Y-76000000D03*
%TD*%
D26*
%TO.C,U3*%
X165500000Y-111650000D03*
X165500001Y-112300000D03*
X165500000Y-112950000D03*
X167400000Y-112950000D03*
X167399999Y-112300000D03*
X167400000Y-111650000D03*
D27*
X166450000Y-112300000D03*
%TD*%
D28*
%TO.C,U2*%
X88400000Y-91200000D03*
X88400000Y-93100000D03*
X88400000Y-95000000D03*
X88400000Y-96900000D03*
X88400000Y-98800000D03*
D29*
X91200000Y-101600000D03*
X93100000Y-101600000D03*
X95000000Y-101600000D03*
X96900000Y-101600000D03*
X98800000Y-101600000D03*
D28*
X101600000Y-98800000D03*
X101600000Y-96900000D03*
X101600000Y-95000000D03*
X101600000Y-93100000D03*
X101600000Y-91200000D03*
D29*
X98800000Y-88400000D03*
X96900000Y-88400000D03*
X95000000Y-88400000D03*
X93100000Y-88400000D03*
X91200000Y-88400000D03*
%TD*%
D30*
%TO.C,R1*%
X134750000Y-85175000D03*
X134750000Y-86825000D03*
%TD*%
D20*
%TO.C,D4*%
X139500000Y-76000000D03*
X142500000Y-76000000D03*
%TD*%
D31*
%TO.C,U1*%
X129837500Y-90250000D03*
X129837500Y-90750000D03*
X129837500Y-91250000D03*
X129837500Y-91750000D03*
X129837500Y-92250000D03*
X129837500Y-92750000D03*
X129837500Y-93250000D03*
X129837500Y-93750000D03*
X129837500Y-94250000D03*
X129837500Y-94750000D03*
X129837500Y-95250000D03*
X129837500Y-95750000D03*
D32*
X131250000Y-97162500D03*
X131750000Y-97162500D03*
X132250000Y-97162500D03*
X132750000Y-97162500D03*
X133250000Y-97162500D03*
X133750000Y-97162500D03*
X134250000Y-97162500D03*
X134750000Y-97162500D03*
X135250000Y-97162500D03*
X135750000Y-97162500D03*
X136250000Y-97162500D03*
X136750000Y-97162500D03*
D31*
X138162500Y-95750000D03*
X138162500Y-95250000D03*
X138162500Y-94750000D03*
X138162500Y-94250000D03*
X138162500Y-93750000D03*
X138162500Y-93250000D03*
X138162500Y-92750000D03*
X138162500Y-92250000D03*
X138162500Y-91750000D03*
X138162500Y-91250000D03*
X138162500Y-90750000D03*
X138162500Y-90250000D03*
D32*
X136750000Y-88837500D03*
X136250000Y-88837500D03*
X135750000Y-88837500D03*
X135250000Y-88837500D03*
X134750000Y-88837500D03*
X134250000Y-88837500D03*
X133750000Y-88837500D03*
X133250000Y-88837500D03*
X132750000Y-88837500D03*
X132250000Y-88837500D03*
X131750000Y-88837500D03*
X131250000Y-88837500D03*
%TD*%
D33*
%TO.C,SW3*%
X169650000Y-100100000D03*
D34*
X161650000Y-102000000D03*
D35*
X163650000Y-102000000D03*
X165650000Y-102000000D03*
X167650000Y-102000000D03*
%TD*%
D36*
%TO.C,C5*%
X125950000Y-87500000D03*
X125050000Y-87500000D03*
%TD*%
D16*
%TO.C,R3*%
X169650000Y-96825000D03*
X169650000Y-95175000D03*
%TD*%
D37*
%TO.C,Q1*%
X141887500Y-107200000D03*
X141887500Y-105300000D03*
X139612500Y-106250000D03*
%TD*%
D30*
%TO.C,R14*%
X168250000Y-107575000D03*
X168250000Y-109225000D03*
%TD*%
D19*
%TO.C,C14*%
X116588478Y-99750431D03*
X116588478Y-101350431D03*
%TD*%
D38*
%TO.C,SW2*%
X136500000Y-81100000D03*
X134750000Y-83400000D03*
X133000000Y-81100000D03*
%TD*%
D30*
%TO.C,R13*%
X165500000Y-107575000D03*
X165500000Y-109225000D03*
%TD*%
D39*
%TO.C,D1*%
X139593880Y-111906120D03*
X141906120Y-109593880D03*
%TD*%
D40*
%TO.C,J1*%
X144500000Y-93500000D03*
X143230000Y-93500000D03*
X144500000Y-92230000D03*
X143230000Y-92230000D03*
X144500000Y-90960000D03*
X143230000Y-90960000D03*
X144500000Y-89690000D03*
X143230000Y-89690000D03*
X144500000Y-88420000D03*
X143230000Y-88420000D03*
%TD*%
D41*
%TO.C,Y1*%
X125856066Y-89151472D03*
X124901472Y-90106066D03*
X125643934Y-90848528D03*
X126598528Y-89893934D03*
%TD*%
D42*
%TO.C,C1*%
X139250000Y-99750000D03*
X136250000Y-99750000D03*
%TD*%
D43*
%TO.C,BZ1*%
X128750000Y-107000000D03*
X135250000Y-107000000D03*
%TD*%
D20*
%TO.C,D3*%
X133500000Y-76000000D03*
X136500000Y-76000000D03*
%TD*%
D44*
%TO.C,U5*%
X118439340Y-101939340D03*
X118792893Y-102292893D03*
X119146447Y-102646447D03*
X119500000Y-103000000D03*
X121338478Y-101161522D03*
X120984925Y-100807969D03*
X120631371Y-100454415D03*
X120277818Y-100100862D03*
D45*
X119888909Y-101550431D03*
%TD*%
D46*
%TO.C,C2*%
X129830000Y-86000000D03*
X132830000Y-86000000D03*
%TD*%
D47*
%TO.C,BAT1*%
X173400000Y-97550000D03*
X181000000Y-95000000D03*
X173400000Y-92450000D03*
%TD*%
%TO.C,BAT2*%
X127550000Y-92450000D03*
X119950000Y-95000000D03*
X127550000Y-97550000D03*
%TD*%
M02*
